<svg width="620" height="173" viewBox="0 0 620 173" fill="none" xmlns="http://www.w3.org/2000/svg">
<circle cx="190" cy="157" r="12" fill="#344054"/>
<path d="M190.244 163.159C189.396 163.159 188.64 163.014 187.977 162.722C187.318 162.426 186.797 162.021 186.415 161.506C186.036 160.987 185.841 160.389 185.83 159.71H188.307C188.322 159.995 188.415 160.245 188.585 160.46C188.759 160.673 188.991 160.837 189.278 160.955C189.566 161.072 189.89 161.131 190.25 161.131C190.625 161.131 190.956 161.065 191.244 160.932C191.532 160.799 191.758 160.616 191.92 160.381C192.083 160.146 192.165 159.875 192.165 159.568C192.165 159.258 192.078 158.983 191.903 158.745C191.733 158.502 191.487 158.313 191.165 158.176C190.847 158.04 190.468 157.972 190.028 157.972H188.943V156.165H190.028C190.4 156.165 190.727 156.101 191.011 155.972C191.299 155.843 191.523 155.665 191.682 155.438C191.841 155.207 191.92 154.938 191.92 154.631C191.92 154.339 191.85 154.084 191.71 153.864C191.574 153.64 191.381 153.466 191.131 153.341C190.884 153.216 190.597 153.154 190.267 153.154C189.934 153.154 189.629 153.214 189.352 153.335C189.076 153.453 188.854 153.621 188.688 153.841C188.521 154.061 188.432 154.318 188.42 154.614H186.062C186.074 153.943 186.265 153.353 186.636 152.841C187.008 152.33 187.508 151.93 188.136 151.642C188.769 151.351 189.483 151.205 190.278 151.205C191.081 151.205 191.784 151.351 192.386 151.642C192.989 151.934 193.456 152.328 193.79 152.824C194.127 153.317 194.294 153.87 194.29 154.483C194.294 155.135 194.091 155.678 193.682 156.114C193.277 156.549 192.748 156.826 192.097 156.943V157.034C192.953 157.144 193.604 157.442 194.051 157.926C194.502 158.407 194.725 159.01 194.722 159.733C194.725 160.396 194.534 160.985 194.148 161.5C193.765 162.015 193.237 162.421 192.562 162.716C191.888 163.012 191.116 163.159 190.244 163.159Z" fill="white"/>
<path d="M190 145.5V98.0002" stroke="#344054" stroke-dasharray="2 2"/>
<rect x="0.5" y="45.5002" width="619" height="63" rx="7.5" fill="white"/>
<path d="M55.4766 80.8284C55.5339 80.8284 55.5807 80.8049 55.6172 80.7581C55.6536 80.706 55.6719 80.5341 55.6719 80.2424C55.6719 79.9508 55.6536 79.7815 55.6172 79.7346C55.5807 79.6825 55.5339 79.6565 55.4766 79.6565H55.2812V80.8284H55.4766ZM55.2812 78.5002C55.3438 78.4898 55.4089 78.4846 55.4766 78.4846C55.7786 78.4846 56.0156 78.6122 56.1875 78.8674C56.3646 79.1174 56.4531 79.5758 56.4531 80.2424C56.4531 80.9091 56.3646 81.37 56.1875 81.6252C56.0156 81.8752 55.6875 82.0002 55.2031 82.0002C54.7188 82.0002 54.388 81.8752 54.2109 81.6252C54.0391 81.37 53.9531 80.9091 53.9531 80.2424V73.4065C53.849 73.0419 53.5885 72.6513 53.1719 72.2346V71.4534C53.1719 70.6721 53.5625 70.2815 54.3438 70.2815H55.6719V71.4534H54.7344C54.474 71.4534 54.3438 71.5836 54.3438 71.844C54.9688 72.2607 55.2812 72.7815 55.2812 73.4065V78.5002ZM60.5156 73.4065V83.9534C60.5156 85.2555 61.0755 85.9065 62.1953 85.9065C63.3151 85.9065 63.875 85.2555 63.875 83.9534V82.7815H65.2031V83.9534C65.2031 86.0367 64.2005 87.0784 62.1953 87.0784C60.1901 87.0784 59.1875 86.0367 59.1875 83.9534V73.4065C59.1875 73.0419 58.9271 72.6513 58.4062 72.2346V71.4534C58.4062 70.6721 58.7969 70.2815 59.5781 70.2815H60.9062V71.4534H59.9688C59.7083 71.4534 59.5781 71.5836 59.5781 71.844C60.2031 72.2607 60.5156 72.7815 60.5156 73.4065ZM65.0469 79.6565V80.8284C65.1562 80.8284 65.2474 80.7997 65.3203 80.7424C65.3984 80.6799 65.4375 80.5133 65.4375 80.2424C65.4375 79.9716 65.3984 79.8075 65.3203 79.7502C65.2474 79.6877 65.1562 79.6565 65.0469 79.6565ZM77.1562 73.4065V78.094C77.1562 80.6982 75.9844 82.0002 73.6406 82.0002C71.1146 82.0002 69.8516 80.6982 69.8516 78.094V76.5315C69.8516 74.7086 69.0781 73.7971 67.5312 73.7971C65.9792 73.7971 65.2031 74.7086 65.2031 76.5315V78.5627C65.3229 78.5107 65.4609 78.4846 65.6172 78.4846C65.7734 78.4846 65.9375 78.6252 66.1094 78.9065C66.2865 79.1825 66.375 79.6278 66.375 80.2424C66.375 80.857 66.2604 81.3049 66.0312 81.5862C65.8073 81.8622 65.5052 82.0002 65.125 82.0002C64.7448 82.0002 64.4427 81.8596 64.2188 81.5784C64.0417 81.3648 63.9323 81.0497 63.8906 80.6331H63.875V76.5315C63.875 74.9065 64.349 73.7893 65.2969 73.1799C65.0625 72.7893 64.7188 72.4742 64.2656 72.2346V71.4534C64.2656 70.6721 64.6562 70.2815 65.4375 70.2815H69.7344V71.4534H65.9844C65.724 71.4534 65.5938 71.5836 65.5938 71.844C66 72.0627 66.3203 72.3492 66.5547 72.7034C66.8568 72.6513 67.1823 72.6252 67.5312 72.6252C69.9635 72.6252 71.1797 73.9273 71.1797 76.5315V78.094C71.1797 79.9169 72 80.8284 73.6406 80.8284C75.099 80.8284 75.8281 79.9169 75.8281 78.094V73.4065C75.8281 73.0419 75.5677 72.6513 75.0469 72.2346V71.4534C75.0469 70.6721 75.4375 70.2815 76.2188 70.2815H77.5469V71.4534H76.6094C76.349 71.4534 76.2188 71.5836 76.2188 71.844C76.8438 72.2607 77.1562 72.7815 77.1562 73.4065ZM77.1562 70.2815H78.7188C80.8021 70.2815 81.8438 71.3232 81.8438 73.4065V82.0002H80.5156V73.4065C80.5156 72.1044 79.9167 71.4534 78.7188 71.4534H77.1562V70.2815ZM87.0781 76.5315V78.094C87.0781 79.9169 87.9375 80.8284 89.6562 80.8284C91.375 80.8284 92.2344 79.9169 92.2344 78.094V76.5315H87.0781ZM87.0781 75.3596H92.2344V73.4065C92.2344 73.0419 91.974 72.6513 91.4531 72.2346V71.4534C91.4531 70.6721 91.8438 70.2815 92.625 70.2815H93.9531V71.4534H93.0156C92.7552 71.4534 92.625 71.5836 92.625 71.844C93.25 72.2607 93.5625 72.7815 93.5625 73.4065V78.094C93.5625 80.6982 92.2604 82.0002 89.6562 82.0002C87.0521 82.0002 85.75 80.6982 85.75 78.094V73.4065C85.75 73.0419 85.4896 72.6513 84.9688 72.2346V71.4534C84.9688 70.6721 85.3594 70.2815 86.1406 70.2815H87.4688V71.4534H86.5312C86.2708 71.4534 86.1406 71.5836 86.1406 71.844C86.7656 72.2607 87.0781 72.7815 87.0781 73.4065V75.3596ZM98.6406 79.6565V80.8284C98.75 80.8284 98.8411 80.7997 98.9141 80.7424C98.9922 80.6799 99.0312 80.5133 99.0312 80.2424C99.0312 79.9716 98.9922 79.8075 98.9141 79.7502C98.8411 79.6877 98.75 79.6565 98.6406 79.6565ZM110.75 73.4065V78.094C110.75 80.6982 109.578 82.0002 107.234 82.0002C104.708 82.0002 103.445 80.6982 103.445 78.094V76.5315C103.445 74.7086 102.672 73.7971 101.125 73.7971C99.5729 73.7971 98.7969 74.7086 98.7969 76.5315V78.5627C98.9167 78.5107 99.0547 78.4846 99.2109 78.4846C99.3672 78.4846 99.5312 78.6252 99.7031 78.9065C99.8802 79.1825 99.9688 79.6278 99.9688 80.2424C99.9688 80.857 99.8542 81.3049 99.625 81.5862C99.401 81.8622 99.099 82.0002 98.7188 82.0002C98.3385 82.0002 98.0365 81.8596 97.8125 81.5784C97.6354 81.3648 97.526 81.0497 97.4844 80.6331H97.4688V76.5315C97.4688 74.9065 97.9427 73.7893 98.8906 73.1799C98.6562 72.7893 98.3125 72.4742 97.8594 72.2346V71.4534C97.8594 70.6721 98.25 70.2815 99.0312 70.2815H103.328V71.4534H99.5781C99.3177 71.4534 99.1875 71.5836 99.1875 71.844C99.5938 72.0627 99.9141 72.3492 100.148 72.7034C100.451 72.6513 100.776 72.6252 101.125 72.6252C103.557 72.6252 104.773 73.9273 104.773 76.5315V78.094C104.773 79.9169 105.594 80.8284 107.234 80.8284C108.693 80.8284 109.422 79.9169 109.422 78.094V73.4065C109.422 73.0419 109.161 72.6513 108.641 72.2346V71.4534C108.641 70.6721 109.031 70.2815 109.812 70.2815H111.141V71.4534H110.203C109.943 71.4534 109.812 71.5836 109.812 71.844C110.438 72.2607 110.75 72.7815 110.75 73.4065ZM106.453 66.1799C106.453 66.3726 106.503 66.5185 106.602 66.6174C106.701 66.7164 106.846 66.7659 107.039 66.7659C107.237 66.7659 107.385 66.7164 107.484 66.6174C107.578 66.5185 107.625 66.3726 107.625 66.1799C107.625 65.982 107.578 65.8362 107.484 65.7424C107.385 65.6435 107.237 65.594 107.039 65.594C106.846 65.594 106.701 65.6435 106.602 65.7424C106.503 65.8362 106.453 65.982 106.453 66.1799ZM108.797 66.1799C108.797 66.7685 108.651 67.2086 108.359 67.5002C108.068 67.7919 107.628 67.9377 107.039 67.9377C106.451 67.9377 106.01 67.7919 105.719 67.5002C105.427 67.2086 105.281 66.7685 105.281 66.1799C105.281 65.5914 105.427 65.1513 105.719 64.8596C106.01 64.568 106.451 64.4221 107.039 64.4221C107.628 64.4221 108.068 64.568 108.359 64.8596C108.651 65.1513 108.797 65.5914 108.797 66.1799ZM121.141 73.4065C121.141 73.0419 120.88 72.6513 120.359 72.2346V71.4534C120.359 70.6721 120.75 70.2815 121.531 70.2815H122.859V71.4534H121.922C121.661 71.4534 121.531 71.5836 121.531 71.844C122.156 72.2607 122.469 72.7815 122.469 73.4065V78.094C122.469 80.6982 121.167 82.0002 118.562 82.0002C115.958 82.0002 114.656 80.6982 114.656 78.094V73.4065C114.656 73.0419 114.396 72.6513 113.875 72.2346V71.4534C113.875 70.6721 114.266 70.2815 115.047 70.2815H116.375V71.4534H115.438C115.177 71.4534 115.047 71.5836 115.047 71.844C115.672 72.2607 115.984 72.7815 115.984 73.4065V78.094C115.984 79.9169 116.844 80.8284 118.562 80.8284C120.281 80.8284 121.141 79.9169 121.141 78.094V73.4065ZM122.469 82.7815V87.0784H121.141V82.7815H122.469ZM127.703 73.4065V83.9534C127.703 85.2555 128.263 85.9065 129.383 85.9065C130.503 85.9065 131.062 85.2555 131.062 83.9534V82.7815H132.391V83.9534C132.391 86.0367 131.388 87.0784 129.383 87.0784C127.378 87.0784 126.375 86.0367 126.375 83.9534V73.4065C126.375 73.0419 126.115 72.6513 125.594 72.2346V71.4534C125.594 70.6721 125.984 70.2815 126.766 70.2815H128.094V71.4534H127.156C126.896 71.4534 126.766 71.5836 126.766 71.844C127.391 72.2607 127.703 72.7815 127.703 73.4065ZM132.234 79.6565V80.8284C132.344 80.8284 132.435 80.7997 132.508 80.7424C132.586 80.6799 132.625 80.5133 132.625 80.2424C132.625 79.9716 132.586 79.8075 132.508 79.7502C132.435 79.6877 132.344 79.6565 132.234 79.6565ZM138.875 70.2815V71.4534H131.062V70.2815H138.875ZM131.062 76.5315C131.062 73.9273 132.365 72.6252 134.969 72.6252C137.573 72.6252 138.875 73.9273 138.875 76.5315V82.0002H137.547V76.5315C137.547 74.7086 136.688 73.7971 134.969 73.7971C133.25 73.7971 132.391 74.7086 132.391 76.5315V78.5627C132.51 78.5107 132.648 78.4846 132.805 78.4846C132.961 78.4846 133.125 78.6252 133.297 78.9065C133.474 79.1825 133.562 79.6278 133.562 80.2424C133.562 80.857 133.448 81.3049 133.219 81.5862C132.995 81.8622 132.693 82.0002 132.312 82.0002C131.932 82.0002 131.63 81.8596 131.406 81.5784C131.229 81.3648 131.12 81.0497 131.078 80.6331H131.062V76.5315ZM149.5 77.3831C149.536 77.3935 149.573 77.3987 149.609 77.3987C149.745 77.3987 149.812 77.2919 149.812 77.0784C149.812 76.87 149.76 76.7659 149.656 76.7659C149.552 76.7659 149.5 76.8674 149.5 77.0706V77.3831ZM149.5 78.0862V78.8752C149.5 80.9586 148.562 82.0002 146.688 82.0002C144.812 82.0002 143.875 80.9586 143.875 78.8752V77.3127H145.203V78.8752C145.203 80.1773 145.698 80.8284 146.688 80.8284C147.677 80.8284 148.172 80.1773 148.172 78.8752V77.8987C144.578 76.8622 142.781 75.3648 142.781 73.4065C142.781 71.3232 144.083 70.2815 146.688 70.2815C149.292 70.2815 150.594 71.3232 150.594 73.4065C150.594 74.8596 149.87 75.5862 148.422 75.5862C148.094 75.5862 147.828 75.5107 147.625 75.3596V74.1877C147.995 74.2971 148.297 74.3518 148.531 74.3518C149.021 74.3518 149.266 74.0367 149.266 73.4065C149.266 72.1044 148.406 71.4534 146.688 71.4534C144.969 71.4534 144.109 72.1044 144.109 73.4065C144.109 75.0159 145.464 76.1487 148.172 76.8049C148.172 76.3101 148.536 76.0627 149.266 76.0627C150.151 76.0627 150.594 76.3883 150.594 77.0393C150.594 77.4299 150.505 77.706 150.328 77.8674C150.151 78.0289 149.961 78.1096 149.758 78.1096C149.674 78.1096 149.589 78.1018 149.5 78.0862ZM145.906 66.9221H149.422C148.125 66.0367 147.083 65.594 146.297 65.594C145.255 65.594 144.734 65.8153 144.734 66.2581C144.734 66.7008 145.125 66.9221 145.906 66.9221ZM149.422 65.6331V63.6409H150.594V67.9377H145.516C144.214 67.9377 143.562 67.4169 143.562 66.3752C143.562 65.0732 144.474 64.4221 146.297 64.4221C147.339 64.4221 148.315 64.7737 149.227 65.4768C149.294 65.5289 149.359 65.581 149.422 65.6331ZM162.172 80.8284C164.151 80.8284 165.141 79.1357 165.141 75.7502C165.141 72.8857 164.281 71.4534 162.562 71.4534C160.844 71.4534 159.984 72.3648 159.984 74.1877C159.984 74.5055 160.044 74.7867 160.164 75.0315C160.289 75.2711 160.549 75.3909 160.945 75.3909C161.32 75.3909 161.557 75.3362 161.656 75.2268C161.734 75.1383 161.773 75.0523 161.773 74.969C161.773 74.943 161.771 74.9195 161.766 74.8987C161.74 74.7893 161.698 74.7346 161.641 74.7346C161.583 74.7346 161.43 74.8206 161.18 74.9924L160.836 74.094C161.201 73.8284 161.529 73.6956 161.82 73.6956C162.138 73.6956 162.385 73.7893 162.562 73.9768C162.74 74.1643 162.828 74.4924 162.828 74.9612C162.828 75.2216 162.76 75.5002 162.625 75.7971C162.495 76.094 162.276 76.3049 161.969 76.4299C161.661 76.5497 161.341 76.6096 161.008 76.6096C160.617 76.6096 160.253 76.5523 159.914 76.4377C159.581 76.3232 159.286 76.0888 159.031 75.7346C158.781 75.3752 158.656 74.8596 158.656 74.1877C158.656 71.5836 159.958 70.2815 162.562 70.2815C165.167 70.2815 166.469 72.1044 166.469 75.7502C166.469 79.9169 165.036 82.0002 162.172 82.0002C161.104 82.0002 160.167 81.7138 159.359 81.1409L159.75 80.0471C160.323 80.568 161.13 80.8284 162.172 80.8284Z" fill="#344054"/>
<path fill-rule="evenodd" clip-rule="evenodd" d="M575.203 72.3567C575.268 72.2922 575.344 72.2411 575.428 72.2062C575.512 72.1713 575.602 72.1533 575.693 72.1533C575.785 72.1533 575.875 72.1713 575.959 72.2062C576.043 72.2411 576.119 72.2922 576.184 72.3567L584 80.1747L591.817 72.3567C591.881 72.2923 591.958 72.2413 592.042 72.2064C592.126 72.1716 592.216 72.1537 592.307 72.1537C592.398 72.1537 592.488 72.1716 592.572 72.2064C592.656 72.2413 592.733 72.2923 592.797 72.3567C592.861 72.421 592.912 72.4975 592.947 72.5815C592.982 72.6656 593 72.7558 593 72.8468C593 72.9378 592.982 73.0279 592.947 73.112C592.912 73.1961 592.861 73.2725 592.797 73.3369L584.49 81.6436C584.426 81.7081 584.35 81.7592 584.265 81.7941C584.181 81.829 584.091 81.847 584 81.847C583.909 81.847 583.819 81.829 583.735 81.7941C583.651 81.7592 583.574 81.7081 583.51 81.6436L575.203 73.3369C575.139 73.2726 575.088 73.1962 575.053 73.1121C575.018 73.028 575 72.9378 575 72.8468C575 72.7557 575.018 72.6656 575.053 72.5815C575.088 72.4974 575.139 72.421 575.203 72.3567Z" fill="#344054"/>
<path d="M34 87.0002C36.6522 87.0002 39.1957 85.9467 41.0711 84.0713C42.9464 82.1959 44 79.6524 44 77.0002C44 74.3481 42.9464 71.8045 41.0711 69.9292C39.1957 68.0538 36.6522 67.0002 34 67.0002C31.3478 67.0002 28.8043 68.0538 26.9289 69.9292C25.0536 71.8045 24 74.3481 24 77.0002C24 79.6524 25.0536 82.1959 26.9289 84.0713C28.8043 85.9467 31.3478 87.0002 34 87.0002ZM35.1625 75.2352L33.9125 81.1165C33.825 81.5415 33.9488 81.7827 34.2925 81.7827C34.535 81.7827 34.9012 81.6952 35.15 81.4752L35.04 81.9952C34.6812 82.4277 33.89 82.7427 33.2087 82.7427C32.33 82.7427 31.9563 82.2152 32.1987 81.094L33.1213 76.759C33.2013 76.3927 33.1287 76.2602 32.7625 76.1715L32.1987 76.0702L32.3012 75.594L35.1625 75.2352ZM34 73.8752C33.6685 73.8752 33.3505 73.7435 33.1161 73.5091C32.8817 73.2747 32.75 72.9568 32.75 72.6252C32.75 72.2937 32.8817 71.9758 33.1161 71.7414C33.3505 71.5069 33.6685 71.3752 34 71.3752C34.3315 71.3752 34.6495 71.5069 34.8839 71.7414C35.1183 71.9758 35.25 72.2937 35.25 72.6252C35.25 72.9568 35.1183 73.2747 34.8839 73.5091C34.6495 73.7435 34.3315 73.8752 34 73.8752Z" fill="#667085"/>
<rect x="0.5" y="45.5002" width="619" height="63" rx="7.5" stroke="#98A2B3"/>
<circle cx="11.625" cy="11.625" r="11.625" transform="matrix(-1 0 0 1 212 4)" fill="#344054"/>
<path d="M196.943 22V20.2273L201.085 16.392C201.438 16.0511 201.733 15.7443 201.972 15.4716C202.214 15.1989 202.398 14.9318 202.523 14.6705C202.648 14.4053 202.71 14.1193 202.71 13.8125C202.71 13.4716 202.633 13.178 202.477 12.9318C202.322 12.6818 202.11 12.4905 201.841 12.358C201.572 12.2216 201.267 12.1534 200.926 12.1534C200.57 12.1534 200.259 12.2254 199.994 12.3693C199.729 12.5133 199.525 12.7197 199.381 12.9886C199.237 13.2576 199.165 13.5777 199.165 13.9489H196.83C196.83 13.1875 197.002 12.5265 197.347 11.9659C197.691 11.4053 198.174 10.9716 198.795 10.6648C199.417 10.358 200.133 10.2045 200.943 10.2045C201.777 10.2045 202.502 10.3523 203.119 10.6477C203.741 10.9394 204.223 11.3447 204.568 11.8636C204.913 12.3826 205.085 12.9773 205.085 13.6477C205.085 14.0871 204.998 14.5208 204.824 14.9489C204.653 15.3769 204.348 15.8523 203.909 16.375C203.47 16.8939 202.85 17.517 202.051 18.2443L200.352 19.9091V19.9886H205.239V22H196.943Z" fill="white"/>
<path d="M189.719 15.7754H119V64.2129" stroke="#344054" stroke-dasharray="2 2"/>
<circle cx="34" cy="17.0002" r="12" fill="#344054"/>
<path d="M35.0057 11.3639V23.0002H32.5455V13.6991H32.4773L29.8125 15.3696V13.1877L32.6932 11.3639H35.0057Z" fill="white"/>
<path d="M34 28L34 64" stroke="#344054" stroke-dasharray="2 2"/>
</svg>
