<svg width="792" height="98" viewBox="0 0 792 98" fill="none" xmlns="http://www.w3.org/2000/svg">
<rect x="52.5" y="1.50024" width="619" height="63" rx="7.5" fill="white"/>
<path d="M107.477 36.8284C107.534 36.8284 107.581 36.8049 107.617 36.7581C107.654 36.706 107.672 36.5341 107.672 36.2424C107.672 35.9508 107.654 35.7815 107.617 35.7346C107.581 35.6825 107.534 35.6565 107.477 35.6565H107.281V36.8284H107.477ZM107.281 34.5002C107.344 34.4898 107.409 34.4846 107.477 34.4846C107.779 34.4846 108.016 34.6122 108.188 34.8674C108.365 35.1174 108.453 35.5758 108.453 36.2424C108.453 36.9091 108.365 37.37 108.188 37.6252C108.016 37.8752 107.688 38.0002 107.203 38.0002C106.719 38.0002 106.388 37.8752 106.211 37.6252C106.039 37.37 105.953 36.9091 105.953 36.2424V29.4065C105.849 29.0419 105.589 28.6513 105.172 28.2346V27.4534C105.172 26.6721 105.562 26.2815 106.344 26.2815H107.672V27.4534H106.734C106.474 27.4534 106.344 27.5836 106.344 27.844C106.969 28.2607 107.281 28.7815 107.281 29.4065V34.5002ZM112.516 29.4065V39.9534C112.516 41.2555 113.076 41.9065 114.195 41.9065C115.315 41.9065 115.875 41.2555 115.875 39.9534V38.7815H117.203V39.9534C117.203 42.0367 116.201 43.0784 114.195 43.0784C112.19 43.0784 111.188 42.0367 111.188 39.9534V29.4065C111.188 29.0419 110.927 28.6513 110.406 28.2346V27.4534C110.406 26.6721 110.797 26.2815 111.578 26.2815H112.906V27.4534H111.969C111.708 27.4534 111.578 27.5836 111.578 27.844C112.203 28.2607 112.516 28.7815 112.516 29.4065ZM117.047 35.6565V36.8284C117.156 36.8284 117.247 36.7997 117.32 36.7424C117.398 36.6799 117.438 36.5133 117.438 36.2424C117.438 35.9716 117.398 35.8075 117.32 35.7502C117.247 35.6877 117.156 35.6565 117.047 35.6565ZM129.156 29.4065V34.094C129.156 36.6982 127.984 38.0002 125.641 38.0002C123.115 38.0002 121.852 36.6982 121.852 34.094V32.5315C121.852 30.7086 121.078 29.7971 119.531 29.7971C117.979 29.7971 117.203 30.7086 117.203 32.5315V34.5627C117.323 34.5107 117.461 34.4846 117.617 34.4846C117.773 34.4846 117.938 34.6252 118.109 34.9065C118.286 35.1825 118.375 35.6278 118.375 36.2424C118.375 36.857 118.26 37.3049 118.031 37.5862C117.807 37.8622 117.505 38.0002 117.125 38.0002C116.745 38.0002 116.443 37.8596 116.219 37.5784C116.042 37.3648 115.932 37.0497 115.891 36.6331H115.875V32.5315C115.875 30.9065 116.349 29.7893 117.297 29.1799C117.062 28.7893 116.719 28.4742 116.266 28.2346V27.4534C116.266 26.6721 116.656 26.2815 117.438 26.2815H121.734V27.4534H117.984C117.724 27.4534 117.594 27.5836 117.594 27.844C118 28.0627 118.32 28.3492 118.555 28.7034C118.857 28.6513 119.182 28.6252 119.531 28.6252C121.964 28.6252 123.18 29.9273 123.18 32.5315V34.094C123.18 35.9169 124 36.8284 125.641 36.8284C127.099 36.8284 127.828 35.9169 127.828 34.094V29.4065C127.828 29.0419 127.568 28.6513 127.047 28.2346V27.4534C127.047 26.6721 127.438 26.2815 128.219 26.2815H129.547V27.4534H128.609C128.349 27.4534 128.219 27.5836 128.219 27.844C128.844 28.2607 129.156 28.7815 129.156 29.4065ZM129.156 26.2815H130.719C132.802 26.2815 133.844 27.3232 133.844 29.4065V38.0002H132.516V29.4065C132.516 28.1044 131.917 27.4534 130.719 27.4534H129.156V26.2815ZM139.078 32.5315V34.094C139.078 35.9169 139.938 36.8284 141.656 36.8284C143.375 36.8284 144.234 35.9169 144.234 34.094V32.5315H139.078ZM139.078 31.3596H144.234V29.4065C144.234 29.0419 143.974 28.6513 143.453 28.2346V27.4534C143.453 26.6721 143.844 26.2815 144.625 26.2815H145.953V27.4534H145.016C144.755 27.4534 144.625 27.5836 144.625 27.844C145.25 28.2607 145.562 28.7815 145.562 29.4065V34.094C145.562 36.6982 144.26 38.0002 141.656 38.0002C139.052 38.0002 137.75 36.6982 137.75 34.094V29.4065C137.75 29.0419 137.49 28.6513 136.969 28.2346V27.4534C136.969 26.6721 137.359 26.2815 138.141 26.2815H139.469V27.4534H138.531C138.271 27.4534 138.141 27.5836 138.141 27.844C138.766 28.2607 139.078 28.7815 139.078 29.4065V31.3596ZM150.641 35.6565V36.8284C150.75 36.8284 150.841 36.7997 150.914 36.7424C150.992 36.6799 151.031 36.5133 151.031 36.2424C151.031 35.9716 150.992 35.8075 150.914 35.7502C150.841 35.6877 150.75 35.6565 150.641 35.6565ZM162.75 29.4065V34.094C162.75 36.6982 161.578 38.0002 159.234 38.0002C156.708 38.0002 155.445 36.6982 155.445 34.094V32.5315C155.445 30.7086 154.672 29.7971 153.125 29.7971C151.573 29.7971 150.797 30.7086 150.797 32.5315V34.5627C150.917 34.5107 151.055 34.4846 151.211 34.4846C151.367 34.4846 151.531 34.6252 151.703 34.9065C151.88 35.1825 151.969 35.6278 151.969 36.2424C151.969 36.857 151.854 37.3049 151.625 37.5862C151.401 37.8622 151.099 38.0002 150.719 38.0002C150.339 38.0002 150.036 37.8596 149.812 37.5784C149.635 37.3648 149.526 37.0497 149.484 36.6331H149.469V32.5315C149.469 30.9065 149.943 29.7893 150.891 29.1799C150.656 28.7893 150.312 28.4742 149.859 28.2346V27.4534C149.859 26.6721 150.25 26.2815 151.031 26.2815H155.328V27.4534H151.578C151.318 27.4534 151.188 27.5836 151.188 27.844C151.594 28.0627 151.914 28.3492 152.148 28.7034C152.451 28.6513 152.776 28.6252 153.125 28.6252C155.557 28.6252 156.773 29.9273 156.773 32.5315V34.094C156.773 35.9169 157.594 36.8284 159.234 36.8284C160.693 36.8284 161.422 35.9169 161.422 34.094V29.4065C161.422 29.0419 161.161 28.6513 160.641 28.2346V27.4534C160.641 26.6721 161.031 26.2815 161.812 26.2815H163.141V27.4534H162.203C161.943 27.4534 161.812 27.5836 161.812 27.844C162.438 28.2607 162.75 28.7815 162.75 29.4065ZM158.453 22.1799C158.453 22.3726 158.503 22.5185 158.602 22.6174C158.701 22.7164 158.846 22.7659 159.039 22.7659C159.237 22.7659 159.385 22.7164 159.484 22.6174C159.578 22.5185 159.625 22.3726 159.625 22.1799C159.625 21.982 159.578 21.8362 159.484 21.7424C159.385 21.6435 159.237 21.594 159.039 21.594C158.846 21.594 158.701 21.6435 158.602 21.7424C158.503 21.8362 158.453 21.982 158.453 22.1799ZM160.797 22.1799C160.797 22.7685 160.651 23.2086 160.359 23.5002C160.068 23.7919 159.628 23.9377 159.039 23.9377C158.451 23.9377 158.01 23.7919 157.719 23.5002C157.427 23.2086 157.281 22.7685 157.281 22.1799C157.281 21.5914 157.427 21.1513 157.719 20.8596C158.01 20.568 158.451 20.4221 159.039 20.4221C159.628 20.4221 160.068 20.568 160.359 20.8596C160.651 21.1513 160.797 21.5914 160.797 22.1799ZM173.141 29.4065C173.141 29.0419 172.88 28.6513 172.359 28.2346V27.4534C172.359 26.6721 172.75 26.2815 173.531 26.2815H174.859V27.4534H173.922C173.661 27.4534 173.531 27.5836 173.531 27.844C174.156 28.2607 174.469 28.7815 174.469 29.4065V34.094C174.469 36.6982 173.167 38.0002 170.562 38.0002C167.958 38.0002 166.656 36.6982 166.656 34.094V29.4065C166.656 29.0419 166.396 28.6513 165.875 28.2346V27.4534C165.875 26.6721 166.266 26.2815 167.047 26.2815H168.375V27.4534H167.438C167.177 27.4534 167.047 27.5836 167.047 27.844C167.672 28.2607 167.984 28.7815 167.984 29.4065V34.094C167.984 35.9169 168.844 36.8284 170.562 36.8284C172.281 36.8284 173.141 35.9169 173.141 34.094V29.4065ZM174.469 38.7815V43.0784H173.141V38.7815H174.469ZM179.703 29.4065V39.9534C179.703 41.2555 180.263 41.9065 181.383 41.9065C182.503 41.9065 183.062 41.2555 183.062 39.9534V38.7815H184.391V39.9534C184.391 42.0367 183.388 43.0784 181.383 43.0784C179.378 43.0784 178.375 42.0367 178.375 39.9534V29.4065C178.375 29.0419 178.115 28.6513 177.594 28.2346V27.4534C177.594 26.6721 177.984 26.2815 178.766 26.2815H180.094V27.4534H179.156C178.896 27.4534 178.766 27.5836 178.766 27.844C179.391 28.2607 179.703 28.7815 179.703 29.4065ZM184.234 35.6565V36.8284C184.344 36.8284 184.435 36.7997 184.508 36.7424C184.586 36.6799 184.625 36.5133 184.625 36.2424C184.625 35.9716 184.586 35.8075 184.508 35.7502C184.435 35.6877 184.344 35.6565 184.234 35.6565ZM190.875 26.2815V27.4534H183.062V26.2815H190.875ZM183.062 32.5315C183.062 29.9273 184.365 28.6252 186.969 28.6252C189.573 28.6252 190.875 29.9273 190.875 32.5315V38.0002H189.547V32.5315C189.547 30.7086 188.688 29.7971 186.969 29.7971C185.25 29.7971 184.391 30.7086 184.391 32.5315V34.5627C184.51 34.5107 184.648 34.4846 184.805 34.4846C184.961 34.4846 185.125 34.6252 185.297 34.9065C185.474 35.1825 185.562 35.6278 185.562 36.2424C185.562 36.857 185.448 37.3049 185.219 37.5862C184.995 37.8622 184.693 38.0002 184.312 38.0002C183.932 38.0002 183.63 37.8596 183.406 37.5784C183.229 37.3648 183.12 37.0497 183.078 36.6331H183.062V32.5315ZM201.5 33.3831C201.536 33.3935 201.573 33.3987 201.609 33.3987C201.745 33.3987 201.812 33.2919 201.812 33.0784C201.812 32.87 201.76 32.7659 201.656 32.7659C201.552 32.7659 201.5 32.8674 201.5 33.0706V33.3831ZM201.5 34.0862V34.8752C201.5 36.9586 200.562 38.0002 198.688 38.0002C196.812 38.0002 195.875 36.9586 195.875 34.8752V33.3127H197.203V34.8752C197.203 36.1773 197.698 36.8284 198.688 36.8284C199.677 36.8284 200.172 36.1773 200.172 34.8752V33.8987C196.578 32.8622 194.781 31.3648 194.781 29.4065C194.781 27.3232 196.083 26.2815 198.688 26.2815C201.292 26.2815 202.594 27.3232 202.594 29.4065C202.594 30.8596 201.87 31.5862 200.422 31.5862C200.094 31.5862 199.828 31.5107 199.625 31.3596V30.1877C199.995 30.2971 200.297 30.3518 200.531 30.3518C201.021 30.3518 201.266 30.0367 201.266 29.4065C201.266 28.1044 200.406 27.4534 198.688 27.4534C196.969 27.4534 196.109 28.1044 196.109 29.4065C196.109 31.0159 197.464 32.1487 200.172 32.8049C200.172 32.3101 200.536 32.0627 201.266 32.0627C202.151 32.0627 202.594 32.3883 202.594 33.0393C202.594 33.4299 202.505 33.706 202.328 33.8674C202.151 34.0289 201.961 34.1096 201.758 34.1096C201.674 34.1096 201.589 34.1018 201.5 34.0862ZM197.906 22.9221H201.422C200.125 22.0367 199.083 21.594 198.297 21.594C197.255 21.594 196.734 21.8153 196.734 22.2581C196.734 22.7008 197.125 22.9221 197.906 22.9221ZM201.422 21.6331V19.6409H202.594V23.9377H197.516C196.214 23.9377 195.562 23.4169 195.562 22.3752C195.562 21.0732 196.474 20.4221 198.297 20.4221C199.339 20.4221 200.315 20.7737 201.227 21.4768C201.294 21.5289 201.359 21.581 201.422 21.6331ZM214.172 36.8284C216.151 36.8284 217.141 35.1357 217.141 31.7502C217.141 28.8857 216.281 27.4534 214.562 27.4534C212.844 27.4534 211.984 28.3648 211.984 30.1877C211.984 30.5055 212.044 30.7867 212.164 31.0315C212.289 31.2711 212.549 31.3909 212.945 31.3909C213.32 31.3909 213.557 31.3362 213.656 31.2268C213.734 31.1383 213.773 31.0523 213.773 30.969C213.773 30.943 213.771 30.9195 213.766 30.8987C213.74 30.7893 213.698 30.7346 213.641 30.7346C213.583 30.7346 213.43 30.8206 213.18 30.9924L212.836 30.094C213.201 29.8284 213.529 29.6956 213.82 29.6956C214.138 29.6956 214.385 29.7893 214.562 29.9768C214.74 30.1643 214.828 30.4924 214.828 30.9612C214.828 31.2216 214.76 31.5002 214.625 31.7971C214.495 32.094 214.276 32.3049 213.969 32.4299C213.661 32.5497 213.341 32.6096 213.008 32.6096C212.617 32.6096 212.253 32.5523 211.914 32.4377C211.581 32.3232 211.286 32.0888 211.031 31.7346C210.781 31.3752 210.656 30.8596 210.656 30.1877C210.656 27.5836 211.958 26.2815 214.562 26.2815C217.167 26.2815 218.469 28.1044 218.469 31.7502C218.469 35.9169 217.036 38.0002 214.172 38.0002C213.104 38.0002 212.167 37.7138 211.359 37.1409L211.75 36.0471C212.323 36.568 213.13 36.8284 214.172 36.8284Z" fill="#344054"/>
<path fill-rule="evenodd" clip-rule="evenodd" d="M627.203 28.3567C627.268 28.2922 627.344 28.2411 627.428 28.2062C627.512 28.1713 627.602 28.1533 627.693 28.1533C627.785 28.1533 627.875 28.1713 627.959 28.2062C628.043 28.2411 628.119 28.2922 628.184 28.3567L636 36.1747L643.817 28.3567C643.881 28.2923 643.958 28.2413 644.042 28.2064C644.126 28.1716 644.216 28.1537 644.307 28.1537C644.398 28.1537 644.488 28.1716 644.572 28.2064C644.656 28.2413 644.733 28.2923 644.797 28.3567C644.861 28.421 644.912 28.4975 644.947 28.5815C644.982 28.6656 645 28.7558 645 28.8468C645 28.9378 644.982 29.0279 644.947 29.112C644.912 29.1961 644.861 29.2725 644.797 29.3369L636.49 37.6436C636.426 37.7081 636.35 37.7592 636.265 37.7941C636.181 37.829 636.091 37.847 636 37.847C635.909 37.847 635.819 37.829 635.735 37.7941C635.651 37.7592 635.574 37.7081 635.51 37.6436L627.203 29.3369C627.139 29.2726 627.088 29.1962 627.053 29.1121C627.018 29.028 627 28.9378 627 28.8468C627 28.7557 627.018 28.6656 627.053 28.5815C627.088 28.4974 627.139 28.421 627.203 28.3567Z" fill="#344054"/>
<path d="M86 43.0002C88.6522 43.0002 91.1957 41.9467 93.0711 40.0713C94.9464 38.1959 96 35.6524 96 33.0002C96 30.3481 94.9464 27.8045 93.0711 25.9292C91.1957 24.0538 88.6522 23.0002 86 23.0002C83.3478 23.0002 80.8043 24.0538 78.9289 25.9292C77.0536 27.8045 76 30.3481 76 33.0002C76 35.6524 77.0536 38.1959 78.9289 40.0713C80.8043 41.9467 83.3478 43.0002 86 43.0002ZM87.1625 31.2352L85.9125 37.1165C85.825 37.5415 85.9488 37.7827 86.2925 37.7827C86.535 37.7827 86.9012 37.6952 87.15 37.4752L87.04 37.9952C86.6812 38.4277 85.89 38.7427 85.2087 38.7427C84.33 38.7427 83.9563 38.2152 84.1987 37.094L85.1213 32.759C85.2013 32.3927 85.1287 32.2602 84.7625 32.1715L84.1987 32.0702L84.3012 31.594L87.1625 31.2352ZM86 29.8752C85.6685 29.8752 85.3505 29.7435 85.1161 29.5091C84.8817 29.2747 84.75 28.9568 84.75 28.6252C84.75 28.2937 84.8817 27.9758 85.1161 27.7414C85.3505 27.5069 85.6685 27.3752 86 27.3752C86.3315 27.3752 86.6495 27.5069 86.8839 27.7414C87.1183 27.9758 87.25 28.2937 87.25 28.6252C87.25 28.9568 87.1183 29.2747 86.8839 29.5091C86.6495 29.7435 86.3315 29.8752 86 29.8752Z" fill="#667085"/>
<rect x="52.5" y="1.50024" width="619" height="63" rx="7.5" stroke="#98A2B3"/>
<rect x="52" y="1.00024" width="620" height="16" fill="#EE7D22" fill-opacity="0.24"/>
<rect x="52" y="1.00024" width="24" height="64" fill="#EE7D22" fill-opacity="0.24"/>
<rect x="648" y="1.00024" width="24" height="64" fill="#EE7D22" fill-opacity="0.24"/>
<rect x="52" y="49.0002" width="620" height="16" fill="#EE7D22" fill-opacity="0.24"/>
<path d="M52 75.5002H76" stroke="#F07D03"/>
<rect x="45.5" y="80.0002" width="37" height="18" rx="3" fill="#F07D03"/>
<path d="M52.0895 93.0002V91.8923L54.6783 89.4953C54.8984 89.2822 55.0831 89.0904 55.2322 88.92C55.3838 88.7495 55.4986 88.5826 55.5767 88.4193C55.6548 88.2536 55.6939 88.0748 55.6939 87.8831C55.6939 87.67 55.6454 87.4865 55.5483 87.3326C55.4512 87.1764 55.3187 87.0568 55.1506 86.974C54.9825 86.8887 54.7919 86.8461 54.5788 86.8461C54.3563 86.8461 54.1622 86.8911 53.9964 86.9811C53.8307 87.071 53.7029 87.2001 53.6129 87.3681C53.523 87.5362 53.478 87.7363 53.478 87.9683H52.0185C52.0185 87.4924 52.1262 87.0793 52.3416 86.7289C52.5571 86.3786 52.8589 86.1075 53.2472 85.9157C53.6354 85.724 54.0829 85.6281 54.5895 85.6281C55.1103 85.6281 55.5637 85.7204 55.9496 85.9051C56.3378 86.0874 56.6397 86.3407 56.8551 86.665C57.0705 86.9894 57.1783 87.361 57.1783 87.7801C57.1783 88.0547 57.1238 88.3258 57.0149 88.5933C56.9084 88.8608 56.7178 89.1579 56.4432 89.4846C56.1686 89.809 55.7815 90.1984 55.282 90.6529L54.2202 91.6934V91.7431H57.2741V93.0002H52.0895ZM58.122 91.7218V90.5109L61.1582 85.7275H62.2022V87.4037H61.5843L59.6703 90.4328V90.4896H63.9849V91.7218H58.122ZM61.6127 93.0002V91.3525L61.6412 90.8163V85.7275H63.0829V93.0002H61.6127ZM65.0236 95.0457V87.5457H66.5151V88.4619H66.5826C66.6489 88.3151 66.7447 88.166 66.8702 88.0144C66.998 87.8606 67.1638 87.7327 67.3674 87.6309C67.5733 87.5268 67.829 87.4747 68.1344 87.4747C68.5321 87.4747 68.8991 87.5788 69.2353 87.7872C69.5714 87.9931 69.8401 88.3045 70.0414 88.7211C70.2426 89.1354 70.3432 89.6551 70.3432 90.2801C70.3432 90.8885 70.245 91.4022 70.0485 91.8213C69.8543 92.2379 69.5892 92.554 69.253 92.7694C68.9192 92.9825 68.5452 93.089 68.1309 93.089C67.8373 93.089 67.5875 93.0405 67.3816 92.9434C67.178 92.8464 67.0111 92.7244 66.8809 92.5777C66.7507 92.4285 66.6512 92.2782 66.5826 92.1267H66.5364V95.0457H65.0236ZM66.5044 90.273C66.5044 90.5973 66.5494 90.8802 66.6394 91.1217C66.7293 91.3632 66.8596 91.5514 67.03 91.6863C67.2005 91.8189 67.4076 91.8852 67.6515 91.8852C67.8977 91.8852 68.106 91.8177 68.2765 91.6828C68.4469 91.5455 68.5759 91.3561 68.6635 91.1146C68.7535 90.8707 68.7985 90.5902 68.7985 90.273C68.7985 89.9581 68.7547 89.6811 68.6671 89.442C68.5795 89.2029 68.4505 89.0159 68.28 88.8809C68.1096 88.746 67.9 88.6785 67.6515 88.6785C67.4052 88.6785 67.1969 88.7436 67.0265 88.8738C66.8584 89.004 66.7293 89.1887 66.6394 89.4278C66.5494 89.6669 66.5044 89.9486 66.5044 90.273ZM72.4206 87.5457L73.4221 89.4527L74.4483 87.5457H76.0002L74.4199 90.273L76.0428 93.0002H74.498L73.4221 91.1146L72.3638 93.0002H70.8013L72.4206 90.273L70.8581 87.5457H72.4206Z" fill="white"/>
<line x1="52.5" y1="79.0002" x2="52.5" y2="72.0002" stroke="#F07D03"/>
<line x1="75.5" y1="79.0002" x2="75.5" y2="72.0002" stroke="#F07D03"/>
<path d="M647.5 75.5002H671.5" stroke="#F07D03"/>
<rect x="641" y="80.0002" width="37" height="18" rx="3" fill="#F07D03"/>
<path d="M647.589 93.0002V91.8923L650.178 89.4953C650.398 89.2822 650.583 89.0904 650.732 88.92C650.884 88.7495 650.999 88.5826 651.077 88.4193C651.155 88.2536 651.194 88.0748 651.194 87.8831C651.194 87.67 651.145 87.4865 651.048 87.3326C650.951 87.1764 650.819 87.0568 650.651 86.974C650.482 86.8887 650.292 86.8461 650.079 86.8461C649.856 86.8461 649.662 86.8911 649.496 86.9811C649.331 87.071 649.203 87.2001 649.113 87.3681C649.023 87.5362 648.978 87.7363 648.978 87.9683H647.518C647.518 87.4924 647.626 87.0793 647.842 86.7289C648.057 86.3786 648.359 86.1075 648.747 85.9157C649.135 85.724 649.583 85.6281 650.089 85.6281C650.61 85.6281 651.064 85.7204 651.45 85.9051C651.838 86.0874 652.14 86.3407 652.355 86.665C652.571 86.9894 652.678 87.361 652.678 87.7801C652.678 88.0547 652.624 88.3258 652.515 88.5933C652.408 88.8608 652.218 89.1579 651.943 89.4846C651.669 89.809 651.281 90.1984 650.782 90.6529L649.72 91.6934V91.7431H652.774V93.0002H647.589ZM653.622 91.7218V90.5109L656.658 85.7275H657.702V87.4037H657.084L655.17 90.4328V90.4896H659.485V91.7218H653.622ZM657.113 93.0002V91.3525L657.141 90.8163V85.7275H658.583V93.0002H657.113ZM660.524 95.0457V87.5457H662.015V88.4619H662.083C662.149 88.3151 662.245 88.166 662.37 88.0144C662.498 87.8606 662.664 87.7327 662.867 87.6309C663.073 87.5268 663.329 87.4747 663.634 87.4747C664.032 87.4747 664.399 87.5788 664.735 87.7872C665.071 87.9931 665.34 88.3045 665.541 88.7211C665.743 89.1354 665.843 89.6551 665.843 90.2801C665.843 90.8885 665.745 91.4022 665.548 91.8213C665.354 92.2379 665.089 92.554 664.753 92.7694C664.419 92.9825 664.045 93.089 663.631 93.089C663.337 93.089 663.088 93.0405 662.882 92.9434C662.678 92.8464 662.511 92.7244 662.381 92.5777C662.251 92.4285 662.151 92.2782 662.083 92.1267H662.036V95.0457H660.524ZM662.004 90.273C662.004 90.5973 662.049 90.8802 662.139 91.1217C662.229 91.3632 662.36 91.5514 662.53 91.6863C662.7 91.8189 662.908 91.8852 663.151 91.8852C663.398 91.8852 663.606 91.8177 663.776 91.6828C663.947 91.5455 664.076 91.3561 664.164 91.1146C664.253 90.8707 664.298 90.5902 664.298 90.273C664.298 89.9581 664.255 89.6811 664.167 89.442C664.079 89.2029 663.95 89.0159 663.78 88.8809C663.61 88.746 663.4 88.6785 663.151 88.6785C662.905 88.6785 662.697 88.7436 662.526 88.8738C662.358 89.004 662.229 89.1887 662.139 89.4278C662.049 89.6669 662.004 89.9486 662.004 90.273ZM667.921 87.5457L668.922 89.4527L669.948 87.5457H671.5L669.92 90.273L671.543 93.0002H669.998L668.922 91.1146L667.864 93.0002H666.301L667.921 90.273L666.358 87.5457H667.921Z" fill="white"/>
<line x1="648" y1="79.0002" x2="648" y2="72.0002" stroke="#F07D03"/>
<line x1="671" y1="79.0002" x2="671" y2="72.0002" stroke="#F07D03"/>
<path d="M44.5 49.0002V65.0002" stroke="#F07D03"/>
<rect x="1" y="48.0002" width="36" height="18" rx="3" fill="#F07D03"/>
<path d="M10.7536 53.7275V61.0002H9.21591V55.187H9.1733L7.50781 56.2311V54.8674L9.30824 53.7275H10.7536ZM15.2733 61.0997C14.8992 61.0973 14.5382 61.0346 14.1902 60.9115C13.8445 60.7884 13.5344 60.5883 13.2598 60.3113C12.9851 60.0343 12.7673 59.6674 12.6064 59.2105C12.4477 58.7536 12.3684 58.1925 12.3684 57.5272C12.3708 56.9164 12.4406 56.3707 12.5779 55.8902C12.7176 55.4072 12.9165 54.9976 13.1745 54.6615C13.435 54.3253 13.7463 54.0696 14.1085 53.8944C14.4707 53.7169 14.8767 53.6281 15.3265 53.6281C15.8118 53.6281 16.2404 53.7228 16.612 53.9122C16.9837 54.0992 17.282 54.3537 17.5069 54.6757C17.7342 54.9976 17.8715 55.3587 17.9189 55.7588H16.4025C16.3433 55.5055 16.219 55.3066 16.0297 55.1622C15.8403 55.0178 15.6059 54.9456 15.3265 54.9456C14.853 54.9456 14.4932 55.1515 14.247 55.5635C14.0031 55.9754 13.8788 56.5353 13.8741 57.2431H13.9238C14.0327 57.0277 14.1795 56.8442 14.3642 56.6927C14.5512 56.5388 14.7631 56.4216 14.9998 56.3412C15.2389 56.2583 15.4911 56.2169 15.7562 56.2169C16.1871 56.2169 16.5706 56.3187 16.9068 56.5223C17.243 56.7235 17.5081 57.0005 17.7022 57.3532C17.8964 57.706 17.9934 58.1096 17.9934 58.5642C17.9934 59.0566 17.8786 59.4946 17.649 59.8781C17.4217 60.2616 17.1033 60.5623 16.6937 60.7801C16.2865 60.9955 15.813 61.102 15.2733 61.0997ZM15.2662 59.8923C15.5029 59.8923 15.7148 59.8355 15.9018 59.7218C16.0888 59.6082 16.2356 59.4543 16.3422 59.2602C16.4487 59.0661 16.502 58.8483 16.502 58.6068C16.502 58.3653 16.4487 58.1487 16.3422 57.9569C16.238 57.7652 16.0936 57.6125 15.9089 57.4988C15.7243 57.3852 15.5136 57.3284 15.2768 57.3284C15.0993 57.3284 14.9347 57.3615 14.7832 57.4278C14.6341 57.4941 14.5027 57.5864 14.389 57.7048C14.2778 57.8232 14.1902 57.9605 14.1262 58.1167C14.0623 58.2706 14.0304 58.4351 14.0304 58.6103C14.0304 58.8447 14.0836 59.059 14.1902 59.2531C14.2991 59.4472 14.4458 59.6023 14.6305 59.7183C14.8175 59.8343 15.0294 59.8923 15.2662 59.8923ZM19.0978 63.0457V55.5457H20.5893V56.4619H20.6568C20.7231 56.3151 20.819 56.166 20.9444 56.0144C21.0723 55.8606 21.238 55.7327 21.4416 55.6309C21.6475 55.5268 21.9032 55.4747 22.2086 55.4747C22.6064 55.4747 22.9733 55.5788 23.3095 55.7872C23.6457 55.9931 23.9144 56.3045 24.1156 56.7211C24.3168 57.1354 24.4174 57.6551 24.4174 58.2801C24.4174 58.8885 24.3192 59.4022 24.1227 59.8213C23.9286 60.2379 23.6634 60.554 23.3272 60.7694C22.9934 60.9825 22.6194 61.089 22.2051 61.089C21.9115 61.089 21.6618 61.0405 21.4558 60.9434C21.2522 60.8464 21.0853 60.7244 20.9551 60.5777C20.8249 60.4285 20.7254 60.2782 20.6568 60.1267H20.6106V63.0457H19.0978ZM20.5787 58.273C20.5787 58.5973 20.6236 58.8802 20.7136 59.1217C20.8036 59.3632 20.9338 59.5514 21.1042 59.6863C21.2747 59.8189 21.4818 59.8852 21.7257 59.8852C21.9719 59.8852 22.1802 59.8177 22.3507 59.6828C22.5211 59.5455 22.6502 59.3561 22.7377 59.1146C22.8277 58.8707 22.8727 58.5902 22.8727 58.273C22.8727 57.9581 22.8289 57.6811 22.7413 57.442C22.6537 57.2029 22.5247 57.0159 22.3542 56.8809C22.1838 56.746 21.9743 56.6785 21.7257 56.6785C21.4795 56.6785 21.2711 56.7436 21.1007 56.8738C20.9326 57.004 20.8036 57.1887 20.7136 57.4278C20.6236 57.6669 20.5787 57.9486 20.5787 58.273ZM26.4949 55.5457L27.4963 57.4527L28.5225 55.5457H30.0744L28.4941 58.273L30.117 61.0002H28.5723L27.4963 59.1146L26.438 61.0002H24.8755L26.4949 58.273L24.9324 55.5457H26.4949Z" fill="white"/>
<line x1="41" y1="49.5002" x2="48" y2="49.5002" stroke="#F07D03"/>
<line x1="41" y1="64.5002" x2="48" y2="64.5002" stroke="#F07D03"/>
<path d="M44.5 1.00024V17.0002" stroke="#F07D03"/>
<rect y="0.000244141" width="36" height="18" rx="3" fill="#F07D03"/>
<path d="M9.75355 5.72752H8.30824L6.50781 6.86743V8.23107L8.1733 7.18703H8.21591V13.0002H9.75355V5.72752ZM14.2733 13.0997C15.8926 13.1068 16.997 12.045 16.9934 10.5642C16.997 9.20053 16.0453 8.21686 14.7562 8.21686C13.9572 8.21686 13.2505 8.60039 12.9238 9.24314H12.8741C12.8812 7.82624 13.3784 6.94556 14.3265 6.94556C14.8841 6.94556 15.2853 7.25095 15.4025 7.75877H16.9189C16.7733 6.56203 15.7789 5.62808 14.3265 5.62808C12.5297 5.62808 11.3755 7.08405 11.3684 9.52723C11.3649 12.1906 12.7782 13.0926 14.2733 13.0997ZM14.2662 11.8923C13.5559 11.8923 13.0304 11.3206 13.0304 10.6103C13.0339 9.90365 13.5701 9.32837 14.2768 9.32837C14.987 9.32837 15.5055 9.8859 15.502 10.6068C15.5055 11.3348 14.9764 11.8923 14.2662 11.8923ZM18.0978 15.0457H19.6106V12.1267H19.6568C19.8663 12.5812 20.3244 13.089 21.2051 13.089C22.448 13.089 23.4174 12.1054 23.4174 10.2801C23.4174 8.40507 22.4054 7.47468 21.2086 7.47468C20.296 7.47468 19.8592 8.018 19.6568 8.46189H19.5893V7.5457H18.0978V15.0457ZM19.5787 10.273C19.5787 9.29996 19.9906 8.67851 20.7257 8.67851C21.475 8.67851 21.8727 9.32837 21.8727 10.273C21.8727 11.2247 21.4679 11.8852 20.7257 11.8852C19.9977 11.8852 19.5787 11.246 19.5787 10.273ZM25.4851 7.5457H23.9226L25.4851 10.273L23.8658 13.0002H25.4283L26.4865 11.1146L27.5625 13.0002H29.1072L27.4844 10.273L29.0646 7.5457H27.5128L26.4865 9.45266L25.4851 7.5457Z" fill="white"/>
<line x1="41" y1="1.50024" x2="48" y2="1.50024" stroke="#F07D03"/>
<line x1="41" y1="16.5002" x2="48" y2="16.5002" stroke="#F07D03"/>
<path d="M681.5 2.00024V66.0002" stroke="#F07D03"/>
<rect x="686" y="26.5002" width="38" height="18" rx="3" fill="#F07D03"/>
<path d="M695.381 39.5997C697 39.6068 698.104 38.545 698.101 37.0642C698.104 35.7005 697.153 34.7169 695.864 34.7169C695.065 34.7169 694.358 35.1004 694.031 35.7431H693.982C693.989 34.3262 694.486 33.4456 695.434 33.4456C695.991 33.4456 696.393 33.751 696.51 34.2588H698.026C697.881 33.062 696.886 32.1281 695.434 32.1281C693.637 32.1281 692.483 33.5841 692.476 36.0272C692.472 38.6906 693.886 39.5926 695.381 39.5997ZM695.374 38.3923C694.663 38.3923 694.138 37.8206 694.138 37.1103C694.141 36.4037 694.678 35.8284 695.384 35.8284C696.094 35.8284 696.613 36.3859 696.609 37.1068C696.613 37.8348 696.084 38.3923 695.374 38.3923ZM699.081 38.2218H702.572V39.5002H704.042V38.2218H704.944V36.9896H704.042V32.2275H702.117L699.081 37.0109V38.2218ZM702.6 36.9896H700.629V36.9328L702.543 33.9037H702.6V36.9896ZM705.983 41.5457H707.495V38.6267H707.542C707.751 39.0812 708.209 39.589 709.09 39.589C710.333 39.589 711.302 38.6054 711.302 36.7801C711.302 34.9051 710.29 33.9747 709.093 33.9747C708.181 33.9747 707.744 34.518 707.542 34.9619H707.474V34.0457H705.983V41.5457ZM707.463 36.773C707.463 35.8 707.875 35.1785 708.61 35.1785C709.36 35.1785 709.757 35.8284 709.757 36.773C709.757 37.7247 709.353 38.3852 708.61 38.3852C707.882 38.3852 707.463 37.746 707.463 36.773ZM713.37 34.0457H711.807L713.37 36.773L711.751 39.5002H713.313L714.371 37.6146L715.447 39.5002H716.992L715.369 36.773L716.949 34.0457H715.398L714.371 35.9527L713.37 34.0457Z" fill="white"/>
<line x1="678" y1="2.50024" x2="685" y2="2.50024" stroke="#F07D03"/>
<line x1="678" y1="65.5002" x2="685" y2="65.5002" stroke="#F07D03"/>
</svg>
