<svg width="527" height="162" viewBox="0 0 527 162" fill="none" xmlns="http://www.w3.org/2000/svg">
<g clip-path="url(#clip0_7155_5002)">
<rect x="55" y="1" width="430" height="160" rx="8" fill="white"/>
<path d="M83.3066 44.627C83.2539 44.5508 83.1367 44.5068 82.9551 44.4951V45.4971C83.1367 45.4971 83.2539 45.459 83.3066 45.3828C83.3652 45.3008 83.3945 45.1748 83.3945 45.0049C83.3945 44.8291 83.3652 44.7031 83.3066 44.627ZM83.3945 42.9922C83.8398 43.0273 84.1709 43.2031 84.3877 43.5195C84.6045 43.8301 84.7129 44.3311 84.7129 45.0225C84.7129 45.7139 84.5605 46.2178 84.2559 46.5342C83.9512 46.8447 83.5176 47 82.9551 47C82.3926 47 81.959 46.8447 81.6543 46.5342C81.3496 46.2178 81.1973 45.7139 81.1973 45.0225V37.332C81.1973 36.8516 80.9043 36.377 80.3184 35.9082V35.1348C80.3184 34.2559 80.875 33.8164 81.9883 33.8164H83.834V35.5742H82.3398V35.6797C83.043 36.1484 83.3945 36.6992 83.3945 37.332V42.9922ZM81.9883 31.4434C82.3691 31.4434 82.5596 31.209 82.5596 30.7402C82.5596 29.6855 82.1348 29.1582 81.2852 29.1582C80.7578 29.1582 80.3623 29.2754 80.0986 29.5098L79.6592 28.1914C80.04 27.8398 80.582 27.6641 81.2852 27.6641C83.1309 27.6641 84.0537 28.6895 84.0537 30.7402C84.0537 32.2051 83.2773 32.9375 81.7246 32.9375C80.3477 32.9375 79.6592 32.3574 79.6592 31.1973C79.6592 30.7109 79.7676 30.3682 79.9844 30.1689C80.207 29.9639 80.6816 29.8613 81.4082 29.8613V31.0039C81.2383 31.0039 81.1533 31.0771 81.1533 31.2236C81.1533 31.3701 81.4316 31.4434 81.9883 31.4434ZM95.5234 38.5625C95.3828 38.5625 95.2891 38.5947 95.2422 38.6592C95.1953 38.7178 95.1719 38.7852 95.1719 38.8613C95.1719 38.9375 95.1924 38.999 95.2334 39.0459C95.2803 39.1104 95.377 39.1426 95.5234 39.1426V38.5625ZM87.7891 37.332C87.7891 36.8633 87.6426 36.3945 87.3496 35.9258V35.5742C87.3496 34.4023 88.0527 33.8164 89.459 33.8164H92.2891L94.3105 34.6953H94.8203C94.9961 34.6953 95.084 34.6367 95.084 34.5195V32.498H97.2812V34.5195C97.2812 35.8086 96.666 36.4531 95.4355 36.4531H93.6602L91.6387 35.5742H90.0742C89.7227 35.5742 89.5469 35.6328 89.5469 35.75C89.8398 36.2188 89.9863 36.7461 89.9863 37.332V44.3105L92.5352 42.1484L95.084 44.3105V40.3818C94.6152 40.3643 94.252 40.1855 93.9941 39.8457C93.7832 39.5879 93.6777 39.2627 93.6777 38.8701C93.6777 38.4775 93.8037 38.123 94.0557 37.8066C94.3076 37.4902 94.7969 37.332 95.5234 37.332C96.1914 37.332 96.6514 37.4902 96.9033 37.8066C97.1553 38.123 97.2812 38.4775 97.2812 38.8701V47H95.084L92.5352 44.5566L89.6875 47H87.7891V37.332ZM111.168 41.2607V43.4844C111.168 45.8281 110.23 47 108.355 47C106.967 47 105.982 46.6338 105.402 45.9014C104.822 45.1689 104.312 44.8027 103.873 44.8027V47H101.676V41.7266H103.873V43.0449C104.84 43.0449 105.643 43.4111 106.281 44.1436C106.926 44.876 107.491 45.2422 107.978 45.2422C108.64 45.2422 108.971 44.6562 108.971 43.4844V42.5439C104.107 41.4893 101.676 39.752 101.676 37.332C101.676 34.9883 103.258 33.8164 106.422 33.8164C109.586 33.8164 111.168 34.9883 111.168 37.332C111.168 38.9668 110.236 39.7842 108.373 39.7842C107.863 39.7842 107.447 39.6641 107.125 39.4238V37.6396C107.84 37.8506 108.297 37.9561 108.496 37.9561C108.812 37.9561 108.971 37.748 108.971 37.332C108.971 36.1602 108.121 35.5742 106.422 35.5742C104.723 35.5742 103.873 36.1602 103.873 37.332C103.873 38.8379 106.305 40.1475 111.168 41.2607ZM117.76 47H115.562V40.8477C115.562 37.918 117.145 36.4531 120.309 36.4531C123.473 36.4531 125.055 37.918 125.055 40.8477V47H122.857V40.8477C122.857 39.0898 122.008 38.2109 120.309 38.2109C118.609 38.2109 117.76 39.0898 117.76 40.8477V47ZM125.055 33.8164V35.5742H115.562V33.8164H125.055ZM125.055 33.8164H127.164C130.152 33.8164 131.646 34.9883 131.646 37.332V47H129.449V37.332C129.449 36.1602 128.688 35.5742 127.164 35.5742H125.055V33.8164ZM136.48 44.4951C136.299 44.5068 136.179 44.5508 136.12 44.627C136.067 44.7031 136.041 44.8291 136.041 45.0049C136.041 45.1748 136.067 45.3008 136.12 45.3828C136.179 45.459 136.299 45.4971 136.48 45.4971V44.4951ZM136.041 37.332C136.041 36.8516 135.748 36.377 135.162 35.9082V35.1348C135.162 34.2559 135.719 33.8164 136.832 33.8164H138.678V35.5742H137.184V35.6797C137.887 36.1484 138.238 36.6992 138.238 37.332V45.0225C138.238 45.7139 138.086 46.2178 137.781 46.5342C137.477 46.8447 137.043 47 136.48 47C135.918 47 135.484 46.8447 135.18 46.5342C134.875 46.2178 134.723 45.7139 134.723 45.0225C134.723 44.3311 134.831 43.8301 135.048 43.5195C135.265 43.2031 135.596 43.0273 136.041 42.9922V37.332ZM144.83 41.2871V42.6055C144.83 44.3633 145.68 45.2422 147.379 45.2422C149.078 45.2422 149.928 44.3633 149.928 42.6055V41.2871H144.83ZM149.928 37.332C149.928 36.8516 149.635 36.377 149.049 35.9082V35.1348C149.049 34.2559 149.605 33.8164 150.719 33.8164H152.564V35.5742H151.07V35.6797C151.773 36.1484 152.125 36.6992 152.125 37.332V42.6055C152.125 45.5352 150.543 47 147.379 47C144.215 47 142.633 45.5352 142.633 42.6055V37.332C142.633 36.8516 142.34 36.377 141.754 35.9082V35.1348C141.754 34.2559 142.311 33.8164 143.424 33.8164H145.27V35.5742H143.775V35.6797C144.479 36.1484 144.83 36.6992 144.83 37.332V39.5293H149.928V37.332ZM149.049 50.5156C149.049 50.9258 149.195 51.1309 149.488 51.1309C149.781 51.1309 149.928 50.9258 149.928 50.5156V47.8789H152.125V50.5156C152.125 51.9805 151.319 52.7129 149.708 52.7129C148.097 52.7129 147.291 51.9805 147.291 50.5156V47.8789H149.049V50.5156ZM158.277 45.4971C158.459 45.4971 158.576 45.459 158.629 45.3828C158.688 45.3008 158.717 45.1748 158.717 45.0049C158.717 44.8291 158.688 44.7031 158.629 44.627C158.576 44.5508 158.459 44.5068 158.277 44.4951V45.4971ZM156.52 38.2109C156.52 35.2812 158.008 33.8164 160.984 33.8164C163.955 33.8164 165.44 35.2812 165.44 38.2109V42.6055C165.44 44.3633 166.246 45.2422 167.857 45.2422C169.264 45.2422 169.967 44.3633 169.967 42.6055V37.332C169.967 36.8516 169.674 36.377 169.088 35.9082V35.1348C169.088 34.2559 169.645 33.8164 170.758 33.8164H172.604V35.5742H171.109V35.6797C171.812 36.1484 172.164 36.6992 172.164 37.332V42.6055C172.164 45.5352 170.729 47 167.857 47C164.781 47 163.243 45.5352 163.243 42.6055V38.2109C163.243 36.4531 162.49 35.5742 160.984 35.5742C159.473 35.5742 158.717 36.4531 158.717 38.2109V42.9922C159.162 43.0273 159.493 43.2031 159.71 43.5195C159.927 43.8301 160.035 44.3311 160.035 45.0225C160.035 45.5967 159.883 46.0713 159.578 46.4463C159.273 46.8154 158.84 47 158.277 47C157.715 47 157.281 46.8301 156.977 46.4902C156.672 46.1445 156.52 45.6553 156.52 45.0225V38.2109ZM176.559 37.7715H178.756V44.2666L181.305 41.9551L183.854 44.2666V37.7715H186.051V47H184.152L181.305 44.5566L178.457 47H176.559V37.7715ZM178.756 35.2139C178.756 35.3369 179.605 35.3984 181.305 35.3984C183.004 35.3984 183.854 34.8711 183.854 33.8164V32.498H186.051V33.8164C186.051 36.043 184.469 37.1562 181.305 37.1562C178.141 37.1562 176.559 36.5117 176.559 35.2227C176.559 34.2852 177.162 33.8164 178.369 33.8164C179.125 33.8164 179.664 33.9365 179.986 34.1768V35.1699C179.271 35.0762 178.888 35.0293 178.835 35.0293C178.782 35.0293 178.756 35.0908 178.756 35.2139ZM183.854 50.0762H181.041C180.572 50.0762 180.338 50.2959 180.338 50.7354V51.1309L182.184 50.4277L183.854 51.1309V50.0762ZM185.611 48.7578H186.49V50.0762H185.611V52.7129H184.029L182.184 51.834L180.162 52.7129H178.756V50.7354C178.756 49.417 179.43 48.7578 180.777 48.7578H183.854V47.8789H185.611V48.7578ZM186.051 33.8164H188.16C191.148 33.8164 192.643 34.9883 192.643 37.332V47H190.445V37.332C190.445 36.1602 189.684 35.5742 188.16 35.5742H186.051V33.8164ZM206.529 41.2607V43.4844C206.529 45.8281 205.592 47 203.717 47C202.328 47 201.344 46.6338 200.764 45.9014C200.184 45.1689 199.674 44.8027 199.234 44.8027V47H197.037V41.7266H199.234V43.0449C200.201 43.0449 201.004 43.4111 201.643 44.1436C202.287 44.876 202.853 45.2422 203.339 45.2422C204.001 45.2422 204.332 44.6562 204.332 43.4844V42.5439C199.469 41.4893 197.037 39.752 197.037 37.332C197.037 34.9883 198.619 33.8164 201.783 33.8164C204.947 33.8164 206.529 34.9883 206.529 37.332C206.529 38.9668 205.598 39.7842 203.734 39.7842C203.225 39.7842 202.809 39.6641 202.486 39.4238V37.6396C203.201 37.8506 203.658 37.9561 203.857 37.9561C204.174 37.9561 204.332 37.748 204.332 37.332C204.332 36.1602 203.482 35.5742 201.783 35.5742C200.084 35.5742 199.234 36.1602 199.234 37.332C199.234 38.8379 201.666 40.1475 206.529 41.2607Z" fill="#344054"/>
<path fill-rule="evenodd" clip-rule="evenodd" d="M442.614 34.6139C442.755 34.4732 442.945 34.3942 443.144 34.3942C443.343 34.3942 443.534 34.4732 443.675 34.6139L448.978 39.9172L454.281 34.6139C454.422 34.4732 454.613 34.3942 454.812 34.3942C455.01 34.3942 455.201 34.4732 455.342 34.6139C455.483 34.7545 455.562 34.9453 455.562 35.1442C455.562 35.3431 455.483 35.5339 455.342 35.6745L450.039 40.9778L455.342 46.2811C455.483 46.4218 455.562 46.6126 455.562 46.8115C455.562 47.0104 455.483 47.2012 455.342 47.3418C455.201 47.4825 455.01 47.5615 454.812 47.5615C454.613 47.5615 454.422 47.4825 454.281 47.3418L448.978 42.0385L443.675 47.3418C443.534 47.4825 443.343 47.5615 443.144 47.5615C442.945 47.5615 442.755 47.4825 442.614 47.3418C442.473 47.2012 442.394 47.0104 442.394 46.8115C442.394 46.6126 442.473 46.4218 442.614 46.2811L447.917 40.9778L442.614 35.6745C442.473 35.5339 442.394 35.3431 442.394 35.1442C442.394 34.9453 442.473 34.7545 442.614 34.6139Z" fill="#344054"/>
<path d="M82.125 91.6562V92.8281C82.2344 92.8281 82.3255 92.7995 82.3984 92.7422C82.4766 92.6797 82.5156 92.513 82.5156 92.2422C82.5156 91.9714 82.4766 91.8073 82.3984 91.75C82.3255 91.6875 82.2344 91.6562 82.125 91.6562ZM88.7656 82.2812V83.4531H80.9531V82.2812H88.7656ZM80.9531 88.5312C80.9531 85.9271 82.2552 84.625 84.8594 84.625C87.4635 84.625 88.7656 85.9271 88.7656 88.5312V94H87.4375V88.5312C87.4375 86.7083 86.5781 85.7969 84.8594 85.7969C83.1406 85.7969 82.2812 86.7083 82.2812 88.5312V90.5625C82.401 90.5104 82.5391 90.4844 82.6953 90.4844C82.8516 90.4844 83.0156 90.625 83.1875 90.9062C83.3646 91.1823 83.4531 91.6276 83.4531 92.2422C83.4531 92.8568 83.3385 93.3047 83.1094 93.5859C82.8854 93.862 82.5833 94 82.2031 94C81.8229 94 81.5208 93.8594 81.2969 93.5781C81.1198 93.3646 81.0104 93.0495 80.9688 92.6328H80.9531V88.5312ZM94.1953 92.8281C94.2526 92.8281 94.2995 92.8047 94.3359 92.7578C94.3724 92.7057 94.3906 92.5339 94.3906 92.2422C94.3906 91.9505 94.3724 91.7812 94.3359 91.7344C94.2995 91.6823 94.2526 91.6562 94.1953 91.6562H94V92.8281H94.1953ZM94 90.5C94.0625 90.4896 94.1276 90.4844 94.1953 90.4844C94.4974 90.4844 94.7344 90.612 94.9062 90.8672C95.0833 91.1172 95.1719 91.5755 95.1719 92.2422C95.1719 92.9089 95.0833 93.3698 94.9062 93.625C94.7344 93.875 94.4062 94 93.9219 94C93.4375 94 93.1068 93.875 92.9297 93.625C92.7578 93.3698 92.6719 92.9089 92.6719 92.2422V85.4062C92.5677 85.0417 92.3073 84.651 91.8906 84.2344V83.4531C91.8906 82.6719 92.2812 82.2812 93.0625 82.2812H94.3906V83.4531H93.4531C93.1927 83.4531 93.0625 83.5833 93.0625 83.8438C93.6875 84.2604 94 84.7812 94 85.4062V90.5ZM92.7109 77.9844C94.1172 77.9844 94.8203 78.5573 94.8203 79.7031C94.8203 80.901 94.2734 81.5 93.1797 81.5C92.2422 81.5 91.7734 81.1146 91.7734 80.3438C91.7734 79.9635 91.8698 79.6849 92.0625 79.5078C92.2604 79.3255 92.5521 79.2344 92.9375 79.2344V80.1719C92.8385 80.1719 92.7891 80.224 92.7891 80.3281C92.7891 80.4323 92.9193 80.4844 93.1797 80.4844C93.5443 80.4844 93.7266 80.224 93.7266 79.7031C93.7266 79.0781 92.9974 78.7656 91.5391 78.7656C91.6693 78.401 91.7474 78.0365 91.7734 77.6719C91.7734 77.3594 91.6693 77.2031 91.4609 77.2031H91.3047V76.4219H91.6953C92.4141 76.4219 92.7734 76.7109 92.7734 77.2891C92.7734 77.4297 92.7526 77.6615 92.7109 77.9844ZM99.2344 88.5312V90.0938C99.2344 91.9167 100.094 92.8281 101.812 92.8281C103.531 92.8281 104.391 91.9167 104.391 90.0938V88.5312H99.2344ZM99.2344 87.3594H104.391V85.4062C104.391 85.0417 104.13 84.651 103.609 84.2344V83.4531C103.609 82.6719 104 82.2812 104.781 82.2812H106.109V83.4531H105.172C104.911 83.4531 104.781 83.5833 104.781 83.8438C105.406 84.2604 105.719 84.7812 105.719 85.4062V90.0938C105.719 92.6979 104.417 94 101.812 94C99.2083 94 97.9062 92.6979 97.9062 90.0938V85.4062C97.9062 85.0417 97.6458 84.651 97.125 84.2344V83.4531C97.125 82.6719 97.5156 82.2812 98.2969 82.2812H99.625V83.4531H98.6875C98.4271 83.4531 98.2969 83.5833 98.2969 83.8438C98.9219 84.2604 99.2344 84.7812 99.2344 85.4062V87.3594ZM99.4688 97.0469C99.4688 97.8385 99.6354 98.2344 99.9688 98.2344C100.151 98.2344 100.401 98.1797 100.719 98.0703V98.8516C100.568 99.0026 100.172 99.0781 99.5312 99.0781C98.7083 99.0781 98.2969 98.401 98.2969 97.0469C98.2969 95.5365 98.9349 94.7812 100.211 94.7812C101.305 94.7812 102.055 95.3021 102.461 96.3438C102.862 97.3854 103.245 97.9062 103.609 97.9062C103.974 97.9062 104.443 96.8646 105.016 94.7812L106.109 95.0938C105.458 97.75 104.672 99.0781 103.75 99.0781C102.875 99.0781 102.237 98.5573 101.836 97.5156C101.43 96.474 100.888 95.9531 100.211 95.9531C99.7161 95.9531 99.4688 96.3177 99.4688 97.0469ZM109.43 88.1406C109.372 88.1406 109.326 88.1667 109.289 88.2188C109.253 88.2656 109.234 88.4349 109.234 88.7266C109.234 89.0182 109.253 89.1901 109.289 89.2422C109.326 89.2891 109.372 89.3125 109.43 89.3125H109.625V88.1406H109.43ZM116.109 85.4062C116.109 84.1042 115.25 83.4531 113.531 83.4531C111.812 83.4531 110.953 84.1042 110.953 85.4062H109.625V80.7188C109.625 80.4583 109.365 80.3281 108.844 80.3281H108.453V79.1562H108.844C110.25 79.1562 110.953 79.6771 110.953 80.7188V83.2344C111.495 82.599 112.354 82.2812 113.531 82.2812C116.135 82.2812 117.438 83.3229 117.438 85.4062V94H115.875L113.531 91.6562L111.188 94H109.625V90.4688C109.562 90.4792 109.497 90.4844 109.43 90.4844C109.128 90.4844 108.888 90.3594 108.711 90.1094C108.539 89.8542 108.453 89.3932 108.453 88.7266C108.453 88.0599 108.539 87.6016 108.711 87.3516C108.888 87.0964 109.219 86.9688 109.703 86.9688C110.188 86.9688 110.516 87.0964 110.688 87.3516C110.865 87.6016 110.953 88.0599 110.953 88.7266V92.4375L113.531 90.0938L116.109 92.4375V85.4062ZM122.672 94H121.344V88.5312C121.344 85.9271 122.646 84.625 125.25 84.625C127.854 84.625 129.156 85.9271 129.156 88.5312V94H127.828V88.5312C127.828 86.7083 126.969 85.7969 125.25 85.7969C123.531 85.7969 122.672 86.7083 122.672 88.5312V94ZM129.156 82.2812V83.4531H121.344V82.2812H129.156ZM134.234 91.6562V92.8281C134.344 92.8281 134.435 92.7995 134.508 92.7422C134.586 92.6797 134.625 92.513 134.625 92.2422C134.625 91.9714 134.586 91.8073 134.508 91.75C134.435 91.6875 134.344 91.6562 134.234 91.6562ZM140.875 82.2812V83.4531H133.062V82.2812H140.875ZM133.062 88.5312C133.062 85.9271 134.365 84.625 136.969 84.625C139.573 84.625 140.875 85.9271 140.875 88.5312V94H139.547V88.5312C139.547 86.7083 138.688 85.7969 136.969 85.7969C135.25 85.7969 134.391 86.7083 134.391 88.5312V90.5625C134.51 90.5104 134.648 90.4844 134.805 90.4844C134.961 90.4844 135.125 90.625 135.297 90.9062C135.474 91.1823 135.562 91.6276 135.562 92.2422C135.562 92.8568 135.448 93.3047 135.219 93.5859C134.995 93.862 134.693 94 134.312 94C133.932 94 133.63 93.8594 133.406 93.5781C133.229 93.3646 133.12 93.0495 133.078 92.6328H133.062V88.5312ZM140.875 82.2812H142.438C144.521 82.2812 145.562 83.3229 145.562 85.4062V94H144.234V85.4062C144.234 84.1042 143.635 83.4531 142.438 83.4531H140.875V82.2812ZM148.805 94.1719C148.732 94.3542 148.62 94.4896 148.469 94.5781C148.323 94.6719 148.174 94.7188 148.023 94.7188H147.422L152.227 82.7422C152.299 82.5703 152.398 82.4401 152.523 82.3516C152.654 82.263 152.807 82.2188 152.984 82.2188H153.578L148.805 94.1719ZM156.961 92.8281C157.018 92.8281 157.065 92.8047 157.102 92.7578C157.138 92.7057 157.156 92.5339 157.156 92.2422C157.156 91.9505 157.138 91.7812 157.102 91.7344C157.065 91.6823 157.018 91.6562 156.961 91.6562H156.766V92.8281H156.961ZM156.766 90.5C156.828 90.4896 156.893 90.4844 156.961 90.4844C157.263 90.4844 157.5 90.612 157.672 90.8672C157.849 91.1172 157.938 91.5755 157.938 92.2422C157.938 92.9089 157.849 93.3698 157.672 93.625C157.5 93.875 157.172 94 156.688 94C156.203 94 155.872 93.875 155.695 93.625C155.523 93.3698 155.438 92.9089 155.438 92.2422V85.4062C155.333 85.0417 155.073 84.651 154.656 84.2344V83.4531C154.656 82.6719 155.047 82.2812 155.828 82.2812H157.156V83.4531H156.219C155.958 83.4531 155.828 83.5833 155.828 83.8438C156.453 84.2604 156.766 84.7812 156.766 85.4062V90.5ZM155.711 80.4062C156.232 80.4062 156.492 80.1198 156.492 79.5469C156.492 78.4531 156.102 77.9062 155.32 77.9062C154.982 77.9062 154.695 78.0104 154.461 78.2188L154.07 77.2812C154.409 76.9688 154.826 76.8125 155.32 76.8125C156.831 76.8125 157.586 77.724 157.586 79.5469C157.586 80.849 156.961 81.5 155.711 81.5C154.617 81.5 154.07 81.0625 154.07 80.1875C154.07 79.7552 154.167 79.4505 154.359 79.2734C154.557 79.0911 154.901 79 155.391 79V79.9375C155.24 79.9375 155.164 80.0156 155.164 80.1719C155.164 80.3281 155.346 80.4062 155.711 80.4062ZM160.672 89.2344C164.995 88.5052 167.156 87.2292 167.156 85.4062C167.156 84.1042 166.297 83.4531 164.578 83.4531C162.859 83.4531 162 84.1042 162 85.4062C162 86.0365 162.245 86.3516 162.734 86.3516C162.969 86.3516 163.271 86.2969 163.641 86.1875V87.3594C163.438 87.5104 163.172 87.5859 162.844 87.5859C161.396 87.5859 160.672 86.8594 160.672 85.4062C160.672 83.3229 161.974 82.2812 164.578 82.2812C167.182 82.2812 168.484 83.3229 168.484 85.4062C168.484 87.5938 166.323 89.1562 162 90.0938V90.875C162 92.1771 162.859 92.8281 164.578 92.8281C166.297 92.8281 167.156 92.1771 167.156 90.875C167.156 90.0938 166.792 89.5469 166.062 89.2344L167.234 88.6094C168.068 89.0781 168.484 89.8333 168.484 90.875C168.484 92.9583 167.182 94 164.578 94C161.974 94 160.672 92.9583 160.672 90.875V89.2344ZM82.6953 126.07C82.0755 125.987 81.4922 125.818 80.9453 125.562C80.3984 125.307 79.9323 124.99 79.5469 124.609L80.1562 123.703C80.2083 123.625 80.2786 123.56 80.3672 123.508C80.4557 123.456 80.5469 123.43 80.6406 123.43C80.7604 123.43 80.8854 123.471 81.0156 123.555C81.151 123.638 81.3047 123.737 81.4766 123.852C81.6484 123.961 81.8438 124.073 82.0625 124.188C82.2812 124.297 82.5391 124.378 82.8359 124.43L83.1406 120.852C82.7604 120.742 82.3854 120.617 82.0156 120.477C81.6458 120.331 81.3125 120.141 81.0156 119.906C80.7188 119.667 80.4792 119.365 80.2969 119C80.1146 118.635 80.0234 118.182 80.0234 117.641C80.0234 117.234 80.1042 116.839 80.2656 116.453C80.4323 116.068 80.6693 115.724 80.9766 115.422C81.2891 115.115 81.6719 114.862 82.125 114.664C82.5781 114.466 83.0964 114.354 83.6797 114.328L83.7734 113.32C83.7839 113.19 83.8359 113.076 83.9297 112.977C84.0286 112.872 84.1536 112.82 84.3047 112.82H85.0312L84.8984 114.398C85.4661 114.492 85.9531 114.654 86.3594 114.883C86.7708 115.112 87.1302 115.37 87.4375 115.656L86.9531 116.383C86.8802 116.492 86.8047 116.573 86.7266 116.625C86.6536 116.677 86.5651 116.703 86.4609 116.703C86.3776 116.703 86.2812 116.68 86.1719 116.633C86.0625 116.581 85.9375 116.518 85.7969 116.445C85.6562 116.372 85.5 116.299 85.3281 116.227C85.1615 116.148 84.974 116.086 84.7656 116.039L84.4844 119.352C84.8698 119.471 85.25 119.602 85.625 119.742C86 119.883 86.3385 120.065 86.6406 120.289C86.9427 120.513 87.1849 120.792 87.3672 121.125C87.5547 121.458 87.6484 121.875 87.6484 122.375C87.6484 122.87 87.5651 123.336 87.3984 123.773C87.237 124.206 86.9974 124.589 86.6797 124.922C86.362 125.255 85.9714 125.526 85.5078 125.734C85.0443 125.943 84.513 126.068 83.9141 126.109L83.8203 127.289C83.8099 127.409 83.7552 127.521 83.6562 127.625C83.5625 127.729 83.4375 127.781 83.2812 127.781H82.5547L82.6953 126.07ZM85.7812 122.68C85.7812 122.477 85.7448 122.299 85.6719 122.148C85.599 121.997 85.4974 121.865 85.3672 121.75C85.237 121.63 85.0833 121.529 84.9062 121.445C84.7292 121.357 84.5365 121.279 84.3281 121.211L84.0625 124.453C84.625 124.38 85.0521 124.19 85.3438 123.883C85.6354 123.576 85.7812 123.174 85.7812 122.68ZM81.8906 117.445C81.8906 117.648 81.9245 117.828 81.9922 117.984C82.0651 118.141 82.1641 118.279 82.2891 118.398C82.4141 118.518 82.5599 118.625 82.7266 118.719C82.8984 118.812 83.0859 118.896 83.2891 118.969L83.5391 116.008C83.2474 116.044 82.9974 116.107 82.7891 116.195C82.5807 116.284 82.4089 116.393 82.2734 116.523C82.1432 116.648 82.0469 116.792 81.9844 116.953C81.9219 117.109 81.8906 117.273 81.8906 117.445ZM97.5 120.68C97.6615 120.68 97.7656 120.646 97.8125 120.578C97.8646 120.505 97.8906 120.44 97.8906 120.383C97.8906 120.315 97.8776 120.255 97.8516 120.203C97.8307 120.146 97.7812 120.099 97.7031 120.062C97.651 120.031 97.5833 120.01 97.5 120V120.68ZM90.2344 118.969C90.2344 118.234 90.7396 117.5 91.75 116.766C91.2604 116.385 91.0156 116 91.0156 115.609C91.0156 114.724 91.6146 114.281 92.8125 114.281C93.9583 114.281 94.5312 114.646 94.5312 115.375C94.5312 115.76 94.3568 116.096 94.0078 116.383C94.2839 116.544 94.7005 116.625 95.2578 116.625C95.9036 116.625 96.3333 116.549 96.5469 116.398C96.7656 116.242 96.875 116.029 96.875 115.758C96.875 115.513 96.7708 115.151 96.5625 114.672C96.3542 114.188 96.25 113.771 96.25 113.422C96.25 112.432 97.1875 111.938 99.0625 111.938V113.109C98.3854 113.109 98.0469 113.253 98.0469 113.539C98.0469 113.867 98.151 114.26 98.3594 114.719C98.5677 115.172 98.6719 115.638 98.6719 116.117C98.6719 116.581 98.4245 116.977 97.9297 117.305C97.4349 117.633 96.5625 117.797 95.3125 117.797C94.1458 117.797 93.4089 117.648 93.1016 117.352C92.4922 117.805 92.1875 118.344 92.1875 118.969V122.875C92.1875 123.917 92.6823 124.438 93.6719 124.438H96.8984C95.9974 123.745 95.5469 122.964 95.5469 122.094V120.141C95.5469 119.359 96.0833 118.969 97.1562 118.969C97.6406 118.969 98.0312 119.049 98.3281 119.211C98.625 119.367 98.8203 119.557 98.9141 119.781C99.013 120 99.0625 120.237 99.0625 120.492C99.0625 120.727 98.9609 120.987 98.7578 121.273C98.5599 121.56 98.1406 121.703 97.5 121.703V122.094C97.5 123.203 98.0208 124.016 99.0625 124.531V126H93.6719C91.3802 126 90.2344 124.958 90.2344 122.875V118.969ZM93 115.766C93.0625 115.714 93.0938 115.651 93.0938 115.578C93.0938 115.448 92.9896 115.383 92.7812 115.383C92.5625 115.383 92.4531 115.464 92.4531 115.625C92.4531 115.693 92.4974 115.763 92.5859 115.836L92.8281 116.008L93 115.766ZM109.891 120.219C109.891 121.224 109.781 122.099 109.562 122.844C109.349 123.589 109.052 124.203 108.672 124.688C108.292 125.172 107.841 125.534 107.32 125.773C106.799 126.008 106.24 126.125 105.641 126.125C105.036 126.125 104.477 126.008 103.961 125.773C103.445 125.534 102.997 125.172 102.617 124.688C102.242 124.203 101.948 123.589 101.734 122.844C101.521 122.099 101.414 121.224 101.414 120.219C101.414 119.203 101.521 118.326 101.734 117.586C101.948 116.841 102.242 116.227 102.617 115.742C102.997 115.258 103.445 114.898 103.961 114.664C104.477 114.424 105.036 114.305 105.641 114.305C106.24 114.305 106.799 114.424 107.32 114.664C107.841 114.898 108.292 115.258 108.672 115.742C109.052 116.227 109.349 116.841 109.562 117.586C109.781 118.326 109.891 119.203 109.891 120.219ZM107.852 120.219C107.852 119.38 107.789 118.688 107.664 118.141C107.544 117.589 107.38 117.151 107.172 116.828C106.969 116.5 106.734 116.271 106.469 116.141C106.203 116.01 105.927 115.945 105.641 115.945C105.354 115.945 105.078 116.01 104.812 116.141C104.552 116.271 104.32 116.5 104.117 116.828C103.914 117.151 103.753 117.589 103.633 118.141C103.513 118.688 103.453 119.38 103.453 120.219C103.453 121.052 103.513 121.745 103.633 122.297C103.753 122.844 103.914 123.281 104.117 123.609C104.32 123.932 104.552 124.159 104.812 124.289C105.078 124.419 105.354 124.484 105.641 124.484C105.927 124.484 106.203 124.419 106.469 124.289C106.734 124.159 106.969 123.932 107.172 123.609C107.38 123.281 107.544 122.844 107.664 122.297C107.789 121.745 107.852 121.052 107.852 120.219ZM119.172 120.219C119.172 121.224 119.062 122.099 118.844 122.844C118.63 123.589 118.333 124.203 117.953 124.688C117.573 125.172 117.122 125.534 116.602 125.773C116.081 126.008 115.521 126.125 114.922 126.125C114.318 126.125 113.758 126.008 113.242 125.773C112.727 125.534 112.279 125.172 111.898 124.688C111.523 124.203 111.229 123.589 111.016 122.844C110.802 122.099 110.695 121.224 110.695 120.219C110.695 119.203 110.802 118.326 111.016 117.586C111.229 116.841 111.523 116.227 111.898 115.742C112.279 115.258 112.727 114.898 113.242 114.664C113.758 114.424 114.318 114.305 114.922 114.305C115.521 114.305 116.081 114.424 116.602 114.664C117.122 114.898 117.573 115.258 117.953 115.742C118.333 116.227 118.63 116.841 118.844 117.586C119.062 118.326 119.172 119.203 119.172 120.219ZM117.133 120.219C117.133 119.38 117.07 118.688 116.945 118.141C116.826 117.589 116.661 117.151 116.453 116.828C116.25 116.5 116.016 116.271 115.75 116.141C115.484 116.01 115.208 115.945 114.922 115.945C114.635 115.945 114.359 116.01 114.094 116.141C113.833 116.271 113.602 116.5 113.398 116.828C113.195 117.151 113.034 117.589 112.914 118.141C112.794 118.688 112.734 119.38 112.734 120.219C112.734 121.052 112.794 121.745 112.914 122.297C113.034 122.844 113.195 123.281 113.398 123.609C113.602 123.932 113.833 124.159 114.094 124.289C114.359 124.419 114.635 124.484 114.922 124.484C115.208 124.484 115.484 124.419 115.75 124.289C116.016 124.159 116.25 123.932 116.453 123.609C116.661 123.281 116.826 122.844 116.945 122.297C117.07 121.745 117.133 121.052 117.133 120.219ZM120.156 124.914C120.156 124.747 120.188 124.591 120.25 124.445C120.312 124.294 120.398 124.167 120.508 124.062C120.617 123.953 120.745 123.867 120.891 123.805C121.042 123.737 121.203 123.703 121.375 123.703C121.536 123.703 121.693 123.737 121.844 123.805C121.995 123.867 122.122 123.953 122.227 124.062C122.336 124.167 122.422 124.294 122.484 124.445C122.547 124.591 122.578 124.747 122.578 124.914C122.578 125.086 122.547 125.245 122.484 125.391C122.422 125.536 122.336 125.664 122.227 125.773C122.122 125.878 121.995 125.958 121.844 126.016C121.693 126.078 121.536 126.109 121.375 126.109C121.203 126.109 121.042 126.078 120.891 126.016C120.745 125.958 120.617 125.878 120.508 125.773C120.398 125.664 120.312 125.536 120.25 125.391C120.188 125.245 120.156 125.086 120.156 124.914ZM132.047 120.219C132.047 121.224 131.938 122.099 131.719 122.844C131.505 123.589 131.208 124.203 130.828 124.688C130.448 125.172 129.997 125.534 129.477 125.773C128.956 126.008 128.396 126.125 127.797 126.125C127.193 126.125 126.633 126.008 126.117 125.773C125.602 125.534 125.154 125.172 124.773 124.688C124.398 124.203 124.104 123.589 123.891 122.844C123.677 122.099 123.57 121.224 123.57 120.219C123.57 119.203 123.677 118.326 123.891 117.586C124.104 116.841 124.398 116.227 124.773 115.742C125.154 115.258 125.602 114.898 126.117 114.664C126.633 114.424 127.193 114.305 127.797 114.305C128.396 114.305 128.956 114.424 129.477 114.664C129.997 114.898 130.448 115.258 130.828 115.742C131.208 116.227 131.505 116.841 131.719 117.586C131.938 118.326 132.047 119.203 132.047 120.219ZM130.008 120.219C130.008 119.38 129.945 118.688 129.82 118.141C129.701 117.589 129.536 117.151 129.328 116.828C129.125 116.5 128.891 116.271 128.625 116.141C128.359 116.01 128.083 115.945 127.797 115.945C127.51 115.945 127.234 116.01 126.969 116.141C126.708 116.271 126.477 116.5 126.273 116.828C126.07 117.151 125.909 117.589 125.789 118.141C125.669 118.688 125.609 119.38 125.609 120.219C125.609 121.052 125.669 121.745 125.789 122.297C125.909 122.844 126.07 123.281 126.273 123.609C126.477 123.932 126.708 124.159 126.969 124.289C127.234 124.419 127.51 124.484 127.797 124.484C128.083 124.484 128.359 124.419 128.625 124.289C128.891 124.159 129.125 123.932 129.328 123.609C129.536 123.281 129.701 122.844 129.82 122.297C129.945 121.745 130.008 121.052 130.008 120.219ZM137.959 126.256C136.982 126.252 136.141 126.011 135.436 125.534C134.735 125.057 134.196 124.366 133.817 123.46C133.442 122.555 133.256 121.466 133.26 120.193C133.26 118.924 133.447 117.843 133.822 116.949C134.201 116.055 134.741 115.375 135.442 114.909C136.146 114.439 136.985 114.205 137.959 114.205C138.932 114.205 139.769 114.439 140.47 114.909C141.175 115.379 141.716 116.061 142.095 116.955C142.474 117.845 142.661 118.924 142.658 120.193C142.658 121.47 142.468 122.561 142.089 123.466C141.714 124.371 141.177 125.062 140.476 125.54C139.775 126.017 138.936 126.256 137.959 126.256ZM137.959 124.216C138.625 124.216 139.158 123.881 139.555 123.21C139.953 122.54 140.15 121.534 140.146 120.193C140.146 119.311 140.055 118.576 139.874 117.989C139.696 117.402 139.442 116.96 139.112 116.665C138.786 116.369 138.402 116.222 137.959 116.222C137.296 116.222 136.766 116.553 136.368 117.216C135.97 117.879 135.769 118.871 135.766 120.193C135.766 121.087 135.855 121.833 136.033 122.432C136.214 123.027 136.47 123.473 136.8 123.773C137.129 124.068 137.516 124.216 137.959 124.216Z" fill="#344054"/>
<path d="M356.681 84V83.5H356.181H329.362C323.563 83.5 318.862 88.201 318.862 94V116C318.862 121.799 323.563 126.5 329.362 126.5H356.181H356.681V126V84Z" fill="#1C4076"/>
<path fill-rule="evenodd" clip-rule="evenodd" d="M342.579 105C342.579 105.109 342.537 105.214 342.462 105.291C342.387 105.368 342.285 105.412 342.179 105.412L333.365 105.412C333.259 105.412 333.157 105.368 333.082 105.291C333.007 105.214 332.965 105.109 332.965 105C332.965 104.891 333.007 104.786 333.082 104.709C333.157 104.632 333.259 104.588 333.365 104.588L342.179 104.588C342.285 104.588 342.387 104.632 342.462 104.709C342.537 104.786 342.579 104.891 342.579 105Z" fill="white"/>
<path d="M356.681 84V83.5H356.181H329.362C323.563 83.5 318.862 88.201 318.862 94V116C318.862 121.799 323.563 126.5 329.362 126.5H356.181H356.681V126V84Z" stroke="#98A2B3"/>
<path d="M385.963 108.906C386.088 108.906 386.171 108.88 386.213 108.828C386.255 108.771 386.275 108.708 386.275 108.641C386.275 108.573 386.257 108.518 386.221 108.477C386.179 108.419 386.093 108.391 385.963 108.391V108.906ZM384.4 101.344C384.4 99.3021 385.484 98.2812 387.65 98.2812C389.104 98.2812 389.947 98.5573 390.182 99.1094C390.416 98.5573 391.265 98.2812 392.729 98.2812C394.885 98.2812 395.963 99.3229 395.963 101.406V110H394.01V101.406C394.01 100.365 393.536 99.8438 392.588 99.8438C391.635 99.8438 391.158 100.365 391.158 101.406V110H389.205V101.406C389.205 100.365 388.731 99.8438 387.783 99.8438C386.83 99.8438 386.354 100.344 386.354 101.344H386.346L386.354 107.289C386.77 107.305 387.093 107.464 387.322 107.766C387.51 107.995 387.604 108.284 387.604 108.633C387.604 108.982 387.492 109.297 387.268 109.578C387.044 109.859 386.609 110 385.963 110C385.369 110 384.96 109.859 384.736 109.578C384.512 109.297 384.4 108.982 384.4 108.633L384.393 101.344H384.4Z" fill="#344054"/>
<rect x="356.682" y="83.5" width="67" height="43" stroke="#98A2B3"/>
<path d="M424.182 83.5H423.682V84V126V126.5H424.182H451.001C456.8 126.5 461.501 121.799 461.501 116V94C461.501 88.201 456.8 83.5 451.001 83.5H424.182Z" fill="#1C4076"/>
<path d="M449.001 111.588L440.182 111.588C437.973 111.588 436.182 109.797 436.182 107.588L436.182 102.412C436.182 100.203 437.973 98.4118 440.182 98.4118L449.001 98.4118L449.001 111.588Z" fill="#1C4076"/>
<path fill-rule="evenodd" clip-rule="evenodd" d="M442.591 109.941C442.485 109.941 442.383 109.898 442.308 109.821C442.233 109.743 442.191 109.639 442.191 109.529L442.191 105.412L438.185 105.412C438.079 105.412 437.977 105.368 437.902 105.291C437.826 105.214 437.784 105.109 437.784 105C437.784 104.891 437.826 104.786 437.902 104.709C437.977 104.632 438.079 104.588 438.185 104.588L442.191 104.588L442.191 100.471C442.191 100.361 442.233 100.257 442.308 100.179C442.383 100.102 442.485 100.059 442.591 100.059C442.698 100.059 442.799 100.102 442.875 100.179C442.95 100.257 442.992 100.361 442.992 100.471L442.992 104.588L446.998 104.588C447.104 104.588 447.206 104.632 447.281 104.709C447.356 104.786 447.398 104.891 447.398 105C447.398 105.109 447.356 105.214 447.281 105.291C447.206 105.368 447.104 105.412 446.998 105.412L442.992 105.412L442.992 109.529C442.992 109.639 442.95 109.743 442.875 109.821C442.799 109.898 442.698 109.941 442.591 109.941Z" fill="white"/>
<path d="M424.182 83.5H423.682V84V126V126.5H424.182H451.001C456.8 126.5 461.501 121.799 461.501 116V94C461.501 88.201 456.8 83.5 451.001 83.5H424.182Z" stroke="#98A2B3"/>
</g>
<rect x="54.5" y="0.5" width="431" height="161" rx="8.5" stroke="#98A2B3"/>
<path d="M24 120H77" stroke="#344054" stroke-dasharray="2 2"/>
<circle cx="12" cy="120" r="12" fill="#344054"/>
<path d="M8.19318 126V124.227L12.3352 120.392C12.6875 120.051 12.983 119.744 13.2216 119.472C13.464 119.199 13.6477 118.932 13.7727 118.67C13.8977 118.405 13.9602 118.119 13.9602 117.812C13.9602 117.472 13.8826 117.178 13.7273 116.932C13.572 116.682 13.3598 116.491 13.0909 116.358C12.822 116.222 12.517 116.153 12.1761 116.153C11.8201 116.153 11.5095 116.225 11.2443 116.369C10.9792 116.513 10.7746 116.72 10.6307 116.989C10.4867 117.258 10.4148 117.578 10.4148 117.949H8.07955C8.07955 117.187 8.25189 116.527 8.59659 115.966C8.94129 115.405 9.42424 114.972 10.0455 114.665C10.6667 114.358 11.3826 114.205 12.1932 114.205C13.0265 114.205 13.7519 114.352 14.3693 114.648C14.9905 114.939 15.4735 115.345 15.8182 115.864C16.1629 116.383 16.3352 116.977 16.3352 117.648C16.3352 118.087 16.2481 118.521 16.0739 118.949C15.9034 119.377 15.5985 119.852 15.1591 120.375C14.7197 120.894 14.1004 121.517 13.3011 122.244L11.6023 123.909V123.989H16.4886V126H8.19318Z" fill="white"/>
<path d="M515 103L461 103" stroke="#344054" stroke-dasharray="2 2"/>
<circle cx="515" cy="103" r="12" fill="#344054"/>
<path d="M516.256 97.3636V109H513.795V99.6989H513.727L511.062 101.369V99.1875L513.943 97.3636H516.256Z" fill="white"/>
<defs>
<clipPath id="clip0_7155_5002">
<rect x="55" y="1" width="430" height="160" rx="8" fill="white"/>
</clipPath>
</defs>
</svg>
