<svg width="526" height="210" viewBox="0 0 526 210" fill="none" xmlns="http://www.w3.org/2000/svg">
<g clip-path="url(#clip0_7155_5190)">
<rect x="51" y="1" width="430" height="208" rx="8" fill="white"/>
<path d="M81.9375 32C82.0867 32 82.2298 32.0593 82.3352 32.1648C82.4407 32.2702 82.5 32.4133 82.5 32.5625V33.125H91.5V32.5625C91.5 32.4133 91.5593 32.2702 91.6648 32.1648C91.7702 32.0593 91.9133 32 92.0625 32C92.2117 32 92.3548 32.0593 92.4602 32.1648C92.5657 32.2702 92.625 32.4133 92.625 32.5625V33.125H93.75C94.3467 33.125 94.919 33.3621 95.341 33.784C95.7629 34.206 96 34.7783 96 35.375V47.75C96 48.3467 95.7629 48.919 95.341 49.341C94.919 49.7629 94.3467 50 93.75 50H80.25C79.6533 50 79.081 49.7629 78.659 49.341C78.2371 48.919 78 48.3467 78 47.75V35.375C78 34.7783 78.2371 34.206 78.659 33.784C79.081 33.3621 79.6533 33.125 80.25 33.125H81.375V32.5625C81.375 32.4133 81.4343 32.2702 81.5398 32.1648C81.6452 32.0593 81.7883 32 81.9375 32ZM79.125 36.5V47.75C79.125 48.0484 79.2435 48.3345 79.4545 48.5455C79.6655 48.7565 79.9516 48.875 80.25 48.875H93.75C94.0484 48.875 94.3345 48.7565 94.5455 48.5455C94.7565 48.3345 94.875 48.0484 94.875 47.75V36.5H79.125Z" fill="#344054"/>
<path d="M123.438 40.3828C123.328 40.3828 123.234 40.4167 123.156 40.4844C123.083 40.5521 123.047 40.6484 123.047 40.7734C123.047 40.8984 123.083 40.9948 123.156 41.0625C123.234 41.1302 123.328 41.1641 123.438 41.1641V40.3828ZM123.438 42.0859C123.385 42.0911 123.333 42.0938 123.281 42.0938C122.927 42.0938 122.664 41.9818 122.492 41.7578C122.289 41.5078 122.188 41.1797 122.188 40.7734C122.188 40.3672 122.286 40.0391 122.484 39.7891C122.688 39.5339 123.018 39.4062 123.477 39.4062C123.935 39.4062 124.263 39.5339 124.461 39.7891C124.664 40.0391 124.766 40.3672 124.766 40.7734V44.0938C124.766 46.6979 123.464 48 120.859 48C118.255 48 116.953 46.6979 116.953 44.0938V39.4062C116.953 39.0417 116.823 38.651 116.562 38.2344V37.8438C116.562 36.8021 117.083 36.2812 118.125 36.2812H124.766V37.4531H118.672C118.151 37.4531 117.891 37.6094 117.891 37.9219C118.151 38.3385 118.281 38.8333 118.281 39.4062V44.0938C118.281 45.9167 119.141 46.8281 120.859 46.8281C122.578 46.8281 123.438 45.9167 123.438 44.0938V42.0859ZM120.469 32.1797C120.469 32.3724 120.518 32.5182 120.617 32.6172C120.716 32.7161 120.862 32.7656 121.055 32.7656C121.253 32.7656 121.401 32.7161 121.5 32.6172C121.594 32.5182 121.641 32.3724 121.641 32.1797C121.641 31.9818 121.594 31.8359 121.5 31.7422C121.401 31.6432 121.253 31.5938 121.055 31.5938C120.862 31.5938 120.716 31.6432 120.617 31.7422C120.518 31.8359 120.469 31.9818 120.469 32.1797ZM122.812 32.1797C122.812 32.7682 122.667 33.2083 122.375 33.5C122.083 33.7917 121.643 33.9375 121.055 33.9375C120.466 33.9375 120.026 33.7917 119.734 33.5C119.443 33.2083 119.297 32.7682 119.297 32.1797C119.297 31.5911 119.443 31.151 119.734 30.8594C120.026 30.5677 120.466 30.4219 121.055 30.4219C121.643 30.4219 122.083 30.5677 122.375 30.8594C122.667 31.151 122.812 31.5911 122.812 32.1797ZM129.844 45.6562V46.8281C129.953 46.8281 130.044 46.7995 130.117 46.7422C130.195 46.6797 130.234 46.513 130.234 46.2422C130.234 45.9714 130.195 45.8073 130.117 45.75C130.044 45.6875 129.953 45.6562 129.844 45.6562ZM128.672 40.1875C128.672 37.5833 129.76 36.2812 131.938 36.2812C134.109 36.2812 135.195 37.5833 135.195 40.1875V46.6719L137.266 43.9375L139.336 46.6719V40.1875C139.336 37.5833 140.424 36.2812 142.602 36.2812C144.773 36.2812 145.859 37.5833 145.859 40.1875V48H144.531V40.1875C144.531 38.3646 143.888 37.4531 142.602 37.4531C141.31 37.4531 140.664 38.3646 140.664 40.1875V48H138.945L137.266 45.6562L135.586 48H133.867V40.1875C133.867 38.3646 133.198 37.4531 131.859 37.4531C130.62 37.4531 130 38.3646 130 40.1875V44.5625C130.12 44.5104 130.258 44.4844 130.414 44.4844C130.57 44.4844 130.734 44.625 130.906 44.9062C131.083 45.1823 131.172 45.6276 131.172 46.2422C131.172 46.8568 131.057 47.3047 130.828 47.5859C130.604 47.862 130.302 48 129.922 48C129.542 48 129.24 47.8594 129.016 47.5781C128.839 47.3646 128.729 47.0495 128.688 46.6328H128.672V40.1875ZM155.625 37.4688C155.625 37.3125 155.521 37.2344 155.312 37.2344C155.104 37.2344 155 37.3125 155 37.4688C155 37.6094 155.104 37.75 155.312 37.8906C155.521 37.7812 155.625 37.6406 155.625 37.4688ZM149.57 41.3594C149.513 41.3594 149.466 41.3854 149.43 41.4375C149.393 41.4844 149.375 41.6536 149.375 41.9453C149.375 42.237 149.393 42.4089 149.43 42.4609C149.466 42.5078 149.513 42.5312 149.57 42.5312H149.766V41.3594H149.57ZM151.094 46.4375L153.672 44.0938L156.25 46.4375V40.9688C156.25 40.4062 155.828 39.8099 154.984 39.1797C154.557 39.5911 153.833 39.7969 152.812 39.7969C151.677 39.7969 150.885 39.6484 150.438 39.3516C149.99 39.0547 149.766 38.6432 149.766 38.1172C149.766 37.5964 149.87 37.1094 150.078 36.6562C150.286 36.1979 150.391 35.8255 150.391 35.5391C150.391 35.2526 150.052 35.1094 149.375 35.1094V33.9375C150.833 33.9375 151.562 34.4323 151.562 35.4219C151.562 35.8125 151.458 36.25 151.25 36.7344C151.042 37.2135 150.938 37.5547 150.938 37.7578C150.938 37.9661 151.068 38.1641 151.328 38.3516C151.589 38.5339 152.102 38.625 152.867 38.625C153.529 38.625 154.005 38.5391 154.297 38.3672C154.036 38.1536 153.906 37.8229 153.906 37.375C153.906 36.6458 154.375 36.2812 155.312 36.2812C156.302 36.2812 156.797 36.724 156.797 37.6094C156.797 38.0625 156.594 38.4479 156.188 38.7656C157.115 39.4375 157.578 40.1719 157.578 40.9688V48H156.016L153.672 45.6562L151.328 48H149.766V43.6875C149.703 43.6979 149.638 43.7031 149.57 43.7031C149.268 43.7031 149.029 43.5781 148.852 43.3281C148.68 43.0729 148.594 42.612 148.594 41.9453C148.594 41.2786 148.68 40.8203 148.852 40.5703C149.029 40.3151 149.359 40.1875 149.844 40.1875C150.328 40.1875 150.656 40.3151 150.828 40.5703C151.005 40.8203 151.094 41.2786 151.094 41.9453V46.4375ZM163.008 46.8281C163.065 46.8281 163.112 46.8047 163.148 46.7578C163.185 46.7057 163.203 46.5339 163.203 46.2422C163.203 45.9505 163.185 45.7812 163.148 45.7344C163.112 45.6823 163.065 45.6562 163.008 45.6562H162.812V46.8281H163.008ZM162.812 44.5C162.875 44.4896 162.94 44.4844 163.008 44.4844C163.31 44.4844 163.547 44.612 163.719 44.8672C163.896 45.1172 163.984 45.5755 163.984 46.2422C163.984 46.9089 163.896 47.3698 163.719 47.625C163.547 47.875 163.219 48 162.734 48C162.25 48 161.919 47.875 161.742 47.625C161.57 47.3698 161.484 46.9089 161.484 46.2422V39.4062C161.38 39.0417 161.12 38.651 160.703 38.2344V37.4531C160.703 36.6719 161.094 36.2812 161.875 36.2812H163.203V37.4531H162.266C162.005 37.4531 161.875 37.5833 161.875 37.8438C162.5 38.2604 162.812 38.7812 162.812 39.4062V44.5ZM166.719 39.4062C166.719 39.0417 166.589 38.651 166.328 38.2344V37.8438C166.328 36.8021 166.849 36.2812 167.891 36.2812H170.234L172.031 37.4531H172.656C173.021 37.4531 173.203 37.2708 173.203 36.9062V35.1094H174.531V36.9062C174.531 38.0521 174.089 38.625 173.203 38.625H171.797L170 37.4531H168.438C167.917 37.4531 167.656 37.6094 167.656 37.9219C167.917 38.3385 168.047 38.8333 168.047 39.4062V46.4375L170.625 44.25L173.203 46.4375V39.4062H174.531V48H173.359L170.625 45.6562L167.891 48H166.719V39.4062ZM169.844 32.9219H173.359C172.062 32.0365 171.021 31.5938 170.234 31.5938C169.193 31.5938 168.672 31.8151 168.672 32.2578C168.672 32.7005 169.062 32.9219 169.844 32.9219ZM173.359 31.6328V29.6406H174.531V33.9375H169.453C168.151 33.9375 167.5 33.4167 167.5 32.375C167.5 31.0729 168.411 30.4219 170.234 30.4219C171.276 30.4219 172.253 30.7734 173.164 31.4766C173.232 31.5286 173.297 31.5807 173.359 31.6328ZM184.297 37.4688C184.297 37.3125 184.193 37.2344 183.984 37.2344C183.776 37.2344 183.672 37.3125 183.672 37.4688C183.672 37.6094 183.776 37.75 183.984 37.8906C184.193 37.7812 184.297 37.6406 184.297 37.4688ZM178.242 41.3594C178.185 41.3594 178.138 41.3854 178.102 41.4375C178.065 41.4844 178.047 41.6536 178.047 41.9453C178.047 42.237 178.065 42.4089 178.102 42.4609C178.138 42.5078 178.185 42.5312 178.242 42.5312H178.438V41.3594H178.242ZM179.766 46.4375L182.344 44.0938L184.922 46.4375V40.9688C184.922 40.4062 184.5 39.8099 183.656 39.1797C183.229 39.5911 182.505 39.7969 181.484 39.7969C180.349 39.7969 179.557 39.6484 179.109 39.3516C178.661 39.0547 178.438 38.6432 178.438 38.1172C178.438 37.5964 178.542 37.1094 178.75 36.6562C178.958 36.1979 179.062 35.8255 179.062 35.5391C179.062 35.2526 178.724 35.1094 178.047 35.1094V33.9375C179.505 33.9375 180.234 34.4323 180.234 35.4219C180.234 35.8125 180.13 36.25 179.922 36.7344C179.714 37.2135 179.609 37.5547 179.609 37.7578C179.609 37.9661 179.74 38.1641 180 38.3516C180.26 38.5339 180.773 38.625 181.539 38.625C182.201 38.625 182.677 38.5391 182.969 38.3672C182.708 38.1536 182.578 37.8229 182.578 37.375C182.578 36.6458 183.047 36.2812 183.984 36.2812C184.974 36.2812 185.469 36.724 185.469 37.6094C185.469 38.0625 185.266 38.4479 184.859 38.7656C185.786 39.4375 186.25 40.1719 186.25 40.9688V48H184.688L182.344 45.6562L180 48H178.438V43.6875C178.375 43.6979 178.31 43.7031 178.242 43.7031C177.94 43.7031 177.701 43.5781 177.523 43.3281C177.352 43.0729 177.266 42.612 177.266 41.9453C177.266 41.2786 177.352 40.8203 177.523 40.5703C177.701 40.3151 178.031 40.1875 178.516 40.1875C179 40.1875 179.328 40.3151 179.5 40.5703C179.677 40.8203 179.766 41.2786 179.766 41.9453V46.4375ZM191.328 45.6562V46.8281C191.438 46.8281 191.529 46.7995 191.602 46.7422C191.68 46.6797 191.719 46.513 191.719 46.2422C191.719 45.9714 191.68 45.8073 191.602 45.75C191.529 45.6875 191.438 45.6562 191.328 45.6562ZM203.438 39.4062V44.0938C203.438 46.6979 202.266 48 199.922 48C197.396 48 196.133 46.6979 196.133 44.0938V42.5312C196.133 40.7083 195.359 39.7969 193.812 39.7969C192.26 39.7969 191.484 40.7083 191.484 42.5312V44.5625C191.604 44.5104 191.742 44.4844 191.898 44.4844C192.055 44.4844 192.219 44.625 192.391 44.9062C192.568 45.1823 192.656 45.6276 192.656 46.2422C192.656 46.8568 192.542 47.3047 192.312 47.5859C192.089 47.862 191.786 48 191.406 48C191.026 48 190.724 47.8594 190.5 47.5781C190.323 47.3646 190.214 47.0495 190.172 46.6328H190.156V42.5312C190.156 40.9062 190.63 39.7891 191.578 39.1797C191.344 38.7891 191 38.474 190.547 38.2344V37.4531C190.547 36.6719 190.938 36.2812 191.719 36.2812H196.016V37.4531H192.266C192.005 37.4531 191.875 37.5833 191.875 37.8438C192.281 38.0625 192.602 38.349 192.836 38.7031C193.138 38.651 193.464 38.625 193.812 38.625C196.245 38.625 197.461 39.9271 197.461 42.5312V44.0938C197.461 45.9167 198.281 46.8281 199.922 46.8281C201.38 46.8281 202.109 45.9167 202.109 44.0938V39.4062C202.109 39.0417 201.849 38.651 201.328 38.2344V37.4531C201.328 36.6719 201.719 36.2812 202.5 36.2812H203.828V37.4531H202.891C202.63 37.4531 202.5 37.5833 202.5 37.8438C203.125 38.2604 203.438 38.7812 203.438 39.4062ZM208.516 45.6562V46.8281C208.625 46.8281 208.716 46.7995 208.789 46.7422C208.867 46.6797 208.906 46.513 208.906 46.2422C208.906 45.9714 208.867 45.8073 208.789 45.75C208.716 45.6875 208.625 45.6562 208.516 45.6562ZM214.609 37.5703L216.992 36.2812H217.5C219.583 36.2812 220.625 37.3229 220.625 39.4062V48H219.297V39.4062C219.297 38.1042 218.698 37.4531 217.5 37.4531H217.188L215.391 38.3125L214.609 37.5703ZM207.344 38.625L209.375 36.2812L211.25 37.8438L213.125 36.2812L215.156 38.625V48H213.828V38.9375L213.047 37.9609L211.25 39.25L209.453 37.9609L208.672 38.9375V44.5625C208.792 44.5104 208.93 44.4844 209.086 44.4844C209.242 44.4844 209.406 44.625 209.578 44.9062C209.755 45.1823 209.844 45.6276 209.844 46.2422C209.844 46.8568 209.729 47.3047 209.5 47.5859C209.276 47.862 208.974 48 208.594 48C208.214 48 207.911 47.8594 207.688 47.5781C207.51 47.3646 207.401 47.0495 207.359 46.6328H207.344V38.625ZM218.875 52.3047C218.641 52.3047 218.443 52.3411 218.281 52.4141C217.969 52.3464 217.812 52.2005 217.812 51.9766C217.812 51.7734 218.13 51.6719 218.766 51.6719C219.745 51.6719 220.234 51.9297 220.234 52.4453C220.234 53.2839 218.542 53.7031 215.156 53.7031C213.333 53.7031 212.031 53.5078 211.25 53.1172C210.469 52.7318 209.297 52.5391 207.734 52.5391V51.6719C209.557 51.6719 210.859 51.8646 211.641 52.25C212.422 52.6406 213.594 52.8359 215.156 52.8359C216.458 52.8359 217.461 52.776 218.164 52.6562C218.867 52.5365 219.219 52.4479 219.219 52.3906C219.219 52.3333 219.104 52.3047 218.875 52.3047ZM214.922 50.5781V51.5156H213.75V50.5L212.656 49.875L211.25 50.6562L209.844 49.875L208.906 50.4219V50.7031H208.953C209.203 50.7031 209.388 50.7422 209.508 50.8203C209.628 50.9089 209.688 51.0026 209.688 51.1016C209.688 51.2005 209.589 51.2943 209.391 51.3828C209.188 51.4714 208.961 51.5156 208.711 51.5156C208.461 51.5156 208.237 51.4714 208.039 51.3828C207.836 51.2943 207.734 51.1615 207.734 50.9844V49.9531L209.922 48.7812L211.25 49.5625L212.578 48.7812L214.305 49.7031L216.094 48.7812H218.672C219.714 48.7812 220.234 49.3021 220.234 50.3438V51.5156H219.062V50.5781C219.062 50.1094 218.932 49.875 218.672 49.875H216.172L214.922 50.5781ZM220.625 36.2812H222.188C224.271 36.2812 225.312 37.3229 225.312 39.4062V48H223.984V39.4062C223.984 38.1042 223.385 37.4531 222.188 37.4531H220.625V36.2812ZM230.391 45.6562V46.8281C230.5 46.8281 230.591 46.7995 230.664 46.7422C230.742 46.6797 230.781 46.513 230.781 46.2422C230.781 45.9714 230.742 45.8073 230.664 45.75C230.591 45.6875 230.5 45.6562 230.391 45.6562ZM242.5 39.4062V44.0938C242.5 46.6979 241.328 48 238.984 48C236.458 48 235.195 46.6979 235.195 44.0938V42.5312C235.195 40.7083 234.422 39.7969 232.875 39.7969C231.323 39.7969 230.547 40.7083 230.547 42.5312V44.5625C230.667 44.5104 230.805 44.4844 230.961 44.4844C231.117 44.4844 231.281 44.625 231.453 44.9062C231.63 45.1823 231.719 45.6276 231.719 46.2422C231.719 46.8568 231.604 47.3047 231.375 47.5859C231.151 47.862 230.849 48 230.469 48C230.089 48 229.786 47.8594 229.562 47.5781C229.385 47.3646 229.276 47.0495 229.234 46.6328H229.219V42.5312C229.219 40.9062 229.693 39.7891 230.641 39.1797C230.406 38.7891 230.062 38.474 229.609 38.2344V37.4531C229.609 36.6719 230 36.2812 230.781 36.2812H235.078V37.4531H231.328C231.068 37.4531 230.938 37.5833 230.938 37.8438C231.344 38.0625 231.664 38.349 231.898 38.7031C232.201 38.651 232.526 38.625 232.875 38.625C235.307 38.625 236.523 39.9271 236.523 42.5312V44.0938C236.523 45.9167 237.344 46.8281 238.984 46.8281C240.443 46.8281 241.172 45.9167 241.172 44.0938V39.4062C241.172 39.0417 240.911 38.651 240.391 38.2344V37.4531C240.391 36.6719 240.781 36.2812 241.562 36.2812H242.891V37.4531H241.953C241.693 37.4531 241.562 37.5833 241.562 37.8438C242.188 38.2604 242.5 38.7812 242.5 39.4062ZM238.203 32.1797C238.203 32.3724 238.253 32.5182 238.352 32.6172C238.451 32.7161 238.596 32.7656 238.789 32.7656C238.987 32.7656 239.135 32.7161 239.234 32.6172C239.328 32.5182 239.375 32.3724 239.375 32.1797C239.375 31.9818 239.328 31.8359 239.234 31.7422C239.135 31.6432 238.987 31.5938 238.789 31.5938C238.596 31.5938 238.451 31.6432 238.352 31.7422C238.253 31.8359 238.203 31.9818 238.203 32.1797ZM240.547 32.1797C240.547 32.7682 240.401 33.2083 240.109 33.5C239.818 33.7917 239.378 33.9375 238.789 33.9375C238.201 33.9375 237.76 33.7917 237.469 33.5C237.177 33.2083 237.031 32.7682 237.031 32.1797C237.031 31.5911 237.177 31.151 237.469 30.8594C237.76 30.5677 238.201 30.4219 238.789 30.4219C239.378 30.4219 239.818 30.5677 240.109 30.8594C240.401 31.151 240.547 31.5911 240.547 32.1797ZM254.219 36.2812V37.4531H246.406V36.2812H254.219ZM247.734 45.2656C248.125 44.4844 248.75 44.0938 249.609 44.0938H250.312V45.3438H249.609C248.75 45.3438 248.125 45.7344 247.734 46.5156V48H246.406V42.5312C246.406 39.9271 247.708 38.625 250.312 38.625C252.917 38.625 254.219 39.9271 254.219 42.5312V48H252.891V42.5312C252.891 40.7083 252.031 39.7969 250.312 39.7969C248.594 39.7969 247.734 40.7083 247.734 42.5312V45.2656ZM254.219 36.2812H255.781C257.865 36.2812 258.906 37.3229 258.906 39.4062V48H257.578V39.4062C257.578 38.1042 256.979 37.4531 255.781 37.4531H254.219V36.2812ZM263.984 45.6562V46.8281C264.094 46.8281 264.185 46.7995 264.258 46.7422C264.336 46.6797 264.375 46.513 264.375 46.2422C264.375 45.9714 264.336 45.8073 264.258 45.75C264.185 45.6875 264.094 45.6562 263.984 45.6562ZM276.094 39.4062V44.0938C276.094 46.6979 274.922 48 272.578 48C270.052 48 268.789 46.6979 268.789 44.0938V40.1875C268.789 38.3646 268.016 37.4531 266.469 37.4531C264.917 37.4531 264.141 38.3646 264.141 40.1875V44.5625C264.26 44.5104 264.398 44.4844 264.555 44.4844C264.711 44.4844 264.875 44.625 265.047 44.9062C265.224 45.1823 265.312 45.6276 265.312 46.2422C265.312 46.8568 265.198 47.3047 264.969 47.5859C264.745 47.862 264.443 48 264.062 48C263.682 48 263.38 47.8594 263.156 47.5781C262.979 47.3646 262.87 47.0495 262.828 46.6328H262.812V40.1875C262.812 37.5833 264.031 36.2812 266.469 36.2812C268.901 36.2812 270.117 37.5833 270.117 40.1875V44.0938C270.117 45.9167 270.938 46.8281 272.578 46.8281C274.036 46.8281 274.766 45.9167 274.766 44.0938V39.4062C274.766 39.0417 274.505 38.651 273.984 38.2344V37.4531C273.984 36.6719 274.375 36.2812 275.156 36.2812H276.484V37.4531H275.547C275.286 37.4531 275.156 37.5833 275.156 37.8438C275.781 38.2604 276.094 38.7812 276.094 39.4062ZM272.773 30.4219V33.9375H271.602V30.4219H272.773Z" fill="#344054"/>
<rect x="433.5" y="29.5" width="23" height="23" rx="3.5" fill="white" stroke="#98A2B3"/>
<path d="M88.2422 85.75C88.0547 85.75 87.9297 85.793 87.8672 85.8789C87.8047 85.957 87.7734 86.0469 87.7734 86.1484C87.7734 86.25 87.8008 86.332 87.8555 86.3945C87.918 86.4805 88.0469 86.5234 88.2422 86.5234V85.75ZM77.9297 84.1094C77.9297 83.4844 77.7344 82.8594 77.3438 82.2344V81.7656C77.3438 80.2031 78.2812 79.4219 80.1562 79.4219H90.5859V81.7656H80.9766C80.5078 81.7656 80.2734 81.8438 80.2734 82C80.6641 82.625 80.8594 83.3281 80.8594 84.1094V91.1406C80.8594 93.4844 81.9922 94.6562 84.2578 94.6562C86.5234 94.6562 87.6562 93.4844 87.6562 91.1406V88.1758C87.0312 88.1523 86.5469 87.9141 86.2031 87.4609C85.9219 87.1172 85.7812 86.6836 85.7812 86.1602C85.7812 85.6367 85.9492 85.1641 86.2852 84.7422C86.6211 84.3203 87.2734 84.1094 88.2422 84.1094C89.1328 84.1094 89.7461 84.3203 90.082 84.7422C90.418 85.1641 90.5859 85.6367 90.5859 86.1602V91.1406C90.5859 95.0469 88.4766 97 84.2578 97C80.0391 97 77.9297 95.0469 77.9297 91.1406V84.1094ZM83.4961 73.2695C83.4961 73.4648 83.5469 73.6094 83.6484 73.7031C83.7422 73.8047 83.8867 73.8555 84.082 73.8555C84.2773 73.8555 84.4258 73.8047 84.5273 73.7031C84.6211 73.6094 84.668 73.4648 84.668 73.2695C84.668 73.0742 84.6211 72.9297 84.5273 72.8359C84.4258 72.7344 84.2773 72.6836 84.082 72.6836C83.8867 72.6836 83.7422 72.7344 83.6484 72.8359C83.5469 72.9297 83.4961 73.0742 83.4961 73.2695ZM86.7188 73.2695C86.7188 74.1523 86.5 74.8125 86.0625 75.25C85.625 75.6875 84.9648 75.9062 84.082 75.9062C83.1992 75.9062 82.5391 75.6875 82.1016 75.25C81.6641 74.8125 81.4453 74.1523 81.4453 73.2695C81.4453 72.3867 81.6641 71.7266 82.1016 71.2891C82.5391 70.8516 83.1992 70.6328 84.082 70.6328C84.9648 70.6328 85.625 70.8516 86.0625 71.2891C86.5 71.7266 86.7188 72.3867 86.7188 73.2695ZM98.7891 94.9961C99.0312 94.9961 99.1875 94.9453 99.2578 94.8438C99.3359 94.7344 99.375 94.5664 99.375 94.3398C99.375 94.1055 99.3359 93.9375 99.2578 93.8359C99.1875 93.7344 99.0312 93.6758 98.7891 93.6602V94.9961ZM96.4453 85.2812C96.4453 81.375 98.2344 79.4219 101.812 79.4219C105.383 79.4219 107.168 81.375 107.168 85.2812V93.3086L109.805 89.8281L112.441 93.3086V85.2812C112.441 81.375 114.23 79.4219 117.809 79.4219C121.379 79.4219 123.164 81.375 123.164 85.2812V97H120.234V85.2812C120.234 82.9375 119.426 81.7656 117.809 81.7656C116.184 81.7656 115.371 82.9375 115.371 85.2812V97H111.938L109.805 94.0117L107.672 97H104.238V85.2812C104.238 82.9375 103.43 81.7656 101.812 81.7656C100.188 81.7656 99.375 82.9375 99.375 85.2812V91.6562C99.9688 91.7031 100.41 91.9375 100.699 92.3594C100.988 92.7734 101.133 93.4414 101.133 94.3633C101.133 95.1289 100.93 95.7617 100.523 96.2617C100.117 96.7539 99.5391 97 98.7891 97C98.0391 97 97.4609 96.7734 97.0547 96.3203C96.6484 95.8594 96.4453 95.207 96.4453 94.3633V85.2812ZM129.609 88.457C129.367 88.457 129.207 88.5117 129.129 88.6211C129.059 88.7227 129.023 88.8867 129.023 89.1133C129.023 89.3477 129.059 89.5156 129.129 89.6172C129.207 89.7188 129.367 89.7773 129.609 89.793V88.457ZM131.953 93.9414L135.352 90.8594L138.75 93.9414V87.0391C138.75 86.1016 138.293 85.293 137.379 84.6133C136.918 85.0586 135.812 85.2812 134.062 85.2812C132.188 85.2812 130.879 85.0352 130.137 84.543C129.395 84.0508 129.023 83.2617 129.023 82.1758C129.023 81.457 129.18 80.8555 129.492 80.3711C129.805 79.8789 129.961 79.3867 129.961 78.8945C129.961 78.4648 129.453 78.25 128.438 78.25V75.9062C131.25 75.9062 132.656 76.6484 132.656 78.1328C132.656 78.6562 132.5 79.2812 132.188 80.0078C131.875 80.7266 131.719 81.2695 131.719 81.6367C131.719 82.043 131.879 82.3633 132.199 82.5977C132.527 82.8242 133.176 82.9375 134.145 82.9375C134.98 82.9375 135.605 82.8164 136.02 82.5742C135.496 82.1445 135.234 81.6406 135.234 81.0625C135.234 79.9688 136.094 79.4219 137.812 79.4219C139.609 79.4219 140.508 80.0859 140.508 81.4141C140.508 82 140.141 82.5781 139.406 83.1484C140.922 84.25 141.68 85.3516 141.68 86.4531V97H138.539L135.352 93.8125L132.164 97H129.023V91.7969C128.43 91.75 127.988 91.5195 127.699 91.1055C127.41 90.6836 127.266 90.0117 127.266 89.0898C127.266 88.168 127.41 87.5 127.699 87.0859C127.988 86.6641 128.625 86.4531 129.609 86.4531C130.594 86.4531 131.23 86.6641 131.52 87.0859C131.809 87.5 131.953 88.168 131.953 89.0898V93.9414ZM137.789 82.0117L138.152 81.7539C138.285 81.6445 138.352 81.5391 138.352 81.4375C138.352 81.1953 138.188 81.0742 137.859 81.0742C137.547 81.0742 137.391 81.1719 137.391 81.3672C137.391 81.4766 137.438 81.5703 137.531 81.6484L137.789 82.0117ZM150.352 93.8359C150.281 93.7344 150.125 93.6758 149.883 93.6602V94.9961C150.125 94.9961 150.281 94.9453 150.352 94.8438C150.43 94.7344 150.469 94.5664 150.469 94.3398C150.469 94.1055 150.43 93.9375 150.352 93.8359ZM150.469 91.6562C151.062 91.7031 151.504 91.9375 151.793 92.3594C152.082 92.7734 152.227 93.4414 152.227 94.3633C152.227 95.2852 152.023 95.957 151.617 96.3789C151.211 96.793 150.633 97 149.883 97C149.133 97 148.555 96.793 148.148 96.3789C147.742 95.957 147.539 95.2852 147.539 94.3633V84.1094C147.539 83.4688 147.148 82.8359 146.367 82.2109V81.1797C146.367 80.0078 147.109 79.4219 148.594 79.4219H151.055V81.7656H149.062V81.9062C150 82.5312 150.469 83.2656 150.469 84.1094V91.6562ZM156.328 84.1094C156.328 83.4844 156.133 82.8594 155.742 82.2344V81.7656C155.742 80.2031 156.68 79.4219 158.555 79.4219H162.328L165.023 80.5938H165.703C165.938 80.5938 166.055 80.5156 166.055 80.3594V77.6641H168.984V80.3594C168.984 82.0781 168.164 82.9375 166.523 82.9375H164.156L161.461 81.7656H159.375C158.906 81.7656 158.672 81.8438 158.672 82C159.062 82.625 159.258 83.3281 159.258 84.1094V93.4141L162.656 90.5312L166.055 93.4141V84.1094H168.984V97H166.453L162.656 93.7422L158.859 97H156.328V84.1094ZM160.195 73.6211C160.195 74.0508 160.586 74.2656 161.367 74.2656H166.641C165.086 73.4062 163.719 72.9766 162.539 72.9766C160.977 72.9766 160.195 73.1914 160.195 73.6211ZM166.875 72.168V69.4609H168.984V75.9062H160.781C158.828 75.9062 157.852 75.125 157.852 73.5625C157.852 71.6094 159.414 70.6328 162.539 70.6328C164.078 70.6328 165.523 71.1445 166.875 72.168ZM175.43 88.457C175.188 88.457 175.027 88.5117 174.949 88.6211C174.879 88.7227 174.844 88.8867 174.844 89.1133C174.844 89.3477 174.879 89.5156 174.949 89.6172C175.027 89.7188 175.188 89.7773 175.43 89.793V88.457ZM177.773 93.9414L181.172 90.8594L184.57 93.9414V87.0391C184.57 86.1016 184.113 85.293 183.199 84.6133C182.738 85.0586 181.633 85.2812 179.883 85.2812C178.008 85.2812 176.699 85.0352 175.957 84.543C175.215 84.0508 174.844 83.2617 174.844 82.1758C174.844 81.457 175 80.8555 175.312 80.3711C175.625 79.8789 175.781 79.3867 175.781 78.8945C175.781 78.4648 175.273 78.25 174.258 78.25V75.9062C177.07 75.9062 178.477 76.6484 178.477 78.1328C178.477 78.6562 178.32 79.2812 178.008 80.0078C177.695 80.7266 177.539 81.2695 177.539 81.6367C177.539 82.043 177.699 82.3633 178.02 82.5977C178.348 82.8242 178.996 82.9375 179.965 82.9375C180.801 82.9375 181.426 82.8164 181.84 82.5742C181.316 82.1445 181.055 81.6406 181.055 81.0625C181.055 79.9688 181.914 79.4219 183.633 79.4219C185.43 79.4219 186.328 80.0859 186.328 81.4141C186.328 82 185.961 82.5781 185.227 83.1484C186.742 84.25 187.5 85.3516 187.5 86.4531V97H184.359L181.172 93.8125L177.984 97H174.844V91.7969C174.25 91.75 173.809 91.5195 173.52 91.1055C173.23 90.6836 173.086 90.0117 173.086 89.0898C173.086 88.168 173.23 87.5 173.52 87.0859C173.809 86.6641 174.445 86.4531 175.43 86.4531C176.414 86.4531 177.051 86.6641 177.34 87.0859C177.629 87.5 177.773 88.168 177.773 89.0898V93.9414ZM183.609 82.0117L183.973 81.7539C184.105 81.6445 184.172 81.5391 184.172 81.4375C184.172 81.1953 184.008 81.0742 183.68 81.0742C183.367 81.0742 183.211 81.1719 183.211 81.3672C183.211 81.4766 183.258 81.5703 183.352 81.6484L183.609 82.0117ZM193.945 93.6602C193.703 93.6758 193.543 93.7344 193.465 93.8359C193.395 93.9375 193.359 94.1055 193.359 94.3398C193.359 94.5664 193.395 94.7344 193.465 94.8438C193.543 94.9453 193.703 94.9961 193.945 94.9961V93.6602ZM203.672 93.6602C203.43 93.6758 203.27 93.7344 203.191 93.8359C203.121 93.9375 203.086 94.1055 203.086 94.3398C203.086 94.5664 203.121 94.7344 203.191 94.8438C203.27 94.9453 203.43 94.9961 203.672 94.9961V93.6602ZM196.289 94.3633C196.289 95.2852 196.086 95.957 195.68 96.3789C195.273 96.793 194.695 97 193.945 97C193.195 97 192.617 96.793 192.211 96.3789C191.805 95.957 191.602 95.2852 191.602 94.3633C191.602 93.4414 191.746 92.7734 192.035 92.3594C192.324 91.9375 192.766 91.7031 193.359 91.6562V84.1094C193.359 83.4688 192.969 82.8359 192.188 82.2109V81.1797C192.188 80.0078 192.93 79.4219 194.414 79.4219H196.875V81.7656H194.883V81.9062C195.82 82.5312 196.289 83.2656 196.289 84.1094V87.0391H203.086V84.1094C203.086 83.4688 202.695 82.8359 201.914 82.2109V81.1797C201.914 80.0078 202.656 79.4219 204.141 79.4219H206.602V81.7656H204.609V81.9062C205.547 82.5312 206.016 83.2656 206.016 84.1094V94.3633C206.016 95.2852 205.812 95.957 205.406 96.3789C205 96.793 204.422 97 203.672 97C202.922 97 202.344 96.793 201.938 96.3789C201.531 95.957 201.328 95.2852 201.328 94.3633C201.328 93.4414 201.473 92.7734 201.762 92.3594C202.051 91.9375 202.492 91.7031 203.086 91.6562V89.3828H196.289V94.3633ZM214.219 94.9961C214.461 94.9961 214.617 94.9453 214.688 94.8438C214.766 94.7344 214.805 94.5664 214.805 94.3398C214.805 94.1055 214.766 93.9375 214.688 93.8359C214.617 93.7344 214.461 93.6758 214.219 93.6602V94.9961ZM224.531 79.4219V81.7656H211.875V79.4219H224.531ZM211.875 88.7969C211.875 84.8906 213.984 82.9375 218.203 82.9375C222.422 82.9375 224.531 84.8906 224.531 88.7969V97H221.602V88.7969C221.602 86.4531 220.469 85.2812 218.203 85.2812C215.938 85.2812 214.805 86.4531 214.805 88.7969V91.6562C215.398 91.7031 215.84 91.9375 216.129 92.3594C216.418 92.7734 216.562 93.4414 216.562 94.3633C216.562 95.1289 216.359 95.7617 215.953 96.2617C215.547 96.7539 214.969 97 214.219 97C213.469 97 212.891 96.7734 212.484 96.3203C212.078 95.8594 211.875 95.207 211.875 94.3633V88.7969ZM214.805 101.57C214.805 102.133 215.016 102.414 215.438 102.414C215.555 102.414 215.773 102.332 216.094 102.168V104.277C215.867 104.504 215.469 104.617 214.898 104.617C213.273 104.617 212.461 103.602 212.461 101.57C212.461 99.3047 213.691 98.1719 216.152 98.1719C217.871 98.1719 219.113 98.6406 219.879 99.5781C220.637 100.516 221.27 101.199 221.777 101.629C222.285 102.059 223.008 102.273 223.945 102.273V104.617C222.773 104.617 221.855 104.363 221.191 103.855C220.527 103.348 219.855 102.664 219.176 101.805C218.488 100.945 217.48 100.516 216.152 100.516C215.254 100.516 214.805 100.867 214.805 101.57ZM240.117 84.1094C240.117 83.4688 239.727 82.8359 238.945 82.2109V81.1797C238.945 80.0078 239.688 79.4219 241.172 79.4219H243.633V81.7656H241.641V81.9062C242.578 82.5312 243.047 83.2656 243.047 84.1094V91.1406C243.047 95.0469 240.938 97 236.719 97C232.5 97 230.391 95.0469 230.391 91.1406V84.1094C230.391 83.4688 230 82.8359 229.219 82.2109V81.1797C229.219 80.0078 229.961 79.4219 231.445 79.4219H233.906V81.7656H231.914V81.9062C232.852 82.5312 233.32 83.2656 233.32 84.1094V91.1406C233.32 93.4844 234.453 94.6562 236.719 94.6562C238.984 94.6562 240.117 93.4844 240.117 91.1406V84.1094ZM259.805 89.8047C259.805 89.5781 259.727 89.4648 259.57 89.4648C259.414 89.4648 259.336 89.582 259.336 89.8164C259.336 90.1133 259.492 90.2773 259.805 90.3086V89.8047ZM259.922 91.8086V92.3125C259.922 95.4375 258.359 97 255.234 97C252.109 97 250.547 95.4375 250.547 92.3125V89.9688H253.477V92.3125C253.477 93.875 254.062 94.6562 255.234 94.6562C256.406 94.6562 256.992 93.875 256.992 92.3125V91.3398C251.602 89.3945 248.906 86.9844 248.906 84.1094C248.906 80.9844 251.016 79.4219 255.234 79.4219C259.453 79.4219 261.562 80.9844 261.562 84.1094C261.562 86.2891 260.32 87.3789 257.836 87.3789C257.156 87.3789 256.602 87.2188 256.172 86.8984V84.4023C257.125 84.6836 257.734 84.8242 258 84.8242C258.422 84.8242 258.633 84.5859 258.633 84.1094C258.633 82.5469 257.5 81.7656 255.234 81.7656C252.969 81.7656 251.836 82.5469 251.836 84.1094C251.836 86.5781 253.555 88.2305 256.992 89.0664C256.992 88.418 257.695 88.0938 259.102 88.0938C260.742 88.0938 261.562 88.582 261.562 89.5586C261.562 90.4414 261.402 91.0273 261.082 91.3164C260.77 91.6055 260.383 91.7695 259.922 91.8086Z" fill="#344054"/>
<path d="M76.9531 133.406H78.2812V140.438L80.8594 138.094L83.4375 140.438V133.406H84.7656V142H83.5938L80.8594 139.656L78.125 142H76.9531V133.406ZM78.2812 131.523C78.2812 131.737 79.1406 131.844 80.8594 131.844C82.5781 131.844 83.4375 131.323 83.4375 130.281V129.109H84.7656V130.281C84.7656 132.104 83.4635 133.016 80.8594 133.016C78.2552 133.016 76.9531 132.521 76.9531 131.531C76.9531 130.698 77.3854 130.281 78.25 130.281C78.7969 130.281 79.1719 130.357 79.375 130.508V131.523C79.0052 131.414 78.7318 131.359 78.5547 131.359C78.3724 131.359 78.2812 131.414 78.2812 131.523ZM84.7656 130.281H86.3281C88.4115 130.281 89.4531 131.323 89.4531 133.406V142H88.125V133.406C88.125 132.104 87.526 131.453 86.3281 131.453H84.7656V130.281ZM94.6875 142H93.3594V136.531C93.3594 133.927 94.6615 132.625 97.2656 132.625C99.8698 132.625 101.172 133.927 101.172 136.531V142H99.8438V136.531C99.8438 134.708 98.9844 133.797 97.2656 133.797C95.5469 133.797 94.6875 134.708 94.6875 136.531V142ZM101.172 130.281V131.453H93.3594V130.281H101.172ZM97.8516 124.422V127.938H96.6797V124.422H97.8516ZM106.25 139.656V140.828C106.359 140.828 106.451 140.799 106.523 140.742C106.602 140.68 106.641 140.513 106.641 140.242C106.641 139.971 106.602 139.807 106.523 139.75C106.451 139.688 106.359 139.656 106.25 139.656ZM105.078 132.625L107.109 130.281L108.984 131.844L110.859 130.281L112.891 132.625V142H111.562V132.938L110.781 131.961L108.984 133.25L107.188 131.961L106.406 132.938V138.562C106.526 138.51 106.664 138.484 106.82 138.484C106.977 138.484 107.141 138.625 107.312 138.906C107.49 139.182 107.578 139.628 107.578 140.242C107.578 140.857 107.464 141.305 107.234 141.586C107.01 141.862 106.708 142 106.328 142C105.948 142 105.646 141.859 105.422 141.578C105.245 141.365 105.135 141.049 105.094 140.633H105.078V132.625ZM112.891 130.281H114.453C116.536 130.281 117.578 131.323 117.578 133.406V142H116.25V133.406C116.25 132.104 115.651 131.453 114.453 131.453H112.891V130.281ZM122.812 142H121.484V136.531C121.484 133.927 122.786 132.625 125.391 132.625C127.995 132.625 129.297 133.927 129.297 136.531V142H127.969V136.531C127.969 134.708 127.109 133.797 125.391 133.797C123.672 133.797 122.812 134.708 122.812 136.531V142ZM129.297 130.281V131.453H121.484V130.281H129.297ZM133.984 133.406V143.953C133.984 146.036 132.982 147.078 130.977 147.078C128.971 147.078 127.969 146.036 127.969 143.953V142.781H129.297V143.953C129.297 145.255 129.857 145.906 130.977 145.906C132.096 145.906 132.656 145.255 132.656 143.953V133.406C132.656 133.042 132.396 132.651 131.875 132.234V131.453C131.875 130.672 132.266 130.281 133.047 130.281H134.375V131.453H133.438C133.177 131.453 133.047 131.583 133.047 131.844C133.672 132.26 133.984 132.781 133.984 133.406ZM145.703 130.281V131.453H137.891V130.281H145.703ZM139.219 139.266C139.609 138.484 140.234 138.094 141.094 138.094H141.797V139.344H141.094C140.234 139.344 139.609 139.734 139.219 140.516V142H137.891V136.531C137.891 133.927 139.193 132.625 141.797 132.625C144.401 132.625 145.703 133.927 145.703 136.531V142H144.375V136.531C144.375 134.708 143.516 133.797 141.797 133.797C140.078 133.797 139.219 134.708 139.219 136.531V139.266ZM157.422 137.234V138.875C157.422 140.958 156.693 142 155.234 142C154.161 142 153.367 141.674 152.852 141.023C152.336 140.372 151.698 140.047 150.938 140.047V142H149.609V137.312H150.938V138.875C151.849 138.875 152.589 139.201 153.156 139.852C153.729 140.503 154.31 140.828 154.898 140.828C155.695 140.828 156.094 140.177 156.094 138.875V138.094C151.771 137.156 149.609 135.594 149.609 133.406C149.609 131.323 150.911 130.281 153.516 130.281C156.12 130.281 157.422 131.323 157.422 133.406C157.422 134.859 156.698 135.586 155.25 135.586C154.922 135.586 154.656 135.51 154.453 135.359V134.188C154.823 134.297 155.125 134.352 155.359 134.352C155.849 134.352 156.094 134.036 156.094 133.406C156.094 132.104 155.234 131.453 153.516 131.453C151.797 131.453 150.938 132.104 150.938 133.406C150.938 134.969 153.099 136.245 157.422 137.234ZM151.172 145.047C151.172 145.839 151.339 146.234 151.672 146.234C151.854 146.234 152.104 146.18 152.422 146.07V146.852C152.271 147.003 151.875 147.078 151.234 147.078C150.411 147.078 150 146.401 150 145.047C150 143.536 150.638 142.781 151.914 142.781C153.008 142.781 153.758 143.302 154.164 144.344C154.565 145.385 154.948 145.906 155.312 145.906C155.677 145.906 156.146 144.865 156.719 142.781L157.812 143.094C157.161 145.75 156.375 147.078 155.453 147.078C154.578 147.078 153.94 146.557 153.539 145.516C153.133 144.474 152.591 143.953 151.914 143.953C151.419 143.953 151.172 144.318 151.172 145.047ZM156.172 124.578C156.083 124.578 156.008 124.607 155.945 124.664C155.888 124.716 155.859 124.792 155.859 124.891C155.859 124.979 155.888 125.052 155.945 125.109C156.008 125.172 156.083 125.203 156.172 125.203C156.271 125.203 156.346 125.172 156.398 125.109C156.456 125.052 156.484 124.979 156.484 124.891C156.484 124.792 156.456 124.716 156.398 124.664C156.346 124.607 156.271 124.578 156.172 124.578ZM152.734 126.922H156.25C154.953 126.036 153.911 125.594 153.125 125.594C152.083 125.594 151.562 125.815 151.562 126.258C151.562 126.701 151.953 126.922 152.734 126.922ZM154.922 124.797C154.943 124.458 155.055 124.188 155.258 123.984C155.487 123.755 155.792 123.641 156.172 123.641C156.552 123.641 156.857 123.755 157.086 123.984C157.31 124.208 157.422 124.51 157.422 124.891C157.422 125.271 157.31 125.573 157.086 125.797C156.982 125.901 156.865 125.982 156.734 126.039C157.193 126.445 157.422 126.74 157.422 126.922V127.938H152.344C151.042 127.938 150.391 127.417 150.391 126.375C150.391 125.073 151.302 124.422 153.125 124.422C153.75 124.422 154.349 124.547 154.922 124.797ZM162.5 132.43C162.5 132.622 162.549 132.768 162.648 132.867C162.747 132.966 162.893 133.016 163.086 133.016C163.284 133.016 163.43 132.966 163.523 132.867C163.622 132.768 163.672 132.622 163.672 132.43C163.672 132.232 163.622 132.086 163.523 131.992C163.43 131.893 163.284 131.844 163.086 131.844C162.893 131.844 162.747 131.893 162.648 131.992C162.549 132.086 162.5 132.232 162.5 132.43ZM164.844 132.43C164.844 133.018 164.698 133.458 164.406 133.75C164.115 134.042 163.674 134.188 163.086 134.188C162.497 134.188 162.057 134.042 161.766 133.75C161.474 133.458 161.328 133.018 161.328 132.43C161.328 131.841 161.474 131.401 161.766 131.109C162.057 130.818 162.497 130.672 163.086 130.672C163.674 130.672 164.115 130.818 164.406 131.109C164.698 131.401 164.844 131.841 164.844 132.43ZM162.5 139.852C162.5 140.044 162.549 140.19 162.648 140.289C162.747 140.388 162.893 140.438 163.086 140.438C163.284 140.438 163.43 140.388 163.523 140.289C163.622 140.19 163.672 140.044 163.672 139.852C163.672 139.654 163.622 139.508 163.523 139.414C163.43 139.315 163.284 139.266 163.086 139.266C162.893 139.266 162.747 139.315 162.648 139.414C162.549 139.508 162.5 139.654 162.5 139.852ZM164.844 139.852C164.844 140.44 164.698 140.88 164.406 141.172C164.115 141.464 163.674 141.609 163.086 141.609C162.497 141.609 162.057 141.464 161.766 141.172C161.474 140.88 161.328 140.44 161.328 139.852C161.328 139.263 161.474 138.823 161.766 138.531C162.057 138.24 162.497 138.094 163.086 138.094C163.674 138.094 164.115 138.24 164.406 138.531C164.698 138.823 164.844 139.263 164.844 139.852ZM168.75 137.234C173.073 136.505 175.234 135.229 175.234 133.406C175.234 132.104 174.375 131.453 172.656 131.453C170.938 131.453 170.078 132.104 170.078 133.406C170.078 134.036 170.323 134.352 170.812 134.352C171.047 134.352 171.349 134.297 171.719 134.188V135.359C171.516 135.51 171.25 135.586 170.922 135.586C169.474 135.586 168.75 134.859 168.75 133.406C168.75 131.323 170.052 130.281 172.656 130.281C175.26 130.281 176.562 131.323 176.562 133.406C176.562 135.594 174.401 137.156 170.078 138.094V138.875C170.078 140.177 170.938 140.828 172.656 140.828C174.375 140.828 175.234 140.177 175.234 138.875C175.234 138.094 174.87 137.547 174.141 137.234L175.312 136.609C176.146 137.078 176.562 137.833 176.562 138.875C176.562 140.958 175.26 142 172.656 142C170.052 142 168.75 140.958 168.75 138.875V137.234ZM170.312 145.047C170.312 145.839 170.479 146.234 170.812 146.234C170.995 146.234 171.245 146.18 171.562 146.07V146.852C171.411 147.003 171.016 147.078 170.375 147.078C169.552 147.078 169.141 146.401 169.141 145.047C169.141 143.536 169.779 142.781 171.055 142.781C172.148 142.781 172.898 143.302 173.305 144.344C173.706 145.385 174.089 145.906 174.453 145.906C174.818 145.906 175.286 144.865 175.859 142.781L176.953 143.094C176.302 145.75 175.516 147.078 174.594 147.078C173.719 147.078 173.081 146.557 172.68 145.516C172.273 144.474 171.732 143.953 171.055 143.953C170.56 143.953 170.312 144.318 170.312 145.047ZM171.875 126.922H175.391C174.094 126.036 173.052 125.594 172.266 125.594C171.224 125.594 170.703 125.815 170.703 126.258C170.703 126.701 171.094 126.922 171.875 126.922ZM175.391 125.633V123.641H176.562V127.938H171.484C170.182 127.938 169.531 127.417 169.531 126.375C169.531 125.073 170.443 124.422 172.266 124.422C173.307 124.422 174.284 124.773 175.195 125.477C175.263 125.529 175.328 125.581 175.391 125.633ZM185.156 142C183.734 142 182.482 141.544 181.398 140.633L181.859 139.648C182.943 140.435 184.042 140.828 185.156 140.828C186.354 140.828 186.953 140.177 186.953 138.875V133.094L186.016 131.961L184.375 133.094L182.734 131.961L181.797 133.172V133.406C181.797 134.036 182.042 134.352 182.531 134.352C182.766 134.352 183.068 134.297 183.438 134.188V135.359C183.234 135.51 182.786 135.586 182.094 135.586C181.01 135.586 180.469 134.859 180.469 133.406V132.703L182.5 130.281L184.375 131.688L186.25 130.281L188.281 132.703V138.875C188.281 140.958 187.24 142 185.156 142ZM193.711 140.828C193.768 140.828 193.815 140.805 193.852 140.758C193.888 140.706 193.906 140.534 193.906 140.242C193.906 139.951 193.888 139.781 193.852 139.734C193.815 139.682 193.768 139.656 193.711 139.656H193.516V140.828H193.711ZM193.516 138.5C193.578 138.49 193.643 138.484 193.711 138.484C194.013 138.484 194.25 138.612 194.422 138.867C194.599 139.117 194.688 139.576 194.688 140.242C194.688 140.909 194.599 141.37 194.422 141.625C194.25 141.875 193.922 142 193.438 142C192.953 142 192.622 141.875 192.445 141.625C192.273 141.37 192.188 140.909 192.188 140.242V133.406C192.083 133.042 191.823 132.651 191.406 132.234V131.453C191.406 130.672 191.797 130.281 192.578 130.281H193.906V131.453H192.969C192.708 131.453 192.578 131.583 192.578 131.844C193.203 132.26 193.516 132.781 193.516 133.406V138.5ZM205.234 137.234V138.875C205.234 140.958 204.505 142 203.047 142C201.974 142 201.18 141.674 200.664 141.023C200.148 140.372 199.51 140.047 198.75 140.047V142H197.422V137.312H198.75V138.875C199.661 138.875 200.401 139.201 200.969 139.852C201.542 140.503 202.122 140.828 202.711 140.828C203.508 140.828 203.906 140.177 203.906 138.875V138.094C199.583 137.156 197.422 135.594 197.422 133.406C197.422 131.323 198.724 130.281 201.328 130.281C203.932 130.281 205.234 131.323 205.234 133.406C205.234 134.859 204.51 135.586 203.062 135.586C202.734 135.586 202.469 135.51 202.266 135.359V134.188C202.635 134.297 202.938 134.352 203.172 134.352C203.661 134.352 203.906 134.036 203.906 133.406C203.906 132.104 203.047 131.453 201.328 131.453C199.609 131.453 198.75 132.104 198.75 133.406C198.75 134.969 200.911 136.245 205.234 137.234ZM208.594 130.656V129.031C208.594 128.562 208.385 128.328 207.969 128.328H207.578V127.156H208.359C209.401 127.156 209.922 127.677 209.922 128.719V142H208.594V133.398C208.589 132.102 207.99 131.453 206.797 131.453H205.234V130.281H206.797C207.521 130.281 208.12 130.406 208.594 130.656ZM215.352 140.828C215.409 140.828 215.456 140.805 215.492 140.758C215.529 140.706 215.547 140.534 215.547 140.242C215.547 139.951 215.529 139.781 215.492 139.734C215.456 139.682 215.409 139.656 215.352 139.656H215.156V140.828H215.352ZM215.156 138.5C215.219 138.49 215.284 138.484 215.352 138.484C215.654 138.484 215.891 138.612 216.062 138.867C216.24 139.117 216.328 139.576 216.328 140.242C216.328 140.909 216.24 141.37 216.062 141.625C215.891 141.875 215.562 142 215.078 142C214.594 142 214.263 141.875 214.086 141.625C213.914 141.37 213.828 140.909 213.828 140.242V133.406C213.724 133.042 213.464 132.651 213.047 132.234V131.453C213.047 130.672 213.438 130.281 214.219 130.281H215.547V131.453H214.609C214.349 131.453 214.219 131.583 214.219 131.844C214.844 132.26 215.156 132.781 215.156 133.406V138.5ZM220.234 139.656V140.828C220.344 140.828 220.435 140.799 220.508 140.742C220.586 140.68 220.625 140.513 220.625 140.242C220.625 139.971 220.586 139.807 220.508 139.75C220.435 139.688 220.344 139.656 220.234 139.656ZM232.344 133.406V138.094C232.344 140.698 231.172 142 228.828 142C226.302 142 225.039 140.698 225.039 138.094V134.188C225.039 132.365 224.266 131.453 222.719 131.453C221.167 131.453 220.391 132.365 220.391 134.188V138.562C220.51 138.51 220.648 138.484 220.805 138.484C220.961 138.484 221.125 138.625 221.297 138.906C221.474 139.182 221.562 139.628 221.562 140.242C221.562 140.857 221.448 141.305 221.219 141.586C220.995 141.862 220.693 142 220.312 142C219.932 142 219.63 141.859 219.406 141.578C219.229 141.365 219.12 141.049 219.078 140.633H219.062V134.188C219.062 131.583 220.281 130.281 222.719 130.281C225.151 130.281 226.367 131.583 226.367 134.188V138.094C226.367 139.917 227.188 140.828 228.828 140.828C230.286 140.828 231.016 139.917 231.016 138.094V133.406C231.016 133.042 230.755 132.651 230.234 132.234V131.453C230.234 130.672 230.625 130.281 231.406 130.281H232.734V131.453H231.797C231.536 131.453 231.406 131.583 231.406 131.844C232.031 132.26 232.344 132.781 232.344 133.406ZM227.656 126.922H231.172C229.875 126.036 228.833 125.594 228.047 125.594C227.005 125.594 226.484 125.815 226.484 126.258C226.484 126.701 226.875 126.922 227.656 126.922ZM231.172 125.633V123.641H232.344V127.938H227.266C225.964 127.938 225.312 127.417 225.312 126.375C225.312 125.073 226.224 124.422 228.047 124.422C229.089 124.422 230.065 124.773 230.977 125.477C231.044 125.529 231.109 125.581 231.172 125.633ZM242.734 134.383C242.625 134.383 242.531 134.417 242.453 134.484C242.38 134.552 242.344 134.648 242.344 134.773C242.344 134.898 242.38 134.995 242.453 135.062C242.531 135.13 242.625 135.164 242.734 135.164V134.383ZM242.734 136.086C242.682 136.091 242.63 136.094 242.578 136.094C242.224 136.094 241.961 135.982 241.789 135.758C241.586 135.508 241.484 135.18 241.484 134.773C241.484 134.367 241.583 134.039 241.781 133.789C241.984 133.534 242.315 133.406 242.773 133.406C243.232 133.406 243.56 133.534 243.758 133.789C243.961 134.039 244.062 134.367 244.062 134.773V138.094C244.062 140.698 242.76 142 240.156 142C237.552 142 236.25 140.698 236.25 138.094V133.406C236.25 133.042 236.12 132.651 235.859 132.234V131.844C235.859 130.802 236.38 130.281 237.422 130.281H244.062V131.453H237.969C237.448 131.453 237.188 131.609 237.188 131.922C237.448 132.339 237.578 132.833 237.578 133.406V138.094C237.578 139.917 238.438 140.828 240.156 140.828C241.875 140.828 242.734 139.917 242.734 138.094V136.086ZM239.766 126.18C239.766 126.372 239.815 126.518 239.914 126.617C240.013 126.716 240.159 126.766 240.352 126.766C240.549 126.766 240.698 126.716 240.797 126.617C240.891 126.518 240.938 126.372 240.938 126.18C240.938 125.982 240.891 125.836 240.797 125.742C240.698 125.643 240.549 125.594 240.352 125.594C240.159 125.594 240.013 125.643 239.914 125.742C239.815 125.836 239.766 125.982 239.766 126.18ZM242.109 126.18C242.109 126.768 241.964 127.208 241.672 127.5C241.38 127.792 240.94 127.938 240.352 127.938C239.763 127.938 239.323 127.792 239.031 127.5C238.74 127.208 238.594 126.768 238.594 126.18C238.594 125.591 238.74 125.151 239.031 124.859C239.323 124.568 239.763 124.422 240.352 124.422C240.94 124.422 241.38 124.568 241.672 124.859C241.964 125.151 242.109 125.591 242.109 126.18ZM249.141 139.656V140.828C249.25 140.828 249.341 140.799 249.414 140.742C249.492 140.68 249.531 140.513 249.531 140.242C249.531 139.971 249.492 139.807 249.414 139.75C249.341 139.688 249.25 139.656 249.141 139.656ZM247.969 134.188C247.969 131.583 249.057 130.281 251.234 130.281C253.406 130.281 254.492 131.583 254.492 134.188V140.672L256.562 137.938L258.633 140.672V134.188C258.633 131.583 259.721 130.281 261.898 130.281C264.07 130.281 265.156 131.583 265.156 134.188V142H263.828V134.188C263.828 132.365 263.185 131.453 261.898 131.453C260.607 131.453 259.961 132.365 259.961 134.188V142H258.242L256.562 139.656L254.883 142H253.164V134.188C253.164 132.365 252.495 131.453 251.156 131.453C249.917 131.453 249.297 132.365 249.297 134.188V138.562C249.417 138.51 249.555 138.484 249.711 138.484C249.867 138.484 250.031 138.625 250.203 138.906C250.38 139.182 250.469 139.628 250.469 140.242C250.469 140.857 250.354 141.305 250.125 141.586C249.901 141.862 249.599 142 249.219 142C248.839 142 248.536 141.859 248.312 141.578C248.135 141.365 248.026 141.049 247.984 140.633H247.969V134.188ZM274.922 131.469C274.922 131.312 274.818 131.234 274.609 131.234C274.401 131.234 274.297 131.312 274.297 131.469C274.297 131.609 274.401 131.75 274.609 131.891C274.818 131.781 274.922 131.641 274.922 131.469ZM268.867 135.359C268.81 135.359 268.763 135.385 268.727 135.438C268.69 135.484 268.672 135.654 268.672 135.945C268.672 136.237 268.69 136.409 268.727 136.461C268.763 136.508 268.81 136.531 268.867 136.531H269.062V135.359H268.867ZM270.391 140.438L272.969 138.094L275.547 140.438V134.969C275.547 134.406 275.125 133.81 274.281 133.18C273.854 133.591 273.13 133.797 272.109 133.797C270.974 133.797 270.182 133.648 269.734 133.352C269.286 133.055 269.062 132.643 269.062 132.117C269.062 131.596 269.167 131.109 269.375 130.656C269.583 130.198 269.688 129.826 269.688 129.539C269.688 129.253 269.349 129.109 268.672 129.109V127.938C270.13 127.938 270.859 128.432 270.859 129.422C270.859 129.812 270.755 130.25 270.547 130.734C270.339 131.214 270.234 131.555 270.234 131.758C270.234 131.966 270.365 132.164 270.625 132.352C270.885 132.534 271.398 132.625 272.164 132.625C272.826 132.625 273.302 132.539 273.594 132.367C273.333 132.154 273.203 131.823 273.203 131.375C273.203 130.646 273.672 130.281 274.609 130.281C275.599 130.281 276.094 130.724 276.094 131.609C276.094 132.062 275.891 132.448 275.484 132.766C276.411 133.438 276.875 134.172 276.875 134.969V142H275.312L272.969 139.656L270.625 142H269.062V137.688C269 137.698 268.935 137.703 268.867 137.703C268.565 137.703 268.326 137.578 268.148 137.328C267.977 137.073 267.891 136.612 267.891 135.945C267.891 135.279 267.977 134.82 268.148 134.57C268.326 134.315 268.656 134.188 269.141 134.188C269.625 134.188 269.953 134.315 270.125 134.57C270.302 134.82 270.391 135.279 270.391 135.945V140.438ZM282.305 140.828C282.362 140.828 282.409 140.805 282.445 140.758C282.482 140.706 282.5 140.534 282.5 140.242C282.5 139.951 282.482 139.781 282.445 139.734C282.409 139.682 282.362 139.656 282.305 139.656H282.109V140.828H282.305ZM282.109 138.5C282.172 138.49 282.237 138.484 282.305 138.484C282.607 138.484 282.844 138.612 283.016 138.867C283.193 139.117 283.281 139.576 283.281 140.242C283.281 140.909 283.193 141.37 283.016 141.625C282.844 141.875 282.516 142 282.031 142C281.547 142 281.216 141.875 281.039 141.625C280.867 141.37 280.781 140.909 280.781 140.242V133.406C280.677 133.042 280.417 132.651 280 132.234V131.453C280 130.672 280.391 130.281 281.172 130.281H282.5V131.453H281.562C281.302 131.453 281.172 131.583 281.172 131.844C281.797 132.26 282.109 132.781 282.109 133.406V138.5ZM286.016 133.406C286.016 133.042 285.885 132.651 285.625 132.234V131.844C285.625 130.802 286.146 130.281 287.188 130.281H289.531L291.328 131.453H291.953C292.318 131.453 292.5 131.271 292.5 130.906V129.109H293.828V130.906C293.828 132.052 293.385 132.625 292.5 132.625H291.094L289.297 131.453H287.734C287.214 131.453 286.953 131.609 286.953 131.922C287.214 132.339 287.344 132.833 287.344 133.406V140.438L289.922 138.25L292.5 140.438V133.406H293.828V142H292.656L289.922 139.656L287.188 142H286.016V133.406ZM289.141 126.922H292.656C291.359 126.036 290.318 125.594 289.531 125.594C288.49 125.594 287.969 125.815 287.969 126.258C287.969 126.701 288.359 126.922 289.141 126.922ZM292.656 125.633V123.641H293.828V127.938H288.75C287.448 127.938 286.797 127.417 286.797 126.375C286.797 125.073 287.708 124.422 289.531 124.422C290.573 124.422 291.549 124.773 292.461 125.477C292.529 125.529 292.594 125.581 292.656 125.633ZM303.594 131.469C303.594 131.312 303.49 131.234 303.281 131.234C303.073 131.234 302.969 131.312 302.969 131.469C302.969 131.609 303.073 131.75 303.281 131.891C303.49 131.781 303.594 131.641 303.594 131.469ZM297.539 135.359C297.482 135.359 297.435 135.385 297.398 135.438C297.362 135.484 297.344 135.654 297.344 135.945C297.344 136.237 297.362 136.409 297.398 136.461C297.435 136.508 297.482 136.531 297.539 136.531H297.734V135.359H297.539ZM299.062 140.438L301.641 138.094L304.219 140.438V134.969C304.219 134.406 303.797 133.81 302.953 133.18C302.526 133.591 301.802 133.797 300.781 133.797C299.646 133.797 298.854 133.648 298.406 133.352C297.958 133.055 297.734 132.643 297.734 132.117C297.734 131.596 297.839 131.109 298.047 130.656C298.255 130.198 298.359 129.826 298.359 129.539C298.359 129.253 298.021 129.109 297.344 129.109V127.938C298.802 127.938 299.531 128.432 299.531 129.422C299.531 129.812 299.427 130.25 299.219 130.734C299.01 131.214 298.906 131.555 298.906 131.758C298.906 131.966 299.036 132.164 299.297 132.352C299.557 132.534 300.07 132.625 300.836 132.625C301.497 132.625 301.974 132.539 302.266 132.367C302.005 132.154 301.875 131.823 301.875 131.375C301.875 130.646 302.344 130.281 303.281 130.281C304.271 130.281 304.766 130.724 304.766 131.609C304.766 132.062 304.562 132.448 304.156 132.766C305.083 133.438 305.547 134.172 305.547 134.969V142H303.984L301.641 139.656L299.297 142H297.734V137.688C297.672 137.698 297.607 137.703 297.539 137.703C297.237 137.703 296.997 137.578 296.82 137.328C296.648 137.073 296.562 136.612 296.562 135.945C296.562 135.279 296.648 134.82 296.82 134.57C296.997 134.315 297.328 134.188 297.812 134.188C298.297 134.188 298.625 134.315 298.797 134.57C298.974 134.82 299.062 135.279 299.062 135.945V140.438ZM310.781 142H309.453V136.531C309.453 133.927 310.755 132.625 313.359 132.625C315.964 132.625 317.266 133.927 317.266 136.531V142H315.938V136.531C315.938 134.708 315.078 133.797 313.359 133.797C311.641 133.797 310.781 134.708 310.781 136.531V142ZM317.266 130.281V131.453H309.453V130.281H317.266ZM317.266 130.281H318.828C320.911 130.281 321.953 131.323 321.953 133.406V142H320.625V133.406C320.625 132.104 320.026 131.453 318.828 131.453H317.266V130.281ZM327.031 139.656V140.828C327.141 140.828 327.232 140.799 327.305 140.742C327.383 140.68 327.422 140.513 327.422 140.242C327.422 139.971 327.383 139.807 327.305 139.75C327.232 139.688 327.141 139.656 327.031 139.656ZM333.672 130.281V131.453H325.859V130.281H333.672ZM325.859 136.531C325.859 133.927 327.161 132.625 329.766 132.625C332.37 132.625 333.672 133.927 333.672 136.531V142H332.344V136.531C332.344 134.708 331.484 133.797 329.766 133.797C328.047 133.797 327.188 134.708 327.188 136.531V138.562C327.307 138.51 327.445 138.484 327.602 138.484C327.758 138.484 327.922 138.625 328.094 138.906C328.271 139.182 328.359 139.628 328.359 140.242C328.359 140.857 328.245 141.305 328.016 141.586C327.792 141.862 327.49 142 327.109 142C326.729 142 326.427 141.859 326.203 141.578C326.026 141.365 325.917 141.049 325.875 140.633H325.859V136.531ZM339.102 140.828C339.159 140.828 339.206 140.805 339.242 140.758C339.279 140.706 339.297 140.534 339.297 140.242C339.297 139.951 339.279 139.781 339.242 139.734C339.206 139.682 339.159 139.656 339.102 139.656H338.906V140.828H339.102ZM338.906 138.5C338.969 138.49 339.034 138.484 339.102 138.484C339.404 138.484 339.641 138.612 339.812 138.867C339.99 139.117 340.078 139.576 340.078 140.242C340.078 140.909 339.99 141.37 339.812 141.625C339.641 141.875 339.312 142 338.828 142C338.344 142 338.013 141.875 337.836 141.625C337.664 141.37 337.578 140.909 337.578 140.242V133.406C337.474 133.042 337.214 132.651 336.797 132.234V131.453C336.797 130.672 337.188 130.281 337.969 130.281H339.297V131.453H338.359C338.099 131.453 337.969 131.583 337.969 131.844C338.594 132.26 338.906 132.781 338.906 133.406V138.5ZM342.812 133.406H344.141V140.438L346.719 138.094L349.297 140.438V133.406H350.625V142H349.453L346.719 139.656L343.984 142H342.812V133.406ZM344.141 131.523C344.141 131.737 345 131.844 346.719 131.844C348.438 131.844 349.297 131.323 349.297 130.281V129.109H350.625V130.281C350.625 132.104 349.323 133.016 346.719 133.016C344.115 133.016 342.812 132.521 342.812 131.531C342.812 130.698 343.245 130.281 344.109 130.281C344.656 130.281 345.031 130.357 345.234 130.508V131.523C344.865 131.414 344.591 131.359 344.414 131.359C344.232 131.359 344.141 131.414 344.141 131.523ZM345.938 126.922H349.453C348.156 126.036 347.115 125.594 346.328 125.594C345.286 125.594 344.766 125.815 344.766 126.258C344.766 126.701 345.156 126.922 345.938 126.922ZM349.453 125.633V123.641H350.625V127.938H345.547C344.245 127.938 343.594 127.417 343.594 126.375C343.594 125.073 344.505 124.422 346.328 124.422C347.37 124.422 348.346 124.773 349.258 125.477C349.326 125.529 349.391 125.581 349.453 125.633ZM355.859 136.531V138.094C355.859 139.917 356.719 140.828 358.438 140.828C360.156 140.828 361.016 139.917 361.016 138.094V136.531H355.859ZM355.859 135.359H361.016V133.406C361.016 133.042 360.755 132.651 360.234 132.234V131.453C360.234 130.672 360.625 130.281 361.406 130.281H362.734V131.453H361.797C361.536 131.453 361.406 131.583 361.406 131.844C362.031 132.26 362.344 132.781 362.344 133.406V138.094C362.344 140.698 361.042 142 358.438 142C355.833 142 354.531 140.698 354.531 138.094V133.406C354.531 133.042 354.271 132.651 353.75 132.234V131.453C353.75 130.672 354.141 130.281 354.922 130.281H356.25V131.453H355.312C355.052 131.453 354.922 131.583 354.922 131.844C355.547 132.26 355.859 132.781 355.859 133.406V135.359ZM367.031 133.406V147.078H365.312L364.023 145.516L362.734 147.078H361.016V142.781H362.344V145.75L364.023 143.797L365.703 145.75V133.406C365.703 133.042 365.443 132.651 364.922 132.234V131.453C364.922 130.672 365.312 130.281 366.094 130.281H367.422V131.453H366.484C366.224 131.453 366.094 131.583 366.094 131.844C366.719 132.26 367.031 132.781 367.031 133.406ZM362.344 126.922H365.859C364.562 126.036 363.521 125.594 362.734 125.594C361.693 125.594 361.172 125.815 361.172 126.258C361.172 126.701 361.562 126.922 362.344 126.922ZM365.859 125.633V123.641H367.031V127.938H361.953C360.651 127.938 360 127.417 360 126.375C360 125.073 360.911 124.422 362.734 124.422C363.776 124.422 364.753 124.773 365.664 125.477C365.732 125.529 365.797 125.581 365.859 125.633ZM372.109 139.656V140.828C372.219 140.828 372.31 140.799 372.383 140.742C372.461 140.68 372.5 140.513 372.5 140.242C372.5 139.971 372.461 139.807 372.383 139.75C372.31 139.688 372.219 139.656 372.109 139.656ZM378.75 130.281V131.453H370.938V130.281H378.75ZM370.938 136.531C370.938 133.927 372.24 132.625 374.844 132.625C377.448 132.625 378.75 133.927 378.75 136.531V142H377.422V136.531C377.422 134.708 376.562 133.797 374.844 133.797C373.125 133.797 372.266 134.708 372.266 136.531V138.562C372.385 138.51 372.523 138.484 372.68 138.484C372.836 138.484 373 138.625 373.172 138.906C373.349 139.182 373.438 139.628 373.438 140.242C373.438 140.857 373.323 141.305 373.094 141.586C372.87 141.862 372.568 142 372.188 142C371.807 142 371.505 141.859 371.281 141.578C371.104 141.365 370.995 141.049 370.953 140.633H370.938V136.531ZM374.453 126.18C374.453 126.372 374.503 126.518 374.602 126.617C374.701 126.716 374.846 126.766 375.039 126.766C375.237 126.766 375.385 126.716 375.484 126.617C375.578 126.518 375.625 126.372 375.625 126.18C375.625 125.982 375.578 125.836 375.484 125.742C375.385 125.643 375.237 125.594 375.039 125.594C374.846 125.594 374.701 125.643 374.602 125.742C374.503 125.836 374.453 125.982 374.453 126.18ZM376.797 126.18C376.797 126.768 376.651 127.208 376.359 127.5C376.068 127.792 375.628 127.938 375.039 127.938C374.451 127.938 374.01 127.792 373.719 127.5C373.427 127.208 373.281 126.768 373.281 126.18C373.281 125.591 373.427 125.151 373.719 124.859C374.01 124.568 374.451 124.422 375.039 124.422C375.628 124.422 376.068 124.568 376.359 124.859C376.651 125.151 376.797 125.591 376.797 126.18ZM383.828 139.656V140.828C383.938 140.828 384.029 140.799 384.102 140.742C384.18 140.68 384.219 140.513 384.219 140.242C384.219 139.971 384.18 139.807 384.102 139.75C384.029 139.688 383.938 139.656 383.828 139.656ZM382.656 134.188C382.656 131.583 383.745 130.281 385.922 130.281C388.094 130.281 389.18 131.583 389.18 134.188V140.672L391.25 137.938L393.32 140.672V134.188C393.32 131.583 394.409 130.281 396.586 130.281C398.758 130.281 399.844 131.583 399.844 134.188V142H398.516V134.188C398.516 132.365 397.872 131.453 396.586 131.453C395.294 131.453 394.648 132.365 394.648 134.188V142H392.93L391.25 139.656L389.57 142H387.852V134.188C387.852 132.365 387.182 131.453 385.844 131.453C384.604 131.453 383.984 132.365 383.984 134.188V138.562C384.104 138.51 384.242 138.484 384.398 138.484C384.555 138.484 384.719 138.625 384.891 138.906C385.068 139.182 385.156 139.628 385.156 140.242C385.156 140.857 385.042 141.305 384.812 141.586C384.589 141.862 384.286 142 383.906 142C383.526 142 383.224 141.859 383 141.578C382.823 141.365 382.714 141.049 382.672 140.633H382.656V134.188ZM399.844 130.281H401.406C403.49 130.281 404.531 131.323 404.531 133.406V142H403.203V133.406C403.203 132.104 402.604 131.453 401.406 131.453H399.844V130.281ZM414.297 131.469C414.297 131.312 414.193 131.234 413.984 131.234C413.776 131.234 413.672 131.312 413.672 131.469C413.672 131.609 413.776 131.75 413.984 131.891C414.193 131.781 414.297 131.641 414.297 131.469ZM408.242 135.359C408.185 135.359 408.138 135.385 408.102 135.438C408.065 135.484 408.047 135.654 408.047 135.945C408.047 136.237 408.065 136.409 408.102 136.461C408.138 136.508 408.185 136.531 408.242 136.531H408.438V135.359H408.242ZM409.766 140.438L412.344 138.094L414.922 140.438V134.969C414.922 134.406 414.5 133.81 413.656 133.18C413.229 133.591 412.505 133.797 411.484 133.797C410.349 133.797 409.557 133.648 409.109 133.352C408.661 133.055 408.438 132.643 408.438 132.117C408.438 131.596 408.542 131.109 408.75 130.656C408.958 130.198 409.062 129.826 409.062 129.539C409.062 129.253 408.724 129.109 408.047 129.109V127.938C409.505 127.938 410.234 128.432 410.234 129.422C410.234 129.812 410.13 130.25 409.922 130.734C409.714 131.214 409.609 131.555 409.609 131.758C409.609 131.966 409.74 132.164 410 132.352C410.26 132.534 410.773 132.625 411.539 132.625C412.201 132.625 412.677 132.539 412.969 132.367C412.708 132.154 412.578 131.823 412.578 131.375C412.578 130.646 413.047 130.281 413.984 130.281C414.974 130.281 415.469 130.724 415.469 131.609C415.469 132.062 415.266 132.448 414.859 132.766C415.786 133.438 416.25 134.172 416.25 134.969V142H414.688L412.344 139.656L410 142H408.438V137.688C408.375 137.698 408.31 137.703 408.242 137.703C407.94 137.703 407.701 137.578 407.523 137.328C407.352 137.073 407.266 136.612 407.266 135.945C407.266 135.279 407.352 134.82 407.523 134.57C407.701 134.315 408.031 134.188 408.516 134.188C409 134.188 409.328 134.315 409.5 134.57C409.677 134.82 409.766 135.279 409.766 135.945V140.438ZM427.969 138.836C427.969 140.945 426.667 142 424.062 142C421.458 142 420.156 140.698 420.156 138.094V134.188C420.156 131.583 421.458 130.281 424.062 130.281C426.667 130.281 427.969 131.062 427.969 132.625H426.641C426.641 131.844 425.781 131.453 424.062 131.453C422.344 131.453 421.484 132.365 421.484 134.188V138.094C421.484 139.917 422.344 140.828 424.062 140.828C425.781 140.828 426.641 140.164 426.641 138.836H426.68C426.68 137.924 426.341 137.469 425.664 137.469H424.961V136.297H425.664C426.341 136.297 426.68 136.003 426.68 135.414C426.68 134.831 426.341 134.539 425.664 134.539H425.039V133.367H425.664C427.227 133.367 428.008 134.018 428.008 135.32C428.008 136.065 427.75 136.599 427.234 136.922C427.75 137.302 428.008 137.94 428.008 138.836H427.969ZM432.656 133.406V143.953C432.656 146.036 431.654 147.078 429.648 147.078C427.643 147.078 426.641 146.036 426.641 143.953V142.781H427.969V143.953C427.969 145.255 428.529 145.906 429.648 145.906C430.768 145.906 431.328 145.255 431.328 143.953V133.406C431.328 133.042 431.068 132.651 430.547 132.234V131.453C430.547 130.672 430.938 130.281 431.719 130.281H433.047V131.453H432.109C431.849 131.453 431.719 131.583 431.719 131.844C432.344 132.26 432.656 132.781 432.656 133.406ZM76.9531 172.828V171.656H76.7578C76.7005 171.656 76.6536 171.682 76.6172 171.734C76.5807 171.781 76.5625 171.951 76.5625 172.242C76.5625 172.534 76.5807 172.706 76.6172 172.758C76.6536 172.805 76.7005 172.828 76.7578 172.828H76.9531ZM83.4375 172.828V171.656H83.2422C83.1849 171.656 83.138 171.682 83.1016 171.734C83.0651 171.781 83.0469 171.951 83.0469 172.242C83.0469 172.534 83.0651 172.706 83.1016 172.758C83.138 172.805 83.1849 172.828 83.2422 172.828H83.4375ZM78.2812 168.531V172.242C78.2812 172.909 78.1927 173.37 78.0156 173.625C77.8438 173.875 77.5156 174 77.0312 174C76.5469 174 76.2161 173.875 76.0391 173.625C75.8672 173.37 75.7812 172.909 75.7812 172.242C75.7812 171.576 75.8672 171.117 76.0391 170.867C76.2161 170.612 76.4557 170.484 76.7578 170.484C76.8255 170.484 76.8906 170.49 76.9531 170.5V165.406C76.849 165.042 76.5885 164.651 76.1719 164.234V163.453C76.1719 162.672 76.5625 162.281 77.3438 162.281H78.6719V163.453H77.7344C77.474 163.453 77.3438 163.583 77.3438 163.844C77.9688 164.26 78.2812 164.781 78.2812 165.406V167.359H83.4375V165.406C83.3333 165.042 83.0729 164.651 82.6562 164.234V163.453C82.6562 162.672 83.0469 162.281 83.8281 162.281H85.1562V163.453H84.2188C83.9583 163.453 83.8281 163.583 83.8281 163.844C84.4531 164.26 84.7656 164.781 84.7656 165.406V172.242C84.7656 172.909 84.6771 173.37 84.5 173.625C84.3281 173.875 84 174 83.5156 174C83.0312 174 82.7005 173.875 82.5234 173.625C82.3516 173.37 82.2656 172.909 82.2656 172.242C82.2656 171.576 82.3516 171.117 82.5234 170.867C82.7005 170.612 82.9401 170.484 83.2422 170.484C83.3099 170.484 83.375 170.49 83.4375 170.5V168.531H78.2812ZM89.8438 171.656V172.828C89.9531 172.828 90.0443 172.799 90.1172 172.742C90.1953 172.68 90.2344 172.513 90.2344 172.242C90.2344 171.971 90.1953 171.807 90.1172 171.75C90.0443 171.688 89.9531 171.656 89.8438 171.656ZM96.4844 162.281V163.453H88.6719V162.281H96.4844ZM88.6719 168.531C88.6719 165.927 89.974 164.625 92.5781 164.625C95.1823 164.625 96.4844 165.927 96.4844 168.531V174H95.1562V168.531C95.1562 166.708 94.2969 165.797 92.5781 165.797C90.8594 165.797 90 166.708 90 168.531V170.562C90.1198 170.51 90.2578 170.484 90.4141 170.484C90.5703 170.484 90.7344 170.625 90.9062 170.906C91.0833 171.182 91.1719 171.628 91.1719 172.242C91.1719 172.857 91.0573 173.305 90.8281 173.586C90.6042 173.862 90.3021 174 89.9219 174C89.5417 174 89.2396 173.859 89.0156 173.578C88.8385 173.365 88.7292 173.049 88.6875 172.633H88.6719V168.531ZM90.2344 177.047C90.2344 177.682 90.401 178 90.7344 178C90.9167 178 91.1667 177.945 91.4844 177.836V178.852C91.3333 179.003 91.0677 179.078 90.6875 179.078C89.6042 179.078 89.0625 178.401 89.0625 177.047C89.0625 175.536 89.7786 174.781 91.2109 174.781C92.1484 174.781 92.8724 175.172 93.3828 175.953C93.888 176.734 94.3099 177.255 94.6484 177.516C94.987 177.776 95.4688 177.906 96.0938 177.906V179.078C95.3125 179.078 94.7005 178.909 94.2578 178.57C93.8151 178.232 93.3672 177.711 92.9141 177.008C92.4557 176.305 91.888 175.953 91.2109 175.953C90.5599 175.953 90.2344 176.318 90.2344 177.047ZM108.203 169.234V170.875C108.203 172.958 107.474 174 106.016 174C104.943 174 104.148 173.674 103.633 173.023C103.117 172.372 102.479 172.047 101.719 172.047V174H100.391V169.312H101.719V170.875C102.63 170.875 103.37 171.201 103.938 171.852C104.51 172.503 105.091 172.828 105.68 172.828C106.477 172.828 106.875 172.177 106.875 170.875V170.094C102.552 169.156 100.391 167.594 100.391 165.406C100.391 163.323 101.693 162.281 104.297 162.281C106.901 162.281 108.203 163.323 108.203 165.406C108.203 166.859 107.479 167.586 106.031 167.586C105.703 167.586 105.438 167.51 105.234 167.359V166.188C105.604 166.297 105.906 166.352 106.141 166.352C106.63 166.352 106.875 166.036 106.875 165.406C106.875 164.104 106.016 163.453 104.297 163.453C102.578 163.453 101.719 164.104 101.719 165.406C101.719 166.969 103.88 168.245 108.203 169.234ZM105.078 158.258C105.078 158.596 105.534 158.766 106.445 158.766C107.617 158.766 108.203 158.115 108.203 156.812V155.797H109.375V156.812C109.375 158.896 108.398 159.938 106.445 159.938C104.753 159.938 103.906 159.378 103.906 158.258C103.906 157.294 104.318 156.812 105.141 156.812C105.625 156.812 105.995 156.888 106.25 157.039L106.016 157.977C105.802 157.867 105.607 157.812 105.43 157.812C105.195 157.812 105.078 157.961 105.078 158.258ZM113.438 164.039C113.547 164.039 113.638 164.005 113.711 163.938C113.789 163.87 113.828 163.773 113.828 163.648C113.828 163.523 113.789 163.427 113.711 163.359C113.638 163.292 113.547 163.258 113.438 163.258V164.039ZM124.062 165.406C124.062 165.042 123.802 164.651 123.281 164.234V163.453C123.281 162.672 123.672 162.281 124.453 162.281H125.781V163.453H124.844C124.583 163.453 124.453 163.583 124.453 163.844C125.078 164.26 125.391 164.781 125.391 165.406V170.094C125.391 172.698 124.219 174 121.875 174C120.312 174 119.271 173.422 118.75 172.266C118.229 173.422 117.188 174 115.625 174C113.281 174 112.109 172.698 112.109 170.094V163.648C112.109 163.242 112.208 162.914 112.406 162.664C112.609 162.409 112.94 162.281 113.398 162.281C113.857 162.281 114.185 162.409 114.383 162.664C114.586 162.914 114.688 163.242 114.688 163.648C114.688 164.055 114.586 164.383 114.383 164.633C114.211 164.857 113.948 164.969 113.594 164.969C113.542 164.969 113.49 164.966 113.438 164.961V170.094C113.438 171.917 114.167 172.828 115.625 172.828C117.266 172.828 118.086 171.917 118.086 170.094V165.406C118.086 165.042 117.826 164.651 117.305 164.234V163.453C117.305 162.672 117.695 162.281 118.477 162.281H119.805V163.453H118.867C118.607 163.453 118.477 163.583 118.477 163.844C119.102 164.26 119.414 164.781 119.414 165.406V170.094C119.414 171.917 120.234 172.828 121.875 172.828C123.333 172.828 124.062 171.917 124.062 170.094V165.406ZM129.297 172.828V171.656H129.102C129.044 171.656 128.997 171.682 128.961 171.734C128.924 171.781 128.906 171.951 128.906 172.242C128.906 172.534 128.924 172.706 128.961 172.758C128.997 172.805 129.044 172.828 129.102 172.828H129.297ZM130.625 165.406V172.242C130.625 172.909 130.536 173.37 130.359 173.625C130.188 173.875 129.859 174 129.375 174C128.891 174 128.56 173.875 128.383 173.625C128.211 173.37 128.125 172.909 128.125 172.242C128.125 171.576 128.211 171.117 128.383 170.867C128.56 170.612 128.799 170.484 129.102 170.484C129.169 170.484 129.234 170.49 129.297 170.5V165.406C129.193 165.042 128.932 164.651 128.516 164.234V163.453C128.516 162.672 128.906 162.281 129.688 162.281H131.016V163.453H130.078C129.818 163.453 129.688 163.583 129.688 163.844C130.312 164.26 130.625 164.781 130.625 165.406ZM129.297 177.75V174.781H130.625V179.078H129.297L128.281 178.062L127.266 179.078H125.938V174.781H127.266V177.75L128.281 176.734L129.297 177.75ZM135.859 168.531V170.094C135.859 171.917 136.719 172.828 138.438 172.828C140.156 172.828 141.016 171.917 141.016 170.094V168.531H135.859ZM135.859 167.359H141.016V165.406C141.016 165.042 140.755 164.651 140.234 164.234V163.453C140.234 162.672 140.625 162.281 141.406 162.281H142.734V163.453H141.797C141.536 163.453 141.406 163.583 141.406 163.844C142.031 164.26 142.344 164.781 142.344 165.406V170.094C142.344 172.698 141.042 174 138.438 174C135.833 174 134.531 172.698 134.531 170.094V165.406C134.531 165.042 134.271 164.651 133.75 164.234V163.453C133.75 162.672 134.141 162.281 134.922 162.281H136.25V163.453H135.312C135.052 163.453 134.922 163.583 134.922 163.844C135.547 164.26 135.859 164.781 135.859 165.406V167.359ZM147.773 172.828C147.831 172.828 147.878 172.805 147.914 172.758C147.951 172.706 147.969 172.534 147.969 172.242C147.969 171.951 147.951 171.781 147.914 171.734C147.878 171.682 147.831 171.656 147.773 171.656H147.578V172.828H147.773ZM147.578 170.5C147.641 170.49 147.706 170.484 147.773 170.484C148.076 170.484 148.312 170.612 148.484 170.867C148.661 171.117 148.75 171.576 148.75 172.242C148.75 172.909 148.661 173.37 148.484 173.625C148.312 173.875 147.984 174 147.5 174C147.016 174 146.685 173.875 146.508 173.625C146.336 173.37 146.25 172.909 146.25 172.242V165.406C146.146 165.042 145.885 164.651 145.469 164.234V163.453C145.469 162.672 145.859 162.281 146.641 162.281H147.969V163.453H147.031C146.771 163.453 146.641 163.583 146.641 163.844C147.266 164.26 147.578 164.781 147.578 165.406V170.5ZM159.297 169.234V170.875C159.297 172.958 158.568 174 157.109 174C156.036 174 155.242 173.674 154.727 173.023C154.211 172.372 153.573 172.047 152.812 172.047V174H151.484V169.312H152.812V170.875C153.724 170.875 154.464 171.201 155.031 171.852C155.604 172.503 156.185 172.828 156.773 172.828C157.57 172.828 157.969 172.177 157.969 170.875V170.094C153.646 169.156 151.484 167.594 151.484 165.406C151.484 163.323 152.786 162.281 155.391 162.281C157.995 162.281 159.297 163.323 159.297 165.406C159.297 166.859 158.573 167.586 157.125 167.586C156.797 167.586 156.531 167.51 156.328 167.359V166.188C156.698 166.297 157 166.352 157.234 166.352C157.724 166.352 157.969 166.036 157.969 165.406C157.969 164.104 157.109 163.453 155.391 163.453C153.672 163.453 152.812 164.104 152.812 165.406C152.812 166.969 154.974 168.245 159.297 169.234ZM162.656 162.656V161.031C162.656 160.562 162.448 160.328 162.031 160.328H161.641V159.156H162.422C163.464 159.156 163.984 159.677 163.984 160.719V174H162.656V165.398C162.651 164.102 162.052 163.453 160.859 163.453H159.297V162.281H160.859C161.583 162.281 162.182 162.406 162.656 162.656ZM169.219 174H167.891V168.531C167.891 165.927 169.193 164.625 171.797 164.625C174.401 164.625 175.703 165.927 175.703 168.531V174H174.375V168.531C174.375 166.708 173.516 165.797 171.797 165.797C170.078 165.797 169.219 166.708 169.219 168.531V174ZM175.703 162.281V163.453H167.891V162.281H175.703ZM173.914 176.109H170.234C169.974 176.109 169.844 176.188 169.844 176.344C169.844 176.5 169.974 176.578 170.234 176.578H173.914V176.109ZM175.164 177.984C175.32 177.984 175.424 177.964 175.477 177.922C175.529 177.885 175.555 177.839 175.555 177.781C175.555 177.724 175.523 177.68 175.461 177.648C175.393 177.622 175.294 177.604 175.164 177.594H174.93C174.93 177.854 175.008 177.984 175.164 177.984ZM174.93 175.094H176.094V176.109H174.93V176.578H175.422C175.797 176.578 176.07 176.669 176.242 176.852C176.409 177.034 176.492 177.299 176.492 177.648C176.492 178.107 176.401 178.419 176.219 178.586C176.036 178.758 175.711 178.844 175.242 178.844C174.357 178.844 173.914 178.466 173.914 177.711V177.594H169.844C169.062 177.594 168.672 177.177 168.672 176.344C168.677 175.51 169.07 175.094 169.852 175.094H173.914V174.391H174.93V175.094ZM175.703 179.469V183.375H174.375V179.469H175.703ZM185.469 163.469C185.469 163.312 185.365 163.234 185.156 163.234C184.948 163.234 184.844 163.312 184.844 163.469C184.844 163.609 184.948 163.75 185.156 163.891C185.365 163.781 185.469 163.641 185.469 163.469ZM179.414 167.359C179.357 167.359 179.31 167.385 179.273 167.438C179.237 167.484 179.219 167.654 179.219 167.945C179.219 168.237 179.237 168.409 179.273 168.461C179.31 168.508 179.357 168.531 179.414 168.531H179.609V167.359H179.414ZM180.938 172.438L183.516 170.094L186.094 172.438V166.969C186.094 166.406 185.672 165.81 184.828 165.18C184.401 165.591 183.677 165.797 182.656 165.797C181.521 165.797 180.729 165.648 180.281 165.352C179.833 165.055 179.609 164.643 179.609 164.117C179.609 163.596 179.714 163.109 179.922 162.656C180.13 162.198 180.234 161.826 180.234 161.539C180.234 161.253 179.896 161.109 179.219 161.109V159.938C180.677 159.938 181.406 160.432 181.406 161.422C181.406 161.812 181.302 162.25 181.094 162.734C180.885 163.214 180.781 163.555 180.781 163.758C180.781 163.966 180.911 164.164 181.172 164.352C181.432 164.534 181.945 164.625 182.711 164.625C183.372 164.625 183.849 164.539 184.141 164.367C183.88 164.154 183.75 163.823 183.75 163.375C183.75 162.646 184.219 162.281 185.156 162.281C186.146 162.281 186.641 162.724 186.641 163.609C186.641 164.062 186.438 164.448 186.031 164.766C186.958 165.438 187.422 166.172 187.422 166.969V174H185.859L183.516 171.656L181.172 174H179.609V169.688C179.547 169.698 179.482 169.703 179.414 169.703C179.112 169.703 178.872 169.578 178.695 169.328C178.523 169.073 178.438 168.612 178.438 167.945C178.438 167.279 178.523 166.82 178.695 166.57C178.872 166.315 179.203 166.188 179.688 166.188C180.172 166.188 180.5 166.315 180.672 166.57C180.849 166.82 180.938 167.279 180.938 167.945V172.438ZM192.656 174H191.328V168.531C191.328 165.927 192.63 164.625 195.234 164.625C197.839 164.625 199.141 165.927 199.141 168.531V174H197.812V168.531C197.812 166.708 196.953 165.797 195.234 165.797C193.516 165.797 192.656 166.708 192.656 168.531V174ZM199.141 162.281V163.453H191.328V162.281H199.141ZM199.141 162.281H200.703C202.786 162.281 203.828 163.323 203.828 165.406V174H202.5V165.406C202.5 164.104 201.901 163.453 200.703 163.453H199.141V162.281ZM208.906 171.656V172.828C209.016 172.828 209.107 172.799 209.18 172.742C209.258 172.68 209.297 172.513 209.297 172.242C209.297 171.971 209.258 171.807 209.18 171.75C209.107 171.688 209.016 171.656 208.906 171.656ZM215.547 162.281V163.453H207.734V162.281H215.547ZM207.734 168.531C207.734 165.927 209.036 164.625 211.641 164.625C214.245 164.625 215.547 165.927 215.547 168.531V174H214.219V168.531C214.219 166.708 213.359 165.797 211.641 165.797C209.922 165.797 209.062 166.708 209.062 168.531V170.562C209.182 170.51 209.32 170.484 209.477 170.484C209.633 170.484 209.797 170.625 209.969 170.906C210.146 171.182 210.234 171.628 210.234 172.242C210.234 172.857 210.12 173.305 209.891 173.586C209.667 173.862 209.365 174 208.984 174C208.604 174 208.302 173.859 208.078 173.578C207.901 173.365 207.792 173.049 207.75 172.633H207.734V168.531ZM224.375 163.875V162.281H225.703V173.961H224.375V165.297C223.557 165.891 222.698 166.188 221.797 166.188C220.234 166.188 219.453 165.536 219.453 164.234C219.453 162.932 220.026 162.281 221.172 162.281C221.589 162.281 222.005 162.503 222.422 162.945L222.031 163.938C221.693 163.615 221.432 163.453 221.25 163.453C220.938 163.453 220.781 163.714 220.781 164.234C220.781 164.755 221.12 165.016 221.797 165.016C222.719 165.016 223.578 164.635 224.375 163.875Z" fill="#344054"/>
</g>
<rect x="50.5" y="0.5" width="431" height="209" rx="8.5" stroke="#98A2B3"/>
<path d="M24 42H77" stroke="#344054" stroke-dasharray="2 2"/>
<circle cx="12" cy="42" r="12" fill="#344054"/>
<path d="M13.2557 36.3636V48H10.7955V38.6989H10.7273L8.0625 40.3693V38.1875L10.9432 36.3636H13.2557Z" fill="white"/>
<path d="M516 39.875L457 39.875" stroke="#344054" stroke-dasharray="2 2"/>
<circle cx="514" cy="40.25" r="12" transform="rotate(90 514 40.25)" fill="#344054"/>
<path d="M509.943 46V44.2273L514.085 40.392C514.438 40.0511 514.733 39.7443 514.972 39.4716C515.214 39.1989 515.398 38.9318 515.523 38.6705C515.648 38.4053 515.71 38.1193 515.71 37.8125C515.71 37.4716 515.633 37.178 515.477 36.9318C515.322 36.6818 515.11 36.4905 514.841 36.358C514.572 36.2216 514.267 36.1534 513.926 36.1534C513.57 36.1534 513.259 36.2254 512.994 36.3693C512.729 36.5133 512.525 36.7197 512.381 36.9886C512.237 37.2576 512.165 37.5777 512.165 37.9489H509.83C509.83 37.1875 510.002 36.5265 510.347 35.9659C510.691 35.4053 511.174 34.9716 511.795 34.6648C512.417 34.358 513.133 34.2045 513.943 34.2045C514.777 34.2045 515.502 34.3523 516.119 34.6477C516.741 34.9394 517.223 35.3447 517.568 35.8636C517.913 36.3826 518.085 36.9773 518.085 37.6477C518.085 38.0871 517.998 38.5208 517.824 38.9489C517.653 39.3769 517.348 39.8523 516.909 40.375C516.47 40.8939 515.85 41.517 515.051 42.2443L513.352 43.9091V43.9886H518.239V46H509.943Z" fill="white"/>
<defs>
<clipPath id="clip0_7155_5190">
<rect x="51" y="1" width="430" height="208" rx="8" fill="white"/>
</clipPath>
</defs>
</svg>
