<svg width="540" height="245" viewBox="0 0 540 245" fill="none" xmlns="http://www.w3.org/2000/svg">
<g clip-path="url(#clip0_7128_9630)">
<rect x="54" y="1" width="430" height="208" rx="8" fill="white"/>
<path d="M84.9375 32C85.0867 32 85.2298 32.0593 85.3352 32.1648C85.4407 32.2702 85.5 32.4133 85.5 32.5625V33.125H94.5V32.5625C94.5 32.4133 94.5593 32.2702 94.6648 32.1648C94.7702 32.0593 94.9133 32 95.0625 32C95.2117 32 95.3548 32.0593 95.4602 32.1648C95.5657 32.2702 95.625 32.4133 95.625 32.5625V33.125H96.75C97.3467 33.125 97.919 33.3621 98.341 33.784C98.7629 34.206 99 34.7783 99 35.375V47.75C99 48.3467 98.7629 48.919 98.341 49.341C97.919 49.7629 97.3467 50 96.75 50H83.25C82.6533 50 82.081 49.7629 81.659 49.341C81.2371 48.919 81 48.3467 81 47.75V35.375C81 34.7783 81.2371 34.206 81.659 33.784C82.081 33.3621 82.6533 33.125 83.25 33.125H84.375V32.5625C84.375 32.4133 84.4343 32.2702 84.5398 32.1648C84.6452 32.0593 84.7883 32 84.9375 32ZM82.125 36.5V47.75C82.125 48.0484 82.2435 48.3345 82.4545 48.5455C82.6655 48.7565 82.9516 48.875 83.25 48.875H96.75C97.0484 48.875 97.3345 48.7565 97.5455 48.5455C97.7565 48.3345 97.875 48.0484 97.875 47.75V36.5H82.125Z" fill="#344054"/>
<path d="M126.438 40.3828C126.328 40.3828 126.234 40.4167 126.156 40.4844C126.083 40.5521 126.047 40.6484 126.047 40.7734C126.047 40.8984 126.083 40.9948 126.156 41.0625C126.234 41.1302 126.328 41.1641 126.438 41.1641V40.3828ZM126.438 42.0859C126.385 42.0911 126.333 42.0938 126.281 42.0938C125.927 42.0938 125.664 41.9818 125.492 41.7578C125.289 41.5078 125.188 41.1797 125.188 40.7734C125.188 40.3672 125.286 40.0391 125.484 39.7891C125.688 39.5339 126.018 39.4062 126.477 39.4062C126.935 39.4062 127.263 39.5339 127.461 39.7891C127.664 40.0391 127.766 40.3672 127.766 40.7734V44.0938C127.766 46.6979 126.464 48 123.859 48C121.255 48 119.953 46.6979 119.953 44.0938V39.4062C119.953 39.0417 119.823 38.651 119.562 38.2344V37.8438C119.562 36.8021 120.083 36.2812 121.125 36.2812H127.766V37.4531H121.672C121.151 37.4531 120.891 37.6094 120.891 37.9219C121.151 38.3385 121.281 38.8333 121.281 39.4062V44.0938C121.281 45.9167 122.141 46.8281 123.859 46.8281C125.578 46.8281 126.438 45.9167 126.438 44.0938V42.0859ZM123.469 32.1797C123.469 32.3724 123.518 32.5182 123.617 32.6172C123.716 32.7161 123.862 32.7656 124.055 32.7656C124.253 32.7656 124.401 32.7161 124.5 32.6172C124.594 32.5182 124.641 32.3724 124.641 32.1797C124.641 31.9818 124.594 31.8359 124.5 31.7422C124.401 31.6432 124.253 31.5938 124.055 31.5938C123.862 31.5938 123.716 31.6432 123.617 31.7422C123.518 31.8359 123.469 31.9818 123.469 32.1797ZM125.812 32.1797C125.812 32.7682 125.667 33.2083 125.375 33.5C125.083 33.7917 124.643 33.9375 124.055 33.9375C123.466 33.9375 123.026 33.7917 122.734 33.5C122.443 33.2083 122.297 32.7682 122.297 32.1797C122.297 31.5911 122.443 31.151 122.734 30.8594C123.026 30.5677 123.466 30.4219 124.055 30.4219C124.643 30.4219 125.083 30.5677 125.375 30.8594C125.667 31.151 125.812 31.5911 125.812 32.1797ZM132.844 45.6562V46.8281C132.953 46.8281 133.044 46.7995 133.117 46.7422C133.195 46.6797 133.234 46.513 133.234 46.2422C133.234 45.9714 133.195 45.8073 133.117 45.75C133.044 45.6875 132.953 45.6562 132.844 45.6562ZM131.672 40.1875C131.672 37.5833 132.76 36.2812 134.938 36.2812C137.109 36.2812 138.195 37.5833 138.195 40.1875V46.6719L140.266 43.9375L142.336 46.6719V40.1875C142.336 37.5833 143.424 36.2812 145.602 36.2812C147.773 36.2812 148.859 37.5833 148.859 40.1875V48H147.531V40.1875C147.531 38.3646 146.888 37.4531 145.602 37.4531C144.31 37.4531 143.664 38.3646 143.664 40.1875V48H141.945L140.266 45.6562L138.586 48H136.867V40.1875C136.867 38.3646 136.198 37.4531 134.859 37.4531C133.62 37.4531 133 38.3646 133 40.1875V44.5625C133.12 44.5104 133.258 44.4844 133.414 44.4844C133.57 44.4844 133.734 44.625 133.906 44.9062C134.083 45.1823 134.172 45.6276 134.172 46.2422C134.172 46.8568 134.057 47.3047 133.828 47.5859C133.604 47.862 133.302 48 132.922 48C132.542 48 132.24 47.8594 132.016 47.5781C131.839 47.3646 131.729 47.0495 131.688 46.6328H131.672V40.1875ZM158.625 37.4688C158.625 37.3125 158.521 37.2344 158.312 37.2344C158.104 37.2344 158 37.3125 158 37.4688C158 37.6094 158.104 37.75 158.312 37.8906C158.521 37.7812 158.625 37.6406 158.625 37.4688ZM152.57 41.3594C152.513 41.3594 152.466 41.3854 152.43 41.4375C152.393 41.4844 152.375 41.6536 152.375 41.9453C152.375 42.237 152.393 42.4089 152.43 42.4609C152.466 42.5078 152.513 42.5312 152.57 42.5312H152.766V41.3594H152.57ZM154.094 46.4375L156.672 44.0938L159.25 46.4375V40.9688C159.25 40.4062 158.828 39.8099 157.984 39.1797C157.557 39.5911 156.833 39.7969 155.812 39.7969C154.677 39.7969 153.885 39.6484 153.438 39.3516C152.99 39.0547 152.766 38.6432 152.766 38.1172C152.766 37.5964 152.87 37.1094 153.078 36.6562C153.286 36.1979 153.391 35.8255 153.391 35.5391C153.391 35.2526 153.052 35.1094 152.375 35.1094V33.9375C153.833 33.9375 154.562 34.4323 154.562 35.4219C154.562 35.8125 154.458 36.25 154.25 36.7344C154.042 37.2135 153.938 37.5547 153.938 37.7578C153.938 37.9661 154.068 38.1641 154.328 38.3516C154.589 38.5339 155.102 38.625 155.867 38.625C156.529 38.625 157.005 38.5391 157.297 38.3672C157.036 38.1536 156.906 37.8229 156.906 37.375C156.906 36.6458 157.375 36.2812 158.312 36.2812C159.302 36.2812 159.797 36.724 159.797 37.6094C159.797 38.0625 159.594 38.4479 159.188 38.7656C160.115 39.4375 160.578 40.1719 160.578 40.9688V48H159.016L156.672 45.6562L154.328 48H152.766V43.6875C152.703 43.6979 152.638 43.7031 152.57 43.7031C152.268 43.7031 152.029 43.5781 151.852 43.3281C151.68 43.0729 151.594 42.612 151.594 41.9453C151.594 41.2786 151.68 40.8203 151.852 40.5703C152.029 40.3151 152.359 40.1875 152.844 40.1875C153.328 40.1875 153.656 40.3151 153.828 40.5703C154.005 40.8203 154.094 41.2786 154.094 41.9453V46.4375ZM166.008 46.8281C166.065 46.8281 166.112 46.8047 166.148 46.7578C166.185 46.7057 166.203 46.5339 166.203 46.2422C166.203 45.9505 166.185 45.7812 166.148 45.7344C166.112 45.6823 166.065 45.6562 166.008 45.6562H165.812V46.8281H166.008ZM165.812 44.5C165.875 44.4896 165.94 44.4844 166.008 44.4844C166.31 44.4844 166.547 44.612 166.719 44.8672C166.896 45.1172 166.984 45.5755 166.984 46.2422C166.984 46.9089 166.896 47.3698 166.719 47.625C166.547 47.875 166.219 48 165.734 48C165.25 48 164.919 47.875 164.742 47.625C164.57 47.3698 164.484 46.9089 164.484 46.2422V39.4062C164.38 39.0417 164.12 38.651 163.703 38.2344V37.4531C163.703 36.6719 164.094 36.2812 164.875 36.2812H166.203V37.4531H165.266C165.005 37.4531 164.875 37.5833 164.875 37.8438C165.5 38.2604 165.812 38.7812 165.812 39.4062V44.5ZM169.719 39.4062C169.719 39.0417 169.589 38.651 169.328 38.2344V37.8438C169.328 36.8021 169.849 36.2812 170.891 36.2812H173.234L175.031 37.4531H175.656C176.021 37.4531 176.203 37.2708 176.203 36.9062V35.1094H177.531V36.9062C177.531 38.0521 177.089 38.625 176.203 38.625H174.797L173 37.4531H171.438C170.917 37.4531 170.656 37.6094 170.656 37.9219C170.917 38.3385 171.047 38.8333 171.047 39.4062V46.4375L173.625 44.25L176.203 46.4375V39.4062H177.531V48H176.359L173.625 45.6562L170.891 48H169.719V39.4062ZM172.844 32.9219H176.359C175.062 32.0365 174.021 31.5938 173.234 31.5938C172.193 31.5938 171.672 31.8151 171.672 32.2578C171.672 32.7005 172.062 32.9219 172.844 32.9219ZM176.359 31.6328V29.6406H177.531V33.9375H172.453C171.151 33.9375 170.5 33.4167 170.5 32.375C170.5 31.0729 171.411 30.4219 173.234 30.4219C174.276 30.4219 175.253 30.7734 176.164 31.4766C176.232 31.5286 176.297 31.5807 176.359 31.6328ZM187.297 37.4688C187.297 37.3125 187.193 37.2344 186.984 37.2344C186.776 37.2344 186.672 37.3125 186.672 37.4688C186.672 37.6094 186.776 37.75 186.984 37.8906C187.193 37.7812 187.297 37.6406 187.297 37.4688ZM181.242 41.3594C181.185 41.3594 181.138 41.3854 181.102 41.4375C181.065 41.4844 181.047 41.6536 181.047 41.9453C181.047 42.237 181.065 42.4089 181.102 42.4609C181.138 42.5078 181.185 42.5312 181.242 42.5312H181.438V41.3594H181.242ZM182.766 46.4375L185.344 44.0938L187.922 46.4375V40.9688C187.922 40.4062 187.5 39.8099 186.656 39.1797C186.229 39.5911 185.505 39.7969 184.484 39.7969C183.349 39.7969 182.557 39.6484 182.109 39.3516C181.661 39.0547 181.438 38.6432 181.438 38.1172C181.438 37.5964 181.542 37.1094 181.75 36.6562C181.958 36.1979 182.062 35.8255 182.062 35.5391C182.062 35.2526 181.724 35.1094 181.047 35.1094V33.9375C182.505 33.9375 183.234 34.4323 183.234 35.4219C183.234 35.8125 183.13 36.25 182.922 36.7344C182.714 37.2135 182.609 37.5547 182.609 37.7578C182.609 37.9661 182.74 38.1641 183 38.3516C183.26 38.5339 183.773 38.625 184.539 38.625C185.201 38.625 185.677 38.5391 185.969 38.3672C185.708 38.1536 185.578 37.8229 185.578 37.375C185.578 36.6458 186.047 36.2812 186.984 36.2812C187.974 36.2812 188.469 36.724 188.469 37.6094C188.469 38.0625 188.266 38.4479 187.859 38.7656C188.786 39.4375 189.25 40.1719 189.25 40.9688V48H187.688L185.344 45.6562L183 48H181.438V43.6875C181.375 43.6979 181.31 43.7031 181.242 43.7031C180.94 43.7031 180.701 43.5781 180.523 43.3281C180.352 43.0729 180.266 42.612 180.266 41.9453C180.266 41.2786 180.352 40.8203 180.523 40.5703C180.701 40.3151 181.031 40.1875 181.516 40.1875C182 40.1875 182.328 40.3151 182.5 40.5703C182.677 40.8203 182.766 41.2786 182.766 41.9453V46.4375ZM194.328 45.6562V46.8281C194.438 46.8281 194.529 46.7995 194.602 46.7422C194.68 46.6797 194.719 46.513 194.719 46.2422C194.719 45.9714 194.68 45.8073 194.602 45.75C194.529 45.6875 194.438 45.6562 194.328 45.6562ZM206.438 39.4062V44.0938C206.438 46.6979 205.266 48 202.922 48C200.396 48 199.133 46.6979 199.133 44.0938V42.5312C199.133 40.7083 198.359 39.7969 196.812 39.7969C195.26 39.7969 194.484 40.7083 194.484 42.5312V44.5625C194.604 44.5104 194.742 44.4844 194.898 44.4844C195.055 44.4844 195.219 44.625 195.391 44.9062C195.568 45.1823 195.656 45.6276 195.656 46.2422C195.656 46.8568 195.542 47.3047 195.312 47.5859C195.089 47.862 194.786 48 194.406 48C194.026 48 193.724 47.8594 193.5 47.5781C193.323 47.3646 193.214 47.0495 193.172 46.6328H193.156V42.5312C193.156 40.9062 193.63 39.7891 194.578 39.1797C194.344 38.7891 194 38.474 193.547 38.2344V37.4531C193.547 36.6719 193.938 36.2812 194.719 36.2812H199.016V37.4531H195.266C195.005 37.4531 194.875 37.5833 194.875 37.8438C195.281 38.0625 195.602 38.349 195.836 38.7031C196.138 38.651 196.464 38.625 196.812 38.625C199.245 38.625 200.461 39.9271 200.461 42.5312V44.0938C200.461 45.9167 201.281 46.8281 202.922 46.8281C204.38 46.8281 205.109 45.9167 205.109 44.0938V39.4062C205.109 39.0417 204.849 38.651 204.328 38.2344V37.4531C204.328 36.6719 204.719 36.2812 205.5 36.2812H206.828V37.4531H205.891C205.63 37.4531 205.5 37.5833 205.5 37.8438C206.125 38.2604 206.438 38.7812 206.438 39.4062ZM211.516 45.6562V46.8281C211.625 46.8281 211.716 46.7995 211.789 46.7422C211.867 46.6797 211.906 46.513 211.906 46.2422C211.906 45.9714 211.867 45.8073 211.789 45.75C211.716 45.6875 211.625 45.6562 211.516 45.6562ZM217.609 37.5703L219.992 36.2812H220.5C222.583 36.2812 223.625 37.3229 223.625 39.4062V48H222.297V39.4062C222.297 38.1042 221.698 37.4531 220.5 37.4531H220.188L218.391 38.3125L217.609 37.5703ZM210.344 38.625L212.375 36.2812L214.25 37.8438L216.125 36.2812L218.156 38.625V48H216.828V38.9375L216.047 37.9609L214.25 39.25L212.453 37.9609L211.672 38.9375V44.5625C211.792 44.5104 211.93 44.4844 212.086 44.4844C212.242 44.4844 212.406 44.625 212.578 44.9062C212.755 45.1823 212.844 45.6276 212.844 46.2422C212.844 46.8568 212.729 47.3047 212.5 47.5859C212.276 47.862 211.974 48 211.594 48C211.214 48 210.911 47.8594 210.688 47.5781C210.51 47.3646 210.401 47.0495 210.359 46.6328H210.344V38.625ZM221.875 52.3047C221.641 52.3047 221.443 52.3411 221.281 52.4141C220.969 52.3464 220.812 52.2005 220.812 51.9766C220.812 51.7734 221.13 51.6719 221.766 51.6719C222.745 51.6719 223.234 51.9297 223.234 52.4453C223.234 53.2839 221.542 53.7031 218.156 53.7031C216.333 53.7031 215.031 53.5078 214.25 53.1172C213.469 52.7318 212.297 52.5391 210.734 52.5391V51.6719C212.557 51.6719 213.859 51.8646 214.641 52.25C215.422 52.6406 216.594 52.8359 218.156 52.8359C219.458 52.8359 220.461 52.776 221.164 52.6562C221.867 52.5365 222.219 52.4479 222.219 52.3906C222.219 52.3333 222.104 52.3047 221.875 52.3047ZM217.922 50.5781V51.5156H216.75V50.5L215.656 49.875L214.25 50.6562L212.844 49.875L211.906 50.4219V50.7031H211.953C212.203 50.7031 212.388 50.7422 212.508 50.8203C212.628 50.9089 212.688 51.0026 212.688 51.1016C212.688 51.2005 212.589 51.2943 212.391 51.3828C212.188 51.4714 211.961 51.5156 211.711 51.5156C211.461 51.5156 211.237 51.4714 211.039 51.3828C210.836 51.2943 210.734 51.1615 210.734 50.9844V49.9531L212.922 48.7812L214.25 49.5625L215.578 48.7812L217.305 49.7031L219.094 48.7812H221.672C222.714 48.7812 223.234 49.3021 223.234 50.3438V51.5156H222.062V50.5781C222.062 50.1094 221.932 49.875 221.672 49.875H219.172L217.922 50.5781ZM223.625 36.2812H225.188C227.271 36.2812 228.312 37.3229 228.312 39.4062V48H226.984V39.4062C226.984 38.1042 226.385 37.4531 225.188 37.4531H223.625V36.2812ZM233.391 45.6562V46.8281C233.5 46.8281 233.591 46.7995 233.664 46.7422C233.742 46.6797 233.781 46.513 233.781 46.2422C233.781 45.9714 233.742 45.8073 233.664 45.75C233.591 45.6875 233.5 45.6562 233.391 45.6562ZM245.5 39.4062V44.0938C245.5 46.6979 244.328 48 241.984 48C239.458 48 238.195 46.6979 238.195 44.0938V42.5312C238.195 40.7083 237.422 39.7969 235.875 39.7969C234.323 39.7969 233.547 40.7083 233.547 42.5312V44.5625C233.667 44.5104 233.805 44.4844 233.961 44.4844C234.117 44.4844 234.281 44.625 234.453 44.9062C234.63 45.1823 234.719 45.6276 234.719 46.2422C234.719 46.8568 234.604 47.3047 234.375 47.5859C234.151 47.862 233.849 48 233.469 48C233.089 48 232.786 47.8594 232.562 47.5781C232.385 47.3646 232.276 47.0495 232.234 46.6328H232.219V42.5312C232.219 40.9062 232.693 39.7891 233.641 39.1797C233.406 38.7891 233.062 38.474 232.609 38.2344V37.4531C232.609 36.6719 233 36.2812 233.781 36.2812H238.078V37.4531H234.328C234.068 37.4531 233.938 37.5833 233.938 37.8438C234.344 38.0625 234.664 38.349 234.898 38.7031C235.201 38.651 235.526 38.625 235.875 38.625C238.307 38.625 239.523 39.9271 239.523 42.5312V44.0938C239.523 45.9167 240.344 46.8281 241.984 46.8281C243.443 46.8281 244.172 45.9167 244.172 44.0938V39.4062C244.172 39.0417 243.911 38.651 243.391 38.2344V37.4531C243.391 36.6719 243.781 36.2812 244.562 36.2812H245.891V37.4531H244.953C244.693 37.4531 244.562 37.5833 244.562 37.8438C245.188 38.2604 245.5 38.7812 245.5 39.4062ZM241.203 32.1797C241.203 32.3724 241.253 32.5182 241.352 32.6172C241.451 32.7161 241.596 32.7656 241.789 32.7656C241.987 32.7656 242.135 32.7161 242.234 32.6172C242.328 32.5182 242.375 32.3724 242.375 32.1797C242.375 31.9818 242.328 31.8359 242.234 31.7422C242.135 31.6432 241.987 31.5938 241.789 31.5938C241.596 31.5938 241.451 31.6432 241.352 31.7422C241.253 31.8359 241.203 31.9818 241.203 32.1797ZM243.547 32.1797C243.547 32.7682 243.401 33.2083 243.109 33.5C242.818 33.7917 242.378 33.9375 241.789 33.9375C241.201 33.9375 240.76 33.7917 240.469 33.5C240.177 33.2083 240.031 32.7682 240.031 32.1797C240.031 31.5911 240.177 31.151 240.469 30.8594C240.76 30.5677 241.201 30.4219 241.789 30.4219C242.378 30.4219 242.818 30.5677 243.109 30.8594C243.401 31.151 243.547 31.5911 243.547 32.1797ZM257.219 36.2812V37.4531H249.406V36.2812H257.219ZM250.734 45.2656C251.125 44.4844 251.75 44.0938 252.609 44.0938H253.312V45.3438H252.609C251.75 45.3438 251.125 45.7344 250.734 46.5156V48H249.406V42.5312C249.406 39.9271 250.708 38.625 253.312 38.625C255.917 38.625 257.219 39.9271 257.219 42.5312V48H255.891V42.5312C255.891 40.7083 255.031 39.7969 253.312 39.7969C251.594 39.7969 250.734 40.7083 250.734 42.5312V45.2656ZM257.219 36.2812H258.781C260.865 36.2812 261.906 37.3229 261.906 39.4062V48H260.578V39.4062C260.578 38.1042 259.979 37.4531 258.781 37.4531H257.219V36.2812ZM266.984 45.6562V46.8281C267.094 46.8281 267.185 46.7995 267.258 46.7422C267.336 46.6797 267.375 46.513 267.375 46.2422C267.375 45.9714 267.336 45.8073 267.258 45.75C267.185 45.6875 267.094 45.6562 266.984 45.6562ZM279.094 39.4062V44.0938C279.094 46.6979 277.922 48 275.578 48C273.052 48 271.789 46.6979 271.789 44.0938V40.1875C271.789 38.3646 271.016 37.4531 269.469 37.4531C267.917 37.4531 267.141 38.3646 267.141 40.1875V44.5625C267.26 44.5104 267.398 44.4844 267.555 44.4844C267.711 44.4844 267.875 44.625 268.047 44.9062C268.224 45.1823 268.312 45.6276 268.312 46.2422C268.312 46.8568 268.198 47.3047 267.969 47.5859C267.745 47.862 267.443 48 267.062 48C266.682 48 266.38 47.8594 266.156 47.5781C265.979 47.3646 265.87 47.0495 265.828 46.6328H265.812V40.1875C265.812 37.5833 267.031 36.2812 269.469 36.2812C271.901 36.2812 273.117 37.5833 273.117 40.1875V44.0938C273.117 45.9167 273.938 46.8281 275.578 46.8281C277.036 46.8281 277.766 45.9167 277.766 44.0938V39.4062C277.766 39.0417 277.505 38.651 276.984 38.2344V37.4531C276.984 36.6719 277.375 36.2812 278.156 36.2812H279.484V37.4531H278.547C278.286 37.4531 278.156 37.5833 278.156 37.8438C278.781 38.2604 279.094 38.7812 279.094 39.4062ZM275.773 30.4219V33.9375H274.602V30.4219H275.773Z" fill="#344054"/>
<rect x="436.5" y="29.5" width="23" height="23" rx="3.5" fill="white" stroke="#98A2B3"/>
<path d="M91.2422 85.75C91.0547 85.75 90.9297 85.793 90.8672 85.8789C90.8047 85.957 90.7734 86.0469 90.7734 86.1484C90.7734 86.25 90.8008 86.332 90.8555 86.3945C90.918 86.4805 91.0469 86.5234 91.2422 86.5234V85.75ZM80.9297 84.1094C80.9297 83.4844 80.7344 82.8594 80.3438 82.2344V81.7656C80.3438 80.2031 81.2812 79.4219 83.1562 79.4219H93.5859V81.7656H83.9766C83.5078 81.7656 83.2734 81.8438 83.2734 82C83.6641 82.625 83.8594 83.3281 83.8594 84.1094V91.1406C83.8594 93.4844 84.9922 94.6562 87.2578 94.6562C89.5234 94.6562 90.6562 93.4844 90.6562 91.1406V88.1758C90.0312 88.1523 89.5469 87.9141 89.2031 87.4609C88.9219 87.1172 88.7812 86.6836 88.7812 86.1602C88.7812 85.6367 88.9492 85.1641 89.2852 84.7422C89.6211 84.3203 90.2734 84.1094 91.2422 84.1094C92.1328 84.1094 92.7461 84.3203 93.082 84.7422C93.418 85.1641 93.5859 85.6367 93.5859 86.1602V91.1406C93.5859 95.0469 91.4766 97 87.2578 97C83.0391 97 80.9297 95.0469 80.9297 91.1406V84.1094ZM86.4961 73.2695C86.4961 73.4648 86.5469 73.6094 86.6484 73.7031C86.7422 73.8047 86.8867 73.8555 87.082 73.8555C87.2773 73.8555 87.4258 73.8047 87.5273 73.7031C87.6211 73.6094 87.668 73.4648 87.668 73.2695C87.668 73.0742 87.6211 72.9297 87.5273 72.8359C87.4258 72.7344 87.2773 72.6836 87.082 72.6836C86.8867 72.6836 86.7422 72.7344 86.6484 72.8359C86.5469 72.9297 86.4961 73.0742 86.4961 73.2695ZM89.7188 73.2695C89.7188 74.1523 89.5 74.8125 89.0625 75.25C88.625 75.6875 87.9648 75.9062 87.082 75.9062C86.1992 75.9062 85.5391 75.6875 85.1016 75.25C84.6641 74.8125 84.4453 74.1523 84.4453 73.2695C84.4453 72.3867 84.6641 71.7266 85.1016 71.2891C85.5391 70.8516 86.1992 70.6328 87.082 70.6328C87.9648 70.6328 88.625 70.8516 89.0625 71.2891C89.5 71.7266 89.7188 72.3867 89.7188 73.2695ZM101.789 94.9961C102.031 94.9961 102.188 94.9453 102.258 94.8438C102.336 94.7344 102.375 94.5664 102.375 94.3398C102.375 94.1055 102.336 93.9375 102.258 93.8359C102.188 93.7344 102.031 93.6758 101.789 93.6602V94.9961ZM99.4453 85.2812C99.4453 81.375 101.234 79.4219 104.812 79.4219C108.383 79.4219 110.168 81.375 110.168 85.2812V93.3086L112.805 89.8281L115.441 93.3086V85.2812C115.441 81.375 117.23 79.4219 120.809 79.4219C124.379 79.4219 126.164 81.375 126.164 85.2812V97H123.234V85.2812C123.234 82.9375 122.426 81.7656 120.809 81.7656C119.184 81.7656 118.371 82.9375 118.371 85.2812V97H114.938L112.805 94.0117L110.672 97H107.238V85.2812C107.238 82.9375 106.43 81.7656 104.812 81.7656C103.188 81.7656 102.375 82.9375 102.375 85.2812V91.6562C102.969 91.7031 103.41 91.9375 103.699 92.3594C103.988 92.7734 104.133 93.4414 104.133 94.3633C104.133 95.1289 103.93 95.7617 103.523 96.2617C103.117 96.7539 102.539 97 101.789 97C101.039 97 100.461 96.7734 100.055 96.3203C99.6484 95.8594 99.4453 95.207 99.4453 94.3633V85.2812ZM132.609 88.457C132.367 88.457 132.207 88.5117 132.129 88.6211C132.059 88.7227 132.023 88.8867 132.023 89.1133C132.023 89.3477 132.059 89.5156 132.129 89.6172C132.207 89.7188 132.367 89.7773 132.609 89.793V88.457ZM134.953 93.9414L138.352 90.8594L141.75 93.9414V87.0391C141.75 86.1016 141.293 85.293 140.379 84.6133C139.918 85.0586 138.812 85.2812 137.062 85.2812C135.188 85.2812 133.879 85.0352 133.137 84.543C132.395 84.0508 132.023 83.2617 132.023 82.1758C132.023 81.457 132.18 80.8555 132.492 80.3711C132.805 79.8789 132.961 79.3867 132.961 78.8945C132.961 78.4648 132.453 78.25 131.438 78.25V75.9062C134.25 75.9062 135.656 76.6484 135.656 78.1328C135.656 78.6562 135.5 79.2812 135.188 80.0078C134.875 80.7266 134.719 81.2695 134.719 81.6367C134.719 82.043 134.879 82.3633 135.199 82.5977C135.527 82.8242 136.176 82.9375 137.145 82.9375C137.98 82.9375 138.605 82.8164 139.02 82.5742C138.496 82.1445 138.234 81.6406 138.234 81.0625C138.234 79.9688 139.094 79.4219 140.812 79.4219C142.609 79.4219 143.508 80.0859 143.508 81.4141C143.508 82 143.141 82.5781 142.406 83.1484C143.922 84.25 144.68 85.3516 144.68 86.4531V97H141.539L138.352 93.8125L135.164 97H132.023V91.7969C131.43 91.75 130.988 91.5195 130.699 91.1055C130.41 90.6836 130.266 90.0117 130.266 89.0898C130.266 88.168 130.41 87.5 130.699 87.0859C130.988 86.6641 131.625 86.4531 132.609 86.4531C133.594 86.4531 134.23 86.6641 134.52 87.0859C134.809 87.5 134.953 88.168 134.953 89.0898V93.9414ZM140.789 82.0117L141.152 81.7539C141.285 81.6445 141.352 81.5391 141.352 81.4375C141.352 81.1953 141.188 81.0742 140.859 81.0742C140.547 81.0742 140.391 81.1719 140.391 81.3672C140.391 81.4766 140.438 81.5703 140.531 81.6484L140.789 82.0117ZM153.352 93.8359C153.281 93.7344 153.125 93.6758 152.883 93.6602V94.9961C153.125 94.9961 153.281 94.9453 153.352 94.8438C153.43 94.7344 153.469 94.5664 153.469 94.3398C153.469 94.1055 153.43 93.9375 153.352 93.8359ZM153.469 91.6562C154.062 91.7031 154.504 91.9375 154.793 92.3594C155.082 92.7734 155.227 93.4414 155.227 94.3633C155.227 95.2852 155.023 95.957 154.617 96.3789C154.211 96.793 153.633 97 152.883 97C152.133 97 151.555 96.793 151.148 96.3789C150.742 95.957 150.539 95.2852 150.539 94.3633V84.1094C150.539 83.4688 150.148 82.8359 149.367 82.2109V81.1797C149.367 80.0078 150.109 79.4219 151.594 79.4219H154.055V81.7656H152.062V81.9062C153 82.5312 153.469 83.2656 153.469 84.1094V91.6562ZM159.328 84.1094C159.328 83.4844 159.133 82.8594 158.742 82.2344V81.7656C158.742 80.2031 159.68 79.4219 161.555 79.4219H165.328L168.023 80.5938H168.703C168.938 80.5938 169.055 80.5156 169.055 80.3594V77.6641H171.984V80.3594C171.984 82.0781 171.164 82.9375 169.523 82.9375H167.156L164.461 81.7656H162.375C161.906 81.7656 161.672 81.8438 161.672 82C162.062 82.625 162.258 83.3281 162.258 84.1094V93.4141L165.656 90.5312L169.055 93.4141V84.1094H171.984V97H169.453L165.656 93.7422L161.859 97H159.328V84.1094ZM163.195 73.6211C163.195 74.0508 163.586 74.2656 164.367 74.2656H169.641C168.086 73.4062 166.719 72.9766 165.539 72.9766C163.977 72.9766 163.195 73.1914 163.195 73.6211ZM169.875 72.168V69.4609H171.984V75.9062H163.781C161.828 75.9062 160.852 75.125 160.852 73.5625C160.852 71.6094 162.414 70.6328 165.539 70.6328C167.078 70.6328 168.523 71.1445 169.875 72.168ZM178.43 88.457C178.188 88.457 178.027 88.5117 177.949 88.6211C177.879 88.7227 177.844 88.8867 177.844 89.1133C177.844 89.3477 177.879 89.5156 177.949 89.6172C178.027 89.7188 178.188 89.7773 178.43 89.793V88.457ZM180.773 93.9414L184.172 90.8594L187.57 93.9414V87.0391C187.57 86.1016 187.113 85.293 186.199 84.6133C185.738 85.0586 184.633 85.2812 182.883 85.2812C181.008 85.2812 179.699 85.0352 178.957 84.543C178.215 84.0508 177.844 83.2617 177.844 82.1758C177.844 81.457 178 80.8555 178.312 80.3711C178.625 79.8789 178.781 79.3867 178.781 78.8945C178.781 78.4648 178.273 78.25 177.258 78.25V75.9062C180.07 75.9062 181.477 76.6484 181.477 78.1328C181.477 78.6562 181.32 79.2812 181.008 80.0078C180.695 80.7266 180.539 81.2695 180.539 81.6367C180.539 82.043 180.699 82.3633 181.02 82.5977C181.348 82.8242 181.996 82.9375 182.965 82.9375C183.801 82.9375 184.426 82.8164 184.84 82.5742C184.316 82.1445 184.055 81.6406 184.055 81.0625C184.055 79.9688 184.914 79.4219 186.633 79.4219C188.43 79.4219 189.328 80.0859 189.328 81.4141C189.328 82 188.961 82.5781 188.227 83.1484C189.742 84.25 190.5 85.3516 190.5 86.4531V97H187.359L184.172 93.8125L180.984 97H177.844V91.7969C177.25 91.75 176.809 91.5195 176.52 91.1055C176.23 90.6836 176.086 90.0117 176.086 89.0898C176.086 88.168 176.23 87.5 176.52 87.0859C176.809 86.6641 177.445 86.4531 178.43 86.4531C179.414 86.4531 180.051 86.6641 180.34 87.0859C180.629 87.5 180.773 88.168 180.773 89.0898V93.9414ZM186.609 82.0117L186.973 81.7539C187.105 81.6445 187.172 81.5391 187.172 81.4375C187.172 81.1953 187.008 81.0742 186.68 81.0742C186.367 81.0742 186.211 81.1719 186.211 81.3672C186.211 81.4766 186.258 81.5703 186.352 81.6484L186.609 82.0117ZM196.945 93.6602C196.703 93.6758 196.543 93.7344 196.465 93.8359C196.395 93.9375 196.359 94.1055 196.359 94.3398C196.359 94.5664 196.395 94.7344 196.465 94.8438C196.543 94.9453 196.703 94.9961 196.945 94.9961V93.6602ZM206.672 93.6602C206.43 93.6758 206.27 93.7344 206.191 93.8359C206.121 93.9375 206.086 94.1055 206.086 94.3398C206.086 94.5664 206.121 94.7344 206.191 94.8438C206.27 94.9453 206.43 94.9961 206.672 94.9961V93.6602ZM199.289 94.3633C199.289 95.2852 199.086 95.957 198.68 96.3789C198.273 96.793 197.695 97 196.945 97C196.195 97 195.617 96.793 195.211 96.3789C194.805 95.957 194.602 95.2852 194.602 94.3633C194.602 93.4414 194.746 92.7734 195.035 92.3594C195.324 91.9375 195.766 91.7031 196.359 91.6562V84.1094C196.359 83.4688 195.969 82.8359 195.188 82.2109V81.1797C195.188 80.0078 195.93 79.4219 197.414 79.4219H199.875V81.7656H197.883V81.9062C198.82 82.5312 199.289 83.2656 199.289 84.1094V87.0391H206.086V84.1094C206.086 83.4688 205.695 82.8359 204.914 82.2109V81.1797C204.914 80.0078 205.656 79.4219 207.141 79.4219H209.602V81.7656H207.609V81.9062C208.547 82.5312 209.016 83.2656 209.016 84.1094V94.3633C209.016 95.2852 208.812 95.957 208.406 96.3789C208 96.793 207.422 97 206.672 97C205.922 97 205.344 96.793 204.938 96.3789C204.531 95.957 204.328 95.2852 204.328 94.3633C204.328 93.4414 204.473 92.7734 204.762 92.3594C205.051 91.9375 205.492 91.7031 206.086 91.6562V89.3828H199.289V94.3633ZM217.219 94.9961C217.461 94.9961 217.617 94.9453 217.688 94.8438C217.766 94.7344 217.805 94.5664 217.805 94.3398C217.805 94.1055 217.766 93.9375 217.688 93.8359C217.617 93.7344 217.461 93.6758 217.219 93.6602V94.9961ZM227.531 79.4219V81.7656H214.875V79.4219H227.531ZM214.875 88.7969C214.875 84.8906 216.984 82.9375 221.203 82.9375C225.422 82.9375 227.531 84.8906 227.531 88.7969V97H224.602V88.7969C224.602 86.4531 223.469 85.2812 221.203 85.2812C218.938 85.2812 217.805 86.4531 217.805 88.7969V91.6562C218.398 91.7031 218.84 91.9375 219.129 92.3594C219.418 92.7734 219.562 93.4414 219.562 94.3633C219.562 95.1289 219.359 95.7617 218.953 96.2617C218.547 96.7539 217.969 97 217.219 97C216.469 97 215.891 96.7734 215.484 96.3203C215.078 95.8594 214.875 95.207 214.875 94.3633V88.7969ZM217.805 101.57C217.805 102.133 218.016 102.414 218.438 102.414C218.555 102.414 218.773 102.332 219.094 102.168V104.277C218.867 104.504 218.469 104.617 217.898 104.617C216.273 104.617 215.461 103.602 215.461 101.57C215.461 99.3047 216.691 98.1719 219.152 98.1719C220.871 98.1719 222.113 98.6406 222.879 99.5781C223.637 100.516 224.27 101.199 224.777 101.629C225.285 102.059 226.008 102.273 226.945 102.273V104.617C225.773 104.617 224.855 104.363 224.191 103.855C223.527 103.348 222.855 102.664 222.176 101.805C221.488 100.945 220.48 100.516 219.152 100.516C218.254 100.516 217.805 100.867 217.805 101.57ZM243.117 84.1094C243.117 83.4688 242.727 82.8359 241.945 82.2109V81.1797C241.945 80.0078 242.688 79.4219 244.172 79.4219H246.633V81.7656H244.641V81.9062C245.578 82.5312 246.047 83.2656 246.047 84.1094V91.1406C246.047 95.0469 243.938 97 239.719 97C235.5 97 233.391 95.0469 233.391 91.1406V84.1094C233.391 83.4688 233 82.8359 232.219 82.2109V81.1797C232.219 80.0078 232.961 79.4219 234.445 79.4219H236.906V81.7656H234.914V81.9062C235.852 82.5312 236.32 83.2656 236.32 84.1094V91.1406C236.32 93.4844 237.453 94.6562 239.719 94.6562C241.984 94.6562 243.117 93.4844 243.117 91.1406V84.1094ZM262.805 89.8047C262.805 89.5781 262.727 89.4648 262.57 89.4648C262.414 89.4648 262.336 89.582 262.336 89.8164C262.336 90.1133 262.492 90.2773 262.805 90.3086V89.8047ZM262.922 91.8086V92.3125C262.922 95.4375 261.359 97 258.234 97C255.109 97 253.547 95.4375 253.547 92.3125V89.9688H256.477V92.3125C256.477 93.875 257.062 94.6562 258.234 94.6562C259.406 94.6562 259.992 93.875 259.992 92.3125V91.3398C254.602 89.3945 251.906 86.9844 251.906 84.1094C251.906 80.9844 254.016 79.4219 258.234 79.4219C262.453 79.4219 264.562 80.9844 264.562 84.1094C264.562 86.2891 263.32 87.3789 260.836 87.3789C260.156 87.3789 259.602 87.2188 259.172 86.8984V84.4023C260.125 84.6836 260.734 84.8242 261 84.8242C261.422 84.8242 261.633 84.5859 261.633 84.1094C261.633 82.5469 260.5 81.7656 258.234 81.7656C255.969 81.7656 254.836 82.5469 254.836 84.1094C254.836 86.5781 256.555 88.2305 259.992 89.0664C259.992 88.418 260.695 88.0938 262.102 88.0938C263.742 88.0938 264.562 88.582 264.562 89.5586C264.562 90.4414 264.402 91.0273 264.082 91.3164C263.77 91.6055 263.383 91.7695 262.922 91.8086Z" fill="#344054"/>
<path d="M79.9531 133.406H81.2812V140.438L83.8594 138.094L86.4375 140.438V133.406H87.7656V142H86.5938L83.8594 139.656L81.125 142H79.9531V133.406ZM81.2812 131.523C81.2812 131.737 82.1406 131.844 83.8594 131.844C85.5781 131.844 86.4375 131.323 86.4375 130.281V129.109H87.7656V130.281C87.7656 132.104 86.4635 133.016 83.8594 133.016C81.2552 133.016 79.9531 132.521 79.9531 131.531C79.9531 130.698 80.3854 130.281 81.25 130.281C81.7969 130.281 82.1719 130.357 82.375 130.508V131.523C82.0052 131.414 81.7318 131.359 81.5547 131.359C81.3724 131.359 81.2812 131.414 81.2812 131.523ZM87.7656 130.281H89.3281C91.4115 130.281 92.4531 131.323 92.4531 133.406V142H91.125V133.406C91.125 132.104 90.526 131.453 89.3281 131.453H87.7656V130.281ZM97.6875 142H96.3594V136.531C96.3594 133.927 97.6615 132.625 100.266 132.625C102.87 132.625 104.172 133.927 104.172 136.531V142H102.844V136.531C102.844 134.708 101.984 133.797 100.266 133.797C98.5469 133.797 97.6875 134.708 97.6875 136.531V142ZM104.172 130.281V131.453H96.3594V130.281H104.172ZM100.852 124.422V127.938H99.6797V124.422H100.852ZM109.25 139.656V140.828C109.359 140.828 109.451 140.799 109.523 140.742C109.602 140.68 109.641 140.513 109.641 140.242C109.641 139.971 109.602 139.807 109.523 139.75C109.451 139.688 109.359 139.656 109.25 139.656ZM108.078 132.625L110.109 130.281L111.984 131.844L113.859 130.281L115.891 132.625V142H114.562V132.938L113.781 131.961L111.984 133.25L110.188 131.961L109.406 132.938V138.562C109.526 138.51 109.664 138.484 109.82 138.484C109.977 138.484 110.141 138.625 110.312 138.906C110.49 139.182 110.578 139.628 110.578 140.242C110.578 140.857 110.464 141.305 110.234 141.586C110.01 141.862 109.708 142 109.328 142C108.948 142 108.646 141.859 108.422 141.578C108.245 141.365 108.135 141.049 108.094 140.633H108.078V132.625ZM115.891 130.281H117.453C119.536 130.281 120.578 131.323 120.578 133.406V142H119.25V133.406C119.25 132.104 118.651 131.453 117.453 131.453H115.891V130.281ZM125.812 142H124.484V136.531C124.484 133.927 125.786 132.625 128.391 132.625C130.995 132.625 132.297 133.927 132.297 136.531V142H130.969V136.531C130.969 134.708 130.109 133.797 128.391 133.797C126.672 133.797 125.812 134.708 125.812 136.531V142ZM132.297 130.281V131.453H124.484V130.281H132.297ZM136.984 133.406V143.953C136.984 146.036 135.982 147.078 133.977 147.078C131.971 147.078 130.969 146.036 130.969 143.953V142.781H132.297V143.953C132.297 145.255 132.857 145.906 133.977 145.906C135.096 145.906 135.656 145.255 135.656 143.953V133.406C135.656 133.042 135.396 132.651 134.875 132.234V131.453C134.875 130.672 135.266 130.281 136.047 130.281H137.375V131.453H136.438C136.177 131.453 136.047 131.583 136.047 131.844C136.672 132.26 136.984 132.781 136.984 133.406ZM148.703 130.281V131.453H140.891V130.281H148.703ZM142.219 139.266C142.609 138.484 143.234 138.094 144.094 138.094H144.797V139.344H144.094C143.234 139.344 142.609 139.734 142.219 140.516V142H140.891V136.531C140.891 133.927 142.193 132.625 144.797 132.625C147.401 132.625 148.703 133.927 148.703 136.531V142H147.375V136.531C147.375 134.708 146.516 133.797 144.797 133.797C143.078 133.797 142.219 134.708 142.219 136.531V139.266ZM160.422 137.234V138.875C160.422 140.958 159.693 142 158.234 142C157.161 142 156.367 141.674 155.852 141.023C155.336 140.372 154.698 140.047 153.938 140.047V142H152.609V137.312H153.938V138.875C154.849 138.875 155.589 139.201 156.156 139.852C156.729 140.503 157.31 140.828 157.898 140.828C158.695 140.828 159.094 140.177 159.094 138.875V138.094C154.771 137.156 152.609 135.594 152.609 133.406C152.609 131.323 153.911 130.281 156.516 130.281C159.12 130.281 160.422 131.323 160.422 133.406C160.422 134.859 159.698 135.586 158.25 135.586C157.922 135.586 157.656 135.51 157.453 135.359V134.188C157.823 134.297 158.125 134.352 158.359 134.352C158.849 134.352 159.094 134.036 159.094 133.406C159.094 132.104 158.234 131.453 156.516 131.453C154.797 131.453 153.938 132.104 153.938 133.406C153.938 134.969 156.099 136.245 160.422 137.234ZM154.172 145.047C154.172 145.839 154.339 146.234 154.672 146.234C154.854 146.234 155.104 146.18 155.422 146.07V146.852C155.271 147.003 154.875 147.078 154.234 147.078C153.411 147.078 153 146.401 153 145.047C153 143.536 153.638 142.781 154.914 142.781C156.008 142.781 156.758 143.302 157.164 144.344C157.565 145.385 157.948 145.906 158.312 145.906C158.677 145.906 159.146 144.865 159.719 142.781L160.812 143.094C160.161 145.75 159.375 147.078 158.453 147.078C157.578 147.078 156.94 146.557 156.539 145.516C156.133 144.474 155.591 143.953 154.914 143.953C154.419 143.953 154.172 144.318 154.172 145.047ZM159.172 124.578C159.083 124.578 159.008 124.607 158.945 124.664C158.888 124.716 158.859 124.792 158.859 124.891C158.859 124.979 158.888 125.052 158.945 125.109C159.008 125.172 159.083 125.203 159.172 125.203C159.271 125.203 159.346 125.172 159.398 125.109C159.456 125.052 159.484 124.979 159.484 124.891C159.484 124.792 159.456 124.716 159.398 124.664C159.346 124.607 159.271 124.578 159.172 124.578ZM155.734 126.922H159.25C157.953 126.036 156.911 125.594 156.125 125.594C155.083 125.594 154.562 125.815 154.562 126.258C154.562 126.701 154.953 126.922 155.734 126.922ZM157.922 124.797C157.943 124.458 158.055 124.188 158.258 123.984C158.487 123.755 158.792 123.641 159.172 123.641C159.552 123.641 159.857 123.755 160.086 123.984C160.31 124.208 160.422 124.51 160.422 124.891C160.422 125.271 160.31 125.573 160.086 125.797C159.982 125.901 159.865 125.982 159.734 126.039C160.193 126.445 160.422 126.74 160.422 126.922V127.938H155.344C154.042 127.938 153.391 127.417 153.391 126.375C153.391 125.073 154.302 124.422 156.125 124.422C156.75 124.422 157.349 124.547 157.922 124.797ZM165.5 132.43C165.5 132.622 165.549 132.768 165.648 132.867C165.747 132.966 165.893 133.016 166.086 133.016C166.284 133.016 166.43 132.966 166.523 132.867C166.622 132.768 166.672 132.622 166.672 132.43C166.672 132.232 166.622 132.086 166.523 131.992C166.43 131.893 166.284 131.844 166.086 131.844C165.893 131.844 165.747 131.893 165.648 131.992C165.549 132.086 165.5 132.232 165.5 132.43ZM167.844 132.43C167.844 133.018 167.698 133.458 167.406 133.75C167.115 134.042 166.674 134.188 166.086 134.188C165.497 134.188 165.057 134.042 164.766 133.75C164.474 133.458 164.328 133.018 164.328 132.43C164.328 131.841 164.474 131.401 164.766 131.109C165.057 130.818 165.497 130.672 166.086 130.672C166.674 130.672 167.115 130.818 167.406 131.109C167.698 131.401 167.844 131.841 167.844 132.43ZM165.5 139.852C165.5 140.044 165.549 140.19 165.648 140.289C165.747 140.388 165.893 140.438 166.086 140.438C166.284 140.438 166.43 140.388 166.523 140.289C166.622 140.19 166.672 140.044 166.672 139.852C166.672 139.654 166.622 139.508 166.523 139.414C166.43 139.315 166.284 139.266 166.086 139.266C165.893 139.266 165.747 139.315 165.648 139.414C165.549 139.508 165.5 139.654 165.5 139.852ZM167.844 139.852C167.844 140.44 167.698 140.88 167.406 141.172C167.115 141.464 166.674 141.609 166.086 141.609C165.497 141.609 165.057 141.464 164.766 141.172C164.474 140.88 164.328 140.44 164.328 139.852C164.328 139.263 164.474 138.823 164.766 138.531C165.057 138.24 165.497 138.094 166.086 138.094C166.674 138.094 167.115 138.24 167.406 138.531C167.698 138.823 167.844 139.263 167.844 139.852ZM171.75 137.234C176.073 136.505 178.234 135.229 178.234 133.406C178.234 132.104 177.375 131.453 175.656 131.453C173.938 131.453 173.078 132.104 173.078 133.406C173.078 134.036 173.323 134.352 173.812 134.352C174.047 134.352 174.349 134.297 174.719 134.188V135.359C174.516 135.51 174.25 135.586 173.922 135.586C172.474 135.586 171.75 134.859 171.75 133.406C171.75 131.323 173.052 130.281 175.656 130.281C178.26 130.281 179.562 131.323 179.562 133.406C179.562 135.594 177.401 137.156 173.078 138.094V138.875C173.078 140.177 173.938 140.828 175.656 140.828C177.375 140.828 178.234 140.177 178.234 138.875C178.234 138.094 177.87 137.547 177.141 137.234L178.312 136.609C179.146 137.078 179.562 137.833 179.562 138.875C179.562 140.958 178.26 142 175.656 142C173.052 142 171.75 140.958 171.75 138.875V137.234ZM173.312 145.047C173.312 145.839 173.479 146.234 173.812 146.234C173.995 146.234 174.245 146.18 174.562 146.07V146.852C174.411 147.003 174.016 147.078 173.375 147.078C172.552 147.078 172.141 146.401 172.141 145.047C172.141 143.536 172.779 142.781 174.055 142.781C175.148 142.781 175.898 143.302 176.305 144.344C176.706 145.385 177.089 145.906 177.453 145.906C177.818 145.906 178.286 144.865 178.859 142.781L179.953 143.094C179.302 145.75 178.516 147.078 177.594 147.078C176.719 147.078 176.081 146.557 175.68 145.516C175.273 144.474 174.732 143.953 174.055 143.953C173.56 143.953 173.312 144.318 173.312 145.047ZM174.875 126.922H178.391C177.094 126.036 176.052 125.594 175.266 125.594C174.224 125.594 173.703 125.815 173.703 126.258C173.703 126.701 174.094 126.922 174.875 126.922ZM178.391 125.633V123.641H179.562V127.938H174.484C173.182 127.938 172.531 127.417 172.531 126.375C172.531 125.073 173.443 124.422 175.266 124.422C176.307 124.422 177.284 124.773 178.195 125.477C178.263 125.529 178.328 125.581 178.391 125.633ZM188.156 142C186.734 142 185.482 141.544 184.398 140.633L184.859 139.648C185.943 140.435 187.042 140.828 188.156 140.828C189.354 140.828 189.953 140.177 189.953 138.875V133.094L189.016 131.961L187.375 133.094L185.734 131.961L184.797 133.172V133.406C184.797 134.036 185.042 134.352 185.531 134.352C185.766 134.352 186.068 134.297 186.438 134.188V135.359C186.234 135.51 185.786 135.586 185.094 135.586C184.01 135.586 183.469 134.859 183.469 133.406V132.703L185.5 130.281L187.375 131.688L189.25 130.281L191.281 132.703V138.875C191.281 140.958 190.24 142 188.156 142ZM196.711 140.828C196.768 140.828 196.815 140.805 196.852 140.758C196.888 140.706 196.906 140.534 196.906 140.242C196.906 139.951 196.888 139.781 196.852 139.734C196.815 139.682 196.768 139.656 196.711 139.656H196.516V140.828H196.711ZM196.516 138.5C196.578 138.49 196.643 138.484 196.711 138.484C197.013 138.484 197.25 138.612 197.422 138.867C197.599 139.117 197.688 139.576 197.688 140.242C197.688 140.909 197.599 141.37 197.422 141.625C197.25 141.875 196.922 142 196.438 142C195.953 142 195.622 141.875 195.445 141.625C195.273 141.37 195.188 140.909 195.188 140.242V133.406C195.083 133.042 194.823 132.651 194.406 132.234V131.453C194.406 130.672 194.797 130.281 195.578 130.281H196.906V131.453H195.969C195.708 131.453 195.578 131.583 195.578 131.844C196.203 132.26 196.516 132.781 196.516 133.406V138.5ZM208.234 137.234V138.875C208.234 140.958 207.505 142 206.047 142C204.974 142 204.18 141.674 203.664 141.023C203.148 140.372 202.51 140.047 201.75 140.047V142H200.422V137.312H201.75V138.875C202.661 138.875 203.401 139.201 203.969 139.852C204.542 140.503 205.122 140.828 205.711 140.828C206.508 140.828 206.906 140.177 206.906 138.875V138.094C202.583 137.156 200.422 135.594 200.422 133.406C200.422 131.323 201.724 130.281 204.328 130.281C206.932 130.281 208.234 131.323 208.234 133.406C208.234 134.859 207.51 135.586 206.062 135.586C205.734 135.586 205.469 135.51 205.266 135.359V134.188C205.635 134.297 205.938 134.352 206.172 134.352C206.661 134.352 206.906 134.036 206.906 133.406C206.906 132.104 206.047 131.453 204.328 131.453C202.609 131.453 201.75 132.104 201.75 133.406C201.75 134.969 203.911 136.245 208.234 137.234ZM211.594 130.656V129.031C211.594 128.562 211.385 128.328 210.969 128.328H210.578V127.156H211.359C212.401 127.156 212.922 127.677 212.922 128.719V142H211.594V133.398C211.589 132.102 210.99 131.453 209.797 131.453H208.234V130.281H209.797C210.521 130.281 211.12 130.406 211.594 130.656ZM218.352 140.828C218.409 140.828 218.456 140.805 218.492 140.758C218.529 140.706 218.547 140.534 218.547 140.242C218.547 139.951 218.529 139.781 218.492 139.734C218.456 139.682 218.409 139.656 218.352 139.656H218.156V140.828H218.352ZM218.156 138.5C218.219 138.49 218.284 138.484 218.352 138.484C218.654 138.484 218.891 138.612 219.062 138.867C219.24 139.117 219.328 139.576 219.328 140.242C219.328 140.909 219.24 141.37 219.062 141.625C218.891 141.875 218.562 142 218.078 142C217.594 142 217.263 141.875 217.086 141.625C216.914 141.37 216.828 140.909 216.828 140.242V133.406C216.724 133.042 216.464 132.651 216.047 132.234V131.453C216.047 130.672 216.438 130.281 217.219 130.281H218.547V131.453H217.609C217.349 131.453 217.219 131.583 217.219 131.844C217.844 132.26 218.156 132.781 218.156 133.406V138.5ZM223.234 139.656V140.828C223.344 140.828 223.435 140.799 223.508 140.742C223.586 140.68 223.625 140.513 223.625 140.242C223.625 139.971 223.586 139.807 223.508 139.75C223.435 139.688 223.344 139.656 223.234 139.656ZM235.344 133.406V138.094C235.344 140.698 234.172 142 231.828 142C229.302 142 228.039 140.698 228.039 138.094V134.188C228.039 132.365 227.266 131.453 225.719 131.453C224.167 131.453 223.391 132.365 223.391 134.188V138.562C223.51 138.51 223.648 138.484 223.805 138.484C223.961 138.484 224.125 138.625 224.297 138.906C224.474 139.182 224.562 139.628 224.562 140.242C224.562 140.857 224.448 141.305 224.219 141.586C223.995 141.862 223.693 142 223.312 142C222.932 142 222.63 141.859 222.406 141.578C222.229 141.365 222.12 141.049 222.078 140.633H222.062V134.188C222.062 131.583 223.281 130.281 225.719 130.281C228.151 130.281 229.367 131.583 229.367 134.188V138.094C229.367 139.917 230.188 140.828 231.828 140.828C233.286 140.828 234.016 139.917 234.016 138.094V133.406C234.016 133.042 233.755 132.651 233.234 132.234V131.453C233.234 130.672 233.625 130.281 234.406 130.281H235.734V131.453H234.797C234.536 131.453 234.406 131.583 234.406 131.844C235.031 132.26 235.344 132.781 235.344 133.406ZM230.656 126.922H234.172C232.875 126.036 231.833 125.594 231.047 125.594C230.005 125.594 229.484 125.815 229.484 126.258C229.484 126.701 229.875 126.922 230.656 126.922ZM234.172 125.633V123.641H235.344V127.938H230.266C228.964 127.938 228.312 127.417 228.312 126.375C228.312 125.073 229.224 124.422 231.047 124.422C232.089 124.422 233.065 124.773 233.977 125.477C234.044 125.529 234.109 125.581 234.172 125.633ZM245.734 134.383C245.625 134.383 245.531 134.417 245.453 134.484C245.38 134.552 245.344 134.648 245.344 134.773C245.344 134.898 245.38 134.995 245.453 135.062C245.531 135.13 245.625 135.164 245.734 135.164V134.383ZM245.734 136.086C245.682 136.091 245.63 136.094 245.578 136.094C245.224 136.094 244.961 135.982 244.789 135.758C244.586 135.508 244.484 135.18 244.484 134.773C244.484 134.367 244.583 134.039 244.781 133.789C244.984 133.534 245.315 133.406 245.773 133.406C246.232 133.406 246.56 133.534 246.758 133.789C246.961 134.039 247.062 134.367 247.062 134.773V138.094C247.062 140.698 245.76 142 243.156 142C240.552 142 239.25 140.698 239.25 138.094V133.406C239.25 133.042 239.12 132.651 238.859 132.234V131.844C238.859 130.802 239.38 130.281 240.422 130.281H247.062V131.453H240.969C240.448 131.453 240.188 131.609 240.188 131.922C240.448 132.339 240.578 132.833 240.578 133.406V138.094C240.578 139.917 241.438 140.828 243.156 140.828C244.875 140.828 245.734 139.917 245.734 138.094V136.086ZM242.766 126.18C242.766 126.372 242.815 126.518 242.914 126.617C243.013 126.716 243.159 126.766 243.352 126.766C243.549 126.766 243.698 126.716 243.797 126.617C243.891 126.518 243.938 126.372 243.938 126.18C243.938 125.982 243.891 125.836 243.797 125.742C243.698 125.643 243.549 125.594 243.352 125.594C243.159 125.594 243.013 125.643 242.914 125.742C242.815 125.836 242.766 125.982 242.766 126.18ZM245.109 126.18C245.109 126.768 244.964 127.208 244.672 127.5C244.38 127.792 243.94 127.938 243.352 127.938C242.763 127.938 242.323 127.792 242.031 127.5C241.74 127.208 241.594 126.768 241.594 126.18C241.594 125.591 241.74 125.151 242.031 124.859C242.323 124.568 242.763 124.422 243.352 124.422C243.94 124.422 244.38 124.568 244.672 124.859C244.964 125.151 245.109 125.591 245.109 126.18ZM252.141 139.656V140.828C252.25 140.828 252.341 140.799 252.414 140.742C252.492 140.68 252.531 140.513 252.531 140.242C252.531 139.971 252.492 139.807 252.414 139.75C252.341 139.688 252.25 139.656 252.141 139.656ZM250.969 134.188C250.969 131.583 252.057 130.281 254.234 130.281C256.406 130.281 257.492 131.583 257.492 134.188V140.672L259.562 137.938L261.633 140.672V134.188C261.633 131.583 262.721 130.281 264.898 130.281C267.07 130.281 268.156 131.583 268.156 134.188V142H266.828V134.188C266.828 132.365 266.185 131.453 264.898 131.453C263.607 131.453 262.961 132.365 262.961 134.188V142H261.242L259.562 139.656L257.883 142H256.164V134.188C256.164 132.365 255.495 131.453 254.156 131.453C252.917 131.453 252.297 132.365 252.297 134.188V138.562C252.417 138.51 252.555 138.484 252.711 138.484C252.867 138.484 253.031 138.625 253.203 138.906C253.38 139.182 253.469 139.628 253.469 140.242C253.469 140.857 253.354 141.305 253.125 141.586C252.901 141.862 252.599 142 252.219 142C251.839 142 251.536 141.859 251.312 141.578C251.135 141.365 251.026 141.049 250.984 140.633H250.969V134.188ZM277.922 131.469C277.922 131.312 277.818 131.234 277.609 131.234C277.401 131.234 277.297 131.312 277.297 131.469C277.297 131.609 277.401 131.75 277.609 131.891C277.818 131.781 277.922 131.641 277.922 131.469ZM271.867 135.359C271.81 135.359 271.763 135.385 271.727 135.438C271.69 135.484 271.672 135.654 271.672 135.945C271.672 136.237 271.69 136.409 271.727 136.461C271.763 136.508 271.81 136.531 271.867 136.531H272.062V135.359H271.867ZM273.391 140.438L275.969 138.094L278.547 140.438V134.969C278.547 134.406 278.125 133.81 277.281 133.18C276.854 133.591 276.13 133.797 275.109 133.797C273.974 133.797 273.182 133.648 272.734 133.352C272.286 133.055 272.062 132.643 272.062 132.117C272.062 131.596 272.167 131.109 272.375 130.656C272.583 130.198 272.688 129.826 272.688 129.539C272.688 129.253 272.349 129.109 271.672 129.109V127.938C273.13 127.938 273.859 128.432 273.859 129.422C273.859 129.812 273.755 130.25 273.547 130.734C273.339 131.214 273.234 131.555 273.234 131.758C273.234 131.966 273.365 132.164 273.625 132.352C273.885 132.534 274.398 132.625 275.164 132.625C275.826 132.625 276.302 132.539 276.594 132.367C276.333 132.154 276.203 131.823 276.203 131.375C276.203 130.646 276.672 130.281 277.609 130.281C278.599 130.281 279.094 130.724 279.094 131.609C279.094 132.062 278.891 132.448 278.484 132.766C279.411 133.438 279.875 134.172 279.875 134.969V142H278.312L275.969 139.656L273.625 142H272.062V137.688C272 137.698 271.935 137.703 271.867 137.703C271.565 137.703 271.326 137.578 271.148 137.328C270.977 137.073 270.891 136.612 270.891 135.945C270.891 135.279 270.977 134.82 271.148 134.57C271.326 134.315 271.656 134.188 272.141 134.188C272.625 134.188 272.953 134.315 273.125 134.57C273.302 134.82 273.391 135.279 273.391 135.945V140.438ZM285.305 140.828C285.362 140.828 285.409 140.805 285.445 140.758C285.482 140.706 285.5 140.534 285.5 140.242C285.5 139.951 285.482 139.781 285.445 139.734C285.409 139.682 285.362 139.656 285.305 139.656H285.109V140.828H285.305ZM285.109 138.5C285.172 138.49 285.237 138.484 285.305 138.484C285.607 138.484 285.844 138.612 286.016 138.867C286.193 139.117 286.281 139.576 286.281 140.242C286.281 140.909 286.193 141.37 286.016 141.625C285.844 141.875 285.516 142 285.031 142C284.547 142 284.216 141.875 284.039 141.625C283.867 141.37 283.781 140.909 283.781 140.242V133.406C283.677 133.042 283.417 132.651 283 132.234V131.453C283 130.672 283.391 130.281 284.172 130.281H285.5V131.453H284.562C284.302 131.453 284.172 131.583 284.172 131.844C284.797 132.26 285.109 132.781 285.109 133.406V138.5ZM289.016 133.406C289.016 133.042 288.885 132.651 288.625 132.234V131.844C288.625 130.802 289.146 130.281 290.188 130.281H292.531L294.328 131.453H294.953C295.318 131.453 295.5 131.271 295.5 130.906V129.109H296.828V130.906C296.828 132.052 296.385 132.625 295.5 132.625H294.094L292.297 131.453H290.734C290.214 131.453 289.953 131.609 289.953 131.922C290.214 132.339 290.344 132.833 290.344 133.406V140.438L292.922 138.25L295.5 140.438V133.406H296.828V142H295.656L292.922 139.656L290.188 142H289.016V133.406ZM292.141 126.922H295.656C294.359 126.036 293.318 125.594 292.531 125.594C291.49 125.594 290.969 125.815 290.969 126.258C290.969 126.701 291.359 126.922 292.141 126.922ZM295.656 125.633V123.641H296.828V127.938H291.75C290.448 127.938 289.797 127.417 289.797 126.375C289.797 125.073 290.708 124.422 292.531 124.422C293.573 124.422 294.549 124.773 295.461 125.477C295.529 125.529 295.594 125.581 295.656 125.633ZM306.594 131.469C306.594 131.312 306.49 131.234 306.281 131.234C306.073 131.234 305.969 131.312 305.969 131.469C305.969 131.609 306.073 131.75 306.281 131.891C306.49 131.781 306.594 131.641 306.594 131.469ZM300.539 135.359C300.482 135.359 300.435 135.385 300.398 135.438C300.362 135.484 300.344 135.654 300.344 135.945C300.344 136.237 300.362 136.409 300.398 136.461C300.435 136.508 300.482 136.531 300.539 136.531H300.734V135.359H300.539ZM302.062 140.438L304.641 138.094L307.219 140.438V134.969C307.219 134.406 306.797 133.81 305.953 133.18C305.526 133.591 304.802 133.797 303.781 133.797C302.646 133.797 301.854 133.648 301.406 133.352C300.958 133.055 300.734 132.643 300.734 132.117C300.734 131.596 300.839 131.109 301.047 130.656C301.255 130.198 301.359 129.826 301.359 129.539C301.359 129.253 301.021 129.109 300.344 129.109V127.938C301.802 127.938 302.531 128.432 302.531 129.422C302.531 129.812 302.427 130.25 302.219 130.734C302.01 131.214 301.906 131.555 301.906 131.758C301.906 131.966 302.036 132.164 302.297 132.352C302.557 132.534 303.07 132.625 303.836 132.625C304.497 132.625 304.974 132.539 305.266 132.367C305.005 132.154 304.875 131.823 304.875 131.375C304.875 130.646 305.344 130.281 306.281 130.281C307.271 130.281 307.766 130.724 307.766 131.609C307.766 132.062 307.562 132.448 307.156 132.766C308.083 133.438 308.547 134.172 308.547 134.969V142H306.984L304.641 139.656L302.297 142H300.734V137.688C300.672 137.698 300.607 137.703 300.539 137.703C300.237 137.703 299.997 137.578 299.82 137.328C299.648 137.073 299.562 136.612 299.562 135.945C299.562 135.279 299.648 134.82 299.82 134.57C299.997 134.315 300.328 134.188 300.812 134.188C301.297 134.188 301.625 134.315 301.797 134.57C301.974 134.82 302.062 135.279 302.062 135.945V140.438ZM313.781 142H312.453V136.531C312.453 133.927 313.755 132.625 316.359 132.625C318.964 132.625 320.266 133.927 320.266 136.531V142H318.938V136.531C318.938 134.708 318.078 133.797 316.359 133.797C314.641 133.797 313.781 134.708 313.781 136.531V142ZM320.266 130.281V131.453H312.453V130.281H320.266ZM320.266 130.281H321.828C323.911 130.281 324.953 131.323 324.953 133.406V142H323.625V133.406C323.625 132.104 323.026 131.453 321.828 131.453H320.266V130.281ZM330.031 139.656V140.828C330.141 140.828 330.232 140.799 330.305 140.742C330.383 140.68 330.422 140.513 330.422 140.242C330.422 139.971 330.383 139.807 330.305 139.75C330.232 139.688 330.141 139.656 330.031 139.656ZM336.672 130.281V131.453H328.859V130.281H336.672ZM328.859 136.531C328.859 133.927 330.161 132.625 332.766 132.625C335.37 132.625 336.672 133.927 336.672 136.531V142H335.344V136.531C335.344 134.708 334.484 133.797 332.766 133.797C331.047 133.797 330.188 134.708 330.188 136.531V138.562C330.307 138.51 330.445 138.484 330.602 138.484C330.758 138.484 330.922 138.625 331.094 138.906C331.271 139.182 331.359 139.628 331.359 140.242C331.359 140.857 331.245 141.305 331.016 141.586C330.792 141.862 330.49 142 330.109 142C329.729 142 329.427 141.859 329.203 141.578C329.026 141.365 328.917 141.049 328.875 140.633H328.859V136.531ZM342.102 140.828C342.159 140.828 342.206 140.805 342.242 140.758C342.279 140.706 342.297 140.534 342.297 140.242C342.297 139.951 342.279 139.781 342.242 139.734C342.206 139.682 342.159 139.656 342.102 139.656H341.906V140.828H342.102ZM341.906 138.5C341.969 138.49 342.034 138.484 342.102 138.484C342.404 138.484 342.641 138.612 342.812 138.867C342.99 139.117 343.078 139.576 343.078 140.242C343.078 140.909 342.99 141.37 342.812 141.625C342.641 141.875 342.312 142 341.828 142C341.344 142 341.013 141.875 340.836 141.625C340.664 141.37 340.578 140.909 340.578 140.242V133.406C340.474 133.042 340.214 132.651 339.797 132.234V131.453C339.797 130.672 340.188 130.281 340.969 130.281H342.297V131.453H341.359C341.099 131.453 340.969 131.583 340.969 131.844C341.594 132.26 341.906 132.781 341.906 133.406V138.5ZM345.812 133.406H347.141V140.438L349.719 138.094L352.297 140.438V133.406H353.625V142H352.453L349.719 139.656L346.984 142H345.812V133.406ZM347.141 131.523C347.141 131.737 348 131.844 349.719 131.844C351.438 131.844 352.297 131.323 352.297 130.281V129.109H353.625V130.281C353.625 132.104 352.323 133.016 349.719 133.016C347.115 133.016 345.812 132.521 345.812 131.531C345.812 130.698 346.245 130.281 347.109 130.281C347.656 130.281 348.031 130.357 348.234 130.508V131.523C347.865 131.414 347.591 131.359 347.414 131.359C347.232 131.359 347.141 131.414 347.141 131.523ZM348.938 126.922H352.453C351.156 126.036 350.115 125.594 349.328 125.594C348.286 125.594 347.766 125.815 347.766 126.258C347.766 126.701 348.156 126.922 348.938 126.922ZM352.453 125.633V123.641H353.625V127.938H348.547C347.245 127.938 346.594 127.417 346.594 126.375C346.594 125.073 347.505 124.422 349.328 124.422C350.37 124.422 351.346 124.773 352.258 125.477C352.326 125.529 352.391 125.581 352.453 125.633ZM358.859 136.531V138.094C358.859 139.917 359.719 140.828 361.438 140.828C363.156 140.828 364.016 139.917 364.016 138.094V136.531H358.859ZM358.859 135.359H364.016V133.406C364.016 133.042 363.755 132.651 363.234 132.234V131.453C363.234 130.672 363.625 130.281 364.406 130.281H365.734V131.453H364.797C364.536 131.453 364.406 131.583 364.406 131.844C365.031 132.26 365.344 132.781 365.344 133.406V138.094C365.344 140.698 364.042 142 361.438 142C358.833 142 357.531 140.698 357.531 138.094V133.406C357.531 133.042 357.271 132.651 356.75 132.234V131.453C356.75 130.672 357.141 130.281 357.922 130.281H359.25V131.453H358.312C358.052 131.453 357.922 131.583 357.922 131.844C358.547 132.26 358.859 132.781 358.859 133.406V135.359ZM370.031 133.406V147.078H368.312L367.023 145.516L365.734 147.078H364.016V142.781H365.344V145.75L367.023 143.797L368.703 145.75V133.406C368.703 133.042 368.443 132.651 367.922 132.234V131.453C367.922 130.672 368.312 130.281 369.094 130.281H370.422V131.453H369.484C369.224 131.453 369.094 131.583 369.094 131.844C369.719 132.26 370.031 132.781 370.031 133.406ZM365.344 126.922H368.859C367.562 126.036 366.521 125.594 365.734 125.594C364.693 125.594 364.172 125.815 364.172 126.258C364.172 126.701 364.562 126.922 365.344 126.922ZM368.859 125.633V123.641H370.031V127.938H364.953C363.651 127.938 363 127.417 363 126.375C363 125.073 363.911 124.422 365.734 124.422C366.776 124.422 367.753 124.773 368.664 125.477C368.732 125.529 368.797 125.581 368.859 125.633ZM375.109 139.656V140.828C375.219 140.828 375.31 140.799 375.383 140.742C375.461 140.68 375.5 140.513 375.5 140.242C375.5 139.971 375.461 139.807 375.383 139.75C375.31 139.688 375.219 139.656 375.109 139.656ZM381.75 130.281V131.453H373.938V130.281H381.75ZM373.938 136.531C373.938 133.927 375.24 132.625 377.844 132.625C380.448 132.625 381.75 133.927 381.75 136.531V142H380.422V136.531C380.422 134.708 379.562 133.797 377.844 133.797C376.125 133.797 375.266 134.708 375.266 136.531V138.562C375.385 138.51 375.523 138.484 375.68 138.484C375.836 138.484 376 138.625 376.172 138.906C376.349 139.182 376.438 139.628 376.438 140.242C376.438 140.857 376.323 141.305 376.094 141.586C375.87 141.862 375.568 142 375.188 142C374.807 142 374.505 141.859 374.281 141.578C374.104 141.365 373.995 141.049 373.953 140.633H373.938V136.531ZM377.453 126.18C377.453 126.372 377.503 126.518 377.602 126.617C377.701 126.716 377.846 126.766 378.039 126.766C378.237 126.766 378.385 126.716 378.484 126.617C378.578 126.518 378.625 126.372 378.625 126.18C378.625 125.982 378.578 125.836 378.484 125.742C378.385 125.643 378.237 125.594 378.039 125.594C377.846 125.594 377.701 125.643 377.602 125.742C377.503 125.836 377.453 125.982 377.453 126.18ZM379.797 126.18C379.797 126.768 379.651 127.208 379.359 127.5C379.068 127.792 378.628 127.938 378.039 127.938C377.451 127.938 377.01 127.792 376.719 127.5C376.427 127.208 376.281 126.768 376.281 126.18C376.281 125.591 376.427 125.151 376.719 124.859C377.01 124.568 377.451 124.422 378.039 124.422C378.628 124.422 379.068 124.568 379.359 124.859C379.651 125.151 379.797 125.591 379.797 126.18ZM386.828 139.656V140.828C386.938 140.828 387.029 140.799 387.102 140.742C387.18 140.68 387.219 140.513 387.219 140.242C387.219 139.971 387.18 139.807 387.102 139.75C387.029 139.688 386.938 139.656 386.828 139.656ZM385.656 134.188C385.656 131.583 386.745 130.281 388.922 130.281C391.094 130.281 392.18 131.583 392.18 134.188V140.672L394.25 137.938L396.32 140.672V134.188C396.32 131.583 397.409 130.281 399.586 130.281C401.758 130.281 402.844 131.583 402.844 134.188V142H401.516V134.188C401.516 132.365 400.872 131.453 399.586 131.453C398.294 131.453 397.648 132.365 397.648 134.188V142H395.93L394.25 139.656L392.57 142H390.852V134.188C390.852 132.365 390.182 131.453 388.844 131.453C387.604 131.453 386.984 132.365 386.984 134.188V138.562C387.104 138.51 387.242 138.484 387.398 138.484C387.555 138.484 387.719 138.625 387.891 138.906C388.068 139.182 388.156 139.628 388.156 140.242C388.156 140.857 388.042 141.305 387.812 141.586C387.589 141.862 387.286 142 386.906 142C386.526 142 386.224 141.859 386 141.578C385.823 141.365 385.714 141.049 385.672 140.633H385.656V134.188ZM402.844 130.281H404.406C406.49 130.281 407.531 131.323 407.531 133.406V142H406.203V133.406C406.203 132.104 405.604 131.453 404.406 131.453H402.844V130.281ZM417.297 131.469C417.297 131.312 417.193 131.234 416.984 131.234C416.776 131.234 416.672 131.312 416.672 131.469C416.672 131.609 416.776 131.75 416.984 131.891C417.193 131.781 417.297 131.641 417.297 131.469ZM411.242 135.359C411.185 135.359 411.138 135.385 411.102 135.438C411.065 135.484 411.047 135.654 411.047 135.945C411.047 136.237 411.065 136.409 411.102 136.461C411.138 136.508 411.185 136.531 411.242 136.531H411.438V135.359H411.242ZM412.766 140.438L415.344 138.094L417.922 140.438V134.969C417.922 134.406 417.5 133.81 416.656 133.18C416.229 133.591 415.505 133.797 414.484 133.797C413.349 133.797 412.557 133.648 412.109 133.352C411.661 133.055 411.438 132.643 411.438 132.117C411.438 131.596 411.542 131.109 411.75 130.656C411.958 130.198 412.062 129.826 412.062 129.539C412.062 129.253 411.724 129.109 411.047 129.109V127.938C412.505 127.938 413.234 128.432 413.234 129.422C413.234 129.812 413.13 130.25 412.922 130.734C412.714 131.214 412.609 131.555 412.609 131.758C412.609 131.966 412.74 132.164 413 132.352C413.26 132.534 413.773 132.625 414.539 132.625C415.201 132.625 415.677 132.539 415.969 132.367C415.708 132.154 415.578 131.823 415.578 131.375C415.578 130.646 416.047 130.281 416.984 130.281C417.974 130.281 418.469 130.724 418.469 131.609C418.469 132.062 418.266 132.448 417.859 132.766C418.786 133.438 419.25 134.172 419.25 134.969V142H417.688L415.344 139.656L413 142H411.438V137.688C411.375 137.698 411.31 137.703 411.242 137.703C410.94 137.703 410.701 137.578 410.523 137.328C410.352 137.073 410.266 136.612 410.266 135.945C410.266 135.279 410.352 134.82 410.523 134.57C410.701 134.315 411.031 134.188 411.516 134.188C412 134.188 412.328 134.315 412.5 134.57C412.677 134.82 412.766 135.279 412.766 135.945V140.438ZM430.969 138.836C430.969 140.945 429.667 142 427.062 142C424.458 142 423.156 140.698 423.156 138.094V134.188C423.156 131.583 424.458 130.281 427.062 130.281C429.667 130.281 430.969 131.062 430.969 132.625H429.641C429.641 131.844 428.781 131.453 427.062 131.453C425.344 131.453 424.484 132.365 424.484 134.188V138.094C424.484 139.917 425.344 140.828 427.062 140.828C428.781 140.828 429.641 140.164 429.641 138.836H429.68C429.68 137.924 429.341 137.469 428.664 137.469H427.961V136.297H428.664C429.341 136.297 429.68 136.003 429.68 135.414C429.68 134.831 429.341 134.539 428.664 134.539H428.039V133.367H428.664C430.227 133.367 431.008 134.018 431.008 135.32C431.008 136.065 430.75 136.599 430.234 136.922C430.75 137.302 431.008 137.94 431.008 138.836H430.969ZM435.656 133.406V143.953C435.656 146.036 434.654 147.078 432.648 147.078C430.643 147.078 429.641 146.036 429.641 143.953V142.781H430.969V143.953C430.969 145.255 431.529 145.906 432.648 145.906C433.768 145.906 434.328 145.255 434.328 143.953V133.406C434.328 133.042 434.068 132.651 433.547 132.234V131.453C433.547 130.672 433.938 130.281 434.719 130.281H436.047V131.453H435.109C434.849 131.453 434.719 131.583 434.719 131.844C435.344 132.26 435.656 132.781 435.656 133.406ZM79.9531 172.828V171.656H79.7578C79.7005 171.656 79.6536 171.682 79.6172 171.734C79.5807 171.781 79.5625 171.951 79.5625 172.242C79.5625 172.534 79.5807 172.706 79.6172 172.758C79.6536 172.805 79.7005 172.828 79.7578 172.828H79.9531ZM86.4375 172.828V171.656H86.2422C86.1849 171.656 86.138 171.682 86.1016 171.734C86.0651 171.781 86.0469 171.951 86.0469 172.242C86.0469 172.534 86.0651 172.706 86.1016 172.758C86.138 172.805 86.1849 172.828 86.2422 172.828H86.4375ZM81.2812 168.531V172.242C81.2812 172.909 81.1927 173.37 81.0156 173.625C80.8438 173.875 80.5156 174 80.0312 174C79.5469 174 79.2161 173.875 79.0391 173.625C78.8672 173.37 78.7812 172.909 78.7812 172.242C78.7812 171.576 78.8672 171.117 79.0391 170.867C79.2161 170.612 79.4557 170.484 79.7578 170.484C79.8255 170.484 79.8906 170.49 79.9531 170.5V165.406C79.849 165.042 79.5885 164.651 79.1719 164.234V163.453C79.1719 162.672 79.5625 162.281 80.3438 162.281H81.6719V163.453H80.7344C80.474 163.453 80.3438 163.583 80.3438 163.844C80.9688 164.26 81.2812 164.781 81.2812 165.406V167.359H86.4375V165.406C86.3333 165.042 86.0729 164.651 85.6562 164.234V163.453C85.6562 162.672 86.0469 162.281 86.8281 162.281H88.1562V163.453H87.2188C86.9583 163.453 86.8281 163.583 86.8281 163.844C87.4531 164.26 87.7656 164.781 87.7656 165.406V172.242C87.7656 172.909 87.6771 173.37 87.5 173.625C87.3281 173.875 87 174 86.5156 174C86.0312 174 85.7005 173.875 85.5234 173.625C85.3516 173.37 85.2656 172.909 85.2656 172.242C85.2656 171.576 85.3516 171.117 85.5234 170.867C85.7005 170.612 85.9401 170.484 86.2422 170.484C86.3099 170.484 86.375 170.49 86.4375 170.5V168.531H81.2812ZM92.8438 171.656V172.828C92.9531 172.828 93.0443 172.799 93.1172 172.742C93.1953 172.68 93.2344 172.513 93.2344 172.242C93.2344 171.971 93.1953 171.807 93.1172 171.75C93.0443 171.688 92.9531 171.656 92.8438 171.656ZM99.4844 162.281V163.453H91.6719V162.281H99.4844ZM91.6719 168.531C91.6719 165.927 92.974 164.625 95.5781 164.625C98.1823 164.625 99.4844 165.927 99.4844 168.531V174H98.1562V168.531C98.1562 166.708 97.2969 165.797 95.5781 165.797C93.8594 165.797 93 166.708 93 168.531V170.562C93.1198 170.51 93.2578 170.484 93.4141 170.484C93.5703 170.484 93.7344 170.625 93.9062 170.906C94.0833 171.182 94.1719 171.628 94.1719 172.242C94.1719 172.857 94.0573 173.305 93.8281 173.586C93.6042 173.862 93.3021 174 92.9219 174C92.5417 174 92.2396 173.859 92.0156 173.578C91.8385 173.365 91.7292 173.049 91.6875 172.633H91.6719V168.531ZM93.2344 177.047C93.2344 177.682 93.401 178 93.7344 178C93.9167 178 94.1667 177.945 94.4844 177.836V178.852C94.3333 179.003 94.0677 179.078 93.6875 179.078C92.6042 179.078 92.0625 178.401 92.0625 177.047C92.0625 175.536 92.7786 174.781 94.2109 174.781C95.1484 174.781 95.8724 175.172 96.3828 175.953C96.888 176.734 97.3099 177.255 97.6484 177.516C97.987 177.776 98.4688 177.906 99.0938 177.906V179.078C98.3125 179.078 97.7005 178.909 97.2578 178.57C96.8151 178.232 96.3672 177.711 95.9141 177.008C95.4557 176.305 94.888 175.953 94.2109 175.953C93.5599 175.953 93.2344 176.318 93.2344 177.047ZM111.203 169.234V170.875C111.203 172.958 110.474 174 109.016 174C107.943 174 107.148 173.674 106.633 173.023C106.117 172.372 105.479 172.047 104.719 172.047V174H103.391V169.312H104.719V170.875C105.63 170.875 106.37 171.201 106.938 171.852C107.51 172.503 108.091 172.828 108.68 172.828C109.477 172.828 109.875 172.177 109.875 170.875V170.094C105.552 169.156 103.391 167.594 103.391 165.406C103.391 163.323 104.693 162.281 107.297 162.281C109.901 162.281 111.203 163.323 111.203 165.406C111.203 166.859 110.479 167.586 109.031 167.586C108.703 167.586 108.438 167.51 108.234 167.359V166.188C108.604 166.297 108.906 166.352 109.141 166.352C109.63 166.352 109.875 166.036 109.875 165.406C109.875 164.104 109.016 163.453 107.297 163.453C105.578 163.453 104.719 164.104 104.719 165.406C104.719 166.969 106.88 168.245 111.203 169.234ZM108.078 158.258C108.078 158.596 108.534 158.766 109.445 158.766C110.617 158.766 111.203 158.115 111.203 156.812V155.797H112.375V156.812C112.375 158.896 111.398 159.938 109.445 159.938C107.753 159.938 106.906 159.378 106.906 158.258C106.906 157.294 107.318 156.812 108.141 156.812C108.625 156.812 108.995 156.888 109.25 157.039L109.016 157.977C108.802 157.867 108.607 157.812 108.43 157.812C108.195 157.812 108.078 157.961 108.078 158.258ZM116.438 164.039C116.547 164.039 116.638 164.005 116.711 163.938C116.789 163.87 116.828 163.773 116.828 163.648C116.828 163.523 116.789 163.427 116.711 163.359C116.638 163.292 116.547 163.258 116.438 163.258V164.039ZM127.062 165.406C127.062 165.042 126.802 164.651 126.281 164.234V163.453C126.281 162.672 126.672 162.281 127.453 162.281H128.781V163.453H127.844C127.583 163.453 127.453 163.583 127.453 163.844C128.078 164.26 128.391 164.781 128.391 165.406V170.094C128.391 172.698 127.219 174 124.875 174C123.312 174 122.271 173.422 121.75 172.266C121.229 173.422 120.188 174 118.625 174C116.281 174 115.109 172.698 115.109 170.094V163.648C115.109 163.242 115.208 162.914 115.406 162.664C115.609 162.409 115.94 162.281 116.398 162.281C116.857 162.281 117.185 162.409 117.383 162.664C117.586 162.914 117.688 163.242 117.688 163.648C117.688 164.055 117.586 164.383 117.383 164.633C117.211 164.857 116.948 164.969 116.594 164.969C116.542 164.969 116.49 164.966 116.438 164.961V170.094C116.438 171.917 117.167 172.828 118.625 172.828C120.266 172.828 121.086 171.917 121.086 170.094V165.406C121.086 165.042 120.826 164.651 120.305 164.234V163.453C120.305 162.672 120.695 162.281 121.477 162.281H122.805V163.453H121.867C121.607 163.453 121.477 163.583 121.477 163.844C122.102 164.26 122.414 164.781 122.414 165.406V170.094C122.414 171.917 123.234 172.828 124.875 172.828C126.333 172.828 127.062 171.917 127.062 170.094V165.406ZM132.297 172.828V171.656H132.102C132.044 171.656 131.997 171.682 131.961 171.734C131.924 171.781 131.906 171.951 131.906 172.242C131.906 172.534 131.924 172.706 131.961 172.758C131.997 172.805 132.044 172.828 132.102 172.828H132.297ZM133.625 165.406V172.242C133.625 172.909 133.536 173.37 133.359 173.625C133.188 173.875 132.859 174 132.375 174C131.891 174 131.56 173.875 131.383 173.625C131.211 173.37 131.125 172.909 131.125 172.242C131.125 171.576 131.211 171.117 131.383 170.867C131.56 170.612 131.799 170.484 132.102 170.484C132.169 170.484 132.234 170.49 132.297 170.5V165.406C132.193 165.042 131.932 164.651 131.516 164.234V163.453C131.516 162.672 131.906 162.281 132.688 162.281H134.016V163.453H133.078C132.818 163.453 132.688 163.583 132.688 163.844C133.312 164.26 133.625 164.781 133.625 165.406ZM132.297 177.75V174.781H133.625V179.078H132.297L131.281 178.062L130.266 179.078H128.938V174.781H130.266V177.75L131.281 176.734L132.297 177.75ZM138.859 168.531V170.094C138.859 171.917 139.719 172.828 141.438 172.828C143.156 172.828 144.016 171.917 144.016 170.094V168.531H138.859ZM138.859 167.359H144.016V165.406C144.016 165.042 143.755 164.651 143.234 164.234V163.453C143.234 162.672 143.625 162.281 144.406 162.281H145.734V163.453H144.797C144.536 163.453 144.406 163.583 144.406 163.844C145.031 164.26 145.344 164.781 145.344 165.406V170.094C145.344 172.698 144.042 174 141.438 174C138.833 174 137.531 172.698 137.531 170.094V165.406C137.531 165.042 137.271 164.651 136.75 164.234V163.453C136.75 162.672 137.141 162.281 137.922 162.281H139.25V163.453H138.312C138.052 163.453 137.922 163.583 137.922 163.844C138.547 164.26 138.859 164.781 138.859 165.406V167.359ZM150.773 172.828C150.831 172.828 150.878 172.805 150.914 172.758C150.951 172.706 150.969 172.534 150.969 172.242C150.969 171.951 150.951 171.781 150.914 171.734C150.878 171.682 150.831 171.656 150.773 171.656H150.578V172.828H150.773ZM150.578 170.5C150.641 170.49 150.706 170.484 150.773 170.484C151.076 170.484 151.312 170.612 151.484 170.867C151.661 171.117 151.75 171.576 151.75 172.242C151.75 172.909 151.661 173.37 151.484 173.625C151.312 173.875 150.984 174 150.5 174C150.016 174 149.685 173.875 149.508 173.625C149.336 173.37 149.25 172.909 149.25 172.242V165.406C149.146 165.042 148.885 164.651 148.469 164.234V163.453C148.469 162.672 148.859 162.281 149.641 162.281H150.969V163.453H150.031C149.771 163.453 149.641 163.583 149.641 163.844C150.266 164.26 150.578 164.781 150.578 165.406V170.5ZM162.297 169.234V170.875C162.297 172.958 161.568 174 160.109 174C159.036 174 158.242 173.674 157.727 173.023C157.211 172.372 156.573 172.047 155.812 172.047V174H154.484V169.312H155.812V170.875C156.724 170.875 157.464 171.201 158.031 171.852C158.604 172.503 159.185 172.828 159.773 172.828C160.57 172.828 160.969 172.177 160.969 170.875V170.094C156.646 169.156 154.484 167.594 154.484 165.406C154.484 163.323 155.786 162.281 158.391 162.281C160.995 162.281 162.297 163.323 162.297 165.406C162.297 166.859 161.573 167.586 160.125 167.586C159.797 167.586 159.531 167.51 159.328 167.359V166.188C159.698 166.297 160 166.352 160.234 166.352C160.724 166.352 160.969 166.036 160.969 165.406C160.969 164.104 160.109 163.453 158.391 163.453C156.672 163.453 155.812 164.104 155.812 165.406C155.812 166.969 157.974 168.245 162.297 169.234ZM165.656 162.656V161.031C165.656 160.562 165.448 160.328 165.031 160.328H164.641V159.156H165.422C166.464 159.156 166.984 159.677 166.984 160.719V174H165.656V165.398C165.651 164.102 165.052 163.453 163.859 163.453H162.297V162.281H163.859C164.583 162.281 165.182 162.406 165.656 162.656ZM172.219 174H170.891V168.531C170.891 165.927 172.193 164.625 174.797 164.625C177.401 164.625 178.703 165.927 178.703 168.531V174H177.375V168.531C177.375 166.708 176.516 165.797 174.797 165.797C173.078 165.797 172.219 166.708 172.219 168.531V174ZM178.703 162.281V163.453H170.891V162.281H178.703ZM176.914 176.109H173.234C172.974 176.109 172.844 176.188 172.844 176.344C172.844 176.5 172.974 176.578 173.234 176.578H176.914V176.109ZM178.164 177.984C178.32 177.984 178.424 177.964 178.477 177.922C178.529 177.885 178.555 177.839 178.555 177.781C178.555 177.724 178.523 177.68 178.461 177.648C178.393 177.622 178.294 177.604 178.164 177.594H177.93C177.93 177.854 178.008 177.984 178.164 177.984ZM177.93 175.094H179.094V176.109H177.93V176.578H178.422C178.797 176.578 179.07 176.669 179.242 176.852C179.409 177.034 179.492 177.299 179.492 177.648C179.492 178.107 179.401 178.419 179.219 178.586C179.036 178.758 178.711 178.844 178.242 178.844C177.357 178.844 176.914 178.466 176.914 177.711V177.594H172.844C172.062 177.594 171.672 177.177 171.672 176.344C171.677 175.51 172.07 175.094 172.852 175.094H176.914V174.391H177.93V175.094ZM178.703 179.469V183.375H177.375V179.469H178.703ZM188.469 163.469C188.469 163.312 188.365 163.234 188.156 163.234C187.948 163.234 187.844 163.312 187.844 163.469C187.844 163.609 187.948 163.75 188.156 163.891C188.365 163.781 188.469 163.641 188.469 163.469ZM182.414 167.359C182.357 167.359 182.31 167.385 182.273 167.438C182.237 167.484 182.219 167.654 182.219 167.945C182.219 168.237 182.237 168.409 182.273 168.461C182.31 168.508 182.357 168.531 182.414 168.531H182.609V167.359H182.414ZM183.938 172.438L186.516 170.094L189.094 172.438V166.969C189.094 166.406 188.672 165.81 187.828 165.18C187.401 165.591 186.677 165.797 185.656 165.797C184.521 165.797 183.729 165.648 183.281 165.352C182.833 165.055 182.609 164.643 182.609 164.117C182.609 163.596 182.714 163.109 182.922 162.656C183.13 162.198 183.234 161.826 183.234 161.539C183.234 161.253 182.896 161.109 182.219 161.109V159.938C183.677 159.938 184.406 160.432 184.406 161.422C184.406 161.812 184.302 162.25 184.094 162.734C183.885 163.214 183.781 163.555 183.781 163.758C183.781 163.966 183.911 164.164 184.172 164.352C184.432 164.534 184.945 164.625 185.711 164.625C186.372 164.625 186.849 164.539 187.141 164.367C186.88 164.154 186.75 163.823 186.75 163.375C186.75 162.646 187.219 162.281 188.156 162.281C189.146 162.281 189.641 162.724 189.641 163.609C189.641 164.062 189.438 164.448 189.031 164.766C189.958 165.438 190.422 166.172 190.422 166.969V174H188.859L186.516 171.656L184.172 174H182.609V169.688C182.547 169.698 182.482 169.703 182.414 169.703C182.112 169.703 181.872 169.578 181.695 169.328C181.523 169.073 181.438 168.612 181.438 167.945C181.438 167.279 181.523 166.82 181.695 166.57C181.872 166.315 182.203 166.188 182.688 166.188C183.172 166.188 183.5 166.315 183.672 166.57C183.849 166.82 183.938 167.279 183.938 167.945V172.438ZM195.656 174H194.328V168.531C194.328 165.927 195.63 164.625 198.234 164.625C200.839 164.625 202.141 165.927 202.141 168.531V174H200.812V168.531C200.812 166.708 199.953 165.797 198.234 165.797C196.516 165.797 195.656 166.708 195.656 168.531V174ZM202.141 162.281V163.453H194.328V162.281H202.141ZM202.141 162.281H203.703C205.786 162.281 206.828 163.323 206.828 165.406V174H205.5V165.406C205.5 164.104 204.901 163.453 203.703 163.453H202.141V162.281ZM211.906 171.656V172.828C212.016 172.828 212.107 172.799 212.18 172.742C212.258 172.68 212.297 172.513 212.297 172.242C212.297 171.971 212.258 171.807 212.18 171.75C212.107 171.688 212.016 171.656 211.906 171.656ZM218.547 162.281V163.453H210.734V162.281H218.547ZM210.734 168.531C210.734 165.927 212.036 164.625 214.641 164.625C217.245 164.625 218.547 165.927 218.547 168.531V174H217.219V168.531C217.219 166.708 216.359 165.797 214.641 165.797C212.922 165.797 212.062 166.708 212.062 168.531V170.562C212.182 170.51 212.32 170.484 212.477 170.484C212.633 170.484 212.797 170.625 212.969 170.906C213.146 171.182 213.234 171.628 213.234 172.242C213.234 172.857 213.12 173.305 212.891 173.586C212.667 173.862 212.365 174 211.984 174C211.604 174 211.302 173.859 211.078 173.578C210.901 173.365 210.792 173.049 210.75 172.633H210.734V168.531ZM227.375 163.875V162.281H228.703V173.961H227.375V165.297C226.557 165.891 225.698 166.188 224.797 166.188C223.234 166.188 222.453 165.536 222.453 164.234C222.453 162.932 223.026 162.281 224.172 162.281C224.589 162.281 225.005 162.503 225.422 162.945L225.031 163.938C224.693 163.615 224.432 163.453 224.25 163.453C223.938 163.453 223.781 163.714 223.781 164.234C223.781 164.755 224.12 165.016 224.797 165.016C225.719 165.016 226.578 164.635 227.375 163.875Z" fill="#344054"/>
</g>
<rect x="53.5" y="0.5" width="431" height="209" rx="8.5" stroke="#98A2B3"/>
<rect x="54" y="105" width="430" height="16" fill="#EE7D22" fill-opacity="0.24"/>
<rect x="54" y="1" width="430" height="24" fill="#EE7D22" fill-opacity="0.24"/>
<rect x="54" y="185" width="430" height="24" fill="#EE7D22" fill-opacity="0.24"/>
<path d="M41.5 0L41.5 24" stroke="#F07D03"/>
<rect y="2.5" width="37" height="18" rx="3" fill="#F07D03"/>
<path d="M6.58949 15.5V14.392L9.17827 11.995C9.39844 11.782 9.5831 11.5902 9.73224 11.4197C9.88376 11.2493 9.99858 11.0824 10.0767 10.919C10.1548 10.7533 10.1939 10.5746 10.1939 10.3828C10.1939 10.1697 10.1454 9.98627 10.0483 9.83239C9.95123 9.67614 9.81866 9.55658 9.65057 9.47372C9.48248 9.38849 9.2919 9.34588 9.07884 9.34588C8.8563 9.34588 8.66217 9.39086 8.49645 9.48082C8.33073 9.57079 8.20289 9.69981 8.11293 9.8679C8.02296 10.036 7.97798 10.236 7.97798 10.468H6.51847C6.51847 9.99219 6.62618 9.57907 6.84162 9.22869C7.05705 8.87831 7.3589 8.60724 7.74716 8.41548C8.13542 8.22372 8.58286 8.12784 9.08949 8.12784C9.61032 8.12784 10.0637 8.22017 10.4496 8.40483C10.8378 8.58712 11.1397 8.84044 11.3551 9.16477C11.5705 9.48911 11.6783 9.8608 11.6783 10.2798C11.6783 10.5545 11.6238 10.8255 11.5149 11.093C11.4084 11.3606 11.2178 11.6577 10.9432 11.9844C10.6686 12.3087 10.2815 12.6982 9.78196 13.1527L8.72017 14.1932V14.2429L11.7741 14.2429V15.5L6.58949 15.5ZM12.622 14.2216L12.622 13.0107L15.6582 8.22727H16.7022V9.90341H16.0843L14.1703 12.9325V12.9893L18.4849 12.9893V14.2216H12.622ZM16.1127 15.5V13.8523L16.1412 13.3161V8.22727H17.5829V15.5H16.1127ZM19.5236 17.5455V10.0455L21.0151 10.0455V10.9616H21.0826C21.1489 10.8149 21.2447 10.6657 21.3702 10.5142C21.498 10.3603 21.6638 10.2325 21.8674 10.1307C22.0733 10.0265 22.329 9.97443 22.6344 9.97443C23.0321 9.97443 23.3991 10.0786 23.7353 10.2869C24.0714 10.4929 24.3401 10.8042 24.5414 11.2209C24.7426 11.6352 24.8432 12.1548 24.8432 12.7798C24.8432 13.3883 24.745 13.902 24.5485 14.321C24.3543 14.7377 24.0892 15.0537 23.753 15.2692C23.4192 15.4822 23.0452 15.5888 22.6309 15.5888C22.3373 15.5888 22.0875 15.5402 21.8816 15.4432C21.678 15.3461 21.5111 15.2242 21.3809 15.0774C21.2507 14.9283 21.1512 14.7779 21.0826 14.6264H21.0364V17.5455H19.5236ZM21.0044 12.7727C21.0044 13.0971 21.0494 13.38 21.1394 13.6214C21.2293 13.8629 21.3596 14.0511 21.53 14.1861C21.7005 14.3187 21.9076 14.3849 22.1515 14.3849C22.3977 14.3849 22.606 14.3175 22.7765 14.1825C22.9469 14.0452 23.0759 13.8558 23.1635 13.6143C23.2535 13.3705 23.2985 13.09 23.2985 12.7727C23.2985 12.4579 23.2547 12.1809 23.1671 11.9418C23.0795 11.7027 22.9505 11.5156 22.78 11.3807C22.6096 11.2457 22.4 11.1783 22.1515 11.1783C21.9052 11.1783 21.6969 11.2434 21.5265 11.3736C21.3584 11.5038 21.2293 11.6884 21.1394 11.9276C21.0494 12.1667 21.0044 12.4484 21.0044 12.7727ZM26.9206 10.0455L27.9221 11.9524L28.9483 10.0455H30.5002L28.9199 12.7727L30.5428 15.5H28.998L27.9221 13.6143L26.8638 15.5H25.3013L26.9206 12.7727L25.3581 10.0455H26.9206Z" fill="white"/>
<line x1="38" y1="0.5" x2="45" y2="0.5" stroke="#F07D03"/>
<line x1="38" y1="23.5" x2="45" y2="23.5" stroke="#F07D03"/>
<path d="M41.5 185L41.5 209" stroke="#F07D03"/>
<rect y="187.5" width="37" height="18" rx="3" fill="#F07D03"/>
<path d="M6.58949 200.5V199.392L9.17827 196.995C9.39844 196.782 9.5831 196.59 9.73224 196.42C9.88376 196.249 9.99858 196.082 10.0767 195.919C10.1548 195.753 10.1939 195.575 10.1939 195.383C10.1939 195.17 10.1454 194.986 10.0483 194.832C9.95123 194.676 9.81866 194.557 9.65057 194.474C9.48248 194.388 9.2919 194.346 9.07884 194.346C8.8563 194.346 8.66217 194.391 8.49645 194.481C8.33073 194.571 8.20289 194.7 8.11293 194.868C8.02296 195.036 7.97798 195.236 7.97798 195.468H6.51847C6.51847 194.992 6.62618 194.579 6.84162 194.229C7.05705 193.878 7.3589 193.607 7.74716 193.415C8.13542 193.224 8.58286 193.128 9.08949 193.128C9.61032 193.128 10.0637 193.22 10.4496 193.405C10.8378 193.587 11.1397 193.84 11.3551 194.165C11.5705 194.489 11.6783 194.861 11.6783 195.28C11.6783 195.554 11.6238 195.826 11.5149 196.093C11.4084 196.361 11.2178 196.658 10.9432 196.984C10.6686 197.309 10.2815 197.698 9.78196 198.153L8.72017 199.193V199.243H11.7741V200.5H6.58949ZM12.622 199.222L12.622 198.011L15.6582 193.227H16.7022V194.903H16.0843L14.1703 197.933V197.989H18.4849V199.222H12.622ZM16.1127 200.5V198.852L16.1412 198.316V193.227H17.5829V200.5H16.1127ZM19.5236 202.545V195.045H21.0151V195.962H21.0826C21.1489 195.815 21.2447 195.666 21.3702 195.514C21.498 195.36 21.6638 195.232 21.8674 195.131C22.0733 195.027 22.329 194.974 22.6344 194.974C23.0321 194.974 23.3991 195.079 23.7353 195.287C24.0714 195.493 24.3401 195.804 24.5414 196.221C24.7426 196.635 24.8432 197.155 24.8432 197.78C24.8432 198.388 24.745 198.902 24.5485 199.321C24.3543 199.738 24.0892 200.054 23.753 200.269C23.4192 200.482 23.0452 200.589 22.6309 200.589C22.3373 200.589 22.0875 200.54 21.8816 200.443C21.678 200.346 21.5111 200.224 21.3809 200.077C21.2507 199.928 21.1512 199.778 21.0826 199.626H21.0364V202.545H19.5236ZM21.0044 197.773C21.0044 198.097 21.0494 198.38 21.1394 198.621C21.2293 198.863 21.3596 199.051 21.53 199.186C21.7005 199.319 21.9076 199.385 22.1515 199.385C22.3977 199.385 22.606 199.317 22.7765 199.183C22.9469 199.045 23.0759 198.856 23.1635 198.614C23.2535 198.371 23.2985 198.09 23.2985 197.773C23.2985 197.458 23.2547 197.181 23.1671 196.942C23.0795 196.703 22.9505 196.516 22.78 196.381C22.6096 196.246 22.4 196.178 22.1515 196.178C21.9052 196.178 21.6969 196.243 21.5265 196.374C21.3584 196.504 21.2293 196.688 21.1394 196.928C21.0494 197.167 21.0044 197.448 21.0044 197.773ZM26.9206 195.045L27.9221 196.952L28.9483 195.045H30.5002L28.9199 197.773L30.5428 200.5H28.998L27.9221 198.614L26.8638 200.5H25.3013L26.9206 197.773L25.3581 195.045H26.9206Z" fill="white"/>
<line x1="38" y1="185.5" x2="45" y2="185.5" stroke="#F07D03"/>
<line x1="38" y1="208.5" x2="45" y2="208.5" stroke="#F07D03"/>
<rect x="461" y="1" width="23" height="208" fill="#EE7D22" fill-opacity="0.24"/>
<rect x="54" y="1" width="24" height="208" fill="#EE7D22" fill-opacity="0.24"/>
<path d="M461 220.5L485 220.5" stroke="#F07D03"/>
<rect x="454.5" y="227" width="37" height="18" rx="3" fill="#F07D03"/>
<path d="M461.089 240L461.089 238.892L463.678 236.495C463.898 236.282 464.083 236.09 464.232 235.92C464.384 235.749 464.499 235.582 464.577 235.419C464.655 235.253 464.694 235.075 464.694 234.883C464.694 234.67 464.645 234.486 464.548 234.332C464.451 234.176 464.319 234.057 464.151 233.974C463.982 233.888 463.792 233.846 463.579 233.846C463.356 233.846 463.162 233.891 462.996 233.981C462.831 234.071 462.703 234.2 462.613 234.368C462.523 234.536 462.478 234.736 462.478 234.968L461.018 234.968C461.018 234.492 461.126 234.079 461.342 233.729C461.557 233.378 461.859 233.107 462.247 232.915C462.635 232.724 463.083 232.628 463.589 232.628C464.11 232.628 464.564 232.72 464.95 232.905C465.338 233.087 465.64 233.34 465.855 233.665C466.071 233.989 466.178 234.361 466.178 234.78C466.178 235.054 466.124 235.326 466.015 235.593C465.908 235.861 465.718 236.158 465.443 236.484C465.169 236.809 464.781 237.198 464.282 237.653L463.22 238.693L463.22 238.743L466.274 238.743L466.274 240L461.089 240ZM467.122 238.722L467.122 237.511L470.158 232.727L471.202 232.727L471.202 234.403L470.584 234.403L468.67 237.433L468.67 237.489L472.985 237.489L472.985 238.722L467.122 238.722ZM470.613 240L470.613 238.352L470.641 237.816L470.641 232.727L472.083 232.727L472.083 240L470.613 240ZM474.024 242.045L474.024 234.545L475.515 234.545L475.515 235.462L475.583 235.462C475.649 235.315 475.745 235.166 475.87 235.014C475.998 234.86 476.164 234.732 476.367 234.631C476.573 234.527 476.829 234.474 477.134 234.474C477.532 234.474 477.899 234.579 478.235 234.787C478.571 234.993 478.84 235.304 479.041 235.721C479.243 236.135 479.343 236.655 479.343 237.28C479.343 237.888 479.245 238.402 479.048 238.821C478.854 239.238 478.589 239.554 478.253 239.769C477.919 239.982 477.545 240.089 477.131 240.089C476.837 240.089 476.588 240.04 476.382 239.943C476.178 239.846 476.011 239.724 475.881 239.577C475.751 239.428 475.651 239.278 475.583 239.126L475.536 239.126L475.536 242.045L474.024 242.045ZM475.504 237.273C475.504 237.597 475.549 237.88 475.639 238.121C475.729 238.363 475.86 238.551 476.03 238.686C476.2 238.819 476.408 238.885 476.651 238.885C476.898 238.885 477.106 238.817 477.276 238.683C477.447 238.545 477.576 238.356 477.664 238.114C477.753 237.871 477.798 237.59 477.798 237.273C477.798 236.958 477.755 236.681 477.667 236.442C477.579 236.203 477.45 236.016 477.28 235.881C477.11 235.746 476.9 235.678 476.651 235.678C476.405 235.678 476.197 235.743 476.026 235.874C475.858 236.004 475.729 236.188 475.639 236.428C475.549 236.667 475.504 236.948 475.504 237.273ZM481.421 234.545L482.422 236.452L483.448 234.545L485 234.545L483.42 237.273L485.043 240L483.498 240L482.422 238.114L481.364 240L479.801 240L481.421 237.273L479.858 234.545L481.421 234.545Z" fill="white"/>
<line x1="461.5" y1="224" x2="461.5" y2="217" stroke="#F07D03"/>
<line x1="484.5" y1="224" x2="484.5" y2="217" stroke="#F07D03"/>
<path d="M53.5 220.5L77.5 220.5" stroke="#F07D03"/>
<rect x="47" y="227" width="37" height="18" rx="3" fill="#F07D03"/>
<path d="M53.5895 240L53.5895 238.892L56.1783 236.495C56.3984 236.282 56.5831 236.09 56.7322 235.92C56.8838 235.749 56.9986 235.582 57.0767 235.419C57.1548 235.253 57.1939 235.075 57.1939 234.883C57.1939 234.67 57.1454 234.486 57.0483 234.332C56.9512 234.176 56.8187 234.057 56.6506 233.974C56.4825 233.888 56.2919 233.846 56.0788 233.846C55.8563 233.846 55.6622 233.891 55.4964 233.981C55.3307 234.071 55.2029 234.2 55.1129 234.368C55.023 234.536 54.978 234.736 54.978 234.968L53.5185 234.968C53.5185 234.492 53.6262 234.079 53.8416 233.729C54.0571 233.378 54.3589 233.107 54.7472 232.915C55.1354 232.724 55.5829 232.628 56.0895 232.628C56.6103 232.628 57.0637 232.72 57.4496 232.905C57.8378 233.087 58.1397 233.34 58.3551 233.665C58.5705 233.989 58.6783 234.361 58.6783 234.78C58.6783 235.054 58.6238 235.326 58.5149 235.593C58.4084 235.861 58.2178 236.158 57.9432 236.484C57.6686 236.809 57.2815 237.198 56.782 237.653L55.7202 238.693L55.7202 238.743L58.7741 238.743L58.7741 240L53.5895 240ZM59.622 238.722L59.622 237.511L62.6582 232.727L63.7022 232.727L63.7022 234.403L63.0843 234.403L61.1703 237.433L61.1703 237.489L65.4849 237.489L65.4849 238.722L59.622 238.722ZM63.1127 240L63.1127 238.352L63.1412 237.816L63.1412 232.727L64.5829 232.727L64.5829 240L63.1127 240ZM66.5236 242.045L66.5236 234.545L68.0151 234.545L68.0151 235.462L68.0826 235.462C68.1489 235.315 68.2447 235.166 68.3702 235.014C68.498 234.86 68.6638 234.732 68.8674 234.631C69.0733 234.527 69.329 234.474 69.6344 234.474C70.0321 234.474 70.3991 234.579 70.7353 234.787C71.0714 234.993 71.3401 235.304 71.5414 235.721C71.7426 236.135 71.8432 236.655 71.8432 237.28C71.8432 237.888 71.745 238.402 71.5485 238.821C71.3543 239.238 71.0892 239.554 70.753 239.769C70.4192 239.982 70.0452 240.089 69.6309 240.089C69.3373 240.089 69.0875 240.04 68.8816 239.943C68.678 239.846 68.5111 239.724 68.3809 239.577C68.2506 239.428 68.1512 239.278 68.0826 239.126L68.0364 239.126L68.0364 242.045L66.5236 242.045ZM68.0044 237.273C68.0044 237.597 68.0494 237.88 68.1394 238.121C68.2293 238.363 68.3596 238.551 68.53 238.686C68.7005 238.819 68.9076 238.885 69.1515 238.885C69.3977 238.885 69.606 238.817 69.7765 238.683C69.9469 238.545 70.0759 238.356 70.1635 238.114C70.2535 237.871 70.2985 237.59 70.2985 237.273C70.2985 236.958 70.2547 236.681 70.1671 236.442C70.0795 236.203 69.9505 236.016 69.78 235.881C69.6096 235.746 69.4 235.678 69.1515 235.678C68.9052 235.678 68.6969 235.743 68.5265 235.874C68.3584 236.004 68.2293 236.188 68.1394 236.428C68.0494 236.667 68.0044 236.948 68.0044 237.273ZM73.9206 234.545L74.9221 236.452L75.9483 234.545L77.5002 234.545L75.9199 237.273L77.5428 240L75.998 240L74.9221 238.114L73.8638 240L72.3013 240L73.9206 237.273L72.3581 234.545L73.9206 234.545Z" fill="white"/>
<line x1="54" y1="224" x2="54" y2="217" stroke="#F07D03"/>
<line x1="77" y1="224" x2="77" y2="217" stroke="#F07D03"/>
<rect x="504" y="104" width="36" height="18" rx="3" fill="#F07D03"/>
<path d="M513.754 109.727V117H512.216V111.187H512.173L510.508 112.231V110.867L512.308 109.727H513.754ZM518.273 117.099C517.899 117.097 517.538 117.034 517.19 116.911C516.845 116.788 516.534 116.588 516.26 116.311C515.985 116.034 515.767 115.667 515.606 115.21C515.448 114.753 515.368 114.192 515.368 113.527C515.371 112.916 515.441 112.371 515.578 111.89C515.718 111.407 515.916 110.997 516.175 110.661C516.435 110.325 516.746 110.069 517.108 109.894C517.471 109.717 517.877 109.628 518.327 109.628C518.812 109.628 519.24 109.723 519.612 109.912C519.984 110.099 520.282 110.353 520.507 110.675C520.734 110.997 520.872 111.358 520.919 111.759H519.403C519.343 111.505 519.219 111.306 519.03 111.162C518.84 111.018 518.606 110.945 518.327 110.945C517.853 110.945 517.493 111.151 517.247 111.563C517.003 111.975 516.879 112.535 516.874 113.243H516.924C517.033 113.027 517.18 112.844 517.364 112.692C517.551 112.539 517.763 112.421 518 112.341C518.239 112.258 518.491 112.217 518.756 112.217C519.187 112.217 519.571 112.318 519.907 112.522C520.243 112.723 520.508 113 520.702 113.353C520.896 113.706 520.993 114.109 520.993 114.564C520.993 115.056 520.879 115.494 520.649 115.878C520.422 116.261 520.103 116.562 519.694 116.78C519.287 116.995 518.813 117.102 518.273 117.099ZM518.266 115.892C518.503 115.892 518.715 115.835 518.902 115.722C519.089 115.608 519.236 115.454 519.342 115.26C519.449 115.066 519.502 114.848 519.502 114.607C519.502 114.365 519.449 114.148 519.342 113.957C519.238 113.765 519.094 113.612 518.909 113.499C518.724 113.385 518.514 113.328 518.277 113.328C518.099 113.328 517.935 113.361 517.783 113.428C517.634 113.494 517.503 113.586 517.389 113.705C517.278 113.823 517.19 113.96 517.126 114.116C517.062 114.27 517.03 114.435 517.03 114.61C517.03 114.844 517.084 115.059 517.19 115.253C517.299 115.447 517.446 115.602 517.631 115.718C517.818 115.834 518.029 115.892 518.266 115.892ZM522.098 119.045V111.545H523.589V112.462H523.657C523.723 112.315 523.819 112.166 523.944 112.014C524.072 111.86 524.238 111.732 524.442 111.631C524.648 111.527 524.903 111.474 525.209 111.474C525.606 111.474 525.973 111.579 526.309 111.787C526.646 111.993 526.914 112.304 527.116 112.721C527.317 113.135 527.417 113.655 527.417 114.28C527.417 114.888 527.319 115.402 527.123 115.821C526.929 116.238 526.663 116.554 526.327 116.769C525.993 116.982 525.619 117.089 525.205 117.089C524.912 117.089 524.662 117.04 524.456 116.943C524.252 116.846 524.085 116.724 523.955 116.577C523.825 116.428 523.725 116.278 523.657 116.126H523.611V119.045H522.098ZM523.579 114.273C523.579 114.597 523.624 114.88 523.714 115.121C523.804 115.363 523.934 115.551 524.104 115.686C524.275 115.819 524.482 115.885 524.726 115.885C524.972 115.885 525.18 115.817 525.351 115.683C525.521 115.545 525.65 115.356 525.738 115.114C525.828 114.871 525.873 114.59 525.873 114.273C525.873 113.958 525.829 113.681 525.741 113.442C525.654 113.203 525.525 113.016 525.354 112.881C525.184 112.746 524.974 112.678 524.726 112.678C524.479 112.678 524.271 112.743 524.101 112.874C523.933 113.004 523.804 113.188 523.714 113.428C523.624 113.667 523.579 113.948 523.579 114.273ZM529.495 111.545L530.496 113.452L531.523 111.545H533.074L531.494 114.273L533.117 117H531.572L530.496 115.114L529.438 117H527.876L529.495 114.273L527.932 111.545H529.495Z" fill="white"/>
<path d="M496.5 105.5V121.5" stroke="#F07D03"/>
<line x1="493" y1="106" x2="500" y2="106" stroke="#F07D03"/>
<line x1="493" y1="121" x2="500" y2="121" stroke="#F07D03"/>
<defs>
<clipPath id="clip0_7128_9630">
<rect x="54" y="1" width="430" height="208" rx="8" fill="white"/>
</clipPath>
</defs>
</svg>
