<svg width="540" height="197" viewBox="0 0 540 197" fill="none" xmlns="http://www.w3.org/2000/svg">
<g clip-path="url(#clip0_7128_9705)">
<rect x="54" y="1" width="430" height="160" rx="8" fill="white"/>
<path d="M82.3066 44.627C82.2539 44.5508 82.1367 44.5068 81.9551 44.4951V45.4971C82.1367 45.4971 82.2539 45.459 82.3066 45.3828C82.3652 45.3008 82.3945 45.1748 82.3945 45.0049C82.3945 44.8291 82.3652 44.7031 82.3066 44.627ZM82.3945 42.9922C82.8398 43.0273 83.1709 43.2031 83.3877 43.5195C83.6045 43.8301 83.7129 44.3311 83.7129 45.0225C83.7129 45.7139 83.5605 46.2178 83.2559 46.5342C82.9512 46.8447 82.5176 47 81.9551 47C81.3926 47 80.959 46.8447 80.6543 46.5342C80.3496 46.2178 80.1973 45.7139 80.1973 45.0225V37.332C80.1973 36.8516 79.9043 36.377 79.3184 35.9082V35.1348C79.3184 34.2559 79.875 33.8164 80.9883 33.8164H82.834V35.5742H81.3398V35.6797C82.043 36.1484 82.3945 36.6992 82.3945 37.332V42.9922ZM80.9883 31.4434C81.3691 31.4434 81.5596 31.209 81.5596 30.7402C81.5596 29.6855 81.1348 29.1582 80.2852 29.1582C79.7578 29.1582 79.3623 29.2754 79.0986 29.5098L78.6592 28.1914C79.04 27.8398 79.582 27.6641 80.2852 27.6641C82.1309 27.6641 83.0537 28.6895 83.0537 30.7402C83.0537 32.2051 82.2773 32.9375 80.7246 32.9375C79.3477 32.9375 78.6592 32.3574 78.6592 31.1973C78.6592 30.7109 78.7676 30.3682 78.9844 30.1689C79.207 29.9639 79.6816 29.8613 80.4082 29.8613V31.0039C80.2383 31.0039 80.1533 31.0771 80.1533 31.2236C80.1533 31.3701 80.4316 31.4434 80.9883 31.4434ZM94.5234 38.5625C94.3828 38.5625 94.2891 38.5947 94.2422 38.6592C94.1953 38.7178 94.1719 38.7852 94.1719 38.8613C94.1719 38.9375 94.1924 38.999 94.2334 39.0459C94.2803 39.1104 94.377 39.1426 94.5234 39.1426V38.5625ZM86.7891 37.332C86.7891 36.8633 86.6426 36.3945 86.3496 35.9258V35.5742C86.3496 34.4023 87.0527 33.8164 88.459 33.8164H91.2891L93.3105 34.6953H93.8203C93.9961 34.6953 94.084 34.6367 94.084 34.5195V32.498H96.2812V34.5195C96.2812 35.8086 95.666 36.4531 94.4355 36.4531H92.6602L90.6387 35.5742H89.0742C88.7227 35.5742 88.5469 35.6328 88.5469 35.75C88.8398 36.2188 88.9863 36.7461 88.9863 37.332V44.3105L91.5352 42.1484L94.084 44.3105V40.3818C93.6152 40.3643 93.252 40.1855 92.9941 39.8457C92.7832 39.5879 92.6777 39.2627 92.6777 38.8701C92.6777 38.4775 92.8037 38.123 93.0557 37.8066C93.3076 37.4902 93.7969 37.332 94.5234 37.332C95.1914 37.332 95.6514 37.4902 95.9033 37.8066C96.1553 38.123 96.2812 38.4775 96.2812 38.8701V47H94.084L91.5352 44.5566L88.6875 47H86.7891V37.332ZM110.168 41.2607V43.4844C110.168 45.8281 109.23 47 107.355 47C105.967 47 104.982 46.6338 104.402 45.9014C103.822 45.1689 103.312 44.8027 102.873 44.8027V47H100.676V41.7266H102.873V43.0449C103.84 43.0449 104.643 43.4111 105.281 44.1436C105.926 44.876 106.491 45.2422 106.978 45.2422C107.64 45.2422 107.971 44.6562 107.971 43.4844V42.5439C103.107 41.4893 100.676 39.752 100.676 37.332C100.676 34.9883 102.258 33.8164 105.422 33.8164C108.586 33.8164 110.168 34.9883 110.168 37.332C110.168 38.9668 109.236 39.7842 107.373 39.7842C106.863 39.7842 106.447 39.6641 106.125 39.4238V37.6396C106.84 37.8506 107.297 37.9561 107.496 37.9561C107.812 37.9561 107.971 37.748 107.971 37.332C107.971 36.1602 107.121 35.5742 105.422 35.5742C103.723 35.5742 102.873 36.1602 102.873 37.332C102.873 38.8379 105.305 40.1475 110.168 41.2607ZM116.76 47H114.562V40.8477C114.562 37.918 116.145 36.4531 119.309 36.4531C122.473 36.4531 124.055 37.918 124.055 40.8477V47H121.857V40.8477C121.857 39.0898 121.008 38.2109 119.309 38.2109C117.609 38.2109 116.76 39.0898 116.76 40.8477V47ZM124.055 33.8164V35.5742H114.562V33.8164H124.055ZM124.055 33.8164H126.164C129.152 33.8164 130.646 34.9883 130.646 37.332V47H128.449V37.332C128.449 36.1602 127.688 35.5742 126.164 35.5742H124.055V33.8164ZM135.48 44.4951C135.299 44.5068 135.179 44.5508 135.12 44.627C135.067 44.7031 135.041 44.8291 135.041 45.0049C135.041 45.1748 135.067 45.3008 135.12 45.3828C135.179 45.459 135.299 45.4971 135.48 45.4971V44.4951ZM135.041 37.332C135.041 36.8516 134.748 36.377 134.162 35.9082V35.1348C134.162 34.2559 134.719 33.8164 135.832 33.8164H137.678V35.5742H136.184V35.6797C136.887 36.1484 137.238 36.6992 137.238 37.332V45.0225C137.238 45.7139 137.086 46.2178 136.781 46.5342C136.477 46.8447 136.043 47 135.48 47C134.918 47 134.484 46.8447 134.18 46.5342C133.875 46.2178 133.723 45.7139 133.723 45.0225C133.723 44.3311 133.831 43.8301 134.048 43.5195C134.265 43.2031 134.596 43.0273 135.041 42.9922V37.332ZM143.83 41.2871V42.6055C143.83 44.3633 144.68 45.2422 146.379 45.2422C148.078 45.2422 148.928 44.3633 148.928 42.6055V41.2871H143.83ZM148.928 37.332C148.928 36.8516 148.635 36.377 148.049 35.9082V35.1348C148.049 34.2559 148.605 33.8164 149.719 33.8164H151.564V35.5742H150.07V35.6797C150.773 36.1484 151.125 36.6992 151.125 37.332V42.6055C151.125 45.5352 149.543 47 146.379 47C143.215 47 141.633 45.5352 141.633 42.6055V37.332C141.633 36.8516 141.34 36.377 140.754 35.9082V35.1348C140.754 34.2559 141.311 33.8164 142.424 33.8164H144.27V35.5742H142.775V35.6797C143.479 36.1484 143.83 36.6992 143.83 37.332V39.5293H148.928V37.332ZM148.049 50.5156C148.049 50.9258 148.195 51.1309 148.488 51.1309C148.781 51.1309 148.928 50.9258 148.928 50.5156V47.8789H151.125V50.5156C151.125 51.9805 150.319 52.7129 148.708 52.7129C147.097 52.7129 146.291 51.9805 146.291 50.5156V47.8789H148.049V50.5156ZM157.277 45.4971C157.459 45.4971 157.576 45.459 157.629 45.3828C157.688 45.3008 157.717 45.1748 157.717 45.0049C157.717 44.8291 157.688 44.7031 157.629 44.627C157.576 44.5508 157.459 44.5068 157.277 44.4951V45.4971ZM155.52 38.2109C155.52 35.2812 157.008 33.8164 159.984 33.8164C162.955 33.8164 164.44 35.2812 164.44 38.2109V42.6055C164.44 44.3633 165.246 45.2422 166.857 45.2422C168.264 45.2422 168.967 44.3633 168.967 42.6055V37.332C168.967 36.8516 168.674 36.377 168.088 35.9082V35.1348C168.088 34.2559 168.645 33.8164 169.758 33.8164H171.604V35.5742H170.109V35.6797C170.812 36.1484 171.164 36.6992 171.164 37.332V42.6055C171.164 45.5352 169.729 47 166.857 47C163.781 47 162.243 45.5352 162.243 42.6055V38.2109C162.243 36.4531 161.49 35.5742 159.984 35.5742C158.473 35.5742 157.717 36.4531 157.717 38.2109V42.9922C158.162 43.0273 158.493 43.2031 158.71 43.5195C158.927 43.8301 159.035 44.3311 159.035 45.0225C159.035 45.5967 158.883 46.0713 158.578 46.4463C158.273 46.8154 157.84 47 157.277 47C156.715 47 156.281 46.8301 155.977 46.4902C155.672 46.1445 155.52 45.6553 155.52 45.0225V38.2109ZM175.559 37.7715H177.756V44.2666L180.305 41.9551L182.854 44.2666V37.7715H185.051V47H183.152L180.305 44.5566L177.457 47H175.559V37.7715ZM177.756 35.2139C177.756 35.3369 178.605 35.3984 180.305 35.3984C182.004 35.3984 182.854 34.8711 182.854 33.8164V32.498H185.051V33.8164C185.051 36.043 183.469 37.1562 180.305 37.1562C177.141 37.1562 175.559 36.5117 175.559 35.2227C175.559 34.2852 176.162 33.8164 177.369 33.8164C178.125 33.8164 178.664 33.9365 178.986 34.1768V35.1699C178.271 35.0762 177.888 35.0293 177.835 35.0293C177.782 35.0293 177.756 35.0908 177.756 35.2139ZM182.854 50.0762H180.041C179.572 50.0762 179.338 50.2959 179.338 50.7354V51.1309L181.184 50.4277L182.854 51.1309V50.0762ZM184.611 48.7578H185.49V50.0762H184.611V52.7129H183.029L181.184 51.834L179.162 52.7129H177.756V50.7354C177.756 49.417 178.43 48.7578 179.777 48.7578H182.854V47.8789H184.611V48.7578ZM185.051 33.8164H187.16C190.148 33.8164 191.643 34.9883 191.643 37.332V47H189.445V37.332C189.445 36.1602 188.684 35.5742 187.16 35.5742H185.051V33.8164ZM205.529 41.2607V43.4844C205.529 45.8281 204.592 47 202.717 47C201.328 47 200.344 46.6338 199.764 45.9014C199.184 45.1689 198.674 44.8027 198.234 44.8027V47H196.037V41.7266H198.234V43.0449C199.201 43.0449 200.004 43.4111 200.643 44.1436C201.287 44.876 201.853 45.2422 202.339 45.2422C203.001 45.2422 203.332 44.6562 203.332 43.4844V42.5439C198.469 41.4893 196.037 39.752 196.037 37.332C196.037 34.9883 197.619 33.8164 200.783 33.8164C203.947 33.8164 205.529 34.9883 205.529 37.332C205.529 38.9668 204.598 39.7842 202.734 39.7842C202.225 39.7842 201.809 39.6641 201.486 39.4238V37.6396C202.201 37.8506 202.658 37.9561 202.857 37.9561C203.174 37.9561 203.332 37.748 203.332 37.332C203.332 36.1602 202.482 35.5742 200.783 35.5742C199.084 35.5742 198.234 36.1602 198.234 37.332C198.234 38.8379 200.666 40.1475 205.529 41.2607Z" fill="#344054"/>
<path fill-rule="evenodd" clip-rule="evenodd" d="M441.614 34.6139C441.755 34.4733 441.945 34.3943 442.144 34.3943C442.343 34.3943 442.534 34.4733 442.675 34.6139L447.978 39.9172L453.281 34.6139C453.422 34.4733 453.613 34.3943 453.812 34.3943C454.01 34.3943 454.201 34.4733 454.342 34.6139C454.483 34.7546 454.562 34.9454 454.562 35.1443C454.562 35.3432 454.483 35.534 454.342 35.6746L449.039 40.9779L454.342 46.2812C454.483 46.4219 454.562 46.6126 454.562 46.8115C454.562 47.0104 454.483 47.2012 454.342 47.3419C454.201 47.4825 454.01 47.5615 453.812 47.5615C453.613 47.5615 453.422 47.4825 453.281 47.3419L447.978 42.0386L442.675 47.3419C442.534 47.4825 442.343 47.5615 442.144 47.5615C441.945 47.5615 441.755 47.4825 441.614 47.3419C441.473 47.2012 441.394 47.0104 441.394 46.8115C441.394 46.6126 441.473 46.4219 441.614 46.2812L446.917 40.9779L441.614 35.6746C441.473 35.534 441.394 35.3432 441.394 35.1443C441.394 34.9454 441.473 34.7546 441.614 34.6139Z" fill="#344054"/>
<path d="M81.125 91.6562V92.8281C81.2344 92.8281 81.3255 92.7995 81.3984 92.7422C81.4766 92.6797 81.5156 92.513 81.5156 92.2422C81.5156 91.9714 81.4766 91.8073 81.3984 91.75C81.3255 91.6875 81.2344 91.6562 81.125 91.6562ZM87.7656 82.2812V83.4531H79.9531V82.2812H87.7656ZM79.9531 88.5312C79.9531 85.9271 81.2552 84.625 83.8594 84.625C86.4635 84.625 87.7656 85.9271 87.7656 88.5312V94H86.4375V88.5312C86.4375 86.7083 85.5781 85.7969 83.8594 85.7969C82.1406 85.7969 81.2812 86.7083 81.2812 88.5312V90.5625C81.401 90.5104 81.5391 90.4844 81.6953 90.4844C81.8516 90.4844 82.0156 90.625 82.1875 90.9062C82.3646 91.1823 82.4531 91.6276 82.4531 92.2422C82.4531 92.8568 82.3385 93.3047 82.1094 93.5859C81.8854 93.862 81.5833 94 81.2031 94C80.8229 94 80.5208 93.8594 80.2969 93.5781C80.1198 93.3646 80.0104 93.0495 79.9688 92.6328H79.9531V88.5312ZM93.1953 92.8281C93.2526 92.8281 93.2995 92.8047 93.3359 92.7578C93.3724 92.7057 93.3906 92.5339 93.3906 92.2422C93.3906 91.9505 93.3724 91.7812 93.3359 91.7344C93.2995 91.6823 93.2526 91.6562 93.1953 91.6562H93V92.8281H93.1953ZM93 90.5C93.0625 90.4896 93.1276 90.4844 93.1953 90.4844C93.4974 90.4844 93.7344 90.612 93.9062 90.8672C94.0833 91.1172 94.1719 91.5755 94.1719 92.2422C94.1719 92.9089 94.0833 93.3698 93.9062 93.625C93.7344 93.875 93.4062 94 92.9219 94C92.4375 94 92.1068 93.875 91.9297 93.625C91.7578 93.3698 91.6719 92.9089 91.6719 92.2422V85.4062C91.5677 85.0417 91.3073 84.651 90.8906 84.2344V83.4531C90.8906 82.6719 91.2812 82.2812 92.0625 82.2812H93.3906V83.4531H92.4531C92.1927 83.4531 92.0625 83.5833 92.0625 83.8438C92.6875 84.2604 93 84.7812 93 85.4062V90.5ZM91.7109 77.9844C93.1172 77.9844 93.8203 78.5573 93.8203 79.7031C93.8203 80.901 93.2734 81.5 92.1797 81.5C91.2422 81.5 90.7734 81.1146 90.7734 80.3438C90.7734 79.9635 90.8698 79.6849 91.0625 79.5078C91.2604 79.3255 91.5521 79.2344 91.9375 79.2344V80.1719C91.8385 80.1719 91.7891 80.224 91.7891 80.3281C91.7891 80.4323 91.9193 80.4844 92.1797 80.4844C92.5443 80.4844 92.7266 80.224 92.7266 79.7031C92.7266 79.0781 91.9974 78.7656 90.5391 78.7656C90.6693 78.401 90.7474 78.0365 90.7734 77.6719C90.7734 77.3594 90.6693 77.2031 90.4609 77.2031H90.3047V76.4219H90.6953C91.4141 76.4219 91.7734 76.7109 91.7734 77.2891C91.7734 77.4297 91.7526 77.6615 91.7109 77.9844ZM98.2344 88.5312V90.0938C98.2344 91.9167 99.0938 92.8281 100.812 92.8281C102.531 92.8281 103.391 91.9167 103.391 90.0938V88.5312H98.2344ZM98.2344 87.3594H103.391V85.4062C103.391 85.0417 103.13 84.651 102.609 84.2344V83.4531C102.609 82.6719 103 82.2812 103.781 82.2812H105.109V83.4531H104.172C103.911 83.4531 103.781 83.5833 103.781 83.8438C104.406 84.2604 104.719 84.7812 104.719 85.4062V90.0938C104.719 92.6979 103.417 94 100.812 94C98.2083 94 96.9062 92.6979 96.9062 90.0938V85.4062C96.9062 85.0417 96.6458 84.651 96.125 84.2344V83.4531C96.125 82.6719 96.5156 82.2812 97.2969 82.2812H98.625V83.4531H97.6875C97.4271 83.4531 97.2969 83.5833 97.2969 83.8438C97.9219 84.2604 98.2344 84.7812 98.2344 85.4062V87.3594ZM98.4688 97.0469C98.4688 97.8385 98.6354 98.2344 98.9688 98.2344C99.151 98.2344 99.401 98.1797 99.7188 98.0703V98.8516C99.5677 99.0026 99.1719 99.0781 98.5312 99.0781C97.7083 99.0781 97.2969 98.401 97.2969 97.0469C97.2969 95.5365 97.9349 94.7812 99.2109 94.7812C100.305 94.7812 101.055 95.3021 101.461 96.3438C101.862 97.3854 102.245 97.9062 102.609 97.9062C102.974 97.9062 103.443 96.8646 104.016 94.7812L105.109 95.0938C104.458 97.75 103.672 99.0781 102.75 99.0781C101.875 99.0781 101.237 98.5573 100.836 97.5156C100.43 96.474 99.888 95.9531 99.2109 95.9531C98.7161 95.9531 98.4688 96.3177 98.4688 97.0469ZM108.43 88.1406C108.372 88.1406 108.326 88.1667 108.289 88.2188C108.253 88.2656 108.234 88.4349 108.234 88.7266C108.234 89.0182 108.253 89.1901 108.289 89.2422C108.326 89.2891 108.372 89.3125 108.43 89.3125H108.625V88.1406H108.43ZM115.109 85.4062C115.109 84.1042 114.25 83.4531 112.531 83.4531C110.812 83.4531 109.953 84.1042 109.953 85.4062H108.625V80.7188C108.625 80.4583 108.365 80.3281 107.844 80.3281H107.453V79.1562H107.844C109.25 79.1562 109.953 79.6771 109.953 80.7188V83.2344C110.495 82.599 111.354 82.2812 112.531 82.2812C115.135 82.2812 116.438 83.3229 116.438 85.4062V94H114.875L112.531 91.6562L110.188 94H108.625V90.4688C108.562 90.4792 108.497 90.4844 108.43 90.4844C108.128 90.4844 107.888 90.3594 107.711 90.1094C107.539 89.8542 107.453 89.3932 107.453 88.7266C107.453 88.0599 107.539 87.6016 107.711 87.3516C107.888 87.0964 108.219 86.9688 108.703 86.9688C109.188 86.9688 109.516 87.0964 109.688 87.3516C109.865 87.6016 109.953 88.0599 109.953 88.7266V92.4375L112.531 90.0938L115.109 92.4375V85.4062ZM121.672 94H120.344V88.5312C120.344 85.9271 121.646 84.625 124.25 84.625C126.854 84.625 128.156 85.9271 128.156 88.5312V94H126.828V88.5312C126.828 86.7083 125.969 85.7969 124.25 85.7969C122.531 85.7969 121.672 86.7083 121.672 88.5312V94ZM128.156 82.2812V83.4531H120.344V82.2812H128.156ZM133.234 91.6562V92.8281C133.344 92.8281 133.435 92.7995 133.508 92.7422C133.586 92.6797 133.625 92.513 133.625 92.2422C133.625 91.9714 133.586 91.8073 133.508 91.75C133.435 91.6875 133.344 91.6562 133.234 91.6562ZM139.875 82.2812V83.4531H132.062V82.2812H139.875ZM132.062 88.5312C132.062 85.9271 133.365 84.625 135.969 84.625C138.573 84.625 139.875 85.9271 139.875 88.5312V94H138.547V88.5312C138.547 86.7083 137.688 85.7969 135.969 85.7969C134.25 85.7969 133.391 86.7083 133.391 88.5312V90.5625C133.51 90.5104 133.648 90.4844 133.805 90.4844C133.961 90.4844 134.125 90.625 134.297 90.9062C134.474 91.1823 134.562 91.6276 134.562 92.2422C134.562 92.8568 134.448 93.3047 134.219 93.5859C133.995 93.862 133.693 94 133.312 94C132.932 94 132.63 93.8594 132.406 93.5781C132.229 93.3646 132.12 93.0495 132.078 92.6328H132.062V88.5312ZM139.875 82.2812H141.438C143.521 82.2812 144.562 83.3229 144.562 85.4062V94H143.234V85.4062C143.234 84.1042 142.635 83.4531 141.438 83.4531H139.875V82.2812ZM147.805 94.1719C147.732 94.3542 147.62 94.4896 147.469 94.5781C147.323 94.6719 147.174 94.7188 147.023 94.7188H146.422L151.227 82.7422C151.299 82.5703 151.398 82.4401 151.523 82.3516C151.654 82.263 151.807 82.2188 151.984 82.2188H152.578L147.805 94.1719ZM155.961 92.8281C156.018 92.8281 156.065 92.8047 156.102 92.7578C156.138 92.7057 156.156 92.5339 156.156 92.2422C156.156 91.9505 156.138 91.7812 156.102 91.7344C156.065 91.6823 156.018 91.6562 155.961 91.6562H155.766V92.8281H155.961ZM155.766 90.5C155.828 90.4896 155.893 90.4844 155.961 90.4844C156.263 90.4844 156.5 90.612 156.672 90.8672C156.849 91.1172 156.938 91.5755 156.938 92.2422C156.938 92.9089 156.849 93.3698 156.672 93.625C156.5 93.875 156.172 94 155.688 94C155.203 94 154.872 93.875 154.695 93.625C154.523 93.3698 154.438 92.9089 154.438 92.2422V85.4062C154.333 85.0417 154.073 84.651 153.656 84.2344V83.4531C153.656 82.6719 154.047 82.2812 154.828 82.2812H156.156V83.4531H155.219C154.958 83.4531 154.828 83.5833 154.828 83.8438C155.453 84.2604 155.766 84.7812 155.766 85.4062V90.5ZM154.711 80.4062C155.232 80.4062 155.492 80.1198 155.492 79.5469C155.492 78.4531 155.102 77.9062 154.32 77.9062C153.982 77.9062 153.695 78.0104 153.461 78.2188L153.07 77.2812C153.409 76.9688 153.826 76.8125 154.32 76.8125C155.831 76.8125 156.586 77.724 156.586 79.5469C156.586 80.849 155.961 81.5 154.711 81.5C153.617 81.5 153.07 81.0625 153.07 80.1875C153.07 79.7552 153.167 79.4505 153.359 79.2734C153.557 79.0911 153.901 79 154.391 79V79.9375C154.24 79.9375 154.164 80.0156 154.164 80.1719C154.164 80.3281 154.346 80.4062 154.711 80.4062ZM159.672 89.2344C163.995 88.5052 166.156 87.2292 166.156 85.4062C166.156 84.1042 165.297 83.4531 163.578 83.4531C161.859 83.4531 161 84.1042 161 85.4062C161 86.0365 161.245 86.3516 161.734 86.3516C161.969 86.3516 162.271 86.2969 162.641 86.1875V87.3594C162.438 87.5104 162.172 87.5859 161.844 87.5859C160.396 87.5859 159.672 86.8594 159.672 85.4062C159.672 83.3229 160.974 82.2812 163.578 82.2812C166.182 82.2812 167.484 83.3229 167.484 85.4062C167.484 87.5938 165.323 89.1562 161 90.0938V90.875C161 92.1771 161.859 92.8281 163.578 92.8281C165.297 92.8281 166.156 92.1771 166.156 90.875C166.156 90.0938 165.792 89.5469 165.062 89.2344L166.234 88.6094C167.068 89.0781 167.484 89.8333 167.484 90.875C167.484 92.9583 166.182 94 163.578 94C160.974 94 159.672 92.9583 159.672 90.875V89.2344ZM81.6953 126.07C81.0755 125.987 80.4922 125.818 79.9453 125.562C79.3984 125.307 78.9323 124.99 78.5469 124.609L79.1562 123.703C79.2083 123.625 79.2786 123.56 79.3672 123.508C79.4557 123.456 79.5469 123.43 79.6406 123.43C79.7604 123.43 79.8854 123.471 80.0156 123.555C80.151 123.638 80.3047 123.737 80.4766 123.852C80.6484 123.961 80.8438 124.073 81.0625 124.188C81.2812 124.297 81.5391 124.378 81.8359 124.43L82.1406 120.852C81.7604 120.742 81.3854 120.617 81.0156 120.477C80.6458 120.331 80.3125 120.141 80.0156 119.906C79.7188 119.667 79.4792 119.365 79.2969 119C79.1146 118.635 79.0234 118.182 79.0234 117.641C79.0234 117.234 79.1042 116.839 79.2656 116.453C79.4323 116.068 79.6693 115.724 79.9766 115.422C80.2891 115.115 80.6719 114.862 81.125 114.664C81.5781 114.466 82.0964 114.354 82.6797 114.328L82.7734 113.32C82.7839 113.19 82.8359 113.076 82.9297 112.977C83.0286 112.872 83.1536 112.82 83.3047 112.82H84.0312L83.8984 114.398C84.4661 114.492 84.9531 114.654 85.3594 114.883C85.7708 115.112 86.1302 115.37 86.4375 115.656L85.9531 116.383C85.8802 116.492 85.8047 116.573 85.7266 116.625C85.6536 116.677 85.5651 116.703 85.4609 116.703C85.3776 116.703 85.2812 116.68 85.1719 116.633C85.0625 116.581 84.9375 116.518 84.7969 116.445C84.6562 116.372 84.5 116.299 84.3281 116.227C84.1615 116.148 83.974 116.086 83.7656 116.039L83.4844 119.352C83.8698 119.471 84.25 119.602 84.625 119.742C85 119.883 85.3385 120.065 85.6406 120.289C85.9427 120.513 86.1849 120.792 86.3672 121.125C86.5547 121.458 86.6484 121.875 86.6484 122.375C86.6484 122.87 86.5651 123.336 86.3984 123.773C86.237 124.206 85.9974 124.589 85.6797 124.922C85.362 125.255 84.9714 125.526 84.5078 125.734C84.0443 125.943 83.513 126.068 82.9141 126.109L82.8203 127.289C82.8099 127.409 82.7552 127.521 82.6562 127.625C82.5625 127.729 82.4375 127.781 82.2812 127.781H81.5547L81.6953 126.07ZM84.7812 122.68C84.7812 122.477 84.7448 122.299 84.6719 122.148C84.599 121.997 84.4974 121.865 84.3672 121.75C84.237 121.63 84.0833 121.529 83.9062 121.445C83.7292 121.357 83.5365 121.279 83.3281 121.211L83.0625 124.453C83.625 124.38 84.0521 124.19 84.3438 123.883C84.6354 123.576 84.7812 123.174 84.7812 122.68ZM80.8906 117.445C80.8906 117.648 80.9245 117.828 80.9922 117.984C81.0651 118.141 81.1641 118.279 81.2891 118.398C81.4141 118.518 81.5599 118.625 81.7266 118.719C81.8984 118.812 82.0859 118.896 82.2891 118.969L82.5391 116.008C82.2474 116.044 81.9974 116.107 81.7891 116.195C81.5807 116.284 81.4089 116.393 81.2734 116.523C81.1432 116.648 81.0469 116.792 80.9844 116.953C80.9219 117.109 80.8906 117.273 80.8906 117.445ZM96.5 120.68C96.6615 120.68 96.7656 120.646 96.8125 120.578C96.8646 120.505 96.8906 120.44 96.8906 120.383C96.8906 120.315 96.8776 120.255 96.8516 120.203C96.8307 120.146 96.7812 120.099 96.7031 120.062C96.651 120.031 96.5833 120.01 96.5 120V120.68ZM89.2344 118.969C89.2344 118.234 89.7396 117.5 90.75 116.766C90.2604 116.385 90.0156 116 90.0156 115.609C90.0156 114.724 90.6146 114.281 91.8125 114.281C92.9583 114.281 93.5312 114.646 93.5312 115.375C93.5312 115.76 93.3568 116.096 93.0078 116.383C93.2839 116.544 93.7005 116.625 94.2578 116.625C94.9036 116.625 95.3333 116.549 95.5469 116.398C95.7656 116.242 95.875 116.029 95.875 115.758C95.875 115.513 95.7708 115.151 95.5625 114.672C95.3542 114.188 95.25 113.771 95.25 113.422C95.25 112.432 96.1875 111.938 98.0625 111.938V113.109C97.3854 113.109 97.0469 113.253 97.0469 113.539C97.0469 113.867 97.151 114.26 97.3594 114.719C97.5677 115.172 97.6719 115.638 97.6719 116.117C97.6719 116.581 97.4245 116.977 96.9297 117.305C96.4349 117.633 95.5625 117.797 94.3125 117.797C93.1458 117.797 92.4089 117.648 92.1016 117.352C91.4922 117.805 91.1875 118.344 91.1875 118.969V122.875C91.1875 123.917 91.6823 124.438 92.6719 124.438H95.8984C94.9974 123.745 94.5469 122.964 94.5469 122.094V120.141C94.5469 119.359 95.0833 118.969 96.1562 118.969C96.6406 118.969 97.0312 119.049 97.3281 119.211C97.625 119.367 97.8203 119.557 97.9141 119.781C98.013 120 98.0625 120.237 98.0625 120.492C98.0625 120.727 97.9609 120.987 97.7578 121.273C97.5599 121.56 97.1406 121.703 96.5 121.703V122.094C96.5 123.203 97.0208 124.016 98.0625 124.531V126H92.6719C90.3802 126 89.2344 124.958 89.2344 122.875V118.969ZM92 115.766C92.0625 115.714 92.0938 115.651 92.0938 115.578C92.0938 115.448 91.9896 115.383 91.7812 115.383C91.5625 115.383 91.4531 115.464 91.4531 115.625C91.4531 115.693 91.4974 115.763 91.5859 115.836L91.8281 116.008L92 115.766ZM108.891 120.219C108.891 121.224 108.781 122.099 108.562 122.844C108.349 123.589 108.052 124.203 107.672 124.688C107.292 125.172 106.841 125.534 106.32 125.773C105.799 126.008 105.24 126.125 104.641 126.125C104.036 126.125 103.477 126.008 102.961 125.773C102.445 125.534 101.997 125.172 101.617 124.688C101.242 124.203 100.948 123.589 100.734 122.844C100.521 122.099 100.414 121.224 100.414 120.219C100.414 119.203 100.521 118.326 100.734 117.586C100.948 116.841 101.242 116.227 101.617 115.742C101.997 115.258 102.445 114.898 102.961 114.664C103.477 114.424 104.036 114.305 104.641 114.305C105.24 114.305 105.799 114.424 106.32 114.664C106.841 114.898 107.292 115.258 107.672 115.742C108.052 116.227 108.349 116.841 108.562 117.586C108.781 118.326 108.891 119.203 108.891 120.219ZM106.852 120.219C106.852 119.38 106.789 118.688 106.664 118.141C106.544 117.589 106.38 117.151 106.172 116.828C105.969 116.5 105.734 116.271 105.469 116.141C105.203 116.01 104.927 115.945 104.641 115.945C104.354 115.945 104.078 116.01 103.812 116.141C103.552 116.271 103.32 116.5 103.117 116.828C102.914 117.151 102.753 117.589 102.633 118.141C102.513 118.688 102.453 119.38 102.453 120.219C102.453 121.052 102.513 121.745 102.633 122.297C102.753 122.844 102.914 123.281 103.117 123.609C103.32 123.932 103.552 124.159 103.812 124.289C104.078 124.419 104.354 124.484 104.641 124.484C104.927 124.484 105.203 124.419 105.469 124.289C105.734 124.159 105.969 123.932 106.172 123.609C106.38 123.281 106.544 122.844 106.664 122.297C106.789 121.745 106.852 121.052 106.852 120.219ZM118.172 120.219C118.172 121.224 118.062 122.099 117.844 122.844C117.63 123.589 117.333 124.203 116.953 124.688C116.573 125.172 116.122 125.534 115.602 125.773C115.081 126.008 114.521 126.125 113.922 126.125C113.318 126.125 112.758 126.008 112.242 125.773C111.727 125.534 111.279 125.172 110.898 124.688C110.523 124.203 110.229 123.589 110.016 122.844C109.802 122.099 109.695 121.224 109.695 120.219C109.695 119.203 109.802 118.326 110.016 117.586C110.229 116.841 110.523 116.227 110.898 115.742C111.279 115.258 111.727 114.898 112.242 114.664C112.758 114.424 113.318 114.305 113.922 114.305C114.521 114.305 115.081 114.424 115.602 114.664C116.122 114.898 116.573 115.258 116.953 115.742C117.333 116.227 117.63 116.841 117.844 117.586C118.062 118.326 118.172 119.203 118.172 120.219ZM116.133 120.219C116.133 119.38 116.07 118.688 115.945 118.141C115.826 117.589 115.661 117.151 115.453 116.828C115.25 116.5 115.016 116.271 114.75 116.141C114.484 116.01 114.208 115.945 113.922 115.945C113.635 115.945 113.359 116.01 113.094 116.141C112.833 116.271 112.602 116.5 112.398 116.828C112.195 117.151 112.034 117.589 111.914 118.141C111.794 118.688 111.734 119.38 111.734 120.219C111.734 121.052 111.794 121.745 111.914 122.297C112.034 122.844 112.195 123.281 112.398 123.609C112.602 123.932 112.833 124.159 113.094 124.289C113.359 124.419 113.635 124.484 113.922 124.484C114.208 124.484 114.484 124.419 114.75 124.289C115.016 124.159 115.25 123.932 115.453 123.609C115.661 123.281 115.826 122.844 115.945 122.297C116.07 121.745 116.133 121.052 116.133 120.219ZM119.156 124.914C119.156 124.747 119.188 124.591 119.25 124.445C119.312 124.294 119.398 124.167 119.508 124.062C119.617 123.953 119.745 123.867 119.891 123.805C120.042 123.737 120.203 123.703 120.375 123.703C120.536 123.703 120.693 123.737 120.844 123.805C120.995 123.867 121.122 123.953 121.227 124.062C121.336 124.167 121.422 124.294 121.484 124.445C121.547 124.591 121.578 124.747 121.578 124.914C121.578 125.086 121.547 125.245 121.484 125.391C121.422 125.536 121.336 125.664 121.227 125.773C121.122 125.878 120.995 125.958 120.844 126.016C120.693 126.078 120.536 126.109 120.375 126.109C120.203 126.109 120.042 126.078 119.891 126.016C119.745 125.958 119.617 125.878 119.508 125.773C119.398 125.664 119.312 125.536 119.25 125.391C119.188 125.245 119.156 125.086 119.156 124.914ZM131.047 120.219C131.047 121.224 130.938 122.099 130.719 122.844C130.505 123.589 130.208 124.203 129.828 124.688C129.448 125.172 128.997 125.534 128.477 125.773C127.956 126.008 127.396 126.125 126.797 126.125C126.193 126.125 125.633 126.008 125.117 125.773C124.602 125.534 124.154 125.172 123.773 124.688C123.398 124.203 123.104 123.589 122.891 122.844C122.677 122.099 122.57 121.224 122.57 120.219C122.57 119.203 122.677 118.326 122.891 117.586C123.104 116.841 123.398 116.227 123.773 115.742C124.154 115.258 124.602 114.898 125.117 114.664C125.633 114.424 126.193 114.305 126.797 114.305C127.396 114.305 127.956 114.424 128.477 114.664C128.997 114.898 129.448 115.258 129.828 115.742C130.208 116.227 130.505 116.841 130.719 117.586C130.938 118.326 131.047 119.203 131.047 120.219ZM129.008 120.219C129.008 119.38 128.945 118.688 128.82 118.141C128.701 117.589 128.536 117.151 128.328 116.828C128.125 116.5 127.891 116.271 127.625 116.141C127.359 116.01 127.083 115.945 126.797 115.945C126.51 115.945 126.234 116.01 125.969 116.141C125.708 116.271 125.477 116.5 125.273 116.828C125.07 117.151 124.909 117.589 124.789 118.141C124.669 118.688 124.609 119.38 124.609 120.219C124.609 121.052 124.669 121.745 124.789 122.297C124.909 122.844 125.07 123.281 125.273 123.609C125.477 123.932 125.708 124.159 125.969 124.289C126.234 124.419 126.51 124.484 126.797 124.484C127.083 124.484 127.359 124.419 127.625 124.289C127.891 124.159 128.125 123.932 128.328 123.609C128.536 123.281 128.701 122.844 128.82 122.297C128.945 121.745 129.008 121.052 129.008 120.219ZM136.959 126.256C135.982 126.252 135.141 126.011 134.436 125.534C133.735 125.057 133.196 124.366 132.817 123.46C132.442 122.555 132.256 121.466 132.26 120.193C132.26 118.924 132.447 117.843 132.822 116.949C133.201 116.055 133.741 115.375 134.442 114.909C135.146 114.439 135.985 114.205 136.959 114.205C137.932 114.205 138.769 114.439 139.47 114.909C140.175 115.379 140.716 116.061 141.095 116.955C141.474 117.845 141.661 118.924 141.658 120.193C141.658 121.47 141.468 122.561 141.089 123.466C140.714 124.371 140.177 125.062 139.476 125.54C138.775 126.017 137.936 126.256 136.959 126.256ZM136.959 124.216C137.625 124.216 138.158 123.881 138.555 123.21C138.953 122.54 139.15 121.534 139.146 120.193C139.146 119.311 139.055 118.576 138.874 117.989C138.696 117.402 138.442 116.96 138.112 116.665C137.786 116.369 137.402 116.222 136.959 116.222C136.296 116.222 135.766 116.553 135.368 117.216C134.97 117.879 134.769 118.871 134.766 120.193C134.766 121.087 134.855 121.833 135.033 122.432C135.214 123.027 135.47 123.473 135.8 123.773C136.129 124.068 136.516 124.216 136.959 124.216Z" fill="#344054"/>
<path d="M355.681 84V83.5H355.181H328.362C322.563 83.5 317.862 88.201 317.862 94V116C317.862 121.799 322.563 126.5 328.362 126.5H355.181H355.681V126V84Z" fill="#1C4076"/>
<path fill-rule="evenodd" clip-rule="evenodd" d="M341.579 105C341.579 105.109 341.537 105.214 341.462 105.291C341.387 105.368 341.285 105.412 341.179 105.412L332.365 105.412C332.259 105.412 332.157 105.368 332.082 105.291C332.007 105.214 331.965 105.109 331.965 105C331.965 104.891 332.007 104.786 332.082 104.709C332.157 104.632 332.259 104.588 332.365 104.588L341.179 104.588C341.285 104.588 341.387 104.632 341.462 104.709C341.537 104.786 341.579 104.891 341.579 105Z" fill="white"/>
<path d="M355.681 84V83.5H355.181H328.362C322.563 83.5 317.862 88.201 317.862 94V116C317.862 121.799 322.563 126.5 328.362 126.5H355.181H355.681V126V84Z" stroke="#98A2B3"/>
<path d="M384.963 108.906C385.088 108.906 385.171 108.88 385.213 108.828C385.255 108.771 385.275 108.708 385.275 108.641C385.275 108.573 385.257 108.518 385.221 108.477C385.179 108.419 385.093 108.391 384.963 108.391V108.906ZM383.4 101.344C383.4 99.3021 384.484 98.2812 386.65 98.2812C388.104 98.2812 388.947 98.5573 389.182 99.1094C389.416 98.5573 390.265 98.2812 391.729 98.2812C393.885 98.2812 394.963 99.3229 394.963 101.406V110H393.01V101.406C393.01 100.365 392.536 99.8438 391.588 99.8438C390.635 99.8438 390.158 100.365 390.158 101.406V110H388.205V101.406C388.205 100.365 387.731 99.8438 386.783 99.8438C385.83 99.8438 385.354 100.344 385.354 101.344H385.346L385.354 107.289C385.77 107.305 386.093 107.464 386.322 107.766C386.51 107.995 386.604 108.284 386.604 108.633C386.604 108.982 386.492 109.297 386.268 109.578C386.044 109.859 385.609 110 384.963 110C384.369 110 383.96 109.859 383.736 109.578C383.512 109.297 383.4 108.982 383.4 108.633L383.393 101.344H383.4Z" fill="#344054"/>
<rect x="355.682" y="83.5" width="67" height="43" stroke="#98A2B3"/>
<path d="M423.182 83.5H422.682V84V126V126.5H423.182H450.001C455.8 126.5 460.501 121.799 460.501 116V94C460.501 88.201 455.8 83.5 450.001 83.5H423.182Z" fill="#1C4076"/>
<path d="M448.001 111.588L439.182 111.588C436.973 111.588 435.182 109.797 435.182 107.588L435.182 102.412C435.182 100.203 436.973 98.4118 439.182 98.4118L448.001 98.4118L448.001 111.588Z" fill="#1C4076"/>
<path fill-rule="evenodd" clip-rule="evenodd" d="M441.591 109.941C441.485 109.941 441.383 109.898 441.308 109.821C441.233 109.743 441.191 109.639 441.191 109.529L441.191 105.412L437.185 105.412C437.079 105.412 436.977 105.368 436.902 105.291C436.826 105.214 436.784 105.109 436.784 105C436.784 104.891 436.826 104.786 436.902 104.709C436.977 104.632 437.079 104.588 437.185 104.588L441.191 104.588L441.191 100.471C441.191 100.361 441.233 100.257 441.308 100.179C441.383 100.102 441.485 100.059 441.591 100.059C441.698 100.059 441.799 100.102 441.875 100.179C441.95 100.257 441.992 100.361 441.992 100.471L441.992 104.588L445.998 104.588C446.104 104.588 446.206 104.632 446.281 104.709C446.356 104.786 446.398 104.891 446.398 105C446.398 105.109 446.356 105.214 446.281 105.291C446.206 105.368 446.104 105.412 445.998 105.412L441.992 105.412L441.992 109.529C441.992 109.639 441.95 109.743 441.875 109.821C441.799 109.898 441.698 109.941 441.591 109.941Z" fill="white"/>
<path d="M423.182 83.5H422.682V84V126V126.5H423.182H450.001C455.8 126.5 460.501 121.799 460.501 116V94C460.501 88.201 455.8 83.5 450.001 83.5H423.182Z" stroke="#98A2B3"/>
</g>
<rect x="53.5" y="0.5" width="431" height="161" rx="8.5" stroke="#98A2B3"/>
<rect x="54" y="1" width="430" height="24" fill="#EE7D22" fill-opacity="0.24"/>
<path d="M41.5 0L41.5 24" stroke="#F07D03"/>
<rect y="2.5" width="37" height="18" rx="3" fill="#F07D03"/>
<path d="M6.58949 15.5V14.392L9.17827 11.995C9.39844 11.782 9.5831 11.5902 9.73224 11.4197C9.88376 11.2493 9.99858 11.0824 10.0767 10.919C10.1548 10.7533 10.1939 10.5746 10.1939 10.3828C10.1939 10.1697 10.1454 9.98627 10.0483 9.83239C9.95123 9.67614 9.81866 9.55658 9.65057 9.47372C9.48248 9.38849 9.2919 9.34588 9.07884 9.34588C8.8563 9.34588 8.66217 9.39086 8.49645 9.48082C8.33073 9.57079 8.20289 9.69981 8.11293 9.8679C8.02296 10.036 7.97798 10.236 7.97798 10.468H6.51847C6.51847 9.99219 6.62618 9.57907 6.84162 9.22869C7.05705 8.87831 7.3589 8.60724 7.74716 8.41548C8.13542 8.22372 8.58286 8.12784 9.08949 8.12784C9.61032 8.12784 10.0637 8.22017 10.4496 8.40483C10.8378 8.58712 11.1397 8.84044 11.3551 9.16477C11.5705 9.48911 11.6783 9.8608 11.6783 10.2798C11.6783 10.5545 11.6238 10.8255 11.5149 11.093C11.4084 11.3606 11.2178 11.6577 10.9432 11.9844C10.6686 12.3087 10.2815 12.6982 9.78196 13.1527L8.72017 14.1932V14.2429L11.7741 14.2429V15.5L6.58949 15.5ZM12.622 14.2216L12.622 13.0107L15.6582 8.22727H16.7022V9.90341H16.0843L14.1703 12.9325V12.9893L18.4849 12.9893V14.2216H12.622ZM16.1127 15.5V13.8523L16.1412 13.3161V8.22727H17.5829V15.5H16.1127ZM19.5236 17.5455V10.0455L21.0151 10.0455V10.9616H21.0826C21.1489 10.8149 21.2447 10.6657 21.3702 10.5142C21.498 10.3603 21.6638 10.2325 21.8674 10.1307C22.0733 10.0265 22.329 9.97443 22.6344 9.97443C23.0321 9.97443 23.3991 10.0786 23.7353 10.2869C24.0714 10.4929 24.3401 10.8042 24.5414 11.2209C24.7426 11.6352 24.8432 12.1548 24.8432 12.7798C24.8432 13.3883 24.745 13.902 24.5485 14.321C24.3543 14.7377 24.0892 15.0537 23.753 15.2692C23.4192 15.4822 23.0452 15.5888 22.6309 15.5888C22.3373 15.5888 22.0875 15.5402 21.8816 15.4432C21.678 15.3461 21.5111 15.2242 21.3809 15.0774C21.2507 14.9283 21.1512 14.7779 21.0826 14.6264H21.0364V17.5455H19.5236ZM21.0044 12.7727C21.0044 13.0971 21.0494 13.38 21.1394 13.6214C21.2293 13.8629 21.3596 14.0511 21.53 14.1861C21.7005 14.3187 21.9076 14.3849 22.1515 14.3849C22.3977 14.3849 22.606 14.3175 22.7765 14.1825C22.9469 14.0452 23.0759 13.8558 23.1635 13.6143C23.2535 13.3705 23.2985 13.09 23.2985 12.7727C23.2985 12.4579 23.2547 12.1809 23.1671 11.9418C23.0795 11.7027 22.9505 11.5156 22.78 11.3807C22.6096 11.2457 22.4 11.1783 22.1515 11.1783C21.9052 11.1783 21.6969 11.2434 21.5265 11.3736C21.3584 11.5038 21.2293 11.6884 21.1394 11.9276C21.0494 12.1667 21.0044 12.4484 21.0044 12.7727ZM26.9206 10.0455L27.9221 11.9524L28.9483 10.0455H30.5002L28.9199 12.7727L30.5428 15.5H28.998L27.9221 13.6143L26.8638 15.5H25.3013L26.9206 12.7727L25.3581 10.0455H26.9206Z" fill="white"/>
<line x1="38" y1="0.5" x2="45" y2="0.5" stroke="#F07D03"/>
<line x1="38" y1="23.5" x2="45" y2="23.5" stroke="#F07D03"/>
<rect x="54" y="137" width="430" height="24" fill="#EE7D22" fill-opacity="0.24"/>
<path d="M41.5 136L41.5 160" stroke="#F07D03"/>
<rect y="138.5" width="37" height="18" rx="3" fill="#F07D03"/>
<path d="M6.58949 151.5V150.392L9.17827 147.995C9.39844 147.782 9.5831 147.59 9.73224 147.42C9.88376 147.249 9.99858 147.082 10.0767 146.919C10.1548 146.753 10.1939 146.575 10.1939 146.383C10.1939 146.17 10.1454 145.986 10.0483 145.832C9.95123 145.676 9.81866 145.557 9.65057 145.474C9.48248 145.388 9.2919 145.346 9.07884 145.346C8.8563 145.346 8.66217 145.391 8.49645 145.481C8.33073 145.571 8.20289 145.7 8.11293 145.868C8.02296 146.036 7.97798 146.236 7.97798 146.468H6.51847C6.51847 145.992 6.62618 145.579 6.84162 145.229C7.05705 144.878 7.3589 144.607 7.74716 144.415C8.13542 144.224 8.58286 144.128 9.08949 144.128C9.61032 144.128 10.0637 144.22 10.4496 144.405C10.8378 144.587 11.1397 144.84 11.3551 145.165C11.5705 145.489 11.6783 145.861 11.6783 146.28C11.6783 146.554 11.6238 146.826 11.5149 147.093C11.4084 147.361 11.2178 147.658 10.9432 147.984C10.6686 148.309 10.2815 148.698 9.78196 149.153L8.72017 150.193V150.243H11.7741V151.5H6.58949ZM12.622 150.222L12.622 149.011L15.6582 144.227H16.7022V145.903H16.0843L14.1703 148.933V148.989H18.4849V150.222H12.622ZM16.1127 151.5V149.852L16.1412 149.316V144.227H17.5829V151.5H16.1127ZM19.5236 153.545V146.045H21.0151V146.962H21.0826C21.1489 146.815 21.2447 146.666 21.3702 146.514C21.498 146.36 21.6638 146.232 21.8674 146.131C22.0733 146.027 22.329 145.974 22.6344 145.974C23.0321 145.974 23.3991 146.079 23.7353 146.287C24.0714 146.493 24.3401 146.804 24.5414 147.221C24.7426 147.635 24.8432 148.155 24.8432 148.78C24.8432 149.388 24.745 149.902 24.5485 150.321C24.3543 150.738 24.0892 151.054 23.753 151.269C23.4192 151.482 23.0452 151.589 22.6309 151.589C22.3373 151.589 22.0875 151.54 21.8816 151.443C21.678 151.346 21.5111 151.224 21.3809 151.077C21.2507 150.928 21.1512 150.778 21.0826 150.626H21.0364V153.545H19.5236ZM21.0044 148.773C21.0044 149.097 21.0494 149.38 21.1394 149.621C21.2293 149.863 21.3596 150.051 21.53 150.186C21.7005 150.319 21.9076 150.385 22.1515 150.385C22.3977 150.385 22.606 150.317 22.7765 150.183C22.9469 150.045 23.0759 149.856 23.1635 149.614C23.2535 149.371 23.2985 149.09 23.2985 148.773C23.2985 148.458 23.2547 148.181 23.1671 147.942C23.0795 147.703 22.9505 147.516 22.78 147.381C22.6096 147.246 22.4 147.178 22.1515 147.178C21.9052 147.178 21.6969 147.243 21.5265 147.374C21.3584 147.504 21.2293 147.688 21.1394 147.928C21.0494 148.167 21.0044 148.448 21.0044 148.773ZM26.9206 146.045L27.9221 147.952L28.9483 146.045H30.5002L28.9199 148.773L30.5428 151.5H28.998L27.9221 149.614L26.8638 151.5H25.3013L26.9206 148.773L25.3581 146.045H26.9206Z" fill="white"/>
<line x1="38" y1="136.5" x2="45" y2="136.5" stroke="#F07D03"/>
<line x1="38" y1="159.5" x2="45" y2="159.5" stroke="#F07D03"/>
<rect x="53" y="57" width="431" height="16" fill="#EE7D22" fill-opacity="0.24"/>
<rect x="504" y="56" width="36" height="18" rx="3" fill="#F07D03"/>
<path d="M513.754 61.7273V69H512.216V63.1868H512.173L510.508 64.2308V62.8672L512.308 61.7273H513.754ZM518.273 69.0994C517.899 69.0971 517.538 69.0343 517.19 68.9112C516.845 68.7881 516.534 68.5881 516.26 68.3111C515.985 68.0341 515.767 67.6671 515.606 67.2102C515.448 66.7533 515.368 66.1922 515.368 65.527C515.371 64.9162 515.441 64.3705 515.578 63.8899C515.718 63.407 515.916 62.9974 516.175 62.6612C516.435 62.325 516.746 62.0694 517.108 61.8942C517.471 61.7166 517.877 61.6278 518.327 61.6278C518.812 61.6278 519.24 61.7225 519.612 61.9119C519.984 62.099 520.282 62.3535 520.507 62.6754C520.734 62.9974 520.872 63.3584 520.919 63.7585H519.403C519.343 63.5052 519.219 63.3063 519.03 63.1619C518.84 63.0175 518.606 62.9453 518.327 62.9453C517.853 62.9453 517.493 63.1513 517.247 63.5632C517.003 63.9751 516.879 64.535 516.874 65.2429H516.924C517.033 65.0275 517.18 64.844 517.364 64.6925C517.551 64.5386 517.763 64.4214 518 64.3409C518.239 64.258 518.491 64.2166 518.756 64.2166C519.187 64.2166 519.571 64.3184 519.907 64.522C520.243 64.7232 520.508 65.0002 520.702 65.353C520.896 65.7057 520.993 66.1094 520.993 66.5639C520.993 67.0563 520.879 67.4943 520.649 67.8778C520.422 68.2614 520.103 68.562 519.694 68.7798C519.287 68.9953 518.813 69.1018 518.273 69.0994ZM518.266 67.892C518.503 67.892 518.715 67.8352 518.902 67.7216C519.089 67.608 519.236 67.4541 519.342 67.2599C519.449 67.0658 519.502 66.848 519.502 66.6065C519.502 66.3651 519.449 66.1484 519.342 65.9567C519.238 65.7649 519.094 65.6122 518.909 65.4986C518.724 65.3849 518.514 65.3281 518.277 65.3281C518.099 65.3281 517.935 65.3613 517.783 65.4276C517.634 65.4938 517.503 65.5862 517.389 65.7045C517.278 65.8229 517.19 65.9602 517.126 66.1165C517.062 66.2704 517.03 66.4349 517.03 66.6101C517.03 66.8445 517.084 67.0587 517.19 67.2528C517.299 67.447 517.446 67.602 517.631 67.718C517.818 67.834 518.029 67.892 518.266 67.892ZM522.098 71.0455V63.5455H523.589V64.4616H523.657C523.723 64.3149 523.819 64.1657 523.944 64.0142C524.072 63.8603 524.238 63.7325 524.442 63.6307C524.648 63.5265 524.903 63.4744 525.209 63.4744C525.606 63.4744 525.973 63.5786 526.309 63.7869C526.646 63.9929 526.914 64.3042 527.116 64.7209C527.317 65.1352 527.417 65.6548 527.417 66.2798C527.417 66.8883 527.319 67.402 527.123 67.821C526.929 68.2377 526.663 68.5537 526.327 68.7692C525.993 68.9822 525.619 69.0888 525.205 69.0888C524.912 69.0888 524.662 69.0402 524.456 68.9432C524.252 68.8461 524.085 68.7242 523.955 68.5774C523.825 68.4283 523.725 68.2779 523.657 68.1264H523.611V71.0455H522.098ZM523.579 66.2727C523.579 66.5971 523.624 66.88 523.714 67.1214C523.804 67.3629 523.934 67.5511 524.104 67.6861C524.275 67.8187 524.482 67.8849 524.726 67.8849C524.972 67.8849 525.18 67.8175 525.351 67.6825C525.521 67.5452 525.65 67.3558 525.738 67.1143C525.828 66.8705 525.873 66.59 525.873 66.2727C525.873 65.9579 525.829 65.6809 525.741 65.4418C525.654 65.2027 525.525 65.0156 525.354 64.8807C525.184 64.7457 524.974 64.6783 524.726 64.6783C524.479 64.6783 524.271 64.7434 524.101 64.8736C523.933 65.0038 523.804 65.1884 523.714 65.4276C523.624 65.6667 523.579 65.9484 523.579 66.2727ZM529.495 63.5455L530.496 65.4524L531.523 63.5455H533.074L531.494 66.2727L533.117 69H531.572L530.496 67.1143L529.438 69H527.876L529.495 66.2727L527.932 63.5455H529.495Z" fill="white"/>
<path d="M496.5 57.5V73.5" stroke="#F07D03"/>
<line x1="493" y1="58" x2="500" y2="58" stroke="#F07D03"/>
<line x1="493" y1="73" x2="500" y2="73" stroke="#F07D03"/>
<rect x="54" y="1" width="24" height="160" fill="#EE7D22" fill-opacity="0.24"/>
<rect x="460" y="1" width="24" height="160" fill="#EE7D22" fill-opacity="0.24"/>
<path d="M53.5 172.5L77.5 172.5" stroke="#F07D03"/>
<rect x="47" y="179" width="37" height="18" rx="3" fill="#F07D03"/>
<path d="M53.5895 192L53.5895 190.892L56.1783 188.495C56.3984 188.282 56.5831 188.09 56.7322 187.92C56.8838 187.749 56.9986 187.582 57.0767 187.419C57.1548 187.253 57.1939 187.075 57.1939 186.883C57.1939 186.67 57.1454 186.486 57.0483 186.332C56.9512 186.176 56.8187 186.057 56.6506 185.974C56.4825 185.888 56.2919 185.846 56.0788 185.846C55.8563 185.846 55.6622 185.891 55.4964 185.981C55.3307 186.071 55.2029 186.2 55.1129 186.368C55.023 186.536 54.978 186.736 54.978 186.968L53.5185 186.968C53.5185 186.492 53.6262 186.079 53.8416 185.729C54.0571 185.378 54.3589 185.107 54.7472 184.915C55.1354 184.724 55.5829 184.628 56.0895 184.628C56.6103 184.628 57.0637 184.72 57.4496 184.905C57.8378 185.087 58.1397 185.34 58.3551 185.665C58.5705 185.989 58.6783 186.361 58.6783 186.78C58.6783 187.054 58.6238 187.326 58.5149 187.593C58.4084 187.861 58.2178 188.158 57.9432 188.484C57.6686 188.809 57.2815 189.198 56.782 189.653L55.7202 190.693L55.7202 190.743L58.7741 190.743L58.7741 192L53.5895 192ZM59.622 190.722L59.622 189.511L62.6582 184.727L63.7022 184.727L63.7022 186.403L63.0843 186.403L61.1703 189.433L61.1703 189.489L65.4849 189.489L65.4849 190.722L59.622 190.722ZM63.1127 192L63.1127 190.352L63.1412 189.816L63.1412 184.727L64.5829 184.727L64.5829 192L63.1127 192ZM66.5236 194.045L66.5236 186.545L68.0151 186.545L68.0151 187.462L68.0826 187.462C68.1489 187.315 68.2447 187.166 68.3702 187.014C68.498 186.86 68.6638 186.732 68.8674 186.631C69.0733 186.527 69.329 186.474 69.6344 186.474C70.0321 186.474 70.3991 186.579 70.7353 186.787C71.0714 186.993 71.3401 187.304 71.5414 187.721C71.7426 188.135 71.8432 188.655 71.8432 189.28C71.8432 189.888 71.745 190.402 71.5485 190.821C71.3543 191.238 71.0892 191.554 70.753 191.769C70.4192 191.982 70.0452 192.089 69.6309 192.089C69.3373 192.089 69.0875 192.04 68.8816 191.943C68.678 191.846 68.5111 191.724 68.3809 191.577C68.2506 191.428 68.1512 191.278 68.0826 191.126L68.0364 191.126L68.0364 194.045L66.5236 194.045ZM68.0044 189.273C68.0044 189.597 68.0494 189.88 68.1394 190.121C68.2293 190.363 68.3596 190.551 68.53 190.686C68.7005 190.819 68.9076 190.885 69.1515 190.885C69.3977 190.885 69.606 190.817 69.7765 190.683C69.9469 190.545 70.0759 190.356 70.1635 190.114C70.2535 189.871 70.2985 189.59 70.2985 189.273C70.2985 188.958 70.2547 188.681 70.1671 188.442C70.0795 188.203 69.9505 188.016 69.78 187.881C69.6096 187.746 69.4 187.678 69.1515 187.678C68.9052 187.678 68.6969 187.743 68.5265 187.874C68.3584 188.004 68.2293 188.188 68.1394 188.428C68.0494 188.667 68.0044 188.948 68.0044 189.273ZM73.9206 186.545L74.9221 188.452L75.9483 186.545L77.5002 186.545L75.9199 189.273L77.5428 192L75.998 192L74.9221 190.114L73.8638 192L72.3013 192L73.9206 189.273L72.3581 186.545L73.9206 186.545Z" fill="white"/>
<line x1="54" y1="176" x2="54" y2="169" stroke="#F07D03"/>
<line x1="77" y1="176" x2="77" y2="169" stroke="#F07D03"/>
<path d="M459.5 172.5L483.5 172.5" stroke="#F07D03"/>
<rect x="453" y="179" width="37" height="18" rx="3" fill="#F07D03"/>
<path d="M459.589 192L459.589 190.892L462.178 188.495C462.398 188.282 462.583 188.09 462.732 187.92C462.884 187.749 462.999 187.582 463.077 187.419C463.155 187.253 463.194 187.075 463.194 186.883C463.194 186.67 463.145 186.486 463.048 186.332C462.951 186.176 462.819 186.057 462.651 185.974C462.482 185.888 462.292 185.846 462.079 185.846C461.856 185.846 461.662 185.891 461.496 185.981C461.331 186.071 461.203 186.2 461.113 186.368C461.023 186.536 460.978 186.736 460.978 186.968L459.518 186.968C459.518 186.492 459.626 186.079 459.842 185.729C460.057 185.378 460.359 185.107 460.747 184.915C461.135 184.724 461.583 184.628 462.089 184.628C462.61 184.628 463.064 184.72 463.45 184.905C463.838 185.087 464.14 185.34 464.355 185.665C464.571 185.989 464.678 186.361 464.678 186.78C464.678 187.054 464.624 187.326 464.515 187.593C464.408 187.861 464.218 188.158 463.943 188.484C463.669 188.809 463.281 189.198 462.782 189.653L461.72 190.693L461.72 190.743L464.774 190.743L464.774 192L459.589 192ZM465.622 190.722L465.622 189.511L468.658 184.727L469.702 184.727L469.702 186.403L469.084 186.403L467.17 189.433L467.17 189.489L471.485 189.489L471.485 190.722L465.622 190.722ZM469.113 192L469.113 190.352L469.141 189.816L469.141 184.727L470.583 184.727L470.583 192L469.113 192ZM472.524 194.045L472.524 186.545L474.015 186.545L474.015 187.462L474.083 187.462C474.149 187.315 474.245 187.166 474.37 187.014C474.498 186.86 474.664 186.732 474.867 186.631C475.073 186.527 475.329 186.474 475.634 186.474C476.032 186.474 476.399 186.579 476.735 186.787C477.071 186.993 477.34 187.304 477.541 187.721C477.743 188.135 477.843 188.655 477.843 189.28C477.843 189.888 477.745 190.402 477.548 190.821C477.354 191.238 477.089 191.554 476.753 191.769C476.419 191.982 476.045 192.089 475.631 192.089C475.337 192.089 475.088 192.04 474.882 191.943C474.678 191.846 474.511 191.724 474.381 191.577C474.251 191.428 474.151 191.278 474.083 191.126L474.036 191.126L474.036 194.045L472.524 194.045ZM474.004 189.273C474.004 189.597 474.049 189.88 474.139 190.121C474.229 190.363 474.36 190.551 474.53 190.686C474.7 190.819 474.908 190.885 475.151 190.885C475.398 190.885 475.606 190.817 475.776 190.683C475.947 190.545 476.076 190.356 476.164 190.114C476.253 189.871 476.298 189.59 476.298 189.273C476.298 188.958 476.255 188.681 476.167 188.442C476.079 188.203 475.95 188.016 475.78 187.881C475.61 187.746 475.4 187.678 475.151 187.678C474.905 187.678 474.697 187.743 474.526 187.874C474.358 188.004 474.229 188.188 474.139 188.428C474.049 188.667 474.004 188.948 474.004 189.273ZM479.921 186.545L480.922 188.452L481.948 186.545L483.5 186.545L481.92 189.273L483.543 192L481.998 192L480.922 190.114L479.864 192L478.301 192L479.921 189.273L478.358 186.545L479.921 186.545Z" fill="white"/>
<line x1="460" y1="176" x2="460" y2="169" stroke="#F07D03"/>
<line x1="483" y1="176" x2="483" y2="169" stroke="#F07D03"/>
<defs>
<clipPath id="clip0_7128_9705">
<rect x="54" y="1" width="430" height="160" rx="8" fill="white"/>
</clipPath>
</defs>
</svg>
