<svg width="259" height="207" viewBox="0 0 259 207" fill="none" xmlns="http://www.w3.org/2000/svg">
<rect x="66" y="90" width="169" height="4" fill="#98A2B3"/>
<rect x="23" y="66" width="44" height="44" rx="22" fill="#98A2B3"/>
<path d="M46.5767 82.3636V94H45.1676V83.8409H45.0994L42.2585 85.7273V84.2955L45.1676 82.3636H46.5767Z" fill="white"/>
<rect x="23" y="66" width="44" height="44" rx="22" stroke="white" stroke-width="4"/>
<path d="M4.21875 130.891C4.17188 130.823 4.06771 130.784 3.90625 130.773V131.664C4.06771 131.664 4.17188 131.63 4.21875 131.562C4.27083 131.49 4.29688 131.378 4.29688 131.227C4.29688 131.07 4.27083 130.958 4.21875 130.891ZM4.29688 129.438C4.69271 129.469 4.98698 129.625 5.17969 129.906C5.3724 130.182 5.46875 130.628 5.46875 131.242C5.46875 131.857 5.33333 132.305 5.0625 132.586C4.79167 132.862 4.40625 133 3.90625 133C3.40625 133 3.02083 132.862 2.75 132.586C2.47917 132.305 2.34375 131.857 2.34375 131.242V124.406C2.34375 123.979 2.08333 123.557 1.5625 123.141V122.453C1.5625 121.672 2.05729 121.281 3.04688 121.281H4.6875V122.844H3.35938V122.938C3.98438 123.354 4.29688 123.844 4.29688 124.406V129.438ZM9.76562 131.664C9.92708 131.664 10.0312 131.63 10.0781 131.562C10.1302 131.49 10.1562 131.378 10.1562 131.227C10.1562 131.07 10.1302 130.958 10.0781 130.891C10.0312 130.823 9.92708 130.784 9.76562 130.773V131.664ZM8.20312 125.188C8.20312 122.583 9.39583 121.281 11.7812 121.281C14.1615 121.281 15.3516 122.583 15.3516 125.188V129.094C15.3516 130.656 15.9375 131.438 17.1094 131.438C18.2812 131.438 18.8672 130.656 18.8672 129.094V124.406C18.8672 123.979 18.6068 123.557 18.0859 123.141V122.453C18.0859 121.672 18.5807 121.281 19.5703 121.281H21.2109V122.844H19.8828V122.938C20.5078 123.354 20.8203 123.844 20.8203 124.406V129.094C20.8203 130.656 21.4062 131.438 22.5781 131.438C23.5677 131.438 24.0625 130.656 24.0625 129.094V124.406C24.0625 123.979 23.8021 123.557 23.2812 123.141V122.453C23.2812 121.672 23.776 121.281 24.7656 121.281H26.4062V122.844H25.0781V122.938C25.7031 123.354 26.0156 123.844 26.0156 124.406V129.094C26.0156 131.698 24.8698 133 22.5781 133C21.0885 133 20.1771 132.633 19.8438 131.898C19.5104 132.633 18.599 133 17.1094 133C14.6354 133 13.3984 131.698 13.3984 129.094V125.188C13.3984 123.625 12.8594 122.844 11.7812 122.844C10.6979 122.844 10.1562 123.625 10.1562 125.188V129.438C10.5521 129.469 10.8464 129.625 11.0391 129.906C11.2318 130.182 11.3281 130.628 11.3281 131.242C11.3281 131.753 11.1927 132.174 10.9219 132.508C10.651 132.836 10.2656 133 9.76562 133C9.26562 133 8.88021 132.849 8.60938 132.547C8.33854 132.24 8.20312 131.805 8.20312 131.242V125.188ZM24.8438 136.125C24.8438 136.318 24.9036 136.414 25.0234 136.414C25.1484 136.414 25.2318 136.398 25.2734 136.367C25.3099 136.341 25.3281 136.307 25.3281 136.266C25.3281 136.224 25.3047 136.19 25.2578 136.164C25.2057 136.143 25.1276 136.13 25.0234 136.125H24.8438ZM24.8438 134.719H25.1016C25.4766 134.719 25.7891 134.836 26.0391 135.07C26.2839 135.305 26.4062 135.674 26.4062 136.18C26.4062 136.586 26.2891 136.898 26.0547 137.117C25.8203 137.341 25.4688 137.453 25 137.453C23.8021 137.453 23.2031 137.049 23.2031 136.242V136.125H21.5234C20.5495 136.125 19.5729 135.812 18.5938 135.188L18.9844 133.703C19.8333 134.38 20.6797 134.719 21.5234 134.719H23.2031V133.781H24.8438V134.719ZM26.0156 121.281H27.8906C30.5469 121.281 31.875 122.323 31.875 124.406V133H29.9219V124.406C29.9219 123.365 29.2448 122.844 27.8906 122.844H26.0156V121.281ZM37.1484 123.43C37.1484 123.56 37.1823 123.656 37.25 123.719C37.3125 123.786 37.4089 123.82 37.5391 123.82C37.6693 123.82 37.7656 123.786 37.8281 123.719C37.8958 123.656 37.9297 123.56 37.9297 123.43C37.9297 123.299 37.8958 123.203 37.8281 123.141C37.7656 123.073 37.6693 123.039 37.5391 123.039C37.4089 123.039 37.3125 123.073 37.25 123.141C37.1823 123.203 37.1484 123.299 37.1484 123.43ZM39.2969 123.43C39.2969 124.018 39.151 124.458 38.8594 124.75C38.5677 125.042 38.1276 125.188 37.5391 125.188C36.9505 125.188 36.5104 125.042 36.2188 124.75C35.9271 124.458 35.7812 124.018 35.7812 123.43C35.7812 122.841 35.9271 122.401 36.2188 122.109C36.5104 121.818 36.9505 121.672 37.5391 121.672C38.1276 121.672 38.5677 121.818 38.8594 122.109C39.151 122.401 39.2969 122.841 39.2969 123.43ZM37.1484 130.852C37.1484 130.982 37.1823 131.078 37.25 131.141C37.3125 131.208 37.4089 131.242 37.5391 131.242C37.6693 131.242 37.7656 131.208 37.8281 131.141C37.8958 131.078 37.9297 130.982 37.9297 130.852C37.9297 130.721 37.8958 130.625 37.8281 130.562C37.7656 130.495 37.6693 130.461 37.5391 130.461C37.4089 130.461 37.3125 130.495 37.25 130.562C37.1823 130.625 37.1484 130.721 37.1484 130.852ZM39.2969 130.852C39.2969 131.44 39.151 131.88 38.8594 132.172C38.5677 132.464 38.1276 132.609 37.5391 132.609C36.9505 132.609 36.5104 132.464 36.2188 132.172C35.9271 131.88 35.7812 131.44 35.7812 130.852C35.7812 130.263 35.9271 129.823 36.2188 129.531C36.5104 129.24 36.9505 129.094 37.5391 129.094C38.1276 129.094 38.5677 129.24 38.8594 129.531C39.151 129.823 39.2969 130.263 39.2969 130.852ZM43.2031 124.406C43.2031 123.99 43.0729 123.573 42.8125 123.156V122.844C42.8125 121.802 43.4375 121.281 44.6875 121.281H47.2031L49 122.062H49.4531C49.6094 122.062 49.6875 122.01 49.6875 121.906V120.109H51.6406V121.906C51.6406 123.052 51.0938 123.625 50 123.625H48.4219L46.625 122.844H45.2344C44.9219 122.844 44.7656 122.896 44.7656 123C45.026 123.417 45.1562 123.885 45.1562 124.406V130.609L47.4219 128.688L49.6875 130.609V124.406H51.6406V133H49.9531L47.4219 130.828L44.8906 133H43.2031V124.406ZM46.9141 117.18C46.9141 117.31 46.9479 117.406 47.0156 117.469C47.0781 117.536 47.1745 117.57 47.3047 117.57C47.4349 117.57 47.5339 117.536 47.6016 117.469C47.6641 117.406 47.6953 117.31 47.6953 117.18C47.6953 117.049 47.6641 116.953 47.6016 116.891C47.5339 116.823 47.4349 116.789 47.3047 116.789C47.1745 116.789 47.0781 116.823 47.0156 116.891C46.9479 116.953 46.9141 117.049 46.9141 117.18ZM49.0625 117.18C49.0625 117.768 48.9167 118.208 48.625 118.5C48.3333 118.792 47.8932 118.938 47.3047 118.938C46.7161 118.938 46.276 118.792 45.9844 118.5C45.6927 118.208 45.5469 117.768 45.5469 117.18C45.5469 116.591 45.6927 116.151 45.9844 115.859C46.276 115.568 46.7161 115.422 47.3047 115.422C47.8932 115.422 48.3333 115.568 48.625 115.859C48.9167 116.151 49.0625 116.591 49.0625 117.18ZM57.5 124.406V129.094C57.5 130.656 58.125 131.438 59.375 131.438C60.8073 131.438 61.5234 130.656 61.5234 129.094V125.188C61.5234 122.583 62.8438 121.281 65.4844 121.281C68.1302 121.281 69.4531 122.583 69.4531 125.188V133H67.5V125.188C67.5 123.625 66.8281 122.844 65.4844 122.844C64.1458 122.844 63.4766 123.625 63.4766 125.188V129.094C63.4766 131.698 62.1094 133 59.375 133C56.8229 133 55.5469 131.698 55.5469 129.094V124.406C55.5469 123.979 55.2865 123.557 54.7656 123.141V122.453C54.7656 121.672 55.2604 121.281 56.25 121.281H57.8906V122.844H56.5625V122.938C57.1875 123.354 57.5 123.844 57.5 124.406ZM69.4531 121.281H71.3281C73.9844 121.281 75.3125 122.323 75.3125 124.406V133H73.3594V124.406C73.3594 123.365 72.6823 122.844 71.3281 122.844H69.4531V121.281ZM87.6562 127.898V129.875C87.6562 131.958 86.8229 133 85.1562 133C83.9219 133 83.0469 132.674 82.5312 132.023C82.0156 131.372 81.5625 131.047 81.1719 131.047V133H79.2188V128.312H81.1719V129.484C82.0312 129.484 82.7448 129.81 83.3125 130.461C83.8854 131.112 84.388 131.438 84.8203 131.438C85.4089 131.438 85.7031 130.917 85.7031 129.875V129.039C81.3802 128.102 79.2188 126.557 79.2188 124.406C79.2188 122.323 80.625 121.281 83.4375 121.281C86.25 121.281 87.6562 122.323 87.6562 124.406C87.6562 125.859 86.8281 126.586 85.1719 126.586C84.7188 126.586 84.349 126.479 84.0625 126.266V124.68C84.6979 124.867 85.1042 124.961 85.2812 124.961C85.5625 124.961 85.7031 124.776 85.7031 124.406C85.7031 123.365 84.9479 122.844 83.4375 122.844C81.9271 122.844 81.1719 123.365 81.1719 124.406C81.1719 125.745 83.3333 126.909 87.6562 127.898Z" fill="#344054"/>
<circle cx="45" cy="191" r="12" fill="#344054"/>
<path d="M39.9432 197V195.227L44.0852 191.392C44.4375 191.051 44.733 190.744 44.9716 190.472C45.214 190.199 45.3977 189.932 45.5227 189.67C45.6477 189.405 45.7102 189.119 45.7102 188.812C45.7102 188.472 45.6326 188.178 45.4773 187.932C45.322 187.682 45.1098 187.491 44.8409 187.358C44.572 187.222 44.267 187.153 43.9261 187.153C43.5701 187.153 43.2595 187.225 42.9943 187.369C42.7292 187.513 42.5246 187.72 42.3807 187.989C42.2367 188.258 42.1648 188.578 42.1648 188.949H39.8295C39.8295 188.187 40.0019 187.527 40.3466 186.966C40.6913 186.405 41.1742 185.972 41.7955 185.665C42.4167 185.358 43.1326 185.205 43.9432 185.205C44.7765 185.205 45.5019 185.352 46.1193 185.648C46.7405 185.939 47.2235 186.345 47.5682 186.864C47.9129 187.383 48.0852 187.977 48.0852 188.648C48.0852 189.087 47.9981 189.521 47.8239 189.949C47.6534 190.377 47.3485 190.852 46.9091 191.375C46.4697 191.894 45.8504 192.517 45.0511 193.244L43.3523 194.909V194.989H48.2386V197H39.9432Z" fill="white"/>
<path d="M45 180L45 141" stroke="#344054" stroke-dasharray="2 2"/>
<circle cx="247" cy="140" r="12" fill="#344054"/>
<path d="M246.244 146.159C245.396 146.159 244.64 146.013 243.977 145.722C243.318 145.426 242.797 145.021 242.415 144.506C242.036 143.987 241.841 143.388 241.83 142.71H244.307C244.322 142.994 244.415 143.244 244.585 143.46C244.759 143.672 244.991 143.837 245.278 143.955C245.566 144.072 245.89 144.131 246.25 144.131C246.625 144.131 246.956 144.064 247.244 143.932C247.532 143.799 247.758 143.616 247.92 143.381C248.083 143.146 248.165 142.875 248.165 142.568C248.165 142.258 248.078 141.983 247.903 141.744C247.733 141.502 247.487 141.312 247.165 141.176C246.847 141.04 246.468 140.972 246.028 140.972H244.943V139.165H246.028C246.4 139.165 246.727 139.1 247.011 138.972C247.299 138.843 247.523 138.665 247.682 138.438C247.841 138.206 247.92 137.938 247.92 137.631C247.92 137.339 247.85 137.083 247.71 136.864C247.574 136.64 247.381 136.466 247.131 136.341C246.884 136.216 246.597 136.153 246.267 136.153C245.934 136.153 245.629 136.214 245.352 136.335C245.076 136.453 244.854 136.621 244.688 136.841C244.521 137.061 244.432 137.318 244.42 137.614H242.062C242.074 136.943 242.265 136.352 242.636 135.841C243.008 135.33 243.508 134.93 244.136 134.642C244.769 134.35 245.483 134.205 246.278 134.205C247.081 134.205 247.784 134.35 248.386 134.642C248.989 134.934 249.456 135.328 249.79 135.824C250.127 136.316 250.294 136.869 250.29 137.483C250.294 138.134 250.091 138.678 249.682 139.114C249.277 139.549 248.748 139.826 248.097 139.943V140.034C248.953 140.144 249.604 140.441 250.051 140.926C250.502 141.407 250.725 142.009 250.722 142.733C250.725 143.396 250.534 143.985 250.148 144.5C249.765 145.015 249.237 145.42 248.562 145.716C247.888 146.011 247.116 146.159 246.244 146.159Z" fill="white"/>
<path d="M247 129L247 90" stroke="#344054" stroke-dasharray="2 2"/>
<circle cx="92" cy="16" r="12" fill="#344054"/>
<path d="M94.0057 10.3636V22H91.5455V12.6989H91.4773L88.8125 14.3693V12.1875L91.6932 10.3636H94.0057Z" fill="white"/>
<path d="M89 16H45V66" stroke="#344054" stroke-dasharray="2 2"/>
</svg>
