<svg width="235" height="80" viewBox="0 0 235 80" fill="none" xmlns="http://www.w3.org/2000/svg">
<rect x="23" y="2" width="44" height="44" rx="22" fill="#98A2B3"/>
<path d="M46.5767 18.3636V30H45.1676V19.8409H45.0994L42.2585 21.7273V20.2955L45.1676 18.3636H46.5767Z" fill="white"/>
<rect x="23" y="2" width="44" height="44" rx="22" stroke="white" stroke-width="4"/>
<path d="M4.21875 66.8906C4.17188 66.8229 4.06771 66.7839 3.90625 66.7734V67.6641C4.06771 67.6641 4.17188 67.6302 4.21875 67.5625C4.27083 67.4896 4.29688 67.3776 4.29688 67.2266C4.29688 67.0703 4.27083 66.9583 4.21875 66.8906ZM4.29688 65.4375C4.69271 65.4688 4.98698 65.625 5.17969 65.9062C5.3724 66.1823 5.46875 66.6276 5.46875 67.2422C5.46875 67.8568 5.33333 68.3047 5.0625 68.5859C4.79167 68.862 4.40625 69 3.90625 69C3.40625 69 3.02083 68.862 2.75 68.5859C2.47917 68.3047 2.34375 67.8568 2.34375 67.2422V60.4062C2.34375 59.9792 2.08333 59.5573 1.5625 59.1406V58.4531C1.5625 57.6719 2.05729 57.2812 3.04688 57.2812H4.6875V58.8438H3.35938V58.9375C3.98438 59.3542 4.29688 59.8438 4.29688 60.4062V65.4375ZM9.76562 67.6641C9.92708 67.6641 10.0312 67.6302 10.0781 67.5625C10.1302 67.4896 10.1562 67.3776 10.1562 67.2266C10.1562 67.0703 10.1302 66.9583 10.0781 66.8906C10.0312 66.8229 9.92708 66.7839 9.76562 66.7734V67.6641ZM8.20312 61.1875C8.20312 58.5833 9.39583 57.2812 11.7812 57.2812C14.1615 57.2812 15.3516 58.5833 15.3516 61.1875V65.0938C15.3516 66.6562 15.9375 67.4375 17.1094 67.4375C18.2812 67.4375 18.8672 66.6562 18.8672 65.0938V60.4062C18.8672 59.9792 18.6068 59.5573 18.0859 59.1406V58.4531C18.0859 57.6719 18.5807 57.2812 19.5703 57.2812H21.2109V58.8438H19.8828V58.9375C20.5078 59.3542 20.8203 59.8438 20.8203 60.4062V65.0938C20.8203 66.6562 21.4062 67.4375 22.5781 67.4375C23.5677 67.4375 24.0625 66.6562 24.0625 65.0938V60.4062C24.0625 59.9792 23.8021 59.5573 23.2812 59.1406V58.4531C23.2812 57.6719 23.776 57.2812 24.7656 57.2812H26.4062V58.8438H25.0781V58.9375C25.7031 59.3542 26.0156 59.8438 26.0156 60.4062V65.0938C26.0156 67.6979 24.8698 69 22.5781 69C21.0885 69 20.1771 68.6328 19.8438 67.8984C19.5104 68.6328 18.599 69 17.1094 69C14.6354 69 13.3984 67.6979 13.3984 65.0938V61.1875C13.3984 59.625 12.8594 58.8438 11.7812 58.8438C10.6979 58.8438 10.1562 59.625 10.1562 61.1875V65.4375C10.5521 65.4688 10.8464 65.625 11.0391 65.9062C11.2318 66.1823 11.3281 66.6276 11.3281 67.2422C11.3281 67.7526 11.1927 68.1745 10.9219 68.5078C10.651 68.8359 10.2656 69 9.76562 69C9.26562 69 8.88021 68.849 8.60938 68.5469C8.33854 68.2396 8.20312 67.8047 8.20312 67.2422V61.1875ZM24.8438 72.125C24.8438 72.3177 24.9036 72.4141 25.0234 72.4141C25.1484 72.4141 25.2318 72.3984 25.2734 72.3672C25.3099 72.3411 25.3281 72.3073 25.3281 72.2656C25.3281 72.224 25.3047 72.1901 25.2578 72.1641C25.2057 72.1432 25.1276 72.1302 25.0234 72.125H24.8438ZM24.8438 70.7188H25.1016C25.4766 70.7188 25.7891 70.8359 26.0391 71.0703C26.2839 71.3047 26.4062 71.6745 26.4062 72.1797C26.4062 72.5859 26.2891 72.8984 26.0547 73.1172C25.8203 73.3411 25.4688 73.4531 25 73.4531C23.8021 73.4531 23.2031 73.0495 23.2031 72.2422V72.125H21.5234C20.5495 72.125 19.5729 71.8125 18.5938 71.1875L18.9844 69.7031C19.8333 70.3802 20.6797 70.7188 21.5234 70.7188H23.2031V69.7812H24.8438V70.7188ZM26.0156 57.2812H27.8906C30.5469 57.2812 31.875 58.3229 31.875 60.4062V69H29.9219V60.4062C29.9219 59.3646 29.2448 58.8438 27.8906 58.8438H26.0156V57.2812ZM37.1484 59.4297C37.1484 59.5599 37.1823 59.6562 37.25 59.7188C37.3125 59.7865 37.4089 59.8203 37.5391 59.8203C37.6693 59.8203 37.7656 59.7865 37.8281 59.7188C37.8958 59.6562 37.9297 59.5599 37.9297 59.4297C37.9297 59.2995 37.8958 59.2031 37.8281 59.1406C37.7656 59.0729 37.6693 59.0391 37.5391 59.0391C37.4089 59.0391 37.3125 59.0729 37.25 59.1406C37.1823 59.2031 37.1484 59.2995 37.1484 59.4297ZM39.2969 59.4297C39.2969 60.0182 39.151 60.4583 38.8594 60.75C38.5677 61.0417 38.1276 61.1875 37.5391 61.1875C36.9505 61.1875 36.5104 61.0417 36.2188 60.75C35.9271 60.4583 35.7812 60.0182 35.7812 59.4297C35.7812 58.8411 35.9271 58.401 36.2188 58.1094C36.5104 57.8177 36.9505 57.6719 37.5391 57.6719C38.1276 57.6719 38.5677 57.8177 38.8594 58.1094C39.151 58.401 39.2969 58.8411 39.2969 59.4297ZM37.1484 66.8516C37.1484 66.9818 37.1823 67.0781 37.25 67.1406C37.3125 67.2083 37.4089 67.2422 37.5391 67.2422C37.6693 67.2422 37.7656 67.2083 37.8281 67.1406C37.8958 67.0781 37.9297 66.9818 37.9297 66.8516C37.9297 66.7214 37.8958 66.625 37.8281 66.5625C37.7656 66.4948 37.6693 66.4609 37.5391 66.4609C37.4089 66.4609 37.3125 66.4948 37.25 66.5625C37.1823 66.625 37.1484 66.7214 37.1484 66.8516ZM39.2969 66.8516C39.2969 67.4401 39.151 67.8802 38.8594 68.1719C38.5677 68.4635 38.1276 68.6094 37.5391 68.6094C36.9505 68.6094 36.5104 68.4635 36.2188 68.1719C35.9271 67.8802 35.7812 67.4401 35.7812 66.8516C35.7812 66.263 35.9271 65.8229 36.2188 65.5312C36.5104 65.2396 36.9505 65.0938 37.5391 65.0938C38.1276 65.0938 38.5677 65.2396 38.8594 65.5312C39.151 65.8229 39.2969 66.263 39.2969 66.8516ZM43.2031 60.4062C43.2031 59.9896 43.0729 59.5729 42.8125 59.1562V58.8438C42.8125 57.8021 43.4375 57.2812 44.6875 57.2812H47.2031L49 58.0625H49.4531C49.6094 58.0625 49.6875 58.0104 49.6875 57.9062V56.1094H51.6406V57.9062C51.6406 59.0521 51.0938 59.625 50 59.625H48.4219L46.625 58.8438H45.2344C44.9219 58.8438 44.7656 58.8958 44.7656 59C45.026 59.4167 45.1562 59.8854 45.1562 60.4062V66.6094L47.4219 64.6875L49.6875 66.6094V60.4062H51.6406V69H49.9531L47.4219 66.8281L44.8906 69H43.2031V60.4062ZM46.9141 53.1797C46.9141 53.3099 46.9479 53.4062 47.0156 53.4688C47.0781 53.5365 47.1745 53.5703 47.3047 53.5703C47.4349 53.5703 47.5339 53.5365 47.6016 53.4688C47.6641 53.4062 47.6953 53.3099 47.6953 53.1797C47.6953 53.0495 47.6641 52.9531 47.6016 52.8906C47.5339 52.8229 47.4349 52.7891 47.3047 52.7891C47.1745 52.7891 47.0781 52.8229 47.0156 52.8906C46.9479 52.9531 46.9141 53.0495 46.9141 53.1797ZM49.0625 53.1797C49.0625 53.7682 48.9167 54.2083 48.625 54.5C48.3333 54.7917 47.8932 54.9375 47.3047 54.9375C46.7161 54.9375 46.276 54.7917 45.9844 54.5C45.6927 54.2083 45.5469 53.7682 45.5469 53.1797C45.5469 52.5911 45.6927 52.151 45.9844 51.8594C46.276 51.5677 46.7161 51.4219 47.3047 51.4219C47.8932 51.4219 48.3333 51.5677 48.625 51.8594C48.9167 52.151 49.0625 52.5911 49.0625 53.1797ZM57.5 60.4062V65.0938C57.5 66.6562 58.125 67.4375 59.375 67.4375C60.8073 67.4375 61.5234 66.6562 61.5234 65.0938V61.1875C61.5234 58.5833 62.8438 57.2812 65.4844 57.2812C68.1302 57.2812 69.4531 58.5833 69.4531 61.1875V69H67.5V61.1875C67.5 59.625 66.8281 58.8438 65.4844 58.8438C64.1458 58.8438 63.4766 59.625 63.4766 61.1875V65.0938C63.4766 67.6979 62.1094 69 59.375 69C56.8229 69 55.5469 67.6979 55.5469 65.0938V60.4062C55.5469 59.9792 55.2865 59.5573 54.7656 59.1406V58.4531C54.7656 57.6719 55.2604 57.2812 56.25 57.2812H57.8906V58.8438H56.5625V58.9375C57.1875 59.3542 57.5 59.8438 57.5 60.4062ZM69.4531 57.2812H71.3281C73.9844 57.2812 75.3125 58.3229 75.3125 60.4062V69H73.3594V60.4062C73.3594 59.3646 72.6823 58.8438 71.3281 58.8438H69.4531V57.2812ZM87.6562 63.8984V65.875C87.6562 67.9583 86.8229 69 85.1562 69C83.9219 69 83.0469 68.6745 82.5312 68.0234C82.0156 67.3724 81.5625 67.0469 81.1719 67.0469V69H79.2188V64.3125H81.1719V65.4844C82.0312 65.4844 82.7448 65.8099 83.3125 66.4609C83.8854 67.112 84.388 67.4375 84.8203 67.4375C85.4089 67.4375 85.7031 66.9167 85.7031 65.875V65.0391C81.3802 64.1016 79.2188 62.5573 79.2188 60.4062C79.2188 58.3229 80.625 57.2812 83.4375 57.2812C86.25 57.2812 87.6562 58.3229 87.6562 60.4062C87.6562 61.8594 86.8281 62.5859 85.1719 62.5859C84.7188 62.5859 84.349 62.4792 84.0625 62.2656V60.6797C84.6979 60.8672 85.1042 60.9609 85.2812 60.9609C85.5625 60.9609 85.7031 60.776 85.7031 60.4062C85.7031 59.3646 84.9479 58.8438 83.4375 58.8438C81.9271 58.8438 81.1719 59.3646 81.1719 60.4062C81.1719 61.7448 83.3333 62.9089 87.6562 63.8984Z" fill="#344054"/>
<rect x="2" y="48" width="88" height="4" fill="#EE7D22" fill-opacity="0.24"/>
<path d="M97.5 48V52" stroke="#F07D03"/>
<rect x="104" y="42.5" width="31" height="18" rx="3" fill="#F07D03"/>
<path d="M110.479 54.2216V53.0107L113.516 48.2273H114.56V49.9034H113.942L112.028 52.9325V52.9893H116.342V54.2216H110.479ZM113.97 55.5V53.8523L113.999 53.3161V48.2273H115.44V55.5H113.97ZM117.381 57.5455V50.0455H118.873V50.9616H118.94C119.006 50.8149 119.102 50.6657 119.228 50.5142C119.355 50.3603 119.521 50.2325 119.725 50.1307C119.931 50.0265 120.186 49.9744 120.492 49.9744C120.89 49.9744 121.257 50.0786 121.593 50.2869C121.929 50.4929 122.198 50.8042 122.399 51.2209C122.6 51.6352 122.701 52.1548 122.701 52.7798C122.701 53.3883 122.602 53.902 122.406 54.321C122.212 54.7377 121.947 55.0537 121.61 55.2692C121.277 55.4822 120.903 55.5888 120.488 55.5888C120.195 55.5888 119.945 55.5402 119.739 55.4432C119.535 55.3461 119.368 55.2242 119.238 55.0774C119.108 54.9283 119.009 54.7779 118.94 54.6264H118.894V57.5455H117.381ZM118.862 52.7727C118.862 53.0971 118.907 53.38 118.997 53.6214C119.087 53.8629 119.217 54.0511 119.387 54.1861C119.558 54.3187 119.765 54.3849 120.009 54.3849C120.255 54.3849 120.463 54.3175 120.634 54.1825C120.804 54.0452 120.933 53.8558 121.021 53.6143C121.111 53.3705 121.156 53.09 121.156 52.7727C121.156 52.4579 121.112 52.1809 121.025 51.9418C120.937 51.7027 120.808 51.5156 120.637 51.3807C120.467 51.2457 120.257 51.1783 120.009 51.1783C119.763 51.1783 119.554 51.2434 119.384 51.3736C119.216 51.5038 119.087 51.6884 118.997 51.9276C118.907 52.1667 118.862 52.4484 118.862 52.7727ZM124.778 50.0455L125.779 51.9524L126.806 50.0455H128.358L126.777 52.7727L128.4 55.5H126.855L125.779 53.6143L124.721 55.5H123.159L124.778 52.7727L123.216 50.0455H124.778Z" fill="white"/>
<line x1="94" y1="48.5" x2="101" y2="48.5" stroke="#F07D03"/>
<line x1="94" y1="51.5" x2="101" y2="51.5" stroke="#F07D03"/>
</svg>
