<svg width="254" height="135" viewBox="0 0 254 135" fill="none" xmlns="http://www.w3.org/2000/svg">
<rect x="0.5" y="47.5" width="189" height="87" rx="4.5" fill="white"/>
<path fill-rule="evenodd" clip-rule="evenodd" d="M16.2877 74.7123C17.2723 75.6969 18.6076 76.25 20 76.25C21.3924 76.25 22.7277 75.6969 23.7123 74.7123C24.6969 73.7277 25.25 72.3924 25.25 71C25.25 69.6076 24.6969 68.2723 23.7123 67.2877C22.7277 66.3031 21.3924 65.75 20 65.75C18.6076 65.75 17.2723 66.3031 16.2877 67.2877C15.3031 68.2723 14.75 69.6076 14.75 71C14.75 72.3924 15.3031 73.7277 16.2877 74.7123ZM24.2426 75.2426C23.1174 76.3679 21.5913 77 20 77C18.4087 77 16.8826 76.3679 15.7574 75.2426C14.6321 74.1174 14 72.5913 14 71C14 69.4087 14.6321 67.8826 15.7574 66.7574C16.8826 65.6321 18.4087 65 20 65C21.5913 65 23.1174 65.6321 24.2426 66.7574C25.3679 67.8826 26 69.4087 26 71C26 72.5913 25.3679 74.1174 24.2426 75.2426ZM16.637 74.3488C14.813 72.5248 14.7958 69.5783 16.5852 67.733L23.2528 74.4006C21.4076 76.1901 18.461 76.1728 16.637 74.3488Z" fill="#344054"/>
<path d="M51.0469 67.4062V77.9531C51.0469 79.2552 51.6068 79.9062 52.7266 79.9062C53.8464 79.9062 54.4062 79.2552 54.4062 77.9531V76.7812H55.7344V77.9531C55.7344 80.0365 54.7318 81.0781 52.7266 81.0781C50.7214 81.0781 49.7188 80.0365 49.7188 77.9531V67.4062C49.7188 67.0417 49.4583 66.651 48.9375 66.2344V65.4531C48.9375 64.6719 49.3281 64.2812 50.1094 64.2812H51.4375V65.4531H50.5C50.2396 65.4531 50.1094 65.5833 50.1094 65.8438C50.7344 66.2604 51.0469 66.7812 51.0469 67.4062ZM60.8906 67.4062C60.8906 67.0417 60.6302 66.651 60.1094 66.2344V65.4531C60.1094 64.6719 60.5 64.2812 61.2812 64.2812H62.6094V65.4531H61.6719C61.4115 65.4531 61.2812 65.5833 61.2812 65.8438C61.9062 66.2604 62.2188 66.7812 62.2188 67.4062V72.0938C62.2188 74.6979 60.9167 76 58.3125 76C55.7083 76 54.4062 74.6979 54.4062 72.0938V67.4062C54.4062 67.0417 54.1458 66.651 53.625 66.2344V65.4531C53.625 64.6719 54.0156 64.2812 54.7969 64.2812H56.125V65.4531H55.1875C54.9271 65.4531 54.7969 65.5833 54.7969 65.8438C55.4219 66.2604 55.7344 66.7812 55.7344 67.4062V72.0938C55.7344 73.9167 56.5938 74.8281 58.3125 74.8281C60.0312 74.8281 60.8906 73.9167 60.8906 72.0938V67.4062ZM72.6094 68.3828C72.5 68.3828 72.4062 68.4167 72.3281 68.4844C72.2552 68.5521 72.2188 68.6484 72.2188 68.7734C72.2188 68.8984 72.2552 68.9948 72.3281 69.0625C72.4062 69.1302 72.5 69.1641 72.6094 69.1641V68.3828ZM72.6094 70.0859C72.5573 70.0911 72.5052 70.0938 72.4531 70.0938C72.099 70.0938 71.8359 69.9818 71.6641 69.7578C71.4609 69.5078 71.3594 69.1797 71.3594 68.7734C71.3594 68.3672 71.4583 68.0391 71.6562 67.7891C71.8594 67.5339 72.1901 67.4062 72.6484 67.4062C73.1068 67.4062 73.4349 67.5339 73.6328 67.7891C73.8359 68.0391 73.9375 68.3672 73.9375 68.7734V76H72.7656L70.0312 73.6562L67.2969 76H66.125V67.4062C66.125 67.0417 65.9948 66.651 65.7344 66.2344V65.8438C65.7344 64.8021 66.2552 64.2812 67.2969 64.2812H73.9375V65.4531H67.8438C67.3229 65.4531 67.0625 65.6094 67.0625 65.9219C67.3229 66.3385 67.4531 66.8333 67.4531 67.4062V74.4375L70.0312 72.25L72.6094 74.4375V70.0859ZM73.9375 64.2812H75.5C77.5833 64.2812 78.625 65.3229 78.625 67.4062V76H77.2969V67.4062C77.2969 66.1042 76.6979 65.4531 75.5 65.4531H73.9375V64.2812ZM90.3438 71.2344V72.875C90.3438 74.9583 89.6146 76 88.1562 76C87.0833 76 86.2891 75.6745 85.7734 75.0234C85.2578 74.3724 84.6198 74.0469 83.8594 74.0469V76H82.5312V71.3125H83.8594V72.875C84.7708 72.875 85.5104 73.2005 86.0781 73.8516C86.651 74.5026 87.2318 74.8281 87.8203 74.8281C88.6172 74.8281 89.0156 74.1771 89.0156 72.875V72.0938C84.6927 71.1562 82.5312 69.5938 82.5312 67.4062C82.5312 65.3229 83.8333 64.2812 86.4375 64.2812C89.0417 64.2812 90.3438 65.3229 90.3438 67.4062C90.3438 68.8594 89.6198 69.5859 88.1719 69.5859C87.8438 69.5859 87.5781 69.5104 87.375 69.3594V68.1875C87.7448 68.2969 88.0469 68.3516 88.2812 68.3516C88.7708 68.3516 89.0156 68.0365 89.0156 67.4062C89.0156 66.1042 88.1562 65.4531 86.4375 65.4531C84.7188 65.4531 83.8594 66.1042 83.8594 67.4062C83.8594 68.9688 86.0208 70.2448 90.3438 71.2344ZM100.734 67.4062C100.734 67.0417 100.474 66.651 99.9531 66.2344V65.4531C99.9531 64.6719 100.344 64.2812 101.125 64.2812H102.453V65.4531H101.516C101.255 65.4531 101.125 65.5833 101.125 65.8438C101.75 66.2604 102.062 66.7812 102.062 67.4062V72.0938C102.062 74.6979 100.76 76 98.1562 76C95.5521 76 94.25 74.6979 94.25 72.0938V67.4062C94.25 67.0417 93.9896 66.651 93.4688 66.2344V65.4531C93.4688 64.6719 93.8594 64.2812 94.6406 64.2812H95.9688V65.4531H95.0312C94.7708 65.4531 94.6406 65.5833 94.6406 65.8438C95.2656 66.2604 95.5781 66.7812 95.5781 67.4062V72.0938C95.5781 73.9167 96.4375 74.8281 98.1562 74.8281C99.875 74.8281 100.734 73.9167 100.734 72.0938V67.4062ZM112.688 71.3828C112.724 71.3932 112.76 71.3984 112.797 71.3984C112.932 71.3984 113 71.2917 113 71.0781C113 70.8698 112.948 70.7656 112.844 70.7656C112.74 70.7656 112.688 70.8672 112.688 71.0703V71.3828ZM112.688 72.0859V72.875C112.688 74.9583 111.75 76 109.875 76C108 76 107.062 74.9583 107.062 72.875V71.3125H108.391V72.875C108.391 74.1771 108.885 74.8281 109.875 74.8281C110.865 74.8281 111.359 74.1771 111.359 72.875V71.8984C107.766 70.862 105.969 69.3646 105.969 67.4062C105.969 65.3229 107.271 64.2812 109.875 64.2812C112.479 64.2812 113.781 65.3229 113.781 67.4062C113.781 68.8594 113.057 69.5859 111.609 69.5859C111.281 69.5859 111.016 69.5104 110.812 69.3594V68.1875C111.182 68.2969 111.484 68.3516 111.719 68.3516C112.208 68.3516 112.453 68.0365 112.453 67.4062C112.453 66.1042 111.594 65.4531 109.875 65.4531C108.156 65.4531 107.297 66.1042 107.297 67.4062C107.297 69.0156 108.651 70.1484 111.359 70.8047C111.359 70.3099 111.724 70.0625 112.453 70.0625C113.339 70.0625 113.781 70.388 113.781 71.0391C113.781 71.4297 113.693 71.7057 113.516 71.8672C113.339 72.0286 113.148 72.1094 112.945 72.1094C112.862 72.1094 112.776 72.1016 112.688 72.0859ZM117.688 74.8281V73.6562H117.492C117.435 73.6562 117.388 73.6823 117.352 73.7344C117.315 73.7812 117.297 73.9505 117.297 74.2422C117.297 74.5339 117.315 74.7057 117.352 74.7578C117.388 74.8047 117.435 74.8281 117.492 74.8281H117.688ZM119.016 67.4062V74.2422C119.016 74.9089 118.927 75.3698 118.75 75.625C118.578 75.875 118.25 76 117.766 76C117.281 76 116.951 75.875 116.773 75.625C116.602 75.3698 116.516 74.9089 116.516 74.2422C116.516 73.5755 116.602 73.1172 116.773 72.8672C116.951 72.612 117.19 72.4844 117.492 72.4844C117.56 72.4844 117.625 72.4896 117.688 72.5V67.4062C117.583 67.0417 117.323 66.651 116.906 66.2344V65.4531C116.906 64.6719 117.297 64.2812 118.078 64.2812H119.406V65.4531H118.469C118.208 65.4531 118.078 65.5833 118.078 65.8438C118.703 66.2604 119.016 66.7812 119.016 67.4062ZM129.406 67.4062C129.406 67.0417 129.146 66.651 128.625 66.2344V65.4531C128.625 64.6719 129.016 64.2812 129.797 64.2812H131.125V65.4531H130.188C129.927 65.4531 129.797 65.5833 129.797 65.8438C130.422 66.2604 130.734 66.7812 130.734 67.4062V72.0938C130.734 74.6979 129.432 76 126.828 76C124.224 76 122.922 74.6979 122.922 72.0938V67.4062C122.922 67.0417 122.661 66.651 122.141 66.2344V65.4531C122.141 64.6719 122.531 64.2812 123.312 64.2812H124.641V65.4531H123.703C123.443 65.4531 123.312 65.5833 123.312 65.8438C123.938 66.2604 124.25 66.7812 124.25 67.4062V72.0938C124.25 73.9167 125.109 74.8281 126.828 74.8281C128.547 74.8281 129.406 73.9167 129.406 72.0938V67.4062ZM135.812 73.6562V74.8281C135.922 74.8281 136.013 74.7995 136.086 74.7422C136.164 74.6797 136.203 74.513 136.203 74.2422C136.203 73.9714 136.164 73.8073 136.086 73.75C136.013 73.6875 135.922 73.6562 135.812 73.6562ZM147.922 67.4062V72.0938C147.922 74.6979 146.75 76 144.406 76C141.88 76 140.617 74.6979 140.617 72.0938V70.5312C140.617 68.7083 139.844 67.7969 138.297 67.7969C136.745 67.7969 135.969 68.7083 135.969 70.5312V72.5625C136.089 72.5104 136.227 72.4844 136.383 72.4844C136.539 72.4844 136.703 72.625 136.875 72.9062C137.052 73.1823 137.141 73.6276 137.141 74.2422C137.141 74.8568 137.026 75.3047 136.797 75.5859C136.573 75.862 136.271 76 135.891 76C135.51 76 135.208 75.8594 134.984 75.5781C134.807 75.3646 134.698 75.0495 134.656 74.6328H134.641V70.5312C134.641 68.9062 135.115 67.7891 136.062 67.1797C135.828 66.7891 135.484 66.474 135.031 66.2344V65.4531C135.031 64.6719 135.422 64.2812 136.203 64.2812H140.5V65.4531H136.75C136.49 65.4531 136.359 65.5833 136.359 65.8438C136.766 66.0625 137.086 66.349 137.32 66.7031C137.622 66.651 137.948 66.625 138.297 66.625C140.729 66.625 141.945 67.9271 141.945 70.5312V72.0938C141.945 73.9167 142.766 74.8281 144.406 74.8281C145.865 74.8281 146.594 73.9167 146.594 72.0938V67.4062C146.594 67.0417 146.333 66.651 145.812 66.2344V65.4531C145.812 64.6719 146.203 64.2812 146.984 64.2812H148.312V65.4531H147.375C147.115 65.4531 146.984 65.5833 146.984 65.8438C147.609 66.2604 147.922 66.7812 147.922 67.4062ZM144.602 58.4219V61.9375H143.43V58.4219H144.602ZM158.312 68.3828C158.203 68.3828 158.109 68.4167 158.031 68.4844C157.958 68.5521 157.922 68.6484 157.922 68.7734C157.922 68.8984 157.958 68.9948 158.031 69.0625C158.109 69.1302 158.203 69.1641 158.312 69.1641V68.3828ZM151.828 67.4062C151.828 67.0417 151.698 66.651 151.438 66.2344V65.8438C151.438 64.8021 151.958 64.2812 153 64.2812H155.344L157.141 65.4531H157.766C158.13 65.4531 158.312 65.2708 158.312 64.9062V63.1094H159.641V64.9062C159.641 66.0521 159.198 66.625 158.312 66.625H156.906L155.109 65.4531H153.547C153.026 65.4531 152.766 65.6094 152.766 65.9219C153.026 66.3385 153.156 66.8333 153.156 67.4062V74.4375L155.734 72.25L158.312 74.4375V70.0859C158.26 70.0911 158.208 70.0938 158.156 70.0938C157.802 70.0938 157.539 69.9818 157.367 69.7578C157.164 69.5078 157.062 69.1797 157.062 68.7734C157.062 68.3672 157.161 68.0391 157.359 67.7891C157.562 67.5339 157.893 67.4062 158.352 67.4062C158.81 67.4062 159.138 67.5339 159.336 67.7891C159.539 68.0391 159.641 68.3672 159.641 68.7734V76H158.469L155.734 73.6562L153 76H151.828V67.4062ZM158.078 79.2422C157.661 79.8411 157.206 80.2318 156.711 80.4141C156.216 80.5964 155.786 80.6875 155.422 80.6875C154.328 80.6875 153.781 80.2969 153.781 79.5156C153.781 78.9948 154.023 78.6615 154.508 78.5156C154.987 78.375 155.469 78.1536 155.953 77.8516C156.432 77.5547 156.672 77.1979 156.672 76.7812H157.844C157.844 77.7188 156.88 78.5781 154.953 79.3594C154.953 79.4635 155.109 79.5156 155.422 79.5156C155.786 79.5156 156.19 79.4245 156.633 79.2422C157.076 79.0599 157.557 78.5807 158.078 77.8047V77.3281H159.25V80.6875H158.078V79.2422ZM159.641 64.2812H161.203C163.286 64.2812 164.328 65.3229 164.328 67.4062V76H163V67.4062C163 66.1042 162.401 65.4531 161.203 65.4531H159.641V64.2812ZM160.031 60.1797C160.031 60.3724 160.081 60.5182 160.18 60.6172C160.279 60.7161 160.424 60.7656 160.617 60.7656C160.815 60.7656 160.964 60.7161 161.062 60.6172C161.156 60.5182 161.203 60.3724 161.203 60.1797C161.203 59.9818 161.156 59.8359 161.062 59.7422C160.964 59.6432 160.815 59.5938 160.617 59.5938C160.424 59.5938 160.279 59.6432 160.18 59.7422C160.081 59.8359 160.031 59.9818 160.031 60.1797ZM162.375 60.1797C162.375 60.7682 162.229 61.2083 161.938 61.5C161.646 61.7917 161.206 61.9375 160.617 61.9375C160.029 61.9375 159.589 61.7917 159.297 61.5C159.005 61.2083 158.859 60.7682 158.859 60.1797C158.859 59.5911 159.005 59.151 159.297 58.8594C159.589 58.5677 160.029 58.4219 160.617 58.4219C161.206 58.4219 161.646 58.5677 161.938 58.8594C162.229 59.151 162.375 59.5911 162.375 60.1797ZM174.094 65.4688C174.094 65.3125 173.99 65.2344 173.781 65.2344C173.573 65.2344 173.469 65.3125 173.469 65.4688C173.469 65.6094 173.573 65.75 173.781 65.8906C173.99 65.7812 174.094 65.6406 174.094 65.4688ZM168.039 69.3594C167.982 69.3594 167.935 69.3854 167.898 69.4375C167.862 69.4844 167.844 69.6536 167.844 69.9453C167.844 70.237 167.862 70.4089 167.898 70.4609C167.935 70.5078 167.982 70.5312 168.039 70.5312H168.234V69.3594H168.039ZM169.562 74.4375L172.141 72.0938L174.719 74.4375V68.9688C174.719 68.4062 174.297 67.8099 173.453 67.1797C173.026 67.5911 172.302 67.7969 171.281 67.7969C170.146 67.7969 169.354 67.6484 168.906 67.3516C168.458 67.0547 168.234 66.6432 168.234 66.1172C168.234 65.5964 168.339 65.1094 168.547 64.6562C168.755 64.1979 168.859 63.8255 168.859 63.5391C168.859 63.2526 168.521 63.1094 167.844 63.1094V61.9375C169.302 61.9375 170.031 62.4323 170.031 63.4219C170.031 63.8125 169.927 64.25 169.719 64.7344C169.51 65.2135 169.406 65.5547 169.406 65.7578C169.406 65.9661 169.536 66.1641 169.797 66.3516C170.057 66.5339 170.57 66.625 171.336 66.625C171.997 66.625 172.474 66.5391 172.766 66.3672C172.505 66.1536 172.375 65.8229 172.375 65.375C172.375 64.6458 172.844 64.2812 173.781 64.2812C174.771 64.2812 175.266 64.724 175.266 65.6094C175.266 66.0625 175.062 66.4479 174.656 66.7656C175.583 67.4375 176.047 68.1719 176.047 68.9688V76H174.484L172.141 73.6562L169.797 76H168.234V71.6875C168.172 71.6979 168.107 71.7031 168.039 71.7031C167.737 71.7031 167.497 71.5781 167.32 71.3281C167.148 71.0729 167.062 70.612 167.062 69.9453C167.062 69.2786 167.148 68.8203 167.32 68.5703C167.497 68.3151 167.828 68.1875 168.312 68.1875C168.797 68.1875 169.125 68.3151 169.297 68.5703C169.474 68.8203 169.562 69.2786 169.562 69.9453V74.4375Z" fill="#344054"/>
<path d="M159.953 104.109L160.422 104.195C161.568 104.414 162.87 105.245 164.328 106.688L163.625 107.391C162.479 106.198 161.398 105.51 160.383 105.328C160.049 105.271 159.742 105.242 159.461 105.242C158.888 105.242 158.474 105.396 158.219 105.703C157.969 106.005 157.844 106.555 157.844 107.352V108.094C157.844 109.917 158.703 110.828 160.422 110.828C162.141 110.828 163 110.438 163 109.656C163 109.115 162.888 108.844 162.664 108.844C162.289 108.844 162.039 108.898 161.914 109.008C161.789 109.117 161.727 109.201 161.727 109.258C161.727 109.315 161.818 109.344 162 109.344C162.141 109.344 162.336 109.258 162.586 109.086L162.93 109.906C162.565 110.172 162.185 110.305 161.789 110.305C161.419 110.305 161.146 110.211 160.969 110.023C160.792 109.836 160.703 109.586 160.703 109.273C160.703 108.961 160.794 108.682 160.977 108.438C161.164 108.193 161.398 108.023 161.68 107.93C161.961 107.831 162.268 107.781 162.602 107.781C163.753 107.781 164.328 108.406 164.328 109.656C164.328 111.219 163.026 112 160.422 112C157.818 112 156.516 110.698 156.516 108.094V107.352C156.516 106.091 156.88 105.195 157.609 104.664C157.917 104.445 158.263 104.289 158.648 104.195C158.362 103.471 158.219 102.846 158.219 102.32C158.219 100.961 159.083 100.281 160.812 100.281C161.99 100.281 162.719 100.68 163 101.477V100.281C163 100.021 162.74 99.8906 162.219 99.8906H161.828V98.7188H162.766C163.807 98.7188 164.328 99.2396 164.328 100.281V104.188H163C163 102.365 162.271 101.453 160.812 101.453C159.984 101.453 159.57 101.82 159.57 102.555C159.57 102.982 159.698 103.5 159.953 104.109ZM171.672 104.109L172.141 104.195C173.286 104.414 174.589 105.245 176.047 106.688L175.344 107.391C174.198 106.198 173.117 105.51 172.102 105.328C171.768 105.271 171.461 105.242 171.18 105.242C170.607 105.242 170.193 105.396 169.938 105.703C169.688 106.005 169.562 106.555 169.562 107.352V108.094C169.562 109.917 170.422 110.828 172.141 110.828C173.859 110.828 174.719 110.438 174.719 109.656C174.719 109.115 174.607 108.844 174.383 108.844C174.008 108.844 173.758 108.898 173.633 109.008C173.508 109.117 173.445 109.201 173.445 109.258C173.445 109.315 173.536 109.344 173.719 109.344C173.859 109.344 174.055 109.258 174.305 109.086L174.648 109.906C174.284 110.172 173.904 110.305 173.508 110.305C173.138 110.305 172.865 110.211 172.688 110.023C172.51 109.836 172.422 109.586 172.422 109.273C172.422 108.961 172.513 108.682 172.695 108.438C172.883 108.193 173.117 108.023 173.398 107.93C173.68 107.831 173.987 107.781 174.32 107.781C175.471 107.781 176.047 108.406 176.047 109.656C176.047 111.219 174.745 112 172.141 112C169.536 112 168.234 110.698 168.234 108.094V107.352C168.234 106.091 168.599 105.195 169.328 104.664C169.635 104.445 169.982 104.289 170.367 104.195C170.081 103.471 169.938 102.846 169.938 102.32C169.938 100.961 170.802 100.281 172.531 100.281C173.708 100.281 174.438 100.68 174.719 101.477V100.281C174.719 100.021 174.458 99.8906 173.938 99.8906H173.547V98.7188H174.484C175.526 98.7188 176.047 99.2396 176.047 100.281V104.188H174.719C174.719 102.365 173.99 101.453 172.531 101.453C171.703 101.453 171.289 101.82 171.289 102.555C171.289 102.982 171.417 103.5 171.672 104.109Z" fill="#344054"/>
<rect x="0.5" y="47.5" width="189" height="87" rx="4.5" stroke="#98A2B3"/>
<circle cx="134" cy="17" r="12" fill="#344054"/>
<path d="M129.943 23V21.2273L134.085 17.392C134.438 17.0511 134.733 16.7443 134.972 16.4716C135.214 16.1989 135.398 15.9318 135.523 15.6705C135.648 15.4053 135.71 15.1193 135.71 14.8125C135.71 14.4716 135.633 14.178 135.477 13.9318C135.322 13.6818 135.11 13.4905 134.841 13.358C134.572 13.2216 134.267 13.1534 133.926 13.1534C133.57 13.1534 133.259 13.2254 132.994 13.3693C132.729 13.5133 132.525 13.7197 132.381 13.9886C132.237 14.2576 132.165 14.5777 132.165 14.9489H129.83C129.83 14.1875 130.002 13.5265 130.347 12.9659C130.691 12.4053 131.174 11.9716 131.795 11.6648C132.417 11.358 133.133 11.2045 133.943 11.2045C134.777 11.2045 135.502 11.3523 136.119 11.6477C136.741 11.9394 137.223 12.3447 137.568 12.8636C137.913 13.3826 138.085 13.9773 138.085 14.6477C138.085 15.0871 137.998 15.5208 137.824 15.9489C137.653 16.3769 137.348 16.8523 136.909 17.375C136.47 17.8939 135.85 18.517 135.051 19.2443L133.352 20.9091V20.9886H138.239V23H129.943Z" fill="white"/>
<path d="M134 62L134 27" stroke="#344054" stroke-dasharray="2 2"/>
<circle cx="242" cy="106" r="12" fill="#344054"/>
<path d="M242.244 112.159C241.396 112.159 240.64 112.013 239.977 111.722C239.318 111.426 238.797 111.021 238.415 110.506C238.036 109.987 237.841 109.388 237.83 108.71H240.307C240.322 108.994 240.415 109.244 240.585 109.46C240.759 109.672 240.991 109.837 241.278 109.955C241.566 110.072 241.89 110.131 242.25 110.131C242.625 110.131 242.956 110.064 243.244 109.932C243.532 109.799 243.758 109.616 243.92 109.381C244.083 109.146 244.165 108.875 244.165 108.568C244.165 108.258 244.078 107.983 243.903 107.744C243.733 107.502 243.487 107.312 243.165 107.176C242.847 107.04 242.468 106.972 242.028 106.972H240.943V105.165H242.028C242.4 105.165 242.727 105.1 243.011 104.972C243.299 104.843 243.523 104.665 243.682 104.438C243.841 104.206 243.92 103.938 243.92 103.631C243.92 103.339 243.85 103.083 243.71 102.864C243.574 102.64 243.381 102.466 243.131 102.341C242.884 102.216 242.597 102.153 242.267 102.153C241.934 102.153 241.629 102.214 241.352 102.335C241.076 102.453 240.854 102.621 240.688 102.841C240.521 103.061 240.432 103.318 240.42 103.614H238.062C238.074 102.943 238.265 102.352 238.636 101.841C239.008 101.33 239.508 100.93 240.136 100.642C240.769 100.35 241.483 100.205 242.278 100.205C243.081 100.205 243.784 100.35 244.386 100.642C244.989 100.934 245.456 101.328 245.79 101.824C246.127 102.316 246.294 102.869 246.29 103.483C246.294 104.134 246.091 104.678 245.682 105.114C245.277 105.549 244.748 105.826 244.097 105.943V106.034C244.953 106.144 245.604 106.441 246.051 106.926C246.502 107.407 246.725 108.009 246.722 108.733C246.725 109.396 246.534 109.985 246.148 110.5C245.765 111.015 245.237 111.42 244.562 111.716C243.888 112.011 243.116 112.159 242.244 112.159Z" fill="white"/>
<path d="M233 106L181 106.5" stroke="#344054" stroke-dasharray="2 2"/>
<circle cx="67" cy="16" r="12" fill="#344054"/>
<path d="M69.0057 10.3636V22H66.5455V12.6989H66.4773L63.8125 14.3693V12.1875L66.6932 10.3636H69.0057Z" fill="white"/>
<path d="M64 16H20V63" stroke="#344054" stroke-dasharray="2 2"/>
</svg>
