<svg width="242" height="142" viewBox="0 0 242 142" fill="none" xmlns="http://www.w3.org/2000/svg">
<rect x="0.5" y="50.5" width="241" height="47" fill="white"/>
<path d="M20.625 68C20.7245 68 20.8198 68.0395 20.8902 68.1098C20.9605 68.1802 21 68.2755 21 68.375V68.75H27V68.375C27 68.2755 27.0395 68.1802 27.1098 68.1098C27.1802 68.0395 27.2755 68 27.375 68C27.4745 68 27.5698 68.0395 27.6402 68.1098C27.7105 68.1802 27.75 68.2755 27.75 68.375V68.75H28.5C28.8978 68.75 29.2794 68.908 29.5607 69.1893C29.842 69.4706 30 69.8522 30 70.25V78.5C30 78.8978 29.842 79.2794 29.5607 79.5607C29.2794 79.842 28.8978 80 28.5 80H19.5C19.1022 80 18.7206 79.842 18.4393 79.5607C18.158 79.2794 18 78.8978 18 78.5V70.25C18 69.8522 18.158 69.4706 18.4393 69.1893C18.7206 68.908 19.1022 68.75 19.5 68.75H20.25V68.375C20.25 68.2755 20.2895 68.1802 20.3598 68.1098C20.4302 68.0395 20.5255 68 20.625 68ZM18.75 71V78.5C18.75 78.6989 18.829 78.8897 18.9697 79.0303C19.1103 79.171 19.3011 79.25 19.5 79.25H28.5C28.6989 79.25 28.8897 79.171 29.0303 79.0303C29.171 78.8897 29.25 78.6989 29.25 78.5V71H18.75Z" fill="#344054"/>
<path d="M52.5 70.4062V80.9531C52.5 82.2552 53.0599 82.9062 54.1797 82.9062C55.2995 82.9062 55.8594 82.2552 55.8594 80.9531V79.7812H57.1875V80.9531C57.1875 83.0365 56.1849 84.0781 54.1797 84.0781C52.1745 84.0781 51.1719 83.0365 51.1719 80.9531V70.4062C51.1719 70.0417 50.9115 69.651 50.3906 69.2344V68.4531C50.3906 67.6719 50.7812 67.2812 51.5625 67.2812H52.8906V68.4531H51.9531C51.6927 68.4531 51.5625 68.5833 51.5625 68.8438C52.1875 69.2604 52.5 69.7812 52.5 70.4062ZM62.3438 70.4062C62.3438 70.0417 62.0833 69.651 61.5625 69.2344V68.4531C61.5625 67.6719 61.9531 67.2812 62.7344 67.2812H64.0625V68.4531H63.125C62.8646 68.4531 62.7344 68.5833 62.7344 68.8438C63.3594 69.2604 63.6719 69.7812 63.6719 70.4062V75.0938C63.6719 77.6979 62.3698 79 59.7656 79C57.1615 79 55.8594 77.6979 55.8594 75.0938V70.4062C55.8594 70.0417 55.599 69.651 55.0781 69.2344V68.4531C55.0781 67.6719 55.4688 67.2812 56.25 67.2812H57.5781V68.4531H56.6406C56.3802 68.4531 56.25 68.5833 56.25 68.8438C56.875 69.2604 57.1875 69.7812 57.1875 70.4062V75.0938C57.1875 76.9167 58.0469 77.8281 59.7656 77.8281C61.4844 77.8281 62.3438 76.9167 62.3438 75.0938V70.4062ZM74.0625 71.3828C73.9531 71.3828 73.8594 71.4167 73.7812 71.4844C73.7083 71.5521 73.6719 71.6484 73.6719 71.7734C73.6719 71.8984 73.7083 71.9948 73.7812 72.0625C73.8594 72.1302 73.9531 72.1641 74.0625 72.1641V71.3828ZM74.0625 73.0859C74.0104 73.0911 73.9583 73.0938 73.9062 73.0938C73.5521 73.0938 73.2891 72.9818 73.1172 72.7578C72.9141 72.5078 72.8125 72.1797 72.8125 71.7734C72.8125 71.3672 72.9115 71.0391 73.1094 70.7891C73.3125 70.5339 73.6432 70.4062 74.1016 70.4062C74.5599 70.4062 74.888 70.5339 75.0859 70.7891C75.2891 71.0391 75.3906 71.3672 75.3906 71.7734V79H74.2188L71.4844 76.6562L68.75 79H67.5781V70.4062C67.5781 70.0417 67.4479 69.651 67.1875 69.2344V68.8438C67.1875 67.8021 67.7083 67.2812 68.75 67.2812H75.3906V68.4531H69.2969C68.776 68.4531 68.5156 68.6094 68.5156 68.9219C68.776 69.3385 68.9062 69.8333 68.9062 70.4062V77.4375L71.4844 75.25L74.0625 77.4375V73.0859ZM75.3906 67.2812H76.9531C79.0365 67.2812 80.0781 68.3229 80.0781 70.4062V79H78.75V70.4062C78.75 69.1042 78.151 68.4531 76.9531 68.4531H75.3906V67.2812ZM91.7969 74.2344V75.875C91.7969 77.9583 91.0677 79 89.6094 79C88.5365 79 87.7422 78.6745 87.2266 78.0234C86.7109 77.3724 86.0729 77.0469 85.3125 77.0469V79H83.9844V74.3125H85.3125V75.875C86.224 75.875 86.9635 76.2005 87.5312 76.8516C88.1042 77.5026 88.6849 77.8281 89.2734 77.8281C90.0703 77.8281 90.4688 77.1771 90.4688 75.875V75.0938C86.1458 74.1562 83.9844 72.5938 83.9844 70.4062C83.9844 68.3229 85.2865 67.2812 87.8906 67.2812C90.4948 67.2812 91.7969 68.3229 91.7969 70.4062C91.7969 71.8594 91.0729 72.5859 89.625 72.5859C89.2969 72.5859 89.0312 72.5104 88.8281 72.3594V71.1875C89.1979 71.2969 89.5 71.3516 89.7344 71.3516C90.224 71.3516 90.4688 71.0365 90.4688 70.4062C90.4688 69.1042 89.6094 68.4531 87.8906 68.4531C86.1719 68.4531 85.3125 69.1042 85.3125 70.4062C85.3125 71.9688 87.474 73.2448 91.7969 74.2344ZM102.188 70.4062C102.188 70.0417 101.927 69.651 101.406 69.2344V68.4531C101.406 67.6719 101.797 67.2812 102.578 67.2812H103.906V68.4531H102.969C102.708 68.4531 102.578 68.5833 102.578 68.8438C103.203 69.2604 103.516 69.7812 103.516 70.4062V75.0938C103.516 77.6979 102.214 79 99.6094 79C97.0052 79 95.7031 77.6979 95.7031 75.0938V70.4062C95.7031 70.0417 95.4427 69.651 94.9219 69.2344V68.4531C94.9219 67.6719 95.3125 67.2812 96.0938 67.2812H97.4219V68.4531H96.4844C96.224 68.4531 96.0938 68.5833 96.0938 68.8438C96.7188 69.2604 97.0312 69.7812 97.0312 70.4062V75.0938C97.0312 76.9167 97.8906 77.8281 99.6094 77.8281C101.328 77.8281 102.188 76.9167 102.188 75.0938V70.4062ZM114.141 74.3828C114.177 74.3932 114.214 74.3984 114.25 74.3984C114.385 74.3984 114.453 74.2917 114.453 74.0781C114.453 73.8698 114.401 73.7656 114.297 73.7656C114.193 73.7656 114.141 73.8672 114.141 74.0703V74.3828ZM114.141 75.0859V75.875C114.141 77.9583 113.203 79 111.328 79C109.453 79 108.516 77.9583 108.516 75.875V74.3125H109.844V75.875C109.844 77.1771 110.339 77.8281 111.328 77.8281C112.318 77.8281 112.812 77.1771 112.812 75.875V74.8984C109.219 73.862 107.422 72.3646 107.422 70.4062C107.422 68.3229 108.724 67.2812 111.328 67.2812C113.932 67.2812 115.234 68.3229 115.234 70.4062C115.234 71.8594 114.51 72.5859 113.062 72.5859C112.734 72.5859 112.469 72.5104 112.266 72.3594V71.1875C112.635 71.2969 112.938 71.3516 113.172 71.3516C113.661 71.3516 113.906 71.0365 113.906 70.4062C113.906 69.1042 113.047 68.4531 111.328 68.4531C109.609 68.4531 108.75 69.1042 108.75 70.4062C108.75 72.0156 110.104 73.1484 112.812 73.8047C112.812 73.3099 113.177 73.0625 113.906 73.0625C114.792 73.0625 115.234 73.388 115.234 74.0391C115.234 74.4297 115.146 74.7057 114.969 74.8672C114.792 75.0286 114.602 75.1094 114.398 75.1094C114.315 75.1094 114.229 75.1016 114.141 75.0859ZM125.859 74.3828C125.896 74.3932 125.932 74.3984 125.969 74.3984C126.104 74.3984 126.172 74.2917 126.172 74.0781C126.172 73.8698 126.12 73.7656 126.016 73.7656C125.911 73.7656 125.859 73.8672 125.859 74.0703V74.3828ZM125.859 75.0859V75.875C125.859 77.9583 124.922 79 123.047 79C121.172 79 120.234 77.9583 120.234 75.875V74.3125H121.562V75.875C121.562 77.1771 122.057 77.8281 123.047 77.8281C124.036 77.8281 124.531 77.1771 124.531 75.875V74.8984C120.938 73.862 119.141 72.3646 119.141 70.4062C119.141 68.3229 120.443 67.2812 123.047 67.2812C125.651 67.2812 126.953 68.3229 126.953 70.4062C126.953 71.8594 126.229 72.5859 124.781 72.5859C124.453 72.5859 124.188 72.5104 123.984 72.3594V71.1875C124.354 71.2969 124.656 71.3516 124.891 71.3516C125.38 71.3516 125.625 71.0365 125.625 70.4062C125.625 69.1042 124.766 68.4531 123.047 68.4531C121.328 68.4531 120.469 69.1042 120.469 70.4062C120.469 72.0156 121.823 73.1484 124.531 73.8047C124.531 73.3099 124.896 73.0625 125.625 73.0625C126.51 73.0625 126.953 73.388 126.953 74.0391C126.953 74.4297 126.865 74.7057 126.688 74.8672C126.51 75.0286 126.32 75.1094 126.117 75.1094C126.034 75.1094 125.948 75.1016 125.859 75.0859ZM122.266 63.9219H125.781C124.484 63.0365 123.443 62.5938 122.656 62.5938C121.615 62.5938 121.094 62.8151 121.094 63.2578C121.094 63.7005 121.484 63.9219 122.266 63.9219ZM125.781 62.6328V60.6406H126.953V64.9375H121.875C120.573 64.9375 119.922 64.4167 119.922 63.375C119.922 62.0729 120.833 61.4219 122.656 61.4219C123.698 61.4219 124.674 61.7734 125.586 62.4766C125.654 62.5286 125.719 62.5807 125.781 62.6328ZM138.531 77.8281C140.51 77.8281 141.5 76.1354 141.5 72.75C141.5 69.8854 140.641 68.4531 138.922 68.4531C137.203 68.4531 136.344 69.3646 136.344 71.1875C136.344 71.5052 136.404 71.7865 136.523 72.0312C136.648 72.2708 136.909 72.3906 137.305 72.3906C137.68 72.3906 137.917 72.3359 138.016 72.2266C138.094 72.138 138.133 72.0521 138.133 71.9688C138.133 71.9427 138.13 71.9193 138.125 71.8984C138.099 71.7891 138.057 71.7344 138 71.7344C137.943 71.7344 137.789 71.8203 137.539 71.9922L137.195 71.0938C137.56 70.8281 137.888 70.6953 138.18 70.6953C138.497 70.6953 138.745 70.7891 138.922 70.9766C139.099 71.1641 139.188 71.4922 139.188 71.9609C139.188 72.2214 139.12 72.5 138.984 72.7969C138.854 73.0938 138.635 73.3047 138.328 73.4297C138.021 73.5495 137.701 73.6094 137.367 73.6094C136.977 73.6094 136.612 73.5521 136.273 73.4375C135.94 73.3229 135.646 73.0885 135.391 72.7344C135.141 72.375 135.016 71.8594 135.016 71.1875C135.016 68.5833 136.318 67.2812 138.922 67.2812C141.526 67.2812 142.828 69.1042 142.828 72.75C142.828 76.9167 141.396 79 138.531 79C137.464 79 136.526 78.7135 135.719 78.1406L136.109 77.0469C136.682 77.5677 137.49 77.8281 138.531 77.8281Z" fill="#344054"/>
<rect x="162" y="65" width="31" height="18" rx="3" fill="#F7F7F9"/>
<path d="M174.02 75.4229C173.965 75.3226 173.935 75.2725 173.931 75.2725C173.603 75.2725 173.377 75.3363 173.254 75.4639C173.135 75.5869 173.076 75.7214 173.076 75.8672C173.076 75.8991 173.09 75.915 173.117 75.915C173.213 75.915 173.514 75.751 174.02 75.4229ZM172.905 76.5166H172.796C172.34 76.5166 172.021 76.4209 171.839 76.2295C171.661 76.0381 171.572 75.833 171.572 75.6143C171.572 75.391 171.654 75.1699 171.818 74.9512C171.982 74.7324 172.217 74.5706 172.522 74.4658C172.828 74.361 173.156 74.3086 173.507 74.3086C174.696 74.3086 175.291 74.8555 175.291 75.9492C175.291 77.3164 174.061 78 171.6 78C169.139 78 167.908 76.8607 167.908 74.582V73.9326C167.908 72.8844 168.229 72.1257 168.872 71.6562C169.182 71.4375 169.494 71.2894 169.809 71.2119C169.535 70.5192 169.398 69.9587 169.398 69.5303C169.398 68.3408 170.246 67.7461 171.941 67.7461C172.552 67.7461 173.099 68.0195 173.582 68.5664V68.0537C173.582 67.7575 173.445 67.6094 173.172 67.6094H172.557V66.3789H173.65C174.744 66.3789 175.291 66.8346 175.291 67.7461V71.1641H173.582C173.582 69.7969 173.035 69.1133 171.941 69.1133C171.399 69.1133 171.128 69.3206 171.128 69.7354C171.128 70.141 171.237 70.6081 171.456 71.1367L171.695 71.1777C172.785 71.3874 173.956 72.112 175.209 73.3516L174.327 74.2334C173.224 73.2171 172.272 72.6383 171.47 72.4971C171.21 72.4515 170.973 72.4287 170.759 72.4287C170.399 72.4287 170.118 72.5495 169.918 72.791C169.717 73.0326 169.617 73.4131 169.617 73.9326V74.582C169.617 75.9492 170.278 76.6328 171.6 76.6328C172.151 76.6328 172.586 76.5941 172.905 76.5166ZM184.82 75.4229C184.766 75.3226 184.736 75.2725 184.731 75.2725C184.403 75.2725 184.178 75.3363 184.055 75.4639C183.936 75.5869 183.877 75.7214 183.877 75.8672C183.877 75.8991 183.891 75.915 183.918 75.915C184.014 75.915 184.314 75.751 184.82 75.4229ZM183.706 76.5166H183.597C183.141 76.5166 182.822 76.4209 182.64 76.2295C182.462 76.0381 182.373 75.833 182.373 75.6143C182.373 75.391 182.455 75.1699 182.619 74.9512C182.783 74.7324 183.018 74.5706 183.323 74.4658C183.629 74.361 183.957 74.3086 184.308 74.3086C185.497 74.3086 186.092 74.8555 186.092 75.9492C186.092 77.3164 184.861 78 182.4 78C179.939 78 178.709 76.8607 178.709 74.582V73.9326C178.709 72.8844 179.03 72.1257 179.673 71.6562C179.983 71.4375 180.295 71.2894 180.609 71.2119C180.336 70.5192 180.199 69.9587 180.199 69.5303C180.199 68.3408 181.047 67.7461 182.742 67.7461C183.353 67.7461 183.9 68.0195 184.383 68.5664V68.0537C184.383 67.7575 184.246 67.6094 183.973 67.6094H183.357V66.3789H184.451C185.545 66.3789 186.092 66.8346 186.092 67.7461V71.1641H184.383C184.383 69.7969 183.836 69.1133 182.742 69.1133C182.2 69.1133 181.929 69.3206 181.929 69.7354C181.929 70.141 182.038 70.6081 182.257 71.1367L182.496 71.1777C183.585 71.3874 184.757 72.112 186.01 73.3516L185.128 74.2334C184.025 73.2171 183.073 72.6383 182.271 72.4971C182.011 72.4515 181.774 72.4287 181.56 72.4287C181.2 72.4287 180.919 72.5495 180.719 72.791C180.518 73.0326 180.418 73.4131 180.418 73.9326V74.582C180.418 75.9492 181.079 76.6328 182.4 76.6328C182.952 76.6328 183.387 76.5941 183.706 76.5166Z" fill="#344054"/>
<path d="M214.625 68C214.724 68 214.82 68.0395 214.89 68.1098C214.96 68.1802 215 68.2755 215 68.375V68.75H221V68.375C221 68.2755 221.04 68.1802 221.11 68.1098C221.18 68.0395 221.276 68 221.375 68C221.474 68 221.57 68.0395 221.64 68.1098C221.71 68.1802 221.75 68.2755 221.75 68.375V68.75H222.5C222.898 68.75 223.279 68.908 223.561 69.1893C223.842 69.4706 224 69.8522 224 70.25V78.5C224 78.8978 223.842 79.2794 223.561 79.5607C223.279 79.842 222.898 80 222.5 80H213.5C213.102 80 212.721 79.842 212.439 79.5607C212.158 79.2794 212 78.8978 212 78.5V70.25C212 69.8522 212.158 69.4706 212.439 69.1893C212.721 68.908 213.102 68.75 213.5 68.75H214.25V68.375C214.25 68.2755 214.29 68.1802 214.36 68.1098C214.43 68.0395 214.526 68 214.625 68ZM212.75 71V78.5C212.75 78.6989 212.829 78.8897 212.97 79.0303C213.11 79.171 213.301 79.25 213.5 79.25H222.5C222.699 79.25 222.89 79.171 223.03 79.0303C223.171 78.8897 223.25 78.6989 223.25 78.5V71H212.75Z" fill="#344054"/>
<rect x="0.5" y="50.5" width="241" height="47" stroke="#98A2B3"/>
<circle cx="97" cy="126" r="12" fill="#344054"/>
<path d="M92.9432 132V130.227L97.0852 126.392C97.4375 126.051 97.733 125.744 97.9716 125.472C98.214 125.199 98.3977 124.932 98.5227 124.67C98.6477 124.405 98.7102 124.119 98.7102 123.812C98.7102 123.472 98.6326 123.178 98.4773 122.932C98.322 122.682 98.1098 122.491 97.8409 122.358C97.572 122.222 97.267 122.153 96.9261 122.153C96.5701 122.153 96.2595 122.225 95.9943 122.369C95.7292 122.513 95.5246 122.72 95.3807 122.989C95.2367 123.258 95.1648 123.578 95.1648 123.949H92.8295C92.8295 123.187 93.0019 122.527 93.3466 121.966C93.6913 121.405 94.1742 120.972 94.7955 120.665C95.4167 120.358 96.1326 120.205 96.9432 120.205C97.7765 120.205 98.5019 120.352 99.1193 120.648C99.7405 120.939 100.223 121.345 100.568 121.864C100.913 122.383 101.085 122.977 101.085 123.648C101.085 124.087 100.998 124.521 100.824 124.949C100.653 125.377 100.348 125.852 99.9091 126.375C99.4697 126.894 98.8504 127.517 98.0511 128.244L96.3523 129.909V129.989H101.239V132H92.9432Z" fill="white"/>
<path d="M97 117L97 86" stroke="#344054" stroke-dasharray="2 2"/>
<circle cx="177" cy="126" r="12" fill="#344054"/>
<path d="M177.244 132.159C176.396 132.159 175.64 132.013 174.977 131.722C174.318 131.426 173.797 131.021 173.415 130.506C173.036 129.987 172.841 129.388 172.83 128.71H175.307C175.322 128.994 175.415 129.244 175.585 129.46C175.759 129.672 175.991 129.837 176.278 129.955C176.566 130.072 176.89 130.131 177.25 130.131C177.625 130.131 177.956 130.064 178.244 129.932C178.532 129.799 178.758 129.616 178.92 129.381C179.083 129.146 179.165 128.875 179.165 128.568C179.165 128.258 179.078 127.983 178.903 127.744C178.733 127.502 178.487 127.312 178.165 127.176C177.847 127.04 177.468 126.972 177.028 126.972H175.943V125.165H177.028C177.4 125.165 177.727 125.1 178.011 124.972C178.299 124.843 178.523 124.665 178.682 124.438C178.841 124.206 178.92 123.938 178.92 123.631C178.92 123.339 178.85 123.083 178.71 122.864C178.574 122.64 178.381 122.466 178.131 122.341C177.884 122.216 177.597 122.153 177.267 122.153C176.934 122.153 176.629 122.214 176.352 122.335C176.076 122.453 175.854 122.621 175.688 122.841C175.521 123.061 175.432 123.318 175.42 123.614H173.062C173.074 122.943 173.265 122.352 173.636 121.841C174.008 121.33 174.508 120.93 175.136 120.642C175.769 120.35 176.483 120.205 177.278 120.205C178.081 120.205 178.784 120.35 179.386 120.642C179.989 120.934 180.456 121.328 180.79 121.824C181.127 122.316 181.294 122.869 181.29 123.483C181.294 124.134 181.091 124.678 180.682 125.114C180.277 125.549 179.748 125.826 179.097 125.943V126.034C179.953 126.144 180.604 126.441 181.051 126.926C181.502 127.407 181.725 128.009 181.722 128.733C181.725 129.396 181.534 129.985 181.148 130.5C180.765 131.015 180.237 131.42 179.562 131.716C178.888 132.011 178.116 132.159 177.244 132.159Z" fill="white"/>
<path d="M177 117L177 86" stroke="#344054" stroke-dasharray="2 2"/>
<circle cx="72" cy="16" r="12" fill="#344054"/>
<path d="M73.0057 10.3636V22H70.5455V12.6989H70.4773L67.8125 14.3693V12.1875L70.6932 10.3636H73.0057Z" fill="white"/>
<path d="M69 16H24V66" stroke="#344054" stroke-dasharray="2 2"/>
<path d="M84 16H218V66" stroke="#344054" stroke-dasharray="2 2"/>
</svg>
