<svg width="140" height="114" viewBox="0 0 140 114" fill="none" xmlns="http://www.w3.org/2000/svg">
<circle cx="128" cy="98" r="12" fill="#344054"/>
<path d="M123.943 104V102.227L128.085 98.392C128.438 98.0511 128.733 97.7443 128.972 97.4716C129.214 97.1989 129.398 96.9318 129.523 96.6705C129.648 96.4053 129.71 96.1193 129.71 95.8125C129.71 95.4716 129.633 95.178 129.477 94.9318C129.322 94.6818 129.11 94.4905 128.841 94.358C128.572 94.2216 128.267 94.1534 127.926 94.1534C127.57 94.1534 127.259 94.2254 126.994 94.3693C126.729 94.5133 126.525 94.7197 126.381 94.9886C126.237 95.2576 126.165 95.5777 126.165 95.9489H123.83C123.83 95.1875 124.002 94.5265 124.347 93.9659C124.691 93.4053 125.174 92.9716 125.795 92.6648C126.417 92.358 127.133 92.2045 127.943 92.2045C128.777 92.2045 129.502 92.3523 130.119 92.6477C130.741 92.9394 131.223 93.3447 131.568 93.8636C131.913 94.3826 132.085 94.9773 132.085 95.6477C132.085 96.0871 131.998 96.5208 131.824 96.9489C131.653 97.3769 131.348 97.8523 130.909 98.375C130.47 98.8939 129.85 99.517 129.051 100.244L127.352 101.909V101.989H132.239V104H123.943Z" fill="white"/>
<path d="M119 98L67 98.5" stroke="#344054" stroke-dasharray="2 2"/>
<circle cx="79" cy="16" r="12" fill="#344054"/>
<path d="M81.0057 10.3636V22H78.5455V12.6989H78.4773L75.8125 14.3693V12.1875L78.6932 10.3636H81.0057Z" fill="white"/>
<path d="M76 16H32V58" stroke="#344054" stroke-dasharray="2 2"/>
<path d="M8.82812 71.5C8.70312 71.5 8.61979 71.5286 8.57812 71.5859C8.53646 71.638 8.51562 71.6979 8.51562 71.7656C8.51562 71.8333 8.53385 71.888 8.57031 71.9297C8.61198 71.987 8.69792 72.0156 8.82812 72.0156V71.5ZM1.95312 70.4062C1.95312 69.9896 1.82292 69.5729 1.5625 69.1562V68.8438C1.5625 67.8021 2.1875 67.2812 3.4375 67.2812H5.95312L7.75 68.0625H8.20312C8.35938 68.0625 8.4375 68.0104 8.4375 67.9062V66.1094H10.3906V67.9062C10.3906 69.0521 9.84375 69.625 8.75 69.625H7.17188L5.375 68.8438H3.98438C3.67188 68.8438 3.51562 68.8958 3.51562 69C3.77604 69.4167 3.90625 69.8854 3.90625 70.4062V76.6094L6.17188 74.6875L8.4375 76.6094V73.1172C8.02083 73.1016 7.69792 72.9427 7.46875 72.6406C7.28125 72.4115 7.1875 72.1224 7.1875 71.7734C7.1875 71.4245 7.29948 71.1094 7.52344 70.8281C7.7474 70.5469 8.18229 70.4062 8.82812 70.4062C9.42188 70.4062 9.83073 70.5469 10.0547 70.8281C10.2786 71.1094 10.3906 71.4245 10.3906 71.7734V79H8.4375L6.17188 76.8281L3.64062 79H1.95312V70.4062ZM8.46094 82.2422C8.04948 82.8411 7.59375 83.2318 7.09375 83.4141C6.59375 83.5964 6.14062 83.6875 5.73438 83.6875C4.51562 83.6875 3.90625 83.2969 3.90625 82.5156C3.90625 81.8906 4.17448 81.4792 4.71094 81.2812C5.2474 81.0885 5.78385 80.8411 6.32031 80.5391C6.85677 80.2422 7.125 79.9896 7.125 79.7812H8.42969C8.42969 80.7188 7.46094 81.526 5.52344 82.2031C5.52344 82.3073 5.64583 82.3594 5.89062 82.3594C6.19271 82.3594 6.59115 82.2682 7.08594 82.0859C7.57552 81.9036 8.03385 81.4766 8.46094 80.8047V80.3281H10V83.6875H8.46094V82.2422ZM10.3906 67.2812H12.2656C14.9219 67.2812 16.25 68.3229 16.25 70.4062V79H14.2969V70.4062C14.2969 69.3646 13.6198 68.8438 12.2656 68.8438H10.3906V67.2812ZM11.5234 63.1797C11.5234 63.3099 11.5573 63.4062 11.625 63.4688C11.6875 63.5365 11.7839 63.5703 11.9141 63.5703C12.0443 63.5703 12.1432 63.5365 12.2109 63.4688C12.2734 63.4062 12.3047 63.3099 12.3047 63.1797C12.3047 63.0495 12.2734 62.9531 12.2109 62.8906C12.1432 62.8229 12.0443 62.7891 11.9141 62.7891C11.7839 62.7891 11.6875 62.8229 11.625 62.8906C11.5573 62.9531 11.5234 63.0495 11.5234 63.1797ZM13.6719 63.1797C13.6719 63.7682 13.526 64.2083 13.2344 64.5C12.9427 64.7917 12.5026 64.9375 11.9141 64.9375C11.3255 64.9375 10.8854 64.7917 10.5938 64.5C10.3021 64.2083 10.1562 63.7682 10.1562 63.1797C10.1562 62.5911 10.3021 62.151 10.5938 61.8594C10.8854 61.5677 11.3255 61.4219 11.9141 61.4219C12.5026 61.4219 12.9427 61.5677 13.2344 61.8594C13.526 62.151 13.6719 62.5911 13.6719 63.1797ZM20.5469 73.3047C20.3854 73.3047 20.2786 73.3411 20.2266 73.4141C20.1797 73.4818 20.1562 73.5911 20.1562 73.7422C20.1562 73.8984 20.1797 74.0104 20.2266 74.0781C20.2786 74.1458 20.3854 74.1849 20.5469 74.1953V73.3047ZM22.1094 76.9609L24.375 74.9062L26.6406 76.9609V72.3594C26.6406 71.7344 26.3359 71.1953 25.7266 70.7422C25.4193 71.0391 24.6823 71.1875 23.5156 71.1875C22.2656 71.1875 21.3932 71.0234 20.8984 70.6953C20.4036 70.3672 20.1562 69.8411 20.1562 69.1172C20.1562 68.638 20.2604 68.237 20.4688 67.9141C20.6771 67.5859 20.7812 67.2578 20.7812 66.9297C20.7812 66.6432 20.4427 66.5 19.7656 66.5V64.9375C21.6406 64.9375 22.5781 65.4323 22.5781 66.4219C22.5781 66.7708 22.474 67.1875 22.2656 67.6719C22.0573 68.151 21.9531 68.513 21.9531 68.7578C21.9531 69.0286 22.0599 69.2422 22.2734 69.3984C22.4922 69.5495 22.9245 69.625 23.5703 69.625C24.1276 69.625 24.5443 69.5443 24.8203 69.3828C24.4714 69.0964 24.2969 68.7604 24.2969 68.375C24.2969 67.6458 24.8698 67.2812 26.0156 67.2812C27.2135 67.2812 27.8125 67.724 27.8125 68.6094C27.8125 69 27.5677 69.3854 27.0781 69.7656C28.0885 70.5 28.5938 71.2344 28.5938 71.9688V79H26.5L24.375 76.875L22.25 79H20.1562V75.5312C19.7604 75.5 19.4661 75.3464 19.2734 75.0703C19.0807 74.7891 18.9844 74.3411 18.9844 73.7266C18.9844 73.112 19.0807 72.6667 19.2734 72.3906C19.4661 72.1094 19.8906 71.9688 20.5469 71.9688C21.2031 71.9688 21.6276 72.1094 21.8203 72.3906C22.013 72.6667 22.1094 73.112 22.1094 73.7266V76.9609ZM26 69.0078L26.2422 68.8359C26.3307 68.763 26.375 68.6927 26.375 68.625C26.375 68.4635 26.2656 68.3828 26.0469 68.3828C25.8385 68.3828 25.7344 68.4479 25.7344 68.5781C25.7344 68.651 25.7656 68.7135 25.8281 68.7656L26 69.0078ZM39.7656 74.2031C39.7656 74.0521 39.7135 73.9766 39.6094 73.9766C39.5052 73.9766 39.4531 74.0547 39.4531 74.2109C39.4531 74.4089 39.5573 74.5182 39.7656 74.5391V74.2031ZM39.8438 75.5391V75.875C39.8438 77.9583 38.8021 79 36.7188 79C34.6354 79 33.5938 77.9583 33.5938 75.875V74.3125H35.5469V75.875C35.5469 76.9167 35.9375 77.4375 36.7188 77.4375C37.5 77.4375 37.8906 76.9167 37.8906 75.875V75.2266C34.2969 73.9297 32.5 72.3229 32.5 70.4062C32.5 68.3229 33.9062 67.2812 36.7188 67.2812C39.5312 67.2812 40.9375 68.3229 40.9375 70.4062C40.9375 71.8594 40.1094 72.5859 38.4531 72.5859C38 72.5859 37.6302 72.4792 37.3438 72.2656V70.6016C37.9792 70.7891 38.3854 70.8828 38.5625 70.8828C38.8438 70.8828 38.9844 70.724 38.9844 70.4062C38.9844 69.3646 38.2292 68.8438 36.7188 68.8438C35.2083 68.8438 34.4531 69.3646 34.4531 70.4062C34.4531 72.0521 35.599 73.1536 37.8906 73.7109C37.8906 73.2786 38.3594 73.0625 39.2969 73.0625C40.3906 73.0625 40.9375 73.388 40.9375 74.0391C40.9375 74.6276 40.8307 75.0182 40.6172 75.2109C40.4089 75.4036 40.151 75.513 39.8438 75.5391ZM35.0781 63.4141C35.0781 63.7005 35.3385 63.8438 35.8594 63.8438H39.375C38.3385 63.2708 37.4271 62.9844 36.6406 62.9844C35.599 62.9844 35.0781 63.1276 35.0781 63.4141ZM39.5312 62.4453V60.6406H40.9375V64.9375H35.4688C34.1667 64.9375 33.5156 64.4167 33.5156 63.375C33.5156 62.0729 34.5573 61.4219 36.6406 61.4219C37.6667 61.4219 38.6302 61.763 39.5312 62.4453ZM52.8281 77.4375C54.599 77.4375 55.4844 75.875 55.4844 72.75C55.4844 70.1458 54.7292 68.8438 53.2188 68.8438C51.7083 68.8438 50.9531 69.625 50.9531 71.1875C50.9531 71.4479 51.0078 71.6745 51.1172 71.8672C51.2318 72.0599 51.3932 72.1562 51.6016 72.1562C51.8203 72.1562 51.9609 72.1354 52.0234 72.0938C52.0859 72.0469 52.1172 72 52.1172 71.9531C52.1172 71.9427 52.1068 71.9375 52.0859 71.9375C52.0286 71.9375 51.8802 71.9896 51.6406 72.0938L51.2266 71.1562C51.6432 70.849 52.0599 70.6953 52.4766 70.6953C52.9453 70.6953 53.2812 70.8047 53.4844 71.0234C53.6927 71.2422 53.7969 71.5547 53.7969 71.9609C53.7969 72.1797 53.7318 72.4349 53.6016 72.7266C53.4714 73.013 53.2188 73.2318 52.8438 73.3828C52.4688 73.5339 52.0755 73.6094 51.6641 73.6094C51.2057 73.6094 50.7734 73.5417 50.3672 73.4062C49.9661 73.2656 49.638 73.0156 49.3828 72.6562C49.1276 72.2969 49 71.8073 49 71.1875C49 68.5833 50.4062 67.2812 53.2188 67.2812C56.0312 67.2812 57.4375 69.1042 57.4375 72.75C57.4375 76.9167 55.901 79 52.8281 79C51.6406 79 50.5599 78.5885 49.5859 77.7656L50.3906 76.3125C51.1146 77.0625 51.9271 77.4375 52.8281 77.4375Z" fill="#1C4076"/>
<rect y="98" width="60" height="2" fill="#1C4076"/>
</svg>
