<svg width="107" height="45" viewBox="0 0 107 45" fill="none" xmlns="http://www.w3.org/2000/svg">
<path d="M8.82812 13.5C8.70312 13.5 8.61979 13.5286 8.57812 13.5859C8.53646 13.638 8.51562 13.6979 8.51562 13.7656C8.51562 13.8333 8.53385 13.888 8.57031 13.9297C8.61198 13.987 8.69792 14.0156 8.82812 14.0156V13.5ZM1.95312 12.4062C1.95312 11.9896 1.82292 11.5729 1.5625 11.1562V10.8438C1.5625 9.80208 2.1875 9.28125 3.4375 9.28125H5.95312L7.75 10.0625H8.20312C8.35938 10.0625 8.4375 10.0104 8.4375 9.90625V8.10938H10.3906V9.90625C10.3906 11.0521 9.84375 11.625 8.75 11.625H7.17188L5.375 10.8438H3.98438C3.67188 10.8438 3.51562 10.8958 3.51562 11C3.77604 11.4167 3.90625 11.8854 3.90625 12.4062V18.6094L6.17188 16.6875L8.4375 18.6094V15.1172C8.02083 15.1016 7.69792 14.9427 7.46875 14.6406C7.28125 14.4115 7.1875 14.1224 7.1875 13.7734C7.1875 13.4245 7.29948 13.1094 7.52344 12.8281C7.7474 12.5469 8.18229 12.4062 8.82812 12.4062C9.42188 12.4062 9.83073 12.5469 10.0547 12.8281C10.2786 13.1094 10.3906 13.4245 10.3906 13.7734V21H8.4375L6.17188 18.8281L3.64062 21H1.95312V12.4062ZM8.46094 24.2422C8.04948 24.8411 7.59375 25.2318 7.09375 25.4141C6.59375 25.5964 6.14062 25.6875 5.73438 25.6875C4.51562 25.6875 3.90625 25.2969 3.90625 24.5156C3.90625 23.8906 4.17448 23.4792 4.71094 23.2812C5.2474 23.0885 5.78385 22.8411 6.32031 22.5391C6.85677 22.2422 7.125 21.9896 7.125 21.7812H8.42969C8.42969 22.7188 7.46094 23.526 5.52344 24.2031C5.52344 24.3073 5.64583 24.3594 5.89062 24.3594C6.19271 24.3594 6.59115 24.2682 7.08594 24.0859C7.57552 23.9036 8.03385 23.4766 8.46094 22.8047V22.3281H10V25.6875H8.46094V24.2422ZM10.3906 9.28125H12.2656C14.9219 9.28125 16.25 10.3229 16.25 12.4062V21H14.2969V12.4062C14.2969 11.3646 13.6198 10.8438 12.2656 10.8438H10.3906V9.28125ZM11.5234 5.17969C11.5234 5.3099 11.5573 5.40625 11.625 5.46875C11.6875 5.53646 11.7839 5.57031 11.9141 5.57031C12.0443 5.57031 12.1432 5.53646 12.2109 5.46875C12.2734 5.40625 12.3047 5.3099 12.3047 5.17969C12.3047 5.04948 12.2734 4.95312 12.2109 4.89062C12.1432 4.82292 12.0443 4.78906 11.9141 4.78906C11.7839 4.78906 11.6875 4.82292 11.625 4.89062C11.5573 4.95312 11.5234 5.04948 11.5234 5.17969ZM13.6719 5.17969C13.6719 5.76823 13.526 6.20833 13.2344 6.5C12.9427 6.79167 12.5026 6.9375 11.9141 6.9375C11.3255 6.9375 10.8854 6.79167 10.5938 6.5C10.3021 6.20833 10.1562 5.76823 10.1562 5.17969C10.1562 4.59115 10.3021 4.15104 10.5938 3.85938C10.8854 3.56771 11.3255 3.42188 11.9141 3.42188C12.5026 3.42188 12.9427 3.56771 13.2344 3.85938C13.526 4.15104 13.6719 4.59115 13.6719 5.17969ZM20.5469 15.3047C20.3854 15.3047 20.2786 15.3411 20.2266 15.4141C20.1797 15.4818 20.1562 15.5911 20.1562 15.7422C20.1562 15.8984 20.1797 16.0104 20.2266 16.0781C20.2786 16.1458 20.3854 16.1849 20.5469 16.1953V15.3047ZM22.1094 18.9609L24.375 16.9062L26.6406 18.9609V14.3594C26.6406 13.7344 26.3359 13.1953 25.7266 12.7422C25.4193 13.0391 24.6823 13.1875 23.5156 13.1875C22.2656 13.1875 21.3932 13.0234 20.8984 12.6953C20.4036 12.3672 20.1562 11.8411 20.1562 11.1172C20.1562 10.638 20.2604 10.237 20.4688 9.91406C20.6771 9.58594 20.7812 9.25781 20.7812 8.92969C20.7812 8.64323 20.4427 8.5 19.7656 8.5V6.9375C21.6406 6.9375 22.5781 7.43229 22.5781 8.42188C22.5781 8.77083 22.474 9.1875 22.2656 9.67188C22.0573 10.151 21.9531 10.513 21.9531 10.7578C21.9531 11.0286 22.0599 11.2422 22.2734 11.3984C22.4922 11.5495 22.9245 11.625 23.5703 11.625C24.1276 11.625 24.5443 11.5443 24.8203 11.3828C24.4714 11.0964 24.2969 10.7604 24.2969 10.375C24.2969 9.64583 24.8698 9.28125 26.0156 9.28125C27.2135 9.28125 27.8125 9.72396 27.8125 10.6094C27.8125 11 27.5677 11.3854 27.0781 11.7656C28.0885 12.5 28.5938 13.2344 28.5938 13.9688V21H26.5L24.375 18.875L22.25 21H20.1562V17.5312C19.7604 17.5 19.4661 17.3464 19.2734 17.0703C19.0807 16.7891 18.9844 16.3411 18.9844 15.7266C18.9844 15.112 19.0807 14.6667 19.2734 14.3906C19.4661 14.1094 19.8906 13.9688 20.5469 13.9688C21.2031 13.9688 21.6276 14.1094 21.8203 14.3906C22.013 14.6667 22.1094 15.112 22.1094 15.7266V18.9609ZM26 11.0078L26.2422 10.8359C26.3307 10.763 26.375 10.6927 26.375 10.625C26.375 10.4635 26.2656 10.3828 26.0469 10.3828C25.8385 10.3828 25.7344 10.4479 25.7344 10.5781C25.7344 10.651 25.7656 10.7135 25.8281 10.7656L26 11.0078ZM39.7656 16.2031C39.7656 16.0521 39.7135 15.9766 39.6094 15.9766C39.5052 15.9766 39.4531 16.0547 39.4531 16.2109C39.4531 16.4089 39.5573 16.5182 39.7656 16.5391V16.2031ZM39.8438 17.5391V17.875C39.8438 19.9583 38.8021 21 36.7188 21C34.6354 21 33.5938 19.9583 33.5938 17.875V16.3125H35.5469V17.875C35.5469 18.9167 35.9375 19.4375 36.7188 19.4375C37.5 19.4375 37.8906 18.9167 37.8906 17.875V17.2266C34.2969 15.9297 32.5 14.3229 32.5 12.4062C32.5 10.3229 33.9062 9.28125 36.7188 9.28125C39.5312 9.28125 40.9375 10.3229 40.9375 12.4062C40.9375 13.8594 40.1094 14.5859 38.4531 14.5859C38 14.5859 37.6302 14.4792 37.3438 14.2656V12.6016C37.9792 12.7891 38.3854 12.8828 38.5625 12.8828C38.8438 12.8828 38.9844 12.724 38.9844 12.4062C38.9844 11.3646 38.2292 10.8438 36.7188 10.8438C35.2083 10.8438 34.4531 11.3646 34.4531 12.4062C34.4531 14.0521 35.599 15.1536 37.8906 15.7109C37.8906 15.2786 38.3594 15.0625 39.2969 15.0625C40.3906 15.0625 40.9375 15.388 40.9375 16.0391C40.9375 16.6276 40.8307 17.0182 40.6172 17.2109C40.4089 17.4036 40.151 17.513 39.8438 17.5391ZM35.0781 5.41406C35.0781 5.70052 35.3385 5.84375 35.8594 5.84375H39.375C38.3385 5.27083 37.4271 4.98438 36.6406 4.98438C35.599 4.98438 35.0781 5.1276 35.0781 5.41406ZM39.5312 4.44531V2.64062H40.9375V6.9375H35.4688C34.1667 6.9375 33.5156 6.41667 33.5156 5.375C33.5156 4.07292 34.5573 3.42188 36.6406 3.42188C37.6667 3.42188 38.6302 3.76302 39.5312 4.44531ZM52.8281 19.4375C54.599 19.4375 55.4844 17.875 55.4844 14.75C55.4844 12.1458 54.7292 10.8438 53.2188 10.8438C51.7083 10.8438 50.9531 11.625 50.9531 13.1875C50.9531 13.4479 51.0078 13.6745 51.1172 13.8672C51.2318 14.0599 51.3932 14.1562 51.6016 14.1562C51.8203 14.1562 51.9609 14.1354 52.0234 14.0938C52.0859 14.0469 52.1172 14 52.1172 13.9531C52.1172 13.9427 52.1068 13.9375 52.0859 13.9375C52.0286 13.9375 51.8802 13.9896 51.6406 14.0938L51.2266 13.1562C51.6432 12.849 52.0599 12.6953 52.4766 12.6953C52.9453 12.6953 53.2812 12.8047 53.4844 13.0234C53.6927 13.2422 53.7969 13.5547 53.7969 13.9609C53.7969 14.1797 53.7318 14.4349 53.6016 14.7266C53.4714 15.013 53.2188 15.2318 52.8438 15.3828C52.4688 15.5339 52.0755 15.6094 51.6641 15.6094C51.2057 15.6094 50.7734 15.5417 50.3672 15.4062C49.9661 15.2656 49.638 15.0156 49.3828 14.6562C49.1276 14.2969 49 13.8073 49 13.1875C49 10.5833 50.4062 9.28125 53.2188 9.28125C56.0312 9.28125 57.4375 11.1042 57.4375 14.75C57.4375 18.9167 55.901 21 52.8281 21C51.6406 21 50.5599 20.5885 49.5859 19.7656L50.3906 18.3125C51.1146 19.0625 51.9271 19.4375 52.8281 19.4375Z" fill="#1C4076"/>
<rect y="40" width="60" height="2" fill="#1C4076"/>
<rect y="32" width="60" height="8" fill="#EE7D22" fill-opacity="0.24"/>
<path d="M71.5 32V40" stroke="#F07D03"/>
<rect x="76" y="27" width="31" height="18" rx="3" fill="#F07D03"/>
<path d="M85.3026 40.0994C84.7557 40.0994 84.2692 40.0107 83.843 39.8331C83.4193 39.6532 83.0866 39.4081 82.8452 39.098C82.6037 38.7879 82.483 38.4363 82.483 38.0433C82.483 37.7403 82.5516 37.4621 82.6889 37.2088C82.8286 36.9531 83.018 36.7412 83.2571 36.5732C83.4962 36.4027 83.7637 36.2938 84.0597 36.2464V36.1967C83.6714 36.1186 83.3565 35.9304 83.1151 35.6321C82.8736 35.3314 82.7528 34.9822 82.7528 34.5845C82.7528 34.2081 82.8629 33.8731 83.0831 33.5795C83.3033 33.2836 83.6051 33.0516 83.9886 32.8835C84.3745 32.7131 84.8125 32.6278 85.3026 32.6278C85.7926 32.6278 86.2294 32.7131 86.6129 32.8835C86.9988 33.054 87.3018 33.2872 87.522 33.5831C87.7422 33.8767 87.8535 34.2105 87.8558 34.5845C87.8535 34.9846 87.7304 35.3338 87.4865 35.6321C87.2427 35.9304 86.9302 36.1186 86.549 36.1967V36.2464C86.8402 36.2938 87.1042 36.4027 87.3409 36.5732C87.58 36.7412 87.7694 36.9531 87.9091 37.2088C88.0511 37.4621 88.1233 37.7403 88.1257 38.0433C88.1233 38.4363 88.0014 38.7879 87.7599 39.098C87.5185 39.4081 87.1847 39.6532 86.7585 39.8331C86.3348 40.0107 85.8494 40.0994 85.3026 40.0994ZM85.3026 38.9702C85.5464 38.9702 85.7595 38.9264 85.9418 38.8388C86.1241 38.7488 86.2661 38.6257 86.3679 38.4695C86.4721 38.3108 86.5241 38.1286 86.5241 37.9226C86.5241 37.7119 86.4709 37.526 86.3643 37.3651C86.2578 37.2017 86.1134 37.0739 85.9311 36.9815C85.7488 36.8868 85.5393 36.8395 85.3026 36.8395C85.0682 36.8395 84.8587 36.8868 84.674 36.9815C84.4893 37.0739 84.3438 37.2017 84.2372 37.3651C84.133 37.526 84.081 37.7119 84.081 37.9226C84.081 38.1286 84.1319 38.3108 84.2337 38.4695C84.3355 38.6257 84.4787 38.7488 84.6634 38.8388C84.848 38.9264 85.0611 38.9702 85.3026 38.9702ZM85.3026 35.7209C85.5062 35.7209 85.6873 35.6795 85.8459 35.5966C86.0045 35.5137 86.1288 35.3989 86.2188 35.2521C86.3087 35.1054 86.3537 34.9361 86.3537 34.7443C86.3537 34.5549 86.3087 34.3892 86.2188 34.2472C86.1288 34.1027 86.0057 33.9903 85.8494 33.9098C85.6932 33.8269 85.5109 33.7855 85.3026 33.7855C85.0966 33.7855 84.9143 33.8269 84.7557 33.9098C84.5971 33.9903 84.4728 34.1027 84.3828 34.2472C84.2952 34.3892 84.2514 34.5549 84.2514 34.7443C84.2514 34.9361 84.2964 35.1054 84.3864 35.2521C84.4763 35.3989 84.6006 35.5137 84.7592 35.5966C84.9179 35.6795 85.099 35.7209 85.3026 35.7209ZM89.215 42.0455V34.5455H90.7065V35.4616H90.774C90.8403 35.3149 90.9361 35.1657 91.0616 35.0142C91.1895 34.8603 91.3552 34.7325 91.5588 34.6307C91.7647 34.5265 92.0204 34.4744 92.3258 34.4744C92.7235 34.4744 93.0905 34.5786 93.4267 34.7869C93.7628 34.9929 94.0315 35.3042 94.2328 35.7209C94.434 36.1352 94.5346 36.6548 94.5346 37.2798C94.5346 37.8883 94.4364 38.402 94.2399 38.821C94.0458 39.2377 93.7806 39.5537 93.4444 39.7692C93.1106 39.9822 92.7366 40.0888 92.3223 40.0888C92.0287 40.0888 91.7789 40.0402 91.573 39.9432C91.3694 39.8461 91.2025 39.7242 91.0723 39.5774C90.9421 39.4283 90.8426 39.2779 90.774 39.1264H90.7278V42.0455H89.215ZM90.6958 37.2727C90.6958 37.5971 90.7408 37.88 90.8308 38.1214C90.9208 38.3629 91.051 38.5511 91.2214 38.6861C91.3919 38.8187 91.599 38.8849 91.8429 38.8849C92.0891 38.8849 92.2974 38.8175 92.4679 38.6825C92.6383 38.5452 92.7673 38.3558 92.8549 38.1143C92.9449 37.8705 92.9899 37.59 92.9899 37.2727C92.9899 36.9579 92.9461 36.6809 92.8585 36.4418C92.7709 36.2027 92.6419 36.0156 92.4714 35.8807C92.301 35.7457 92.0914 35.6783 91.8429 35.6783C91.5967 35.6783 91.3883 35.7434 91.2179 35.8736C91.0498 36.0038 90.9208 36.1884 90.8308 36.4276C90.7408 36.6667 90.6958 36.9484 90.6958 37.2727ZM96.612 34.5455L97.6135 36.4524L98.6397 34.5455H100.192L98.6113 37.2727L100.234 40H98.6895L97.6135 38.1143L96.5552 40H94.9927L96.612 37.2727L95.0495 34.5455H96.612Z" fill="white"/>
<line x1="68" y1="32.5" x2="75" y2="32.5" stroke="#F07D03"/>
<line x1="68" y1="39.5" x2="75" y2="39.5" stroke="#F07D03"/>
</svg>
