<svg width="259" height="129" viewBox="0 0 259 129" fill="none" xmlns="http://www.w3.org/2000/svg">
<rect x="12.5" y="2" width="189" height="87" rx="4.5" fill="white"/>
<path fill-rule="evenodd" clip-rule="evenodd" d="M28.2877 29.2123C29.2723 30.1969 30.6076 30.75 32 30.75C33.3924 30.75 34.7277 30.1969 35.7123 29.2123C36.6969 28.2277 37.25 26.8924 37.25 25.5C37.25 24.1076 36.6969 22.7723 35.7123 21.7877C34.7277 20.8031 33.3924 20.25 32 20.25C30.6076 20.25 29.2723 20.8031 28.2877 21.7877C27.3031 22.7723 26.75 24.1076 26.75 25.5C26.75 26.8924 27.3031 28.2277 28.2877 29.2123ZM36.2426 29.7426C35.1174 30.8679 33.5913 31.5 32 31.5C30.4087 31.5 28.8826 30.8679 27.7574 29.7426C26.6321 28.6174 26 27.0913 26 25.5C26 23.9087 26.6321 22.3826 27.7574 21.2574C28.8826 20.1321 30.4087 19.5 32 19.5C33.5913 19.5 35.1174 20.1321 36.2426 21.2574C37.3679 22.3826 38 23.9087 38 25.5C38 27.0913 37.3679 28.6174 36.2426 29.7426ZM28.637 28.8488C26.813 27.0248 26.7958 24.0783 28.5852 22.233L35.2528 28.9006C33.4076 30.6901 30.461 30.6728 28.637 28.8488Z" fill="#344054"/>
<path d="M63.0469 21.9062V32.4531C63.0469 33.7552 63.6068 34.4062 64.7266 34.4062C65.8464 34.4062 66.4062 33.7552 66.4062 32.4531V31.2812H67.7344V32.4531C67.7344 34.5365 66.7318 35.5781 64.7266 35.5781C62.7214 35.5781 61.7188 34.5365 61.7188 32.4531V21.9062C61.7188 21.5417 61.4583 21.151 60.9375 20.7344V19.9531C60.9375 19.1719 61.3281 18.7812 62.1094 18.7812H63.4375V19.9531H62.5C62.2396 19.9531 62.1094 20.0833 62.1094 20.3438C62.7344 20.7604 63.0469 21.2812 63.0469 21.9062ZM72.8906 21.9062C72.8906 21.5417 72.6302 21.151 72.1094 20.7344V19.9531C72.1094 19.1719 72.5 18.7812 73.2812 18.7812H74.6094V19.9531H73.6719C73.4115 19.9531 73.2812 20.0833 73.2812 20.3438C73.9062 20.7604 74.2188 21.2812 74.2188 21.9062V26.5938C74.2188 29.1979 72.9167 30.5 70.3125 30.5C67.7083 30.5 66.4062 29.1979 66.4062 26.5938V21.9062C66.4062 21.5417 66.1458 21.151 65.625 20.7344V19.9531C65.625 19.1719 66.0156 18.7812 66.7969 18.7812H68.125V19.9531H67.1875C66.9271 19.9531 66.7969 20.0833 66.7969 20.3438C67.4219 20.7604 67.7344 21.2812 67.7344 21.9062V26.5938C67.7344 28.4167 68.5938 29.3281 70.3125 29.3281C72.0312 29.3281 72.8906 28.4167 72.8906 26.5938V21.9062ZM84.6094 22.8828C84.5 22.8828 84.4062 22.9167 84.3281 22.9844C84.2552 23.0521 84.2188 23.1484 84.2188 23.2734C84.2188 23.3984 84.2552 23.4948 84.3281 23.5625C84.4062 23.6302 84.5 23.6641 84.6094 23.6641V22.8828ZM84.6094 24.5859C84.5573 24.5911 84.5052 24.5938 84.4531 24.5938C84.099 24.5938 83.8359 24.4818 83.6641 24.2578C83.4609 24.0078 83.3594 23.6797 83.3594 23.2734C83.3594 22.8672 83.4583 22.5391 83.6562 22.2891C83.8594 22.0339 84.1901 21.9062 84.6484 21.9062C85.1068 21.9062 85.4349 22.0339 85.6328 22.2891C85.8359 22.5391 85.9375 22.8672 85.9375 23.2734V30.5H84.7656L82.0312 28.1562L79.2969 30.5H78.125V21.9062C78.125 21.5417 77.9948 21.151 77.7344 20.7344V20.3438C77.7344 19.3021 78.2552 18.7812 79.2969 18.7812H85.9375V19.9531H79.8438C79.3229 19.9531 79.0625 20.1094 79.0625 20.4219C79.3229 20.8385 79.4531 21.3333 79.4531 21.9062V28.9375L82.0312 26.75L84.6094 28.9375V24.5859ZM85.9375 18.7812H87.5C89.5833 18.7812 90.625 19.8229 90.625 21.9062V30.5H89.2969V21.9062C89.2969 20.6042 88.6979 19.9531 87.5 19.9531H85.9375V18.7812ZM102.344 25.7344V27.375C102.344 29.4583 101.615 30.5 100.156 30.5C99.0833 30.5 98.2891 30.1745 97.7734 29.5234C97.2578 28.8724 96.6198 28.5469 95.8594 28.5469V30.5H94.5312V25.8125H95.8594V27.375C96.7708 27.375 97.5104 27.7005 98.0781 28.3516C98.651 29.0026 99.2318 29.3281 99.8203 29.3281C100.617 29.3281 101.016 28.6771 101.016 27.375V26.5938C96.6927 25.6562 94.5312 24.0938 94.5312 21.9062C94.5312 19.8229 95.8333 18.7812 98.4375 18.7812C101.042 18.7812 102.344 19.8229 102.344 21.9062C102.344 23.3594 101.62 24.0859 100.172 24.0859C99.8438 24.0859 99.5781 24.0104 99.375 23.8594V22.6875C99.7448 22.7969 100.047 22.8516 100.281 22.8516C100.771 22.8516 101.016 22.5365 101.016 21.9062C101.016 20.6042 100.156 19.9531 98.4375 19.9531C96.7188 19.9531 95.8594 20.6042 95.8594 21.9062C95.8594 23.4688 98.0208 24.7448 102.344 25.7344ZM112.734 21.9062C112.734 21.5417 112.474 21.151 111.953 20.7344V19.9531C111.953 19.1719 112.344 18.7812 113.125 18.7812H114.453V19.9531H113.516C113.255 19.9531 113.125 20.0833 113.125 20.3438C113.75 20.7604 114.062 21.2812 114.062 21.9062V26.5938C114.062 29.1979 112.76 30.5 110.156 30.5C107.552 30.5 106.25 29.1979 106.25 26.5938V21.9062C106.25 21.5417 105.99 21.151 105.469 20.7344V19.9531C105.469 19.1719 105.859 18.7812 106.641 18.7812H107.969V19.9531H107.031C106.771 19.9531 106.641 20.0833 106.641 20.3438C107.266 20.7604 107.578 21.2812 107.578 21.9062V26.5938C107.578 28.4167 108.438 29.3281 110.156 29.3281C111.875 29.3281 112.734 28.4167 112.734 26.5938V21.9062ZM124.688 25.8828C124.724 25.8932 124.76 25.8984 124.797 25.8984C124.932 25.8984 125 25.7917 125 25.5781C125 25.3698 124.948 25.2656 124.844 25.2656C124.74 25.2656 124.688 25.3672 124.688 25.5703V25.8828ZM124.688 26.5859V27.375C124.688 29.4583 123.75 30.5 121.875 30.5C120 30.5 119.062 29.4583 119.062 27.375V25.8125H120.391V27.375C120.391 28.6771 120.885 29.3281 121.875 29.3281C122.865 29.3281 123.359 28.6771 123.359 27.375V26.3984C119.766 25.362 117.969 23.8646 117.969 21.9062C117.969 19.8229 119.271 18.7812 121.875 18.7812C124.479 18.7812 125.781 19.8229 125.781 21.9062C125.781 23.3594 125.057 24.0859 123.609 24.0859C123.281 24.0859 123.016 24.0104 122.812 23.8594V22.6875C123.182 22.7969 123.484 22.8516 123.719 22.8516C124.208 22.8516 124.453 22.5365 124.453 21.9062C124.453 20.6042 123.594 19.9531 121.875 19.9531C120.156 19.9531 119.297 20.6042 119.297 21.9062C119.297 23.5156 120.651 24.6484 123.359 25.3047C123.359 24.8099 123.724 24.5625 124.453 24.5625C125.339 24.5625 125.781 24.888 125.781 25.5391C125.781 25.9297 125.693 26.2057 125.516 26.3672C125.339 26.5286 125.148 26.6094 124.945 26.6094C124.862 26.6094 124.776 26.6016 124.688 26.5859ZM129.688 29.3281V28.1562H129.492C129.435 28.1562 129.388 28.1823 129.352 28.2344C129.315 28.2812 129.297 28.4505 129.297 28.7422C129.297 29.0339 129.315 29.2057 129.352 29.2578C129.388 29.3047 129.435 29.3281 129.492 29.3281H129.688ZM131.016 21.9062V28.7422C131.016 29.4089 130.927 29.8698 130.75 30.125C130.578 30.375 130.25 30.5 129.766 30.5C129.281 30.5 128.951 30.375 128.773 30.125C128.602 29.8698 128.516 29.4089 128.516 28.7422C128.516 28.0755 128.602 27.6172 128.773 27.3672C128.951 27.112 129.19 26.9844 129.492 26.9844C129.56 26.9844 129.625 26.9896 129.688 27V21.9062C129.583 21.5417 129.323 21.151 128.906 20.7344V19.9531C128.906 19.1719 129.297 18.7812 130.078 18.7812H131.406V19.9531H130.469C130.208 19.9531 130.078 20.0833 130.078 20.3438C130.703 20.7604 131.016 21.2812 131.016 21.9062ZM141.406 21.9062C141.406 21.5417 141.146 21.151 140.625 20.7344V19.9531C140.625 19.1719 141.016 18.7812 141.797 18.7812H143.125V19.9531H142.188C141.927 19.9531 141.797 20.0833 141.797 20.3438C142.422 20.7604 142.734 21.2812 142.734 21.9062V26.5938C142.734 29.1979 141.432 30.5 138.828 30.5C136.224 30.5 134.922 29.1979 134.922 26.5938V21.9062C134.922 21.5417 134.661 21.151 134.141 20.7344V19.9531C134.141 19.1719 134.531 18.7812 135.312 18.7812H136.641V19.9531H135.703C135.443 19.9531 135.312 20.0833 135.312 20.3438C135.938 20.7604 136.25 21.2812 136.25 21.9062V26.5938C136.25 28.4167 137.109 29.3281 138.828 29.3281C140.547 29.3281 141.406 28.4167 141.406 26.5938V21.9062ZM147.812 28.1562V29.3281C147.922 29.3281 148.013 29.2995 148.086 29.2422C148.164 29.1797 148.203 29.013 148.203 28.7422C148.203 28.4714 148.164 28.3073 148.086 28.25C148.013 28.1875 147.922 28.1562 147.812 28.1562ZM159.922 21.9062V26.5938C159.922 29.1979 158.75 30.5 156.406 30.5C153.88 30.5 152.617 29.1979 152.617 26.5938V25.0312C152.617 23.2083 151.844 22.2969 150.297 22.2969C148.745 22.2969 147.969 23.2083 147.969 25.0312V27.0625C148.089 27.0104 148.227 26.9844 148.383 26.9844C148.539 26.9844 148.703 27.125 148.875 27.4062C149.052 27.6823 149.141 28.1276 149.141 28.7422C149.141 29.3568 149.026 29.8047 148.797 30.0859C148.573 30.362 148.271 30.5 147.891 30.5C147.51 30.5 147.208 30.3594 146.984 30.0781C146.807 29.8646 146.698 29.5495 146.656 29.1328H146.641V25.0312C146.641 23.4062 147.115 22.2891 148.062 21.6797C147.828 21.2891 147.484 20.974 147.031 20.7344V19.9531C147.031 19.1719 147.422 18.7812 148.203 18.7812H152.5V19.9531H148.75C148.49 19.9531 148.359 20.0833 148.359 20.3438C148.766 20.5625 149.086 20.849 149.32 21.2031C149.622 21.151 149.948 21.125 150.297 21.125C152.729 21.125 153.945 22.4271 153.945 25.0312V26.5938C153.945 28.4167 154.766 29.3281 156.406 29.3281C157.865 29.3281 158.594 28.4167 158.594 26.5938V21.9062C158.594 21.5417 158.333 21.151 157.812 20.7344V19.9531C157.812 19.1719 158.203 18.7812 158.984 18.7812H160.312V19.9531H159.375C159.115 19.9531 158.984 20.0833 158.984 20.3438C159.609 20.7604 159.922 21.2812 159.922 21.9062ZM156.602 12.9219V16.4375H155.43V12.9219H156.602ZM170.312 22.8828C170.203 22.8828 170.109 22.9167 170.031 22.9844C169.958 23.0521 169.922 23.1484 169.922 23.2734C169.922 23.3984 169.958 23.4948 170.031 23.5625C170.109 23.6302 170.203 23.6641 170.312 23.6641V22.8828ZM163.828 21.9062C163.828 21.5417 163.698 21.151 163.438 20.7344V20.3438C163.438 19.3021 163.958 18.7812 165 18.7812H167.344L169.141 19.9531H169.766C170.13 19.9531 170.312 19.7708 170.312 19.4062V17.6094H171.641V19.4062C171.641 20.5521 171.198 21.125 170.312 21.125H168.906L167.109 19.9531H165.547C165.026 19.9531 164.766 20.1094 164.766 20.4219C165.026 20.8385 165.156 21.3333 165.156 21.9062V28.9375L167.734 26.75L170.312 28.9375V24.5859C170.26 24.5911 170.208 24.5938 170.156 24.5938C169.802 24.5938 169.539 24.4818 169.367 24.2578C169.164 24.0078 169.062 23.6797 169.062 23.2734C169.062 22.8672 169.161 22.5391 169.359 22.2891C169.562 22.0339 169.893 21.9062 170.352 21.9062C170.81 21.9062 171.138 22.0339 171.336 22.2891C171.539 22.5391 171.641 22.8672 171.641 23.2734V30.5H170.469L167.734 28.1562L165 30.5H163.828V21.9062ZM170.078 33.7422C169.661 34.3411 169.206 34.7318 168.711 34.9141C168.216 35.0964 167.786 35.1875 167.422 35.1875C166.328 35.1875 165.781 34.7969 165.781 34.0156C165.781 33.4948 166.023 33.1615 166.508 33.0156C166.987 32.875 167.469 32.6536 167.953 32.3516C168.432 32.0547 168.672 31.6979 168.672 31.2812H169.844C169.844 32.2188 168.88 33.0781 166.953 33.8594C166.953 33.9635 167.109 34.0156 167.422 34.0156C167.786 34.0156 168.19 33.9245 168.633 33.7422C169.076 33.5599 169.557 33.0807 170.078 32.3047V31.8281H171.25V35.1875H170.078V33.7422ZM171.641 18.7812H173.203C175.286 18.7812 176.328 19.8229 176.328 21.9062V30.5H175V21.9062C175 20.6042 174.401 19.9531 173.203 19.9531H171.641V18.7812ZM172.031 14.6797C172.031 14.8724 172.081 15.0182 172.18 15.1172C172.279 15.2161 172.424 15.2656 172.617 15.2656C172.815 15.2656 172.964 15.2161 173.062 15.1172C173.156 15.0182 173.203 14.8724 173.203 14.6797C173.203 14.4818 173.156 14.3359 173.062 14.2422C172.964 14.1432 172.815 14.0938 172.617 14.0938C172.424 14.0938 172.279 14.1432 172.18 14.2422C172.081 14.3359 172.031 14.4818 172.031 14.6797ZM174.375 14.6797C174.375 15.2682 174.229 15.7083 173.938 16C173.646 16.2917 173.206 16.4375 172.617 16.4375C172.029 16.4375 171.589 16.2917 171.297 16C171.005 15.7083 170.859 15.2682 170.859 14.6797C170.859 14.0911 171.005 13.651 171.297 13.3594C171.589 13.0677 172.029 12.9219 172.617 12.9219C173.206 12.9219 173.646 13.0677 173.938 13.3594C174.229 13.651 174.375 14.0911 174.375 14.6797ZM186.094 19.9688C186.094 19.8125 185.99 19.7344 185.781 19.7344C185.573 19.7344 185.469 19.8125 185.469 19.9688C185.469 20.1094 185.573 20.25 185.781 20.3906C185.99 20.2812 186.094 20.1406 186.094 19.9688ZM180.039 23.8594C179.982 23.8594 179.935 23.8854 179.898 23.9375C179.862 23.9844 179.844 24.1536 179.844 24.4453C179.844 24.737 179.862 24.9089 179.898 24.9609C179.935 25.0078 179.982 25.0312 180.039 25.0312H180.234V23.8594H180.039ZM181.562 28.9375L184.141 26.5938L186.719 28.9375V23.4688C186.719 22.9062 186.297 22.3099 185.453 21.6797C185.026 22.0911 184.302 22.2969 183.281 22.2969C182.146 22.2969 181.354 22.1484 180.906 21.8516C180.458 21.5547 180.234 21.1432 180.234 20.6172C180.234 20.0964 180.339 19.6094 180.547 19.1562C180.755 18.6979 180.859 18.3255 180.859 18.0391C180.859 17.7526 180.521 17.6094 179.844 17.6094V16.4375C181.302 16.4375 182.031 16.9323 182.031 17.9219C182.031 18.3125 181.927 18.75 181.719 19.2344C181.51 19.7135 181.406 20.0547 181.406 20.2578C181.406 20.4661 181.536 20.6641 181.797 20.8516C182.057 21.0339 182.57 21.125 183.336 21.125C183.997 21.125 184.474 21.0391 184.766 20.8672C184.505 20.6536 184.375 20.3229 184.375 19.875C184.375 19.1458 184.844 18.7812 185.781 18.7812C186.771 18.7812 187.266 19.224 187.266 20.1094C187.266 20.5625 187.062 20.9479 186.656 21.2656C187.583 21.9375 188.047 22.6719 188.047 23.4688V30.5H186.484L184.141 28.1562L181.797 30.5H180.234V26.1875C180.172 26.1979 180.107 26.2031 180.039 26.2031C179.737 26.2031 179.497 26.0781 179.32 25.8281C179.148 25.5729 179.062 25.112 179.062 24.4453C179.062 23.7786 179.148 23.3203 179.32 23.0703C179.497 22.8151 179.828 22.6875 180.312 22.6875C180.797 22.6875 181.125 22.8151 181.297 23.0703C181.474 23.3203 181.562 23.7786 181.562 24.4453V28.9375Z" fill="#344054"/>
<path d="M171.953 58.6094L172.422 58.6953C173.568 58.9141 174.87 59.7448 176.328 61.1875L175.625 61.8906C174.479 60.6979 173.398 60.0104 172.383 59.8281C172.049 59.7708 171.742 59.7422 171.461 59.7422C170.888 59.7422 170.474 59.8958 170.219 60.2031C169.969 60.5052 169.844 61.0547 169.844 61.8516V62.5938C169.844 64.4167 170.703 65.3281 172.422 65.3281C174.141 65.3281 175 64.9375 175 64.1562C175 63.6146 174.888 63.3438 174.664 63.3438C174.289 63.3438 174.039 63.3984 173.914 63.5078C173.789 63.6172 173.727 63.7005 173.727 63.7578C173.727 63.8151 173.818 63.8438 174 63.8438C174.141 63.8438 174.336 63.7578 174.586 63.5859L174.93 64.4062C174.565 64.6719 174.185 64.8047 173.789 64.8047C173.419 64.8047 173.146 64.7109 172.969 64.5234C172.792 64.3359 172.703 64.0859 172.703 63.7734C172.703 63.4609 172.794 63.1823 172.977 62.9375C173.164 62.6927 173.398 62.5234 173.68 62.4297C173.961 62.3307 174.268 62.2812 174.602 62.2812C175.753 62.2812 176.328 62.9062 176.328 64.1562C176.328 65.7188 175.026 66.5 172.422 66.5C169.818 66.5 168.516 65.1979 168.516 62.5938V61.8516C168.516 60.5911 168.88 59.6953 169.609 59.1641C169.917 58.9453 170.263 58.7891 170.648 58.6953C170.362 57.9714 170.219 57.3464 170.219 56.8203C170.219 55.4609 171.083 54.7812 172.812 54.7812C173.99 54.7812 174.719 55.1797 175 55.9766V54.7812C175 54.5208 174.74 54.3906 174.219 54.3906H173.828V53.2188H174.766C175.807 53.2188 176.328 53.7396 176.328 54.7812V58.6875H175C175 56.8646 174.271 55.9531 172.812 55.9531C171.984 55.9531 171.57 56.3203 171.57 57.0547C171.57 57.4818 171.698 58 171.953 58.6094ZM183.672 58.6094L184.141 58.6953C185.286 58.9141 186.589 59.7448 188.047 61.1875L187.344 61.8906C186.198 60.6979 185.117 60.0104 184.102 59.8281C183.768 59.7708 183.461 59.7422 183.18 59.7422C182.607 59.7422 182.193 59.8958 181.938 60.2031C181.688 60.5052 181.562 61.0547 181.562 61.8516V62.5938C181.562 64.4167 182.422 65.3281 184.141 65.3281C185.859 65.3281 186.719 64.9375 186.719 64.1562C186.719 63.6146 186.607 63.3438 186.383 63.3438C186.008 63.3438 185.758 63.3984 185.633 63.5078C185.508 63.6172 185.445 63.7005 185.445 63.7578C185.445 63.8151 185.536 63.8438 185.719 63.8438C185.859 63.8438 186.055 63.7578 186.305 63.5859L186.648 64.4062C186.284 64.6719 185.904 64.8047 185.508 64.8047C185.138 64.8047 184.865 64.7109 184.688 64.5234C184.51 64.3359 184.422 64.0859 184.422 63.7734C184.422 63.4609 184.513 63.1823 184.695 62.9375C184.883 62.6927 185.117 62.5234 185.398 62.4297C185.68 62.3307 185.987 62.2812 186.32 62.2812C187.471 62.2812 188.047 62.9062 188.047 64.1562C188.047 65.7188 186.745 66.5 184.141 66.5C181.536 66.5 180.234 65.1979 180.234 62.5938V61.8516C180.234 60.5911 180.599 59.6953 181.328 59.1641C181.635 58.9453 181.982 58.7891 182.367 58.6953C182.081 57.9714 181.938 57.3464 181.938 56.8203C181.938 55.4609 182.802 54.7812 184.531 54.7812C185.708 54.7812 186.438 55.1797 186.719 55.9766V54.7812C186.719 54.5208 186.458 54.3906 185.938 54.3906H185.547V53.2188H186.484C187.526 53.2188 188.047 53.7396 188.047 54.7812V58.6875H186.719C186.719 56.8646 185.99 55.9531 184.531 55.9531C183.703 55.9531 183.289 56.3203 183.289 57.0547C183.289 57.4818 183.417 58 183.672 58.6094Z" fill="#344054"/>
<rect x="12.5" y="2" width="189" height="87" rx="4.5" stroke="#98A2B3"/>
<rect x="12" y="1.5" width="12" height="88" fill="#EE7D22" fill-opacity="0.24"/>
<rect x="12" y="1.5" width="190" height="12" fill="#EE7D22" fill-opacity="0.24"/>
<rect x="12" y="37.5" width="190" height="8" fill="#EE7D22" fill-opacity="0.24"/>
<rect x="12" y="77.5" width="190" height="12" fill="#EE7D22" fill-opacity="0.24"/>
<rect x="190" y="1.5" width="12" height="88" fill="#EE7D22" fill-opacity="0.24"/>
<path d="M218.5 1.5V13.5" stroke="#F07D03"/>
<rect x="223" width="36" height="18" rx="3" fill="#F07D03"/>
<path d="M232.754 5.72727V13H231.216V7.18679H231.173L229.508 8.23082V6.86719L231.308 5.72727H232.754ZM234.482 13V11.892L237.071 9.49503C237.291 9.28196 237.476 9.0902 237.625 8.91974C237.776 8.74929 237.891 8.58239 237.969 8.41903C238.047 8.25331 238.086 8.07457 238.086 7.88281C238.086 7.66974 238.038 7.48627 237.941 7.33239C237.844 7.17614 237.711 7.05658 237.543 6.97372C237.375 6.88849 237.184 6.84588 236.971 6.84588C236.749 6.84588 236.555 6.89086 236.389 6.98082C236.223 7.07079 236.095 7.19981 236.006 7.3679C235.916 7.53598 235.871 7.73603 235.871 7.96804H234.411C234.411 7.49219 234.519 7.07907 234.734 6.72869C234.95 6.37831 235.251 6.10724 235.64 5.91548C236.028 5.72372 236.475 5.62784 236.982 5.62784C237.503 5.62784 237.956 5.72017 238.342 5.90483C238.73 6.08712 239.032 6.34044 239.248 6.66477C239.463 6.98911 239.571 7.3608 239.571 7.77983C239.571 8.05445 239.516 8.32552 239.407 8.59304C239.301 8.86056 239.11 9.15767 238.836 9.48438C238.561 9.80871 238.174 10.1982 237.675 10.6527L236.613 11.6932V11.7429H239.667V13H234.482ZM240.795 15.0455V7.54545H242.287V8.46165H242.354C242.42 8.31487 242.516 8.16572 242.642 8.0142C242.77 7.86032 242.935 7.73248 243.139 7.63068C243.345 7.52652 243.6 7.47443 243.906 7.47443C244.304 7.47443 244.671 7.5786 245.007 7.78693C245.343 7.9929 245.612 8.30421 245.813 8.72088C246.014 9.13518 246.115 9.65483 246.115 10.2798C246.115 10.8883 246.016 11.402 245.82 11.821C245.626 12.2377 245.361 12.5537 245.025 12.7692C244.691 12.9822 244.317 13.0888 243.902 13.0888C243.609 13.0888 243.359 13.0402 243.153 12.9432C242.949 12.8461 242.783 12.7242 242.652 12.5774C242.522 12.4283 242.423 12.2779 242.354 12.1264H242.308V15.0455H240.795ZM242.276 10.2727C242.276 10.5971 242.321 10.88 242.411 11.1214C242.501 11.3629 242.631 11.5511 242.801 11.6861C242.972 11.8187 243.179 11.8849 243.423 11.8849C243.669 11.8849 243.877 11.8175 244.048 11.6825C244.218 11.5452 244.347 11.3558 244.435 11.1143C244.525 10.8705 244.57 10.59 244.57 10.2727C244.57 9.95786 244.526 9.68087 244.439 9.44176C244.351 9.20265 244.222 9.01562 244.051 8.88068C243.881 8.74574 243.672 8.67827 243.423 8.67827C243.177 8.67827 242.968 8.74337 242.798 8.87358C242.63 9.00379 242.501 9.18845 242.411 9.42756C242.321 9.66667 242.276 9.94839 242.276 10.2727ZM248.192 7.54545L249.194 9.45241L250.22 7.54545H251.772L250.191 10.2727L251.814 13H250.27L249.194 11.1143L248.135 13H246.573L248.192 10.2727L246.63 7.54545H248.192Z" fill="white"/>
<line x1="215" y1="2" x2="222" y2="2" stroke="#F07D03"/>
<line x1="215" y1="13" x2="222" y2="13" stroke="#F07D03"/>
<path d="M218.5 37.5V45.5" stroke="#F07D03"/>
<rect x="223" y="34" width="31" height="18" rx="3" fill="#F07D03"/>
<path d="M232.303 47.0994C231.756 47.0994 231.269 47.0107 230.843 46.8331C230.419 46.6532 230.087 46.4081 229.845 46.098C229.604 45.7879 229.483 45.4363 229.483 45.0433C229.483 44.7403 229.552 44.4621 229.689 44.2088C229.829 43.9531 230.018 43.7412 230.257 43.5732C230.496 43.4027 230.764 43.2938 231.06 43.2464V43.1967C230.671 43.1186 230.357 42.9304 230.115 42.6321C229.874 42.3314 229.753 41.9822 229.753 41.5845C229.753 41.2081 229.863 40.8731 230.083 40.5795C230.303 40.2836 230.605 40.0516 230.989 39.8835C231.375 39.7131 231.812 39.6278 232.303 39.6278C232.793 39.6278 233.229 39.7131 233.613 39.8835C233.999 40.054 234.302 40.2872 234.522 40.5831C234.742 40.8767 234.853 41.2105 234.856 41.5845C234.853 41.9846 234.73 42.3338 234.487 42.6321C234.243 42.9304 233.93 43.1186 233.549 43.1967V43.2464C233.84 43.2938 234.104 43.4027 234.341 43.5732C234.58 43.7412 234.769 43.9531 234.909 44.2088C235.051 44.4621 235.123 44.7403 235.126 45.0433C235.123 45.4363 235.001 45.7879 234.76 46.098C234.518 46.4081 234.185 46.6532 233.759 46.8331C233.335 47.0107 232.849 47.0994 232.303 47.0994ZM232.303 45.9702C232.546 45.9702 232.759 45.9264 232.942 45.8388C233.124 45.7488 233.266 45.6257 233.368 45.4695C233.472 45.3108 233.524 45.1286 233.524 44.9226C233.524 44.7119 233.471 44.526 233.364 44.3651C233.258 44.2017 233.113 44.0739 232.931 43.9815C232.749 43.8868 232.539 43.8395 232.303 43.8395C232.068 43.8395 231.859 43.8868 231.674 43.9815C231.489 44.0739 231.344 44.2017 231.237 44.3651C231.133 44.526 231.081 44.7119 231.081 44.9226C231.081 45.1286 231.132 45.3108 231.234 45.4695C231.335 45.6257 231.479 45.7488 231.663 45.8388C231.848 45.9264 232.061 45.9702 232.303 45.9702ZM232.303 42.7209C232.506 42.7209 232.687 42.6795 232.846 42.5966C233.004 42.5137 233.129 42.3989 233.219 42.2521C233.309 42.1054 233.354 41.9361 233.354 41.7443C233.354 41.5549 233.309 41.3892 233.219 41.2472C233.129 41.1027 233.006 40.9903 232.849 40.9098C232.693 40.8269 232.511 40.7855 232.303 40.7855C232.097 40.7855 231.914 40.8269 231.756 40.9098C231.597 40.9903 231.473 41.1027 231.383 41.2472C231.295 41.3892 231.251 41.5549 231.251 41.7443C231.251 41.9361 231.296 42.1054 231.386 42.2521C231.476 42.3989 231.601 42.5137 231.759 42.5966C231.918 42.6795 232.099 42.7209 232.303 42.7209ZM236.215 49.0455V41.5455H237.706V42.4616H237.774C237.84 42.3149 237.936 42.1657 238.062 42.0142C238.189 41.8603 238.355 41.7325 238.559 41.6307C238.765 41.5265 239.02 41.4744 239.326 41.4744C239.724 41.4744 240.09 41.5786 240.427 41.7869C240.763 41.9929 241.032 42.3042 241.233 42.7209C241.434 43.1352 241.535 43.6548 241.535 44.2798C241.535 44.8883 241.436 45.402 241.24 45.821C241.046 46.2377 240.781 46.5537 240.444 46.7692C240.111 46.9822 239.737 47.0888 239.322 47.0888C239.029 47.0888 238.779 47.0402 238.573 46.9432C238.369 46.8461 238.202 46.7242 238.072 46.5774C237.942 46.4283 237.843 46.2779 237.774 46.1264H237.728V49.0455H236.215ZM237.696 44.2727C237.696 44.5971 237.741 44.88 237.831 45.1214C237.921 45.3629 238.051 45.5511 238.221 45.6861C238.392 45.8187 238.599 45.8849 238.843 45.8849C239.089 45.8849 239.297 45.8175 239.468 45.6825C239.638 45.5452 239.767 45.3558 239.855 45.1143C239.945 44.8705 239.99 44.59 239.99 44.2727C239.99 43.9579 239.946 43.6809 239.858 43.4418C239.771 43.2027 239.642 43.0156 239.471 42.8807C239.301 42.7457 239.091 42.6783 238.843 42.6783C238.597 42.6783 238.388 42.7434 238.218 42.8736C238.05 43.0038 237.921 43.1884 237.831 43.4276C237.741 43.6667 237.696 43.9484 237.696 44.2727ZM243.612 41.5455L244.613 43.4524L245.64 41.5455H247.192L245.611 44.2727L247.234 47H245.689L244.613 45.1143L243.555 47H241.993L243.612 44.2727L242.05 41.5455H243.612Z" fill="white"/>
<line x1="215" y1="38" x2="222" y2="38" stroke="#F07D03"/>
<line x1="215" y1="45" x2="222" y2="45" stroke="#F07D03"/>
<path d="M218.5 77.5V89.5" stroke="#F07D03"/>
<rect x="223" y="76" width="36" height="18" rx="3" fill="#F07D03"/>
<path d="M232.754 81.7273V89H231.216V83.1868H231.173L229.508 84.2308V82.8672L231.308 81.7273H232.754ZM234.482 89V87.892L237.071 85.495C237.291 85.282 237.476 85.0902 237.625 84.9197C237.776 84.7493 237.891 84.5824 237.969 84.419C238.047 84.2533 238.086 84.0746 238.086 83.8828C238.086 83.6697 238.038 83.4863 237.941 83.3324C237.844 83.1761 237.711 83.0566 237.543 82.9737C237.375 82.8885 237.184 82.8459 236.971 82.8459C236.749 82.8459 236.555 82.8909 236.389 82.9808C236.223 83.0708 236.095 83.1998 236.006 83.3679C235.916 83.536 235.871 83.736 235.871 83.968H234.411C234.411 83.4922 234.519 83.0791 234.734 82.7287C234.95 82.3783 235.251 82.1072 235.64 81.9155C236.028 81.7237 236.475 81.6278 236.982 81.6278C237.503 81.6278 237.956 81.7202 238.342 81.9048C238.73 82.0871 239.032 82.3404 239.248 82.6648C239.463 82.9891 239.571 83.3608 239.571 83.7798C239.571 84.0545 239.516 84.3255 239.407 84.593C239.301 84.8606 239.11 85.1577 238.836 85.4844C238.561 85.8087 238.174 86.1982 237.675 86.6527L236.613 87.6932V87.7429H239.667V89H234.482ZM240.795 91.0455V83.5455H242.287V84.4616H242.354C242.42 84.3149 242.516 84.1657 242.642 84.0142C242.77 83.8603 242.935 83.7325 243.139 83.6307C243.345 83.5265 243.6 83.4744 243.906 83.4744C244.304 83.4744 244.671 83.5786 245.007 83.7869C245.343 83.9929 245.612 84.3042 245.813 84.7209C246.014 85.1352 246.115 85.6548 246.115 86.2798C246.115 86.8883 246.016 87.402 245.82 87.821C245.626 88.2377 245.361 88.5537 245.025 88.7692C244.691 88.9822 244.317 89.0888 243.902 89.0888C243.609 89.0888 243.359 89.0402 243.153 88.9432C242.949 88.8461 242.783 88.7242 242.652 88.5774C242.522 88.4283 242.423 88.2779 242.354 88.1264H242.308V91.0455H240.795ZM242.276 86.2727C242.276 86.5971 242.321 86.88 242.411 87.1214C242.501 87.3629 242.631 87.5511 242.801 87.6861C242.972 87.8187 243.179 87.8849 243.423 87.8849C243.669 87.8849 243.877 87.8175 244.048 87.6825C244.218 87.5452 244.347 87.3558 244.435 87.1143C244.525 86.8705 244.57 86.59 244.57 86.2727C244.57 85.9579 244.526 85.6809 244.439 85.4418C244.351 85.2027 244.222 85.0156 244.051 84.8807C243.881 84.7457 243.672 84.6783 243.423 84.6783C243.177 84.6783 242.968 84.7434 242.798 84.8736C242.63 85.0038 242.501 85.1884 242.411 85.4276C242.321 85.6667 242.276 85.9484 242.276 86.2727ZM248.192 83.5455L249.194 85.4524L250.22 83.5455H251.772L250.191 86.2727L251.814 89H250.27L249.194 87.1143L248.135 89H246.573L248.192 86.2727L246.63 83.5455H248.192Z" fill="white"/>
<line x1="215" y1="78" x2="222" y2="78" stroke="#F07D03"/>
<line x1="215" y1="89" x2="222" y2="89" stroke="#F07D03"/>
<path d="M190 106H202" stroke="#F07D03"/>
<rect x="178" y="111" width="36" height="18" rx="3" fill="#F07D03"/>
<path d="M187.754 116.727V124H186.216V118.187H186.173L184.508 119.231V117.867L186.308 116.727H187.754ZM189.482 124V122.892L192.071 120.495C192.291 120.282 192.476 120.09 192.625 119.92C192.776 119.749 192.891 119.582 192.969 119.419C193.047 119.253 193.086 119.075 193.086 118.883C193.086 118.67 193.038 118.486 192.941 118.332C192.844 118.176 192.711 118.057 192.543 117.974C192.375 117.888 192.184 117.846 191.971 117.846C191.749 117.846 191.555 117.891 191.389 117.981C191.223 118.071 191.095 118.2 191.006 118.368C190.916 118.536 190.871 118.736 190.871 118.968H189.411C189.411 118.492 189.519 118.079 189.734 117.729C189.95 117.378 190.251 117.107 190.64 116.915C191.028 116.724 191.475 116.628 191.982 116.628C192.503 116.628 192.956 116.72 193.342 116.905C193.73 117.087 194.032 117.34 194.248 117.665C194.463 117.989 194.571 118.361 194.571 118.78C194.571 119.054 194.516 119.326 194.407 119.593C194.301 119.861 194.11 120.158 193.836 120.484C193.561 120.809 193.174 121.198 192.675 121.653L191.613 122.693V122.743H194.667V124H189.482ZM195.795 126.045V118.545H197.287V119.462H197.354C197.42 119.315 197.516 119.166 197.642 119.014C197.77 118.86 197.935 118.732 198.139 118.631C198.345 118.527 198.6 118.474 198.906 118.474C199.304 118.474 199.671 118.579 200.007 118.787C200.343 118.993 200.612 119.304 200.813 119.721C201.014 120.135 201.115 120.655 201.115 121.28C201.115 121.888 201.016 122.402 200.82 122.821C200.626 123.238 200.361 123.554 200.025 123.769C199.691 123.982 199.317 124.089 198.902 124.089C198.609 124.089 198.359 124.04 198.153 123.943C197.949 123.846 197.783 123.724 197.652 123.577C197.522 123.428 197.423 123.278 197.354 123.126H197.308V126.045H195.795ZM197.276 121.273C197.276 121.597 197.321 121.88 197.411 122.121C197.501 122.363 197.631 122.551 197.801 122.686C197.972 122.819 198.179 122.885 198.423 122.885C198.669 122.885 198.877 122.817 199.048 122.683C199.218 122.545 199.347 122.356 199.435 122.114C199.525 121.871 199.57 121.59 199.57 121.273C199.57 120.958 199.526 120.681 199.439 120.442C199.351 120.203 199.222 120.016 199.051 119.881C198.881 119.746 198.672 119.678 198.423 119.678C198.177 119.678 197.968 119.743 197.798 119.874C197.63 120.004 197.501 120.188 197.411 120.428C197.321 120.667 197.276 120.948 197.276 121.273ZM203.192 118.545L204.194 120.452L205.22 118.545H206.772L205.191 121.273L206.814 124H205.27L204.194 122.114L203.135 124H201.573L203.192 121.273L201.63 118.545H203.192Z" fill="white"/>
<line x1="190.5" y1="109.5" x2="190.5" y2="102.5" stroke="#F07D03"/>
<line x1="201.5" y1="109.5" x2="201.5" y2="102.5" stroke="#F07D03"/>
<path d="M12 106H24" stroke="#F07D03"/>
<rect y="111" width="36" height="18" rx="3" fill="#F07D03"/>
<path d="M9.75355 116.727V124H8.21591V118.187H8.1733L6.50781 119.231V117.867L8.30824 116.727H9.75355ZM11.4821 124V122.892L14.0708 120.495C14.291 120.282 14.4757 120.09 14.6248 119.92C14.7763 119.749 14.8912 119.582 14.9693 119.419C15.0474 119.253 15.0865 119.075 15.0865 118.883C15.0865 118.67 15.0379 118.486 14.9409 118.332C14.8438 118.176 14.7112 118.057 14.5431 117.974C14.3751 117.888 14.1845 117.846 13.9714 117.846C13.7489 117.846 13.5547 117.891 13.389 117.981C13.2233 118.071 13.0955 118.2 13.0055 118.368C12.9155 118.536 12.8706 118.736 12.8706 118.968H11.411C11.411 118.492 11.5188 118.079 11.7342 117.729C11.9496 117.378 12.2515 117.107 12.6397 116.915C13.028 116.724 13.4754 116.628 13.9821 116.628C14.5029 116.628 14.9563 116.72 15.3422 116.905C15.7304 117.087 16.0323 117.34 16.2477 117.665C16.4631 117.989 16.5708 118.361 16.5708 118.78C16.5708 119.054 16.5164 119.326 16.4075 119.593C16.301 119.861 16.1104 120.158 15.8358 120.484C15.5611 120.809 15.1741 121.198 14.6745 121.653L13.6127 122.693V122.743H16.6667V124H11.4821ZM17.7951 126.045V118.545H19.2866V119.462H19.354C19.4203 119.315 19.5162 119.166 19.6417 119.014C19.7695 118.86 19.9353 118.732 20.1388 118.631C20.3448 118.527 20.6005 118.474 20.9059 118.474C21.3036 118.474 21.6706 118.579 22.0067 118.787C22.3429 118.993 22.6116 119.304 22.8129 119.721C23.0141 120.135 23.1147 120.655 23.1147 121.28C23.1147 121.888 23.0165 122.402 22.82 122.821C22.6258 123.238 22.3607 123.554 22.0245 123.769C21.6907 123.982 21.3166 124.089 20.9023 124.089C20.6088 124.089 20.359 124.04 20.1531 123.943C19.9495 123.846 19.7826 123.724 19.6523 123.577C19.5221 123.428 19.4227 123.278 19.354 123.126H19.3079V126.045H17.7951ZM19.2759 121.273C19.2759 121.597 19.3209 121.88 19.4109 122.121C19.5008 122.363 19.631 122.551 19.8015 122.686C19.9719 122.819 20.1791 122.885 20.4229 122.885C20.6692 122.885 20.8775 122.817 21.0479 122.683C21.2184 122.545 21.3474 122.356 21.435 122.114C21.525 121.871 21.57 121.59 21.57 121.273C21.57 120.958 21.5262 120.681 21.4386 120.442C21.351 120.203 21.2219 120.016 21.0515 119.881C20.881 119.746 20.6715 119.678 20.4229 119.678C20.1767 119.678 19.9684 119.743 19.7979 119.874C19.6299 120.004 19.5008 120.188 19.4109 120.428C19.3209 120.667 19.2759 120.948 19.2759 121.273ZM25.1921 118.545L26.1935 120.452L27.2198 118.545H28.7717L27.1914 121.273L28.8143 124H27.2695L26.1935 122.114L25.1353 124H23.5728L25.1921 121.273L23.6296 118.545H25.1921Z" fill="white"/>
<line x1="12.5" y1="109.5" x2="12.5" y2="102.5" stroke="#F07D03"/>
<line x1="23.5" y1="109.5" x2="23.5" y2="102.5" stroke="#F07D03"/>
</svg>
