<svg width="222" height="91" viewBox="0 0 222 91" fill="none" xmlns="http://www.w3.org/2000/svg">
<rect x="10.5" y="4" width="160" height="47" fill="white"/>
<path fill-rule="evenodd" clip-rule="evenodd" d="M29.2004 31.8168V27.5835L30.0003 26.7834V31.8168C30.0003 31.9229 30.0425 32.0246 30.1175 32.0996C30.1925 32.1746 30.2942 32.2168 30.4003 32.2168H37.5997C37.7058 32.2168 37.8075 32.1746 37.8825 32.0996C37.9575 32.0246 37.9997 31.9229 37.9997 31.8168V26.7834L38.694 27.4779L38.7996 31.8168C38.7996 32.135 38.6732 32.4402 38.4481 32.6653C38.2231 32.8903 37.9179 33.0167 37.5997 33.0167H30.4003C30.0821 33.0167 29.7769 32.8903 29.5518 32.6653C29.3268 32.4402 29.2004 32.135 29.2004 31.8168ZM37.9997 23.0176V25.6512L36.3998 24.0513V23.0176C36.3998 22.9115 36.4419 22.8097 36.5169 22.7347C36.5919 22.6597 36.6937 22.6176 36.7998 22.6176H37.5997C37.7058 22.6176 37.8075 22.6597 37.8825 22.7347C37.9575 22.8097 37.9997 22.9115 37.9997 23.0176Z" fill="#344054"/>
<path fill-rule="evenodd" clip-rule="evenodd" d="M33.4344 22.2176C33.5845 22.0676 33.7879 21.9834 34 21.9834C34.2121 21.9834 34.4155 22.0676 34.5656 22.2176L39.8827 27.534C39.9578 27.6091 40 27.7109 40 27.8171C40 27.9233 39.9578 28.0252 39.8827 28.1003C39.8076 28.1754 39.7057 28.2176 39.5995 28.2176C39.4933 28.2176 39.3915 28.1754 39.3164 28.1003L34 22.7832L28.6836 28.1003C28.6085 28.1754 28.5067 28.2176 28.4005 28.2176C28.2943 28.2176 28.1924 28.1754 28.1173 28.1003C28.0422 28.0252 28 27.9233 28 27.8171C28 27.7109 28.0422 27.6091 28.1173 27.534L33.4344 22.2176Z" fill="#344054"/>
<path d="M62.5 23.9062V34.4531C62.5 35.7552 63.0599 36.4062 64.1797 36.4062C65.2995 36.4062 65.8594 35.7552 65.8594 34.4531V33.2812H67.1875V34.4531C67.1875 36.5365 66.1849 37.5781 64.1797 37.5781C62.1745 37.5781 61.1719 36.5365 61.1719 34.4531V23.9062C61.1719 23.5417 60.9115 23.151 60.3906 22.7344V21.9531C60.3906 21.1719 60.7812 20.7812 61.5625 20.7812H62.8906V21.9531H61.9531C61.6927 21.9531 61.5625 22.0833 61.5625 22.3438C62.1875 22.7604 62.5 23.2812 62.5 23.9062ZM72.3438 23.9062C72.3438 23.5417 72.0833 23.151 71.5625 22.7344V21.9531C71.5625 21.1719 71.9531 20.7812 72.7344 20.7812H74.0625V21.9531H73.125C72.8646 21.9531 72.7344 22.0833 72.7344 22.3438C73.3594 22.7604 73.6719 23.2812 73.6719 23.9062V28.5938C73.6719 31.1979 72.3698 32.5 69.7656 32.5C67.1615 32.5 65.8594 31.1979 65.8594 28.5938V23.9062C65.8594 23.5417 65.599 23.151 65.0781 22.7344V21.9531C65.0781 21.1719 65.4688 20.7812 66.25 20.7812H67.5781V21.9531H66.6406C66.3802 21.9531 66.25 22.0833 66.25 22.3438C66.875 22.7604 67.1875 23.2812 67.1875 23.9062V28.5938C67.1875 30.4167 68.0469 31.3281 69.7656 31.3281C71.4844 31.3281 72.3438 30.4167 72.3438 28.5938V23.9062ZM84.0625 24.8828C83.9531 24.8828 83.8594 24.9167 83.7812 24.9844C83.7083 25.0521 83.6719 25.1484 83.6719 25.2734C83.6719 25.3984 83.7083 25.4948 83.7812 25.5625C83.8594 25.6302 83.9531 25.6641 84.0625 25.6641V24.8828ZM84.0625 26.5859C84.0104 26.5911 83.9583 26.5938 83.9062 26.5938C83.5521 26.5938 83.2891 26.4818 83.1172 26.2578C82.9141 26.0078 82.8125 25.6797 82.8125 25.2734C82.8125 24.8672 82.9115 24.5391 83.1094 24.2891C83.3125 24.0339 83.6432 23.9062 84.1016 23.9062C84.5599 23.9062 84.888 24.0339 85.0859 24.2891C85.2891 24.5391 85.3906 24.8672 85.3906 25.2734V32.5H84.2188L81.4844 30.1562L78.75 32.5H77.5781V23.9062C77.5781 23.5417 77.4479 23.151 77.1875 22.7344V22.3438C77.1875 21.3021 77.7083 20.7812 78.75 20.7812H85.3906V21.9531H79.2969C78.776 21.9531 78.5156 22.1094 78.5156 22.4219C78.776 22.8385 78.9062 23.3333 78.9062 23.9062V30.9375L81.4844 28.75L84.0625 30.9375V26.5859ZM85.3906 20.7812H86.9531C89.0365 20.7812 90.0781 21.8229 90.0781 23.9062V32.5H88.75V23.9062C88.75 22.6042 88.151 21.9531 86.9531 21.9531H85.3906V20.7812ZM101.797 27.7344V29.375C101.797 31.4583 101.068 32.5 99.6094 32.5C98.5365 32.5 97.7422 32.1745 97.2266 31.5234C96.7109 30.8724 96.0729 30.5469 95.3125 30.5469V32.5H93.9844V27.8125H95.3125V29.375C96.224 29.375 96.9635 29.7005 97.5312 30.3516C98.1042 31.0026 98.6849 31.3281 99.2734 31.3281C100.07 31.3281 100.469 30.6771 100.469 29.375V28.5938C96.1458 27.6562 93.9844 26.0938 93.9844 23.9062C93.9844 21.8229 95.2865 20.7812 97.8906 20.7812C100.495 20.7812 101.797 21.8229 101.797 23.9062C101.797 25.3594 101.073 26.0859 99.625 26.0859C99.2969 26.0859 99.0312 26.0104 98.8281 25.8594V24.6875C99.1979 24.7969 99.5 24.8516 99.7344 24.8516C100.224 24.8516 100.469 24.5365 100.469 23.9062C100.469 22.6042 99.6094 21.9531 97.8906 21.9531C96.1719 21.9531 95.3125 22.6042 95.3125 23.9062C95.3125 25.4688 97.474 26.7448 101.797 27.7344ZM112.188 23.9062C112.188 23.5417 111.927 23.151 111.406 22.7344V21.9531C111.406 21.1719 111.797 20.7812 112.578 20.7812H113.906V21.9531H112.969C112.708 21.9531 112.578 22.0833 112.578 22.3438C113.203 22.7604 113.516 23.2812 113.516 23.9062V28.5938C113.516 31.1979 112.214 32.5 109.609 32.5C107.005 32.5 105.703 31.1979 105.703 28.5938V23.9062C105.703 23.5417 105.443 23.151 104.922 22.7344V21.9531C104.922 21.1719 105.312 20.7812 106.094 20.7812H107.422V21.9531H106.484C106.224 21.9531 106.094 22.0833 106.094 22.3438C106.719 22.7604 107.031 23.2812 107.031 23.9062V28.5938C107.031 30.4167 107.891 31.3281 109.609 31.3281C111.328 31.3281 112.188 30.4167 112.188 28.5938V23.9062ZM124.141 27.8828C124.177 27.8932 124.214 27.8984 124.25 27.8984C124.385 27.8984 124.453 27.7917 124.453 27.5781C124.453 27.3698 124.401 27.2656 124.297 27.2656C124.193 27.2656 124.141 27.3672 124.141 27.5703V27.8828ZM124.141 28.5859V29.375C124.141 31.4583 123.203 32.5 121.328 32.5C119.453 32.5 118.516 31.4583 118.516 29.375V27.8125H119.844V29.375C119.844 30.6771 120.339 31.3281 121.328 31.3281C122.318 31.3281 122.812 30.6771 122.812 29.375V28.3984C119.219 27.362 117.422 25.8646 117.422 23.9062C117.422 21.8229 118.724 20.7812 121.328 20.7812C123.932 20.7812 125.234 21.8229 125.234 23.9062C125.234 25.3594 124.51 26.0859 123.062 26.0859C122.734 26.0859 122.469 26.0104 122.266 25.8594V24.6875C122.635 24.7969 122.938 24.8516 123.172 24.8516C123.661 24.8516 123.906 24.5365 123.906 23.9062C123.906 22.6042 123.047 21.9531 121.328 21.9531C119.609 21.9531 118.75 22.6042 118.75 23.9062C118.75 25.5156 120.104 26.6484 122.812 27.3047C122.812 26.8099 123.177 26.5625 123.906 26.5625C124.792 26.5625 125.234 26.888 125.234 27.5391C125.234 27.9297 125.146 28.2057 124.969 28.3672C124.792 28.5286 124.602 28.6094 124.398 28.6094C124.315 28.6094 124.229 28.6016 124.141 28.5859ZM135.859 27.8828C135.896 27.8932 135.932 27.8984 135.969 27.8984C136.104 27.8984 136.172 27.7917 136.172 27.5781C136.172 27.3698 136.12 27.2656 136.016 27.2656C135.911 27.2656 135.859 27.3672 135.859 27.5703V27.8828ZM135.859 28.5859V29.375C135.859 31.4583 134.922 32.5 133.047 32.5C131.172 32.5 130.234 31.4583 130.234 29.375V27.8125H131.562V29.375C131.562 30.6771 132.057 31.3281 133.047 31.3281C134.036 31.3281 134.531 30.6771 134.531 29.375V28.3984C130.938 27.362 129.141 25.8646 129.141 23.9062C129.141 21.8229 130.443 20.7812 133.047 20.7812C135.651 20.7812 136.953 21.8229 136.953 23.9062C136.953 25.3594 136.229 26.0859 134.781 26.0859C134.453 26.0859 134.188 26.0104 133.984 25.8594V24.6875C134.354 24.7969 134.656 24.8516 134.891 24.8516C135.38 24.8516 135.625 24.5365 135.625 23.9062C135.625 22.6042 134.766 21.9531 133.047 21.9531C131.328 21.9531 130.469 22.6042 130.469 23.9062C130.469 25.5156 131.823 26.6484 134.531 27.3047C134.531 26.8099 134.896 26.5625 135.625 26.5625C136.51 26.5625 136.953 26.888 136.953 27.5391C136.953 27.9297 136.865 28.2057 136.688 28.3672C136.51 28.5286 136.32 28.6094 136.117 28.6094C136.034 28.6094 135.948 28.6016 135.859 28.5859ZM132.266 17.4219H135.781C134.484 16.5365 133.443 16.0938 132.656 16.0938C131.615 16.0938 131.094 16.3151 131.094 16.7578C131.094 17.2005 131.484 17.4219 132.266 17.4219ZM135.781 16.1328V14.1406H136.953V18.4375H131.875C130.573 18.4375 129.922 17.9167 129.922 16.875C129.922 15.5729 130.833 14.9219 132.656 14.9219C133.698 14.9219 134.674 15.2734 135.586 15.9766C135.654 16.0286 135.719 16.0807 135.781 16.1328ZM148.531 31.3281C150.51 31.3281 151.5 29.6354 151.5 26.25C151.5 23.3854 150.641 21.9531 148.922 21.9531C147.203 21.9531 146.344 22.8646 146.344 24.6875C146.344 25.0052 146.404 25.2865 146.523 25.5312C146.648 25.7708 146.909 25.8906 147.305 25.8906C147.68 25.8906 147.917 25.8359 148.016 25.7266C148.094 25.638 148.133 25.5521 148.133 25.4688C148.133 25.4427 148.13 25.4193 148.125 25.3984C148.099 25.2891 148.057 25.2344 148 25.2344C147.943 25.2344 147.789 25.3203 147.539 25.4922L147.195 24.5938C147.56 24.3281 147.888 24.1953 148.18 24.1953C148.497 24.1953 148.745 24.2891 148.922 24.4766C149.099 24.6641 149.188 24.9922 149.188 25.4609C149.188 25.7214 149.12 26 148.984 26.2969C148.854 26.5938 148.635 26.8047 148.328 26.9297C148.021 27.0495 147.701 27.1094 147.367 27.1094C146.977 27.1094 146.612 27.0521 146.273 26.9375C145.94 26.8229 145.646 26.5885 145.391 26.2344C145.141 25.875 145.016 25.3594 145.016 24.6875C145.016 22.0833 146.318 20.7812 148.922 20.7812C151.526 20.7812 152.828 22.6042 152.828 26.25C152.828 30.4167 151.396 32.5 148.531 32.5C147.464 32.5 146.526 32.2135 145.719 31.6406L146.109 30.5469C146.682 31.0677 147.49 31.3281 148.531 31.3281Z" fill="#344054"/>
<rect x="10.5" y="4" width="160" height="47" stroke="#98A2B3"/>
<rect x="10" y="3.5" width="16" height="48" fill="#EE7D22" fill-opacity="0.24"/>
<rect x="10" y="4" width="161" height="8" fill="#EE7D22" fill-opacity="0.24"/>
<rect x="10" y="43" width="161" height="8" fill="#EE7D22" fill-opacity="0.24"/>
<rect x="154" y="4" width="17" height="47" fill="#EE7D22" fill-opacity="0.24"/>
<path d="M154 68H170" stroke="#F07D03"/>
<rect x="144" y="73" width="36" height="18" rx="3" fill="#F07D03"/>
<path d="M153.754 78.7273V86H152.216V80.1868H152.173L150.508 81.2308V79.8672L152.308 78.7273H153.754ZM158.273 86.0994C157.899 86.0971 157.538 86.0343 157.19 85.9112C156.845 85.7881 156.534 85.5881 156.26 85.3111C155.985 85.0341 155.767 84.6671 155.606 84.2102C155.448 83.7533 155.368 83.1922 155.368 82.527C155.371 81.9162 155.441 81.3705 155.578 80.8899C155.718 80.407 155.916 79.9974 156.175 79.6612C156.435 79.325 156.746 79.0694 157.108 78.8942C157.471 78.7166 157.877 78.6278 158.327 78.6278C158.812 78.6278 159.24 78.7225 159.612 78.9119C159.984 79.099 160.282 79.3535 160.507 79.6754C160.734 79.9974 160.872 80.3584 160.919 80.7585H159.403C159.343 80.5052 159.219 80.3063 159.03 80.1619C158.84 80.0175 158.606 79.9453 158.327 79.9453C157.853 79.9453 157.493 80.1513 157.247 80.5632C157.003 80.9751 156.879 81.535 156.874 82.2429H156.924C157.033 82.0275 157.18 81.844 157.364 81.6925C157.551 81.5386 157.763 81.4214 158 81.3409C158.239 81.258 158.491 81.2166 158.756 81.2166C159.187 81.2166 159.571 81.3184 159.907 81.522C160.243 81.7232 160.508 82.0002 160.702 82.353C160.896 82.7057 160.993 83.1094 160.993 83.5639C160.993 84.0563 160.879 84.4943 160.649 84.8778C160.422 85.2614 160.103 85.562 159.694 85.7798C159.287 85.9953 158.813 86.1018 158.273 86.0994ZM158.266 84.892C158.503 84.892 158.715 84.8352 158.902 84.7216C159.089 84.608 159.236 84.4541 159.342 84.2599C159.449 84.0658 159.502 83.848 159.502 83.6065C159.502 83.3651 159.449 83.1484 159.342 82.9567C159.238 82.7649 159.094 82.6122 158.909 82.4986C158.724 82.3849 158.514 82.3281 158.277 82.3281C158.099 82.3281 157.935 82.3613 157.783 82.4276C157.634 82.4938 157.503 82.5862 157.389 82.7045C157.278 82.8229 157.19 82.9602 157.126 83.1165C157.062 83.2704 157.03 83.4349 157.03 83.6101C157.03 83.8445 157.084 84.0587 157.19 84.2528C157.299 84.447 157.446 84.602 157.631 84.718C157.818 84.834 158.029 84.892 158.266 84.892ZM162.098 88.0455V80.5455H163.589V81.4616H163.657C163.723 81.3149 163.819 81.1657 163.944 81.0142C164.072 80.8603 164.238 80.7325 164.442 80.6307C164.648 80.5265 164.903 80.4744 165.209 80.4744C165.606 80.4744 165.973 80.5786 166.309 80.7869C166.646 80.9929 166.914 81.3042 167.116 81.7209C167.317 82.1352 167.417 82.6548 167.417 83.2798C167.417 83.8883 167.319 84.402 167.123 84.821C166.929 85.2377 166.663 85.5537 166.327 85.7692C165.993 85.9822 165.619 86.0888 165.205 86.0888C164.912 86.0888 164.662 86.0402 164.456 85.9432C164.252 85.8461 164.085 85.7242 163.955 85.5774C163.825 85.4283 163.725 85.2779 163.657 85.1264H163.611V88.0455H162.098ZM163.579 83.2727C163.579 83.5971 163.624 83.88 163.714 84.1214C163.804 84.3629 163.934 84.5511 164.104 84.6861C164.275 84.8187 164.482 84.8849 164.726 84.8849C164.972 84.8849 165.18 84.8175 165.351 84.6825C165.521 84.5452 165.65 84.3558 165.738 84.1143C165.828 83.8705 165.873 83.59 165.873 83.2727C165.873 82.9579 165.829 82.6809 165.741 82.4418C165.654 82.2027 165.525 82.0156 165.354 81.8807C165.184 81.7457 164.974 81.6783 164.726 81.6783C164.479 81.6783 164.271 81.7434 164.101 81.8736C163.933 82.0038 163.804 82.1884 163.714 82.4276C163.624 82.6667 163.579 82.9484 163.579 83.2727ZM169.495 80.5455L170.496 82.4524L171.523 80.5455H173.074L171.494 83.2727L173.117 86H171.572L170.496 84.1143L169.438 86H167.876L169.495 83.2727L167.932 80.5455H169.495Z" fill="white"/>
<line x1="154.5" y1="71.5" x2="154.5" y2="64.5" stroke="#F07D03"/>
<line x1="169.5" y1="71.5" x2="169.5" y2="64.5" stroke="#F07D03"/>
<path d="M186.5 3.5V11.5" stroke="#F07D03"/>
<rect x="191" width="31" height="18" rx="3" fill="#F07D03"/>
<path d="M200.303 13.0994C199.756 13.0994 199.269 13.0107 198.843 12.8331C198.419 12.6532 198.087 12.4081 197.845 12.098C197.604 11.7879 197.483 11.4363 197.483 11.0433C197.483 10.7403 197.552 10.4621 197.689 10.2088C197.829 9.95312 198.018 9.74124 198.257 9.57315C198.496 9.4027 198.764 9.2938 199.06 9.24645V9.19673C198.671 9.11861 198.357 8.9304 198.115 8.6321C197.874 8.33144 197.753 7.98224 197.753 7.58452C197.753 7.2081 197.863 6.87311 198.083 6.57955C198.303 6.28362 198.605 6.05161 198.989 5.88352C199.375 5.71307 199.812 5.62784 200.303 5.62784C200.793 5.62784 201.229 5.71307 201.613 5.88352C201.999 6.05398 202.302 6.28717 202.522 6.5831C202.742 6.87666 202.853 7.21046 202.856 7.58452C202.853 7.98461 202.73 8.33381 202.487 8.6321C202.243 8.9304 201.93 9.11861 201.549 9.19673V9.24645C201.84 9.2938 202.104 9.4027 202.341 9.57315C202.58 9.74124 202.769 9.95312 202.909 10.2088C203.051 10.4621 203.123 10.7403 203.126 11.0433C203.123 11.4363 203.001 11.7879 202.76 12.098C202.518 12.4081 202.185 12.6532 201.759 12.8331C201.335 13.0107 200.849 13.0994 200.303 13.0994ZM200.303 11.9702C200.546 11.9702 200.759 11.9264 200.942 11.8388C201.124 11.7488 201.266 11.6257 201.368 11.4695C201.472 11.3108 201.524 11.1286 201.524 10.9226C201.524 10.7119 201.471 10.526 201.364 10.3651C201.258 10.2017 201.113 10.0739 200.931 9.98153C200.749 9.88684 200.539 9.83949 200.303 9.83949C200.068 9.83949 199.859 9.88684 199.674 9.98153C199.489 10.0739 199.344 10.2017 199.237 10.3651C199.133 10.526 199.081 10.7119 199.081 10.9226C199.081 11.1286 199.132 11.3108 199.234 11.4695C199.335 11.6257 199.479 11.7488 199.663 11.8388C199.848 11.9264 200.061 11.9702 200.303 11.9702ZM200.303 8.72088C200.506 8.72088 200.687 8.67945 200.846 8.59659C201.004 8.51373 201.129 8.39891 201.219 8.25213C201.309 8.10535 201.354 7.93608 201.354 7.74432C201.354 7.55492 201.309 7.3892 201.219 7.24716C201.129 7.10275 201.006 6.99029 200.849 6.9098C200.693 6.82694 200.511 6.78551 200.303 6.78551C200.097 6.78551 199.914 6.82694 199.756 6.9098C199.597 6.99029 199.473 7.10275 199.383 7.24716C199.295 7.3892 199.251 7.55492 199.251 7.74432C199.251 7.93608 199.296 8.10535 199.386 8.25213C199.476 8.39891 199.601 8.51373 199.759 8.59659C199.918 8.67945 200.099 8.72088 200.303 8.72088ZM204.215 15.0455V7.54545H205.706V8.46165H205.774C205.84 8.31487 205.936 8.16572 206.062 8.0142C206.189 7.86032 206.355 7.73248 206.559 7.63068C206.765 7.52652 207.02 7.47443 207.326 7.47443C207.724 7.47443 208.09 7.5786 208.427 7.78693C208.763 7.9929 209.032 8.30421 209.233 8.72088C209.434 9.13518 209.535 9.65483 209.535 10.2798C209.535 10.8883 209.436 11.402 209.24 11.821C209.046 12.2377 208.781 12.5537 208.444 12.7692C208.111 12.9822 207.737 13.0888 207.322 13.0888C207.029 13.0888 206.779 13.0402 206.573 12.9432C206.369 12.8461 206.202 12.7242 206.072 12.5774C205.942 12.4283 205.843 12.2779 205.774 12.1264H205.728V15.0455H204.215ZM205.696 10.2727C205.696 10.5971 205.741 10.88 205.831 11.1214C205.921 11.3629 206.051 11.5511 206.221 11.6861C206.392 11.8187 206.599 11.8849 206.843 11.8849C207.089 11.8849 207.297 11.8175 207.468 11.6825C207.638 11.5452 207.767 11.3558 207.855 11.1143C207.945 10.8705 207.99 10.59 207.99 10.2727C207.99 9.95786 207.946 9.68087 207.858 9.44176C207.771 9.20265 207.642 9.01562 207.471 8.88068C207.301 8.74574 207.091 8.67827 206.843 8.67827C206.597 8.67827 206.388 8.74337 206.218 8.87358C206.05 9.00379 205.921 9.18845 205.831 9.42756C205.741 9.66667 205.696 9.94839 205.696 10.2727ZM211.612 7.54545L212.613 9.45241L213.64 7.54545H215.192L213.611 10.2727L215.234 13H213.689L212.613 11.1143L211.555 13H209.993L211.612 10.2727L210.05 7.54545H211.612Z" fill="white"/>
<line x1="183" y1="4" x2="190" y2="4" stroke="#F07D03"/>
<line x1="183" y1="11" x2="190" y2="11" stroke="#F07D03"/>
<path d="M186.5 42.5V50.5" stroke="#F07D03"/>
<rect x="191" y="39" width="31" height="18" rx="3" fill="#F07D03"/>
<path d="M200.303 52.0994C199.756 52.0994 199.269 52.0107 198.843 51.8331C198.419 51.6532 198.087 51.4081 197.845 51.098C197.604 50.7879 197.483 50.4363 197.483 50.0433C197.483 49.7403 197.552 49.4621 197.689 49.2088C197.829 48.9531 198.018 48.7412 198.257 48.5732C198.496 48.4027 198.764 48.2938 199.06 48.2464V48.1967C198.671 48.1186 198.357 47.9304 198.115 47.6321C197.874 47.3314 197.753 46.9822 197.753 46.5845C197.753 46.2081 197.863 45.8731 198.083 45.5795C198.303 45.2836 198.605 45.0516 198.989 44.8835C199.375 44.7131 199.812 44.6278 200.303 44.6278C200.793 44.6278 201.229 44.7131 201.613 44.8835C201.999 45.054 202.302 45.2872 202.522 45.5831C202.742 45.8767 202.853 46.2105 202.856 46.5845C202.853 46.9846 202.73 47.3338 202.487 47.6321C202.243 47.9304 201.93 48.1186 201.549 48.1967V48.2464C201.84 48.2938 202.104 48.4027 202.341 48.5732C202.58 48.7412 202.769 48.9531 202.909 49.2088C203.051 49.4621 203.123 49.7403 203.126 50.0433C203.123 50.4363 203.001 50.7879 202.76 51.098C202.518 51.4081 202.185 51.6532 201.759 51.8331C201.335 52.0107 200.849 52.0994 200.303 52.0994ZM200.303 50.9702C200.546 50.9702 200.759 50.9264 200.942 50.8388C201.124 50.7488 201.266 50.6257 201.368 50.4695C201.472 50.3108 201.524 50.1286 201.524 49.9226C201.524 49.7119 201.471 49.526 201.364 49.3651C201.258 49.2017 201.113 49.0739 200.931 48.9815C200.749 48.8868 200.539 48.8395 200.303 48.8395C200.068 48.8395 199.859 48.8868 199.674 48.9815C199.489 49.0739 199.344 49.2017 199.237 49.3651C199.133 49.526 199.081 49.7119 199.081 49.9226C199.081 50.1286 199.132 50.3108 199.234 50.4695C199.335 50.6257 199.479 50.7488 199.663 50.8388C199.848 50.9264 200.061 50.9702 200.303 50.9702ZM200.303 47.7209C200.506 47.7209 200.687 47.6795 200.846 47.5966C201.004 47.5137 201.129 47.3989 201.219 47.2521C201.309 47.1054 201.354 46.9361 201.354 46.7443C201.354 46.5549 201.309 46.3892 201.219 46.2472C201.129 46.1027 201.006 45.9903 200.849 45.9098C200.693 45.8269 200.511 45.7855 200.303 45.7855C200.097 45.7855 199.914 45.8269 199.756 45.9098C199.597 45.9903 199.473 46.1027 199.383 46.2472C199.295 46.3892 199.251 46.5549 199.251 46.7443C199.251 46.9361 199.296 47.1054 199.386 47.2521C199.476 47.3989 199.601 47.5137 199.759 47.5966C199.918 47.6795 200.099 47.7209 200.303 47.7209ZM204.215 54.0455V46.5455H205.706V47.4616H205.774C205.84 47.3149 205.936 47.1657 206.062 47.0142C206.189 46.8603 206.355 46.7325 206.559 46.6307C206.765 46.5265 207.02 46.4744 207.326 46.4744C207.724 46.4744 208.09 46.5786 208.427 46.7869C208.763 46.9929 209.032 47.3042 209.233 47.7209C209.434 48.1352 209.535 48.6548 209.535 49.2798C209.535 49.8883 209.436 50.402 209.24 50.821C209.046 51.2377 208.781 51.5537 208.444 51.7692C208.111 51.9822 207.737 52.0888 207.322 52.0888C207.029 52.0888 206.779 52.0402 206.573 51.9432C206.369 51.8461 206.202 51.7242 206.072 51.5774C205.942 51.4283 205.843 51.2779 205.774 51.1264H205.728V54.0455H204.215ZM205.696 49.2727C205.696 49.5971 205.741 49.88 205.831 50.1214C205.921 50.3629 206.051 50.5511 206.221 50.6861C206.392 50.8187 206.599 50.8849 206.843 50.8849C207.089 50.8849 207.297 50.8175 207.468 50.6825C207.638 50.5452 207.767 50.3558 207.855 50.1143C207.945 49.8705 207.99 49.59 207.99 49.2727C207.99 48.9579 207.946 48.6809 207.858 48.4418C207.771 48.2027 207.642 48.0156 207.471 47.8807C207.301 47.7457 207.091 47.6783 206.843 47.6783C206.597 47.6783 206.388 47.7434 206.218 47.8736C206.05 48.0038 205.921 48.1884 205.831 48.4276C205.741 48.6667 205.696 48.9484 205.696 49.2727ZM211.612 46.5455L212.613 48.4524L213.64 46.5455H215.192L213.611 49.2727L215.234 52H213.689L212.613 50.1143L211.555 52H209.993L211.612 49.2727L210.05 46.5455H211.612Z" fill="white"/>
<line x1="183" y1="43" x2="190" y2="43" stroke="#F07D03"/>
<line x1="183" y1="50" x2="190" y2="50" stroke="#F07D03"/>
<path d="M10 68H26" stroke="#F07D03"/>
<rect y="73" width="36" height="18" rx="3" fill="#F07D03"/>
<path d="M9.75355 78.7273V86H8.21591V80.1868H8.1733L6.50781 81.2308V79.8672L8.30824 78.7273H9.75355ZM14.2733 86.0994C13.8992 86.0971 13.5382 86.0343 13.1902 85.9112C12.8445 85.7881 12.5344 85.5881 12.2598 85.3111C11.9851 85.0341 11.7673 84.6671 11.6064 84.2102C11.4477 83.7533 11.3684 83.1922 11.3684 82.527C11.3708 81.9162 11.4406 81.3705 11.5779 80.8899C11.7176 80.407 11.9165 79.9974 12.1745 79.6612C12.435 79.325 12.7463 79.0694 13.1085 78.8942C13.4707 78.7166 13.8767 78.6278 14.3265 78.6278C14.8118 78.6278 15.2404 78.7225 15.612 78.9119C15.9837 79.099 16.282 79.3535 16.5069 79.6754C16.7342 79.9974 16.8715 80.3584 16.9189 80.7585H15.4025C15.3433 80.5052 15.219 80.3063 15.0297 80.1619C14.8403 80.0175 14.6059 79.9453 14.3265 79.9453C13.853 79.9453 13.4932 80.1513 13.247 80.5632C13.0031 80.9751 12.8788 81.535 12.8741 82.2429H12.9238C13.0327 82.0275 13.1795 81.844 13.3642 81.6925C13.5512 81.5386 13.7631 81.4214 13.9998 81.3409C14.2389 81.258 14.4911 81.2166 14.7562 81.2166C15.1871 81.2166 15.5706 81.3184 15.9068 81.522C16.243 81.7232 16.5081 82.0002 16.7022 82.353C16.8964 82.7057 16.9934 83.1094 16.9934 83.5639C16.9934 84.0563 16.8786 84.4943 16.649 84.8778C16.4217 85.2614 16.1033 85.562 15.6937 85.7798C15.2865 85.9953 14.813 86.1018 14.2733 86.0994ZM14.2662 84.892C14.5029 84.892 14.7148 84.8352 14.9018 84.7216C15.0888 84.608 15.2356 84.4541 15.3422 84.2599C15.4487 84.0658 15.502 83.848 15.502 83.6065C15.502 83.3651 15.4487 83.1484 15.3422 82.9567C15.238 82.7649 15.0936 82.6122 14.9089 82.4986C14.7243 82.3849 14.5136 82.3281 14.2768 82.3281C14.0993 82.3281 13.9347 82.3613 13.7832 82.4276C13.6341 82.4938 13.5027 82.5862 13.389 82.7045C13.2778 82.8229 13.1902 82.9602 13.1262 83.1165C13.0623 83.2704 13.0304 83.4349 13.0304 83.6101C13.0304 83.8445 13.0836 84.0587 13.1902 84.2528C13.2991 84.447 13.4458 84.602 13.6305 84.718C13.8175 84.834 14.0294 84.892 14.2662 84.892ZM18.0978 88.0455V80.5455H19.5893V81.4616H19.6568C19.7231 81.3149 19.819 81.1657 19.9444 81.0142C20.0723 80.8603 20.238 80.7325 20.4416 80.6307C20.6475 80.5265 20.9032 80.4744 21.2086 80.4744C21.6064 80.4744 21.9733 80.5786 22.3095 80.7869C22.6457 80.9929 22.9144 81.3042 23.1156 81.7209C23.3168 82.1352 23.4174 82.6548 23.4174 83.2798C23.4174 83.8883 23.3192 84.402 23.1227 84.821C22.9286 85.2377 22.6634 85.5537 22.3272 85.7692C21.9934 85.9822 21.6194 86.0888 21.2051 86.0888C20.9115 86.0888 20.6618 86.0402 20.4558 85.9432C20.2522 85.8461 20.0853 85.7242 19.9551 85.5774C19.8249 85.4283 19.7254 85.2779 19.6568 85.1264H19.6106V88.0455H18.0978ZM19.5787 83.2727C19.5787 83.5971 19.6236 83.88 19.7136 84.1214C19.8036 84.3629 19.9338 84.5511 20.1042 84.6861C20.2747 84.8187 20.4818 84.8849 20.7257 84.8849C20.9719 84.8849 21.1802 84.8175 21.3507 84.6825C21.5211 84.5452 21.6502 84.3558 21.7377 84.1143C21.8277 83.8705 21.8727 83.59 21.8727 83.2727C21.8727 82.9579 21.8289 82.6809 21.7413 82.4418C21.6537 82.2027 21.5247 82.0156 21.3542 81.8807C21.1838 81.7457 20.9743 81.6783 20.7257 81.6783C20.4795 81.6783 20.2711 81.7434 20.1007 81.8736C19.9326 82.0038 19.8036 82.1884 19.7136 82.4276C19.6236 82.6667 19.5787 82.9484 19.5787 83.2727ZM25.4949 80.5455L26.4963 82.4524L27.5225 80.5455H29.0744L27.4941 83.2727L29.117 86H27.5723L26.4963 84.1143L25.438 86H23.8755L25.4949 83.2727L23.9324 80.5455H25.4949Z" fill="white"/>
<line x1="10.5" y1="71.5" x2="10.5" y2="64.5" stroke="#F07D03"/>
<line x1="25.5" y1="71.5" x2="25.5" y2="64.5" stroke="#F07D03"/>
</svg>
