<svg width="511" height="173" viewBox="0 0 511 173" fill="none" xmlns="http://www.w3.org/2000/svg">
<path d="M33.5 66C33.5 63.7909 35.2909 62 37.5 62H178.5V110H37.5C35.2909 110 33.5 108.209 33.5 106V66Z" fill="#E4E7EC"/>
<path d="M33.5 66C33.5 63.7909 35.2909 62 37.5 62H178.5V110H37.5C35.2909 110 33.5 108.209 33.5 106V66Z" fill="white"/>
<path fill-rule="evenodd" clip-rule="evenodd" d="M66.1434 77.2034C66.2078 77.2677 66.259 77.3441 66.2939 77.4282C66.3288 77.5123 66.3467 77.6024 66.3467 77.6935C66.3467 77.7845 66.3288 77.8747 66.2939 77.9588C66.259 78.0429 66.2078 78.1193 66.1434 78.1836L58.3253 86.0002L66.1434 93.8168C66.2733 93.9468 66.3464 94.1231 66.3464 94.3069C66.3464 94.4907 66.2733 94.667 66.1434 94.797C66.0134 94.927 65.8371 95 65.6533 95C65.4694 95 65.2931 94.927 65.1632 94.797L56.8564 86.4903C56.792 86.426 56.7408 86.3496 56.7059 86.2655C56.671 86.1814 56.6531 86.0912 56.6531 86.0002C56.6531 85.9091 56.671 85.819 56.7059 85.7349C56.7408 85.6508 56.792 85.5744 56.8564 85.5101L65.1632 77.2034C65.2275 77.1389 65.3039 77.0878 65.388 77.0529C65.4721 77.018 65.5622 77 65.6533 77C65.7443 77 65.8345 77.018 65.9186 77.0529C66.0027 77.0878 66.0791 77.1389 66.1434 77.2034Z" fill="#1C4076"/>
<path d="M97.9375 83.3828C97.8281 83.3828 97.7344 83.4167 97.6562 83.4844C97.5833 83.5521 97.5469 83.6484 97.5469 83.7734C97.5469 83.8984 97.5833 83.9948 97.6562 84.0625C97.7344 84.1302 97.8281 84.1641 97.9375 84.1641V83.3828ZM97.9375 85.0859C97.8854 85.0911 97.8333 85.0938 97.7812 85.0938C97.4271 85.0938 97.1641 84.9818 96.9922 84.7578C96.7891 84.5078 96.6875 84.1797 96.6875 83.7734C96.6875 83.3672 96.7865 83.0391 96.9844 82.7891C97.1875 82.5339 97.5182 82.4062 97.9766 82.4062C98.4349 82.4062 98.763 82.5339 98.9609 82.7891C99.1641 83.0391 99.2656 83.3672 99.2656 83.7734V87.0938C99.2656 89.6979 97.9635 91 95.3594 91C92.7552 91 91.4531 89.6979 91.4531 87.0938V82.4062C91.4531 82.0417 91.3229 81.651 91.0625 81.2344V80.8438C91.0625 79.8021 91.5833 79.2812 92.625 79.2812H94.9688L96.7656 80.4531H97.3906C97.7552 80.4531 97.9375 80.2708 97.9375 79.9062V78.1094H99.2656V79.9062C99.2656 81.0521 98.8229 81.625 97.9375 81.625H96.5312L94.7344 80.4531H93.1719C92.651 80.4531 92.3906 80.6094 92.3906 80.9219C92.651 81.3385 92.7812 81.8333 92.7812 82.4062V87.0938C92.7812 88.9167 93.6406 89.8281 95.3594 89.8281C97.0781 89.8281 97.9375 88.9167 97.9375 87.0938V85.0859ZM104.5 81.0391C104.609 81.0391 104.701 81.0052 104.773 80.9375C104.852 80.8698 104.891 80.7734 104.891 80.6484C104.891 80.5234 104.852 80.4271 104.773 80.3594C104.701 80.2917 104.609 80.2578 104.5 80.2578V81.0391ZM115.125 82.4062C115.125 82.0417 114.865 81.651 114.344 81.2344V80.4531C114.344 79.6719 114.734 79.2812 115.516 79.2812H116.844V80.4531H115.906C115.646 80.4531 115.516 80.5833 115.516 80.8438C116.141 81.2604 116.453 81.7812 116.453 82.4062V87.0938C116.453 89.6979 115.281 91 112.938 91C111.375 91 110.333 90.4219 109.812 89.2656C109.292 90.4219 108.25 91 106.688 91C104.344 91 103.172 89.6979 103.172 87.0938V80.6484C103.172 80.2422 103.271 79.9141 103.469 79.6641C103.672 79.4089 104.003 79.2812 104.461 79.2812C104.919 79.2812 105.247 79.4089 105.445 79.6641C105.648 79.9141 105.75 80.2422 105.75 80.6484C105.75 81.0547 105.648 81.3828 105.445 81.6328C105.273 81.8568 105.01 81.9688 104.656 81.9688C104.604 81.9688 104.552 81.9661 104.5 81.9609V87.0938C104.5 88.9167 105.229 89.8281 106.688 89.8281C108.328 89.8281 109.148 88.9167 109.148 87.0938V82.4062C109.148 82.0417 108.888 81.651 108.367 81.2344V80.4531C108.367 79.6719 108.758 79.2812 109.539 79.2812H110.867V80.4531H109.93C109.669 80.4531 109.539 80.5833 109.539 80.8438C110.164 81.2604 110.477 81.7812 110.477 82.4062V87.0938C110.477 88.9167 111.297 89.8281 112.938 89.8281C114.396 89.8281 115.125 88.9167 115.125 87.0938V82.4062ZM121.883 89.8281C121.94 89.8281 121.987 89.8047 122.023 89.7578C122.06 89.7057 122.078 89.5339 122.078 89.2422C122.078 88.9505 122.06 88.7812 122.023 88.7344C121.987 88.6823 121.94 88.6562 121.883 88.6562H121.688V89.8281H121.883ZM121.688 87.5C121.75 87.4896 121.815 87.4844 121.883 87.4844C122.185 87.4844 122.422 87.612 122.594 87.8672C122.771 88.1172 122.859 88.5755 122.859 89.2422C122.859 89.9089 122.771 90.3698 122.594 90.625C122.422 90.875 122.094 91 121.609 91C121.125 91 120.794 90.875 120.617 90.625C120.445 90.3698 120.359 89.9089 120.359 89.2422V82.4062C120.255 82.0417 119.995 81.651 119.578 81.2344V80.4531C119.578 79.6719 119.969 79.2812 120.75 79.2812H122.078V80.4531H121.141C120.88 80.4531 120.75 80.5833 120.75 80.8438C121.375 81.2604 121.688 81.7812 121.688 82.4062V87.5ZM126.922 82.4062V92.9531C126.922 94.2552 127.482 94.9062 128.602 94.9062C129.721 94.9062 130.281 94.2552 130.281 92.9531V91.7812H131.609V92.9531C131.609 95.0365 130.607 96.0781 128.602 96.0781C126.596 96.0781 125.594 95.0365 125.594 92.9531V82.4062C125.594 82.0417 125.333 81.651 124.812 81.2344V80.4531C124.812 79.6719 125.203 79.2812 125.984 79.2812H127.312V80.4531H126.375C126.115 80.4531 125.984 80.5833 125.984 80.8438C126.609 81.2604 126.922 81.7812 126.922 82.4062ZM131.609 91H130.281V85.5312C130.281 82.9271 131.583 81.625 134.188 81.625C136.792 81.625 138.094 82.9271 138.094 85.5312V91H136.766V85.5312C136.766 83.7083 135.906 82.7969 134.188 82.7969C132.469 82.7969 131.609 83.7083 131.609 85.5312V91ZM138.094 79.2812V80.4531H130.281V79.2812H138.094ZM138.094 79.2812H139.656C141.74 79.2812 142.781 80.3229 142.781 82.4062V91H141.453V82.4062C141.453 81.1042 140.854 80.4531 139.656 80.4531H138.094V79.2812ZM148.016 81.0391C148.125 81.0391 148.216 81.0052 148.289 80.9375C148.367 80.8698 148.406 80.7734 148.406 80.6484C148.406 80.5234 148.367 80.4271 148.289 80.3594C148.216 80.2917 148.125 80.2578 148.016 80.2578V81.0391ZM158.641 82.4062C158.641 82.0417 158.38 81.651 157.859 81.2344V80.4531C157.859 79.6719 158.25 79.2812 159.031 79.2812H160.359V80.4531H159.422C159.161 80.4531 159.031 80.5833 159.031 80.8438C159.656 81.2604 159.969 81.7812 159.969 82.4062V87.0938C159.969 89.6979 158.797 91 156.453 91C154.891 91 153.849 90.4219 153.328 89.2656C152.807 90.4219 151.766 91 150.203 91C147.859 91 146.688 89.6979 146.688 87.0938V80.6484C146.688 80.2422 146.786 79.9141 146.984 79.6641C147.188 79.4089 147.518 79.2812 147.977 79.2812C148.435 79.2812 148.763 79.4089 148.961 79.6641C149.164 79.9141 149.266 80.2422 149.266 80.6484C149.266 81.0547 149.164 81.3828 148.961 81.6328C148.789 81.8568 148.526 81.9688 148.172 81.9688C148.12 81.9688 148.068 81.9661 148.016 81.9609V87.0938C148.016 88.9167 148.745 89.8281 150.203 89.8281C151.844 89.8281 152.664 88.9167 152.664 87.0938V82.4062C152.664 82.0417 152.404 81.651 151.883 81.2344V80.4531C151.883 79.6719 152.273 79.2812 153.055 79.2812H154.383V80.4531H153.445C153.185 80.4531 153.055 80.5833 153.055 80.8438C153.68 81.2604 153.992 81.7812 153.992 82.4062V87.0938C153.992 88.9167 154.812 89.8281 156.453 89.8281C157.911 89.8281 158.641 88.9167 158.641 87.0938V82.4062Z" fill="#1C4076"/>
<path d="M33.5 66C33.5 63.7909 35.2909 62 37.5 62H178.5V110H37.5C35.2909 110 33.5 108.209 33.5 106V66Z" stroke="#98A2B3"/>
<rect width="44" height="48" transform="translate(178.5 62)" fill="#1C4076"/>
<rect x="178.5" y="62" width="44" height="48" fill="#1C4076"/>
<path d="M199.969 89.8281C201.948 89.8281 202.938 88.1354 202.938 84.75C202.938 81.8854 202.078 80.4531 200.359 80.4531C198.641 80.4531 197.781 81.3646 197.781 83.1875C197.781 83.5052 197.841 83.7865 197.961 84.0312C198.086 84.2708 198.346 84.3906 198.742 84.3906C199.117 84.3906 199.354 84.3359 199.453 84.2266C199.531 84.138 199.57 84.0521 199.57 83.9688C199.57 83.9427 199.568 83.9193 199.562 83.8984C199.536 83.7891 199.495 83.7344 199.438 83.7344C199.38 83.7344 199.227 83.8203 198.977 83.9922L198.633 83.0938C198.997 82.8281 199.326 82.6953 199.617 82.6953C199.935 82.6953 200.182 82.7891 200.359 82.9766C200.536 83.1641 200.625 83.4922 200.625 83.9609C200.625 84.2214 200.557 84.5 200.422 84.7969C200.292 85.0938 200.073 85.3047 199.766 85.4297C199.458 85.5495 199.138 85.6094 198.805 85.6094C198.414 85.6094 198.049 85.5521 197.711 85.4375C197.378 85.3229 197.083 85.0885 196.828 84.7344C196.578 84.375 196.453 83.8594 196.453 83.1875C196.453 80.5833 197.755 79.2812 200.359 79.2812C202.964 79.2812 204.266 81.1042 204.266 84.75C204.266 88.9167 202.833 91 199.969 91C198.901 91 197.964 90.7135 197.156 90.1406L197.547 89.0469C198.12 89.5677 198.927 89.8281 199.969 89.8281Z" fill="white"/>
<rect x="178.5" y="62" width="44" height="48" stroke="#98A2B3"/>
<rect x="222.5" y="62" width="45" height="48" fill="white"/>
<path d="M244.125 84.3984C244.234 84.3984 244.326 84.3646 244.398 84.2969C244.477 84.2292 244.516 84.1328 244.516 84.0078C244.516 83.8828 244.477 83.7865 244.398 83.7188C244.326 83.651 244.234 83.6172 244.125 83.6172V84.3984ZM242.797 81.3125L244.438 79.2812L245.922 80.8438L247.406 79.2812L249.047 81.3125V87.0938C249.047 89.6979 247.615 91 244.75 91C241.885 91 240.453 89.6979 240.453 87.0938V79.6719C240.453 79.151 240.193 78.8906 239.672 78.8906H239.281V77.7188H240.219C241.26 77.7188 241.781 78.2396 241.781 79.2812V87.0938C241.781 88.9167 242.771 89.8281 244.75 89.8281C246.729 89.8281 247.719 88.9167 247.719 87.0938V81.625L247.172 80.9609L245.922 82.25L244.672 80.9609L244.125 81.625V82.6953C244.177 82.6901 244.229 82.6875 244.281 82.6875C244.635 82.6875 244.898 82.7995 245.07 83.0234C245.273 83.2734 245.375 83.6016 245.375 84.0078C245.375 84.4141 245.273 84.7448 245.07 85C244.872 85.25 244.544 85.375 244.086 85.375C243.628 85.375 243.297 85.25 243.094 85C242.896 84.7448 242.797 84.4141 242.797 84.0078V81.3125Z" fill="#1C4076"/>
<rect x="222.5" y="62" width="45" height="48" stroke="#98A2B3"/>
<rect x="267.5" y="62" width="43" height="48" fill="white"/>
<path d="M284.203 90.1172C284.203 89.9818 284.227 89.8542 284.273 89.7344C284.326 89.6094 284.396 89.5026 284.484 89.4141C284.573 89.3203 284.677 89.2474 284.797 89.1953C284.922 89.138 285.055 89.1094 285.195 89.1094C285.336 89.1094 285.466 89.138 285.586 89.1953C285.711 89.2474 285.818 89.3203 285.906 89.4141C286 89.5026 286.07 89.6094 286.117 89.7344C286.169 89.8542 286.195 89.9818 286.195 90.1172C286.195 90.263 286.169 90.3958 286.117 90.5156C286.07 90.6354 286 90.7422 285.906 90.8359C285.818 90.9245 285.711 90.9922 285.586 91.0391C285.466 91.0911 285.336 91.1172 285.195 91.1172C285.055 91.1172 284.922 91.0911 284.797 91.0391C284.677 90.9922 284.573 90.9245 284.484 90.8359C284.396 90.7422 284.326 90.6354 284.273 90.5156C284.227 90.3958 284.203 90.263 284.203 90.1172ZM287.594 90.1172C287.594 89.9818 287.617 89.8542 287.664 89.7344C287.716 89.6094 287.786 89.5026 287.875 89.4141C287.964 89.3203 288.068 89.2474 288.188 89.1953C288.312 89.138 288.445 89.1094 288.586 89.1094C288.727 89.1094 288.857 89.138 288.977 89.1953C289.102 89.2474 289.208 89.3203 289.297 89.4141C289.391 89.5026 289.461 89.6094 289.508 89.7344C289.56 89.8542 289.586 89.9818 289.586 90.1172C289.586 90.263 289.56 90.3958 289.508 90.5156C289.461 90.6354 289.391 90.7422 289.297 90.8359C289.208 90.9245 289.102 90.9922 288.977 91.0391C288.857 91.0911 288.727 91.1172 288.586 91.1172C288.445 91.1172 288.312 91.0911 288.188 91.0391C288.068 90.9922 287.964 90.9245 287.875 90.8359C287.786 90.7422 287.716 90.6354 287.664 90.5156C287.617 90.3958 287.594 90.263 287.594 90.1172ZM290.984 90.1172C290.984 89.9818 291.008 89.8542 291.055 89.7344C291.107 89.6094 291.177 89.5026 291.266 89.4141C291.354 89.3203 291.458 89.2474 291.578 89.1953C291.703 89.138 291.836 89.1094 291.977 89.1094C292.117 89.1094 292.247 89.138 292.367 89.1953C292.492 89.2474 292.599 89.3203 292.688 89.4141C292.781 89.5026 292.852 89.6094 292.898 89.7344C292.951 89.8542 292.977 89.9818 292.977 90.1172C292.977 90.263 292.951 90.3958 292.898 90.5156C292.852 90.6354 292.781 90.7422 292.688 90.8359C292.599 90.9245 292.492 90.9922 292.367 91.0391C292.247 91.0911 292.117 91.1172 291.977 91.1172C291.836 91.1172 291.703 91.0911 291.578 91.0391C291.458 90.9922 291.354 90.9245 291.266 90.8359C291.177 90.7422 291.107 90.6354 291.055 90.5156C291.008 90.3958 290.984 90.263 290.984 90.1172Z" fill="#1C4076"/>
<rect x="267.5" y="62" width="43" height="48" stroke="#98A2B3"/>
<rect x="310.5" y="62" width="44" height="48" fill="white"/>
<path d="M334.938 84.9453C334.828 84.9453 334.734 84.9792 334.656 85.0469C334.583 85.1146 334.547 85.2109 334.547 85.3359C334.547 85.4609 334.583 85.5573 334.656 85.625C334.734 85.6927 334.828 85.7266 334.938 85.7266V84.9453ZM336.266 88.6562C336.266 90.2188 335.745 91 334.703 91C333.792 91 333.01 90.349 332.359 89.0469C331.708 90.349 330.927 91 330.016 91C328.974 91 328.453 90.2188 328.453 88.6562V83.1875C328.453 80.5833 329.755 79.2812 332.359 79.2812C333.432 79.2812 334.292 79.6797 334.938 80.4766V79.2812C334.938 78.2396 335.641 77.7188 337.047 77.7188H337.438V78.8906H337.047C336.526 78.8906 336.266 79.0208 336.266 79.2812V82.4062H334.938C334.938 81.1042 334.078 80.4531 332.359 80.4531C330.641 80.4531 329.781 81.3646 329.781 83.1875V88.6562C329.781 89.3333 329.99 89.6719 330.406 89.6719C330.823 89.6719 331.422 88.9948 332.203 87.6406H332.516C333.297 88.9948 333.896 89.6719 334.312 89.6719C334.729 89.6719 334.938 89.3333 334.938 88.6562V86.6484C334.885 86.6536 334.833 86.6562 334.781 86.6562C334.427 86.6562 334.164 86.5443 333.992 86.3203C333.789 86.0703 333.688 85.7422 333.688 85.3359C333.688 84.9297 333.786 84.6016 333.984 84.3516C334.188 84.0964 334.518 83.9688 334.977 83.9688C335.435 83.9688 335.763 84.0964 335.961 84.3516C336.164 84.6016 336.266 84.9297 336.266 85.3359V88.6562Z" fill="#1C4076"/>
<rect x="310.5" y="62" width="44" height="48" stroke="#98A2B3"/>
<rect x="354.5" y="62" width="44" height="48" fill="white"/>
<path d="M375.891 83.1094L376.359 83.1953C377.505 83.4141 378.807 84.2448 380.266 85.6875L379.562 86.3906C378.417 85.1979 377.336 84.5104 376.32 84.3281C375.987 84.2708 375.68 84.2422 375.398 84.2422C374.826 84.2422 374.411 84.3958 374.156 84.7031C373.906 85.0052 373.781 85.5547 373.781 86.3516V87.0938C373.781 88.9167 374.641 89.8281 376.359 89.8281C378.078 89.8281 378.938 89.4375 378.938 88.6562C378.938 88.1146 378.826 87.8438 378.602 87.8438C378.227 87.8438 377.977 87.8984 377.852 88.0078C377.727 88.1172 377.664 88.2005 377.664 88.2578C377.664 88.3151 377.755 88.3438 377.938 88.3438C378.078 88.3438 378.273 88.2578 378.523 88.0859L378.867 88.9062C378.503 89.1719 378.122 89.3047 377.727 89.3047C377.357 89.3047 377.083 89.2109 376.906 89.0234C376.729 88.8359 376.641 88.5859 376.641 88.2734C376.641 87.9609 376.732 87.6823 376.914 87.4375C377.102 87.1927 377.336 87.0234 377.617 86.9297C377.898 86.8307 378.206 86.7812 378.539 86.7812C379.69 86.7812 380.266 87.4062 380.266 88.6562C380.266 90.2188 378.964 91 376.359 91C373.755 91 372.453 89.6979 372.453 87.0938V86.3516C372.453 85.0911 372.818 84.1953 373.547 83.6641C373.854 83.4453 374.201 83.2891 374.586 83.1953C374.299 82.4714 374.156 81.8464 374.156 81.3203C374.156 79.9609 375.021 79.2812 376.75 79.2812C377.927 79.2812 378.656 79.6797 378.938 80.4766V79.2812C378.938 79.0208 378.677 78.8906 378.156 78.8906H377.766V77.7188H378.703C379.745 77.7188 380.266 78.2396 380.266 79.2812V83.1875H378.938C378.938 81.3646 378.208 80.4531 376.75 80.4531C375.922 80.4531 375.508 80.8203 375.508 81.5547C375.508 81.9818 375.635 82.5 375.891 83.1094Z" fill="#1C4076"/>
<rect x="354.5" y="62" width="44" height="48" stroke="#98A2B3"/>
<rect width="112" height="48" transform="translate(398.5 62)" fill="white"/>
<path d="M398.5 62H506.5C508.709 62 510.5 63.7909 510.5 66V106C510.5 108.209 508.709 110 506.5 110H398.5V62Z" fill="white"/>
<path d="M422.938 82.4062C422.938 82.0417 422.677 81.651 422.156 81.2344V80.4531C422.156 79.6719 422.547 79.2812 423.328 79.2812H424.656V80.4531H423.719C423.458 80.4531 423.328 80.5833 423.328 80.8438C423.953 81.2604 424.266 81.7812 424.266 82.4062V87.0938C424.266 89.6979 422.964 91 420.359 91C417.755 91 416.453 89.6979 416.453 87.0938V82.4062C416.453 82.0417 416.193 81.651 415.672 81.2344V80.4531C415.672 79.6719 416.062 79.2812 416.844 79.2812H418.172V80.4531H417.234C416.974 80.4531 416.844 80.5833 416.844 80.8438C417.469 81.2604 417.781 81.7812 417.781 82.4062V87.0938C417.781 88.9167 418.641 89.8281 420.359 89.8281C422.078 89.8281 422.938 88.9167 422.938 87.0938V82.4062ZM435.984 86.2344V87.875C435.984 89.9583 435.255 91 433.797 91C432.724 91 431.93 90.6745 431.414 90.0234C430.898 89.3724 430.26 89.0469 429.5 89.0469V91H428.172V86.3125H429.5V87.875C430.411 87.875 431.151 88.2005 431.719 88.8516C432.292 89.5026 432.872 89.8281 433.461 89.8281C434.258 89.8281 434.656 89.1771 434.656 87.875V87.0938C430.333 86.1562 428.172 84.5938 428.172 82.4062C428.172 80.3229 429.474 79.2812 432.078 79.2812C434.682 79.2812 435.984 80.3229 435.984 82.4062C435.984 83.8594 435.26 84.5859 433.812 84.5859C433.484 84.5859 433.219 84.5104 433.016 84.3594V83.1875C433.385 83.2969 433.688 83.3516 433.922 83.3516C434.411 83.3516 434.656 83.0365 434.656 82.4062C434.656 81.1042 433.797 80.4531 432.078 80.4531C430.359 80.4531 429.5 81.1042 429.5 82.4062C429.5 83.9688 431.661 85.2448 435.984 86.2344ZM434.422 94.2422C434.005 94.8411 433.549 95.2318 433.055 95.4141C432.56 95.5964 432.13 95.6875 431.766 95.6875C430.672 95.6875 430.125 95.2969 430.125 94.5156C430.125 93.9948 430.367 93.6615 430.852 93.5156C431.331 93.375 431.812 93.1536 432.297 92.8516C432.776 92.5547 433.016 92.1979 433.016 91.7812H434.188C434.188 92.7188 433.224 93.5781 431.297 94.3594C431.297 94.4635 431.453 94.5156 431.766 94.5156C432.13 94.5156 432.534 94.4245 432.977 94.2422C433.419 94.0599 433.901 93.5807 434.422 92.8047V92.3281H435.594V95.6875H434.422V94.2422ZM435.984 79.2812H437.547C439.63 79.2812 440.672 80.3229 440.672 82.4062V91H439.344V82.4062C439.344 81.1042 438.745 80.4531 437.547 80.4531H435.984V79.2812ZM451.062 82.4062C451.062 82.0417 450.802 81.651 450.281 81.2344V80.4531C450.281 79.6719 450.672 79.2812 451.453 79.2812H452.781V80.4531H451.844C451.583 80.4531 451.453 80.5833 451.453 80.8438C452.078 81.2604 452.391 81.7812 452.391 82.4062V87.0938C452.391 89.6979 451.089 91 448.484 91C445.88 91 444.578 89.6979 444.578 87.0938V82.4062C444.578 82.0417 444.318 81.651 443.797 81.2344V80.4531C443.797 79.6719 444.188 79.2812 444.969 79.2812H446.297V80.4531H445.359C445.099 80.4531 444.969 80.5833 444.969 80.8438C445.594 81.2604 445.906 81.7812 445.906 82.4062V87.0938C445.906 88.9167 446.766 89.8281 448.484 89.8281C450.203 89.8281 451.062 88.9167 451.062 87.0938V82.4062ZM449.07 73.4219V76.9375H447.898V73.4219H449.07Z" fill="#1C4076"/>
<path fill-rule="evenodd" clip-rule="evenodd" d="M477.856 77.2034C477.921 77.1389 477.997 77.0878 478.081 77.0529C478.165 77.018 478.255 77 478.347 77C478.438 77 478.528 77.018 478.612 77.0529C478.696 77.0878 478.772 77.1389 478.837 77.2034L487.143 85.5101C487.208 85.5744 487.259 85.6508 487.294 85.7349C487.329 85.819 487.347 85.9091 487.347 86.0002C487.347 86.0912 487.329 86.1814 487.294 86.2655C487.259 86.3496 487.208 86.426 487.143 86.4903L478.837 94.797C478.707 94.927 478.53 95 478.347 95C478.163 95 477.986 94.927 477.856 94.797C477.726 94.667 477.653 94.4907 477.653 94.3069C477.653 94.1231 477.726 93.9468 477.856 93.8168L485.674 86.0002L477.856 78.1836C477.792 78.1193 477.741 78.0429 477.706 77.9588C477.671 77.8747 477.653 77.7845 477.653 77.6935C477.653 77.6024 477.671 77.5123 477.706 77.4282C477.741 77.3441 477.792 77.2677 477.856 77.2034Z" fill="#1C4076"/>
<path d="M398.5 62H506.5C508.709 62 510.5 63.7909 510.5 66V106C510.5 108.209 508.709 110 506.5 110H398.5V62Z" stroke="#98A2B3"/>
<path d="M117 66V17" stroke="#344054" stroke-dasharray="2 2"/>
<circle cx="12" cy="16" r="12" fill="#344054"/>
<path d="M14.0057 10.3636V22H11.5455V12.6989H11.4773L8.8125 14.3693V12.1875L11.6932 10.3636H14.0057Z" fill="white"/>
<circle cx="115" cy="152" r="12" fill="#344054"/>
<path d="M110.943 158V156.227L115.085 152.392C115.438 152.051 115.733 151.744 115.972 151.472C116.214 151.199 116.398 150.932 116.523 150.67C116.648 150.405 116.71 150.119 116.71 149.812C116.71 149.472 116.633 149.178 116.477 148.932C116.322 148.682 116.11 148.491 115.841 148.358C115.572 148.222 115.267 148.153 114.926 148.153C114.57 148.153 114.259 148.225 113.994 148.369C113.729 148.513 113.525 148.72 113.381 148.989C113.237 149.258 113.165 149.578 113.165 149.949H110.83C110.83 149.187 111.002 148.527 111.347 147.966C111.691 147.405 112.174 146.972 112.795 146.665C113.417 146.358 114.133 146.205 114.943 146.205C115.777 146.205 116.502 146.352 117.119 146.648C117.741 146.939 118.223 147.345 118.568 147.864C118.913 148.383 119.085 148.977 119.085 149.648C119.085 150.087 118.998 150.521 118.824 150.949C118.653 151.377 118.348 151.852 117.909 152.375C117.47 152.894 116.85 153.517 116.051 154.244L114.352 155.909V155.989H119.239V158H110.943Z" fill="white"/>
<path d="M25 16H454V66" stroke="#344054" stroke-dasharray="2 2"/>
<path d="M128 152H201V102" stroke="#344054" stroke-dasharray="2 2"/>
<circle cx="289" cy="157" r="12" fill="#344054"/>
<path d="M289.244 163.159C288.396 163.159 287.64 163.013 286.977 162.722C286.318 162.426 285.797 162.021 285.415 161.506C285.036 160.987 284.841 160.388 284.83 159.71H287.307C287.322 159.994 287.415 160.244 287.585 160.46C287.759 160.672 287.991 160.837 288.278 160.955C288.566 161.072 288.89 161.131 289.25 161.131C289.625 161.131 289.956 161.064 290.244 160.932C290.532 160.799 290.758 160.616 290.92 160.381C291.083 160.146 291.165 159.875 291.165 159.568C291.165 159.258 291.078 158.983 290.903 158.744C290.733 158.502 290.487 158.312 290.165 158.176C289.847 158.04 289.468 157.972 289.028 157.972H287.943V156.165H289.028C289.4 156.165 289.727 156.1 290.011 155.972C290.299 155.843 290.523 155.665 290.682 155.438C290.841 155.206 290.92 154.938 290.92 154.631C290.92 154.339 290.85 154.083 290.71 153.864C290.574 153.64 290.381 153.466 290.131 153.341C289.884 153.216 289.597 153.153 289.267 153.153C288.934 153.153 288.629 153.214 288.352 153.335C288.076 153.453 287.854 153.621 287.688 153.841C287.521 154.061 287.432 154.318 287.42 154.614H285.062C285.074 153.943 285.265 153.352 285.636 152.841C286.008 152.33 286.508 151.93 287.136 151.642C287.769 151.35 288.483 151.205 289.278 151.205C290.081 151.205 290.784 151.35 291.386 151.642C291.989 151.934 292.456 152.328 292.79 152.824C293.127 153.316 293.294 153.869 293.29 154.483C293.294 155.134 293.091 155.678 292.682 156.114C292.277 156.549 291.748 156.826 291.097 156.943V157.034C291.953 157.144 292.604 157.441 293.051 157.926C293.502 158.407 293.725 159.009 293.722 159.733C293.725 160.396 293.534 160.985 293.148 161.5C292.765 162.015 292.237 162.42 291.562 162.716C290.888 163.011 290.116 163.159 289.244 163.159Z" fill="white"/>
<path d="M289 145.5V98" stroke="#344054" stroke-dasharray="2 2"/>
</svg>
