<svg width="578" height="116" viewBox="0 0 578 116" fill="none" xmlns="http://www.w3.org/2000/svg">
<path d="M46.5 38C46.5 35.7909 48.2909 34 50.5 34H191.5V82H50.5C48.2909 82 46.5 80.2091 46.5 78V38Z" fill="#E4E7EC"/>
<path d="M46.5 38C46.5 35.7909 48.2909 34 50.5 34H191.5V82H50.5C48.2909 82 46.5 80.2091 46.5 78V38Z" fill="white"/>
<path fill-rule="evenodd" clip-rule="evenodd" d="M79.1434 49.2034C79.2078 49.2677 79.259 49.3441 79.2939 49.4282C79.3288 49.5123 79.3467 49.6024 79.3467 49.6935C79.3467 49.7845 79.3288 49.8747 79.2939 49.9588C79.259 50.0429 79.2078 50.1193 79.1434 50.1836L71.3253 58.0002L79.1434 65.8168C79.2733 65.9468 79.3464 66.1231 79.3464 66.3069C79.3464 66.4907 79.2733 66.667 79.1434 66.797C79.0134 66.927 78.8371 67 78.6533 67C78.4694 67 78.2931 66.927 78.1632 66.797L69.8564 58.4903C69.792 58.426 69.7408 58.3496 69.7059 58.2655C69.671 58.1814 69.6531 58.0912 69.6531 58.0002C69.6531 57.9091 69.671 57.819 69.7059 57.7349C69.7408 57.6508 69.792 57.5744 69.8564 57.5101L78.1632 49.2034C78.2275 49.1389 78.3039 49.0878 78.388 49.0529C78.4721 49.018 78.5622 49 78.6533 49C78.7443 49 78.8345 49.018 78.9186 49.0529C79.0027 49.0878 79.0791 49.1389 79.1434 49.2034Z" fill="#1C4076"/>
<path d="M110.938 55.3828C110.828 55.3828 110.734 55.4167 110.656 55.4844C110.583 55.5521 110.547 55.6484 110.547 55.7734C110.547 55.8984 110.583 55.9948 110.656 56.0625C110.734 56.1302 110.828 56.1641 110.938 56.1641V55.3828ZM110.938 57.0859C110.885 57.0911 110.833 57.0938 110.781 57.0938C110.427 57.0938 110.164 56.9818 109.992 56.7578C109.789 56.5078 109.688 56.1797 109.688 55.7734C109.688 55.3672 109.786 55.0391 109.984 54.7891C110.188 54.5339 110.518 54.4062 110.977 54.4062C111.435 54.4062 111.763 54.5339 111.961 54.7891C112.164 55.0391 112.266 55.3672 112.266 55.7734V59.0938C112.266 61.6979 110.964 63 108.359 63C105.755 63 104.453 61.6979 104.453 59.0938V54.4062C104.453 54.0417 104.323 53.651 104.062 53.2344V52.8438C104.062 51.8021 104.583 51.2812 105.625 51.2812H107.969L109.766 52.4531H110.391C110.755 52.4531 110.938 52.2708 110.938 51.9062V50.1094H112.266V51.9062C112.266 53.0521 111.823 53.625 110.938 53.625H109.531L107.734 52.4531H106.172C105.651 52.4531 105.391 52.6094 105.391 52.9219C105.651 53.3385 105.781 53.8333 105.781 54.4062V59.0938C105.781 60.9167 106.641 61.8281 108.359 61.8281C110.078 61.8281 110.938 60.9167 110.938 59.0938V57.0859ZM117.5 53.0391C117.609 53.0391 117.701 53.0052 117.773 52.9375C117.852 52.8698 117.891 52.7734 117.891 52.6484C117.891 52.5234 117.852 52.4271 117.773 52.3594C117.701 52.2917 117.609 52.2578 117.5 52.2578V53.0391ZM128.125 54.4062C128.125 54.0417 127.865 53.651 127.344 53.2344V52.4531C127.344 51.6719 127.734 51.2812 128.516 51.2812H129.844V52.4531H128.906C128.646 52.4531 128.516 52.5833 128.516 52.8438C129.141 53.2604 129.453 53.7812 129.453 54.4062V59.0938C129.453 61.6979 128.281 63 125.938 63C124.375 63 123.333 62.4219 122.812 61.2656C122.292 62.4219 121.25 63 119.688 63C117.344 63 116.172 61.6979 116.172 59.0938V52.6484C116.172 52.2422 116.271 51.9141 116.469 51.6641C116.672 51.4089 117.003 51.2812 117.461 51.2812C117.919 51.2812 118.247 51.4089 118.445 51.6641C118.648 51.9141 118.75 52.2422 118.75 52.6484C118.75 53.0547 118.648 53.3828 118.445 53.6328C118.273 53.8568 118.01 53.9688 117.656 53.9688C117.604 53.9688 117.552 53.9661 117.5 53.9609V59.0938C117.5 60.9167 118.229 61.8281 119.688 61.8281C121.328 61.8281 122.148 60.9167 122.148 59.0938V54.4062C122.148 54.0417 121.888 53.651 121.367 53.2344V52.4531C121.367 51.6719 121.758 51.2812 122.539 51.2812H123.867V52.4531H122.93C122.669 52.4531 122.539 52.5833 122.539 52.8438C123.164 53.2604 123.477 53.7812 123.477 54.4062V59.0938C123.477 60.9167 124.297 61.8281 125.938 61.8281C127.396 61.8281 128.125 60.9167 128.125 59.0938V54.4062ZM134.883 61.8281C134.94 61.8281 134.987 61.8047 135.023 61.7578C135.06 61.7057 135.078 61.5339 135.078 61.2422C135.078 60.9505 135.06 60.7812 135.023 60.7344C134.987 60.6823 134.94 60.6562 134.883 60.6562H134.688V61.8281H134.883ZM134.688 59.5C134.75 59.4896 134.815 59.4844 134.883 59.4844C135.185 59.4844 135.422 59.612 135.594 59.8672C135.771 60.1172 135.859 60.5755 135.859 61.2422C135.859 61.9089 135.771 62.3698 135.594 62.625C135.422 62.875 135.094 63 134.609 63C134.125 63 133.794 62.875 133.617 62.625C133.445 62.3698 133.359 61.9089 133.359 61.2422V54.4062C133.255 54.0417 132.995 53.651 132.578 53.2344V52.4531C132.578 51.6719 132.969 51.2812 133.75 51.2812H135.078V52.4531H134.141C133.88 52.4531 133.75 52.5833 133.75 52.8438C134.375 53.2604 134.688 53.7812 134.688 54.4062V59.5ZM139.922 54.4062V64.9531C139.922 66.2552 140.482 66.9062 141.602 66.9062C142.721 66.9062 143.281 66.2552 143.281 64.9531V63.7812H144.609V64.9531C144.609 67.0365 143.607 68.0781 141.602 68.0781C139.596 68.0781 138.594 67.0365 138.594 64.9531V54.4062C138.594 54.0417 138.333 53.651 137.812 53.2344V52.4531C137.812 51.6719 138.203 51.2812 138.984 51.2812H140.312V52.4531H139.375C139.115 52.4531 138.984 52.5833 138.984 52.8438C139.609 53.2604 139.922 53.7812 139.922 54.4062ZM144.609 63H143.281V57.5312C143.281 54.9271 144.583 53.625 147.188 53.625C149.792 53.625 151.094 54.9271 151.094 57.5312V63H149.766V57.5312C149.766 55.7083 148.906 54.7969 147.188 54.7969C145.469 54.7969 144.609 55.7083 144.609 57.5312V63ZM151.094 51.2812V52.4531H143.281V51.2812H151.094ZM151.094 51.2812H152.656C154.74 51.2812 155.781 52.3229 155.781 54.4062V63H154.453V54.4062C154.453 53.1042 153.854 52.4531 152.656 52.4531H151.094V51.2812ZM161.016 53.0391C161.125 53.0391 161.216 53.0052 161.289 52.9375C161.367 52.8698 161.406 52.7734 161.406 52.6484C161.406 52.5234 161.367 52.4271 161.289 52.3594C161.216 52.2917 161.125 52.2578 161.016 52.2578V53.0391ZM171.641 54.4062C171.641 54.0417 171.38 53.651 170.859 53.2344V52.4531C170.859 51.6719 171.25 51.2812 172.031 51.2812H173.359V52.4531H172.422C172.161 52.4531 172.031 52.5833 172.031 52.8438C172.656 53.2604 172.969 53.7812 172.969 54.4062V59.0938C172.969 61.6979 171.797 63 169.453 63C167.891 63 166.849 62.4219 166.328 61.2656C165.807 62.4219 164.766 63 163.203 63C160.859 63 159.688 61.6979 159.688 59.0938V52.6484C159.688 52.2422 159.786 51.9141 159.984 51.6641C160.188 51.4089 160.518 51.2812 160.977 51.2812C161.435 51.2812 161.763 51.4089 161.961 51.6641C162.164 51.9141 162.266 52.2422 162.266 52.6484C162.266 53.0547 162.164 53.3828 161.961 53.6328C161.789 53.8568 161.526 53.9688 161.172 53.9688C161.12 53.9688 161.068 53.9661 161.016 53.9609V59.0938C161.016 60.9167 161.745 61.8281 163.203 61.8281C164.844 61.8281 165.664 60.9167 165.664 59.0938V54.4062C165.664 54.0417 165.404 53.651 164.883 53.2344V52.4531C164.883 51.6719 165.273 51.2812 166.055 51.2812H167.383V52.4531H166.445C166.185 52.4531 166.055 52.5833 166.055 52.8438C166.68 53.2604 166.992 53.7812 166.992 54.4062V59.0938C166.992 60.9167 167.812 61.8281 169.453 61.8281C170.911 61.8281 171.641 60.9167 171.641 59.0938V54.4062Z" fill="#1C4076"/>
<path d="M46.5 38C46.5 35.7909 48.2909 34 50.5 34H191.5V82H50.5C48.2909 82 46.5 80.2091 46.5 78V38Z" stroke="#98A2B3"/>
<rect width="44" height="48" transform="translate(191.5 34)" fill="#1C4076"/>
<rect x="191.5" y="34" width="44" height="48" fill="#1C4076"/>
<path d="M212.969 61.8281C214.948 61.8281 215.938 60.1354 215.938 56.75C215.938 53.8854 215.078 52.4531 213.359 52.4531C211.641 52.4531 210.781 53.3646 210.781 55.1875C210.781 55.5052 210.841 55.7865 210.961 56.0312C211.086 56.2708 211.346 56.3906 211.742 56.3906C212.117 56.3906 212.354 56.3359 212.453 56.2266C212.531 56.138 212.57 56.0521 212.57 55.9688C212.57 55.9427 212.568 55.9193 212.562 55.8984C212.536 55.7891 212.495 55.7344 212.438 55.7344C212.38 55.7344 212.227 55.8203 211.977 55.9922L211.633 55.0938C211.997 54.8281 212.326 54.6953 212.617 54.6953C212.935 54.6953 213.182 54.7891 213.359 54.9766C213.536 55.1641 213.625 55.4922 213.625 55.9609C213.625 56.2214 213.557 56.5 213.422 56.7969C213.292 57.0938 213.073 57.3047 212.766 57.4297C212.458 57.5495 212.138 57.6094 211.805 57.6094C211.414 57.6094 211.049 57.5521 210.711 57.4375C210.378 57.3229 210.083 57.0885 209.828 56.7344C209.578 56.375 209.453 55.8594 209.453 55.1875C209.453 52.5833 210.755 51.2812 213.359 51.2812C215.964 51.2812 217.266 53.1042 217.266 56.75C217.266 60.9167 215.833 63 212.969 63C211.901 63 210.964 62.7135 210.156 62.1406L210.547 61.0469C211.12 61.5677 211.927 61.8281 212.969 61.8281Z" fill="white"/>
<rect x="191.5" y="34" width="44" height="48" stroke="#98A2B3"/>
<rect x="235.5" y="34" width="45" height="48" fill="white"/>
<path d="M257.125 56.3984C257.234 56.3984 257.326 56.3646 257.398 56.2969C257.477 56.2292 257.516 56.1328 257.516 56.0078C257.516 55.8828 257.477 55.7865 257.398 55.7188C257.326 55.651 257.234 55.6172 257.125 55.6172V56.3984ZM255.797 53.3125L257.438 51.2812L258.922 52.8438L260.406 51.2812L262.047 53.3125V59.0938C262.047 61.6979 260.615 63 257.75 63C254.885 63 253.453 61.6979 253.453 59.0938V51.6719C253.453 51.151 253.193 50.8906 252.672 50.8906H252.281V49.7188H253.219C254.26 49.7188 254.781 50.2396 254.781 51.2812V59.0938C254.781 60.9167 255.771 61.8281 257.75 61.8281C259.729 61.8281 260.719 60.9167 260.719 59.0938V53.625L260.172 52.9609L258.922 54.25L257.672 52.9609L257.125 53.625V54.6953C257.177 54.6901 257.229 54.6875 257.281 54.6875C257.635 54.6875 257.898 54.7995 258.07 55.0234C258.273 55.2734 258.375 55.6016 258.375 56.0078C258.375 56.4141 258.273 56.7448 258.07 57C257.872 57.25 257.544 57.375 257.086 57.375C256.628 57.375 256.297 57.25 256.094 57C255.896 56.7448 255.797 56.4141 255.797 56.0078V53.3125Z" fill="#1C4076"/>
<rect x="235.5" y="34" width="45" height="48" stroke="#98A2B3"/>
<rect x="280.5" y="34" width="43" height="48" fill="white"/>
<path d="M297.203 62.1172C297.203 61.9818 297.227 61.8542 297.273 61.7344C297.326 61.6094 297.396 61.5026 297.484 61.4141C297.573 61.3203 297.677 61.2474 297.797 61.1953C297.922 61.138 298.055 61.1094 298.195 61.1094C298.336 61.1094 298.466 61.138 298.586 61.1953C298.711 61.2474 298.818 61.3203 298.906 61.4141C299 61.5026 299.07 61.6094 299.117 61.7344C299.169 61.8542 299.195 61.9818 299.195 62.1172C299.195 62.263 299.169 62.3958 299.117 62.5156C299.07 62.6354 299 62.7422 298.906 62.8359C298.818 62.9245 298.711 62.9922 298.586 63.0391C298.466 63.0911 298.336 63.1172 298.195 63.1172C298.055 63.1172 297.922 63.0911 297.797 63.0391C297.677 62.9922 297.573 62.9245 297.484 62.8359C297.396 62.7422 297.326 62.6354 297.273 62.5156C297.227 62.3958 297.203 62.263 297.203 62.1172ZM300.594 62.1172C300.594 61.9818 300.617 61.8542 300.664 61.7344C300.716 61.6094 300.786 61.5026 300.875 61.4141C300.964 61.3203 301.068 61.2474 301.188 61.1953C301.312 61.138 301.445 61.1094 301.586 61.1094C301.727 61.1094 301.857 61.138 301.977 61.1953C302.102 61.2474 302.208 61.3203 302.297 61.4141C302.391 61.5026 302.461 61.6094 302.508 61.7344C302.56 61.8542 302.586 61.9818 302.586 62.1172C302.586 62.263 302.56 62.3958 302.508 62.5156C302.461 62.6354 302.391 62.7422 302.297 62.8359C302.208 62.9245 302.102 62.9922 301.977 63.0391C301.857 63.0911 301.727 63.1172 301.586 63.1172C301.445 63.1172 301.312 63.0911 301.188 63.0391C301.068 62.9922 300.964 62.9245 300.875 62.8359C300.786 62.7422 300.716 62.6354 300.664 62.5156C300.617 62.3958 300.594 62.263 300.594 62.1172ZM303.984 62.1172C303.984 61.9818 304.008 61.8542 304.055 61.7344C304.107 61.6094 304.177 61.5026 304.266 61.4141C304.354 61.3203 304.458 61.2474 304.578 61.1953C304.703 61.138 304.836 61.1094 304.977 61.1094C305.117 61.1094 305.247 61.138 305.367 61.1953C305.492 61.2474 305.599 61.3203 305.688 61.4141C305.781 61.5026 305.852 61.6094 305.898 61.7344C305.951 61.8542 305.977 61.9818 305.977 62.1172C305.977 62.263 305.951 62.3958 305.898 62.5156C305.852 62.6354 305.781 62.7422 305.688 62.8359C305.599 62.9245 305.492 62.9922 305.367 63.0391C305.247 63.0911 305.117 63.1172 304.977 63.1172C304.836 63.1172 304.703 63.0911 304.578 63.0391C304.458 62.9922 304.354 62.9245 304.266 62.8359C304.177 62.7422 304.107 62.6354 304.055 62.5156C304.008 62.3958 303.984 62.263 303.984 62.1172Z" fill="#1C4076"/>
<rect x="280.5" y="34" width="43" height="48" stroke="#98A2B3"/>
<rect x="323.5" y="34" width="44" height="48" fill="white"/>
<path d="M347.938 56.9453C347.828 56.9453 347.734 56.9792 347.656 57.0469C347.583 57.1146 347.547 57.2109 347.547 57.3359C347.547 57.4609 347.583 57.5573 347.656 57.625C347.734 57.6927 347.828 57.7266 347.938 57.7266V56.9453ZM349.266 60.6562C349.266 62.2188 348.745 63 347.703 63C346.792 63 346.01 62.349 345.359 61.0469C344.708 62.349 343.927 63 343.016 63C341.974 63 341.453 62.2188 341.453 60.6562V55.1875C341.453 52.5833 342.755 51.2812 345.359 51.2812C346.432 51.2812 347.292 51.6797 347.938 52.4766V51.2812C347.938 50.2396 348.641 49.7188 350.047 49.7188H350.438V50.8906H350.047C349.526 50.8906 349.266 51.0208 349.266 51.2812V54.4062H347.938C347.938 53.1042 347.078 52.4531 345.359 52.4531C343.641 52.4531 342.781 53.3646 342.781 55.1875V60.6562C342.781 61.3333 342.99 61.6719 343.406 61.6719C343.823 61.6719 344.422 60.9948 345.203 59.6406H345.516C346.297 60.9948 346.896 61.6719 347.312 61.6719C347.729 61.6719 347.938 61.3333 347.938 60.6562V58.6484C347.885 58.6536 347.833 58.6562 347.781 58.6562C347.427 58.6562 347.164 58.5443 346.992 58.3203C346.789 58.0703 346.688 57.7422 346.688 57.3359C346.688 56.9297 346.786 56.6016 346.984 56.3516C347.188 56.0964 347.518 55.9688 347.977 55.9688C348.435 55.9688 348.763 56.0964 348.961 56.3516C349.164 56.6016 349.266 56.9297 349.266 57.3359V60.6562Z" fill="#1C4076"/>
<rect x="323.5" y="34" width="44" height="48" stroke="#98A2B3"/>
<rect x="367.5" y="34" width="44" height="48" fill="white"/>
<path d="M388.891 55.1094L389.359 55.1953C390.505 55.4141 391.807 56.2448 393.266 57.6875L392.562 58.3906C391.417 57.1979 390.336 56.5104 389.32 56.3281C388.987 56.2708 388.68 56.2422 388.398 56.2422C387.826 56.2422 387.411 56.3958 387.156 56.7031C386.906 57.0052 386.781 57.5547 386.781 58.3516V59.0938C386.781 60.9167 387.641 61.8281 389.359 61.8281C391.078 61.8281 391.938 61.4375 391.938 60.6562C391.938 60.1146 391.826 59.8438 391.602 59.8438C391.227 59.8438 390.977 59.8984 390.852 60.0078C390.727 60.1172 390.664 60.2005 390.664 60.2578C390.664 60.3151 390.755 60.3438 390.938 60.3438C391.078 60.3438 391.273 60.2578 391.523 60.0859L391.867 60.9062C391.503 61.1719 391.122 61.3047 390.727 61.3047C390.357 61.3047 390.083 61.2109 389.906 61.0234C389.729 60.8359 389.641 60.5859 389.641 60.2734C389.641 59.9609 389.732 59.6823 389.914 59.4375C390.102 59.1927 390.336 59.0234 390.617 58.9297C390.898 58.8307 391.206 58.7812 391.539 58.7812C392.69 58.7812 393.266 59.4062 393.266 60.6562C393.266 62.2188 391.964 63 389.359 63C386.755 63 385.453 61.6979 385.453 59.0938V58.3516C385.453 57.0911 385.818 56.1953 386.547 55.6641C386.854 55.4453 387.201 55.2891 387.586 55.1953C387.299 54.4714 387.156 53.8464 387.156 53.3203C387.156 51.9609 388.021 51.2812 389.75 51.2812C390.927 51.2812 391.656 51.6797 391.938 52.4766V51.2812C391.938 51.0208 391.677 50.8906 391.156 50.8906H390.766V49.7188H391.703C392.745 49.7188 393.266 50.2396 393.266 51.2812V55.1875H391.938C391.938 53.3646 391.208 52.4531 389.75 52.4531C388.922 52.4531 388.508 52.8203 388.508 53.5547C388.508 53.9818 388.635 54.5 388.891 55.1094Z" fill="#1C4076"/>
<rect x="367.5" y="34" width="44" height="48" stroke="#98A2B3"/>
<rect width="111" height="48" transform="translate(411.5 34)" fill="white"/>
<path d="M411.5 34H519.5C521.709 34 523.5 35.7909 523.5 38V78C523.5 80.2091 521.709 82 519.5 82H411.5V34Z" fill="white"/>
<path d="M435.938 54.4062C435.938 54.0417 435.677 53.651 435.156 53.2344V52.4531C435.156 51.6719 435.547 51.2812 436.328 51.2812H437.656V52.4531H436.719C436.458 52.4531 436.328 52.5833 436.328 52.8438C436.953 53.2604 437.266 53.7812 437.266 54.4062V59.0938C437.266 61.6979 435.964 63 433.359 63C430.755 63 429.453 61.6979 429.453 59.0938V54.4062C429.453 54.0417 429.193 53.651 428.672 53.2344V52.4531C428.672 51.6719 429.062 51.2812 429.844 51.2812H431.172V52.4531H430.234C429.974 52.4531 429.844 52.5833 429.844 52.8438C430.469 53.2604 430.781 53.7812 430.781 54.4062V59.0938C430.781 60.9167 431.641 61.8281 433.359 61.8281C435.078 61.8281 435.938 60.9167 435.938 59.0938V54.4062ZM448.984 58.2344V59.875C448.984 61.9583 448.255 63 446.797 63C445.724 63 444.93 62.6745 444.414 62.0234C443.898 61.3724 443.26 61.0469 442.5 61.0469V63H441.172V58.3125H442.5V59.875C443.411 59.875 444.151 60.2005 444.719 60.8516C445.292 61.5026 445.872 61.8281 446.461 61.8281C447.258 61.8281 447.656 61.1771 447.656 59.875V59.0938C443.333 58.1562 441.172 56.5938 441.172 54.4062C441.172 52.3229 442.474 51.2812 445.078 51.2812C447.682 51.2812 448.984 52.3229 448.984 54.4062C448.984 55.8594 448.26 56.5859 446.812 56.5859C446.484 56.5859 446.219 56.5104 446.016 56.3594V55.1875C446.385 55.2969 446.688 55.3516 446.922 55.3516C447.411 55.3516 447.656 55.0365 447.656 54.4062C447.656 53.1042 446.797 52.4531 445.078 52.4531C443.359 52.4531 442.5 53.1042 442.5 54.4062C442.5 55.9688 444.661 57.2448 448.984 58.2344ZM447.422 66.2422C447.005 66.8411 446.549 67.2318 446.055 67.4141C445.56 67.5964 445.13 67.6875 444.766 67.6875C443.672 67.6875 443.125 67.2969 443.125 66.5156C443.125 65.9948 443.367 65.6615 443.852 65.5156C444.331 65.375 444.812 65.1536 445.297 64.8516C445.776 64.5547 446.016 64.1979 446.016 63.7812H447.188C447.188 64.7188 446.224 65.5781 444.297 66.3594C444.297 66.4635 444.453 66.5156 444.766 66.5156C445.13 66.5156 445.534 66.4245 445.977 66.2422C446.419 66.0599 446.901 65.5807 447.422 64.8047V64.3281H448.594V67.6875H447.422V66.2422ZM448.984 51.2812H450.547C452.63 51.2812 453.672 52.3229 453.672 54.4062V63H452.344V54.4062C452.344 53.1042 451.745 52.4531 450.547 52.4531H448.984V51.2812ZM464.062 54.4062C464.062 54.0417 463.802 53.651 463.281 53.2344V52.4531C463.281 51.6719 463.672 51.2812 464.453 51.2812H465.781V52.4531H464.844C464.583 52.4531 464.453 52.5833 464.453 52.8438C465.078 53.2604 465.391 53.7812 465.391 54.4062V59.0938C465.391 61.6979 464.089 63 461.484 63C458.88 63 457.578 61.6979 457.578 59.0938V54.4062C457.578 54.0417 457.318 53.651 456.797 53.2344V52.4531C456.797 51.6719 457.188 51.2812 457.969 51.2812H459.297V52.4531H458.359C458.099 52.4531 457.969 52.5833 457.969 52.8438C458.594 53.2604 458.906 53.7812 458.906 54.4062V59.0938C458.906 60.9167 459.766 61.8281 461.484 61.8281C463.203 61.8281 464.062 60.9167 464.062 59.0938V54.4062ZM462.07 45.4219V48.9375H460.898V45.4219H462.07Z" fill="#1C4076"/>
<path fill-rule="evenodd" clip-rule="evenodd" d="M490.856 49.2034C490.921 49.1389 490.997 49.0878 491.081 49.0529C491.165 49.018 491.255 49 491.347 49C491.438 49 491.528 49.018 491.612 49.0529C491.696 49.0878 491.772 49.1389 491.837 49.2034L500.143 57.5101C500.208 57.5744 500.259 57.6508 500.294 57.7349C500.329 57.819 500.347 57.9091 500.347 58.0002C500.347 58.0912 500.329 58.1814 500.294 58.2655C500.259 58.3496 500.208 58.426 500.143 58.4903L491.837 66.797C491.707 66.927 491.53 67 491.347 67C491.163 67 490.986 66.927 490.856 66.797C490.726 66.667 490.653 66.4907 490.653 66.3069C490.653 66.1231 490.726 65.9468 490.856 65.8168L498.674 58.0002L490.856 50.1836C490.792 50.1193 490.741 50.0429 490.706 49.9588C490.671 49.8747 490.653 49.7845 490.653 49.6935C490.653 49.6024 490.671 49.5123 490.706 49.4282C490.741 49.3441 490.792 49.2677 490.856 49.2034Z" fill="#1C4076"/>
<path d="M411.5 34H519.5C521.709 34 523.5 35.7909 523.5 38V78C523.5 80.2091 521.709 82 519.5 82H411.5V34Z" stroke="#98A2B3"/>
<rect x="47" y="34" width="476" height="8" fill="#EE7D22" fill-opacity="0.24"/>
<rect x="47" y="74" width="476" height="8" fill="#EE7D22" fill-opacity="0.24"/>
<rect x="47" y="34" width="16" height="48" fill="#EE7D22" fill-opacity="0.24"/>
<rect x="508" y="34" width="15" height="48" fill="#EE7D22" fill-opacity="0.24"/>
<rect x="236" y="34" width="16" height="48" fill="#EE7D22" fill-opacity="0.24"/>
<rect x="264" y="34" width="16" height="48" fill="#EE7D22" fill-opacity="0.24"/>
<path d="M535.5 34V82" stroke="#F07D03"/>
<rect x="540" y="50.5" width="38" height="18" rx="3" fill="#F07D03"/>
<path d="M546.479 62.2216V61.0107L549.516 56.2273H550.56V57.9034H549.942L548.028 60.9325V60.9893H552.342V62.2216H546.479ZM549.97 63.5V61.8523L549.999 61.3161V56.2273H551.44V63.5H549.97ZM556.08 63.5994C555.533 63.5994 555.047 63.5107 554.62 63.3331C554.197 63.1532 553.864 62.9081 553.623 62.598C553.381 62.2879 553.26 61.9363 553.26 61.5433C553.26 61.2403 553.329 60.9621 553.466 60.7088C553.606 60.4531 553.795 60.2412 554.034 60.0732C554.274 59.9027 554.541 59.7938 554.837 59.7464V59.6967C554.449 59.6186 554.134 59.4304 553.892 59.1321C553.651 58.8314 553.53 58.4822 553.53 58.0845C553.53 57.7081 553.64 57.3731 553.86 57.0795C554.081 56.7836 554.382 56.5516 554.766 56.3835C555.152 56.2131 555.59 56.1278 556.08 56.1278C556.57 56.1278 557.007 56.2131 557.39 56.3835C557.776 56.554 558.079 56.7872 558.299 57.0831C558.52 57.3767 558.631 57.7105 558.633 58.0845C558.631 58.4846 558.508 58.8338 558.264 59.1321C558.02 59.4304 557.708 59.6186 557.326 59.6967V59.7464C557.618 59.7938 557.882 59.9027 558.118 60.0732C558.357 60.2412 558.547 60.4531 558.686 60.7088C558.828 60.9621 558.901 61.2403 558.903 61.5433C558.901 61.9363 558.779 62.2879 558.537 62.598C558.296 62.9081 557.962 63.1532 557.536 63.3331C557.112 63.5107 556.627 63.5994 556.08 63.5994ZM556.08 62.4702C556.324 62.4702 556.537 62.4264 556.719 62.3388C556.901 62.2488 557.043 62.1257 557.145 61.9695C557.249 61.8108 557.301 61.6286 557.301 61.4226C557.301 61.2119 557.248 61.026 557.142 60.8651C557.035 60.7017 556.891 60.5739 556.708 60.4815C556.526 60.3868 556.317 60.3395 556.08 60.3395C555.846 60.3395 555.636 60.3868 555.451 60.4815C555.267 60.5739 555.121 60.7017 555.015 60.8651C554.91 61.026 554.858 61.2119 554.858 61.4226C554.858 61.6286 554.909 61.8108 555.011 61.9695C555.113 62.1257 555.256 62.2488 555.441 62.3388C555.625 62.4264 555.838 62.4702 556.08 62.4702ZM556.08 59.2209C556.283 59.2209 556.465 59.1795 556.623 59.0966C556.782 59.0137 556.906 58.8989 556.996 58.7521C557.086 58.6054 557.131 58.4361 557.131 58.2443C557.131 58.0549 557.086 57.8892 556.996 57.7472C556.906 57.6027 556.783 57.4903 556.627 57.4098C556.471 57.3269 556.288 57.2855 556.08 57.2855C555.874 57.2855 555.692 57.3269 555.533 57.4098C555.374 57.4903 555.25 57.6027 555.16 57.7472C555.073 57.8892 555.029 58.0549 555.029 58.2443C555.029 58.4361 555.074 58.6054 555.164 58.7521C555.254 58.8989 555.378 59.0137 555.537 59.0966C555.695 59.1795 555.876 59.2209 556.08 59.2209ZM559.992 65.5455V58.0455H561.484V58.9616H561.551C561.618 58.8149 561.713 58.6657 561.839 58.5142C561.967 58.3603 562.133 58.2325 562.336 58.1307C562.542 58.0265 562.798 57.9744 563.103 57.9744C563.501 57.9744 563.868 58.0786 564.204 58.2869C564.54 58.4929 564.809 58.8042 565.01 59.2209C565.211 59.6352 565.312 60.1548 565.312 60.7798C565.312 61.3883 565.214 61.902 565.017 62.321C564.823 62.7377 564.558 63.0537 564.222 63.2692C563.888 63.4822 563.514 63.5888 563.1 63.5888C562.806 63.5888 562.556 63.5402 562.35 63.4432C562.147 63.3461 561.98 63.2242 561.85 63.0774C561.719 62.9283 561.62 62.7779 561.551 62.6264H561.505V65.5455H559.992ZM561.473 60.7727C561.473 61.0971 561.518 61.38 561.608 61.6214C561.698 61.8629 561.828 62.0511 561.999 62.1861C562.169 62.3187 562.376 62.3849 562.62 62.3849C562.866 62.3849 563.075 62.3175 563.245 62.1825C563.416 62.0452 563.545 61.8558 563.632 61.6143C563.722 61.3705 563.767 61.09 563.767 60.7727C563.767 60.4579 563.723 60.1809 563.636 59.9418C563.548 59.7027 563.419 59.5156 563.249 59.3807C563.078 59.2457 562.869 59.1783 562.62 59.1783C562.374 59.1783 562.166 59.2434 561.995 59.3736C561.827 59.5038 561.698 59.6884 561.608 59.9276C561.518 60.1667 561.473 60.4484 561.473 60.7727ZM567.389 58.0455L568.391 59.9524L569.417 58.0455H570.969L569.389 60.7727L571.012 63.5H569.467L568.391 61.6143L567.333 63.5H565.77L567.389 60.7727L565.827 58.0455H567.389Z" fill="white"/>
<line x1="532" y1="34.5" x2="539" y2="34.5" stroke="#F07D03"/>
<line x1="532" y1="81.5" x2="539" y2="81.5" stroke="#F07D03"/>
<path d="M46.5 91.5H62.5" stroke="#F07D03"/>
<rect x="36.5" y="98" width="36" height="18" rx="3" fill="#F07D03"/>
<path d="M46.2536 103.727V111H44.7159V105.187H44.6733L43.0078 106.231V104.867L44.8082 103.727H46.2536ZM50.7733 111.099C50.3992 111.097 50.0382 111.034 49.6902 110.911C49.3445 110.788 49.0344 110.588 48.7598 110.311C48.4851 110.034 48.2673 109.667 48.1064 109.21C47.9477 108.753 47.8684 108.192 47.8684 107.527C47.8708 106.916 47.9406 106.371 48.0779 105.89C48.2176 105.407 48.4165 104.997 48.6745 104.661C48.935 104.325 49.2463 104.069 49.6085 103.894C49.9707 103.717 50.3767 103.628 50.8265 103.628C51.3118 103.628 51.7404 103.723 52.112 103.912C52.4837 104.099 52.782 104.353 53.0069 104.675C53.2342 104.997 53.3715 105.358 53.4189 105.759H51.9025C51.8433 105.505 51.719 105.306 51.5297 105.162C51.3403 105.018 51.1059 104.945 50.8265 104.945C50.353 104.945 49.9932 105.151 49.747 105.563C49.5031 105.975 49.3788 106.535 49.3741 107.243H49.4238C49.5327 107.027 49.6795 106.844 49.8642 106.692C50.0512 106.539 50.2631 106.421 50.4998 106.341C50.7389 106.258 50.9911 106.217 51.2562 106.217C51.6871 106.217 52.0706 106.318 52.4068 106.522C52.743 106.723 53.0081 107 53.2022 107.353C53.3964 107.706 53.4934 108.109 53.4934 108.564C53.4934 109.056 53.3786 109.494 53.149 109.878C52.9217 110.261 52.6033 110.562 52.1937 110.78C51.7865 110.995 51.313 111.102 50.7733 111.099ZM50.7662 109.892C51.0029 109.892 51.2148 109.835 51.4018 109.722C51.5888 109.608 51.7356 109.454 51.8422 109.26C51.9487 109.066 52.002 108.848 52.002 108.607C52.002 108.365 51.9487 108.148 51.8422 107.957C51.738 107.765 51.5936 107.612 51.4089 107.499C51.2243 107.385 51.0136 107.328 50.7768 107.328C50.5993 107.328 50.4347 107.361 50.2832 107.428C50.1341 107.494 50.0027 107.586 49.889 107.705C49.7778 107.823 49.6902 107.96 49.6262 108.116C49.5623 108.27 49.5304 108.435 49.5304 108.61C49.5304 108.844 49.5836 109.059 49.6902 109.253C49.7991 109.447 49.9458 109.602 50.1305 109.718C50.3175 109.834 50.5294 109.892 50.7662 109.892ZM54.5978 113.045V105.545H56.0893V106.462H56.1568C56.2231 106.315 56.319 106.166 56.4444 106.014C56.5723 105.86 56.738 105.732 56.9416 105.631C57.1475 105.527 57.4032 105.474 57.7086 105.474C58.1064 105.474 58.4733 105.579 58.8095 105.787C59.1457 105.993 59.4144 106.304 59.6156 106.721C59.8168 107.135 59.9174 107.655 59.9174 108.28C59.9174 108.888 59.8192 109.402 59.6227 109.821C59.4286 110.238 59.1634 110.554 58.8272 110.769C58.4934 110.982 58.1194 111.089 57.7051 111.089C57.4115 111.089 57.1618 111.04 56.9558 110.943C56.7522 110.846 56.5853 110.724 56.4551 110.577C56.3249 110.428 56.2254 110.278 56.1568 110.126H56.1106V113.045H54.5978ZM56.0787 108.273C56.0787 108.597 56.1236 108.88 56.2136 109.121C56.3036 109.363 56.4338 109.551 56.6042 109.686C56.7747 109.819 56.9818 109.885 57.2257 109.885C57.4719 109.885 57.6802 109.817 57.8507 109.683C58.0211 109.545 58.1502 109.356 58.2377 109.114C58.3277 108.871 58.3727 108.59 58.3727 108.273C58.3727 107.958 58.3289 107.681 58.2413 107.442C58.1537 107.203 58.0247 107.016 57.8542 106.881C57.6838 106.746 57.4743 106.678 57.2257 106.678C56.9795 106.678 56.7711 106.743 56.6007 106.874C56.4326 107.004 56.3036 107.188 56.2136 107.428C56.1236 107.667 56.0787 107.948 56.0787 108.273ZM61.9949 105.545L62.9963 107.452L64.0225 105.545H65.5744L63.9941 108.273L65.617 111H64.0723L62.9963 109.114L61.938 111H60.3755L61.9949 108.273L60.4324 105.545H61.9949Z" fill="white"/>
<line x1="47" y1="95" x2="47" y2="88" stroke="#F07D03"/>
<line x1="62" y1="95" x2="62" y2="88" stroke="#F07D03"/>
<path d="M235.5 91.5H251.5" stroke="#F07D03"/>
<rect x="225.5" y="98" width="36" height="18" rx="3" fill="#F07D03"/>
<path d="M235.254 103.727V111H233.716V105.187H233.673L232.008 106.231V104.867L233.808 103.727H235.254ZM239.773 111.099C239.399 111.097 239.038 111.034 238.69 110.911C238.345 110.788 238.034 110.588 237.76 110.311C237.485 110.034 237.267 109.667 237.106 109.21C236.948 108.753 236.868 108.192 236.868 107.527C236.871 106.916 236.941 106.371 237.078 105.89C237.218 105.407 237.416 104.997 237.675 104.661C237.935 104.325 238.246 104.069 238.608 103.894C238.971 103.717 239.377 103.628 239.827 103.628C240.312 103.628 240.74 103.723 241.112 103.912C241.484 104.099 241.782 104.353 242.007 104.675C242.234 104.997 242.372 105.358 242.419 105.759H240.903C240.843 105.505 240.719 105.306 240.53 105.162C240.34 105.018 240.106 104.945 239.827 104.945C239.353 104.945 238.993 105.151 238.747 105.563C238.503 105.975 238.379 106.535 238.374 107.243H238.424C238.533 107.027 238.68 106.844 238.864 106.692C239.051 106.539 239.263 106.421 239.5 106.341C239.739 106.258 239.991 106.217 240.256 106.217C240.687 106.217 241.071 106.318 241.407 106.522C241.743 106.723 242.008 107 242.202 107.353C242.396 107.706 242.493 108.109 242.493 108.564C242.493 109.056 242.379 109.494 242.149 109.878C241.922 110.261 241.603 110.562 241.194 110.78C240.787 110.995 240.313 111.102 239.773 111.099ZM239.766 109.892C240.003 109.892 240.215 109.835 240.402 109.722C240.589 109.608 240.736 109.454 240.842 109.26C240.949 109.066 241.002 108.848 241.002 108.607C241.002 108.365 240.949 108.148 240.842 107.957C240.738 107.765 240.594 107.612 240.409 107.499C240.224 107.385 240.014 107.328 239.777 107.328C239.599 107.328 239.435 107.361 239.283 107.428C239.134 107.494 239.003 107.586 238.889 107.705C238.778 107.823 238.69 107.96 238.626 108.116C238.562 108.27 238.53 108.435 238.53 108.61C238.53 108.844 238.584 109.059 238.69 109.253C238.799 109.447 238.946 109.602 239.131 109.718C239.318 109.834 239.529 109.892 239.766 109.892ZM243.598 113.045V105.545H245.089V106.462H245.157C245.223 106.315 245.319 106.166 245.444 106.014C245.572 105.86 245.738 105.732 245.942 105.631C246.148 105.527 246.403 105.474 246.709 105.474C247.106 105.474 247.473 105.579 247.809 105.787C248.146 105.993 248.414 106.304 248.616 106.721C248.817 107.135 248.917 107.655 248.917 108.28C248.917 108.888 248.819 109.402 248.623 109.821C248.429 110.238 248.163 110.554 247.827 110.769C247.493 110.982 247.119 111.089 246.705 111.089C246.412 111.089 246.162 111.04 245.956 110.943C245.752 110.846 245.585 110.724 245.455 110.577C245.325 110.428 245.225 110.278 245.157 110.126H245.111V113.045H243.598ZM245.079 108.273C245.079 108.597 245.124 108.88 245.214 109.121C245.304 109.363 245.434 109.551 245.604 109.686C245.775 109.819 245.982 109.885 246.226 109.885C246.472 109.885 246.68 109.817 246.851 109.683C247.021 109.545 247.15 109.356 247.238 109.114C247.328 108.871 247.373 108.59 247.373 108.273C247.373 107.958 247.329 107.681 247.241 107.442C247.154 107.203 247.025 107.016 246.854 106.881C246.684 106.746 246.474 106.678 246.226 106.678C245.979 106.678 245.771 106.743 245.601 106.874C245.433 107.004 245.304 107.188 245.214 107.428C245.124 107.667 245.079 107.948 245.079 108.273ZM250.995 105.545L251.996 107.452L253.023 105.545H254.574L252.994 108.273L254.617 111H253.072L251.996 109.114L250.938 111H249.376L250.995 108.273L249.432 105.545H250.995Z" fill="white"/>
<line x1="236" y1="95" x2="236" y2="88" stroke="#F07D03"/>
<line x1="251" y1="95" x2="251" y2="88" stroke="#F07D03"/>
<path d="M263.5 24.5H279.5" stroke="#F07D03"/>
<rect x="253.5" width="36" height="18" rx="3" fill="#F07D03"/>
<path d="M263.254 5.72727V13H261.716V7.18679H261.673L260.008 8.23082V6.86719L261.808 5.72727H263.254ZM267.773 13.0994C267.399 13.0971 267.038 13.0343 266.69 12.9112C266.345 12.7881 266.034 12.5881 265.76 12.3111C265.485 12.0341 265.267 11.6671 265.106 11.2102C264.948 10.7533 264.868 10.1922 264.868 9.52699C264.871 8.91619 264.941 8.3705 265.078 7.88991C265.218 7.40696 265.416 6.9974 265.675 6.66122C265.935 6.32505 266.246 6.06937 266.608 5.89418C266.971 5.71662 267.377 5.62784 267.827 5.62784C268.312 5.62784 268.74 5.72254 269.112 5.91193C269.484 6.09896 269.782 6.35346 270.007 6.67543C270.234 6.9974 270.372 7.35843 270.419 7.75852H268.903C268.843 7.50521 268.719 7.30634 268.53 7.16193C268.34 7.01752 268.106 6.94531 267.827 6.94531C267.353 6.94531 266.993 7.15128 266.747 7.56321C266.503 7.97514 266.379 8.53504 266.374 9.2429H266.424C266.533 9.02746 266.68 8.84399 266.864 8.69247C267.051 8.53859 267.263 8.4214 267.5 8.34091C267.739 8.25805 267.991 8.21662 268.256 8.21662C268.687 8.21662 269.071 8.31842 269.407 8.52202C269.743 8.72325 270.008 9.00024 270.202 9.35298C270.396 9.70573 270.493 10.1094 270.493 10.5639C270.493 11.0563 270.379 11.4943 270.149 11.8778C269.922 12.2614 269.603 12.562 269.194 12.7798C268.787 12.9953 268.313 13.1018 267.773 13.0994ZM267.766 11.892C268.003 11.892 268.215 11.8352 268.402 11.7216C268.589 11.608 268.736 11.4541 268.842 11.2599C268.949 11.0658 269.002 10.848 269.002 10.6065C269.002 10.3651 268.949 10.1484 268.842 9.95668C268.738 9.76491 268.594 9.61222 268.409 9.49858C268.224 9.38494 268.014 9.32812 267.777 9.32812C267.599 9.32812 267.435 9.36127 267.283 9.42756C267.134 9.49384 267.003 9.58617 266.889 9.70455C266.778 9.82292 266.69 9.96023 266.626 10.1165C266.562 10.2704 266.53 10.4349 266.53 10.6101C266.53 10.8445 266.584 11.0587 266.69 11.2528C266.799 11.447 266.946 11.602 267.131 11.718C267.318 11.834 267.529 11.892 267.766 11.892ZM271.598 15.0455V7.54545H273.089V8.46165H273.157C273.223 8.31487 273.319 8.16572 273.444 8.0142C273.572 7.86032 273.738 7.73248 273.942 7.63068C274.148 7.52652 274.403 7.47443 274.709 7.47443C275.106 7.47443 275.473 7.5786 275.809 7.78693C276.146 7.9929 276.414 8.30421 276.616 8.72088C276.817 9.13518 276.917 9.65483 276.917 10.2798C276.917 10.8883 276.819 11.402 276.623 11.821C276.429 12.2377 276.163 12.5537 275.827 12.7692C275.493 12.9822 275.119 13.0888 274.705 13.0888C274.412 13.0888 274.162 13.0402 273.956 12.9432C273.752 12.8461 273.585 12.7242 273.455 12.5774C273.325 12.4283 273.225 12.2779 273.157 12.1264H273.111V15.0455H271.598ZM273.079 10.2727C273.079 10.5971 273.124 10.88 273.214 11.1214C273.304 11.3629 273.434 11.5511 273.604 11.6861C273.775 11.8187 273.982 11.8849 274.226 11.8849C274.472 11.8849 274.68 11.8175 274.851 11.6825C275.021 11.5452 275.15 11.3558 275.238 11.1143C275.328 10.8705 275.373 10.59 275.373 10.2727C275.373 9.95786 275.329 9.68087 275.241 9.44176C275.154 9.20265 275.025 9.01562 274.854 8.88068C274.684 8.74574 274.474 8.67827 274.226 8.67827C273.979 8.67827 273.771 8.74337 273.601 8.87358C273.433 9.00379 273.304 9.18845 273.214 9.42756C273.124 9.66667 273.079 9.94839 273.079 10.2727ZM278.995 7.54545L279.996 9.45241L281.023 7.54545H282.574L280.994 10.2727L282.617 13H281.072L279.996 11.1143L278.938 13H277.376L278.995 10.2727L277.432 7.54545H278.995Z" fill="white"/>
<line x1="264" y1="28" x2="264" y2="21" stroke="#F07D03"/>
<line x1="279" y1="28" x2="279" y2="21" stroke="#F07D03"/>
<path d="M38.5 35V43" stroke="#F07D03"/>
<line x1="35" y1="35.5" x2="42" y2="35.5" stroke="#F07D03"/>
<line x1="35" y1="42.5" x2="42" y2="42.5" stroke="#F07D03"/>
<rect y="31" width="31" height="18" rx="3" fill="#F07D03"/>
<path d="M9.30256 44.0994C8.75568 44.0994 8.26918 44.0107 7.84304 43.8331C7.41927 43.6532 7.08665 43.4081 6.84517 43.098C6.60369 42.7879 6.48295 42.4363 6.48295 42.0433C6.48295 41.7403 6.55161 41.4621 6.68892 41.2088C6.8286 40.9531 7.01799 40.7412 7.2571 40.5732C7.49621 40.4027 7.76373 40.2938 8.05966 40.2464V40.1967C7.6714 40.1186 7.35653 39.9304 7.11506 39.6321C6.87358 39.3314 6.75284 38.9822 6.75284 38.5845C6.75284 38.2081 6.86293 37.8731 7.0831 37.5795C7.30327 37.2836 7.60511 37.0516 7.98864 36.8835C8.37453 36.7131 8.8125 36.6278 9.30256 36.6278C9.79261 36.6278 10.2294 36.7131 10.6129 36.8835C10.9988 37.054 11.3018 37.2872 11.522 37.5831C11.7422 37.8767 11.8535 38.2105 11.8558 38.5845C11.8535 38.9846 11.7304 39.3338 11.4865 39.6321C11.2427 39.9304 10.9302 40.1186 10.549 40.1967V40.2464C10.8402 40.2938 11.1042 40.4027 11.3409 40.5732C11.58 40.7412 11.7694 40.9531 11.9091 41.2088C12.0511 41.4621 12.1233 41.7403 12.1257 42.0433C12.1233 42.4363 12.0014 42.7879 11.7599 43.098C11.5185 43.4081 11.1847 43.6532 10.7585 43.8331C10.3348 44.0107 9.84943 44.0994 9.30256 44.0994ZM9.30256 42.9702C9.5464 42.9702 9.75947 42.9264 9.94176 42.8388C10.1241 42.7488 10.2661 42.6257 10.3679 42.4695C10.4721 42.3108 10.5241 42.1286 10.5241 41.9226C10.5241 41.7119 10.4709 41.526 10.3643 41.3651C10.2578 41.2017 10.1134 41.0739 9.93111 40.9815C9.74882 40.8868 9.5393 40.8395 9.30256 40.8395C9.06818 40.8395 8.85866 40.8868 8.67401 40.9815C8.48935 41.0739 8.34375 41.2017 8.23722 41.3651C8.13305 41.526 8.08097 41.7119 8.08097 41.9226C8.08097 42.1286 8.13187 42.3108 8.23366 42.4695C8.33546 42.6257 8.47869 42.7488 8.66335 42.8388C8.84801 42.9264 9.06108 42.9702 9.30256 42.9702ZM9.30256 39.7209C9.50616 39.7209 9.68726 39.6795 9.84588 39.5966C10.0045 39.5137 10.1288 39.3989 10.2188 39.2521C10.3087 39.1054 10.3537 38.9361 10.3537 38.7443C10.3537 38.5549 10.3087 38.3892 10.2188 38.2472C10.1288 38.1027 10.0057 37.9903 9.84943 37.9098C9.69318 37.8269 9.51089 37.7855 9.30256 37.7855C9.09659 37.7855 8.9143 37.8269 8.75568 37.9098C8.59706 37.9903 8.47277 38.1027 8.38281 38.2472C8.29522 38.3892 8.25142 38.5549 8.25142 38.7443C8.25142 38.9361 8.2964 39.1054 8.38636 39.2521C8.47633 39.3989 8.60062 39.5137 8.75923 39.5966C8.91785 39.6795 9.09896 39.7209 9.30256 39.7209ZM13.215 46.0455V38.5455H14.7065V39.4616H14.774C14.8403 39.3149 14.9361 39.1657 15.0616 39.0142C15.1895 38.8603 15.3552 38.7325 15.5588 38.6307C15.7647 38.5265 16.0204 38.4744 16.3258 38.4744C16.7235 38.4744 17.0905 38.5786 17.4267 38.7869C17.7628 38.9929 18.0315 39.3042 18.2328 39.7209C18.434 40.1352 18.5346 40.6548 18.5346 41.2798C18.5346 41.8883 18.4364 42.402 18.2399 42.821C18.0458 43.2377 17.7806 43.5537 17.4444 43.7692C17.1106 43.9822 16.7366 44.0888 16.3223 44.0888C16.0287 44.0888 15.7789 44.0402 15.573 43.9432C15.3694 43.8461 15.2025 43.7242 15.0723 43.5774C14.9421 43.4283 14.8426 43.2779 14.774 43.1264H14.7278V46.0455H13.215ZM14.6958 41.2727C14.6958 41.5971 14.7408 41.88 14.8308 42.1214C14.9208 42.3629 15.051 42.5511 15.2214 42.6861C15.3919 42.8187 15.599 42.8849 15.8429 42.8849C16.0891 42.8849 16.2974 42.8175 16.4679 42.6825C16.6383 42.5452 16.7673 42.3558 16.8549 42.1143C16.9449 41.8705 16.9899 41.59 16.9899 41.2727C16.9899 40.9579 16.9461 40.6809 16.8585 40.4418C16.7709 40.2027 16.6419 40.0156 16.4714 39.8807C16.301 39.7457 16.0914 39.6783 15.8429 39.6783C15.5967 39.6783 15.3883 39.7434 15.2179 39.8736C15.0498 40.0038 14.9208 40.1884 14.8308 40.4276C14.7408 40.6667 14.6958 40.9484 14.6958 41.2727ZM20.612 38.5455L21.6135 40.4524L22.6397 38.5455H24.1916L22.6113 41.2727L24.2342 44H22.6895L21.6135 42.1143L20.5552 44H18.9927L20.612 41.2727L19.0495 38.5455H20.612Z" fill="white"/>
<path d="M38.5 74V82" stroke="#F07D03"/>
<rect y="69" width="31" height="18" rx="3" fill="#F07D03"/>
<path d="M9.30256 82.0994C8.75568 82.0994 8.26918 82.0107 7.84304 81.8331C7.41927 81.6532 7.08665 81.4081 6.84517 81.098C6.60369 80.7879 6.48295 80.4363 6.48295 80.0433C6.48295 79.7403 6.55161 79.4621 6.68892 79.2088C6.8286 78.9531 7.01799 78.7412 7.2571 78.5732C7.49621 78.4027 7.76373 78.2938 8.05966 78.2464V78.1967C7.6714 78.1186 7.35653 77.9304 7.11506 77.6321C6.87358 77.3314 6.75284 76.9822 6.75284 76.5845C6.75284 76.2081 6.86293 75.8731 7.0831 75.5795C7.30327 75.2836 7.60511 75.0516 7.98864 74.8835C8.37453 74.7131 8.8125 74.6278 9.30256 74.6278C9.79261 74.6278 10.2294 74.7131 10.6129 74.8835C10.9988 75.054 11.3018 75.2872 11.522 75.5831C11.7422 75.8767 11.8535 76.2105 11.8558 76.5845C11.8535 76.9846 11.7304 77.3338 11.4865 77.6321C11.2427 77.9304 10.9302 78.1186 10.549 78.1967V78.2464C10.8402 78.2938 11.1042 78.4027 11.3409 78.5732C11.58 78.7412 11.7694 78.9531 11.9091 79.2088C12.0511 79.4621 12.1233 79.7403 12.1257 80.0433C12.1233 80.4363 12.0014 80.7879 11.7599 81.098C11.5185 81.4081 11.1847 81.6532 10.7585 81.8331C10.3348 82.0107 9.84943 82.0994 9.30256 82.0994ZM9.30256 80.9702C9.5464 80.9702 9.75947 80.9264 9.94176 80.8388C10.1241 80.7488 10.2661 80.6257 10.3679 80.4695C10.4721 80.3108 10.5241 80.1286 10.5241 79.9226C10.5241 79.7119 10.4709 79.526 10.3643 79.3651C10.2578 79.2017 10.1134 79.0739 9.93111 78.9815C9.74882 78.8868 9.5393 78.8395 9.30256 78.8395C9.06818 78.8395 8.85866 78.8868 8.67401 78.9815C8.48935 79.0739 8.34375 79.2017 8.23722 79.3651C8.13305 79.526 8.08097 79.7119 8.08097 79.9226C8.08097 80.1286 8.13187 80.3108 8.23366 80.4695C8.33546 80.6257 8.47869 80.7488 8.66335 80.8388C8.84801 80.9264 9.06108 80.9702 9.30256 80.9702ZM9.30256 77.7209C9.50616 77.7209 9.68726 77.6795 9.84588 77.5966C10.0045 77.5137 10.1288 77.3989 10.2188 77.2521C10.3087 77.1054 10.3537 76.9361 10.3537 76.7443C10.3537 76.5549 10.3087 76.3892 10.2188 76.2472C10.1288 76.1027 10.0057 75.9903 9.84943 75.9098C9.69318 75.8269 9.51089 75.7855 9.30256 75.7855C9.09659 75.7855 8.9143 75.8269 8.75568 75.9098C8.59706 75.9903 8.47277 76.1027 8.38281 76.2472C8.29522 76.3892 8.25142 76.5549 8.25142 76.7443C8.25142 76.9361 8.2964 77.1054 8.38636 77.2521C8.47633 77.3989 8.60062 77.5137 8.75923 77.5966C8.91785 77.6795 9.09896 77.7209 9.30256 77.7209ZM13.215 84.0455V76.5455H14.7065V77.4616H14.774C14.8403 77.3149 14.9361 77.1657 15.0616 77.0142C15.1895 76.8603 15.3552 76.7325 15.5588 76.6307C15.7647 76.5265 16.0204 76.4744 16.3258 76.4744C16.7235 76.4744 17.0905 76.5786 17.4267 76.7869C17.7628 76.9929 18.0315 77.3042 18.2328 77.7209C18.434 78.1352 18.5346 78.6548 18.5346 79.2798C18.5346 79.8883 18.4364 80.402 18.2399 80.821C18.0458 81.2377 17.7806 81.5537 17.4444 81.7692C17.1106 81.9822 16.7366 82.0888 16.3223 82.0888C16.0287 82.0888 15.7789 82.0402 15.573 81.9432C15.3694 81.8461 15.2025 81.7242 15.0723 81.5774C14.9421 81.4283 14.8426 81.2779 14.774 81.1264H14.7278V84.0455H13.215ZM14.6958 79.2727C14.6958 79.5971 14.7408 79.88 14.8308 80.1214C14.9208 80.3629 15.051 80.5511 15.2214 80.6861C15.3919 80.8187 15.599 80.8849 15.8429 80.8849C16.0891 80.8849 16.2974 80.8175 16.4679 80.6825C16.6383 80.5452 16.7673 80.3558 16.8549 80.1143C16.9449 79.8705 16.9899 79.59 16.9899 79.2727C16.9899 78.9579 16.9461 78.6809 16.8585 78.4418C16.7709 78.2027 16.6419 78.0156 16.4714 77.8807C16.301 77.7457 16.0914 77.6783 15.8429 77.6783C15.5967 77.6783 15.3883 77.7434 15.2179 77.8736C15.0498 78.0038 14.9208 78.1884 14.8308 78.4276C14.7408 78.6667 14.6958 78.9484 14.6958 79.2727ZM20.612 76.5455L21.6135 78.4524L22.6397 76.5455H24.1916L22.6113 79.2727L24.2342 82H22.6895L21.6135 80.1143L20.5552 82H18.9927L20.612 79.2727L19.0495 76.5455H20.612Z" fill="white"/>
<line x1="35" y1="74.5" x2="42" y2="74.5" stroke="#F07D03"/>
<line x1="35" y1="81.5" x2="42" y2="81.5" stroke="#F07D03"/>
<path d="M508 90.5H524" stroke="#F07D03"/>
<rect x="499" y="97" width="36" height="18" rx="3" fill="#F07D03"/>
<path d="M508.754 102.727V110H507.216V104.187H507.173L505.508 105.231V103.867L507.308 102.727H508.754ZM513.273 110.099C512.899 110.097 512.538 110.034 512.19 109.911C511.845 109.788 511.534 109.588 511.26 109.311C510.985 109.034 510.767 108.667 510.606 108.21C510.448 107.753 510.368 107.192 510.368 106.527C510.371 105.916 510.441 105.371 510.578 104.89C510.718 104.407 510.916 103.997 511.175 103.661C511.435 103.325 511.746 103.069 512.108 102.894C512.471 102.717 512.877 102.628 513.327 102.628C513.812 102.628 514.24 102.723 514.612 102.912C514.984 103.099 515.282 103.353 515.507 103.675C515.734 103.997 515.872 104.358 515.919 104.759H514.403C514.343 104.505 514.219 104.306 514.03 104.162C513.84 104.018 513.606 103.945 513.327 103.945C512.853 103.945 512.493 104.151 512.247 104.563C512.003 104.975 511.879 105.535 511.874 106.243H511.924C512.033 106.027 512.18 105.844 512.364 105.692C512.551 105.539 512.763 105.421 513 105.341C513.239 105.258 513.491 105.217 513.756 105.217C514.187 105.217 514.571 105.318 514.907 105.522C515.243 105.723 515.508 106 515.702 106.353C515.896 106.706 515.993 107.109 515.993 107.564C515.993 108.056 515.879 108.494 515.649 108.878C515.422 109.261 515.103 109.562 514.694 109.78C514.287 109.995 513.813 110.102 513.273 110.099ZM513.266 108.892C513.503 108.892 513.715 108.835 513.902 108.722C514.089 108.608 514.236 108.454 514.342 108.26C514.449 108.066 514.502 107.848 514.502 107.607C514.502 107.365 514.449 107.148 514.342 106.957C514.238 106.765 514.094 106.612 513.909 106.499C513.724 106.385 513.514 106.328 513.277 106.328C513.099 106.328 512.935 106.361 512.783 106.428C512.634 106.494 512.503 106.586 512.389 106.705C512.278 106.823 512.19 106.96 512.126 107.116C512.062 107.27 512.03 107.435 512.03 107.61C512.03 107.844 512.084 108.059 512.19 108.253C512.299 108.447 512.446 108.602 512.631 108.718C512.818 108.834 513.029 108.892 513.266 108.892ZM517.098 112.045V104.545H518.589V105.462H518.657C518.723 105.315 518.819 105.166 518.944 105.014C519.072 104.86 519.238 104.732 519.442 104.631C519.648 104.527 519.903 104.474 520.209 104.474C520.606 104.474 520.973 104.579 521.309 104.787C521.646 104.993 521.914 105.304 522.116 105.721C522.317 106.135 522.417 106.655 522.417 107.28C522.417 107.888 522.319 108.402 522.123 108.821C521.929 109.238 521.663 109.554 521.327 109.769C520.993 109.982 520.619 110.089 520.205 110.089C519.912 110.089 519.662 110.04 519.456 109.943C519.252 109.846 519.085 109.724 518.955 109.577C518.825 109.428 518.725 109.278 518.657 109.126H518.611V112.045H517.098ZM518.579 107.273C518.579 107.597 518.624 107.88 518.714 108.121C518.804 108.363 518.934 108.551 519.104 108.686C519.275 108.819 519.482 108.885 519.726 108.885C519.972 108.885 520.18 108.817 520.351 108.683C520.521 108.545 520.65 108.356 520.738 108.114C520.828 107.871 520.873 107.59 520.873 107.273C520.873 106.958 520.829 106.681 520.741 106.442C520.654 106.203 520.525 106.016 520.354 105.881C520.184 105.746 519.974 105.678 519.726 105.678C519.479 105.678 519.271 105.743 519.101 105.874C518.933 106.004 518.804 106.188 518.714 106.428C518.624 106.667 518.579 106.948 518.579 107.273ZM524.495 104.545L525.496 106.452L526.523 104.545H528.074L526.494 107.273L528.117 110H526.572L525.496 108.114L524.438 110H522.876L524.495 107.273L522.932 104.545H524.495Z" fill="white"/>
<line x1="508.5" y1="94" x2="508.5" y2="87" stroke="#F07D03"/>
<line x1="523.5" y1="94" x2="523.5" y2="87" stroke="#F07D03"/>
</svg>
