<svg width="425" height="258" viewBox="0 0 425 258" fill="none" xmlns="http://www.w3.org/2000/svg">
<g filter="url(#filter0_d_7147_3671)">
<rect x="32" y="41" width="355" height="176" rx="8" fill="white"/>
<rect x="32" y="41" width="6" height="176" fill="#0A8217"/>
<path d="M66 80.875C63.9114 80.875 61.9084 80.0453 60.4315 78.5685C58.9547 77.0916 58.125 75.0886 58.125 73C58.125 70.9114 58.9547 68.9084 60.4315 67.4315C61.9084 65.9547 63.9114 65.125 66 65.125C68.0886 65.125 70.0916 65.9547 71.5685 67.4315C73.0453 68.9084 73.875 70.9114 73.875 73C73.875 75.0886 73.0453 77.0916 71.5685 78.5685C70.0916 80.0453 68.0886 80.875 66 80.875ZM66 82C68.3869 82 70.6761 81.0518 72.364 79.364C74.0518 77.6761 75 75.3869 75 73C75 70.6131 74.0518 68.3239 72.364 66.636C70.6761 64.9482 68.3869 64 66 64C63.6131 64 61.3239 64.9482 59.636 66.636C57.9482 68.3239 57 70.6131 57 73C57 75.3869 57.9482 77.6761 59.636 79.364C61.3239 81.0518 63.6131 82 66 82Z" fill="#0A8217"/>
<path d="M69.3412 69.5913C69.3332 69.599 69.3257 69.6073 69.3187 69.616L65.4116 74.5941L63.057 72.2384C62.897 72.0893 62.6855 72.0082 62.4669 72.0121C62.2483 72.0159 62.0398 72.1045 61.8852 72.2591C61.7306 72.4137 61.642 72.6222 61.6382 72.8408C61.6343 73.0594 61.7154 73.2709 61.8645 73.4309L64.8412 76.4088C64.9214 76.4888 65.0169 76.5519 65.122 76.5942C65.2271 76.6366 65.3397 76.6573 65.453 76.6552C65.5662 76.6531 65.6779 76.6282 65.7814 76.582C65.8849 76.5358 65.9779 76.4692 66.0551 76.3863L70.5461 70.7725C70.699 70.612 70.7826 70.3978 70.7789 70.1761C70.7751 69.9545 70.6842 69.7432 70.5259 69.588C70.3676 69.4328 70.1546 69.3461 69.9329 69.3467C69.7112 69.3474 69.4987 69.4352 69.3412 69.5913Z" fill="#0A8217"/>
<path d="M88.2031 74.8203C88.0208 74.0078 87.9297 73.2448 87.9297 72.5312C87.9297 69.9271 89.3359 68.625 92.1484 68.625C94.9609 68.625 96.3672 69.9271 96.3672 72.5312V78H94.4141V72.5312C94.4141 70.9688 93.6589 70.1875 92.1484 70.1875C90.638 70.1875 89.8828 70.9688 89.8828 72.5312C89.8828 73.7969 90.1432 75.1797 90.6641 76.6797C90.6641 76.9974 90.5365 77.2969 90.2812 77.5781C90.0312 77.8594 89.5859 78 88.9453 78C88.2943 78 87.8281 77.8177 87.5469 77.4531C87.2708 77.0833 86.9896 76.3464 86.7031 75.2422L88.2031 74.8203ZM96.3672 66.2812V67.8438H87.9297V66.2812H96.3672ZM96.375 66.2812H98.25C100.906 66.2812 102.234 67.3229 102.234 69.4062V78H100.281V69.4062C100.281 68.3646 99.6042 67.8438 98.25 67.8438H96.375V66.2812ZM107.703 76.6641C107.865 76.6641 107.969 76.6302 108.016 76.5625C108.068 76.4896 108.094 76.3776 108.094 76.2266C108.094 76.0703 108.068 75.9583 108.016 75.8906C107.969 75.8229 107.865 75.7839 107.703 75.7734V76.6641ZM106.141 68.7109L108.43 66.0703L110.359 67.6797L112.289 66.0703L114.578 68.7109V78H112.625V69.2422L112.07 68.5469L110.359 69.7734L108.648 68.5469L108.094 69.2422V74.4375C108.49 74.4688 108.784 74.625 108.977 74.9062C109.169 75.1823 109.266 75.6276 109.266 76.2422C109.266 76.7526 109.13 77.1745 108.859 77.5078C108.589 77.8359 108.203 78 107.703 78C107.203 78 106.818 77.849 106.547 77.5469C106.276 77.2396 106.141 76.8047 106.141 76.2422V68.7109ZM120.359 75.8906C120.312 75.8229 120.208 75.7839 120.047 75.7734V76.6641C120.208 76.6641 120.312 76.6302 120.359 76.5625C120.411 76.4896 120.438 76.3776 120.438 76.2266C120.438 76.0703 120.411 75.9583 120.359 75.8906ZM120.438 74.4375C120.833 74.4688 121.128 74.625 121.32 74.9062C121.513 75.1823 121.609 75.6276 121.609 76.2422C121.609 76.8568 121.474 77.3047 121.203 77.5859C120.932 77.862 120.547 78 120.047 78C119.547 78 119.161 77.862 118.891 77.5859C118.62 77.3047 118.484 76.8568 118.484 76.2422V69.4062C118.484 68.9792 118.224 68.5573 117.703 68.1406V67.4531C117.703 66.6719 118.198 66.2812 119.188 66.2812H120.828V67.8438H119.5V67.9375C120.125 68.3542 120.438 68.8438 120.438 69.4062V74.4375ZM124.344 69.4062C124.344 68.9896 124.214 68.5729 123.953 68.1562V67.8438C123.953 66.8021 124.578 66.2812 125.828 66.2812H128.344L130.141 67.0625H130.594C130.75 67.0625 130.828 67.0104 130.828 66.9062V65.1094H132.781V66.9062C132.781 68.0521 132.234 68.625 131.141 68.625H129.562L127.766 67.8438H126.375C126.062 67.8438 125.906 67.8958 125.906 68C126.167 68.4167 126.297 68.8854 126.297 69.4062V75.6094L128.562 73.6875L130.828 75.6094V69.4062H132.781V78H131.094L128.562 75.8281L126.031 78H124.344V69.4062ZM132.781 66.2812H134.656C137.312 66.2812 138.641 67.3229 138.641 69.4062V78H136.688V69.4062C136.688 68.3646 136.01 67.8438 134.656 67.8438H132.781V66.2812ZM150.984 66.2812V67.8438H142.547V66.2812H150.984ZM144.492 74.875C145.018 74.3542 145.542 74.0938 146.062 74.0938H147.078V75.7344H146.062C145.391 75.7344 144.87 76.1042 144.5 76.8438V78H142.547V72.5312C142.547 69.9271 143.953 68.625 146.766 68.625C149.578 68.625 150.984 69.9271 150.984 72.5312V78H149.031V72.5312C149.031 70.9688 148.276 70.1875 146.766 70.1875C145.255 70.1875 144.5 70.9688 144.5 72.5312L144.492 74.875ZM154.891 69.4062C154.891 68.9896 154.76 68.5729 154.5 68.1562V67.8438C154.5 66.8021 155.125 66.2812 156.375 66.2812H158.891L160.688 67.0625H161.141C161.297 67.0625 161.375 67.0104 161.375 66.9062V65.1094H163.328V66.9062C163.328 68.0521 162.781 68.625 161.688 68.625H160.109L158.312 67.8438H156.922C156.609 67.8438 156.453 67.8958 156.453 68C156.714 68.4167 156.844 68.8854 156.844 69.4062V75.6094L159.109 73.6875L161.375 75.6094V69.4062H163.328V78H161.641L159.109 75.8281L156.578 78H154.891V69.4062ZM160.594 62.1016C160.594 62.2839 160.919 62.375 161.57 62.375C162.482 62.375 162.938 61.8542 162.938 60.8125V59.7969H164.5V60.8125C164.5 62.8958 163.523 63.9375 161.57 63.9375C159.878 63.9375 159.031 63.3776 159.031 62.2578C159.031 61.2943 159.495 60.8125 160.422 60.8125C160.802 60.8125 161.12 60.888 161.375 61.0391L161.141 61.9766C161.031 61.8672 160.914 61.8125 160.789 61.8125C160.659 61.8125 160.594 61.9089 160.594 62.1016ZM168.797 67.8906C168.927 67.8906 169.013 67.862 169.055 67.8047C169.091 67.763 169.109 67.7083 169.109 67.6406C169.109 67.5729 169.089 67.513 169.047 67.4609C169.005 67.4036 168.922 67.375 168.797 67.375V67.8906ZM169.188 74.0938C169.188 75.6562 169.812 76.4375 171.062 76.4375C172.495 76.4375 173.211 75.6562 173.211 74.0938V69.4062C173.211 68.9792 172.951 68.5573 172.43 68.1406V67.4531C172.43 66.6719 172.924 66.2812 173.914 66.2812H175.555V67.8438H174.227V67.9375C174.852 68.3542 175.164 68.8438 175.164 69.4062V74.0938C175.164 75.6562 175.88 76.4375 177.312 76.4375C178.562 76.4375 179.188 75.6562 179.188 74.0938V69.4062C179.188 68.9792 178.927 68.5573 178.406 68.1406V67.4531C178.406 66.6719 178.901 66.2812 179.891 66.2812H181.531V67.8438H180.203V67.9375C180.828 68.3542 181.141 68.8438 181.141 69.4062V74.0938C181.141 76.6979 179.865 78 177.312 78C175.562 78 174.521 77.6328 174.188 76.8984C173.854 77.6328 172.812 78 171.062 78C168.51 78 167.234 76.6979 167.234 74.0938V67.6484C167.234 67.2995 167.346 66.9844 167.57 66.7031C167.794 66.4219 168.203 66.2812 168.797 66.2812C169.443 66.2812 169.878 66.4219 170.102 66.7031C170.326 66.9844 170.438 67.2995 170.438 67.6484C170.438 67.9974 170.344 68.2865 170.156 68.5156C169.927 68.8177 169.604 68.9766 169.188 68.9922V74.0938Z" fill="#0A8217"/>
<path fill-rule="evenodd" clip-rule="evenodd" d="M352.614 66.6139C352.755 66.4732 352.945 66.3942 353.144 66.3942C353.343 66.3942 353.534 66.4732 353.675 66.6139L358.978 71.9172L364.281 66.6139C364.422 66.4732 364.613 66.3942 364.812 66.3942C365.01 66.3942 365.201 66.4732 365.342 66.6139C365.483 66.7545 365.562 66.9453 365.562 67.1442C365.562 67.3431 365.483 67.5339 365.342 67.6745L360.039 72.9778L365.342 78.2811C365.483 78.4218 365.562 78.6126 365.562 78.8115C365.562 79.0104 365.483 79.2012 365.342 79.3418C365.201 79.4825 365.01 79.5615 364.812 79.5615C364.613 79.5615 364.422 79.4825 364.281 79.3418L358.978 74.0385L353.675 79.3418C353.534 79.4825 353.343 79.5615 353.144 79.5615C352.945 79.5615 352.755 79.4825 352.614 79.3418C352.473 79.2012 352.394 79.0104 352.394 78.8115C352.394 78.6126 352.473 78.4218 352.614 78.2811L357.917 72.9778L352.614 67.6745C352.473 67.5339 352.394 67.3431 352.394 67.1442C352.394 66.9453 352.473 66.7545 352.614 66.6139Z" fill="#344054"/>
<path d="M57.4766 116.828C57.5339 116.828 57.5807 116.805 57.6172 116.758C57.6536 116.706 57.6719 116.534 57.6719 116.242C57.6719 115.951 57.6536 115.781 57.6172 115.734C57.5807 115.682 57.5339 115.656 57.4766 115.656H57.2812V116.828H57.4766ZM57.2812 114.5C57.3438 114.49 57.4089 114.484 57.4766 114.484C57.7786 114.484 58.0156 114.612 58.1875 114.867C58.3646 115.117 58.4531 115.576 58.4531 116.242C58.4531 116.909 58.3646 117.37 58.1875 117.625C58.0156 117.875 57.6875 118 57.2031 118C56.7188 118 56.388 117.875 56.2109 117.625C56.0391 117.37 55.9531 116.909 55.9531 116.242V109.406C55.849 109.042 55.5885 108.651 55.1719 108.234V107.453C55.1719 106.672 55.5625 106.281 56.3438 106.281H57.6719V107.453H56.7344C56.474 107.453 56.3438 107.583 56.3438 107.844C56.9688 108.26 57.2812 108.781 57.2812 109.406V114.5ZM69 113.234V114.875C69 116.958 68.2708 118 66.8125 118C65.7396 118 64.9453 117.674 64.4297 117.023C63.9141 116.372 63.276 116.047 62.5156 116.047V118H61.1875V113.312H62.5156V114.875C63.4271 114.875 64.1667 115.201 64.7344 115.852C65.3073 116.503 65.888 116.828 66.4766 116.828C67.2734 116.828 67.6719 116.177 67.6719 114.875V114.094C63.349 113.156 61.1875 111.594 61.1875 109.406C61.1875 107.323 62.4896 106.281 65.0938 106.281C67.6979 106.281 69 107.323 69 109.406C69 110.859 68.276 111.586 66.8281 111.586C66.5 111.586 66.2344 111.51 66.0312 111.359V110.188C66.401 110.297 66.7031 110.352 66.9375 110.352C67.4271 110.352 67.6719 110.036 67.6719 109.406C67.6719 108.104 66.8125 107.453 65.0938 107.453C63.375 107.453 62.5156 108.104 62.5156 109.406C62.5156 110.969 64.6771 112.245 69 113.234ZM74.0781 108.43C74.0781 108.622 74.1276 108.768 74.2266 108.867C74.3255 108.966 74.4714 109.016 74.6641 109.016C74.862 109.016 75.0078 108.966 75.1016 108.867C75.2005 108.768 75.25 108.622 75.25 108.43C75.25 108.232 75.2005 108.086 75.1016 107.992C75.0078 107.893 74.862 107.844 74.6641 107.844C74.4714 107.844 74.3255 107.893 74.2266 107.992C74.1276 108.086 74.0781 108.232 74.0781 108.43ZM76.4219 108.43C76.4219 109.018 76.276 109.458 75.9844 109.75C75.6927 110.042 75.2526 110.188 74.6641 110.188C74.0755 110.188 73.6354 110.042 73.3438 109.75C73.0521 109.458 72.9062 109.018 72.9062 108.43C72.9062 107.841 73.0521 107.401 73.3438 107.109C73.6354 106.818 74.0755 106.672 74.6641 106.672C75.2526 106.672 75.6927 106.818 75.9844 107.109C76.276 107.401 76.4219 107.841 76.4219 108.43ZM74.0781 115.852C74.0781 116.044 74.1276 116.19 74.2266 116.289C74.3255 116.388 74.4714 116.438 74.6641 116.438C74.862 116.438 75.0078 116.388 75.1016 116.289C75.2005 116.19 75.25 116.044 75.25 115.852C75.25 115.654 75.2005 115.508 75.1016 115.414C75.0078 115.315 74.862 115.266 74.6641 115.266C74.4714 115.266 74.3255 115.315 74.2266 115.414C74.1276 115.508 74.0781 115.654 74.0781 115.852ZM76.4219 115.852C76.4219 116.44 76.276 116.88 75.9844 117.172C75.6927 117.464 75.2526 117.609 74.6641 117.609C74.0755 117.609 73.6354 117.464 73.3438 117.172C73.0521 116.88 72.9062 116.44 72.9062 115.852C72.9062 115.263 73.0521 114.823 73.3438 114.531C73.6354 114.24 74.0755 114.094 74.6641 114.094C75.2526 114.094 75.6927 114.24 75.9844 114.531C76.276 114.823 76.4219 115.263 76.4219 115.852ZM80.3281 109.406C80.3281 109.042 80.1979 108.651 79.9375 108.234V107.844C79.9375 106.802 80.4583 106.281 81.5 106.281H83.8438L85.6406 107.453H86.2656C86.6302 107.453 86.8125 107.271 86.8125 106.906V105.109H88.1406V106.906C88.1406 108.052 87.6979 108.625 86.8125 108.625H85.4062L83.6094 107.453H82.0469C81.526 107.453 81.2656 107.609 81.2656 107.922C81.526 108.339 81.6562 108.833 81.6562 109.406V116.438L84.2344 114.25L86.8125 116.438V109.406H88.1406V118H86.9688L84.2344 115.656L81.5 118H80.3281V109.406ZM88.1406 106.281H89.7031C91.7865 106.281 92.8281 107.323 92.8281 109.406V118H91.5V109.406C91.5 108.104 90.901 107.453 89.7031 107.453H88.1406V106.281ZM97.9062 115.656V116.828C98.0156 116.828 98.1068 116.799 98.1797 116.742C98.2578 116.68 98.2969 116.513 98.2969 116.242C98.2969 115.971 98.2578 115.807 98.1797 115.75C98.1068 115.688 98.0156 115.656 97.9062 115.656ZM110.016 109.406V114.094C110.016 116.698 108.844 118 106.5 118C103.974 118 102.711 116.698 102.711 114.094V112.531C102.711 110.708 101.938 109.797 100.391 109.797C98.8385 109.797 98.0625 110.708 98.0625 112.531V114.562C98.1823 114.51 98.3203 114.484 98.4766 114.484C98.6328 114.484 98.7969 114.625 98.9688 114.906C99.1458 115.182 99.2344 115.628 99.2344 116.242C99.2344 116.857 99.1198 117.305 98.8906 117.586C98.6667 117.862 98.3646 118 97.9844 118C97.6042 118 97.3021 117.859 97.0781 117.578C96.901 117.365 96.7917 117.049 96.75 116.633H96.7344V112.531C96.7344 110.906 97.2083 109.789 98.1562 109.18C97.9219 108.789 97.5781 108.474 97.125 108.234V107.453C97.125 106.672 97.5156 106.281 98.2969 106.281H102.594V107.453H98.8438C98.5833 107.453 98.4531 107.583 98.4531 107.844C98.8594 108.062 99.1797 108.349 99.4141 108.703C99.7161 108.651 100.042 108.625 100.391 108.625C102.823 108.625 104.039 109.927 104.039 112.531V114.094C104.039 115.917 104.859 116.828 106.5 116.828C107.958 116.828 108.688 115.917 108.688 114.094V109.406C108.688 109.042 108.427 108.651 107.906 108.234V107.453C107.906 106.672 108.297 106.281 109.078 106.281H110.406V107.453H109.469C109.208 107.453 109.078 107.583 109.078 107.844C109.703 108.26 110.016 108.781 110.016 109.406ZM110.016 106.281H111.578C113.661 106.281 114.703 107.323 114.703 109.406V118H113.375V109.406C113.375 108.104 112.776 107.453 111.578 107.453H110.016V106.281ZM118.609 116.828V115.656H118.414C118.357 115.656 118.31 115.682 118.273 115.734C118.237 115.781 118.219 115.951 118.219 116.242C118.219 116.534 118.237 116.706 118.273 116.758C118.31 116.805 118.357 116.828 118.414 116.828H118.609ZM119.938 109.406V116.242C119.938 116.909 119.849 117.37 119.672 117.625C119.5 117.875 119.172 118 118.688 118C118.203 118 117.872 117.875 117.695 117.625C117.523 117.37 117.438 116.909 117.438 116.242C117.438 115.576 117.523 115.117 117.695 114.867C117.872 114.612 118.112 114.484 118.414 114.484C118.482 114.484 118.547 114.49 118.609 114.5V109.406C118.505 109.042 118.245 108.651 117.828 108.234V107.453C117.828 106.672 118.219 106.281 119 106.281H120.328V107.453H119.391C119.13 107.453 119 107.583 119 107.844C119.625 108.26 119.938 108.781 119.938 109.406ZM130.328 109.406C130.328 109.042 130.068 108.651 129.547 108.234V107.453C129.547 106.672 129.938 106.281 130.719 106.281H132.047V107.453H131.109C130.849 107.453 130.719 107.583 130.719 107.844C131.344 108.26 131.656 108.781 131.656 109.406V114.094C131.656 116.698 130.354 118 127.75 118C125.146 118 123.844 116.698 123.844 114.094V109.406C123.844 109.042 123.583 108.651 123.062 108.234V107.453C123.062 106.672 123.453 106.281 124.234 106.281H125.562V107.453H124.625C124.365 107.453 124.234 107.583 124.234 107.844C124.859 108.26 125.172 108.781 125.172 109.406V114.094C125.172 115.917 126.031 116.828 127.75 116.828C129.469 116.828 130.328 115.917 130.328 114.094V109.406ZM136.734 115.656V116.828C136.844 116.828 136.935 116.799 137.008 116.742C137.086 116.68 137.125 116.513 137.125 116.242C137.125 115.971 137.086 115.807 137.008 115.75C136.935 115.688 136.844 115.656 136.734 115.656ZM142.828 107.57L145.211 106.281H145.719C147.802 106.281 148.844 107.323 148.844 109.406V118H147.516V109.406C147.516 108.104 146.917 107.453 145.719 107.453H145.406L143.609 108.312L142.828 107.57ZM135.562 108.625L137.594 106.281L139.469 107.844L141.344 106.281L143.375 108.625V118H142.047V108.938L141.266 107.961L139.469 109.25L137.672 107.961L136.891 108.938V114.562C137.01 114.51 137.148 114.484 137.305 114.484C137.461 114.484 137.625 114.625 137.797 114.906C137.974 115.182 138.062 115.628 138.062 116.242C138.062 116.857 137.948 117.305 137.719 117.586C137.495 117.862 137.193 118 136.812 118C136.432 118 136.13 117.859 135.906 117.578C135.729 117.365 135.62 117.049 135.578 116.633H135.562V108.625ZM147.281 119.859C147.281 119.661 147.242 119.562 147.164 119.562C147.086 119.562 147.021 119.581 146.969 119.617C146.917 119.659 146.891 119.734 146.891 119.844C146.891 119.953 146.924 120.021 146.992 120.047C147.055 120.078 147.151 120.099 147.281 120.109V119.859ZM142.203 120.812C143.245 120.24 143.766 119.562 143.766 118.781H144.938C144.938 119.562 144.417 120.344 143.375 121.125C143.375 121.646 143.544 121.906 143.883 121.906C144.221 121.906 144.625 121.594 145.094 120.969H145.562C146.031 121.594 146.435 121.906 146.773 121.906C147.076 121.906 147.242 121.594 147.273 120.969C146.94 120.943 146.664 120.818 146.445 120.594C146.221 120.375 146.109 120.115 146.109 119.812C146.109 119.464 146.201 119.203 146.383 119.031C146.565 118.865 146.865 118.781 147.281 118.781C148.062 118.781 148.453 119.133 148.453 119.836V120.109C148.74 120.109 149.052 119.979 149.391 119.719L149.625 120.578C149.234 120.839 148.844 120.969 148.453 120.969H148.445C148.398 122.375 147.88 123.078 146.891 123.078C146.214 123.078 145.693 122.635 145.328 121.75C144.964 122.635 144.443 123.078 143.766 123.078C142.724 123.078 142.203 122.427 142.203 121.125V120.812ZM148.844 106.281H150.406C152.49 106.281 153.531 107.323 153.531 109.406V118H152.203V109.406C152.203 108.104 151.604 107.453 150.406 107.453H148.844V106.281ZM158.766 118H157.438V112.531C157.438 109.927 158.74 108.625 161.344 108.625C163.948 108.625 165.25 109.927 165.25 112.531V118H163.922V112.531C163.922 110.708 163.062 109.797 161.344 109.797C159.625 109.797 158.766 110.708 158.766 112.531V118ZM165.25 106.281V107.453H157.438V106.281H165.25ZM161.93 100.422V103.938H160.758V100.422H161.93ZM170.484 109.406V119.953C170.484 121.255 171.044 121.906 172.164 121.906C173.284 121.906 173.844 121.255 173.844 119.953V118.781H175.172V119.953C175.172 122.036 174.169 123.078 172.164 123.078C170.159 123.078 169.156 122.036 169.156 119.953V109.406C169.156 109.042 168.896 108.651 168.375 108.234V107.453C168.375 106.672 168.766 106.281 169.547 106.281H170.875V107.453H169.938C169.677 107.453 169.547 107.583 169.547 107.844C170.172 108.26 170.484 108.781 170.484 109.406ZM180.328 109.406C180.328 109.042 180.068 108.651 179.547 108.234V107.453C179.547 106.672 179.938 106.281 180.719 106.281H182.047V107.453H181.109C180.849 107.453 180.719 107.583 180.719 107.844C181.344 108.26 181.656 108.781 181.656 109.406V114.094C181.656 116.698 180.354 118 177.75 118C175.146 118 173.844 116.698 173.844 114.094V109.406C173.844 109.042 173.583 108.651 173.062 108.234V107.453C173.062 106.672 173.453 106.281 174.234 106.281H175.562V107.453H174.625C174.365 107.453 174.234 107.583 174.234 107.844C174.859 108.26 175.172 108.781 175.172 109.406V114.094C175.172 115.917 176.031 116.828 177.75 116.828C179.469 116.828 180.328 115.917 180.328 114.094V109.406ZM186.734 115.656V116.828C186.844 116.828 186.935 116.799 187.008 116.742C187.086 116.68 187.125 116.513 187.125 116.242C187.125 115.971 187.086 115.807 187.008 115.75C186.935 115.688 186.844 115.656 186.734 115.656ZM193.375 106.281V107.453H185.562V106.281H193.375ZM185.562 112.531C185.562 109.927 186.865 108.625 189.469 108.625C192.073 108.625 193.375 109.927 193.375 112.531V118H192.047V112.531C192.047 110.708 191.188 109.797 189.469 109.797C187.75 109.797 186.891 110.708 186.891 112.531V114.562C187.01 114.51 187.148 114.484 187.305 114.484C187.461 114.484 187.625 114.625 187.797 114.906C187.974 115.182 188.062 115.628 188.062 116.242C188.062 116.857 187.948 117.305 187.719 117.586C187.495 117.862 187.193 118 186.812 118C186.432 118 186.13 117.859 185.906 117.578C185.729 117.365 185.62 117.049 185.578 116.633H185.562V112.531ZM186.344 102.375C186.344 101.073 187.255 100.422 189.078 100.422C190.12 100.422 191.096 100.773 192.008 101.477C192.919 102.18 193.375 102.661 193.375 102.922V103.938H188.297C186.995 103.938 186.344 103.417 186.344 102.375ZM187.516 102.258C187.516 102.701 187.906 102.922 188.688 102.922H192.203C190.906 102.036 189.865 101.594 189.078 101.594C188.036 101.594 187.516 101.815 187.516 102.258ZM203.766 109.406C203.766 109.042 203.505 108.651 202.984 108.234V107.453C202.984 106.672 203.375 106.281 204.156 106.281H205.484V107.453H204.547C204.286 107.453 204.156 107.583 204.156 107.844C204.781 108.26 205.094 108.781 205.094 109.406V114.094C205.094 116.698 203.792 118 201.188 118C198.583 118 197.281 116.698 197.281 114.094V109.406C197.281 109.042 197.021 108.651 196.5 108.234V107.453C196.5 106.672 196.891 106.281 197.672 106.281H199V107.453H198.062C197.802 107.453 197.672 107.583 197.672 107.844C198.297 108.26 198.609 108.781 198.609 109.406V114.094C198.609 115.917 199.469 116.828 201.188 116.828C202.906 116.828 203.766 115.917 203.766 114.094V109.406ZM210.172 115.656V116.828C210.281 116.828 210.372 116.799 210.445 116.742C210.523 116.68 210.562 116.513 210.562 116.242C210.562 115.971 210.523 115.807 210.445 115.75C210.372 115.688 210.281 115.656 210.172 115.656ZM216.812 106.281V107.453H209V106.281H216.812ZM209 112.531C209 109.927 210.302 108.625 212.906 108.625C215.51 108.625 216.812 109.927 216.812 112.531V118H215.484V112.531C215.484 110.708 214.625 109.797 212.906 109.797C211.188 109.797 210.328 110.708 210.328 112.531V114.562C210.448 114.51 210.586 114.484 210.742 114.484C210.898 114.484 211.062 114.625 211.234 114.906C211.411 115.182 211.5 115.628 211.5 116.242C211.5 116.857 211.385 117.305 211.156 117.586C210.932 117.862 210.63 118 210.25 118C209.87 118 209.568 117.859 209.344 117.578C209.167 117.365 209.057 117.049 209.016 116.633H209V112.531ZM210.562 122.297C210.672 122.297 210.74 122.271 210.766 122.219C210.786 122.172 210.797 122.107 210.797 122.023C210.797 121.94 210.786 121.872 210.766 121.82C210.74 121.773 210.672 121.75 210.562 121.75V122.297ZM209.391 120.969C209.391 119.51 210.562 118.781 212.906 118.781C215.25 118.781 216.422 119.562 216.422 121.125V123.078H215.25V121.125C215.25 120.344 214.469 119.953 212.906 119.953C211.344 119.953 210.562 120.292 210.562 120.969C210.891 120.969 211.143 121.055 211.32 121.227C211.492 121.404 211.578 121.669 211.578 122.023C211.578 122.378 211.479 122.641 211.281 122.812C211.078 122.99 210.812 123.078 210.484 123.078C210.156 123.078 209.893 122.99 209.695 122.812C209.492 122.641 209.391 122.378 209.391 122.023V120.969ZM209.781 102.375C209.781 101.073 210.693 100.422 212.516 100.422C213.557 100.422 214.534 100.773 215.445 101.477C216.357 102.18 216.812 102.661 216.812 102.922V103.938H211.734C210.432 103.938 209.781 103.417 209.781 102.375ZM210.953 102.258C210.953 102.701 211.344 102.922 212.125 102.922H215.641C214.344 102.036 213.302 101.594 212.516 101.594C211.474 101.594 210.953 101.815 210.953 102.258ZM222.047 118H220.719V112.531C220.719 109.927 222.021 108.625 224.625 108.625C227.229 108.625 228.531 109.927 228.531 112.531V118H227.203V112.531C227.203 110.708 226.344 109.797 224.625 109.797C222.906 109.797 222.047 110.708 222.047 112.531V118ZM228.531 106.281V107.453H220.719V106.281H228.531ZM228.531 106.281H230.094C232.177 106.281 233.219 107.323 233.219 109.406V118H231.891V109.406C231.891 108.104 231.292 107.453 230.094 107.453H228.531V106.281ZM237.125 116.828V115.656H236.93C236.872 115.656 236.826 115.682 236.789 115.734C236.753 115.781 236.734 115.951 236.734 116.242C236.734 116.534 236.753 116.706 236.789 116.758C236.826 116.805 236.872 116.828 236.93 116.828H237.125ZM238.453 109.406V116.242C238.453 116.909 238.365 117.37 238.188 117.625C238.016 117.875 237.688 118 237.203 118C236.719 118 236.388 117.875 236.211 117.625C236.039 117.37 235.953 116.909 235.953 116.242C235.953 115.576 236.039 115.117 236.211 114.867C236.388 114.612 236.628 114.484 236.93 114.484C236.997 114.484 237.062 114.49 237.125 114.5V109.406C237.021 109.042 236.76 108.651 236.344 108.234V107.453C236.344 106.672 236.734 106.281 237.516 106.281H238.844V107.453H237.906C237.646 107.453 237.516 107.583 237.516 107.844C238.141 108.26 238.453 108.781 238.453 109.406ZM243.883 116.828C243.94 116.828 243.987 116.805 244.023 116.758C244.06 116.706 244.078 116.534 244.078 116.242C244.078 115.951 244.06 115.781 244.023 115.734C243.987 115.682 243.94 115.656 243.883 115.656H243.688V116.828H243.883ZM243.688 114.5C243.75 114.49 243.815 114.484 243.883 114.484C244.185 114.484 244.422 114.612 244.594 114.867C244.771 115.117 244.859 115.576 244.859 116.242C244.859 116.909 244.771 117.37 244.594 117.625C244.422 117.875 244.094 118 243.609 118C243.125 118 242.794 117.875 242.617 117.625C242.445 117.37 242.359 116.909 242.359 116.242V109.406C242.255 109.042 241.995 108.651 241.578 108.234V107.453C241.578 106.672 241.969 106.281 242.75 106.281H244.078V107.453H243.141C242.88 107.453 242.75 107.583 242.75 107.844C243.375 108.26 243.688 108.781 243.688 109.406V114.5ZM247.594 109.406C247.594 109.042 247.464 108.651 247.203 108.234V107.844C247.203 106.802 247.724 106.281 248.766 106.281H251.109L252.906 107.453H253.531C253.896 107.453 254.078 107.271 254.078 106.906V105.109H255.406V106.906C255.406 108.052 254.964 108.625 254.078 108.625H252.672L250.875 107.453H249.312C248.792 107.453 248.531 107.609 248.531 107.922C248.792 108.339 248.922 108.833 248.922 109.406V116.438L251.5 114.25L254.078 116.438V109.406H255.406V118H254.234L251.5 115.656L248.766 118H247.594V109.406ZM255.406 106.281H256.969C259.052 106.281 260.094 107.323 260.094 109.406V118H258.766V109.406C258.766 108.104 258.167 107.453 256.969 107.453H255.406V106.281ZM271.812 106.281V107.453H264V106.281H271.812ZM265.328 115.266C265.719 114.484 266.344 114.094 267.203 114.094H267.906V115.344H267.203C266.344 115.344 265.719 115.734 265.328 116.516V118H264V112.531C264 109.927 265.302 108.625 267.906 108.625C270.51 108.625 271.812 109.927 271.812 112.531V118H270.484V112.531C270.484 110.708 269.625 109.797 267.906 109.797C266.188 109.797 265.328 110.708 265.328 112.531V115.266ZM275.719 109.406C275.719 109.042 275.589 108.651 275.328 108.234V107.844C275.328 106.802 275.849 106.281 276.891 106.281H279.234L281.031 107.453H281.656C282.021 107.453 282.203 107.271 282.203 106.906V105.109H283.531V106.906C283.531 108.052 283.089 108.625 282.203 108.625H280.797L279 107.453H277.438C276.917 107.453 276.656 107.609 276.656 107.922C276.917 108.339 277.047 108.833 277.047 109.406V116.438L279.625 114.25L282.203 116.438V109.406H283.531V118H282.359L279.625 115.656L276.891 118H275.719V109.406ZM280.406 102.258C280.406 102.596 280.862 102.766 281.773 102.766C282.945 102.766 283.531 102.115 283.531 100.812V99.7969H284.703V100.812C284.703 102.896 283.727 103.938 281.773 103.938C280.081 103.938 279.234 103.378 279.234 102.258C279.234 101.294 279.646 100.812 280.469 100.812C280.953 100.812 281.323 100.888 281.578 101.039L281.344 101.977C281.13 101.867 280.935 101.812 280.758 101.812C280.523 101.812 280.406 101.961 280.406 102.258ZM288.766 108.039C288.875 108.039 288.966 108.005 289.039 107.938C289.117 107.87 289.156 107.773 289.156 107.648C289.156 107.523 289.117 107.427 289.039 107.359C288.966 107.292 288.875 107.258 288.766 107.258V108.039ZM299.391 109.406C299.391 109.042 299.13 108.651 298.609 108.234V107.453C298.609 106.672 299 106.281 299.781 106.281H301.109V107.453H300.172C299.911 107.453 299.781 107.583 299.781 107.844C300.406 108.26 300.719 108.781 300.719 109.406V114.094C300.719 116.698 299.547 118 297.203 118C295.641 118 294.599 117.422 294.078 116.266C293.557 117.422 292.516 118 290.953 118C288.609 118 287.438 116.698 287.438 114.094V107.648C287.438 107.242 287.536 106.914 287.734 106.664C287.938 106.409 288.268 106.281 288.727 106.281C289.185 106.281 289.513 106.409 289.711 106.664C289.914 106.914 290.016 107.242 290.016 107.648C290.016 108.055 289.914 108.383 289.711 108.633C289.539 108.857 289.276 108.969 288.922 108.969C288.87 108.969 288.818 108.966 288.766 108.961V114.094C288.766 115.917 289.495 116.828 290.953 116.828C292.594 116.828 293.414 115.917 293.414 114.094V109.406C293.414 109.042 293.154 108.651 292.633 108.234V107.453C292.633 106.672 293.023 106.281 293.805 106.281H295.133V107.453H294.195C293.935 107.453 293.805 107.583 293.805 107.844C294.43 108.26 294.742 108.781 294.742 109.406V114.094C294.742 115.917 295.562 116.828 297.203 116.828C298.661 116.828 299.391 115.917 299.391 114.094V109.406ZM309.547 107.875V106.281H310.875V117.961H309.547V109.297C308.729 109.891 307.87 110.188 306.969 110.188C305.406 110.188 304.625 109.536 304.625 108.234C304.625 106.932 305.198 106.281 306.344 106.281C306.76 106.281 307.177 106.503 307.594 106.945L307.203 107.938C306.865 107.615 306.604 107.453 306.422 107.453C306.109 107.453 305.953 107.714 305.953 108.234C305.953 108.755 306.292 109.016 306.969 109.016C307.891 109.016 308.75 108.635 309.547 107.875Z" fill="#344054"/>
<rect x="54.75" y="161.75" width="70.5" height="38.5" rx="9.25" fill="white"/>
<path d="M78.5156 177.406C78.5156 177.042 78.2552 176.651 77.7344 176.234V175.453C77.7344 174.672 78.125 174.281 78.9062 174.281H80.2344V175.453H79.2969C79.0365 175.453 78.9062 175.583 78.9062 175.844C79.5312 176.26 79.8438 176.781 79.8438 177.406V182.094C79.8438 184.698 78.5417 186 75.9375 186C73.3333 186 72.0312 184.698 72.0312 182.094V177.406C72.0312 177.042 71.7708 176.651 71.25 176.234V175.453C71.25 174.672 71.6406 174.281 72.4219 174.281H73.75V175.453H72.8125C72.5521 175.453 72.4219 175.583 72.4219 175.844C73.0469 176.26 73.3594 176.781 73.3594 177.406V182.094C73.3594 183.917 74.2188 184.828 75.9375 184.828C77.6562 184.828 78.5156 183.917 78.5156 182.094V177.406ZM91.5625 181.234V182.875C91.5625 184.958 90.8333 186 89.375 186C88.3021 186 87.5078 185.674 86.9922 185.023C86.4766 184.372 85.8385 184.047 85.0781 184.047V186H83.75V181.312H85.0781V182.875C85.9896 182.875 86.7292 183.201 87.2969 183.852C87.8698 184.503 88.4505 184.828 89.0391 184.828C89.8359 184.828 90.2344 184.177 90.2344 182.875V182.094C85.9115 181.156 83.75 179.594 83.75 177.406C83.75 175.323 85.0521 174.281 87.6562 174.281C90.2604 174.281 91.5625 175.323 91.5625 177.406C91.5625 178.859 90.8385 179.586 89.3906 179.586C89.0625 179.586 88.7969 179.51 88.5938 179.359V178.188C88.9635 178.297 89.2656 178.352 89.5 178.352C89.9896 178.352 90.2344 178.036 90.2344 177.406C90.2344 176.104 89.375 175.453 87.6562 175.453C85.9375 175.453 85.0781 176.104 85.0781 177.406C85.0781 178.969 87.2396 180.245 91.5625 181.234ZM90 189.242C89.5833 189.841 89.1276 190.232 88.6328 190.414C88.138 190.596 87.7083 190.688 87.3438 190.688C86.25 190.688 85.7031 190.297 85.7031 189.516C85.7031 188.995 85.9453 188.661 86.4297 188.516C86.9089 188.375 87.3906 188.154 87.875 187.852C88.3542 187.555 88.5938 187.198 88.5938 186.781H89.7656C89.7656 187.719 88.8021 188.578 86.875 189.359C86.875 189.464 87.0312 189.516 87.3438 189.516C87.7083 189.516 88.112 189.424 88.5547 189.242C88.9974 189.06 89.4792 188.581 90 187.805V187.328H91.1719V190.688H90V189.242ZM91.5625 174.281H93.125C95.2083 174.281 96.25 175.323 96.25 177.406V186H94.9219V177.406C94.9219 176.104 94.3229 175.453 93.125 175.453H91.5625V174.281ZM106.641 177.406C106.641 177.042 106.38 176.651 105.859 176.234V175.453C105.859 174.672 106.25 174.281 107.031 174.281H108.359V175.453H107.422C107.161 175.453 107.031 175.583 107.031 175.844C107.656 176.26 107.969 176.781 107.969 177.406V182.094C107.969 184.698 106.667 186 104.062 186C101.458 186 100.156 184.698 100.156 182.094V177.406C100.156 177.042 99.8958 176.651 99.375 176.234V175.453C99.375 174.672 99.7656 174.281 100.547 174.281H101.875V175.453H100.938C100.677 175.453 100.547 175.583 100.547 175.844C101.172 176.26 101.484 176.781 101.484 177.406V182.094C101.484 183.917 102.344 184.828 104.062 184.828C105.781 184.828 106.641 183.917 106.641 182.094V177.406ZM104.648 168.422V171.938H103.477V168.422H104.648Z" fill="#344054"/>
<rect x="54.75" y="161.75" width="70.5" height="38.5" rx="9.25" stroke="#344054" stroke-width="1.5"/>
</g>
<circle cx="103" cy="16" r="12" fill="#344054"/>
<path d="M98.9432 22V20.2273L103.085 16.392C103.438 16.0511 103.733 15.7443 103.972 15.4716C104.214 15.1989 104.398 14.9318 104.523 14.6705C104.648 14.4053 104.71 14.1193 104.71 13.8125C104.71 13.4716 104.633 13.178 104.477 12.9318C104.322 12.6818 104.11 12.4905 103.841 12.358C103.572 12.2216 103.267 12.1534 102.926 12.1534C102.57 12.1534 102.259 12.2254 101.994 12.3693C101.729 12.5133 101.525 12.7197 101.381 12.9886C101.237 13.2576 101.165 13.5777 101.165 13.9489H98.8295C98.8295 13.1875 99.0019 12.5265 99.3466 11.9659C99.6913 11.4053 100.174 10.9716 100.795 10.6648C101.417 10.358 102.133 10.2045 102.943 10.2045C103.777 10.2045 104.502 10.3523 105.119 10.6477C105.741 10.9394 106.223 11.3447 106.568 11.8636C106.913 12.3826 107.085 12.9773 107.085 13.6477C107.085 14.0871 106.998 14.5208 106.824 14.9489C106.653 15.3769 106.348 15.8523 105.909 16.375C105.47 16.8939 104.85 17.517 104.051 18.2443L102.352 19.9091V19.9886H107.239V22H98.9432Z" fill="white"/>
<path d="M103 58L103 28" stroke="#344054" stroke-dasharray="2 2"/>
<circle cx="12" cy="16" r="12" fill="#344054"/>
<path d="M14.0057 10.3636V22H11.5455V12.6989H11.4773L8.8125 14.3693V12.1875L11.6932 10.3636H14.0057Z" fill="white"/>
<path d="M21 16H65V58" stroke="#344054" stroke-dasharray="2 2"/>
<circle cx="12" cy="242" r="12" fill="#344054"/>
<path d="M6.76705 245.955V244.017L11.625 236.364H13.2955V239.045H12.3068L9.24432 243.892V243.983H16.1477V245.955H6.76705ZM12.3523 248V245.364L12.3977 244.506V236.364H14.7045V248H12.3523Z" fill="white"/>
<path d="M21 242H65V200" stroke="#344054" stroke-dasharray="2 2"/>
<circle cx="413" cy="16" r="12" fill="#344054"/>
<path d="M413.244 22.1591C412.396 22.1591 411.64 22.0133 410.977 21.7216C410.318 21.4261 409.797 21.0208 409.415 20.5057C409.036 19.9867 408.841 19.3883 408.83 18.7102H411.307C411.322 18.9943 411.415 19.2443 411.585 19.4602C411.759 19.6723 411.991 19.8371 412.278 19.9545C412.566 20.072 412.89 20.1307 413.25 20.1307C413.625 20.1307 413.956 20.0644 414.244 19.9318C414.532 19.7992 414.758 19.6155 414.92 19.3807C415.083 19.1458 415.165 18.875 415.165 18.5682C415.165 18.2576 415.078 17.983 414.903 17.7443C414.733 17.5019 414.487 17.3125 414.165 17.1761C413.847 17.0398 413.468 16.9716 413.028 16.9716H411.943V15.1648H413.028C413.4 15.1648 413.727 15.1004 414.011 14.9716C414.299 14.8428 414.523 14.6648 414.682 14.4375C414.841 14.2064 414.92 13.9375 414.92 13.6307C414.92 13.339 414.85 13.0833 414.71 12.8636C414.574 12.6402 414.381 12.4659 414.131 12.3409C413.884 12.2159 413.597 12.1534 413.267 12.1534C412.934 12.1534 412.629 12.214 412.352 12.3352C412.076 12.4527 411.854 12.6212 411.688 12.8409C411.521 13.0606 411.432 13.3182 411.42 13.6136H409.062C409.074 12.9432 409.265 12.3523 409.636 11.8409C410.008 11.3295 410.508 10.9299 411.136 10.642C411.769 10.3504 412.483 10.2045 413.278 10.2045C414.081 10.2045 414.784 10.3504 415.386 10.642C415.989 10.9337 416.456 11.3277 416.79 11.8239C417.127 12.3163 417.294 12.8693 417.29 13.483C417.294 14.1345 417.091 14.678 416.682 15.1136C416.277 15.5492 415.748 15.8258 415.097 15.9432V16.0341C415.953 16.1439 416.604 16.4413 417.051 16.9261C417.502 17.4072 417.725 18.0095 417.722 18.733C417.725 19.3958 417.534 19.9848 417.148 20.5C416.765 21.0152 416.237 21.4205 415.562 21.7159C414.888 22.0114 414.116 22.1591 413.244 22.1591Z" fill="white"/>
<path d="M403 16H359V58" stroke="#344054" stroke-dasharray="2 2"/>
<defs>
<filter id="filter0_d_7147_3671" x="24" y="33" width="371" height="192" filterUnits="userSpaceOnUse" color-interpolation-filters="sRGB">
<feFlood flood-opacity="0" result="BackgroundImageFix"/>
<feColorMatrix in="SourceAlpha" type="matrix" values="0 0 0 0 0 0 0 0 0 0 0 0 0 0 0 0 0 0 127 0" result="hardAlpha"/>
<feOffset/>
<feGaussianBlur stdDeviation="4"/>
<feColorMatrix type="matrix" values="0 0 0 0 0 0 0 0 0 0 0 0 0 0 0 0 0 0 0.15 0"/>
<feBlend mode="normal" in2="BackgroundImageFix" result="effect1_dropShadow_7147_3671"/>
<feBlend mode="normal" in="SourceGraphic" in2="effect1_dropShadow_7147_3671" result="shape"/>
</filter>
</defs>
</svg>
