<svg width="421" height="223" viewBox="0 0 421 223" fill="none" xmlns="http://www.w3.org/2000/svg">
<path d="M12.0845 31L8.33878 17.9091H11.3622L13.5291 27.005H13.6378L16.0284 17.9091H18.6172L21.0014 27.0241H21.1165L23.2834 17.9091H26.3068L22.5611 31H19.8636L17.3707 22.4411H17.2685L14.782 31H12.0845ZM27.737 31V21.1818H30.46V31H27.737ZM29.1049 19.9162C28.7001 19.9162 28.3528 19.782 28.063 19.5135C27.7775 19.2408 27.6348 18.9148 27.6348 18.5355C27.6348 18.1605 27.7775 17.8388 28.063 17.5703C28.3528 17.2976 28.7001 17.1612 29.1049 17.1612C29.5098 17.1612 29.8549 17.2976 30.1404 17.5703C30.4302 17.8388 30.5751 18.1605 30.5751 18.5355C30.5751 18.9148 30.4302 19.2408 30.1404 19.5135C29.8549 19.782 29.5098 19.9162 29.1049 19.9162ZM37.8636 21.1818V23.2273H31.951V21.1818H37.8636ZM33.2933 18.8295H36.0163V27.983C36.0163 28.2344 36.0547 28.4304 36.1314 28.571C36.2081 28.7074 36.3146 28.8033 36.451 28.8587C36.5916 28.9141 36.7536 28.9418 36.9368 28.9418C37.0646 28.9418 37.1925 28.9311 37.3203 28.9098C37.4482 28.8842 37.5462 28.8651 37.6143 28.8523L38.0426 30.8786C37.9063 30.9212 37.7145 30.9702 37.4673 31.0256C37.2202 31.0852 36.9197 31.1214 36.5661 31.1342C35.9098 31.1598 35.3345 31.0724 34.8402 30.8722C34.3501 30.6719 33.9688 30.3608 33.696 29.9389C33.4233 29.517 33.2891 28.9844 33.2933 28.3409V18.8295ZM42.5714 25.3239V31H39.8484V17.9091H42.4947V22.9141H42.6097C42.8313 22.3345 43.1893 21.8807 43.6836 21.5526C44.1779 21.2202 44.7979 21.054 45.5437 21.054C46.2255 21.054 46.82 21.2031 47.3271 21.5014C47.8384 21.7955 48.2347 22.2195 48.516 22.7734C48.8015 23.3232 48.9421 23.9815 48.9379 24.7486V31H46.2148V25.2344C46.2191 24.6293 46.0657 24.1584 45.7546 23.8217C45.4478 23.4851 45.0174 23.3168 44.4634 23.3168C44.0927 23.3168 43.7646 23.3956 43.479 23.5533C43.1978 23.7109 42.9762 23.9411 42.8143 24.2436C42.6566 24.5419 42.5756 24.902 42.5714 25.3239ZM51.0808 31V21.1818H53.8038V31H51.0808ZM52.4487 19.9162C52.0439 19.9162 51.6966 19.782 51.4068 19.5135C51.1213 19.2408 50.9785 18.9148 50.9785 18.5355C50.9785 18.1605 51.1213 17.8388 51.4068 17.5703C51.6966 17.2976 52.0439 17.1612 52.4487 17.1612C52.8535 17.1612 53.1987 17.2976 53.4842 17.5703C53.774 17.8388 53.9189 18.1605 53.9189 18.5355C53.9189 18.9148 53.774 19.2408 53.4842 19.5135C53.1987 19.782 52.8535 19.9162 52.4487 19.9162ZM58.7081 25.3239V31H55.9851V21.1818H58.5803V22.9141H58.6953C58.9126 22.343 59.277 21.8913 59.7884 21.5589C60.2997 21.2223 60.9197 21.054 61.6484 21.054C62.3303 21.054 62.9247 21.2031 63.4318 21.5014C63.9389 21.7997 64.3331 22.2259 64.6143 22.7798C64.8956 23.3295 65.0362 23.9858 65.0362 24.7486V31H62.3132V25.2344C62.3175 24.6335 62.1641 24.1648 61.853 23.8281C61.5419 23.4872 61.1136 23.3168 60.5682 23.3168C60.2017 23.3168 59.8778 23.3956 59.5966 23.5533C59.3196 23.7109 59.1023 23.9411 58.9446 24.2436C58.7912 24.5419 58.7124 24.902 58.7081 25.3239ZM76.5707 21.1818V23.2273H70.658V21.1818H76.5707ZM72.0004 18.8295H74.7234V27.983C74.7234 28.2344 74.7617 28.4304 74.8384 28.571C74.9151 28.7074 75.0217 28.8033 75.158 28.8587C75.2987 28.9141 75.4606 28.9418 75.6438 28.9418C75.7717 28.9418 75.8995 28.9311 76.0273 28.9098C76.1552 28.8842 76.2532 28.8651 76.3214 28.8523L76.7496 30.8786C76.6133 30.9212 76.4215 30.9702 76.1744 31.0256C75.9272 31.0852 75.6268 31.1214 75.2731 31.1342C74.6168 31.1598 74.0415 31.0724 73.5472 30.8722C73.0572 30.6719 72.6758 30.3608 72.4031 29.9389C72.1303 29.517 71.9961 28.9844 72.0004 28.3409V18.8295ZM81.2784 25.3239V31H78.5554V17.9091H81.2017V22.9141H81.3168C81.5384 22.3345 81.8963 21.8807 82.3906 21.5526C82.8849 21.2202 83.505 21.054 84.2507 21.054C84.9325 21.054 85.527 21.2031 86.0341 21.5014C86.5455 21.7955 86.9418 22.2195 87.223 22.7734C87.5085 23.3232 87.6491 23.9815 87.6449 24.7486V31H84.9219V25.2344C84.9261 24.6293 84.7727 24.1584 84.4616 23.8217C84.1548 23.4851 83.7244 23.3168 83.1705 23.3168C82.7997 23.3168 82.4716 23.3956 82.1861 23.5533C81.9048 23.7109 81.6832 23.9411 81.5213 24.2436C81.3636 24.5419 81.2827 24.902 81.2784 25.3239ZM94.2623 31.1918C93.2523 31.1918 92.383 30.9872 91.6543 30.5781C90.9299 30.1648 90.3716 29.581 89.9796 28.8267C89.5875 28.0682 89.3915 27.1712 89.3915 26.1357C89.3915 25.1257 89.5875 24.2393 89.9796 23.4766C90.3716 22.7138 90.9235 22.1193 91.6351 21.6932C92.351 21.267 93.1905 21.054 94.1536 21.054C94.8013 21.054 95.4043 21.1584 95.9625 21.3672C96.525 21.5717 97.0151 21.8807 97.4327 22.294C97.8546 22.7074 98.1827 23.2273 98.4171 23.8537C98.6515 24.4759 98.7686 25.2045 98.7686 26.0398V26.7876H90.4782V25.1001H96.2054C96.2054 24.7081 96.1202 24.3608 95.9498 24.0582C95.7793 23.7557 95.5428 23.5192 95.2402 23.3487C94.9419 23.174 94.5946 23.0866 94.1983 23.0866C93.785 23.0866 93.4185 23.1825 93.0989 23.3743C92.7836 23.5618 92.5364 23.8153 92.3574 24.1349C92.1784 24.4503 92.0868 24.8018 92.0826 25.1896V26.794C92.0826 27.2798 92.1721 27.6996 92.351 28.0533C92.5343 28.407 92.7921 28.6797 93.1245 28.8714C93.4569 29.0632 93.851 29.1591 94.307 29.1591C94.6096 29.1591 94.8865 29.1165 95.138 29.0312C95.3894 28.946 95.6046 28.8182 95.7836 28.6477C95.9625 28.4773 96.0989 28.2685 96.1926 28.0213L98.7111 28.1875C98.5833 28.7926 98.3212 29.321 97.9249 29.7727C97.5328 30.2202 97.0257 30.5696 96.4036 30.821C95.7857 31.0682 95.0719 31.1918 94.2623 31.1918ZM109.934 21.1818V23.2273H104.021V21.1818H109.934ZM105.364 18.8295H108.087V27.983C108.087 28.2344 108.125 28.4304 108.202 28.571C108.278 28.7074 108.385 28.8033 108.521 28.8587C108.662 28.9141 108.824 28.9418 109.007 28.9418C109.135 28.9418 109.263 28.9311 109.391 28.9098C109.518 28.8842 109.616 28.8651 109.685 28.8523L110.113 30.8786C109.977 30.9212 109.785 30.9702 109.538 31.0256C109.29 31.0852 108.99 31.1214 108.636 31.1342C107.98 31.1598 107.405 31.0724 106.911 30.8722C106.42 30.6719 106.039 30.3608 105.766 29.9389C105.494 29.517 105.359 28.9844 105.364 28.3409V18.8295ZM116.038 31.1918C115.045 31.1918 114.187 30.9808 113.462 30.5589C112.742 30.1328 112.186 29.5405 111.794 28.782C111.402 28.0192 111.206 27.1349 111.206 26.1293C111.206 25.1151 111.402 24.2287 111.794 23.4702C112.186 22.7074 112.742 22.1151 113.462 21.6932C114.187 21.267 115.045 21.054 116.038 21.054C117.031 21.054 117.888 21.267 118.608 21.6932C119.332 22.1151 119.891 22.7074 120.283 23.4702C120.675 24.2287 120.871 25.1151 120.871 26.1293C120.871 27.1349 120.675 28.0192 120.283 28.782C119.891 29.5405 119.332 30.1328 118.608 30.5589C117.888 30.9808 117.031 31.1918 116.038 31.1918ZM116.051 29.0824C116.503 29.0824 116.88 28.9545 117.183 28.6989C117.485 28.4389 117.713 28.0852 117.866 27.6378C118.024 27.1903 118.103 26.6811 118.103 26.1101C118.103 25.5391 118.024 25.0298 117.866 24.5824C117.713 24.1349 117.485 23.7812 117.183 23.5213C116.88 23.2614 116.503 23.1314 116.051 23.1314C115.595 23.1314 115.212 23.2614 114.901 23.5213C114.594 23.7812 114.362 24.1349 114.204 24.5824C114.05 25.0298 113.974 25.5391 113.974 26.1101C113.974 26.6811 114.05 27.1903 114.204 27.6378C114.362 28.0852 114.594 28.4389 114.901 28.6989C115.212 28.9545 115.595 29.0824 116.051 29.0824ZM125.441 31.1854C124.815 31.1854 124.256 31.0767 123.766 30.8594C123.276 30.6378 122.888 30.3118 122.603 29.8814C122.322 29.4467 122.181 28.9055 122.181 28.2578C122.181 27.7124 122.281 27.2543 122.482 26.8835C122.682 26.5128 122.955 26.2145 123.3 25.9886C123.645 25.7628 124.037 25.5923 124.476 25.4773C124.919 25.3622 125.384 25.2812 125.869 25.2344C126.44 25.1747 126.901 25.1193 127.25 25.0682C127.599 25.0128 127.853 24.9318 128.011 24.8253C128.168 24.7187 128.247 24.5611 128.247 24.3523V24.3139C128.247 23.9091 128.119 23.5959 127.864 23.3743C127.612 23.1527 127.254 23.0419 126.79 23.0419C126.3 23.0419 125.91 23.1506 125.62 23.3679C125.33 23.581 125.138 23.8494 125.045 24.1733L122.526 23.9688C122.654 23.3722 122.906 22.8565 123.281 22.4219C123.656 21.983 124.139 21.6463 124.732 21.4119C125.328 21.1733 126.018 21.054 126.803 21.054C127.348 21.054 127.87 21.1179 128.369 21.2457C128.871 21.3736 129.317 21.5717 129.705 21.8402C130.097 22.1087 130.406 22.4538 130.631 22.8757C130.857 23.2933 130.97 23.794 130.97 24.3778V31H128.388V29.6385H128.311C128.153 29.9453 127.942 30.2159 127.678 30.4503C127.414 30.6804 127.097 30.8615 126.726 30.9936C126.355 31.1214 125.927 31.1854 125.441 31.1854ZM126.221 29.3061C126.621 29.3061 126.975 29.2273 127.282 29.0696C127.589 28.9077 127.83 28.6903 128.004 28.4176C128.179 28.1449 128.266 27.8359 128.266 27.4908V26.4489C128.181 26.5043 128.064 26.5554 127.915 26.6023C127.77 26.6449 127.606 26.6854 127.423 26.7237C127.239 26.7578 127.056 26.7898 126.873 26.8196C126.69 26.8452 126.523 26.8686 126.374 26.8899C126.055 26.9368 125.776 27.0114 125.537 27.1136C125.298 27.2159 125.113 27.3544 124.981 27.5291C124.849 27.6996 124.783 27.9126 124.783 28.1683C124.783 28.5391 124.917 28.8224 125.185 29.0185C125.458 29.2102 125.803 29.3061 126.221 29.3061ZM141.252 23.9815L138.759 24.1349C138.716 23.9219 138.625 23.7301 138.484 23.5597C138.343 23.3849 138.158 23.2464 137.928 23.1442C137.702 23.0376 137.431 22.9844 137.116 22.9844C136.694 22.9844 136.338 23.0739 136.049 23.2528C135.759 23.4276 135.614 23.6619 135.614 23.956C135.614 24.1903 135.708 24.3885 135.895 24.5504C136.083 24.7124 136.404 24.8423 136.86 24.9403L138.637 25.2983C139.592 25.4943 140.304 25.8097 140.772 26.2443C141.241 26.679 141.475 27.25 141.475 27.9574C141.475 28.6009 141.286 29.1655 140.907 29.6513C140.532 30.1371 140.016 30.5163 139.36 30.7891C138.708 31.0575 137.956 31.1918 137.103 31.1918C135.804 31.1918 134.768 30.9212 133.997 30.38C133.23 29.8345 132.78 29.093 132.648 28.1555L135.326 28.0149C135.407 28.4112 135.603 28.7138 135.914 28.9226C136.225 29.1271 136.624 29.2294 137.11 29.2294C137.587 29.2294 137.971 29.1378 138.26 28.9545C138.554 28.767 138.703 28.5263 138.708 28.2322C138.703 27.9851 138.599 27.7827 138.395 27.625C138.19 27.4631 137.875 27.3395 137.449 27.2543L135.748 26.9155C134.789 26.7237 134.076 26.3913 133.607 25.9183C133.142 25.4453 132.91 24.8423 132.91 24.1094C132.91 23.4787 133.081 22.9354 133.422 22.4794C133.767 22.0234 134.25 21.6719 134.873 21.4247C135.499 21.1776 136.232 21.054 137.071 21.054C138.311 21.054 139.287 21.3161 139.999 21.8402C140.715 22.3643 141.132 23.0781 141.252 23.9815ZM148.412 21.1818V23.2273H142.5V21.1818H148.412ZM143.842 18.8295H146.565V27.983C146.565 28.2344 146.604 28.4304 146.68 28.571C146.757 28.7074 146.863 28.8033 147 28.8587C147.14 28.9141 147.302 28.9418 147.486 28.9418C147.613 28.9418 147.741 28.9311 147.869 28.9098C147.997 28.8842 148.095 28.8651 148.163 28.8523L148.591 30.8786C148.455 30.9212 148.263 30.9702 148.016 31.0256C147.769 31.0852 147.469 31.1214 147.115 31.1342C146.459 31.1598 145.883 31.0724 145.389 30.8722C144.899 30.6719 144.518 30.3608 144.245 29.9389C143.972 29.517 143.838 28.9844 143.842 28.3409V18.8295Z" fill="#344054"/>
<g filter="url(#filter0_d_7147_3699)">
<rect x="8" y="8" width="355" height="176" rx="8" fill="white"/>
<rect x="8" y="8" width="6" height="176" fill="#D7260F"/>
<path d="M42 47.875C39.9114 47.875 37.9084 47.0453 36.4315 45.5685C34.9547 44.0916 34.125 42.0886 34.125 40C34.125 37.9114 34.9547 35.9084 36.4315 34.4315C37.9084 32.9547 39.9114 32.125 42 32.125C44.0886 32.125 46.0916 32.9547 47.5685 34.4315C49.0453 35.9084 49.875 37.9114 49.875 40C49.875 42.0886 49.0453 44.0916 47.5685 45.5685C46.0916 47.0453 44.0886 47.875 42 47.875ZM42 49C44.3869 49 46.6761 48.0518 48.364 46.364C50.0518 44.6761 51 42.3869 51 40C51 37.6131 50.0518 35.3239 48.364 33.636C46.6761 31.9482 44.3869 31 42 31C39.6131 31 37.3239 31.9482 35.636 33.636C33.9482 35.3239 33 37.6131 33 40C33 42.3869 33.9482 44.6761 35.636 46.364C37.3239 48.0518 39.6131 49 42 49Z" fill="#D7260F"/>
<path d="M40.8772 43.3751C40.8772 43.2274 40.9063 43.0811 40.9628 42.9446C41.0194 42.8081 41.1022 42.6841 41.2067 42.5796C41.3112 42.4752 41.4352 42.3923 41.5717 42.3357C41.7082 42.2792 41.8545 42.2501 42.0022 42.2501C42.1499 42.2501 42.2962 42.2792 42.4327 42.3357C42.5692 42.3923 42.6932 42.4752 42.7977 42.5796C42.9022 42.6841 42.985 42.8081 43.0416 42.9446C43.0981 43.0811 43.1272 43.2274 43.1272 43.3751C43.1272 43.6735 43.0087 43.9596 42.7977 44.1706C42.5867 44.3816 42.3006 44.5001 42.0022 44.5001C41.7038 44.5001 41.4177 44.3816 41.2067 44.1706C40.9957 43.9596 40.8772 43.6735 40.8772 43.3751ZM40.9874 36.6195C40.9725 36.4776 40.9875 36.3341 41.0315 36.1983C41.0756 36.0626 41.1477 35.9376 41.2432 35.8315C41.3387 35.7254 41.4554 35.6406 41.5857 35.5826C41.7161 35.5245 41.8572 35.4945 41.9999 35.4945C42.1427 35.4945 42.2838 35.5245 42.4142 35.5826C42.5445 35.6406 42.6612 35.7254 42.7567 35.8315C42.8522 35.9376 42.9243 36.0626 42.9683 36.1983C43.0124 36.3341 43.0274 36.4776 43.0124 36.6195L42.6187 40.5649C42.6055 40.7199 42.5346 40.8642 42.42 40.9695C42.3054 41.0747 42.1555 41.133 41.9999 41.133C41.8444 41.133 41.6945 41.0747 41.5799 40.9695C41.4653 40.8642 41.3944 40.7199 41.3812 40.5649L40.9874 36.6195Z" fill="#D7260F"/>
<path d="M63.9531 36.7969H65.9062V42.5703L68.1719 40.5156L70.4375 42.5703V36.7969H72.3906V45H70.7031L68.1719 42.8281L65.6406 45H63.9531V36.7969ZM65.9062 34.5234C65.9062 34.6328 66.6615 34.6875 68.1719 34.6875C69.6823 34.6875 70.4375 34.2188 70.4375 33.2812V32.1094H72.3906V33.2812C72.3906 35.2604 70.9844 36.25 68.1719 36.25C65.3594 36.25 63.9531 35.6771 63.9531 34.5312C63.9531 33.6979 64.4896 33.2812 65.5625 33.2812C66.2344 33.2812 66.7135 33.388 67 33.6016V34.4844C66.3646 34.401 66.0234 34.3594 65.9766 34.3594C65.9297 34.3594 65.9062 34.4141 65.9062 34.5234ZM67.6641 29.1797C67.6641 29.3099 67.6979 29.4062 67.7656 29.4688C67.8281 29.5365 67.9245 29.5703 68.0547 29.5703C68.1849 29.5703 68.2839 29.5365 68.3516 29.4688C68.4141 29.4062 68.4453 29.3099 68.4453 29.1797C68.4453 29.0495 68.4141 28.9531 68.3516 28.8906C68.2839 28.8229 68.1849 28.7891 68.0547 28.7891C67.9245 28.7891 67.8281 28.8229 67.7656 28.8906C67.6979 28.9531 67.6641 29.0495 67.6641 29.1797ZM69.8125 29.1797C69.8125 29.7682 69.6667 30.2083 69.375 30.5C69.0833 30.7917 68.6432 30.9375 68.0547 30.9375C67.4661 30.9375 67.026 30.7917 66.7344 30.5C66.4427 30.2083 66.2969 29.7682 66.2969 29.1797C66.2969 28.5911 66.4427 28.151 66.7344 27.8594C67.026 27.5677 67.4661 27.4219 68.0547 27.4219C68.6432 27.4219 69.0833 27.5677 69.375 27.8594C69.6667 28.151 69.8125 28.5911 69.8125 29.1797ZM78.1719 42.8906C78.125 42.8229 78.0208 42.7839 77.8594 42.7734V43.6641C78.0208 43.6641 78.125 43.6302 78.1719 43.5625C78.224 43.4896 78.25 43.3776 78.25 43.2266C78.25 43.0703 78.224 42.9583 78.1719 42.8906ZM78.25 41.4375C78.6458 41.4688 78.9401 41.625 79.1328 41.9062C79.3255 42.1823 79.4219 42.6276 79.4219 43.2422C79.4219 43.8568 79.2865 44.3047 79.0156 44.5859C78.7448 44.862 78.3594 45 77.8594 45C77.3594 45 76.974 44.862 76.7031 44.5859C76.4323 44.3047 76.2969 43.8568 76.2969 43.2422V36.4062C76.2969 35.9792 76.0365 35.5573 75.5156 35.1406V34.4531C75.5156 33.6719 76.0104 33.2812 77 33.2812H78.6406V34.8438H77.3125V34.9375C77.9375 35.3542 78.25 35.8438 78.25 36.4062V41.4375ZM83.7188 43.6641C83.8802 43.6641 83.9844 43.6302 84.0312 43.5625C84.0833 43.4896 84.1094 43.3776 84.1094 43.2266C84.1094 43.0703 84.0833 42.9583 84.0312 42.8906C83.9844 42.8229 83.8802 42.7839 83.7188 42.7734V43.6641ZM82.1562 37.1875C82.1562 34.5833 83.349 33.2812 85.7344 33.2812C88.1146 33.2812 89.3047 34.5833 89.3047 37.1875V42.5391L91.0625 40.2188L92.8203 42.5391V37.1875C92.8203 34.5833 94.013 33.2812 96.3984 33.2812C98.7786 33.2812 99.9688 34.5833 99.9688 37.1875V45H98.0156V37.1875C98.0156 35.625 97.4766 34.8438 96.3984 34.8438C95.3151 34.8438 94.7734 35.625 94.7734 37.1875V45H92.4844L91.0625 43.0078L89.6406 45H87.3516V37.1875C87.3516 35.625 86.8125 34.8438 85.7344 34.8438C84.651 34.8438 84.1094 35.625 84.1094 37.1875V41.4375C84.5052 41.4688 84.7995 41.625 84.9922 41.9062C85.1849 42.1823 85.2812 42.6276 85.2812 43.2422C85.2812 43.7526 85.1458 44.1745 84.875 44.5078C84.6042 44.8359 84.2188 45 83.7188 45C83.2188 45 82.8333 44.849 82.5625 44.5469C82.2917 44.2396 82.1562 43.8047 82.1562 43.2422V37.1875ZM94.1094 29.4141C94.1094 29.7005 94.3698 29.8438 94.8906 29.8438H98.4062C97.3698 29.2708 96.4583 28.9844 95.6719 28.9844C94.6302 28.9844 94.1094 29.1276 94.1094 29.4141ZM98.5625 28.4453V26.6406H99.9688V30.9375H94.5C93.1979 30.9375 92.5469 30.4167 92.5469 29.375C92.5469 28.0729 93.5885 27.4219 95.6719 27.4219C96.6979 27.4219 97.6615 27.763 98.5625 28.4453ZM104.266 42.7734C104.104 42.7839 103.997 42.8229 103.945 42.8906C103.898 42.9583 103.875 43.0703 103.875 43.2266C103.875 43.3776 103.898 43.4896 103.945 43.5625C103.997 43.6302 104.104 43.6641 104.266 43.6641V42.7734ZM103.875 36.4062C103.875 35.9792 103.615 35.5573 103.094 35.1406V34.4531C103.094 33.6719 103.589 33.2812 104.578 33.2812H106.219V34.8438H104.891V34.9375C105.516 35.3542 105.828 35.8438 105.828 36.4062V43.2422C105.828 43.8568 105.693 44.3047 105.422 44.5859C105.151 44.862 104.766 45 104.266 45C103.766 45 103.38 44.862 103.109 44.5859C102.839 44.3047 102.703 43.8568 102.703 43.2422C102.703 42.6276 102.799 42.1823 102.992 41.9062C103.185 41.625 103.479 41.4688 103.875 41.4375V36.4062ZM111.688 45H109.734V39.5312C109.734 36.9271 111.141 35.625 113.953 35.625C116.766 35.625 118.172 36.9271 118.172 39.5312V45H116.219V39.5312C116.219 37.9688 115.464 37.1875 113.953 37.1875C112.443 37.1875 111.688 37.9688 111.688 39.5312V45ZM118.172 33.2812V34.8438H109.734V33.2812H118.172ZM118.172 33.2812H120.047C122.703 33.2812 124.031 34.3229 124.031 36.4062V45H122.078V36.4062C122.078 35.3646 121.401 34.8438 120.047 34.8438H118.172V33.2812ZM128.328 42.7734C128.167 42.7839 128.06 42.8229 128.008 42.8906C127.961 42.9583 127.938 43.0703 127.938 43.2266C127.938 43.3776 127.961 43.4896 128.008 43.5625C128.06 43.6302 128.167 43.6641 128.328 43.6641V42.7734ZM127.938 36.4062C127.938 35.9792 127.677 35.5573 127.156 35.1406V34.4531C127.156 33.6719 127.651 33.2812 128.641 33.2812H130.281V34.8438H128.953V34.9375C129.578 35.3542 129.891 35.8438 129.891 36.4062V43.2422C129.891 43.8568 129.755 44.3047 129.484 44.5859C129.214 44.862 128.828 45 128.328 45C127.828 45 127.443 44.862 127.172 44.5859C126.901 44.3047 126.766 43.8568 126.766 43.2422C126.766 42.6276 126.862 42.1823 127.055 41.9062C127.247 41.625 127.542 41.4688 127.938 41.4375V36.4062ZM140.281 36.4062C140.281 35.9792 140.021 35.5573 139.5 35.1406V34.4531C139.5 33.6719 139.995 33.2812 140.984 33.2812H142.625V34.8438H141.297V34.9375C141.922 35.3542 142.234 35.8438 142.234 36.4062V41.0938C142.234 43.6979 140.828 45 138.016 45C135.203 45 133.797 43.6979 133.797 41.0938V36.4062C133.797 35.9792 133.536 35.5573 133.016 35.1406V34.4531C133.016 33.6719 133.51 33.2812 134.5 33.2812H136.141V34.8438H134.812V34.9375C135.438 35.3542 135.75 35.8438 135.75 36.4062V41.0938C135.75 42.6562 136.505 43.4375 138.016 43.4375C139.526 43.4375 140.281 42.6562 140.281 41.0938V36.4062ZM146.531 42.7734C146.37 42.7839 146.263 42.8229 146.211 42.8906C146.164 42.9583 146.141 43.0703 146.141 43.2266C146.141 43.3776 146.164 43.4896 146.211 43.5625C146.263 43.6302 146.37 43.6641 146.531 43.6641V42.7734ZM146.141 36.4062C146.141 35.9792 145.88 35.5573 145.359 35.1406V34.4531C145.359 33.6719 145.854 33.2812 146.844 33.2812H148.484V34.8438H147.156V34.9375C147.781 35.3542 148.094 35.8438 148.094 36.4062V43.2422C148.094 43.8568 147.958 44.3047 147.688 44.5859C147.417 44.862 147.031 45 146.531 45C146.031 45 145.646 44.862 145.375 44.5859C145.104 44.3047 144.969 43.8568 144.969 43.2422C144.969 42.6276 145.065 42.1823 145.258 41.9062C145.451 41.625 145.745 41.4688 146.141 41.4375V36.4062ZM148.094 33.2812H149.969C152.625 33.2812 153.953 34.3229 153.953 36.4062V45H152V36.4062C152 35.3646 151.323 34.8438 149.969 34.8438H148.094V33.2812ZM157.859 36.4062C157.859 35.9896 157.729 35.5729 157.469 35.1562V34.8438C157.469 33.8021 158.094 33.2812 159.344 33.2812H161.859L163.656 34.0625H164.109C164.266 34.0625 164.344 34.0104 164.344 33.9062V32.1094H166.297V33.9062C166.297 35.0521 165.75 35.625 164.656 35.625H163.078L161.281 34.8438H159.891C159.578 34.8438 159.422 34.8958 159.422 35C159.682 35.4167 159.812 35.8854 159.812 36.4062V42.6094L162.078 40.6875L164.344 42.6094V36.4062H166.297V45H164.609L162.078 42.8281L159.547 45H157.859V36.4062ZM163.562 29.1016C163.562 29.2839 163.888 29.375 164.539 29.375C165.451 29.375 165.906 28.8542 165.906 27.8125V26.7969H167.469V27.8125C167.469 29.8958 166.492 30.9375 164.539 30.9375C162.846 30.9375 162 30.3776 162 29.2578C162 28.2943 162.464 27.8125 163.391 27.8125C163.771 27.8125 164.089 27.888 164.344 28.0391L164.109 28.9766C164 28.8672 163.883 28.8125 163.758 28.8125C163.628 28.8125 163.562 28.9089 163.562 29.1016ZM171.766 34.8906C171.896 34.8906 171.982 34.862 172.023 34.8047C172.06 34.763 172.078 34.7083 172.078 34.6406C172.078 34.5729 172.057 34.513 172.016 34.4609C171.974 34.4036 171.891 34.375 171.766 34.375V34.8906ZM172.156 41.0938C172.156 42.6562 172.781 43.4375 174.031 43.4375C175.464 43.4375 176.18 42.6562 176.18 41.0938V36.4062C176.18 35.9792 175.919 35.5573 175.398 35.1406V34.4531C175.398 33.6719 175.893 33.2812 176.883 33.2812H178.523V34.8438H177.195V34.9375C177.82 35.3542 178.133 35.8438 178.133 36.4062V41.0938C178.133 42.6562 178.849 43.4375 180.281 43.4375C181.531 43.4375 182.156 42.6562 182.156 41.0938V36.4062C182.156 35.9792 181.896 35.5573 181.375 35.1406V34.4531C181.375 33.6719 181.87 33.2812 182.859 33.2812H184.5V34.8438H183.172V34.9375C183.797 35.3542 184.109 35.8438 184.109 36.4062V41.0938C184.109 43.6979 182.833 45 180.281 45C178.531 45 177.49 44.6328 177.156 43.8984C176.823 44.6328 175.781 45 174.031 45C171.479 45 170.203 43.6979 170.203 41.0938V34.6484C170.203 34.2995 170.315 33.9844 170.539 33.7031C170.763 33.4219 171.172 33.2812 171.766 33.2812C172.411 33.2812 172.846 33.4219 173.07 33.7031C173.294 33.9844 173.406 34.2995 173.406 34.6484C173.406 34.9974 173.312 35.2865 173.125 35.5156C172.896 35.8177 172.573 35.9766 172.156 35.9922V41.0938Z" fill="#D7260F"/>
<path fill-rule="evenodd" clip-rule="evenodd" d="M328.614 33.6139C328.755 33.4733 328.945 33.3943 329.144 33.3943C329.343 33.3943 329.534 33.4733 329.675 33.6139L334.978 38.9172L340.281 33.6139C340.422 33.4733 340.613 33.3943 340.812 33.3943C341.01 33.3943 341.201 33.4733 341.342 33.6139C341.483 33.7546 341.562 33.9454 341.562 34.1443C341.562 34.3432 341.483 34.534 341.342 34.6746L336.039 39.9779L341.342 45.2812C341.483 45.4219 341.562 45.6126 341.562 45.8115C341.562 46.0104 341.483 46.2012 341.342 46.3419C341.201 46.4825 341.01 46.5615 340.812 46.5615C340.613 46.5615 340.422 46.4825 340.281 46.3419L334.978 41.0386L329.675 46.3419C329.534 46.4825 329.343 46.5615 329.144 46.5615C328.945 46.5615 328.755 46.4825 328.614 46.3419C328.473 46.2012 328.394 46.0104 328.394 45.8115C328.394 45.6126 328.473 45.4219 328.614 45.2812L333.917 39.9779L328.614 34.6746C328.473 34.534 328.394 34.3432 328.394 34.1443C328.394 33.9454 328.473 33.7546 328.614 33.6139Z" fill="#344054"/>
<path d="M33.2812 85H31.9531V79.5312C31.9531 76.9271 33.2552 75.625 35.8594 75.625C38.4635 75.625 39.7656 76.9271 39.7656 79.5312V85H38.4375V79.5312C38.4375 77.7083 37.5781 76.7969 35.8594 76.7969C34.1406 76.7969 33.2812 77.7083 33.2812 79.5312V85ZM39.7656 73.2812V74.4531H31.9531V73.2812H39.7656ZM39.7656 73.2812H41.3281C43.4115 73.2812 44.4531 74.3229 44.4531 76.4062V85H43.125V76.4062C43.125 75.1042 42.526 74.4531 41.3281 74.4531H39.7656V73.2812ZM48.3594 83.8281V82.6562H48.1641C48.1068 82.6562 48.0599 82.6823 48.0234 82.7344C47.987 82.7812 47.9688 82.9505 47.9688 83.2422C47.9688 83.5339 47.987 83.7057 48.0234 83.7578C48.0599 83.8047 48.1068 83.8281 48.1641 83.8281H48.3594ZM49.6875 76.4062V83.2422C49.6875 83.9089 49.599 84.3698 49.4219 84.625C49.25 84.875 48.9219 85 48.4375 85C47.9531 85 47.6224 84.875 47.4453 84.625C47.2734 84.3698 47.1875 83.9089 47.1875 83.2422C47.1875 82.5755 47.2734 82.1172 47.4453 81.8672C47.6224 81.612 47.862 81.4844 48.1641 81.4844C48.2318 81.4844 48.2969 81.4896 48.3594 81.5V76.4062C48.2552 76.0417 47.9948 75.651 47.5781 75.2344V74.4531C47.5781 73.6719 47.9688 73.2812 48.75 73.2812H50.0781V74.4531H49.1406C48.8802 74.4531 48.75 74.5833 48.75 74.8438C49.375 75.2604 49.6875 75.7812 49.6875 76.4062ZM55.1172 83.8281C55.1745 83.8281 55.2214 83.8047 55.2578 83.7578C55.2943 83.7057 55.3125 83.5339 55.3125 83.2422C55.3125 82.9505 55.2943 82.7812 55.2578 82.7344C55.2214 82.6823 55.1745 82.6562 55.1172 82.6562H54.9219V83.8281H55.1172ZM54.9219 81.5C54.9844 81.4896 55.0495 81.4844 55.1172 81.4844C55.4193 81.4844 55.6562 81.612 55.8281 81.8672C56.0052 82.1172 56.0938 82.5755 56.0938 83.2422C56.0938 83.9089 56.0052 84.3698 55.8281 84.625C55.6562 84.875 55.3281 85 54.8438 85C54.3594 85 54.0286 84.875 53.8516 84.625C53.6797 84.3698 53.5938 83.9089 53.5938 83.2422V76.4062C53.4896 76.0417 53.2292 75.651 52.8125 75.2344V74.4531C52.8125 73.6719 53.2031 73.2812 53.9844 73.2812H55.3125V74.4531H54.375C54.1146 74.4531 53.9844 74.5833 53.9844 74.8438C54.6094 75.2604 54.9219 75.7812 54.9219 76.4062V81.5ZM60 82.6562V83.8281C60.1094 83.8281 60.2005 83.7995 60.2734 83.7422C60.3516 83.6797 60.3906 83.513 60.3906 83.2422C60.3906 82.9714 60.3516 82.8073 60.2734 82.75C60.2005 82.6875 60.1094 82.6562 60 82.6562ZM72.1094 76.4062V81.0938C72.1094 83.6979 70.9375 85 68.5938 85C66.0677 85 64.8047 83.6979 64.8047 81.0938V79.5312C64.8047 77.7083 64.0312 76.7969 62.4844 76.7969C60.9323 76.7969 60.1562 77.7083 60.1562 79.5312V81.5625C60.276 81.5104 60.4141 81.4844 60.5703 81.4844C60.7266 81.4844 60.8906 81.625 61.0625 81.9062C61.2396 82.1823 61.3281 82.6276 61.3281 83.2422C61.3281 83.8568 61.2135 84.3047 60.9844 84.5859C60.7604 84.862 60.4583 85 60.0781 85C59.6979 85 59.3958 84.8594 59.1719 84.5781C58.9948 84.3646 58.8854 84.0495 58.8438 83.6328H58.8281V79.5312C58.8281 77.9062 59.3021 76.7891 60.25 76.1797C60.0156 75.7891 59.6719 75.474 59.2188 75.2344V74.4531C59.2188 73.6719 59.6094 73.2812 60.3906 73.2812H64.6875V74.4531H60.9375C60.6771 74.4531 60.5469 74.5833 60.5469 74.8438C60.9531 75.0625 61.2734 75.349 61.5078 75.7031C61.8099 75.651 62.1354 75.625 62.4844 75.625C64.9167 75.625 66.1328 76.9271 66.1328 79.5312V81.0938C66.1328 82.9167 66.9531 83.8281 68.5938 83.8281C70.0521 83.8281 70.7812 82.9167 70.7812 81.0938V76.4062C70.7812 76.0417 70.5208 75.651 70 75.2344V74.4531C70 73.6719 70.3906 73.2812 71.1719 73.2812H72.5V74.4531H71.5625C71.3021 74.4531 71.1719 74.5833 71.1719 74.8438C71.7969 75.2604 72.1094 75.7812 72.1094 76.4062ZM70.3203 87.1094H66.6406C66.3802 87.1094 66.25 87.1875 66.25 87.3438C66.25 87.5 66.3802 87.5781 66.6406 87.5781H70.3203V87.1094ZM71.5703 88.9844C71.7266 88.9844 71.8307 88.9635 71.8828 88.9219C71.9349 88.8854 71.9609 88.8385 71.9609 88.7812C71.9609 88.724 71.9297 88.6797 71.8672 88.6484C71.7995 88.6224 71.7005 88.6042 71.5703 88.5938H71.3359C71.3359 88.8542 71.4141 88.9844 71.5703 88.9844ZM71.3359 86.0938H72.5V87.1094H71.3359V87.5781H71.8281C72.2031 87.5781 72.4766 87.6693 72.6484 87.8516C72.8151 88.0339 72.8984 88.2995 72.8984 88.6484C72.8984 89.1068 72.8073 89.4193 72.625 89.5859C72.4427 89.7578 72.1172 89.8438 71.6484 89.8438C70.763 89.8438 70.3203 89.4661 70.3203 88.7109V88.5938H66.25C65.4688 88.5938 65.0781 88.1771 65.0781 87.3438C65.0833 86.5104 65.4766 86.0938 66.2578 86.0938H70.3203V85.3906H71.3359V86.0938ZM67.4219 69.9219H70.9375C69.6406 69.0365 68.599 68.5938 67.8125 68.5938C66.7708 68.5938 66.25 68.8151 66.25 69.2578C66.25 69.7005 66.6406 69.9219 67.4219 69.9219ZM70.9375 68.6328V66.6406H72.1094V70.9375H67.0312C65.7292 70.9375 65.0781 70.4167 65.0781 69.375C65.0781 68.0729 65.9896 67.4219 67.8125 67.4219C68.8542 67.4219 69.8307 67.7734 70.7422 68.4766C70.8099 68.5286 70.875 68.5807 70.9375 68.6328ZM77.1875 82.6562V83.8281C77.2969 83.8281 77.388 83.7995 77.4609 83.7422C77.5391 83.6797 77.5781 83.513 77.5781 83.2422C77.5781 82.9714 77.5391 82.8073 77.4609 82.75C77.388 82.6875 77.2969 82.6562 77.1875 82.6562ZM89.2969 76.4062V81.0938C89.2969 83.6979 88.125 85 85.7812 85C83.2552 85 81.9922 83.6979 81.9922 81.0938V79.5312C81.9922 77.7083 81.2188 76.7969 79.6719 76.7969C78.1198 76.7969 77.3438 77.7083 77.3438 79.5312V81.5625C77.4635 81.5104 77.6016 81.4844 77.7578 81.4844C77.9141 81.4844 78.0781 81.625 78.25 81.9062C78.4271 82.1823 78.5156 82.6276 78.5156 83.2422C78.5156 83.8568 78.401 84.3047 78.1719 84.5859C77.9479 84.862 77.6458 85 77.2656 85C76.8854 85 76.5833 84.8594 76.3594 84.5781C76.1823 84.3646 76.0729 84.0495 76.0312 83.6328H76.0156V79.5312C76.0156 77.9062 76.4896 76.7891 77.4375 76.1797C77.2031 75.7891 76.8594 75.474 76.4062 75.2344V74.4531C76.4062 73.6719 76.7969 73.2812 77.5781 73.2812H81.875V74.4531H78.125C77.8646 74.4531 77.7344 74.5833 77.7344 74.8438C78.1406 75.0625 78.4609 75.349 78.6953 75.7031C78.9974 75.651 79.3229 75.625 79.6719 75.625C82.1042 75.625 83.3203 76.9271 83.3203 79.5312V81.0938C83.3203 82.9167 84.1406 83.8281 85.7812 83.8281C87.2396 83.8281 87.9688 82.9167 87.9688 81.0938V76.4062C87.9688 76.0417 87.7083 75.651 87.1875 75.2344V74.4531C87.1875 73.6719 87.5781 73.2812 88.3594 73.2812H89.6875V74.4531H88.75C88.4896 74.4531 88.3594 74.5833 88.3594 74.8438C88.9844 75.2604 89.2969 75.7812 89.2969 76.4062ZM89.2969 85.7812V90.0781H87.9688V85.7812H89.2969ZM85 69.1797C85 69.3724 85.0495 69.5182 85.1484 69.6172C85.2474 69.7161 85.3932 69.7656 85.5859 69.7656C85.7839 69.7656 85.9323 69.7161 86.0312 69.6172C86.125 69.5182 86.1719 69.3724 86.1719 69.1797C86.1719 68.9818 86.125 68.8359 86.0312 68.7422C85.9323 68.6432 85.7839 68.5938 85.5859 68.5938C85.3932 68.5938 85.2474 68.6432 85.1484 68.7422C85.0495 68.8359 85 68.9818 85 69.1797ZM87.3438 69.1797C87.3438 69.7682 87.1979 70.2083 86.9062 70.5C86.6146 70.7917 86.1745 70.9375 85.5859 70.9375C84.9974 70.9375 84.5573 70.7917 84.2656 70.5C83.974 70.2083 83.8281 69.7682 83.8281 69.1797C83.8281 68.5911 83.974 68.151 84.2656 67.8594C84.5573 67.5677 84.9974 67.4219 85.5859 67.4219C86.1745 67.4219 86.6146 67.5677 86.9062 67.8594C87.1979 68.151 87.3438 68.5911 87.3438 69.1797ZM93.2031 76.4062C93.2031 76.0417 93.0729 75.651 92.8125 75.2344V74.8438C92.8125 73.8021 93.3333 73.2812 94.375 73.2812H101.016V74.4531H94.9219C94.401 74.4531 94.1406 74.6094 94.1406 74.9219C94.401 75.3385 94.5312 75.8333 94.5312 76.4062V81.0938C94.5312 82.9167 95.3906 83.8281 97.1094 83.8281C98.8281 83.8281 99.6875 82.9167 99.6875 81.0938V76.4062H101.016V85.7812H99.6875V84.3203C99.0521 84.7734 98.1927 85 97.1094 85C94.5052 85 93.2031 83.6979 93.2031 81.0938V76.4062ZM100.625 73.2812H102.188C104.271 73.2812 105.312 74.3229 105.312 76.4062V85H103.984V76.4062C103.984 75.1042 103.385 74.4531 102.188 74.4531H100.625V73.2812ZM117.031 80.2344V81.875C117.031 83.9583 116.302 85 114.844 85C113.771 85 112.977 84.6745 112.461 84.0234C111.945 83.3724 111.307 83.0469 110.547 83.0469V85H109.219V80.3125H110.547V81.875C111.458 81.875 112.198 82.2005 112.766 82.8516C113.339 83.5026 113.919 83.8281 114.508 83.8281C115.305 83.8281 115.703 83.1771 115.703 81.875V81.0938C111.38 80.1562 109.219 78.5938 109.219 76.4062C109.219 74.3229 110.521 73.2812 113.125 73.2812C115.729 73.2812 117.031 74.3229 117.031 76.4062C117.031 77.8594 116.307 78.5859 114.859 78.5859C114.531 78.5859 114.266 78.5104 114.062 78.3594V77.1875C114.432 77.2969 114.734 77.3516 114.969 77.3516C115.458 77.3516 115.703 77.0365 115.703 76.4062C115.703 75.1042 114.844 74.4531 113.125 74.4531C111.406 74.4531 110.547 75.1042 110.547 76.4062C110.547 77.9688 112.708 79.2448 117.031 80.2344ZM122.461 83.8281C122.518 83.8281 122.565 83.8047 122.602 83.7578C122.638 83.7057 122.656 83.5339 122.656 83.2422C122.656 82.9505 122.638 82.7812 122.602 82.7344C122.565 82.6823 122.518 82.6562 122.461 82.6562H122.266V83.8281H122.461ZM122.266 81.5C122.328 81.4896 122.393 81.4844 122.461 81.4844C122.763 81.4844 123 81.612 123.172 81.8672C123.349 82.1172 123.438 82.5755 123.438 83.2422C123.438 83.9089 123.349 84.3698 123.172 84.625C123 84.875 122.672 85 122.188 85C121.703 85 121.372 84.875 121.195 84.625C121.023 84.3698 120.938 83.9089 120.938 83.2422V76.4062C120.833 76.0417 120.573 75.651 120.156 75.2344V74.4531C120.156 73.6719 120.547 73.2812 121.328 73.2812H122.656V74.4531H121.719C121.458 74.4531 121.328 74.5833 121.328 74.8438C121.953 75.2604 122.266 75.7812 122.266 76.4062V81.5ZM127.5 85H126.172V79.5312C126.172 76.9271 127.474 75.625 130.078 75.625C132.682 75.625 133.984 76.9271 133.984 79.5312V85H132.656V79.5312C132.656 77.7083 131.797 76.7969 130.078 76.7969C128.359 76.7969 127.5 77.7083 127.5 79.5312V85ZM133.984 73.2812V74.4531H126.172V73.2812H133.984ZM129.297 69.9219H132.812C131.516 69.0365 130.474 68.5938 129.688 68.5938C128.646 68.5938 128.125 68.8151 128.125 69.2578C128.125 69.7005 128.516 69.9219 129.297 69.9219ZM132.812 68.6328V66.6406H133.984V70.9375H128.906C127.604 70.9375 126.953 70.4167 126.953 69.375C126.953 68.0729 127.865 67.4219 129.688 67.4219C130.729 67.4219 131.706 67.7734 132.617 68.4766C132.685 68.5286 132.75 68.5807 132.812 68.6328ZM145.703 80.2344V81.875C145.703 83.9583 144.974 85 143.516 85C142.443 85 141.648 84.6745 141.133 84.0234C140.617 83.3724 139.979 83.0469 139.219 83.0469V85H137.891V80.3125H139.219V81.875C140.13 81.875 140.87 82.2005 141.438 82.8516C142.01 83.5026 142.591 83.8281 143.18 83.8281C143.977 83.8281 144.375 83.1771 144.375 81.875V81.0938C140.052 80.1562 137.891 78.5938 137.891 76.4062C137.891 74.3229 139.193 73.2812 141.797 73.2812C144.401 73.2812 145.703 74.3229 145.703 76.4062C145.703 77.8594 144.979 78.5859 143.531 78.5859C143.203 78.5859 142.938 78.5104 142.734 78.3594V77.1875C143.104 77.2969 143.406 77.3516 143.641 77.3516C144.13 77.3516 144.375 77.0365 144.375 76.4062C144.375 75.1042 143.516 74.4531 141.797 74.4531C140.078 74.4531 139.219 75.1042 139.219 76.4062C139.219 77.9688 141.38 79.2448 145.703 80.2344ZM151.133 83.8281C151.19 83.8281 151.237 83.8047 151.273 83.7578C151.31 83.7057 151.328 83.5339 151.328 83.2422C151.328 82.9505 151.31 82.7812 151.273 82.7344C151.237 82.6823 151.19 82.6562 151.133 82.6562H150.938V83.8281H151.133ZM150.938 81.5C151 81.4896 151.065 81.4844 151.133 81.4844C151.435 81.4844 151.672 81.612 151.844 81.8672C152.021 82.1172 152.109 82.5755 152.109 83.2422C152.109 83.9089 152.021 84.3698 151.844 84.625C151.672 84.875 151.344 85 150.859 85C150.375 85 150.044 84.875 149.867 84.625C149.695 84.3698 149.609 83.9089 149.609 83.2422V76.4062C149.505 76.0417 149.245 75.651 148.828 75.2344V74.4531C148.828 73.6719 149.219 73.2812 150 73.2812H151.328V74.4531H150.391C150.13 74.4531 150 74.5833 150 74.8438C150.625 75.2604 150.938 75.7812 150.938 76.4062V81.5ZM161.562 80.3828C161.599 80.3932 161.635 80.3984 161.672 80.3984C161.807 80.3984 161.875 80.2917 161.875 80.0781C161.875 79.8698 161.823 79.7656 161.719 79.7656C161.615 79.7656 161.562 79.8672 161.562 80.0703V80.3828ZM161.562 81.0859V81.875C161.562 83.9583 160.625 85 158.75 85C156.875 85 155.938 83.9583 155.938 81.875V80.3125H157.266V81.875C157.266 83.1771 157.76 83.8281 158.75 83.8281C159.74 83.8281 160.234 83.1771 160.234 81.875V80.8984C156.641 79.862 154.844 78.3646 154.844 76.4062C154.844 74.3229 156.146 73.2812 158.75 73.2812C161.354 73.2812 162.656 74.3229 162.656 76.4062C162.656 77.8594 161.932 78.5859 160.484 78.5859C160.156 78.5859 159.891 78.5104 159.688 78.3594V77.1875C160.057 77.2969 160.359 77.3516 160.594 77.3516C161.083 77.3516 161.328 77.0365 161.328 76.4062C161.328 75.1042 160.469 74.4531 158.75 74.4531C157.031 74.4531 156.172 75.1042 156.172 76.4062C156.172 78.0156 157.526 79.1484 160.234 79.8047C160.234 79.3099 160.599 79.0625 161.328 79.0625C162.214 79.0625 162.656 79.388 162.656 80.0391C162.656 80.4297 162.568 80.7057 162.391 80.8672C162.214 81.0286 162.023 81.1094 161.82 81.1094C161.737 81.1094 161.651 81.1016 161.562 81.0859ZM161.328 86.9531C161.328 86.7344 161.289 86.625 161.211 86.625C161.133 86.625 161.094 86.7344 161.094 86.9531V87.3438H160.078V86.9531C160.078 86.5729 160.164 86.2812 160.336 86.0781C160.513 85.8802 160.857 85.7812 161.367 85.7812C161.878 85.7812 162.219 85.8802 162.391 86.0781C162.568 86.2812 162.656 86.5729 162.656 86.9531V88.9062L164.609 86.9531L166.562 88.9062V76.4062C166.562 76.0417 166.302 75.651 165.781 75.2344V74.4531C165.781 73.6719 166.172 73.2812 166.953 73.2812H168.281V74.4531H167.344C167.083 74.4531 166.953 74.5833 166.953 74.8438C167.578 75.2604 167.891 75.7812 167.891 76.4062V90.0781H166.172L164.609 88.5156L163.047 90.0781H161.328V86.9531ZM162.812 69.9219H166.328C165.031 69.0365 163.99 68.5938 163.203 68.5938C162.161 68.5938 161.641 68.8151 161.641 69.2578C161.641 69.7005 162.031 69.9219 162.812 69.9219ZM166.328 68.6328V66.6406H167.5V70.9375H162.422C161.12 70.9375 160.469 70.4167 160.469 69.375C160.469 68.0729 161.38 67.4219 163.203 67.4219C164.245 67.4219 165.221 67.7734 166.133 68.4766C166.201 68.5286 166.266 68.5807 166.328 68.6328ZM177.266 74.4688C177.266 74.3125 177.161 74.2344 176.953 74.2344C176.745 74.2344 176.641 74.3125 176.641 74.4688C176.641 74.6094 176.745 74.75 176.953 74.8906C177.161 74.7812 177.266 74.6406 177.266 74.4688ZM171.211 78.3594C171.154 78.3594 171.107 78.3854 171.07 78.4375C171.034 78.4844 171.016 78.6536 171.016 78.9453C171.016 79.237 171.034 79.4089 171.07 79.4609C171.107 79.5078 171.154 79.5312 171.211 79.5312H171.406V78.3594H171.211ZM172.734 83.4375L175.312 81.0938L177.891 83.4375V77.9688C177.891 77.4062 177.469 76.8099 176.625 76.1797C176.198 76.5911 175.474 76.7969 174.453 76.7969C173.318 76.7969 172.526 76.6484 172.078 76.3516C171.63 76.0547 171.406 75.6432 171.406 75.1172C171.406 74.5964 171.51 74.1094 171.719 73.6562C171.927 73.1979 172.031 72.8255 172.031 72.5391C172.031 72.2526 171.693 72.1094 171.016 72.1094V70.9375C172.474 70.9375 173.203 71.4323 173.203 72.4219C173.203 72.8125 173.099 73.25 172.891 73.7344C172.682 74.2135 172.578 74.5547 172.578 74.7578C172.578 74.9661 172.708 75.1641 172.969 75.3516C173.229 75.5339 173.742 75.625 174.508 75.625C175.169 75.625 175.646 75.5391 175.938 75.3672C175.677 75.1536 175.547 74.8229 175.547 74.375C175.547 73.6458 176.016 73.2812 176.953 73.2812C177.943 73.2812 178.438 73.724 178.438 74.6094C178.438 75.0625 178.234 75.4479 177.828 75.7656C178.755 76.4375 179.219 77.1719 179.219 77.9688V85H177.656L175.312 82.6562L172.969 85H171.406V80.6875C171.344 80.6979 171.279 80.7031 171.211 80.7031C170.909 80.7031 170.669 80.5781 170.492 80.3281C170.32 80.0729 170.234 79.612 170.234 78.9453C170.234 78.2786 170.32 77.8203 170.492 77.5703C170.669 77.3151 171 77.1875 171.484 77.1875C171.969 77.1875 172.297 77.3151 172.469 77.5703C172.646 77.8203 172.734 78.2786 172.734 78.9453V83.4375ZM184.648 83.8281C184.706 83.8281 184.753 83.8047 184.789 83.7578C184.826 83.7057 184.844 83.5339 184.844 83.2422C184.844 82.9505 184.826 82.7812 184.789 82.7344C184.753 82.6823 184.706 82.6562 184.648 82.6562H184.453V83.8281H184.648ZM184.453 81.5C184.516 81.4896 184.581 81.4844 184.648 81.4844C184.951 81.4844 185.188 81.612 185.359 81.8672C185.536 82.1172 185.625 82.5755 185.625 83.2422C185.625 83.9089 185.536 84.3698 185.359 84.625C185.188 84.875 184.859 85 184.375 85C183.891 85 183.56 84.875 183.383 84.625C183.211 84.3698 183.125 83.9089 183.125 83.2422V76.4062C183.021 76.0417 182.76 75.651 182.344 75.2344V74.4531C182.344 73.6719 182.734 73.2812 183.516 73.2812H184.844V74.4531H183.906C183.646 74.4531 183.516 74.5833 183.516 74.8438C184.141 75.2604 184.453 75.7812 184.453 76.4062V81.5ZM189.531 82.6562V83.8281C189.641 83.8281 189.732 83.7995 189.805 83.7422C189.883 83.6797 189.922 83.513 189.922 83.2422C189.922 82.9714 189.883 82.8073 189.805 82.75C189.732 82.6875 189.641 82.6562 189.531 82.6562ZM201.641 76.4062V81.0938C201.641 83.6979 200.469 85 198.125 85C195.599 85 194.336 83.6979 194.336 81.0938V77.1875C194.336 75.3646 193.562 74.4531 192.016 74.4531C190.464 74.4531 189.688 75.3646 189.688 77.1875V81.5625C189.807 81.5104 189.945 81.4844 190.102 81.4844C190.258 81.4844 190.422 81.625 190.594 81.9062C190.771 82.1823 190.859 82.6276 190.859 83.2422C190.859 83.8568 190.745 84.3047 190.516 84.5859C190.292 84.862 189.99 85 189.609 85C189.229 85 188.927 84.8594 188.703 84.5781C188.526 84.3646 188.417 84.0495 188.375 83.6328H188.359V77.1875C188.359 74.5833 189.578 73.2812 192.016 73.2812C194.448 73.2812 195.664 74.5833 195.664 77.1875V81.0938C195.664 82.9167 196.484 83.8281 198.125 83.8281C199.583 83.8281 200.312 82.9167 200.312 81.0938V76.4062C200.312 76.0417 200.052 75.651 199.531 75.2344V74.4531C199.531 73.6719 199.922 73.2812 200.703 73.2812H202.031V74.4531H201.094C200.833 74.4531 200.703 74.5833 200.703 74.8438C201.328 75.2604 201.641 75.7812 201.641 76.4062ZM196.953 69.9219H200.469C199.172 69.0365 198.13 68.5938 197.344 68.5938C196.302 68.5938 195.781 68.8151 195.781 69.2578C195.781 69.7005 196.172 69.9219 196.953 69.9219ZM200.469 68.6328V66.6406H201.641V70.9375H196.562C195.26 70.9375 194.609 70.4167 194.609 69.375C194.609 68.0729 195.521 67.4219 197.344 67.4219C198.385 67.4219 199.362 67.7734 200.273 68.4766C200.341 68.5286 200.406 68.5807 200.469 68.6328ZM206.719 82.6562V83.8281C206.828 83.8281 206.919 83.7995 206.992 83.7422C207.07 83.6797 207.109 83.513 207.109 83.2422C207.109 82.9714 207.07 82.8073 206.992 82.75C206.919 82.6875 206.828 82.6562 206.719 82.6562ZM218.828 76.4062V81.0938C218.828 83.6979 217.656 85 215.312 85C212.786 85 211.523 83.6979 211.523 81.0938V79.5312C211.523 77.7083 210.75 76.7969 209.203 76.7969C207.651 76.7969 206.875 77.7083 206.875 79.5312V81.5625C206.995 81.5104 207.133 81.4844 207.289 81.4844C207.445 81.4844 207.609 81.625 207.781 81.9062C207.958 82.1823 208.047 82.6276 208.047 83.2422C208.047 83.8568 207.932 84.3047 207.703 84.5859C207.479 84.862 207.177 85 206.797 85C206.417 85 206.115 84.8594 205.891 84.5781C205.714 84.3646 205.604 84.0495 205.562 83.6328H205.547V79.5312C205.547 77.9062 206.021 76.7891 206.969 76.1797C206.734 75.7891 206.391 75.474 205.938 75.2344V74.4531C205.938 73.6719 206.328 73.2812 207.109 73.2812H211.406V74.4531H207.656C207.396 74.4531 207.266 74.5833 207.266 74.8438C207.672 75.0625 207.992 75.349 208.227 75.7031C208.529 75.651 208.854 75.625 209.203 75.625C211.635 75.625 212.852 76.9271 212.852 79.5312V81.0938C212.852 82.9167 213.672 83.8281 215.312 83.8281C216.771 83.8281 217.5 82.9167 217.5 81.0938V76.4062C217.5 76.0417 217.24 75.651 216.719 75.2344V74.4531C216.719 73.6719 217.109 73.2812 217.891 73.2812H219.219V74.4531H218.281C218.021 74.4531 217.891 74.5833 217.891 74.8438C218.516 75.2604 218.828 75.7812 218.828 76.4062ZM223.906 82.6562V83.8281C224.016 83.8281 224.107 83.7995 224.18 83.7422C224.258 83.6797 224.297 83.513 224.297 83.2422C224.297 82.9714 224.258 82.8073 224.18 82.75C224.107 82.6875 224.016 82.6562 223.906 82.6562ZM222.734 75.625L224.766 73.2812L226.641 74.8438L228.516 73.2812L230.547 75.625V85H229.219V75.9375L228.438 74.9609L226.641 76.25L224.844 74.9609L224.062 75.9375V81.5625C224.182 81.5104 224.32 81.4844 224.477 81.4844C224.633 81.4844 224.797 81.625 224.969 81.9062C225.146 82.1823 225.234 82.6276 225.234 83.2422C225.234 83.8568 225.12 84.3047 224.891 84.5859C224.667 84.862 224.365 85 223.984 85C223.604 85 223.302 84.8594 223.078 84.5781C222.901 84.3646 222.792 84.0495 222.75 83.6328H222.734V75.625ZM225.859 69.9219H229.375C228.078 69.0365 227.036 68.5938 226.25 68.5938C225.208 68.5938 224.688 68.8151 224.688 69.2578C224.688 69.7005 225.078 69.9219 225.859 69.9219ZM229.375 68.6328V66.6406H230.547V70.9375H225.469C224.167 70.9375 223.516 70.4167 223.516 69.375C223.516 68.0729 224.427 67.4219 226.25 67.4219C227.292 67.4219 228.268 67.7734 229.18 68.4766C229.247 68.5286 229.312 68.5807 229.375 68.6328ZM235.977 83.8281C236.034 83.8281 236.081 83.8047 236.117 83.7578C236.154 83.7057 236.172 83.5339 236.172 83.2422C236.172 82.9505 236.154 82.7812 236.117 82.7344C236.081 82.6823 236.034 82.6562 235.977 82.6562H235.781V83.8281H235.977ZM235.781 81.5C235.844 81.4896 235.909 81.4844 235.977 81.4844C236.279 81.4844 236.516 81.612 236.688 81.8672C236.865 82.1172 236.953 82.5755 236.953 83.2422C236.953 83.9089 236.865 84.3698 236.688 84.625C236.516 84.875 236.188 85 235.703 85C235.219 85 234.888 84.875 234.711 84.625C234.539 84.3698 234.453 83.9089 234.453 83.2422V76.4062C234.349 76.0417 234.089 75.651 233.672 75.2344V74.4531C233.672 73.6719 234.062 73.2812 234.844 73.2812H236.172V74.4531H235.234C234.974 74.4531 234.844 74.5833 234.844 74.8438C235.469 75.2604 235.781 75.7812 235.781 76.4062V81.5ZM234.727 71.4062C235.247 71.4062 235.508 71.1198 235.508 70.5469C235.508 69.4531 235.117 68.9062 234.336 68.9062C233.997 68.9062 233.711 69.0104 233.477 69.2188L233.086 68.2812C233.424 67.9688 233.841 67.8125 234.336 67.8125C235.846 67.8125 236.602 68.724 236.602 70.5469C236.602 71.849 235.977 72.5 234.727 72.5C233.633 72.5 233.086 72.0625 233.086 71.1875C233.086 70.7552 233.182 70.4505 233.375 70.2734C233.573 70.0911 233.917 70 234.406 70V70.9375C234.255 70.9375 234.18 71.0156 234.18 71.1719C234.18 71.3281 234.362 71.4062 234.727 71.4062ZM239.688 76.4062H241.016V83.4375L243.594 81.0938L246.172 83.4375V76.4062H247.5V85H246.328L243.594 82.6562L240.859 85H239.688V76.4062ZM241.016 74.5234C241.016 74.737 241.875 74.8438 243.594 74.8438C245.312 74.8438 246.172 74.3229 246.172 73.2812V72.1094H247.5V73.2812C247.5 75.1042 246.198 76.0156 243.594 76.0156C240.99 76.0156 239.688 75.5208 239.688 74.5312C239.688 73.6979 240.12 73.2812 240.984 73.2812C241.531 73.2812 241.906 73.3568 242.109 73.5078V74.5234C241.74 74.4141 241.466 74.3594 241.289 74.3594C241.107 74.3594 241.016 74.4141 241.016 74.5234ZM259.219 80.2344V81.875C259.219 83.9583 258.49 85 257.031 85C255.958 85 255.164 84.6745 254.648 84.0234C254.133 83.3724 253.495 83.0469 252.734 83.0469V85H251.406V80.3125H252.734V81.875C253.646 81.875 254.385 82.2005 254.953 82.8516C255.526 83.5026 256.107 83.8281 256.695 83.8281C257.492 83.8281 257.891 83.1771 257.891 81.875V81.0938C253.568 80.1562 251.406 78.5938 251.406 76.4062C251.406 74.3229 252.708 73.2812 255.312 73.2812C257.917 73.2812 259.219 74.3229 259.219 76.4062C259.219 77.8594 258.495 78.5859 257.047 78.5859C256.719 78.5859 256.453 78.5104 256.25 78.3594V77.1875C256.62 77.2969 256.922 77.3516 257.156 77.3516C257.646 77.3516 257.891 77.0365 257.891 76.4062C257.891 75.1042 257.031 74.4531 255.312 74.4531C253.594 74.4531 252.734 75.1042 252.734 76.4062C252.734 77.9688 254.896 79.2448 259.219 80.2344ZM264.453 85H263.125V79.5312C263.125 76.9271 264.427 75.625 267.031 75.625C269.635 75.625 270.938 76.9271 270.938 79.5312V85H269.609V79.5312C269.609 77.7083 268.75 76.7969 267.031 76.7969C265.312 76.7969 264.453 77.7083 264.453 79.5312V85ZM270.938 73.2812V74.4531H263.125V73.2812H270.938ZM266.641 69.1797C266.641 69.3724 266.69 69.5182 266.789 69.6172C266.888 69.7161 267.034 69.7656 267.227 69.7656C267.424 69.7656 267.573 69.7161 267.672 69.6172C267.766 69.5182 267.812 69.3724 267.812 69.1797C267.812 68.9818 267.766 68.8359 267.672 68.7422C267.573 68.6432 267.424 68.5938 267.227 68.5938C267.034 68.5938 266.888 68.6432 266.789 68.7422C266.69 68.8359 266.641 68.9818 266.641 69.1797ZM268.984 69.1797C268.984 69.7682 268.839 70.2083 268.547 70.5C268.255 70.7917 267.815 70.9375 267.227 70.9375C266.638 70.9375 266.198 70.7917 265.906 70.5C265.615 70.2083 265.469 69.7682 265.469 69.1797C265.469 68.5911 265.615 68.151 265.906 67.8594C266.198 67.5677 266.638 67.4219 267.227 67.4219C267.815 67.4219 268.255 67.5677 268.547 67.8594C268.839 68.151 268.984 68.5911 268.984 69.1797ZM276.016 82.6562V83.8281C276.125 83.8281 276.216 83.7995 276.289 83.7422C276.367 83.6797 276.406 83.513 276.406 83.2422C276.406 82.9714 276.367 82.8073 276.289 82.75C276.216 82.6875 276.125 82.6562 276.016 82.6562ZM274.844 77.1875C274.844 74.5833 275.932 73.2812 278.109 73.2812C280.281 73.2812 281.367 74.5833 281.367 77.1875V83.6719L283.438 80.9375L285.508 83.6719V77.1875C285.508 74.5833 286.596 73.2812 288.773 73.2812C290.945 73.2812 292.031 74.5833 292.031 77.1875V85H290.703V77.1875C290.703 75.3646 290.06 74.4531 288.773 74.4531C287.482 74.4531 286.836 75.3646 286.836 77.1875V85H285.117L283.438 82.6562L281.758 85H280.039V77.1875C280.039 75.3646 279.37 74.4531 278.031 74.4531C276.792 74.4531 276.172 75.3646 276.172 77.1875V81.5625C276.292 81.5104 276.43 81.4844 276.586 81.4844C276.742 81.4844 276.906 81.625 277.078 81.9062C277.255 82.1823 277.344 82.6276 277.344 83.2422C277.344 83.8568 277.229 84.3047 277 84.5859C276.776 84.862 276.474 85 276.094 85C275.714 85 275.411 84.8594 275.188 84.5781C275.01 84.3646 274.901 84.0495 274.859 83.6328H274.844V77.1875ZM297.109 82.6562V83.8281C297.219 83.8281 297.31 83.7995 297.383 83.7422C297.461 83.6797 297.5 83.513 297.5 83.2422C297.5 82.9714 297.461 82.8073 297.383 82.75C297.31 82.6875 297.219 82.6562 297.109 82.6562ZM303.75 73.2812V74.4531H295.938V73.2812H303.75ZM295.938 79.5312C295.938 76.9271 297.24 75.625 299.844 75.625C302.448 75.625 303.75 76.9271 303.75 79.5312V85H302.422V79.5312C302.422 77.7083 301.562 76.7969 299.844 76.7969C298.125 76.7969 297.266 77.7083 297.266 79.5312V81.5625C297.385 81.5104 297.523 81.4844 297.68 81.4844C297.836 81.4844 298 81.625 298.172 81.9062C298.349 82.1823 298.438 82.6276 298.438 83.2422C298.438 83.8568 298.323 84.3047 298.094 84.5859C297.87 84.862 297.568 85 297.188 85C296.807 85 296.505 84.8594 296.281 84.5781C296.104 84.3646 295.995 84.0495 295.953 83.6328H295.938V79.5312ZM300.43 67.4219V70.9375H299.258V67.4219H300.43ZM312.578 74.875V73.2812H313.906V84.9609H312.578V76.2969C311.76 76.8906 310.901 77.1875 310 77.1875C308.438 77.1875 307.656 76.5365 307.656 75.2344C307.656 73.9323 308.229 73.2812 309.375 73.2812C309.792 73.2812 310.208 73.5026 310.625 73.9453L310.234 74.9375C309.896 74.6146 309.635 74.4531 309.453 74.4531C309.141 74.4531 308.984 74.7135 308.984 75.2344C308.984 75.7552 309.323 76.0156 310 76.0156C310.922 76.0156 311.781 75.6354 312.578 74.875Z" fill="#344054"/>
<rect x="30.75" y="128.75" width="128.5" height="38.5" rx="9.25" fill="white"/>
<path d="M48.96 149.949V150.975C49.0557 150.975 49.1354 150.95 49.1992 150.899C49.2676 150.845 49.3018 150.699 49.3018 150.462C49.3018 150.225 49.2676 150.081 49.1992 150.031C49.1354 149.977 49.0557 149.949 48.96 149.949ZM47.9346 143.797L49.7119 141.746L51.3525 143.113L52.9932 141.746L54.7705 143.797V152H53.6084V144.07L52.9248 143.216L51.3525 144.344L49.7803 143.216L49.0967 144.07V148.992C49.2015 148.947 49.3223 148.924 49.459 148.924C49.5957 148.924 49.7393 149.047 49.8896 149.293C50.0446 149.535 50.1221 149.924 50.1221 150.462C50.1221 151 50.0218 151.392 49.8213 151.638C49.6253 151.879 49.361 152 49.0283 152C48.6956 152 48.4313 151.877 48.2354 151.631C48.0804 151.444 47.9847 151.168 47.9482 150.804H47.9346V143.797ZM58.8721 144.48V153.709C58.8721 155.532 57.9948 156.443 56.2402 156.443C54.4857 156.443 53.6084 155.532 53.6084 153.709V152.684H54.7705V153.709C54.7705 154.848 55.2604 155.418 56.2402 155.418C57.2201 155.418 57.71 154.848 57.71 153.709V144.48C57.71 144.161 57.4821 143.82 57.0264 143.455V142.771C57.0264 142.088 57.3682 141.746 58.0518 141.746H59.2139V142.771H58.3936C58.1657 142.771 58.0518 142.885 58.0518 143.113C58.5986 143.478 58.8721 143.934 58.8721 144.48ZM58.8721 141.746H60.2393C62.0622 141.746 62.9736 142.658 62.9736 144.48V152H61.8115V144.48C61.8115 143.341 61.2874 142.771 60.2393 142.771H58.8721V141.746ZM67.5537 143.284C67.6494 143.284 67.7292 143.255 67.793 143.195C67.8613 143.136 67.8955 143.052 67.8955 142.942C67.8955 142.833 67.8613 142.749 67.793 142.689C67.7292 142.63 67.6494 142.601 67.5537 142.601V143.284ZM76.8506 144.48C76.8506 144.161 76.6227 143.82 76.167 143.455V142.771C76.167 142.088 76.5088 141.746 77.1924 141.746H78.3545V142.771H77.5342C77.3063 142.771 77.1924 142.885 77.1924 143.113C77.7393 143.478 78.0127 143.934 78.0127 144.48V148.582C78.0127 150.861 76.9873 152 74.9365 152C73.5693 152 72.6579 151.494 72.2021 150.482C71.7464 151.494 70.835 152 69.4678 152C67.417 152 66.3916 150.861 66.3916 148.582V142.942C66.3916 142.587 66.4782 142.3 66.6514 142.081C66.8291 141.858 67.1185 141.746 67.5195 141.746C67.9206 141.746 68.2077 141.858 68.3809 142.081C68.5586 142.3 68.6475 142.587 68.6475 142.942C68.6475 143.298 68.5586 143.585 68.3809 143.804C68.2305 144 68.0003 144.098 67.6904 144.098C67.6449 144.098 67.5993 144.095 67.5537 144.091V148.582C67.5537 150.177 68.1917 150.975 69.4678 150.975C70.9033 150.975 71.6211 150.177 71.6211 148.582V144.48C71.6211 144.161 71.3932 143.82 70.9375 143.455V142.771C70.9375 142.088 71.2793 141.746 71.9629 141.746H73.125V142.771H72.3047C72.0768 142.771 71.9629 142.885 71.9629 143.113C72.5098 143.478 72.7832 143.934 72.7832 144.48V148.582C72.7832 150.177 73.501 150.975 74.9365 150.975C76.2126 150.975 76.8506 150.177 76.8506 148.582V144.48ZM78.0127 141.746H79.3799C81.2028 141.746 82.1143 142.658 82.1143 144.48V152H80.9521V144.48C80.9521 143.341 80.4281 142.771 79.3799 142.771H78.0127V141.746ZM86.6943 147.215V148.582C86.6943 150.177 87.4463 150.975 88.9502 150.975C90.4541 150.975 91.2061 150.177 91.2061 148.582V147.215H86.6943ZM86.6943 146.189H91.2061V144.48C91.2061 144.161 90.9782 143.82 90.5225 143.455V142.771C90.5225 142.088 90.8643 141.746 91.5479 141.746H92.71V142.771H91.8896C91.6618 142.771 91.5479 142.885 91.5479 143.113C92.0947 143.478 92.3682 143.934 92.3682 144.48V148.582C92.3682 150.861 91.2288 152 88.9502 152C86.6715 152 85.5322 150.861 85.5322 148.582V144.48C85.5322 144.161 85.3044 143.82 84.8486 143.455V142.771C84.8486 142.088 85.1904 141.746 85.874 141.746H87.0361V142.771H86.2158C85.988 142.771 85.874 142.885 85.874 143.113C86.4209 143.478 86.6943 143.934 86.6943 144.48V146.189ZM96.9482 147.215V148.582C96.9482 150.177 97.7002 150.975 99.2041 150.975C100.708 150.975 101.46 150.177 101.46 148.582V147.215H96.9482ZM96.9482 146.189H101.46V144.48C101.46 144.161 101.232 143.82 100.776 143.455V142.771C100.776 142.088 101.118 141.746 101.802 141.746H102.964V142.771H102.144C101.916 142.771 101.802 142.885 101.802 143.113C102.349 143.478 102.622 143.934 102.622 144.48V148.582C102.622 150.861 101.483 152 99.2041 152C96.9255 152 95.7861 150.861 95.7861 148.582V144.48C95.7861 144.161 95.5583 143.82 95.1025 143.455V142.771C95.1025 142.088 95.4443 141.746 96.1279 141.746H97.29V142.771H96.4697C96.2419 142.771 96.1279 142.885 96.1279 143.113C96.6748 143.478 96.9482 143.934 96.9482 144.48V146.189ZM97.1533 155.76C97.249 155.76 97.3083 155.737 97.3311 155.691C97.3493 155.65 97.3584 155.593 97.3584 155.521C97.3584 155.448 97.3493 155.388 97.3311 155.343C97.3083 155.302 97.249 155.281 97.1533 155.281V155.76ZM96.1279 154.598C96.1279 153.322 97.1533 152.684 99.2041 152.684C101.255 152.684 102.28 153.367 102.28 154.734V156.443H101.255V154.734C101.255 154.051 100.571 153.709 99.2041 153.709C97.8369 153.709 97.1533 154.005 97.1533 154.598C97.4404 154.598 97.6615 154.673 97.8164 154.823C97.9668 154.978 98.042 155.211 98.042 155.521C98.042 155.83 97.9554 156.061 97.7822 156.211C97.6045 156.366 97.3721 156.443 97.085 156.443C96.7979 156.443 96.5677 156.366 96.3945 156.211C96.2168 156.061 96.1279 155.83 96.1279 155.521V154.598ZM111.167 142.785C111.167 142.648 111.076 142.58 110.894 142.58C110.711 142.58 110.62 142.648 110.62 142.785C110.62 142.908 110.711 143.031 110.894 143.154C111.076 143.059 111.167 142.936 111.167 142.785ZM105.869 146.189C105.819 146.189 105.778 146.212 105.746 146.258C105.714 146.299 105.698 146.447 105.698 146.702C105.698 146.957 105.714 147.108 105.746 147.153C105.778 147.194 105.819 147.215 105.869 147.215H106.04V146.189H105.869ZM107.202 150.633L109.458 148.582L111.714 150.633V145.848C111.714 145.355 111.345 144.834 110.606 144.282C110.233 144.642 109.599 144.822 108.706 144.822C107.713 144.822 107.02 144.692 106.628 144.433C106.236 144.173 106.04 143.813 106.04 143.353C106.04 142.897 106.131 142.471 106.313 142.074C106.496 141.673 106.587 141.347 106.587 141.097C106.587 140.846 106.291 140.721 105.698 140.721V139.695C106.974 139.695 107.612 140.128 107.612 140.994C107.612 141.336 107.521 141.719 107.339 142.143C107.157 142.562 107.065 142.86 107.065 143.038C107.065 143.22 107.179 143.394 107.407 143.558C107.635 143.717 108.084 143.797 108.754 143.797C109.333 143.797 109.75 143.722 110.005 143.571C109.777 143.384 109.663 143.095 109.663 142.703C109.663 142.065 110.073 141.746 110.894 141.746C111.759 141.746 112.192 142.133 112.192 142.908C112.192 143.305 112.015 143.642 111.659 143.92C112.47 144.508 112.876 145.15 112.876 145.848V152H111.509L109.458 149.949L107.407 152H106.04V148.227C105.985 148.236 105.928 148.24 105.869 148.24C105.605 148.24 105.395 148.131 105.24 147.912C105.09 147.689 105.015 147.285 105.015 146.702C105.015 146.119 105.09 145.718 105.24 145.499C105.395 145.276 105.685 145.164 106.108 145.164C106.532 145.164 106.819 145.276 106.97 145.499C107.125 145.718 107.202 146.119 107.202 146.702V150.633ZM117.627 150.975C117.677 150.975 117.718 150.954 117.75 150.913C117.782 150.868 117.798 150.717 117.798 150.462C117.798 150.207 117.782 150.059 117.75 150.018C117.718 149.972 117.677 149.949 117.627 149.949H117.456V150.975H117.627ZM117.456 148.938C117.511 148.928 117.568 148.924 117.627 148.924C117.891 148.924 118.099 149.035 118.249 149.259C118.404 149.478 118.481 149.879 118.481 150.462C118.481 151.045 118.404 151.449 118.249 151.672C118.099 151.891 117.812 152 117.388 152C116.964 152 116.674 151.891 116.52 151.672C116.369 151.449 116.294 151.045 116.294 150.462V144.48C116.203 144.161 115.975 143.82 115.61 143.455V142.771C115.61 142.088 115.952 141.746 116.636 141.746H117.798V142.771H116.978C116.75 142.771 116.636 142.885 116.636 143.113C117.183 143.478 117.456 143.934 117.456 144.48V148.938ZM126.753 147.96C126.785 147.969 126.817 147.974 126.849 147.974C126.967 147.974 127.026 147.88 127.026 147.693C127.026 147.511 126.981 147.42 126.89 147.42C126.799 147.42 126.753 147.509 126.753 147.687V147.96ZM126.753 148.575V149.266C126.753 151.089 125.933 152 124.292 152C122.651 152 121.831 151.089 121.831 149.266V147.898H122.993V149.266C122.993 150.405 123.426 150.975 124.292 150.975C125.158 150.975 125.591 150.405 125.591 149.266V148.411C122.446 147.504 120.874 146.194 120.874 144.48C120.874 142.658 122.013 141.746 124.292 141.746C126.571 141.746 127.71 142.658 127.71 144.48C127.71 145.752 127.076 146.388 125.81 146.388C125.522 146.388 125.29 146.322 125.112 146.189V145.164C125.436 145.26 125.7 145.308 125.905 145.308C126.334 145.308 126.548 145.032 126.548 144.48C126.548 143.341 125.796 142.771 124.292 142.771C122.788 142.771 122.036 143.341 122.036 144.48C122.036 145.889 123.221 146.88 125.591 147.454C125.591 147.021 125.91 146.805 126.548 146.805C127.323 146.805 127.71 147.09 127.71 147.659C127.71 148.001 127.632 148.243 127.478 148.384C127.323 148.525 127.156 148.596 126.979 148.596C126.906 148.596 126.83 148.589 126.753 148.575ZM131.812 153.709C131.812 155.532 130.934 156.443 129.18 156.443C127.425 156.443 126.548 155.532 126.548 153.709V152.684H127.71V153.709C127.71 154.848 128.2 155.418 129.18 155.418C130.16 155.418 130.649 154.848 130.649 153.709V141.062C130.649 139.923 130.125 139.354 129.077 139.354H126.685V136.961C126.685 136.733 126.571 136.619 126.343 136.619H126.001V135.594H126.343C127.254 135.594 127.71 136.049 127.71 136.961V138.328H129.077C130.9 138.328 131.812 139.24 131.812 141.062V153.709ZM136.255 149.949V150.975C136.351 150.975 136.43 150.95 136.494 150.899C136.562 150.845 136.597 150.699 136.597 150.462C136.597 150.225 136.562 150.081 136.494 150.031C136.43 149.977 136.351 149.949 136.255 149.949ZM142.065 141.746V142.771H135.229V141.746H142.065ZM135.229 147.215C135.229 144.936 136.369 143.797 138.647 143.797C140.926 143.797 142.065 144.936 142.065 147.215V152H140.903V147.215C140.903 145.62 140.151 144.822 138.647 144.822C137.144 144.822 136.392 145.62 136.392 147.215V148.992C136.496 148.947 136.617 148.924 136.754 148.924C136.891 148.924 137.034 149.047 137.185 149.293C137.34 149.535 137.417 149.924 137.417 150.462C137.417 151 137.317 151.392 137.116 151.638C136.92 151.879 136.656 152 136.323 152C135.991 152 135.726 151.877 135.53 151.631C135.375 151.444 135.28 151.168 135.243 150.804H135.229V147.215Z" fill="#344054"/>
<rect x="30.75" y="128.75" width="128.5" height="38.5" rx="9.25" stroke="#344054" stroke-width="1.5"/>
</g>
<rect x="8" y="8" width="355" height="16" fill="#EE7D22" fill-opacity="0.24"/>
<rect x="8" y="96" width="355" height="32" fill="#EE7D22" fill-opacity="0.24"/>
<rect x="8" y="168" width="355" height="16" fill="#EE7D22" fill-opacity="0.24"/>
<rect x="14" y="8" width="16" height="176" fill="#EE7D22" fill-opacity="0.24"/>
<rect x="347" y="8" width="16" height="176" fill="#EE7D22" fill-opacity="0.24"/>
<path d="M373.5 8V24" stroke="#F07D03"/>
<rect x="378" y="8.5" width="36" height="18" rx="3" fill="#F07D03"/>
<path d="M387.754 14.2273V21.5H386.216V15.6868H386.173L384.508 16.7308V15.3672L386.308 14.2273H387.754ZM392.273 21.5994C391.899 21.5971 391.538 21.5343 391.19 21.4112C390.845 21.2881 390.534 21.0881 390.26 20.8111C389.985 20.5341 389.767 20.1671 389.606 19.7102C389.448 19.2533 389.368 18.6922 389.368 18.027C389.371 17.4162 389.441 16.8705 389.578 16.3899C389.718 15.907 389.916 15.4974 390.175 15.1612C390.435 14.825 390.746 14.5694 391.108 14.3942C391.471 14.2166 391.877 14.1278 392.327 14.1278C392.812 14.1278 393.24 14.2225 393.612 14.4119C393.984 14.599 394.282 14.8535 394.507 15.1754C394.734 15.4974 394.872 15.8584 394.919 16.2585H393.403C393.343 16.0052 393.219 15.8063 393.03 15.6619C392.84 15.5175 392.606 15.4453 392.327 15.4453C391.853 15.4453 391.493 15.6513 391.247 16.0632C391.003 16.4751 390.879 17.035 390.874 17.7429H390.924C391.033 17.5275 391.18 17.344 391.364 17.1925C391.551 17.0386 391.763 16.9214 392 16.8409C392.239 16.758 392.491 16.7166 392.756 16.7166C393.187 16.7166 393.571 16.8184 393.907 17.022C394.243 17.2232 394.508 17.5002 394.702 17.853C394.896 18.2057 394.993 18.6094 394.993 19.0639C394.993 19.5563 394.879 19.9943 394.649 20.3778C394.422 20.7614 394.103 21.062 393.694 21.2798C393.287 21.4953 392.813 21.6018 392.273 21.5994ZM392.266 20.392C392.503 20.392 392.715 20.3352 392.902 20.2216C393.089 20.108 393.236 19.9541 393.342 19.7599C393.449 19.5658 393.502 19.348 393.502 19.1065C393.502 18.8651 393.449 18.6484 393.342 18.4567C393.238 18.2649 393.094 18.1122 392.909 17.9986C392.724 17.8849 392.514 17.8281 392.277 17.8281C392.099 17.8281 391.935 17.8613 391.783 17.9276C391.634 17.9938 391.503 18.0862 391.389 18.2045C391.278 18.3229 391.19 18.4602 391.126 18.6165C391.062 18.7704 391.03 18.9349 391.03 19.1101C391.03 19.3445 391.084 19.5587 391.19 19.7528C391.299 19.947 391.446 20.102 391.631 20.218C391.818 20.334 392.029 20.392 392.266 20.392ZM396.098 23.5455V16.0455H397.589V16.9616H397.657C397.723 16.8149 397.819 16.6657 397.944 16.5142C398.072 16.3603 398.238 16.2325 398.442 16.1307C398.648 16.0265 398.903 15.9744 399.209 15.9744C399.606 15.9744 399.973 16.0786 400.309 16.2869C400.646 16.4929 400.914 16.8042 401.116 17.2209C401.317 17.6352 401.417 18.1548 401.417 18.7798C401.417 19.3883 401.319 19.902 401.123 20.321C400.929 20.7377 400.663 21.0537 400.327 21.2692C399.993 21.4822 399.619 21.5888 399.205 21.5888C398.912 21.5888 398.662 21.5402 398.456 21.4432C398.252 21.3461 398.085 21.2242 397.955 21.0774C397.825 20.9283 397.725 20.7779 397.657 20.6264H397.611V23.5455H396.098ZM397.579 18.7727C397.579 19.0971 397.624 19.38 397.714 19.6214C397.804 19.8629 397.934 20.0511 398.104 20.1861C398.275 20.3187 398.482 20.3849 398.726 20.3849C398.972 20.3849 399.18 20.3175 399.351 20.1825C399.521 20.0452 399.65 19.8558 399.738 19.6143C399.828 19.3705 399.873 19.09 399.873 18.7727C399.873 18.4579 399.829 18.1809 399.741 17.9418C399.654 17.7027 399.525 17.5156 399.354 17.3807C399.184 17.2457 398.974 17.1783 398.726 17.1783C398.479 17.1783 398.271 17.2434 398.101 17.3736C397.933 17.5038 397.804 17.6884 397.714 17.9276C397.624 18.1667 397.579 18.4484 397.579 18.7727ZM403.495 16.0455L404.496 17.9524L405.523 16.0455H407.074L405.494 18.7727L407.117 21.5H405.572L404.496 19.6143L403.438 21.5H401.876L403.495 18.7727L401.932 16.0455H403.495Z" fill="white"/>
<line x1="370" y1="8.5" x2="377" y2="8.5" stroke="#F07D03"/>
<line x1="370" y1="23.5" x2="377" y2="23.5" stroke="#F07D03"/>
<path d="M14 200.5H30" stroke="#F07D03"/>
<rect x="4" y="205" width="36" height="18" rx="3" fill="#F07D03"/>
<path d="M13.7536 210.727V218H12.2159V212.187H12.1733L10.5078 213.231V211.867L12.3082 210.727H13.7536ZM18.2733 218.099C17.8992 218.097 17.5382 218.034 17.1902 217.911C16.8445 217.788 16.5344 217.588 16.2598 217.311C15.9851 217.034 15.7673 216.667 15.6064 216.21C15.4477 215.753 15.3684 215.192 15.3684 214.527C15.3708 213.916 15.4406 213.371 15.5779 212.89C15.7176 212.407 15.9165 211.997 16.1745 211.661C16.435 211.325 16.7463 211.069 17.1085 210.894C17.4707 210.717 17.8767 210.628 18.3265 210.628C18.8118 210.628 19.2404 210.723 19.612 210.912C19.9837 211.099 20.282 211.353 20.5069 211.675C20.7342 211.997 20.8715 212.358 20.9189 212.759H19.4025C19.3433 212.505 19.219 212.306 19.0297 212.162C18.8403 212.018 18.6059 211.945 18.3265 211.945C17.853 211.945 17.4932 212.151 17.247 212.563C17.0031 212.975 16.8788 213.535 16.8741 214.243H16.9238C17.0327 214.027 17.1795 213.844 17.3642 213.692C17.5512 213.539 17.7631 213.421 17.9998 213.341C18.2389 213.258 18.4911 213.217 18.7562 213.217C19.1871 213.217 19.5706 213.318 19.9068 213.522C20.243 213.723 20.5081 214 20.7022 214.353C20.8964 214.706 20.9934 215.109 20.9934 215.564C20.9934 216.056 20.8786 216.494 20.649 216.878C20.4217 217.261 20.1033 217.562 19.6937 217.78C19.2865 217.995 18.813 218.102 18.2733 218.099ZM18.2662 216.892C18.5029 216.892 18.7148 216.835 18.9018 216.722C19.0888 216.608 19.2356 216.454 19.3422 216.26C19.4487 216.066 19.502 215.848 19.502 215.607C19.502 215.365 19.4487 215.148 19.3422 214.957C19.238 214.765 19.0936 214.612 18.9089 214.499C18.7243 214.385 18.5136 214.328 18.2768 214.328C18.0993 214.328 17.9347 214.361 17.7832 214.428C17.6341 214.494 17.5027 214.586 17.389 214.705C17.2778 214.823 17.1902 214.96 17.1262 215.116C17.0623 215.27 17.0304 215.435 17.0304 215.61C17.0304 215.844 17.0836 216.059 17.1902 216.253C17.2991 216.447 17.4458 216.602 17.6305 216.718C17.8175 216.834 18.0294 216.892 18.2662 216.892ZM22.0978 220.045V212.545H23.5893V213.462H23.6568C23.7231 213.315 23.819 213.166 23.9444 213.014C24.0723 212.86 24.238 212.732 24.4416 212.631C24.6475 212.527 24.9032 212.474 25.2086 212.474C25.6064 212.474 25.9733 212.579 26.3095 212.787C26.6457 212.993 26.9144 213.304 27.1156 213.721C27.3168 214.135 27.4174 214.655 27.4174 215.28C27.4174 215.888 27.3192 216.402 27.1227 216.821C26.9286 217.238 26.6634 217.554 26.3272 217.769C25.9934 217.982 25.6194 218.089 25.2051 218.089C24.9115 218.089 24.6618 218.04 24.4558 217.943C24.2522 217.846 24.0853 217.724 23.9551 217.577C23.8249 217.428 23.7254 217.278 23.6568 217.126H23.6106V220.045H22.0978ZM23.5787 215.273C23.5787 215.597 23.6236 215.88 23.7136 216.121C23.8036 216.363 23.9338 216.551 24.1042 216.686C24.2747 216.819 24.4818 216.885 24.7257 216.885C24.9719 216.885 25.1802 216.817 25.3507 216.683C25.5211 216.545 25.6502 216.356 25.7377 216.114C25.8277 215.871 25.8727 215.59 25.8727 215.273C25.8727 214.958 25.8289 214.681 25.7413 214.442C25.6537 214.203 25.5247 214.016 25.3542 213.881C25.1838 213.746 24.9743 213.678 24.7257 213.678C24.4795 213.678 24.2711 213.743 24.1007 213.874C23.9326 214.004 23.8036 214.188 23.7136 214.428C23.6236 214.667 23.5787 214.948 23.5787 215.273ZM29.4949 212.545L30.4963 214.452L31.5225 212.545H33.0744L31.4941 215.273L33.117 218H31.5723L30.4963 216.114L29.438 218H27.8755L29.4949 215.273L27.9324 212.545H29.4949Z" fill="white"/>
<line x1="14.5" y1="204" x2="14.5" y2="197" stroke="#F07D03"/>
<line x1="29.5" y1="204" x2="29.5" y2="197" stroke="#F07D03"/>
<path d="M347 200.5H363" stroke="#F07D03"/>
<rect x="337" y="205" width="36" height="18" rx="3" fill="#F07D03"/>
<path d="M346.754 210.727V218H345.216V212.187H345.173L343.508 213.231V211.867L345.308 210.727H346.754ZM351.273 218.099C350.899 218.097 350.538 218.034 350.19 217.911C349.845 217.788 349.534 217.588 349.26 217.311C348.985 217.034 348.767 216.667 348.606 216.21C348.448 215.753 348.368 215.192 348.368 214.527C348.371 213.916 348.441 213.371 348.578 212.89C348.718 212.407 348.916 211.997 349.175 211.661C349.435 211.325 349.746 211.069 350.108 210.894C350.471 210.717 350.877 210.628 351.327 210.628C351.812 210.628 352.24 210.723 352.612 210.912C352.984 211.099 353.282 211.353 353.507 211.675C353.734 211.997 353.872 212.358 353.919 212.759H352.403C352.343 212.505 352.219 212.306 352.03 212.162C351.84 212.018 351.606 211.945 351.327 211.945C350.853 211.945 350.493 212.151 350.247 212.563C350.003 212.975 349.879 213.535 349.874 214.243H349.924C350.033 214.027 350.18 213.844 350.364 213.692C350.551 213.539 350.763 213.421 351 213.341C351.239 213.258 351.491 213.217 351.756 213.217C352.187 213.217 352.571 213.318 352.907 213.522C353.243 213.723 353.508 214 353.702 214.353C353.896 214.706 353.993 215.109 353.993 215.564C353.993 216.056 353.879 216.494 353.649 216.878C353.422 217.261 353.103 217.562 352.694 217.78C352.287 217.995 351.813 218.102 351.273 218.099ZM351.266 216.892C351.503 216.892 351.715 216.835 351.902 216.722C352.089 216.608 352.236 216.454 352.342 216.26C352.449 216.066 352.502 215.848 352.502 215.607C352.502 215.365 352.449 215.148 352.342 214.957C352.238 214.765 352.094 214.612 351.909 214.499C351.724 214.385 351.514 214.328 351.277 214.328C351.099 214.328 350.935 214.361 350.783 214.428C350.634 214.494 350.503 214.586 350.389 214.705C350.278 214.823 350.19 214.96 350.126 215.116C350.062 215.27 350.03 215.435 350.03 215.61C350.03 215.844 350.084 216.059 350.19 216.253C350.299 216.447 350.446 216.602 350.631 216.718C350.818 216.834 351.029 216.892 351.266 216.892ZM355.098 220.045V212.545H356.589V213.462H356.657C356.723 213.315 356.819 213.166 356.944 213.014C357.072 212.86 357.238 212.732 357.442 212.631C357.648 212.527 357.903 212.474 358.209 212.474C358.606 212.474 358.973 212.579 359.309 212.787C359.646 212.993 359.914 213.304 360.116 213.721C360.317 214.135 360.417 214.655 360.417 215.28C360.417 215.888 360.319 216.402 360.123 216.821C359.929 217.238 359.663 217.554 359.327 217.769C358.993 217.982 358.619 218.089 358.205 218.089C357.912 218.089 357.662 218.04 357.456 217.943C357.252 217.846 357.085 217.724 356.955 217.577C356.825 217.428 356.725 217.278 356.657 217.126H356.611V220.045H355.098ZM356.579 215.273C356.579 215.597 356.624 215.88 356.714 216.121C356.804 216.363 356.934 216.551 357.104 216.686C357.275 216.819 357.482 216.885 357.726 216.885C357.972 216.885 358.18 216.817 358.351 216.683C358.521 216.545 358.65 216.356 358.738 216.114C358.828 215.871 358.873 215.59 358.873 215.273C358.873 214.958 358.829 214.681 358.741 214.442C358.654 214.203 358.525 214.016 358.354 213.881C358.184 213.746 357.974 213.678 357.726 213.678C357.479 213.678 357.271 213.743 357.101 213.874C356.933 214.004 356.804 214.188 356.714 214.428C356.624 214.667 356.579 214.948 356.579 215.273ZM362.495 212.545L363.496 214.452L364.523 212.545H366.074L364.494 215.273L366.117 218H364.572L363.496 216.114L362.438 218H360.876L362.495 215.273L360.932 212.545H362.495Z" fill="white"/>
<line x1="347.5" y1="204" x2="347.5" y2="197" stroke="#F07D03"/>
<line x1="362.5" y1="204" x2="362.5" y2="197" stroke="#F07D03"/>
<path d="M379.5 96V128" stroke="#F07D03"/>
<rect x="384" y="104.5" width="37" height="18" rx="3" fill="#F07D03"/>
<path d="M393.278 117.599C392.747 117.599 392.275 117.508 391.861 117.326C391.449 117.141 391.123 116.888 390.884 116.566C390.647 116.242 390.526 115.868 390.518 115.444H392.067C392.076 115.621 392.134 115.778 392.241 115.913C392.35 116.045 392.494 116.148 392.674 116.222C392.854 116.295 393.056 116.332 393.281 116.332C393.516 116.332 393.723 116.29 393.903 116.207C394.083 116.125 394.223 116.01 394.325 115.863C394.427 115.716 394.478 115.547 394.478 115.355C394.478 115.161 394.424 114.989 394.315 114.84C394.208 114.689 394.054 114.57 393.853 114.485C393.654 114.4 393.417 114.357 393.143 114.357H392.464V113.228H393.143C393.375 113.228 393.58 113.188 393.757 113.107C393.937 113.027 394.077 112.915 394.176 112.773C394.276 112.629 394.325 112.461 394.325 112.269C394.325 112.087 394.281 111.927 394.194 111.79C394.109 111.65 393.988 111.541 393.832 111.463C393.678 111.385 393.498 111.346 393.292 111.346C393.084 111.346 392.893 111.384 392.72 111.46C392.547 111.533 392.409 111.638 392.305 111.776C392.201 111.913 392.145 112.074 392.138 112.259H390.664C390.671 111.839 390.791 111.47 391.023 111.151C391.255 110.831 391.567 110.581 391.96 110.401C392.356 110.219 392.802 110.128 393.299 110.128C393.801 110.128 394.24 110.219 394.616 110.401C394.993 110.584 395.285 110.83 395.494 111.14C395.704 111.448 395.808 111.793 395.806 112.177C395.808 112.584 395.682 112.924 395.426 113.196C395.173 113.468 394.843 113.641 394.435 113.714V113.771C394.97 113.84 395.378 114.026 395.657 114.329C395.939 114.629 396.078 115.006 396.076 115.458C396.078 115.872 395.959 116.241 395.717 116.562C395.478 116.884 395.148 117.138 394.727 117.322C394.305 117.507 393.822 117.599 393.278 117.599ZM397.181 117.5V116.392L399.77 113.995C399.99 113.782 400.175 113.59 400.324 113.42C400.476 113.249 400.59 113.082 400.669 112.919C400.747 112.753 400.786 112.575 400.786 112.383C400.786 112.17 400.737 111.986 400.64 111.832C400.543 111.676 400.41 111.557 400.242 111.474C400.074 111.388 399.884 111.346 399.671 111.346C399.448 111.346 399.254 111.391 399.088 111.481C398.923 111.571 398.795 111.7 398.705 111.868C398.615 112.036 398.57 112.236 398.57 112.468H397.11C397.11 111.992 397.218 111.579 397.433 111.229C397.649 110.878 397.951 110.607 398.339 110.415C398.727 110.224 399.175 110.128 399.681 110.128C400.202 110.128 400.655 110.22 401.041 110.405C401.43 110.587 401.731 110.84 401.947 111.165C402.162 111.489 402.27 111.861 402.27 112.28C402.27 112.554 402.216 112.826 402.107 113.093C402 113.361 401.81 113.658 401.535 113.984C401.26 114.309 400.873 114.698 400.374 115.153L399.312 116.193V116.243H402.366V117.5H397.181ZM403.494 119.545V112.045H404.986V112.962H405.053C405.12 112.815 405.215 112.666 405.341 112.514C405.469 112.36 405.634 112.232 405.838 112.131C406.044 112.027 406.3 111.974 406.605 111.974C407.003 111.974 407.37 112.079 407.706 112.287C408.042 112.493 408.311 112.804 408.512 113.221C408.713 113.635 408.814 114.155 408.814 114.78C408.814 115.388 408.716 115.902 408.519 116.321C408.325 116.738 408.06 117.054 407.724 117.269C407.39 117.482 407.016 117.589 406.602 117.589C406.308 117.589 406.058 117.54 405.852 117.443C405.649 117.346 405.482 117.224 405.352 117.077C405.221 116.928 405.122 116.778 405.053 116.626H405.007V119.545H403.494ZM404.975 114.773C404.975 115.097 405.02 115.38 405.11 115.621C405.2 115.863 405.33 116.051 405.501 116.186C405.671 116.319 405.878 116.385 406.122 116.385C406.368 116.385 406.577 116.317 406.747 116.183C406.918 116.045 407.047 115.856 407.134 115.614C407.224 115.371 407.269 115.09 407.269 114.773C407.269 114.458 407.225 114.181 407.138 113.942C407.05 113.703 406.921 113.516 406.751 113.381C406.58 113.246 406.371 113.178 406.122 113.178C405.876 113.178 405.668 113.243 405.497 113.374C405.329 113.504 405.2 113.688 405.11 113.928C405.02 114.167 404.975 114.448 404.975 114.773ZM410.891 112.045L411.893 113.952L412.919 112.045H414.471L412.891 114.773L414.513 117.5H412.969L411.893 115.614L410.835 117.5H409.272L410.891 114.773L409.329 112.045H410.891Z" fill="white"/>
<line x1="376" y1="96.5" x2="383" y2="96.5" stroke="#F07D03"/>
<line x1="376" y1="127.5" x2="383" y2="127.5" stroke="#F07D03"/>
<path d="M379.5 168V184" stroke="#F07D03"/>
<rect x="384" y="168.5" width="36" height="18" rx="3" fill="#F07D03"/>
<path d="M393.754 174.227V181.5H392.216V175.687H392.173L390.508 176.731V175.367L392.308 174.227H393.754ZM398.273 181.599C397.899 181.597 397.538 181.534 397.19 181.411C396.845 181.288 396.534 181.088 396.26 180.811C395.985 180.534 395.767 180.167 395.606 179.71C395.448 179.253 395.368 178.692 395.368 178.027C395.371 177.416 395.441 176.871 395.578 176.39C395.718 175.907 395.916 175.497 396.175 175.161C396.435 174.825 396.746 174.569 397.108 174.394C397.471 174.217 397.877 174.128 398.327 174.128C398.812 174.128 399.24 174.223 399.612 174.412C399.984 174.599 400.282 174.853 400.507 175.175C400.734 175.497 400.872 175.858 400.919 176.259H399.403C399.343 176.005 399.219 175.806 399.03 175.662C398.84 175.518 398.606 175.445 398.327 175.445C397.853 175.445 397.493 175.651 397.247 176.063C397.003 176.475 396.879 177.035 396.874 177.743H396.924C397.033 177.527 397.18 177.344 397.364 177.192C397.551 177.039 397.763 176.921 398 176.841C398.239 176.758 398.491 176.717 398.756 176.717C399.187 176.717 399.571 176.818 399.907 177.022C400.243 177.223 400.508 177.5 400.702 177.853C400.896 178.206 400.993 178.609 400.993 179.064C400.993 179.556 400.879 179.994 400.649 180.378C400.422 180.761 400.103 181.062 399.694 181.28C399.287 181.495 398.813 181.602 398.273 181.599ZM398.266 180.392C398.503 180.392 398.715 180.335 398.902 180.222C399.089 180.108 399.236 179.954 399.342 179.76C399.449 179.566 399.502 179.348 399.502 179.107C399.502 178.865 399.449 178.648 399.342 178.457C399.238 178.265 399.094 178.112 398.909 177.999C398.724 177.885 398.514 177.828 398.277 177.828C398.099 177.828 397.935 177.861 397.783 177.928C397.634 177.994 397.503 178.086 397.389 178.205C397.278 178.323 397.19 178.46 397.126 178.616C397.062 178.77 397.03 178.935 397.03 179.11C397.03 179.344 397.084 179.559 397.19 179.753C397.299 179.947 397.446 180.102 397.631 180.218C397.818 180.334 398.029 180.392 398.266 180.392ZM402.098 183.545V176.045H403.589V176.962H403.657C403.723 176.815 403.819 176.666 403.944 176.514C404.072 176.36 404.238 176.232 404.442 176.131C404.648 176.027 404.903 175.974 405.209 175.974C405.606 175.974 405.973 176.079 406.309 176.287C406.646 176.493 406.914 176.804 407.116 177.221C407.317 177.635 407.417 178.155 407.417 178.78C407.417 179.388 407.319 179.902 407.123 180.321C406.929 180.738 406.663 181.054 406.327 181.269C405.993 181.482 405.619 181.589 405.205 181.589C404.912 181.589 404.662 181.54 404.456 181.443C404.252 181.346 404.085 181.224 403.955 181.077C403.825 180.928 403.725 180.778 403.657 180.626H403.611V183.545H402.098ZM403.579 178.773C403.579 179.097 403.624 179.38 403.714 179.621C403.804 179.863 403.934 180.051 404.104 180.186C404.275 180.319 404.482 180.385 404.726 180.385C404.972 180.385 405.18 180.317 405.351 180.183C405.521 180.045 405.65 179.856 405.738 179.614C405.828 179.371 405.873 179.09 405.873 178.773C405.873 178.458 405.829 178.181 405.741 177.942C405.654 177.703 405.525 177.516 405.354 177.381C405.184 177.246 404.974 177.178 404.726 177.178C404.479 177.178 404.271 177.243 404.101 177.374C403.933 177.504 403.804 177.688 403.714 177.928C403.624 178.167 403.579 178.448 403.579 178.773ZM409.495 176.045L410.496 177.952L411.523 176.045H413.074L411.494 178.773L413.117 181.5H411.572L410.496 179.614L409.438 181.5H407.876L409.495 178.773L407.932 176.045H409.495Z" fill="white"/>
<line x1="376" y1="168.5" x2="383" y2="168.5" stroke="#F07D03"/>
<line x1="376" y1="183.5" x2="383" y2="183.5" stroke="#F07D03"/>
<defs>
<filter id="filter0_d_7147_3699" x="0" y="0" width="371" height="192" filterUnits="userSpaceOnUse" color-interpolation-filters="sRGB">
<feFlood flood-opacity="0" result="BackgroundImageFix"/>
<feColorMatrix in="SourceAlpha" type="matrix" values="0 0 0 0 0 0 0 0 0 0 0 0 0 0 0 0 0 0 127 0" result="hardAlpha"/>
<feOffset/>
<feGaussianBlur stdDeviation="4"/>
<feColorMatrix type="matrix" values="0 0 0 0 0 0 0 0 0 0 0 0 0 0 0 0 0 0 0.15 0"/>
<feBlend mode="normal" in2="BackgroundImageFix" result="effect1_dropShadow_7147_3699"/>
<feBlend mode="normal" in="SourceGraphic" in2="effect1_dropShadow_7147_3699" result="shape"/>
</filter>
</defs>
</svg>
