<svg width="453" height="176" viewBox="0 0 453 176" fill="none" xmlns="http://www.w3.org/2000/svg">
<rect x="0.5" y="46.5" width="452" height="63" rx="7.5" fill="#EBF1FF"/>
<path d="M40 88.5C37.2152 88.5 34.5445 87.3938 32.5754 85.4246C30.6062 83.4555 29.5 80.7848 29.5 78C29.5 75.2152 30.6062 72.5445 32.5754 70.5754C34.5445 68.6062 37.2152 67.5 40 67.5C42.7848 67.5 45.4555 68.6062 47.4246 70.5754C49.3938 72.5445 50.5 75.2152 50.5 78C50.5 80.7848 49.3938 83.4555 47.4246 85.4246C45.4555 87.3938 42.7848 88.5 40 88.5ZM40 90C43.1826 90 46.2348 88.7357 48.4853 86.4853C50.7357 84.2348 52 81.1826 52 78C52 74.8174 50.7357 71.7652 48.4853 69.5147C46.2348 67.2643 43.1826 66 40 66C36.8174 66 33.7652 67.2643 31.5147 69.5147C29.2643 71.7652 28 74.8174 28 78C28 81.1826 29.2643 84.2348 31.5147 86.4853C33.7652 88.7357 36.8174 90 40 90Z" fill="#1C4076"/>
<path d="M38.5029 82.5001C38.5029 82.3032 38.5417 82.1081 38.6171 81.9261C38.6925 81.7441 38.803 81.5788 38.9423 81.4395C39.0816 81.3002 39.2469 81.1897 39.4289 81.1143C39.6109 81.0389 39.8059 81.0001 40.0029 81.0001C40.1999 81.0001 40.395 81.0389 40.577 81.1143C40.7589 81.1897 40.9243 81.3002 41.0636 81.4395C41.2029 81.5788 41.3134 81.7441 41.3888 81.9261C41.4641 82.1081 41.5029 82.3032 41.5029 82.5001C41.5029 82.898 41.3449 83.2795 41.0636 83.5608C40.7823 83.8421 40.4008 84.0001 40.0029 84.0001C39.6051 84.0001 39.2236 83.8421 38.9423 83.5608C38.661 83.2795 38.5029 82.898 38.5029 82.5001ZM38.6499 73.4927C38.63 73.3034 38.65 73.1121 38.7087 72.9311C38.7675 72.7501 38.8636 72.5835 38.9909 72.442C39.1182 72.3006 39.2738 72.1875 39.4476 72.1101C39.6215 72.0327 39.8096 71.9927 39.9999 71.9927C40.1902 71.9927 40.3784 72.0327 40.5522 72.1101C40.726 72.1875 40.8817 72.3006 41.009 72.442C41.1362 72.5835 41.2324 72.7501 41.2911 72.9311C41.3499 73.1121 41.3699 73.3034 41.3499 73.4927L40.8249 78.7531C40.8073 78.9598 40.7127 79.1523 40.56 79.2926C40.4072 79.4329 40.2073 79.5107 39.9999 79.5107C39.7925 79.5107 39.5927 79.4329 39.4399 79.2926C39.2871 79.1523 39.1926 78.9598 39.1749 78.7531L38.6499 73.4927Z" fill="#1C4076"/>
<path d="M81.7656 71.2812V72.4531H73.9531V71.2812H81.7656ZM75.2812 80.2656C75.6719 79.4844 76.2969 79.0938 77.1562 79.0938H77.8594V80.3438H77.1562C76.2969 80.3438 75.6719 80.7344 75.2812 81.5156V83H73.9531V77.5312C73.9531 74.9271 75.2552 73.625 77.8594 73.625C80.4635 73.625 81.7656 74.9271 81.7656 77.5312V83H80.4375V77.5312C80.4375 75.7083 79.5781 74.7969 77.8594 74.7969C76.1406 74.7969 75.2812 75.7083 75.2812 77.5312V80.2656ZM77.4688 67.1797C77.4688 67.3724 77.5182 67.5182 77.6172 67.6172C77.7161 67.7161 77.862 67.7656 78.0547 67.7656C78.2526 67.7656 78.401 67.7161 78.5 67.6172C78.5938 67.5182 78.6406 67.3724 78.6406 67.1797C78.6406 66.9818 78.5938 66.8359 78.5 66.7422C78.401 66.6432 78.2526 66.5938 78.0547 66.5938C77.862 66.5938 77.7161 66.6432 77.6172 66.7422C77.5182 66.8359 77.4688 66.9818 77.4688 67.1797ZM79.8125 67.1797C79.8125 67.7682 79.6667 68.2083 79.375 68.5C79.0833 68.7917 78.6432 68.9375 78.0547 68.9375C77.4661 68.9375 77.026 68.7917 76.7344 68.5C76.4427 68.2083 76.2969 67.7682 76.2969 67.1797C76.2969 66.5911 76.4427 66.151 76.7344 65.8594C77.026 65.5677 77.4661 65.4219 78.0547 65.4219C78.6432 65.4219 79.0833 65.5677 79.375 65.8594C79.6667 66.151 79.8125 66.5911 79.8125 67.1797ZM85.6719 81.8281V80.6562H85.4766C85.4193 80.6562 85.3724 80.6823 85.3359 80.7344C85.2995 80.7812 85.2812 80.9505 85.2812 81.2422C85.2812 81.5339 85.2995 81.7057 85.3359 81.7578C85.3724 81.8047 85.4193 81.8281 85.4766 81.8281H85.6719ZM87 74.4062V81.2422C87 81.9089 86.9115 82.3698 86.7344 82.625C86.5625 82.875 86.2344 83 85.75 83C85.2656 83 84.9349 82.875 84.7578 82.625C84.5859 82.3698 84.5 81.9089 84.5 81.2422C84.5 80.5755 84.5859 80.1172 84.7578 79.8672C84.9349 79.612 85.1745 79.4844 85.4766 79.4844C85.5443 79.4844 85.6094 79.4896 85.6719 79.5V74.4062C85.5677 74.0417 85.3073 73.651 84.8906 73.2344V72.4531C84.8906 71.6719 85.2812 71.2812 86.0625 71.2812H87.3906V72.4531H86.4531C86.1927 72.4531 86.0625 72.5833 86.0625 72.8438C86.6875 73.2604 87 73.7812 87 74.4062ZM84.6562 86.125C84.6562 86.6458 84.8255 86.9062 85.1641 86.9062C85.5026 86.9062 85.6719 86.6458 85.6719 86.125V83.7812H87V86.125C87 87.4271 86.388 88.0781 85.1641 88.0781C83.9401 88.0781 83.3281 87.4271 83.3281 86.125V83.7812H84.6562V86.125ZM92.2344 83H90.9062V77.5312C90.9062 74.9271 92.2083 73.625 94.8125 73.625C97.4167 73.625 98.7188 74.9271 98.7188 77.5312V83H97.3906V77.5312C97.3906 75.7083 96.5312 74.7969 94.8125 74.7969C93.0938 74.7969 92.2344 75.7083 92.2344 77.5312V83ZM98.7188 71.2812V72.4531H90.9062V71.2812H98.7188ZM98.7188 71.2812H100.281C102.365 71.2812 103.406 72.3229 103.406 74.4062V83H102.078V74.4062C102.078 73.1042 101.479 72.4531 100.281 72.4531H98.7188V71.2812ZM107.312 81.8281V80.6562H107.117C107.06 80.6562 107.013 80.6823 106.977 80.7344C106.94 80.7812 106.922 80.9505 106.922 81.2422C106.922 81.5339 106.94 81.7057 106.977 81.7578C107.013 81.8047 107.06 81.8281 107.117 81.8281H107.312ZM108.641 74.4062V81.2422C108.641 81.9089 108.552 82.3698 108.375 82.625C108.203 82.875 107.875 83 107.391 83C106.906 83 106.576 82.875 106.398 82.625C106.227 82.3698 106.141 81.9089 106.141 81.2422C106.141 80.5755 106.227 80.1172 106.398 79.8672C106.576 79.612 106.815 79.4844 107.117 79.4844C107.185 79.4844 107.25 79.4896 107.312 79.5V74.4062C107.208 74.0417 106.948 73.651 106.531 73.2344V72.4531C106.531 71.6719 106.922 71.2812 107.703 71.2812H109.031V72.4531H108.094C107.833 72.4531 107.703 72.5833 107.703 72.8438C108.328 73.2604 108.641 73.7812 108.641 74.4062ZM112.547 74.4062C112.547 74.0417 112.417 73.651 112.156 73.2344V72.8438C112.156 71.8021 112.677 71.2812 113.719 71.2812H116.062L117.859 72.4531H118.484C118.849 72.4531 119.031 72.2708 119.031 71.9062V70.1094H120.359V71.9062C120.359 73.0521 119.917 73.625 119.031 73.625H117.625L115.828 72.4531H114.266C113.745 72.4531 113.484 72.6094 113.484 72.9219C113.745 73.3385 113.875 73.8333 113.875 74.4062V81.4375L116.453 79.25L119.031 81.4375V74.4062H120.359V83H119.188L116.453 80.6562L113.719 83H112.547V74.4062ZM118.016 86.125C118.016 86.6458 118.185 86.9062 118.523 86.9062C118.862 86.9062 119.031 86.6458 119.031 86.125V83.7812H120.359V86.125C120.359 87.4271 119.747 88.0781 118.523 88.0781C117.299 88.0781 116.688 87.4271 116.688 86.125V83.7812H118.016V86.125ZM132.078 78.2344V79.875C132.078 81.9583 131.349 83 129.891 83C128.818 83 128.023 82.6745 127.508 82.0234C126.992 81.3724 126.354 81.0469 125.594 81.0469V83H124.266V78.3125H125.594V79.875C126.505 79.875 127.245 80.2005 127.812 80.8516C128.385 81.5026 128.966 81.8281 129.555 81.8281C130.352 81.8281 130.75 81.1771 130.75 79.875V79.0938C126.427 78.1562 124.266 76.5938 124.266 74.4062C124.266 72.3229 125.568 71.2812 128.172 71.2812C130.776 71.2812 132.078 72.3229 132.078 74.4062C132.078 75.8594 131.354 76.5859 129.906 76.5859C129.578 76.5859 129.312 76.5104 129.109 76.3594V75.1875C129.479 75.2969 129.781 75.3516 130.016 75.3516C130.505 75.3516 130.75 75.0365 130.75 74.4062C130.75 73.1042 129.891 72.4531 128.172 72.4531C126.453 72.4531 125.594 73.1042 125.594 74.4062C125.594 75.9688 127.755 77.2448 132.078 78.2344ZM135.984 74.4062H137.312V81.4375L139.891 79.0938L142.469 81.4375V74.4062H143.797V83H142.625L139.891 80.6562L137.156 83H135.984V74.4062ZM137.312 72.5234C137.312 72.737 138.172 72.8438 139.891 72.8438C141.609 72.8438 142.469 72.3229 142.469 71.2812V70.1094H143.797V71.2812C143.797 73.1042 142.495 74.0156 139.891 74.0156C137.286 74.0156 135.984 73.5208 135.984 72.5312C135.984 71.6979 136.417 71.2812 137.281 71.2812C137.828 71.2812 138.203 71.3568 138.406 71.5078V72.5234C138.036 72.4141 137.763 72.3594 137.586 72.3594C137.404 72.3594 137.312 72.4141 137.312 72.5234ZM139.5 67.1797C139.5 67.3724 139.549 67.5182 139.648 67.6172C139.747 67.7161 139.893 67.7656 140.086 67.7656C140.284 67.7656 140.432 67.7161 140.531 67.6172C140.625 67.5182 140.672 67.3724 140.672 67.1797C140.672 66.9818 140.625 66.8359 140.531 66.7422C140.432 66.6432 140.284 66.5938 140.086 66.5938C139.893 66.5938 139.747 66.6432 139.648 66.7422C139.549 66.8359 139.5 66.9818 139.5 67.1797ZM141.844 67.1797C141.844 67.7682 141.698 68.2083 141.406 68.5C141.115 68.7917 140.674 68.9375 140.086 68.9375C139.497 68.9375 139.057 68.7917 138.766 68.5C138.474 68.2083 138.328 67.7682 138.328 67.1797C138.328 66.5911 138.474 66.151 138.766 65.8594C139.057 65.5677 139.497 65.4219 140.086 65.4219C140.674 65.4219 141.115 65.5677 141.406 65.8594C141.698 66.151 141.844 66.5911 141.844 67.1797ZM148.875 80.6562V81.8281C148.984 81.8281 149.076 81.7995 149.148 81.7422C149.227 81.6797 149.266 81.513 149.266 81.2422C149.266 80.9714 149.227 80.8073 149.148 80.75C149.076 80.6875 148.984 80.6562 148.875 80.6562ZM147.703 75.1875C147.703 72.5833 148.792 71.2812 150.969 71.2812C153.141 71.2812 154.227 72.5833 154.227 75.1875V81.6719L156.297 78.9375L158.367 81.6719V75.1875C158.367 72.5833 159.456 71.2812 161.633 71.2812C163.805 71.2812 164.891 72.5833 164.891 75.1875V83H163.562V75.1875C163.562 73.3646 162.919 72.4531 161.633 72.4531C160.341 72.4531 159.695 73.3646 159.695 75.1875V83H157.977L156.297 80.6562L154.617 83H152.898V75.1875C152.898 73.3646 152.229 72.4531 150.891 72.4531C149.651 72.4531 149.031 73.3646 149.031 75.1875V79.5625C149.151 79.5104 149.289 79.4844 149.445 79.4844C149.602 79.4844 149.766 79.625 149.938 79.9062C150.115 80.1823 150.203 80.6276 150.203 81.2422C150.203 81.8568 150.089 82.3047 149.859 82.5859C149.635 82.862 149.333 83 148.953 83C148.573 83 148.271 82.8594 148.047 82.5781C147.87 82.3646 147.76 82.0495 147.719 81.6328H147.703V75.1875ZM163.641 65.5781C163.552 65.5781 163.477 65.6068 163.414 65.6641C163.357 65.7161 163.328 65.7917 163.328 65.8906C163.328 65.9792 163.357 66.0521 163.414 66.1094C163.477 66.1719 163.552 66.2031 163.641 66.2031C163.74 66.2031 163.815 66.1719 163.867 66.1094C163.924 66.0521 163.953 65.9792 163.953 65.8906C163.953 65.7917 163.924 65.7161 163.867 65.6641C163.815 65.6068 163.74 65.5781 163.641 65.5781ZM160.203 67.9219H163.719C162.422 67.0365 161.38 66.5938 160.594 66.5938C159.552 66.5938 159.031 66.8151 159.031 67.2578C159.031 67.7005 159.422 67.9219 160.203 67.9219ZM162.391 65.7969C162.411 65.4583 162.523 65.1875 162.727 64.9844C162.956 64.7552 163.26 64.6406 163.641 64.6406C164.021 64.6406 164.326 64.7552 164.555 64.9844C164.779 65.2083 164.891 65.5104 164.891 65.8906C164.891 66.2708 164.779 66.5729 164.555 66.7969C164.451 66.901 164.333 66.9818 164.203 67.0391C164.661 67.4453 164.891 67.7396 164.891 67.9219V68.9375H159.812C158.51 68.9375 157.859 68.4167 157.859 67.375C157.859 66.0729 158.771 65.4219 160.594 65.4219C161.219 65.4219 161.818 65.5469 162.391 65.7969ZM174.656 72.4688C174.656 72.3125 174.552 72.2344 174.344 72.2344C174.135 72.2344 174.031 72.3125 174.031 72.4688C174.031 72.6094 174.135 72.75 174.344 72.8906C174.552 72.7812 174.656 72.6406 174.656 72.4688ZM168.602 76.3594C168.544 76.3594 168.497 76.3854 168.461 76.4375C168.424 76.4844 168.406 76.6536 168.406 76.9453C168.406 77.237 168.424 77.4089 168.461 77.4609C168.497 77.5078 168.544 77.5312 168.602 77.5312H168.797V76.3594H168.602ZM170.125 81.4375L172.703 79.0938L175.281 81.4375V75.9688C175.281 75.4062 174.859 74.8099 174.016 74.1797C173.589 74.5911 172.865 74.7969 171.844 74.7969C170.708 74.7969 169.917 74.6484 169.469 74.3516C169.021 74.0547 168.797 73.6432 168.797 73.1172C168.797 72.5964 168.901 72.1094 169.109 71.6562C169.318 71.1979 169.422 70.8255 169.422 70.5391C169.422 70.2526 169.083 70.1094 168.406 70.1094V68.9375C169.865 68.9375 170.594 69.4323 170.594 70.4219C170.594 70.8125 170.49 71.25 170.281 71.7344C170.073 72.2135 169.969 72.5547 169.969 72.7578C169.969 72.9661 170.099 73.1641 170.359 73.3516C170.62 73.5339 171.133 73.625 171.898 73.625C172.56 73.625 173.036 73.5391 173.328 73.3672C173.068 73.1536 172.938 72.8229 172.938 72.375C172.938 71.6458 173.406 71.2812 174.344 71.2812C175.333 71.2812 175.828 71.724 175.828 72.6094C175.828 73.0625 175.625 73.4479 175.219 73.7656C176.146 74.4375 176.609 75.1719 176.609 75.9688V83H175.047L172.703 80.6562L170.359 83H168.797V78.6875C168.734 78.6979 168.669 78.7031 168.602 78.7031C168.299 78.7031 168.06 78.5781 167.883 78.3281C167.711 78.0729 167.625 77.612 167.625 76.9453C167.625 76.2786 167.711 75.8203 167.883 75.5703C168.06 75.3151 168.391 75.1875 168.875 75.1875C169.359 75.1875 169.688 75.3151 169.859 75.5703C170.036 75.8203 170.125 76.2786 170.125 76.9453V81.4375ZM187 75.3828C186.891 75.3828 186.797 75.4167 186.719 75.4844C186.646 75.5521 186.609 75.6484 186.609 75.7734C186.609 75.8984 186.646 75.9948 186.719 76.0625C186.797 76.1302 186.891 76.1641 187 76.1641V75.3828ZM187 77.0859C186.948 77.0911 186.896 77.0938 186.844 77.0938C186.49 77.0938 186.227 76.9818 186.055 76.7578C185.852 76.5078 185.75 76.1797 185.75 75.7734C185.75 75.3672 185.849 75.0391 186.047 74.7891C186.25 74.5339 186.581 74.4062 187.039 74.4062C187.497 74.4062 187.826 74.5339 188.023 74.7891C188.227 75.0391 188.328 75.3672 188.328 75.7734V79.0938C188.328 81.6979 187.026 83 184.422 83C181.818 83 180.516 81.6979 180.516 79.0938V74.4062C180.516 74.0417 180.385 73.651 180.125 73.2344V72.8438C180.125 71.8021 180.646 71.2812 181.688 71.2812H188.328V72.4531H182.234C181.714 72.4531 181.453 72.6094 181.453 72.9219C181.714 73.3385 181.844 73.8333 181.844 74.4062V79.0938C181.844 80.9167 182.703 81.8281 184.422 81.8281C186.141 81.8281 187 80.9167 187 79.0938V77.0859ZM193.562 77.5312V79.0938C193.562 80.9167 194.422 81.8281 196.141 81.8281C197.859 81.8281 198.719 80.9167 198.719 79.0938V77.5312H193.562ZM193.562 76.3594H198.719V74.4062C198.719 74.0417 198.458 73.651 197.938 73.2344V72.4531C197.938 71.6719 198.328 71.2812 199.109 71.2812H200.438V72.4531H199.5C199.24 72.4531 199.109 72.5833 199.109 72.8438C199.734 73.2604 200.047 73.7812 200.047 74.4062V79.0938C200.047 81.6979 198.745 83 196.141 83C193.536 83 192.234 81.6979 192.234 79.0938V74.4062C192.234 74.0417 191.974 73.651 191.453 73.2344V72.4531C191.453 71.6719 191.844 71.2812 192.625 71.2812H193.953V72.4531H193.016C192.755 72.4531 192.625 72.5833 192.625 72.8438C193.25 73.2604 193.562 73.7812 193.562 74.4062V76.3594ZM204.734 74.4062V88.0781H203.016L201.727 86.5156L200.438 88.0781H198.719V83.7812H200.047V86.75L201.727 84.7969L203.406 86.75V74.4062C203.406 74.0417 203.146 73.651 202.625 73.2344V72.4531C202.625 71.6719 203.016 71.2812 203.797 71.2812H205.125V72.4531H204.188C203.927 72.4531 203.797 72.5833 203.797 72.8438C204.422 73.2604 204.734 73.7812 204.734 74.4062ZM214.5 72.4688C214.5 72.3125 214.396 72.2344 214.188 72.2344C213.979 72.2344 213.875 72.3125 213.875 72.4688C213.875 72.6094 213.979 72.75 214.188 72.8906C214.396 72.7812 214.5 72.6406 214.5 72.4688ZM208.445 76.3594C208.388 76.3594 208.341 76.3854 208.305 76.4375C208.268 76.4844 208.25 76.6536 208.25 76.9453C208.25 77.237 208.268 77.4089 208.305 77.4609C208.341 77.5078 208.388 77.5312 208.445 77.5312H208.641V76.3594H208.445ZM209.969 81.4375L212.547 79.0938L215.125 81.4375V75.9688C215.125 75.4062 214.703 74.8099 213.859 74.1797C213.432 74.5911 212.708 74.7969 211.688 74.7969C210.552 74.7969 209.76 74.6484 209.312 74.3516C208.865 74.0547 208.641 73.6432 208.641 73.1172C208.641 72.5964 208.745 72.1094 208.953 71.6562C209.161 71.1979 209.266 70.8255 209.266 70.5391C209.266 70.2526 208.927 70.1094 208.25 70.1094V68.9375C209.708 68.9375 210.438 69.4323 210.438 70.4219C210.438 70.8125 210.333 71.25 210.125 71.7344C209.917 72.2135 209.812 72.5547 209.812 72.7578C209.812 72.9661 209.943 73.1641 210.203 73.3516C210.464 73.5339 210.977 73.625 211.742 73.625C212.404 73.625 212.88 73.5391 213.172 73.3672C212.911 73.1536 212.781 72.8229 212.781 72.375C212.781 71.6458 213.25 71.2812 214.188 71.2812C215.177 71.2812 215.672 71.724 215.672 72.6094C215.672 73.0625 215.469 73.4479 215.062 73.7656C215.99 74.4375 216.453 75.1719 216.453 75.9688V83H214.891L212.547 80.6562L210.203 83H208.641V78.6875C208.578 78.6979 208.513 78.7031 208.445 78.7031C208.143 78.7031 207.904 78.5781 207.727 78.3281C207.555 78.0729 207.469 77.612 207.469 76.9453C207.469 76.2786 207.555 75.8203 207.727 75.5703C207.904 75.3151 208.234 75.1875 208.719 75.1875C209.203 75.1875 209.531 75.3151 209.703 75.5703C209.88 75.8203 209.969 76.2786 209.969 76.9453V81.4375Z" fill="#344054"/>
<path fill-rule="evenodd" clip-rule="evenodd" d="M410.614 71.6139C410.755 71.4732 410.945 71.3942 411.144 71.3942C411.343 71.3942 411.534 71.4732 411.675 71.6139L416.978 76.9172L422.281 71.6139C422.422 71.4732 422.613 71.3942 422.812 71.3942C423.01 71.3942 423.201 71.4732 423.342 71.6139C423.483 71.7545 423.562 71.9453 423.562 72.1442C423.562 72.3431 423.483 72.5339 423.342 72.6745L418.039 77.9778L423.342 83.2811C423.483 83.4218 423.562 83.6126 423.562 83.8115C423.562 84.0104 423.483 84.2012 423.342 84.3418C423.201 84.4825 423.01 84.5615 422.812 84.5615C422.613 84.5615 422.422 84.4825 422.281 84.3418L416.978 79.0385L411.675 84.3418C411.534 84.4825 411.343 84.5615 411.144 84.5615C410.945 84.5615 410.755 84.4825 410.614 84.3418C410.473 84.2012 410.394 84.0104 410.394 83.8115C410.394 83.6126 410.473 83.4218 410.614 83.2811L415.917 77.9778L410.614 72.6745C410.473 72.5339 410.394 72.3431 410.394 72.1442C410.394 71.9453 410.473 71.7545 410.614 71.6139Z" fill="#344054"/>
<rect x="0.5" y="46.5" width="452" height="63" rx="7.5" stroke="#1C4076"/>
<circle cx="417" cy="160" r="12" fill="#344054"/>
<path d="M417.244 166.159C416.396 166.159 415.64 166.013 414.977 165.722C414.318 165.426 413.797 165.021 413.415 164.506C413.036 163.987 412.841 163.388 412.83 162.71H415.307C415.322 162.994 415.415 163.244 415.585 163.46C415.759 163.672 415.991 163.837 416.278 163.955C416.566 164.072 416.89 164.131 417.25 164.131C417.625 164.131 417.956 164.064 418.244 163.932C418.532 163.799 418.758 163.616 418.92 163.381C419.083 163.146 419.165 162.875 419.165 162.568C419.165 162.258 419.078 161.983 418.903 161.744C418.733 161.502 418.487 161.312 418.165 161.176C417.847 161.04 417.468 160.972 417.028 160.972H415.943V159.165H417.028C417.4 159.165 417.727 159.1 418.011 158.972C418.299 158.843 418.523 158.665 418.682 158.438C418.841 158.206 418.92 157.938 418.92 157.631C418.92 157.339 418.85 157.083 418.71 156.864C418.574 156.64 418.381 156.466 418.131 156.341C417.884 156.216 417.597 156.153 417.267 156.153C416.934 156.153 416.629 156.214 416.352 156.335C416.076 156.453 415.854 156.621 415.688 156.841C415.521 157.061 415.432 157.318 415.42 157.614H413.062C413.074 156.943 413.265 156.352 413.636 155.841C414.008 155.33 414.508 154.93 415.136 154.642C415.769 154.35 416.483 154.205 417.278 154.205C418.081 154.205 418.784 154.35 419.386 154.642C419.989 154.934 420.456 155.328 420.79 155.824C421.127 156.316 421.294 156.869 421.29 157.483C421.294 158.134 421.091 158.678 420.682 159.114C420.277 159.549 419.748 159.826 419.097 159.943V160.034C419.953 160.144 420.604 160.441 421.051 160.926C421.502 161.407 421.725 162.009 421.722 162.733C421.725 163.396 421.534 163.985 421.148 164.5C420.765 165.015 420.237 165.42 419.562 165.716C418.888 166.011 418.116 166.159 417.244 166.159Z" fill="white"/>
<path d="M417 149L417 85" stroke="#344054" stroke-dasharray="2 2"/>
<circle cx="326" cy="160" r="12" fill="#344054"/>
<path d="M320.767 163.955V162.017L325.625 154.364H327.295V157.045H326.307L323.244 161.892V161.983H330.148V163.955H320.767ZM326.352 166V163.364L326.398 162.506V154.364H328.705V166H326.352Z" fill="white"/>
<path d="M326 149L326 110" stroke="#344054" stroke-dasharray="2 2"/>
<circle cx="87" cy="16" r="12" fill="#344054"/>
<path d="M89.0057 10.3636V22H86.5455V12.6989H86.4773L83.8125 14.3693V12.1875L86.6932 10.3636H89.0057Z" fill="white"/>
<circle cx="28" cy="160" r="12" fill="#344054"/>
<path d="M23.9432 166V164.227L28.0852 160.392C28.4375 160.051 28.733 159.744 28.9716 159.472C29.214 159.199 29.3977 158.932 29.5227 158.67C29.6477 158.405 29.7102 158.119 29.7102 157.812C29.7102 157.472 29.6326 157.178 29.4773 156.932C29.322 156.682 29.1098 156.491 28.8409 156.358C28.572 156.222 28.267 156.153 27.9261 156.153C27.5701 156.153 27.2595 156.225 26.9943 156.369C26.7292 156.513 26.5246 156.72 26.3807 156.989C26.2367 157.258 26.1648 157.578 26.1648 157.949H23.8295C23.8295 157.187 24.0019 156.527 24.3466 155.966C24.6913 155.405 25.1742 154.972 25.7955 154.665C26.4167 154.358 27.1326 154.205 27.9432 154.205C28.7765 154.205 29.5019 154.352 30.1193 154.648C30.7405 154.939 31.2235 155.345 31.5682 155.864C31.9129 156.383 32.0852 156.977 32.0852 157.648C32.0852 158.087 31.9981 158.521 31.8239 158.949C31.6534 159.377 31.3485 159.852 30.9091 160.375C30.4697 160.894 29.8504 161.517 29.0511 162.244L27.3523 163.909V163.989H32.2386V166H23.9432Z" fill="white"/>
<path d="M84 16H40V66" stroke="#344054" stroke-dasharray="2 2"/>
<path d="M41 160H114V94" stroke="#344054" stroke-dasharray="2 2"/>
</svg>
