<svg width="510" height="94" viewBox="0 0 510 94" fill="none" xmlns="http://www.w3.org/2000/svg">
<rect x="7" y="0.5" width="452" height="63" rx="7.5" fill="#EBF1FF"/>
<path d="M46.5 42.5C43.7152 42.5 41.0445 41.3938 39.0754 39.4246C37.1062 37.4555 36 34.7848 36 32C36 29.2152 37.1062 26.5445 39.0754 24.5754C41.0445 22.6062 43.7152 21.5 46.5 21.5C49.2848 21.5 51.9555 22.6062 53.9246 24.5754C55.8938 26.5445 57 29.2152 57 32C57 34.7848 55.8938 37.4555 53.9246 39.4246C51.9555 41.3938 49.2848 42.5 46.5 42.5ZM46.5 44C49.6826 44 52.7348 42.7357 54.9853 40.4853C57.2357 38.2348 58.5 35.1826 58.5 32C58.5 28.8174 57.2357 25.7652 54.9853 23.5147C52.7348 21.2643 49.6826 20 46.5 20C43.3174 20 40.2652 21.2643 38.0147 23.5147C35.7643 25.7652 34.5 28.8174 34.5 32C34.5 35.1826 35.7643 38.2348 38.0147 40.4853C40.2652 42.7357 43.3174 44 46.5 44Z" fill="#1C4076"/>
<path d="M45.0029 36.5001C45.0029 36.3032 45.0417 36.1081 45.1171 35.9261C45.1925 35.7441 45.303 35.5788 45.4423 35.4395C45.5816 35.3002 45.7469 35.1897 45.9289 35.1143C46.1109 35.0389 46.3059 35.0001 46.5029 35.0001C46.6999 35.0001 46.895 35.0389 47.077 35.1143C47.2589 35.1897 47.4243 35.3002 47.5636 35.4395C47.7029 35.5788 47.8134 35.7441 47.8888 35.9261C47.9641 36.1081 48.0029 36.3032 48.0029 36.5001C48.0029 36.898 47.8449 37.2795 47.5636 37.5608C47.2823 37.8421 46.9008 38.0001 46.5029 38.0001C46.1051 38.0001 45.7236 37.8421 45.4423 37.5608C45.161 37.2795 45.0029 36.898 45.0029 36.5001ZM45.1499 27.4927C45.13 27.3034 45.15 27.1121 45.2087 26.9311C45.2675 26.7501 45.3636 26.5835 45.4909 26.442C45.6182 26.3006 45.7738 26.1875 45.9476 26.1101C46.1215 26.0327 46.3096 25.9927 46.4999 25.9927C46.6902 25.9927 46.8784 26.0327 47.0522 26.1101C47.226 26.1875 47.3817 26.3006 47.509 26.442C47.6362 26.5835 47.7324 26.7501 47.7911 26.9311C47.8499 27.1121 47.8699 27.3034 47.8499 27.4927L47.3249 32.7531C47.3073 32.9598 47.2127 33.1523 47.06 33.2926C46.9072 33.4329 46.7073 33.5107 46.4999 33.5107C46.2925 33.5107 46.0927 33.4329 45.9399 33.2926C45.7871 33.1523 45.6926 32.9598 45.6749 32.7531L45.1499 27.4927Z" fill="#1C4076"/>
<path d="M88.2656 25.2812V26.4531H80.4531V25.2812H88.2656ZM81.7812 34.2656C82.1719 33.4844 82.7969 33.0938 83.6562 33.0938H84.3594V34.3438H83.6562C82.7969 34.3438 82.1719 34.7344 81.7812 35.5156V37H80.4531V31.5312C80.4531 28.9271 81.7552 27.625 84.3594 27.625C86.9635 27.625 88.2656 28.9271 88.2656 31.5312V37H86.9375V31.5312C86.9375 29.7083 86.0781 28.7969 84.3594 28.7969C82.6406 28.7969 81.7812 29.7083 81.7812 31.5312V34.2656ZM83.9688 21.1797C83.9688 21.3724 84.0182 21.5182 84.1172 21.6172C84.2161 21.7161 84.362 21.7656 84.5547 21.7656C84.7526 21.7656 84.901 21.7161 85 21.6172C85.0938 21.5182 85.1406 21.3724 85.1406 21.1797C85.1406 20.9818 85.0938 20.8359 85 20.7422C84.901 20.6432 84.7526 20.5938 84.5547 20.5938C84.362 20.5938 84.2161 20.6432 84.1172 20.7422C84.0182 20.8359 83.9688 20.9818 83.9688 21.1797ZM86.3125 21.1797C86.3125 21.7682 86.1667 22.2083 85.875 22.5C85.5833 22.7917 85.1432 22.9375 84.5547 22.9375C83.9661 22.9375 83.526 22.7917 83.2344 22.5C82.9427 22.2083 82.7969 21.7682 82.7969 21.1797C82.7969 20.5911 82.9427 20.151 83.2344 19.8594C83.526 19.5677 83.9661 19.4219 84.5547 19.4219C85.1432 19.4219 85.5833 19.5677 85.875 19.8594C86.1667 20.151 86.3125 20.5911 86.3125 21.1797ZM92.1719 35.8281V34.6562H91.9766C91.9193 34.6562 91.8724 34.6823 91.8359 34.7344C91.7995 34.7812 91.7812 34.9505 91.7812 35.2422C91.7812 35.5339 91.7995 35.7057 91.8359 35.7578C91.8724 35.8047 91.9193 35.8281 91.9766 35.8281H92.1719ZM93.5 28.4062V35.2422C93.5 35.9089 93.4115 36.3698 93.2344 36.625C93.0625 36.875 92.7344 37 92.25 37C91.7656 37 91.4349 36.875 91.2578 36.625C91.0859 36.3698 91 35.9089 91 35.2422C91 34.5755 91.0859 34.1172 91.2578 33.8672C91.4349 33.612 91.6745 33.4844 91.9766 33.4844C92.0443 33.4844 92.1094 33.4896 92.1719 33.5V28.4062C92.0677 28.0417 91.8073 27.651 91.3906 27.2344V26.4531C91.3906 25.6719 91.7812 25.2812 92.5625 25.2812H93.8906V26.4531H92.9531C92.6927 26.4531 92.5625 26.5833 92.5625 26.8438C93.1875 27.2604 93.5 27.7812 93.5 28.4062ZM91.1562 40.125C91.1562 40.6458 91.3255 40.9062 91.6641 40.9062C92.0026 40.9062 92.1719 40.6458 92.1719 40.125V37.7812H93.5V40.125C93.5 41.4271 92.888 42.0781 91.6641 42.0781C90.4401 42.0781 89.8281 41.4271 89.8281 40.125V37.7812H91.1562V40.125ZM98.7344 37H97.4062V31.5312C97.4062 28.9271 98.7083 27.625 101.312 27.625C103.917 27.625 105.219 28.9271 105.219 31.5312V37H103.891V31.5312C103.891 29.7083 103.031 28.7969 101.312 28.7969C99.5938 28.7969 98.7344 29.7083 98.7344 31.5312V37ZM105.219 25.2812V26.4531H97.4062V25.2812H105.219ZM105.219 25.2812H106.781C108.865 25.2812 109.906 26.3229 109.906 28.4062V37H108.578V28.4062C108.578 27.1042 107.979 26.4531 106.781 26.4531H105.219V25.2812ZM113.812 35.8281V34.6562H113.617C113.56 34.6562 113.513 34.6823 113.477 34.7344C113.44 34.7812 113.422 34.9505 113.422 35.2422C113.422 35.5339 113.44 35.7057 113.477 35.7578C113.513 35.8047 113.56 35.8281 113.617 35.8281H113.812ZM115.141 28.4062V35.2422C115.141 35.9089 115.052 36.3698 114.875 36.625C114.703 36.875 114.375 37 113.891 37C113.406 37 113.076 36.875 112.898 36.625C112.727 36.3698 112.641 35.9089 112.641 35.2422C112.641 34.5755 112.727 34.1172 112.898 33.8672C113.076 33.612 113.315 33.4844 113.617 33.4844C113.685 33.4844 113.75 33.4896 113.812 33.5V28.4062C113.708 28.0417 113.448 27.651 113.031 27.2344V26.4531C113.031 25.6719 113.422 25.2812 114.203 25.2812H115.531V26.4531H114.594C114.333 26.4531 114.203 26.5833 114.203 26.8438C114.828 27.2604 115.141 27.7812 115.141 28.4062ZM119.047 28.4062C119.047 28.0417 118.917 27.651 118.656 27.2344V26.8438C118.656 25.8021 119.177 25.2812 120.219 25.2812H122.562L124.359 26.4531H124.984C125.349 26.4531 125.531 26.2708 125.531 25.9062V24.1094H126.859V25.9062C126.859 27.0521 126.417 27.625 125.531 27.625H124.125L122.328 26.4531H120.766C120.245 26.4531 119.984 26.6094 119.984 26.9219C120.245 27.3385 120.375 27.8333 120.375 28.4062V35.4375L122.953 33.25L125.531 35.4375V28.4062H126.859V37H125.688L122.953 34.6562L120.219 37H119.047V28.4062ZM124.516 40.125C124.516 40.6458 124.685 40.9062 125.023 40.9062C125.362 40.9062 125.531 40.6458 125.531 40.125V37.7812H126.859V40.125C126.859 41.4271 126.247 42.0781 125.023 42.0781C123.799 42.0781 123.188 41.4271 123.188 40.125V37.7812H124.516V40.125ZM138.578 32.2344V33.875C138.578 35.9583 137.849 37 136.391 37C135.318 37 134.523 36.6745 134.008 36.0234C133.492 35.3724 132.854 35.0469 132.094 35.0469V37H130.766V32.3125H132.094V33.875C133.005 33.875 133.745 34.2005 134.312 34.8516C134.885 35.5026 135.466 35.8281 136.055 35.8281C136.852 35.8281 137.25 35.1771 137.25 33.875V33.0938C132.927 32.1562 130.766 30.5938 130.766 28.4062C130.766 26.3229 132.068 25.2812 134.672 25.2812C137.276 25.2812 138.578 26.3229 138.578 28.4062C138.578 29.8594 137.854 30.5859 136.406 30.5859C136.078 30.5859 135.812 30.5104 135.609 30.3594V29.1875C135.979 29.2969 136.281 29.3516 136.516 29.3516C137.005 29.3516 137.25 29.0365 137.25 28.4062C137.25 27.1042 136.391 26.4531 134.672 26.4531C132.953 26.4531 132.094 27.1042 132.094 28.4062C132.094 29.9688 134.255 31.2448 138.578 32.2344ZM142.484 28.4062H143.812V35.4375L146.391 33.0938L148.969 35.4375V28.4062H150.297V37H149.125L146.391 34.6562L143.656 37H142.484V28.4062ZM143.812 26.5234C143.812 26.737 144.672 26.8438 146.391 26.8438C148.109 26.8438 148.969 26.3229 148.969 25.2812V24.1094H150.297V25.2812C150.297 27.1042 148.995 28.0156 146.391 28.0156C143.786 28.0156 142.484 27.5208 142.484 26.5312C142.484 25.6979 142.917 25.2812 143.781 25.2812C144.328 25.2812 144.703 25.3568 144.906 25.5078V26.5234C144.536 26.4141 144.263 26.3594 144.086 26.3594C143.904 26.3594 143.812 26.4141 143.812 26.5234ZM146 21.1797C146 21.3724 146.049 21.5182 146.148 21.6172C146.247 21.7161 146.393 21.7656 146.586 21.7656C146.784 21.7656 146.932 21.7161 147.031 21.6172C147.125 21.5182 147.172 21.3724 147.172 21.1797C147.172 20.9818 147.125 20.8359 147.031 20.7422C146.932 20.6432 146.784 20.5938 146.586 20.5938C146.393 20.5938 146.247 20.6432 146.148 20.7422C146.049 20.8359 146 20.9818 146 21.1797ZM148.344 21.1797C148.344 21.7682 148.198 22.2083 147.906 22.5C147.615 22.7917 147.174 22.9375 146.586 22.9375C145.997 22.9375 145.557 22.7917 145.266 22.5C144.974 22.2083 144.828 21.7682 144.828 21.1797C144.828 20.5911 144.974 20.151 145.266 19.8594C145.557 19.5677 145.997 19.4219 146.586 19.4219C147.174 19.4219 147.615 19.5677 147.906 19.8594C148.198 20.151 148.344 20.5911 148.344 21.1797ZM155.375 34.6562V35.8281C155.484 35.8281 155.576 35.7995 155.648 35.7422C155.727 35.6797 155.766 35.513 155.766 35.2422C155.766 34.9714 155.727 34.8073 155.648 34.75C155.576 34.6875 155.484 34.6562 155.375 34.6562ZM154.203 29.1875C154.203 26.5833 155.292 25.2812 157.469 25.2812C159.641 25.2812 160.727 26.5833 160.727 29.1875V35.6719L162.797 32.9375L164.867 35.6719V29.1875C164.867 26.5833 165.956 25.2812 168.133 25.2812C170.305 25.2812 171.391 26.5833 171.391 29.1875V37H170.062V29.1875C170.062 27.3646 169.419 26.4531 168.133 26.4531C166.841 26.4531 166.195 27.3646 166.195 29.1875V37H164.477L162.797 34.6562L161.117 37H159.398V29.1875C159.398 27.3646 158.729 26.4531 157.391 26.4531C156.151 26.4531 155.531 27.3646 155.531 29.1875V33.5625C155.651 33.5104 155.789 33.4844 155.945 33.4844C156.102 33.4844 156.266 33.625 156.438 33.9062C156.615 34.1823 156.703 34.6276 156.703 35.2422C156.703 35.8568 156.589 36.3047 156.359 36.5859C156.135 36.862 155.833 37 155.453 37C155.073 37 154.771 36.8594 154.547 36.5781C154.37 36.3646 154.26 36.0495 154.219 35.6328H154.203V29.1875ZM170.141 19.5781C170.052 19.5781 169.977 19.6068 169.914 19.6641C169.857 19.7161 169.828 19.7917 169.828 19.8906C169.828 19.9792 169.857 20.0521 169.914 20.1094C169.977 20.1719 170.052 20.2031 170.141 20.2031C170.24 20.2031 170.315 20.1719 170.367 20.1094C170.424 20.0521 170.453 19.9792 170.453 19.8906C170.453 19.7917 170.424 19.7161 170.367 19.6641C170.315 19.6068 170.24 19.5781 170.141 19.5781ZM166.703 21.9219H170.219C168.922 21.0365 167.88 20.5938 167.094 20.5938C166.052 20.5938 165.531 20.8151 165.531 21.2578C165.531 21.7005 165.922 21.9219 166.703 21.9219ZM168.891 19.7969C168.911 19.4583 169.023 19.1875 169.227 18.9844C169.456 18.7552 169.76 18.6406 170.141 18.6406C170.521 18.6406 170.826 18.7552 171.055 18.9844C171.279 19.2083 171.391 19.5104 171.391 19.8906C171.391 20.2708 171.279 20.5729 171.055 20.7969C170.951 20.901 170.833 20.9818 170.703 21.0391C171.161 21.4453 171.391 21.7396 171.391 21.9219V22.9375H166.312C165.01 22.9375 164.359 22.4167 164.359 21.375C164.359 20.0729 165.271 19.4219 167.094 19.4219C167.719 19.4219 168.318 19.5469 168.891 19.7969ZM181.156 26.4688C181.156 26.3125 181.052 26.2344 180.844 26.2344C180.635 26.2344 180.531 26.3125 180.531 26.4688C180.531 26.6094 180.635 26.75 180.844 26.8906C181.052 26.7812 181.156 26.6406 181.156 26.4688ZM175.102 30.3594C175.044 30.3594 174.997 30.3854 174.961 30.4375C174.924 30.4844 174.906 30.6536 174.906 30.9453C174.906 31.237 174.924 31.4089 174.961 31.4609C174.997 31.5078 175.044 31.5312 175.102 31.5312H175.297V30.3594H175.102ZM176.625 35.4375L179.203 33.0938L181.781 35.4375V29.9688C181.781 29.4062 181.359 28.8099 180.516 28.1797C180.089 28.5911 179.365 28.7969 178.344 28.7969C177.208 28.7969 176.417 28.6484 175.969 28.3516C175.521 28.0547 175.297 27.6432 175.297 27.1172C175.297 26.5964 175.401 26.1094 175.609 25.6562C175.818 25.1979 175.922 24.8255 175.922 24.5391C175.922 24.2526 175.583 24.1094 174.906 24.1094V22.9375C176.365 22.9375 177.094 23.4323 177.094 24.4219C177.094 24.8125 176.99 25.25 176.781 25.7344C176.573 26.2135 176.469 26.5547 176.469 26.7578C176.469 26.9661 176.599 27.1641 176.859 27.3516C177.12 27.5339 177.633 27.625 178.398 27.625C179.06 27.625 179.536 27.5391 179.828 27.3672C179.568 27.1536 179.438 26.8229 179.438 26.375C179.438 25.6458 179.906 25.2812 180.844 25.2812C181.833 25.2812 182.328 25.724 182.328 26.6094C182.328 27.0625 182.125 27.4479 181.719 27.7656C182.646 28.4375 183.109 29.1719 183.109 29.9688V37H181.547L179.203 34.6562L176.859 37H175.297V32.6875C175.234 32.6979 175.169 32.7031 175.102 32.7031C174.799 32.7031 174.56 32.5781 174.383 32.3281C174.211 32.0729 174.125 31.612 174.125 30.9453C174.125 30.2786 174.211 29.8203 174.383 29.5703C174.56 29.3151 174.891 29.1875 175.375 29.1875C175.859 29.1875 176.188 29.3151 176.359 29.5703C176.536 29.8203 176.625 30.2786 176.625 30.9453V35.4375ZM193.5 29.3828C193.391 29.3828 193.297 29.4167 193.219 29.4844C193.146 29.5521 193.109 29.6484 193.109 29.7734C193.109 29.8984 193.146 29.9948 193.219 30.0625C193.297 30.1302 193.391 30.1641 193.5 30.1641V29.3828ZM193.5 31.0859C193.448 31.0911 193.396 31.0938 193.344 31.0938C192.99 31.0938 192.727 30.9818 192.555 30.7578C192.352 30.5078 192.25 30.1797 192.25 29.7734C192.25 29.3672 192.349 29.0391 192.547 28.7891C192.75 28.5339 193.081 28.4062 193.539 28.4062C193.997 28.4062 194.326 28.5339 194.523 28.7891C194.727 29.0391 194.828 29.3672 194.828 29.7734V33.0938C194.828 35.6979 193.526 37 190.922 37C188.318 37 187.016 35.6979 187.016 33.0938V28.4062C187.016 28.0417 186.885 27.651 186.625 27.2344V26.8438C186.625 25.8021 187.146 25.2812 188.188 25.2812H194.828V26.4531H188.734C188.214 26.4531 187.953 26.6094 187.953 26.9219C188.214 27.3385 188.344 27.8333 188.344 28.4062V33.0938C188.344 34.9167 189.203 35.8281 190.922 35.8281C192.641 35.8281 193.5 34.9167 193.5 33.0938V31.0859ZM200.062 31.5312V33.0938C200.062 34.9167 200.922 35.8281 202.641 35.8281C204.359 35.8281 205.219 34.9167 205.219 33.0938V31.5312H200.062ZM200.062 30.3594H205.219V28.4062C205.219 28.0417 204.958 27.651 204.438 27.2344V26.4531C204.438 25.6719 204.828 25.2812 205.609 25.2812H206.938V26.4531H206C205.74 26.4531 205.609 26.5833 205.609 26.8438C206.234 27.2604 206.547 27.7812 206.547 28.4062V33.0938C206.547 35.6979 205.245 37 202.641 37C200.036 37 198.734 35.6979 198.734 33.0938V28.4062C198.734 28.0417 198.474 27.651 197.953 27.2344V26.4531C197.953 25.6719 198.344 25.2812 199.125 25.2812H200.453V26.4531H199.516C199.255 26.4531 199.125 26.5833 199.125 26.8438C199.75 27.2604 200.062 27.7812 200.062 28.4062V30.3594ZM211.234 28.4062V42.0781H209.516L208.227 40.5156L206.938 42.0781H205.219V37.7812H206.547V40.75L208.227 38.7969L209.906 40.75V28.4062C209.906 28.0417 209.646 27.651 209.125 27.2344V26.4531C209.125 25.6719 209.516 25.2812 210.297 25.2812H211.625V26.4531H210.688C210.427 26.4531 210.297 26.5833 210.297 26.8438C210.922 27.2604 211.234 27.7812 211.234 28.4062ZM221 26.4688C221 26.3125 220.896 26.2344 220.688 26.2344C220.479 26.2344 220.375 26.3125 220.375 26.4688C220.375 26.6094 220.479 26.75 220.688 26.8906C220.896 26.7812 221 26.6406 221 26.4688ZM214.945 30.3594C214.888 30.3594 214.841 30.3854 214.805 30.4375C214.768 30.4844 214.75 30.6536 214.75 30.9453C214.75 31.237 214.768 31.4089 214.805 31.4609C214.841 31.5078 214.888 31.5312 214.945 31.5312H215.141V30.3594H214.945ZM216.469 35.4375L219.047 33.0938L221.625 35.4375V29.9688C221.625 29.4062 221.203 28.8099 220.359 28.1797C219.932 28.5911 219.208 28.7969 218.188 28.7969C217.052 28.7969 216.26 28.6484 215.812 28.3516C215.365 28.0547 215.141 27.6432 215.141 27.1172C215.141 26.5964 215.245 26.1094 215.453 25.6562C215.661 25.1979 215.766 24.8255 215.766 24.5391C215.766 24.2526 215.427 24.1094 214.75 24.1094V22.9375C216.208 22.9375 216.938 23.4323 216.938 24.4219C216.938 24.8125 216.833 25.25 216.625 25.7344C216.417 26.2135 216.312 26.5547 216.312 26.7578C216.312 26.9661 216.443 27.1641 216.703 27.3516C216.964 27.5339 217.477 27.625 218.242 27.625C218.904 27.625 219.38 27.5391 219.672 27.3672C219.411 27.1536 219.281 26.8229 219.281 26.375C219.281 25.6458 219.75 25.2812 220.688 25.2812C221.677 25.2812 222.172 25.724 222.172 26.6094C222.172 27.0625 221.969 27.4479 221.562 27.7656C222.49 28.4375 222.953 29.1719 222.953 29.9688V37H221.391L219.047 34.6562L216.703 37H215.141V32.6875C215.078 32.6979 215.013 32.7031 214.945 32.7031C214.643 32.7031 214.404 32.5781 214.227 32.3281C214.055 32.0729 213.969 31.612 213.969 30.9453C213.969 30.2786 214.055 29.8203 214.227 29.5703C214.404 29.3151 214.734 29.1875 215.219 29.1875C215.703 29.1875 216.031 29.3151 216.203 29.5703C216.38 29.8203 216.469 30.2786 216.469 30.9453V35.4375Z" fill="#344054"/>
<path fill-rule="evenodd" clip-rule="evenodd" d="M417.114 25.6139C417.255 25.4732 417.445 25.3942 417.644 25.3942C417.843 25.3942 418.034 25.4732 418.175 25.6139L423.478 30.9172L428.781 25.6139C428.922 25.4732 429.113 25.3942 429.312 25.3942C429.51 25.3942 429.701 25.4732 429.842 25.6139C429.983 25.7545 430.062 25.9453 430.062 26.1442C430.062 26.3431 429.983 26.5339 429.842 26.6745L424.539 31.9778L429.842 37.2811C429.983 37.4218 430.062 37.6126 430.062 37.8115C430.062 38.0104 429.983 38.2012 429.842 38.3418C429.701 38.4825 429.51 38.5615 429.312 38.5615C429.113 38.5615 428.922 38.4825 428.781 38.3418L423.478 33.0385L418.175 38.3418C418.034 38.4825 417.843 38.5615 417.644 38.5615C417.445 38.5615 417.255 38.4825 417.114 38.3418C416.973 38.2012 416.894 38.0104 416.894 37.8115C416.894 37.6126 416.973 37.4218 417.114 37.2811L422.417 31.9778L417.114 26.6745C416.973 26.5339 416.894 26.3431 416.894 26.1442C416.894 25.9453 416.973 25.7545 417.114 25.6139Z" fill="#344054"/>
<rect x="7" y="0.5" width="452" height="63" rx="7.5" stroke="#1C4076"/>
<rect x="6.5" width="453" height="16" fill="#EE7D22" fill-opacity="0.24"/>
<rect x="6.5" y="48" width="453" height="16" fill="#EE7D22" fill-opacity="0.24"/>
<rect x="6.5" width="24" height="64" fill="#EE7D22" fill-opacity="0.24"/>
<rect x="435.5" width="24" height="64" fill="#EE7D22" fill-opacity="0.24"/>
<path d="M467 0V64" stroke="#F07D03"/>
<rect x="471.5" y="24.5" width="38" height="18" rx="3" fill="#F07D03"/>
<path d="M480.881 37.5994C480.507 37.5971 480.146 37.5343 479.798 37.4112C479.452 37.2881 479.142 37.0881 478.867 36.8111C478.593 36.5341 478.375 36.1671 478.214 35.7102C478.055 35.2533 477.976 34.6922 477.976 34.027C477.978 33.4162 478.048 32.8705 478.185 32.3899C478.325 31.907 478.524 31.4974 478.782 31.1612C479.042 30.825 479.354 30.5694 479.716 30.3942C480.078 30.2166 480.484 30.1278 480.934 30.1278C481.419 30.1278 481.848 30.2225 482.219 30.4119C482.591 30.599 482.889 30.8535 483.114 31.1754C483.342 31.4974 483.479 31.8584 483.526 32.2585H482.01C481.951 32.0052 481.826 31.8063 481.637 31.6619C481.448 31.5175 481.213 31.4453 480.934 31.4453C480.46 31.4453 480.101 31.6513 479.854 32.0632C479.611 32.4751 479.486 33.035 479.482 33.7429H479.531C479.64 33.5275 479.787 33.344 479.972 33.1925C480.159 33.0386 480.371 32.9214 480.607 32.8409C480.846 32.758 481.098 32.7166 481.364 32.7166C481.795 32.7166 482.178 32.8184 482.514 33.022C482.85 33.2232 483.116 33.5002 483.31 33.853C483.504 34.2057 483.601 34.6094 483.601 35.0639C483.601 35.5563 483.486 35.9943 483.256 36.3778C483.029 36.7614 482.711 37.062 482.301 37.2798C481.894 37.4953 481.42 37.6018 480.881 37.5994ZM480.874 36.392C481.11 36.392 481.322 36.3352 481.509 36.2216C481.696 36.108 481.843 35.9541 481.95 35.7599C482.056 35.5658 482.109 35.348 482.109 35.1065C482.109 34.8651 482.056 34.6484 481.95 34.4567C481.845 34.2649 481.701 34.1122 481.516 33.9986C481.332 33.8849 481.121 33.8281 480.884 33.8281C480.707 33.8281 480.542 33.8613 480.391 33.9276C480.241 33.9938 480.11 34.0862 479.996 34.2045C479.885 34.3229 479.798 34.4602 479.734 34.6165C479.67 34.7704 479.638 34.9349 479.638 35.1101C479.638 35.3445 479.691 35.5587 479.798 35.7528C479.906 35.947 480.053 36.102 480.238 36.218C480.425 36.334 480.637 36.392 480.874 36.392ZM484.581 36.2216V35.0107L487.617 30.2273H488.661V31.9034H488.043L486.129 34.9325V34.9893H490.444V36.2216H484.581ZM488.072 37.5V35.8523L488.1 35.3161V30.2273H489.542V37.5H488.072ZM491.483 39.5455V32.0455H492.974V32.9616H493.042C493.108 32.8149 493.204 32.6657 493.329 32.5142C493.457 32.3603 493.623 32.2325 493.826 32.1307C494.032 32.0265 494.288 31.9744 494.593 31.9744C494.991 31.9744 495.358 32.0786 495.694 32.2869C496.03 32.4929 496.299 32.8042 496.5 33.2209C496.702 33.6352 496.802 34.1548 496.802 34.7798C496.802 35.3883 496.704 35.902 496.507 36.321C496.313 36.7377 496.048 37.0537 495.712 37.2692C495.378 37.4822 495.004 37.5888 494.59 37.5888C494.296 37.5888 494.047 37.5402 493.841 37.4432C493.637 37.3461 493.47 37.2242 493.34 37.0774C493.21 36.9283 493.11 36.7779 493.042 36.6264H492.995V39.5455H491.483ZM492.963 34.7727C492.963 35.0971 493.008 35.38 493.098 35.6214C493.188 35.8629 493.319 36.0511 493.489 36.1861C493.659 36.3187 493.867 36.3849 494.11 36.3849C494.357 36.3849 494.565 36.3175 494.735 36.1825C494.906 36.0452 495.035 35.8558 495.123 35.6143C495.212 35.3705 495.257 35.09 495.257 34.7727C495.257 34.4579 495.214 34.1809 495.126 33.9418C495.038 33.7027 494.909 33.5156 494.739 33.3807C494.569 33.2457 494.359 33.1783 494.11 33.1783C493.864 33.1783 493.656 33.2434 493.485 33.3736C493.317 33.5038 493.188 33.6884 493.098 33.9276C493.008 34.1667 492.963 34.4484 492.963 34.7727ZM498.88 32.0455L499.881 33.9524L500.907 32.0455H502.459L500.879 34.7727L502.502 37.5H500.957L499.881 35.6143L498.823 37.5H497.26L498.88 34.7727L497.317 32.0455H498.88Z" fill="white"/>
<line x1="463.5" y1="0.5" x2="470.5" y2="0.5" stroke="#F07D03"/>
<line x1="463.5" y1="63.5" x2="470.5" y2="63.5" stroke="#F07D03"/>
<path d="M435.5 71.5H459.5" stroke="#F07D03"/>
<rect x="429" y="76" width="37" height="18" rx="3" fill="#F07D03"/>
<path d="M435.589 89V87.892L438.178 85.495C438.398 85.282 438.583 85.0902 438.732 84.9197C438.884 84.7493 438.999 84.5824 439.077 84.419C439.155 84.2533 439.194 84.0746 439.194 83.8828C439.194 83.6697 439.145 83.4863 439.048 83.3324C438.951 83.1761 438.819 83.0566 438.651 82.9737C438.482 82.8885 438.292 82.8459 438.079 82.8459C437.856 82.8459 437.662 82.8909 437.496 82.9808C437.331 83.0708 437.203 83.1998 437.113 83.3679C437.023 83.536 436.978 83.736 436.978 83.968H435.518C435.518 83.4922 435.626 83.0791 435.842 82.7287C436.057 82.3783 436.359 82.1072 436.747 81.9155C437.135 81.7237 437.583 81.6278 438.089 81.6278C438.61 81.6278 439.064 81.7202 439.45 81.9048C439.838 82.0871 440.14 82.3404 440.355 82.6648C440.571 82.9891 440.678 83.3608 440.678 83.7798C440.678 84.0545 440.624 84.3255 440.515 84.593C440.408 84.8606 440.218 85.1577 439.943 85.4844C439.669 85.8087 439.281 86.1982 438.782 86.6527L437.72 87.6932V87.7429H440.774V89H435.589ZM441.622 87.7216V86.5107L444.658 81.7273H445.702V83.4034H445.084L443.17 86.4325V86.4893H447.485V87.7216H441.622ZM445.113 89V87.3523L445.141 86.8161V81.7273H446.583V89H445.113ZM448.524 91.0455V83.5455H450.015V84.4616H450.083C450.149 84.3149 450.245 84.1657 450.37 84.0142C450.498 83.8603 450.664 83.7325 450.867 83.6307C451.073 83.5265 451.329 83.4744 451.634 83.4744C452.032 83.4744 452.399 83.5786 452.735 83.7869C453.071 83.9929 453.34 84.3042 453.541 84.7209C453.743 85.1352 453.843 85.6548 453.843 86.2798C453.843 86.8883 453.745 87.402 453.548 87.821C453.354 88.2377 453.089 88.5537 452.753 88.7692C452.419 88.9822 452.045 89.0888 451.631 89.0888C451.337 89.0888 451.088 89.0402 450.882 88.9432C450.678 88.8461 450.511 88.7242 450.381 88.5774C450.251 88.4283 450.151 88.2779 450.083 88.1264H450.036V91.0455H448.524ZM450.004 86.2727C450.004 86.5971 450.049 86.88 450.139 87.1214C450.229 87.3629 450.36 87.5511 450.53 87.6861C450.7 87.8187 450.908 87.8849 451.151 87.8849C451.398 87.8849 451.606 87.8175 451.776 87.6825C451.947 87.5452 452.076 87.3558 452.164 87.1143C452.253 86.8705 452.298 86.59 452.298 86.2727C452.298 85.9579 452.255 85.6809 452.167 85.4418C452.079 85.2027 451.95 85.0156 451.78 84.8807C451.61 84.7457 451.4 84.6783 451.151 84.6783C450.905 84.6783 450.697 84.7434 450.526 84.8736C450.358 85.0038 450.229 85.1884 450.139 85.4276C450.049 85.6667 450.004 85.9484 450.004 86.2727ZM455.921 83.5455L456.922 85.4524L457.948 83.5455H459.5L457.92 86.2727L459.543 89H457.998L456.922 87.1143L455.864 89H454.301L455.921 86.2727L454.358 83.5455H455.921Z" fill="white"/>
<line x1="436" y1="75" x2="436" y2="68" stroke="#F07D03"/>
<line x1="459" y1="75" x2="459" y2="68" stroke="#F07D03"/>
<path d="M6.5 71.5H30.5" stroke="#F07D03"/>
<rect y="76" width="37" height="18" rx="3" fill="#F07D03"/>
<path d="M6.58949 89V87.892L9.17827 85.495C9.39844 85.282 9.5831 85.0902 9.73224 84.9197C9.88376 84.7493 9.99858 84.5824 10.0767 84.419C10.1548 84.2533 10.1939 84.0746 10.1939 83.8828C10.1939 83.6697 10.1454 83.4863 10.0483 83.3324C9.95123 83.1761 9.81866 83.0566 9.65057 82.9737C9.48248 82.8885 9.2919 82.8459 9.07884 82.8459C8.8563 82.8459 8.66217 82.8909 8.49645 82.9808C8.33073 83.0708 8.20289 83.1998 8.11293 83.3679C8.02296 83.536 7.97798 83.736 7.97798 83.968H6.51847C6.51847 83.4922 6.62618 83.0791 6.84162 82.7287C7.05705 82.3783 7.3589 82.1072 7.74716 81.9155C8.13542 81.7237 8.58286 81.6278 9.08949 81.6278C9.61032 81.6278 10.0637 81.7202 10.4496 81.9048C10.8378 82.0871 11.1397 82.3404 11.3551 82.6648C11.5705 82.9891 11.6783 83.3608 11.6783 83.7798C11.6783 84.0545 11.6238 84.3255 11.5149 84.593C11.4084 84.8606 11.2178 85.1577 10.9432 85.4844C10.6686 85.8087 10.2815 86.1982 9.78196 86.6527L8.72017 87.6932V87.7429H11.7741V89H6.58949ZM12.622 87.7216V86.5107L15.6582 81.7273H16.7022V83.4034H16.0843L14.1703 86.4325V86.4893H18.4849V87.7216H12.622ZM16.1127 89V87.3523L16.1412 86.8161V81.7273H17.5829V89H16.1127ZM19.5236 91.0455V83.5455H21.0151V84.4616H21.0826C21.1489 84.3149 21.2447 84.1657 21.3702 84.0142C21.498 83.8603 21.6638 83.7325 21.8674 83.6307C22.0733 83.5265 22.329 83.4744 22.6344 83.4744C23.0321 83.4744 23.3991 83.5786 23.7353 83.7869C24.0714 83.9929 24.3401 84.3042 24.5414 84.7209C24.7426 85.1352 24.8432 85.6548 24.8432 86.2798C24.8432 86.8883 24.745 87.402 24.5485 87.821C24.3543 88.2377 24.0892 88.5537 23.753 88.7692C23.4192 88.9822 23.0452 89.0888 22.6309 89.0888C22.3373 89.0888 22.0875 89.0402 21.8816 88.9432C21.678 88.8461 21.5111 88.7242 21.3809 88.5774C21.2507 88.4283 21.1512 88.2779 21.0826 88.1264H21.0364V91.0455H19.5236ZM21.0044 86.2727C21.0044 86.5971 21.0494 86.88 21.1394 87.1214C21.2293 87.3629 21.3596 87.5511 21.53 87.6861C21.7005 87.8187 21.9076 87.8849 22.1515 87.8849C22.3977 87.8849 22.606 87.8175 22.7765 87.6825C22.9469 87.5452 23.0759 87.3558 23.1635 87.1143C23.2535 86.8705 23.2985 86.59 23.2985 86.2727C23.2985 85.9579 23.2547 85.6809 23.1671 85.4418C23.0795 85.2027 22.9505 85.0156 22.78 84.8807C22.6096 84.7457 22.4 84.6783 22.1515 84.6783C21.9052 84.6783 21.6969 84.7434 21.5265 84.8736C21.3584 85.0038 21.2293 85.1884 21.1394 85.4276C21.0494 85.6667 21.0044 85.9484 21.0044 86.2727ZM26.9206 83.5455L27.9221 85.4524L28.9483 83.5455H30.5002L28.9199 86.2727L30.5428 89H28.998L27.9221 87.1143L26.8638 89H25.3013L26.9206 86.2727L25.3581 83.5455H26.9206Z" fill="white"/>
<line x1="7" y1="75" x2="7" y2="68" stroke="#F07D03"/>
<line x1="30" y1="75" x2="30" y2="68" stroke="#F07D03"/>
<path d="M62.5 71.5H78.5" stroke="#F07D03"/>
<rect x="56" y="76" width="36" height="18" rx="3" fill="#F07D03"/>
<path d="M65.7536 81.7273V89H64.2159V83.1868H64.1733L62.5078 84.2308V82.8672L64.3082 81.7273H65.7536ZM70.2733 89.0994C69.8992 89.0971 69.5382 89.0343 69.1902 88.9112C68.8445 88.7881 68.5344 88.5881 68.2598 88.3111C67.9851 88.0341 67.7673 87.6671 67.6064 87.2102C67.4477 86.7533 67.3684 86.1922 67.3684 85.527C67.3708 84.9162 67.4406 84.3705 67.5779 83.8899C67.7176 83.407 67.9165 82.9974 68.1745 82.6612C68.435 82.325 68.7463 82.0694 69.1085 81.8942C69.4707 81.7166 69.8767 81.6278 70.3265 81.6278C70.8118 81.6278 71.2404 81.7225 71.612 81.9119C71.9837 82.099 72.282 82.3535 72.5069 82.6754C72.7342 82.9974 72.8715 83.3584 72.9189 83.7585H71.4025C71.3433 83.5052 71.219 83.3063 71.0297 83.1619C70.8403 83.0175 70.6059 82.9453 70.3265 82.9453C69.853 82.9453 69.4932 83.1513 69.247 83.5632C69.0031 83.9751 68.8788 84.535 68.8741 85.2429H68.9238C69.0327 85.0275 69.1795 84.844 69.3642 84.6925C69.5512 84.5386 69.7631 84.4214 69.9998 84.3409C70.2389 84.258 70.4911 84.2166 70.7562 84.2166C71.1871 84.2166 71.5706 84.3184 71.9068 84.522C72.243 84.7232 72.5081 85.0002 72.7022 85.353C72.8964 85.7057 72.9934 86.1094 72.9934 86.5639C72.9934 87.0563 72.8786 87.4943 72.649 87.8778C72.4217 88.2614 72.1033 88.562 71.6937 88.7798C71.2865 88.9953 70.813 89.1018 70.2733 89.0994ZM70.2662 87.892C70.5029 87.892 70.7148 87.8352 70.9018 87.7216C71.0888 87.608 71.2356 87.4541 71.3422 87.2599C71.4487 87.0658 71.502 86.848 71.502 86.6065C71.502 86.3651 71.4487 86.1484 71.3422 85.9567C71.238 85.7649 71.0936 85.6122 70.9089 85.4986C70.7243 85.3849 70.5136 85.3281 70.2768 85.3281C70.0993 85.3281 69.9347 85.3613 69.7832 85.4276C69.6341 85.4938 69.5027 85.5862 69.389 85.7045C69.2778 85.8229 69.1902 85.9602 69.1262 86.1165C69.0623 86.2704 69.0304 86.4349 69.0304 86.6101C69.0304 86.8445 69.0836 87.0587 69.1902 87.2528C69.2991 87.447 69.4458 87.602 69.6305 87.718C69.8175 87.834 70.0294 87.892 70.2662 87.892ZM74.0978 91.0455V83.5455H75.5893V84.4616H75.6568C75.7231 84.3149 75.819 84.1657 75.9444 84.0142C76.0723 83.8603 76.238 83.7325 76.4416 83.6307C76.6475 83.5265 76.9032 83.4744 77.2086 83.4744C77.6064 83.4744 77.9733 83.5786 78.3095 83.7869C78.6457 83.9929 78.9144 84.3042 79.1156 84.7209C79.3168 85.1352 79.4174 85.6548 79.4174 86.2798C79.4174 86.8883 79.3192 87.402 79.1227 87.821C78.9286 88.2377 78.6634 88.5537 78.3272 88.7692C77.9934 88.9822 77.6194 89.0888 77.2051 89.0888C76.9115 89.0888 76.6618 89.0402 76.4558 88.9432C76.2522 88.8461 76.0853 88.7242 75.9551 88.5774C75.8249 88.4283 75.7254 88.2779 75.6568 88.1264H75.6106V91.0455H74.0978ZM75.5787 86.2727C75.5787 86.5971 75.6236 86.88 75.7136 87.1214C75.8036 87.3629 75.9338 87.5511 76.1042 87.6861C76.2747 87.8187 76.4818 87.8849 76.7257 87.8849C76.9719 87.8849 77.1802 87.8175 77.3507 87.6825C77.5211 87.5452 77.6502 87.3558 77.7377 87.1143C77.8277 86.8705 77.8727 86.59 77.8727 86.2727C77.8727 85.9579 77.8289 85.6809 77.7413 85.4418C77.6537 85.2027 77.5247 85.0156 77.3542 84.8807C77.1838 84.7457 76.9743 84.6783 76.7257 84.6783C76.4795 84.6783 76.2711 84.7434 76.1007 84.8736C75.9326 85.0038 75.8036 85.1884 75.7136 85.4276C75.6236 85.6667 75.5787 85.9484 75.5787 86.2727ZM81.4949 83.5455L82.4963 85.4524L83.5225 83.5455H85.0744L83.4941 86.2727L85.117 89H83.5723L82.4963 87.1143L81.438 89H79.8755L81.4949 86.2727L79.9324 83.5455H81.4949Z" fill="white"/>
<line x1="63" y1="75" x2="63" y2="68" stroke="#F07D03"/>
<line x1="78" y1="75" x2="78" y2="68" stroke="#F07D03"/>
<rect x="62.5" width="16" height="64" fill="#EE7D22" fill-opacity="0.24"/>
</svg>
