<svg width="189" height="97" viewBox="0 0 189 97" fill="none" xmlns="http://www.w3.org/2000/svg">
<path d="M38.3189 53.5V53H37.8189H11C5.20101 53 0.5 57.701 0.5 63.5V85.5C0.5 91.299 5.20101 96 11 96H37.8189H38.3189V95.5V53.5Z" fill="#E4E7EC"/>
<path d="M25.8188 81.0881L16.9999 81.0881C14.7908 81.0881 12.9999 79.2973 12.9999 77.0881L12.9999 71.9117C12.9999 69.7025 14.7908 67.9117 16.9999 67.9117L25.8188 67.9117L25.8188 81.0881Z" fill="#E4E7EC"/>
<path fill-rule="evenodd" clip-rule="evenodd" d="M24.2166 74.4999C24.2166 74.6091 24.1743 74.7138 24.0992 74.791C24.0241 74.8682 23.9222 74.9116 23.816 74.9116L15.0029 74.9116C14.8967 74.9116 14.7948 74.8682 14.7197 74.791C14.6446 74.7138 14.6024 74.6091 14.6024 74.4999C14.6024 74.3906 14.6446 74.2859 14.7197 74.2087C14.7948 74.1315 14.8967 74.0881 15.0029 74.0881L23.816 74.0881C23.9222 74.0881 24.0241 74.1315 24.0992 74.2087C24.1743 74.2859 24.2166 74.3907 24.2166 74.4999Z" fill="#98A2B3"/>
<path d="M38.3189 53.5V53H37.8189H11C5.20101 53 0.5 57.701 0.5 63.5V85.5C0.5 91.299 5.20101 96 11 96H37.8189H38.3189V95.5V53.5Z" stroke="#98A2B3"/>
<path d="M69.5532 75.5938C69.5532 77.1562 70.3084 77.9375 71.8188 77.9375C73.3293 77.9375 74.0845 77.1562 74.0845 75.5938V71.6875C74.0845 70.125 73.3293 69.3438 71.8188 69.3438C70.3084 69.3438 69.5532 70.125 69.5532 71.6875V75.5938ZM76.0376 75.5938C76.0376 78.1979 74.6313 79.5 71.8188 79.5C69.0063 79.5 67.6001 78.1979 67.6001 75.5938V71.6875C67.6001 69.0833 69.0063 67.7812 71.8188 67.7812C74.6313 67.7812 76.0376 69.0833 76.0376 71.6875V75.5938Z" fill="#344054"/>
<rect x="38.3188" y="53" width="67" height="43" stroke="#98A2B3"/>
<path d="M105.819 53H105.319V53.5V95.5V96H105.819H132.638C138.437 96 143.138 91.299 143.138 85.5V63.5C143.138 57.701 138.437 53 132.638 53H105.819Z" fill="#1C4076"/>
<path d="M130.638 81.0881L121.819 81.0881C119.61 81.0881 117.819 79.2973 117.819 77.0881L117.819 71.9117C117.819 69.7025 119.61 67.9117 121.819 67.9117L130.638 67.9117L130.638 81.0881Z" fill="#1C4076"/>
<path fill-rule="evenodd" clip-rule="evenodd" d="M124.228 79.4412C124.122 79.4412 124.02 79.3978 123.945 79.3206C123.87 79.2433 123.828 79.1386 123.828 79.0294L123.828 74.9118L119.822 74.9118C119.716 74.9118 119.614 74.8684 119.539 74.7912C119.463 74.7139 119.421 74.6092 119.421 74.5C119.421 74.3908 119.463 74.286 119.539 74.2088C119.614 74.1316 119.716 74.0882 119.822 74.0882L123.828 74.0882L123.828 69.9706C123.828 69.8614 123.87 69.7566 123.945 69.6794C124.02 69.6022 124.122 69.5588 124.228 69.5588C124.335 69.5588 124.436 69.6022 124.512 69.6794C124.587 69.7566 124.629 69.8614 124.629 69.9706L124.629 74.0882L128.635 74.0882C128.741 74.0882 128.843 74.1316 128.918 74.2088C128.993 74.286 129.035 74.3908 129.035 74.5C129.035 74.6092 128.993 74.7139 128.918 74.7912C128.843 74.8684 128.741 74.9118 128.635 74.9118L124.629 74.9118L124.629 79.0294C124.629 79.1386 124.587 79.2433 124.512 79.3206C124.436 79.3978 124.335 79.4412 124.228 79.4412Z" fill="white"/>
<path d="M105.819 53H105.319V53.5V95.5V96H105.819H132.638C138.437 96 143.138 91.299 143.138 85.5V63.5C143.138 57.701 138.437 53 132.638 53H105.819Z" stroke="#98A2B3"/>
<circle cx="177" cy="74" r="12" transform="rotate(-90 177 74)" fill="#344054"/>
<path d="M172.443 80V78.2273L176.585 74.392C176.938 74.0511 177.233 73.7443 177.472 73.4716C177.714 73.1989 177.898 72.9318 178.023 72.6705C178.148 72.4053 178.21 72.1193 178.21 71.8125C178.21 71.4716 178.133 71.178 177.977 70.9318C177.822 70.6818 177.61 70.4905 177.341 70.358C177.072 70.2216 176.767 70.1534 176.426 70.1534C176.07 70.1534 175.759 70.2254 175.494 70.3693C175.229 70.5133 175.025 70.7197 174.881 70.9886C174.737 71.2576 174.665 71.5777 174.665 71.9489H172.33C172.33 71.1875 172.502 70.5265 172.847 69.9659C173.191 69.4053 173.674 68.9716 174.295 68.6648C174.917 68.358 175.633 68.2045 176.443 68.2045C177.277 68.2045 178.002 68.3523 178.619 68.6477C179.241 68.9394 179.723 69.3447 180.068 69.8636C180.413 70.3826 180.585 70.9773 180.585 71.6477C180.585 72.0871 180.498 72.5208 180.324 72.9489C180.153 73.3769 179.848 73.8523 179.409 74.375C178.97 74.8939 178.35 75.517 177.551 76.2443L175.852 77.9091V77.9886H180.739V80H172.443Z" fill="white"/>
<path d="M167 74L144 74" stroke="#344054" stroke-dasharray="2 2"/>
<circle cx="72" cy="16" r="12" transform="rotate(-90 72 16)" fill="#344054"/>
<path d="M74.0057 10.3636V22H71.5455V12.6989H71.4773L68.8125 14.3693V12.1875L71.6932 10.3636H74.0057Z" fill="white"/>
<path d="M72 25L72 53" stroke="#344054" stroke-dasharray="2 2"/>
</svg>
