<svg width="198" height="47" viewBox="0 0 198 47" fill="none" xmlns="http://www.w3.org/2000/svg">
<path d="M38.3189 2.5V2H37.8189H11C5.20101 2 0.5 6.70101 0.5 12.5V34.5C0.5 40.299 5.20101 45 11 45H37.8189H38.3189V44.5V2.5Z" fill="#E4E7EC"/>
<path d="M25.8188 30.0883L16.9999 30.0883C14.7908 30.0883 12.9999 28.2974 12.9999 26.0883L12.9999 20.9118C12.9999 18.7027 14.7908 16.9118 16.9999 16.9118L25.8188 16.9118L25.8188 30.0883Z" fill="#E4E7EC"/>
<path fill-rule="evenodd" clip-rule="evenodd" d="M24.2166 23.5C24.2166 23.6092 24.1743 23.7139 24.0992 23.7911C24.0241 23.8684 23.9222 23.9117 23.816 23.9117L15.0029 23.9117C14.8967 23.9117 14.7948 23.8684 14.7197 23.7911C14.6446 23.7139 14.6024 23.6092 14.6024 23.5C14.6024 23.3908 14.6446 23.286 14.7197 23.2088C14.7948 23.1316 14.8967 23.0882 15.0029 23.0882L23.816 23.0882C23.9222 23.0882 24.0241 23.1316 24.0992 23.2088C24.1743 23.286 24.2166 23.3908 24.2166 23.5Z" fill="#98A2B3"/>
<path d="M38.3189 2.5V2H37.8189H11C5.20101 2 0.5 6.70101 0.5 12.5V34.5C0.5 40.299 5.20101 45 11 45H37.8189H38.3189V44.5V2.5Z" stroke="#98A2B3"/>
<path d="M69.5532 24.5938C69.5532 26.1562 70.3084 26.9375 71.8188 26.9375C73.3293 26.9375 74.0845 26.1562 74.0845 24.5938V20.6875C74.0845 19.125 73.3293 18.3438 71.8188 18.3438C70.3084 18.3438 69.5532 19.125 69.5532 20.6875V24.5938ZM76.0376 24.5938C76.0376 27.1979 74.6313 28.5 71.8188 28.5C69.0063 28.5 67.6001 27.1979 67.6001 24.5938V20.6875C67.6001 18.0833 69.0063 16.7812 71.8188 16.7812C74.6313 16.7812 76.0376 18.0833 76.0376 20.6875V24.5938Z" fill="#344054"/>
<rect x="38.3188" y="2" width="67" height="43" stroke="#98A2B3"/>
<path d="M105.819 2H105.319V2.5V44.5V45H105.819H132.638C138.437 45 143.138 40.299 143.138 34.5V12.5C143.138 6.70101 138.437 2 132.638 2H105.819Z" fill="#1C4076"/>
<path d="M130.638 30.0883L121.819 30.0883C119.61 30.0883 117.819 28.2974 117.819 26.0883L117.819 20.9118C117.819 18.7027 119.61 16.9118 121.819 16.9118L130.638 16.9118L130.638 30.0883Z" fill="#1C4076"/>
<path fill-rule="evenodd" clip-rule="evenodd" d="M124.228 28.4412C124.122 28.4412 124.02 28.3978 123.945 28.3206C123.87 28.2433 123.828 28.1386 123.828 28.0294L123.828 23.9118L119.822 23.9118C119.716 23.9118 119.614 23.8684 119.539 23.7912C119.463 23.7139 119.421 23.6092 119.421 23.5C119.421 23.3908 119.463 23.286 119.539 23.2088C119.614 23.1316 119.716 23.0882 119.822 23.0882L123.828 23.0882L123.828 18.9706C123.828 18.8614 123.87 18.7566 123.945 18.6794C124.02 18.6022 124.122 18.5588 124.228 18.5588C124.335 18.5588 124.436 18.6022 124.512 18.6794C124.587 18.7566 124.629 18.8614 124.629 18.9706L124.629 23.0882L128.635 23.0882C128.741 23.0882 128.843 23.1316 128.918 23.2088C128.993 23.286 129.035 23.3908 129.035 23.5C129.035 23.6092 128.993 23.7139 128.918 23.7912C128.843 23.8684 128.741 23.9118 128.635 23.9118L124.629 23.9118L124.629 28.0294C124.629 28.1386 124.587 28.2433 124.512 28.3206C124.436 28.3978 124.335 28.4412 124.228 28.4412Z" fill="white"/>
<path d="M105.819 2H105.319V2.5V44.5V45H105.819H132.638C138.437 45 143.138 40.299 143.138 34.5V12.5C143.138 6.70101 138.437 2 132.638 2H105.819Z" stroke="#98A2B3"/>
<path d="M151.5 17.5L151.5 1.5" stroke="#F07D03"/>
<rect x="162" y="0.5" width="36" height="18" rx="3" fill="#F07D03"/>
<path d="M171.754 6.22727V13.5H170.216V7.68679H170.173L168.508 8.73082V7.36719L170.308 6.22727H171.754ZM176.273 13.5994C175.899 13.5971 175.538 13.5343 175.19 13.4112C174.845 13.2881 174.534 13.0881 174.26 12.8111C173.985 12.5341 173.767 12.1671 173.606 11.7102C173.448 11.2533 173.368 10.6922 173.368 10.027C173.371 9.41619 173.441 8.8705 173.578 8.38991C173.718 7.90696 173.916 7.4974 174.175 7.16122C174.435 6.82505 174.746 6.56937 175.108 6.39418C175.471 6.21662 175.877 6.12784 176.327 6.12784C176.812 6.12784 177.24 6.22254 177.612 6.41193C177.984 6.59896 178.282 6.85346 178.507 7.17543C178.734 7.4974 178.872 7.85843 178.919 8.25852H177.403C177.343 8.00521 177.219 7.80634 177.03 7.66193C176.84 7.51752 176.606 7.44531 176.327 7.44531C175.853 7.44531 175.493 7.65128 175.247 8.06321C175.003 8.47514 174.879 9.03504 174.874 9.7429H174.924C175.033 9.52746 175.18 9.34399 175.364 9.19247C175.551 9.03859 175.763 8.9214 176 8.84091C176.239 8.75805 176.491 8.71662 176.756 8.71662C177.187 8.71662 177.571 8.81842 177.907 9.02202C178.243 9.22325 178.508 9.50024 178.702 9.85298C178.896 10.2057 178.993 10.6094 178.993 11.0639C178.993 11.5563 178.879 11.9943 178.649 12.3778C178.422 12.7614 178.103 13.062 177.694 13.2798C177.287 13.4953 176.813 13.6018 176.273 13.5994ZM176.266 12.392C176.503 12.392 176.715 12.3352 176.902 12.2216C177.089 12.108 177.236 11.9541 177.342 11.7599C177.449 11.5658 177.502 11.348 177.502 11.1065C177.502 10.8651 177.449 10.6484 177.342 10.4567C177.238 10.2649 177.094 10.1122 176.909 9.99858C176.724 9.88494 176.514 9.82812 176.277 9.82812C176.099 9.82812 175.935 9.86127 175.783 9.92756C175.634 9.99384 175.503 10.0862 175.389 10.2045C175.278 10.3229 175.19 10.4602 175.126 10.6165C175.062 10.7704 175.03 10.9349 175.03 11.1101C175.03 11.3445 175.084 11.5587 175.19 11.7528C175.299 11.947 175.446 12.102 175.631 12.218C175.818 12.334 176.029 12.392 176.266 12.392ZM180.098 15.5455V8.04545H181.589V8.96165H181.657C181.723 8.81487 181.819 8.66572 181.944 8.5142C182.072 8.36032 182.238 8.23248 182.442 8.13068C182.648 8.02652 182.903 7.97443 183.209 7.97443C183.606 7.97443 183.973 8.0786 184.309 8.28693C184.646 8.4929 184.914 8.80421 185.116 9.22088C185.317 9.63518 185.417 10.1548 185.417 10.7798C185.417 11.3883 185.319 11.902 185.123 12.321C184.929 12.7377 184.663 13.0537 184.327 13.2692C183.993 13.4822 183.619 13.5888 183.205 13.5888C182.912 13.5888 182.662 13.5402 182.456 13.4432C182.252 13.3461 182.085 13.2242 181.955 13.0774C181.825 12.9283 181.725 12.7779 181.657 12.6264H181.611V15.5455H180.098ZM181.579 10.7727C181.579 11.0971 181.624 11.38 181.714 11.6214C181.804 11.8629 181.934 12.0511 182.104 12.1861C182.275 12.3187 182.482 12.3849 182.726 12.3849C182.972 12.3849 183.18 12.3175 183.351 12.1825C183.521 12.0452 183.65 11.8558 183.738 11.6143C183.828 11.3705 183.873 11.09 183.873 10.7727C183.873 10.4579 183.829 10.1809 183.741 9.94176C183.654 9.70265 183.525 9.51562 183.354 9.38068C183.184 9.24574 182.974 9.17827 182.726 9.17827C182.479 9.17827 182.271 9.24337 182.101 9.37358C181.933 9.50379 181.804 9.68845 181.714 9.92756C181.624 10.1667 181.579 10.4484 181.579 10.7727ZM187.495 8.04545L188.496 9.95241L189.523 8.04545H191.074L189.494 10.7727L191.117 13.5H189.572L188.496 11.6143L187.438 13.5H185.876L187.495 10.7727L185.932 8.04545H187.495Z" fill="white"/>
<line x1="155" y1="17" x2="148" y2="17" stroke="#F07D03"/>
<line x1="155" y1="2" x2="148" y2="2" stroke="#F07D03"/>
<path d="M151.5 45.5L151.5 29.5" stroke="#F07D03"/>
<rect x="162" y="28.5" width="36" height="18" rx="3" fill="#F07D03"/>
<path d="M171.754 34.2273V41.5H170.216V35.6868H170.173L168.508 36.7308V35.3672L170.308 34.2273H171.754ZM176.273 41.5994C175.899 41.5971 175.538 41.5343 175.19 41.4112C174.845 41.2881 174.534 41.0881 174.26 40.8111C173.985 40.5341 173.767 40.1671 173.606 39.7102C173.448 39.2533 173.368 38.6922 173.368 38.027C173.371 37.4162 173.441 36.8705 173.578 36.3899C173.718 35.907 173.916 35.4974 174.175 35.1612C174.435 34.825 174.746 34.5694 175.108 34.3942C175.471 34.2166 175.877 34.1278 176.327 34.1278C176.812 34.1278 177.24 34.2225 177.612 34.4119C177.984 34.599 178.282 34.8535 178.507 35.1754C178.734 35.4974 178.872 35.8584 178.919 36.2585H177.403C177.343 36.0052 177.219 35.8063 177.03 35.6619C176.84 35.5175 176.606 35.4453 176.327 35.4453C175.853 35.4453 175.493 35.6513 175.247 36.0632C175.003 36.4751 174.879 37.035 174.874 37.7429H174.924C175.033 37.5275 175.18 37.344 175.364 37.1925C175.551 37.0386 175.763 36.9214 176 36.8409C176.239 36.758 176.491 36.7166 176.756 36.7166C177.187 36.7166 177.571 36.8184 177.907 37.022C178.243 37.2232 178.508 37.5002 178.702 37.853C178.896 38.2057 178.993 38.6094 178.993 39.0639C178.993 39.5563 178.879 39.9943 178.649 40.3778C178.422 40.7614 178.103 41.062 177.694 41.2798C177.287 41.4953 176.813 41.6018 176.273 41.5994ZM176.266 40.392C176.503 40.392 176.715 40.3352 176.902 40.2216C177.089 40.108 177.236 39.9541 177.342 39.7599C177.449 39.5658 177.502 39.348 177.502 39.1065C177.502 38.8651 177.449 38.6484 177.342 38.4567C177.238 38.2649 177.094 38.1122 176.909 37.9986C176.724 37.8849 176.514 37.8281 176.277 37.8281C176.099 37.8281 175.935 37.8613 175.783 37.9276C175.634 37.9938 175.503 38.0862 175.389 38.2045C175.278 38.3229 175.19 38.4602 175.126 38.6165C175.062 38.7704 175.03 38.9349 175.03 39.1101C175.03 39.3445 175.084 39.5587 175.19 39.7528C175.299 39.947 175.446 40.102 175.631 40.218C175.818 40.334 176.029 40.392 176.266 40.392ZM180.098 43.5455V36.0455H181.589V36.9616H181.657C181.723 36.8149 181.819 36.6657 181.944 36.5142C182.072 36.3603 182.238 36.2325 182.442 36.1307C182.648 36.0265 182.903 35.9744 183.209 35.9744C183.606 35.9744 183.973 36.0786 184.309 36.2869C184.646 36.4929 184.914 36.8042 185.116 37.2209C185.317 37.6352 185.417 38.1548 185.417 38.7798C185.417 39.3883 185.319 39.902 185.123 40.321C184.929 40.7377 184.663 41.0537 184.327 41.2692C183.993 41.4822 183.619 41.5888 183.205 41.5888C182.912 41.5888 182.662 41.5402 182.456 41.4432C182.252 41.3461 182.085 41.2242 181.955 41.0774C181.825 40.9283 181.725 40.7779 181.657 40.6264H181.611V43.5455H180.098ZM181.579 38.7727C181.579 39.0971 181.624 39.38 181.714 39.6214C181.804 39.8629 181.934 40.0511 182.104 40.1861C182.275 40.3187 182.482 40.3849 182.726 40.3849C182.972 40.3849 183.18 40.3175 183.351 40.1825C183.521 40.0452 183.65 39.8558 183.738 39.6143C183.828 39.3705 183.873 39.09 183.873 38.7727C183.873 38.4579 183.829 38.1809 183.741 37.9418C183.654 37.7027 183.525 37.5156 183.354 37.3807C183.184 37.2457 182.974 37.1783 182.726 37.1783C182.479 37.1783 182.271 37.2434 182.101 37.3736C181.933 37.5038 181.804 37.6884 181.714 37.9276C181.624 38.1667 181.579 38.4484 181.579 38.7727ZM187.495 36.0455L188.496 37.9524L189.523 36.0455H191.074L189.494 38.7727L191.117 41.5H189.572L188.496 39.6143L187.438 41.5H185.876L187.495 38.7727L185.932 36.0455H187.495Z" fill="white"/>
<line x1="155" y1="45" x2="148" y2="45" stroke="#F07D03"/>
<line x1="155" y1="30" x2="148" y2="30" stroke="#F07D03"/>
<rect y="1.5" width="144" height="16" fill="#EE7D22" fill-opacity="0.24"/>
<rect y="29.5" width="144" height="16" fill="#EE7D22" fill-opacity="0.24"/>
</svg>
