<svg width="458" height="147" viewBox="0 0 458 147" fill="none" xmlns="http://www.w3.org/2000/svg">
<circle cx="72" cy="16" r="12" fill="#344054"/>
<path d="M74.0057 10.3636V22H71.5455V12.6989H71.4773L68.8125 14.3693V12.1875L71.6932 10.3636H74.0057Z" fill="white"/>
<circle cx="446" cy="131" r="12" fill="#344054"/>
<path d="M441.767 134.955V133.017L446.625 125.364H448.295V128.045H447.307L444.244 132.892V132.983H451.148V134.955H441.767ZM447.352 137V134.364L447.398 133.506V125.364H449.705V137H447.352Z" fill="white"/>
<path d="M443 131H399V91" stroke="#344054" stroke-dasharray="2 2"/>
<path d="M53 17H9V59" stroke="#344054" stroke-dasharray="2 2"/>
<circle cx="101" cy="131" r="12" fill="#344054"/>
<path d="M96.9432 137V135.227L101.085 131.392C101.438 131.051 101.733 130.744 101.972 130.472C102.214 130.199 102.398 129.932 102.523 129.67C102.648 129.405 102.71 129.119 102.71 128.812C102.71 128.472 102.633 128.178 102.477 127.932C102.322 127.682 102.11 127.491 101.841 127.358C101.572 127.222 101.267 127.153 100.926 127.153C100.57 127.153 100.259 127.225 99.9943 127.369C99.7292 127.513 99.5246 127.72 99.3807 127.989C99.2367 128.258 99.1648 128.578 99.1648 128.949H96.8295C96.8295 128.187 97.0019 127.527 97.3466 126.966C97.6913 126.405 98.1742 125.972 98.7955 125.665C99.4167 125.358 100.133 125.205 100.943 125.205C101.777 125.205 102.502 125.352 103.119 125.648C103.741 125.939 104.223 126.345 104.568 126.864C104.913 127.383 105.085 127.977 105.085 128.648C105.085 129.087 104.998 129.521 104.824 129.949C104.653 130.377 104.348 130.852 103.909 131.375C103.47 131.894 102.85 132.517 102.051 133.244L100.352 134.909V134.989H105.239V137H96.9432Z" fill="white"/>
<path d="M98 131H54V91" stroke="#344054" stroke-dasharray="2 2"/>
<circle cx="259" cy="131" r="12" fill="#344054"/>
<path d="M259.244 137.159C258.396 137.159 257.64 137.013 256.977 136.722C256.318 136.426 255.797 136.021 255.415 135.506C255.036 134.987 254.841 134.388 254.83 133.71H257.307C257.322 133.994 257.415 134.244 257.585 134.46C257.759 134.672 257.991 134.837 258.278 134.955C258.566 135.072 258.89 135.131 259.25 135.131C259.625 135.131 259.956 135.064 260.244 134.932C260.532 134.799 260.758 134.616 260.92 134.381C261.083 134.146 261.165 133.875 261.165 133.568C261.165 133.258 261.078 132.983 260.903 132.744C260.733 132.502 260.487 132.312 260.165 132.176C259.847 132.04 259.468 131.972 259.028 131.972H257.943V130.165H259.028C259.4 130.165 259.727 130.1 260.011 129.972C260.299 129.843 260.523 129.665 260.682 129.438C260.841 129.206 260.92 128.938 260.92 128.631C260.92 128.339 260.85 128.083 260.71 127.864C260.574 127.64 260.381 127.466 260.131 127.341C259.884 127.216 259.597 127.153 259.267 127.153C258.934 127.153 258.629 127.214 258.352 127.335C258.076 127.453 257.854 127.621 257.688 127.841C257.521 128.061 257.432 128.318 257.42 128.614H255.062C255.074 127.943 255.265 127.352 255.636 126.841C256.008 126.33 256.508 125.93 257.136 125.642C257.769 125.35 258.483 125.205 259.278 125.205C260.081 125.205 260.784 125.35 261.386 125.642C261.989 125.934 262.456 126.328 262.79 126.824C263.127 127.316 263.294 127.869 263.29 128.483C263.294 129.134 263.091 129.678 262.682 130.114C262.277 130.549 261.748 130.826 261.097 130.943V131.034C261.953 131.144 262.604 131.441 263.051 131.926C263.502 132.407 263.725 133.009 263.722 133.733C263.725 134.396 263.534 134.985 263.148 135.5C262.765 136.015 262.237 136.42 261.562 136.716C260.888 137.011 260.116 137.159 259.244 137.159Z" fill="white"/>
<path d="M256 131H212V91" stroke="#344054" stroke-dasharray="2 2"/>
<circle cx="259" cy="131" r="12" fill="#344054"/>
<path d="M259.244 137.159C258.396 137.159 257.64 137.013 256.977 136.722C256.318 136.426 255.797 136.021 255.415 135.506C255.036 134.987 254.841 134.388 254.83 133.71H257.307C257.322 133.994 257.415 134.244 257.585 134.46C257.759 134.672 257.991 134.837 258.278 134.955C258.566 135.072 258.89 135.131 259.25 135.131C259.625 135.131 259.956 135.064 260.244 134.932C260.532 134.799 260.758 134.616 260.92 134.381C261.083 134.146 261.165 133.875 261.165 133.568C261.165 133.258 261.078 132.983 260.903 132.744C260.733 132.502 260.487 132.312 260.165 132.176C259.847 132.04 259.468 131.972 259.028 131.972H257.943V130.165H259.028C259.4 130.165 259.727 130.1 260.011 129.972C260.299 129.843 260.523 129.665 260.682 129.438C260.841 129.206 260.92 128.938 260.92 128.631C260.92 128.339 260.85 128.083 260.71 127.864C260.574 127.64 260.381 127.466 260.131 127.341C259.884 127.216 259.597 127.153 259.267 127.153C258.934 127.153 258.629 127.214 258.352 127.335C258.076 127.453 257.854 127.621 257.688 127.841C257.521 128.061 257.432 128.318 257.42 128.614H255.062C255.074 127.943 255.265 127.352 255.636 126.841C256.008 126.33 256.508 125.93 257.136 125.642C257.769 125.35 258.483 125.205 259.278 125.205C260.081 125.205 260.784 125.35 261.386 125.642C261.989 125.934 262.456 126.328 262.79 126.824C263.127 127.316 263.294 127.869 263.29 128.483C263.294 129.134 263.091 129.678 262.682 130.114C262.277 130.549 261.748 130.826 261.097 130.943V131.034C261.953 131.144 262.604 131.441 263.051 131.926C263.502 132.407 263.725 133.009 263.722 133.733C263.725 134.396 263.534 134.985 263.148 135.5C262.765 136.015 262.237 136.42 261.562 136.716C260.888 137.011 260.116 137.159 259.244 137.159Z" fill="white"/>
<path d="M256 131H212V91" stroke="#344054" stroke-dasharray="2 2"/>
<path d="M33 75.3828C33.0365 75.3932 33.0729 75.3984 33.1094 75.3984C33.2448 75.3984 33.3125 75.2917 33.3125 75.0781C33.3125 74.8698 33.2604 74.7656 33.1562 74.7656C33.0521 74.7656 33 74.8672 33 75.0703V75.3828ZM33 76.0859V76.875C33 78.9583 32.0625 80 30.1875 80C28.3125 80 27.375 78.9583 27.375 76.875V75.3125H28.7031V76.875C28.7031 78.1771 29.1979 78.8281 30.1875 78.8281C31.1771 78.8281 31.6719 78.1771 31.6719 76.875V75.8984C28.0781 74.862 26.2812 73.3646 26.2812 71.4062C26.2812 69.3229 27.5833 68.2812 30.1875 68.2812C32.7917 68.2812 34.0938 69.3229 34.0938 71.4062C34.0938 72.8594 33.3698 73.5859 31.9219 73.5859C31.5938 73.5859 31.3281 73.5104 31.125 73.3594V72.1875C31.4948 72.2969 31.7969 72.3516 32.0312 72.3516C32.5208 72.3516 32.7656 72.0365 32.7656 71.4062C32.7656 70.1042 31.9062 69.4531 30.1875 69.4531C28.4688 69.4531 27.6094 70.1042 27.6094 71.4062C27.6094 73.0156 28.9635 74.1484 31.6719 74.8047C31.6719 74.3099 32.0365 74.0625 32.7656 74.0625C33.651 74.0625 34.0938 74.388 34.0938 75.0391C34.0938 75.4297 34.0052 75.7057 33.8281 75.8672C33.651 76.0286 33.4609 76.1094 33.2578 76.1094C33.1745 76.1094 33.0885 76.1016 33 76.0859ZM29.7969 64.1797C29.7969 64.3724 29.8464 64.5182 29.9453 64.6172C30.0443 64.7161 30.1901 64.7656 30.3828 64.7656C30.5807 64.7656 30.7292 64.7161 30.8281 64.6172C30.9219 64.5182 30.9688 64.3724 30.9688 64.1797C30.9688 63.9818 30.9219 63.8359 30.8281 63.7422C30.7292 63.6432 30.5807 63.5938 30.3828 63.5938C30.1901 63.5938 30.0443 63.6432 29.9453 63.7422C29.8464 63.8359 29.7969 63.9818 29.7969 64.1797ZM32.1406 64.1797C32.1406 64.7682 31.9948 65.2083 31.7031 65.5C31.4115 65.7917 30.9714 65.9375 30.3828 65.9375C29.7943 65.9375 29.3542 65.7917 29.0625 65.5C28.7708 65.2083 28.625 64.7682 28.625 64.1797C28.625 63.5911 28.7708 63.151 29.0625 62.8594C29.3542 62.5677 29.7943 62.4219 30.3828 62.4219C30.9714 62.4219 31.4115 62.5677 31.7031 62.8594C31.9948 63.151 32.1406 63.5911 32.1406 64.1797ZM39.1719 77.6562V78.8281C39.2812 78.8281 39.3724 78.7995 39.4453 78.7422C39.5234 78.6797 39.5625 78.513 39.5625 78.2422C39.5625 77.9714 39.5234 77.8073 39.4453 77.75C39.3724 77.6875 39.2812 77.6562 39.1719 77.6562ZM38 70.625L40.0312 68.2812L41.9062 69.8438L43.7812 68.2812L45.8125 70.625V80H44.4844V70.9375L43.7031 69.9609L41.9062 71.25L40.1094 69.9609L39.3281 70.9375V76.5625C39.4479 76.5104 39.5859 76.4844 39.7422 76.4844C39.8984 76.4844 40.0625 76.625 40.2344 76.9062C40.4115 77.1823 40.5 77.6276 40.5 78.2422C40.5 78.8568 40.3854 79.3047 40.1562 79.5859C39.9323 79.862 39.6302 80 39.25 80C38.8698 80 38.5677 79.8594 38.3438 79.5781C38.1667 79.3646 38.0573 79.0495 38.0156 78.6328H38V70.625ZM42.6875 64.2578C42.6875 64.5964 43.1432 64.7656 44.0547 64.7656C45.2266 64.7656 45.8125 64.1146 45.8125 62.8125V61.7969H46.9844V62.8125C46.9844 64.8958 46.0078 65.9375 44.0547 65.9375C42.362 65.9375 41.5156 65.3776 41.5156 64.2578C41.5156 63.2943 41.9271 62.8125 42.75 62.8125C43.2344 62.8125 43.6042 62.888 43.8594 63.0391L43.625 63.9766C43.4115 63.8672 43.2161 63.8125 43.0391 63.8125C42.8047 63.8125 42.6875 63.9609 42.6875 64.2578ZM49.7188 78.8281V77.6562H49.5234C49.4661 77.6562 49.4193 77.6823 49.3828 77.7344C49.3464 77.7812 49.3281 77.9505 49.3281 78.2422C49.3281 78.5339 49.3464 78.7057 49.3828 78.7578C49.4193 78.8047 49.4661 78.8281 49.5234 78.8281H49.7188ZM51.0469 71.4062V78.2422C51.0469 78.9089 50.9583 79.3698 50.7812 79.625C50.6094 79.875 50.2812 80 49.7969 80C49.3125 80 48.9818 79.875 48.8047 79.625C48.6328 79.3698 48.5469 78.9089 48.5469 78.2422C48.5469 77.5755 48.6328 77.1172 48.8047 76.8672C48.9818 76.612 49.2214 76.4844 49.5234 76.4844C49.5911 76.4844 49.6562 76.4896 49.7188 76.5V71.4062C49.6146 71.0417 49.3542 70.651 48.9375 70.2344V69.4531C48.9375 68.6719 49.3281 68.2812 50.1094 68.2812H51.4375V69.4531H50.5C50.2396 69.4531 50.1094 69.5833 50.1094 69.8438C50.7344 70.2604 51.0469 70.7812 51.0469 71.4062ZM56.4766 78.8281C56.5339 78.8281 56.5807 78.8047 56.6172 78.7578C56.6536 78.7057 56.6719 78.5339 56.6719 78.2422C56.6719 77.9505 56.6536 77.7812 56.6172 77.7344C56.5807 77.6823 56.5339 77.6562 56.4766 77.6562H56.2812V78.8281H56.4766ZM56.2812 76.5C56.3438 76.4896 56.4089 76.4844 56.4766 76.4844C56.7786 76.4844 57.0156 76.612 57.1875 76.8672C57.3646 77.1172 57.4531 77.5755 57.4531 78.2422C57.4531 78.9089 57.3646 79.3698 57.1875 79.625C57.0156 79.875 56.6875 80 56.2031 80C55.7188 80 55.388 79.875 55.2109 79.625C55.0391 79.3698 54.9531 78.9089 54.9531 78.2422V71.4062C54.849 71.0417 54.5885 70.651 54.1719 70.2344V69.4531C54.1719 68.6719 54.5625 68.2812 55.3438 68.2812H56.6719V69.4531H55.7344C55.474 69.4531 55.3438 69.5833 55.3438 69.8438C55.9688 70.2604 56.2812 70.7812 56.2812 71.4062V76.5ZM60.1875 71.4062H61.5156V78.4375L64.0938 76.0938L66.6719 78.4375V71.4062H68V80H66.8281L64.0938 77.6562L61.3594 80H60.1875V71.4062ZM61.5156 69.5234C61.5156 69.737 62.375 69.8438 64.0938 69.8438C65.8125 69.8438 66.6719 69.3229 66.6719 68.2812V67.1094H68V68.2812C68 70.1042 66.6979 71.0156 64.0938 71.0156C61.4896 71.0156 60.1875 70.5208 60.1875 69.5312C60.1875 68.6979 60.6198 68.2812 61.4844 68.2812C62.0312 68.2812 62.4062 68.3568 62.6094 68.5078V69.5234C62.2396 69.4141 61.9661 69.3594 61.7891 69.3594C61.6068 69.3594 61.5156 69.4141 61.5156 69.5234ZM63.3125 64.9219H66.8281C65.5312 64.0365 64.4896 63.5938 63.7031 63.5938C62.6615 63.5938 62.1406 63.8151 62.1406 64.2578C62.1406 64.7005 62.5312 64.9219 63.3125 64.9219ZM66.8281 63.6328V61.6406H68V65.9375H62.9219C61.6198 65.9375 60.9688 65.4167 60.9688 64.375C60.9688 63.0729 61.8802 62.4219 63.7031 62.4219C64.7448 62.4219 65.7214 62.7734 66.6328 63.4766C66.7005 63.5286 66.7656 63.5807 66.8281 63.6328ZM73.2344 74.5312V76.0938C73.2344 77.9167 74.0938 78.8281 75.8125 78.8281C77.5312 78.8281 78.3906 77.9167 78.3906 76.0938V74.5312H73.2344ZM73.2344 73.3594H78.3906V71.4062C78.3906 71.0417 78.1302 70.651 77.6094 70.2344V69.4531C77.6094 68.6719 78 68.2812 78.7812 68.2812H80.1094V69.4531H79.1719C78.9115 69.4531 78.7812 69.5833 78.7812 69.8438C79.4062 70.2604 79.7188 70.7812 79.7188 71.4062V76.0938C79.7188 78.6979 78.4167 80 75.8125 80C73.2083 80 71.9062 78.6979 71.9062 76.0938V71.4062C71.9062 71.0417 71.6458 70.651 71.125 70.2344V69.4531C71.125 68.6719 71.5156 68.2812 72.2969 68.2812H73.625V69.4531H72.6875C72.4271 69.4531 72.2969 69.5833 72.2969 69.8438C72.9219 70.2604 73.2344 70.7812 73.2344 71.4062V73.3594Z" fill="#1C4076"/>
<path d="M8.75407 66.3396C8.55406 66.1222 8.28282 66 8 66C7.71718 66 7.44594 66.1222 7.24593 66.3396L0.156394 74.0492C0.106811 74.1031 0.0674796 74.1671 0.0406455 74.2376C0.0138113 74.308 0 74.3836 0 74.4598C0 74.5361 0.0138113 74.6116 0.0406455 74.6821C0.0674796 74.7525 0.106811 74.8165 0.156394 74.8705C0.256531 74.9794 0.392347 75.0406 0.533962 75.0406C0.604083 75.0406 0.673517 75.0256 0.7383 74.9964C0.803084 74.9672 0.861947 74.9244 0.91153 74.8705L1.60054 74.1199V80.26C1.60054 80.7214 1.7691 81.164 2.06913 81.4904C2.36916 81.8167 2.77609 82 3.2004 82H12.7996C13.2239 82 13.6308 81.8167 13.9309 81.4904C14.2309 81.164 14.3995 80.7214 14.3995 80.26V74.1199L15.0885 74.8705C15.1886 74.9794 15.3244 75.0406 15.466 75.0406C15.6077 75.0406 15.7435 74.9794 15.8436 74.8705C15.9437 74.7616 16 74.6139 16 74.4598C16 74.3058 15.9437 74.1581 15.8436 74.0492L13.3329 71.3196V67.4997C13.3329 67.3458 13.2767 67.1983 13.1767 67.0895C13.0767 66.9808 12.941 66.9197 12.7996 66.9197H11.733C11.5916 66.9197 11.4559 66.9808 11.3559 67.0895C11.2559 67.1983 11.1997 67.3458 11.1997 67.4997V68.9996L8.75407 66.3396ZM13.3329 72.9599V80.26C13.3329 80.4138 13.2767 80.5613 13.1767 80.6701C13.0767 80.7789 12.941 80.84 12.7996 80.84H3.2004C3.05897 80.84 2.92332 80.7789 2.82331 80.6701C2.7233 80.5613 2.66712 80.4138 2.66712 80.26V72.9599L8 67.1598L13.3329 72.9599Z" fill="#1C4076"/>
<path fill-rule="evenodd" clip-rule="evenodd" d="M90.1525 68.4025C90.2008 68.3542 90.258 68.3158 90.3211 68.2896C90.3842 68.2635 90.4518 68.25 90.5201 68.25C90.5884 68.25 90.656 68.2635 90.7191 68.2896C90.7822 68.3158 90.8394 68.3542 90.8877 68.4025L97.1177 74.6326C97.1661 74.6808 97.2044 74.7381 97.2306 74.8012C97.2568 74.8642 97.2702 74.9318 97.2702 75.0001C97.2702 75.0684 97.2568 75.136 97.2306 75.1991C97.2044 75.2622 97.1661 75.3195 97.1177 75.3677L90.8877 81.5977C90.7902 81.6952 90.658 81.75 90.5201 81.75C90.3822 81.75 90.25 81.6952 90.1525 81.5977C90.055 81.5003 90.0003 81.368 90.0003 81.2302C90.0003 81.0923 90.055 80.9601 90.1525 80.8626L96.016 75.0001L90.1525 69.1377C90.1042 69.0894 90.0658 69.0322 90.0396 68.9691C90.0135 68.906 90 68.8384 90 68.7701C90 68.7018 90.0135 68.6342 90.0396 68.5711C90.0658 68.508 90.1042 68.4508 90.1525 68.4025Z" fill="#344054"/>
<path d="M108.747 78.8281C108.804 78.8281 108.851 78.8047 108.887 78.7578C108.924 78.7057 108.942 78.5339 108.942 78.2422C108.942 77.9505 108.924 77.7812 108.887 77.7344C108.851 77.6823 108.804 77.6562 108.747 77.6562H108.552V78.8281H108.747ZM108.552 76.5C108.614 76.4896 108.679 76.4844 108.747 76.4844C109.049 76.4844 109.286 76.612 109.458 76.8672C109.635 77.1172 109.723 77.5755 109.723 78.2422C109.723 78.9089 109.635 79.3698 109.458 79.625C109.286 79.875 108.958 80 108.473 80C107.989 80 107.658 79.875 107.481 79.625C107.309 79.3698 107.223 78.9089 107.223 78.2422V71.4062C107.119 71.0417 106.859 70.651 106.442 70.2344V69.4531C106.442 68.6719 106.833 68.2812 107.614 68.2812H108.942V69.4531H108.005C107.744 69.4531 107.614 69.5833 107.614 69.8438C108.239 70.2604 108.552 70.7812 108.552 71.4062V76.5ZM113.63 77.6562V78.8281C113.739 78.8281 113.83 78.7995 113.903 78.7422C113.981 78.6797 114.02 78.513 114.02 78.2422C114.02 77.9714 113.981 77.8073 113.903 77.75C113.83 77.6875 113.739 77.6562 113.63 77.6562ZM113.786 76.5625C113.906 76.5104 114.044 76.4844 114.2 76.4844C114.356 76.4844 114.52 76.625 114.692 76.9062C114.869 77.1823 114.958 77.6276 114.958 78.2422C114.958 78.8568 114.843 79.3047 114.614 79.5859C114.39 79.862 114.088 80 113.708 80C113.328 80 113.025 79.8594 112.802 79.5781C112.624 79.3646 112.515 79.0495 112.473 78.6328H112.458V72.1875C112.458 69.5833 113.499 68.2812 115.583 68.2812C117.848 68.2812 118.981 69.5833 118.981 72.1875V76.0938C118.981 77.9167 119.671 78.8281 121.052 78.8281C122.432 78.8281 123.122 77.9167 123.122 76.0938V71.4062C123.122 71.0417 122.861 70.651 122.341 70.2344V69.4531C122.341 68.6719 122.731 68.2812 123.512 68.2812H124.841V69.4531H123.903C123.643 69.4531 123.512 69.5833 123.512 69.8438C124.137 70.2604 124.45 70.7812 124.45 71.4062V76.0938C124.45 77.9167 125.14 78.8281 126.52 78.8281C127.718 78.8281 128.317 77.9167 128.317 76.0938V71.4062C128.317 71.0417 128.057 70.651 127.536 70.2344V69.4531C127.536 68.6719 127.927 68.2812 128.708 68.2812H130.036V69.4531H129.098C128.838 69.4531 128.708 69.5833 128.708 69.8438C129.333 70.2604 129.645 70.7812 129.645 71.4062V76.0938C129.645 78.6979 128.604 80 126.52 80C125.218 80 124.307 79.4219 123.786 78.2656C123.265 79.4219 122.354 80 121.052 80C118.786 80 117.653 78.6979 117.653 76.0938V72.1875C117.653 70.3646 116.963 69.4531 115.583 69.4531C114.385 69.4531 113.786 70.3646 113.786 72.1875V76.5625ZM128.473 83.125C128.473 83.3854 128.552 83.5156 128.708 83.5156C128.864 83.5156 128.968 83.4948 129.02 83.4531C129.072 83.4167 129.098 83.3698 129.098 83.3125C129.098 83.2552 129.067 83.2109 129.005 83.1797C128.937 83.1536 128.838 83.1354 128.708 83.125H128.473ZM128.473 82.1094H128.966C129.341 82.1094 129.614 82.2005 129.786 82.3828C129.953 82.5651 130.036 82.9089 130.036 83.4141C130.036 83.7682 129.945 84.0286 129.762 84.1953C129.58 84.3672 129.281 84.4531 128.864 84.4531C127.927 84.4531 127.458 84.0495 127.458 83.2422V83.125H125.544C124.57 83.125 123.593 82.8125 122.614 82.1875L123.005 81.3281C123.854 81.849 124.7 82.1094 125.544 82.1094H127.458V80.7812H128.473V82.1094ZM129.645 68.2812H131.208C133.291 68.2812 134.333 69.3229 134.333 71.4062V80H133.005V71.4062C133.005 70.1042 132.406 69.4531 131.208 69.4531H129.645V68.2812ZM139.411 70.4297C139.411 70.6224 139.46 70.7682 139.559 70.8672C139.658 70.9661 139.804 71.0156 139.997 71.0156C140.195 71.0156 140.341 70.9661 140.434 70.8672C140.533 70.7682 140.583 70.6224 140.583 70.4297C140.583 70.2318 140.533 70.0859 140.434 69.9922C140.341 69.8932 140.195 69.8438 139.997 69.8438C139.804 69.8438 139.658 69.8932 139.559 69.9922C139.46 70.0859 139.411 70.2318 139.411 70.4297ZM141.755 70.4297C141.755 71.0182 141.609 71.4583 141.317 71.75C141.025 72.0417 140.585 72.1875 139.997 72.1875C139.408 72.1875 138.968 72.0417 138.677 71.75C138.385 71.4583 138.239 71.0182 138.239 70.4297C138.239 69.8411 138.385 69.401 138.677 69.1094C138.968 68.8177 139.408 68.6719 139.997 68.6719C140.585 68.6719 141.025 68.8177 141.317 69.1094C141.609 69.401 141.755 69.8411 141.755 70.4297ZM139.411 77.8516C139.411 78.0443 139.46 78.1901 139.559 78.2891C139.658 78.388 139.804 78.4375 139.997 78.4375C140.195 78.4375 140.341 78.388 140.434 78.2891C140.533 78.1901 140.583 78.0443 140.583 77.8516C140.583 77.6536 140.533 77.5078 140.434 77.4141C140.341 77.3151 140.195 77.2656 139.997 77.2656C139.804 77.2656 139.658 77.3151 139.559 77.4141C139.46 77.5078 139.411 77.6536 139.411 77.8516ZM141.755 77.8516C141.755 78.4401 141.609 78.8802 141.317 79.1719C141.025 79.4635 140.585 79.6094 139.997 79.6094C139.408 79.6094 138.968 79.4635 138.677 79.1719C138.385 78.8802 138.239 78.4401 138.239 77.8516C138.239 77.263 138.385 76.8229 138.677 76.5312C138.968 76.2396 139.408 76.0938 139.997 76.0938C140.585 76.0938 141.025 76.2396 141.317 76.5312C141.609 76.8229 141.755 77.263 141.755 77.8516ZM152.38 75.3828C152.416 75.3932 152.453 75.3984 152.489 75.3984C152.624 75.3984 152.692 75.2917 152.692 75.0781C152.692 74.8698 152.64 74.7656 152.536 74.7656C152.432 74.7656 152.38 74.8672 152.38 75.0703V75.3828ZM152.38 76.0859V76.875C152.38 78.9583 151.442 80 149.567 80C147.692 80 146.755 78.9583 146.755 76.875V75.3125H148.083V76.875C148.083 78.1771 148.578 78.8281 149.567 78.8281C150.557 78.8281 151.052 78.1771 151.052 76.875V75.8984C147.458 74.862 145.661 73.3646 145.661 71.4062C145.661 69.3229 146.963 68.2812 149.567 68.2812C152.171 68.2812 153.473 69.3229 153.473 71.4062C153.473 72.8594 152.749 73.5859 151.302 73.5859C150.973 73.5859 150.708 73.5104 150.505 73.3594V72.1875C150.874 72.2969 151.177 72.3516 151.411 72.3516C151.9 72.3516 152.145 72.0365 152.145 71.4062C152.145 70.1042 151.286 69.4531 149.567 69.4531C147.848 69.4531 146.989 70.1042 146.989 71.4062C146.989 73.0156 148.343 74.1484 151.052 74.8047C151.052 74.3099 151.416 74.0625 152.145 74.0625C153.031 74.0625 153.473 74.388 153.473 75.0391C153.473 75.4297 153.385 75.7057 153.208 75.8672C153.031 76.0286 152.841 76.1094 152.637 76.1094C152.554 76.1094 152.468 76.1016 152.38 76.0859ZM149.177 64.1797C149.177 64.3724 149.226 64.5182 149.325 64.6172C149.424 64.7161 149.57 64.7656 149.762 64.7656C149.96 64.7656 150.109 64.7161 150.208 64.6172C150.302 64.5182 150.348 64.3724 150.348 64.1797C150.348 63.9818 150.302 63.8359 150.208 63.7422C150.109 63.6432 149.96 63.5938 149.762 63.5938C149.57 63.5938 149.424 63.6432 149.325 63.7422C149.226 63.8359 149.177 63.9818 149.177 64.1797ZM151.52 64.1797C151.52 64.7682 151.374 65.2083 151.083 65.5C150.791 65.7917 150.351 65.9375 149.762 65.9375C149.174 65.9375 148.734 65.7917 148.442 65.5C148.15 65.2083 148.005 64.7682 148.005 64.1797C148.005 63.5911 148.15 63.151 148.442 62.8594C148.734 62.5677 149.174 62.4219 149.762 62.4219C150.351 62.4219 150.791 62.5677 151.083 62.8594C151.374 63.151 151.52 63.5911 151.52 64.1797ZM158.552 77.6562V78.8281C158.661 78.8281 158.752 78.7995 158.825 78.7422C158.903 78.6797 158.942 78.513 158.942 78.2422C158.942 77.9714 158.903 77.8073 158.825 77.75C158.752 77.6875 158.661 77.6562 158.552 77.6562ZM157.38 70.625L159.411 68.2812L161.286 69.8438L163.161 68.2812L165.192 70.625V80H163.864V70.9375L163.083 69.9609L161.286 71.25L159.489 69.9609L158.708 70.9375V76.5625C158.828 76.5104 158.966 76.4844 159.122 76.4844C159.278 76.4844 159.442 76.625 159.614 76.9062C159.791 77.1823 159.88 77.6276 159.88 78.2422C159.88 78.8568 159.765 79.3047 159.536 79.5859C159.312 79.862 159.01 80 158.63 80C158.249 80 157.947 79.8594 157.723 79.5781C157.546 79.3646 157.437 79.0495 157.395 78.6328H157.38V70.625ZM162.067 64.2578C162.067 64.5964 162.523 64.7656 163.434 64.7656C164.606 64.7656 165.192 64.1146 165.192 62.8125V61.7969H166.364V62.8125C166.364 64.8958 165.387 65.9375 163.434 65.9375C161.742 65.9375 160.895 65.3776 160.895 64.2578C160.895 63.2943 161.307 62.8125 162.13 62.8125C162.614 62.8125 162.984 62.888 163.239 63.0391L163.005 63.9766C162.791 63.8672 162.596 63.8125 162.419 63.8125C162.184 63.8125 162.067 63.9609 162.067 64.2578ZM169.098 78.8281V77.6562H168.903C168.846 77.6562 168.799 77.6823 168.762 77.7344C168.726 77.7812 168.708 77.9505 168.708 78.2422C168.708 78.5339 168.726 78.7057 168.762 78.7578C168.799 78.8047 168.846 78.8281 168.903 78.8281H169.098ZM170.427 71.4062V78.2422C170.427 78.9089 170.338 79.3698 170.161 79.625C169.989 79.875 169.661 80 169.177 80C168.692 80 168.361 79.875 168.184 79.625C168.012 79.3698 167.927 78.9089 167.927 78.2422C167.927 77.5755 168.012 77.1172 168.184 76.8672C168.361 76.612 168.601 76.4844 168.903 76.4844C168.971 76.4844 169.036 76.4896 169.098 76.5V71.4062C168.994 71.0417 168.734 70.651 168.317 70.2344V69.4531C168.317 68.6719 168.708 68.2812 169.489 68.2812H170.817V69.4531H169.88C169.619 69.4531 169.489 69.5833 169.489 69.8438C170.114 70.2604 170.427 70.7812 170.427 71.4062ZM181.052 75.3828C181.088 75.3932 181.124 75.3984 181.161 75.3984C181.296 75.3984 181.364 75.2917 181.364 75.0781C181.364 74.8698 181.312 74.7656 181.208 74.7656C181.104 74.7656 181.052 74.8672 181.052 75.0703V75.3828ZM181.052 76.0859V76.875C181.052 78.9583 180.114 80 178.239 80C176.364 80 175.427 78.9583 175.427 76.875V75.3125H176.755V76.875C176.755 78.1771 177.249 78.8281 178.239 78.8281C179.229 78.8281 179.723 78.1771 179.723 76.875V75.8984C176.13 74.862 174.333 73.3646 174.333 71.4062C174.333 69.3229 175.635 68.2812 178.239 68.2812C180.843 68.2812 182.145 69.3229 182.145 71.4062C182.145 72.8594 181.421 73.5859 179.973 73.5859C179.645 73.5859 179.38 73.5104 179.177 73.3594V72.1875C179.546 72.2969 179.848 72.3516 180.083 72.3516C180.572 72.3516 180.817 72.0365 180.817 71.4062C180.817 70.1042 179.958 69.4531 178.239 69.4531C176.52 69.4531 175.661 70.1042 175.661 71.4062C175.661 73.0156 177.015 74.1484 179.723 74.8047C179.723 74.3099 180.088 74.0625 180.817 74.0625C181.703 74.0625 182.145 74.388 182.145 75.0391C182.145 75.4297 182.057 75.7057 181.88 75.8672C181.703 76.0286 181.512 76.1094 181.309 76.1094C181.226 76.1094 181.14 76.1016 181.052 76.0859ZM177.458 64.9219H180.973C179.677 64.0365 178.635 63.5938 177.848 63.5938C176.807 63.5938 176.286 63.8151 176.286 64.2578C176.286 64.7005 176.677 64.9219 177.458 64.9219ZM180.973 63.6328V61.6406H182.145V65.9375H177.067C175.765 65.9375 175.114 65.4167 175.114 64.375C175.114 63.0729 176.025 62.4219 177.848 62.4219C178.89 62.4219 179.867 62.7734 180.778 63.4766C180.846 63.5286 180.911 63.5807 180.973 63.6328ZM193.723 78.8281C195.703 78.8281 196.692 77.1354 196.692 73.75C196.692 70.8854 195.833 69.4531 194.114 69.4531C192.395 69.4531 191.536 70.3646 191.536 72.1875C191.536 72.5052 191.596 72.7865 191.716 73.0312C191.841 73.2708 192.101 73.3906 192.497 73.3906C192.872 73.3906 193.109 73.3359 193.208 73.2266C193.286 73.138 193.325 73.0521 193.325 72.9688C193.325 72.9427 193.322 72.9193 193.317 72.8984C193.291 72.7891 193.249 72.7344 193.192 72.7344C193.135 72.7344 192.981 72.8203 192.731 72.9922L192.387 72.0938C192.752 71.8281 193.08 71.6953 193.372 71.6953C193.69 71.6953 193.937 71.7891 194.114 71.9766C194.291 72.1641 194.38 72.4922 194.38 72.9609C194.38 73.2214 194.312 73.5 194.177 73.7969C194.046 74.0938 193.828 74.3047 193.52 74.4297C193.213 74.5495 192.893 74.6094 192.559 74.6094C192.169 74.6094 191.804 74.5521 191.466 74.4375C191.132 74.3229 190.838 74.0885 190.583 73.7344C190.333 73.375 190.208 72.8594 190.208 72.1875C190.208 69.5833 191.51 68.2812 194.114 68.2812C196.718 68.2812 198.02 70.1042 198.02 73.75C198.02 77.9167 196.588 80 193.723 80C192.656 80 191.718 79.7135 190.911 79.1406L191.302 78.0469C191.874 78.5677 192.682 78.8281 193.723 78.8281Z" fill="#1C4076"/>
<path fill-rule="evenodd" clip-rule="evenodd" d="M208.423 68.4025C208.471 68.3542 208.528 68.3158 208.591 68.2896C208.654 68.2635 208.722 68.25 208.79 68.25C208.859 68.25 208.926 68.2635 208.989 68.2896C209.052 68.3158 209.11 68.3542 209.158 68.4025L215.388 74.6326C215.436 74.6808 215.475 74.7381 215.501 74.8012C215.527 74.8642 215.54 74.9318 215.54 75.0001C215.54 75.0684 215.527 75.136 215.501 75.1991C215.475 75.2622 215.436 75.3195 215.388 75.3677L209.158 81.5977C209.06 81.6952 208.928 81.75 208.79 81.75C208.652 81.75 208.52 81.6952 208.423 81.5977C208.325 81.5003 208.271 81.368 208.271 81.2302C208.271 81.0923 208.325 80.9601 208.423 80.8626L214.286 75.0001L208.423 69.1377C208.374 69.0894 208.336 69.0322 208.31 68.9691C208.284 68.906 208.27 68.8384 208.27 68.7701C208.27 68.7018 208.284 68.6342 208.31 68.5711C208.336 68.508 208.374 68.4508 208.423 68.4025Z" fill="#344054"/>
<path d="M227.017 78.8281C227.074 78.8281 227.121 78.8047 227.158 78.7578C227.194 78.7057 227.212 78.5339 227.212 78.2422C227.212 77.9505 227.194 77.7812 227.158 77.7344C227.121 77.6823 227.074 77.6562 227.017 77.6562H226.822V78.8281H227.017ZM226.822 76.5C226.884 76.4896 226.949 76.4844 227.017 76.4844C227.319 76.4844 227.556 76.612 227.728 76.8672C227.905 77.1172 227.994 77.5755 227.994 78.2422C227.994 78.9089 227.905 79.3698 227.728 79.625C227.556 79.875 227.228 80 226.744 80C226.259 80 225.929 79.875 225.751 79.625C225.58 79.3698 225.494 78.9089 225.494 78.2422V71.4062C225.389 71.0417 225.129 70.651 224.712 70.2344V69.4531C224.712 68.6719 225.103 68.2812 225.884 68.2812H227.212V69.4531H226.275C226.014 69.4531 225.884 69.5833 225.884 69.8438C226.509 70.2604 226.822 70.7812 226.822 71.4062V76.5ZM231.9 77.6562V78.8281C232.009 78.8281 232.1 78.7995 232.173 78.7422C232.251 78.6797 232.291 78.513 232.291 78.2422C232.291 77.9714 232.251 77.8073 232.173 77.75C232.1 77.6875 232.009 77.6562 231.9 77.6562ZM232.056 76.5625C232.176 76.5104 232.314 76.4844 232.47 76.4844C232.626 76.4844 232.791 76.625 232.962 76.9062C233.139 77.1823 233.228 77.6276 233.228 78.2422C233.228 78.8568 233.113 79.3047 232.884 79.5859C232.66 79.862 232.358 80 231.978 80C231.598 80 231.296 79.8594 231.072 79.5781C230.895 79.3646 230.785 79.0495 230.744 78.6328H230.728V72.1875C230.728 69.5833 231.77 68.2812 233.853 68.2812C236.119 68.2812 237.251 69.5833 237.251 72.1875V76.0938C237.251 77.9167 237.942 78.8281 239.322 78.8281C240.702 78.8281 241.392 77.9167 241.392 76.0938V71.4062C241.392 71.0417 241.132 70.651 240.611 70.2344V69.4531C240.611 68.6719 241.001 68.2812 241.783 68.2812H243.111V69.4531H242.173C241.913 69.4531 241.783 69.5833 241.783 69.8438C242.408 70.2604 242.72 70.7812 242.72 71.4062V76.0938C242.72 77.9167 243.41 78.8281 244.791 78.8281C245.988 78.8281 246.587 77.9167 246.587 76.0938V71.4062C246.587 71.0417 246.327 70.651 245.806 70.2344V69.4531C245.806 68.6719 246.197 68.2812 246.978 68.2812H248.306V69.4531H247.369C247.108 69.4531 246.978 69.5833 246.978 69.8438C247.603 70.2604 247.916 70.7812 247.916 71.4062V76.0938C247.916 78.6979 246.874 80 244.791 80C243.488 80 242.577 79.4219 242.056 78.2656C241.535 79.4219 240.624 80 239.322 80C237.056 80 235.923 78.6979 235.923 76.0938V72.1875C235.923 70.3646 235.233 69.4531 233.853 69.4531C232.655 69.4531 232.056 70.3646 232.056 72.1875V76.5625ZM246.744 83.125C246.744 83.3854 246.822 83.5156 246.978 83.5156C247.134 83.5156 247.238 83.4948 247.291 83.4531C247.343 83.4167 247.369 83.3698 247.369 83.3125C247.369 83.2552 247.337 83.2109 247.275 83.1797C247.207 83.1536 247.108 83.1354 246.978 83.125H246.744ZM246.744 82.1094H247.236C247.611 82.1094 247.884 82.2005 248.056 82.3828C248.223 82.5651 248.306 82.9089 248.306 83.4141C248.306 83.7682 248.215 84.0286 248.033 84.1953C247.85 84.3672 247.551 84.4531 247.134 84.4531C246.197 84.4531 245.728 84.0495 245.728 83.2422V83.125H243.814C242.84 83.125 241.863 82.8125 240.884 82.1875L241.275 81.3281C242.124 81.849 242.97 82.1094 243.814 82.1094H245.728V80.7812H246.744V82.1094ZM247.916 68.2812H249.478C251.561 68.2812 252.603 69.3229 252.603 71.4062V80H251.275V71.4062C251.275 70.1042 250.676 69.4531 249.478 69.4531H247.916V68.2812ZM257.681 70.4297C257.681 70.6224 257.731 70.7682 257.83 70.8672C257.929 70.9661 258.074 71.0156 258.267 71.0156C258.465 71.0156 258.611 70.9661 258.705 70.8672C258.804 70.7682 258.853 70.6224 258.853 70.4297C258.853 70.2318 258.804 70.0859 258.705 69.9922C258.611 69.8932 258.465 69.8438 258.267 69.8438C258.074 69.8438 257.929 69.8932 257.83 69.9922C257.731 70.0859 257.681 70.2318 257.681 70.4297ZM260.025 70.4297C260.025 71.0182 259.879 71.4583 259.587 71.75C259.296 72.0417 258.856 72.1875 258.267 72.1875C257.679 72.1875 257.238 72.0417 256.947 71.75C256.655 71.4583 256.509 71.0182 256.509 70.4297C256.509 69.8411 256.655 69.401 256.947 69.1094C257.238 68.8177 257.679 68.6719 258.267 68.6719C258.856 68.6719 259.296 68.8177 259.587 69.1094C259.879 69.401 260.025 69.8411 260.025 70.4297ZM257.681 77.8516C257.681 78.0443 257.731 78.1901 257.83 78.2891C257.929 78.388 258.074 78.4375 258.267 78.4375C258.465 78.4375 258.611 78.388 258.705 78.2891C258.804 78.1901 258.853 78.0443 258.853 77.8516C258.853 77.6536 258.804 77.5078 258.705 77.4141C258.611 77.3151 258.465 77.2656 258.267 77.2656C258.074 77.2656 257.929 77.3151 257.83 77.4141C257.731 77.5078 257.681 77.6536 257.681 77.8516ZM260.025 77.8516C260.025 78.4401 259.879 78.8802 259.587 79.1719C259.296 79.4635 258.856 79.6094 258.267 79.6094C257.679 79.6094 257.238 79.4635 256.947 79.1719C256.655 78.8802 256.509 78.4401 256.509 77.8516C256.509 77.263 256.655 76.8229 256.947 76.5312C257.238 76.2396 257.679 76.0938 258.267 76.0938C258.856 76.0938 259.296 76.2396 259.587 76.5312C259.879 76.8229 260.025 77.263 260.025 77.8516ZM270.65 75.3828C270.686 75.3932 270.723 75.3984 270.759 75.3984C270.895 75.3984 270.962 75.2917 270.962 75.0781C270.962 74.8698 270.91 74.7656 270.806 74.7656C270.702 74.7656 270.65 74.8672 270.65 75.0703V75.3828ZM270.65 76.0859V76.875C270.65 78.9583 269.712 80 267.837 80C265.962 80 265.025 78.9583 265.025 76.875V75.3125H266.353V76.875C266.353 78.1771 266.848 78.8281 267.837 78.8281C268.827 78.8281 269.322 78.1771 269.322 76.875V75.8984C265.728 74.862 263.931 73.3646 263.931 71.4062C263.931 69.3229 265.233 68.2812 267.837 68.2812C270.442 68.2812 271.744 69.3229 271.744 71.4062C271.744 72.8594 271.02 73.5859 269.572 73.5859C269.244 73.5859 268.978 73.5104 268.775 73.3594V72.1875C269.145 72.2969 269.447 72.3516 269.681 72.3516C270.171 72.3516 270.416 72.0365 270.416 71.4062C270.416 70.1042 269.556 69.4531 267.837 69.4531C266.119 69.4531 265.259 70.1042 265.259 71.4062C265.259 73.0156 266.613 74.1484 269.322 74.8047C269.322 74.3099 269.686 74.0625 270.416 74.0625C271.301 74.0625 271.744 74.388 271.744 75.0391C271.744 75.4297 271.655 75.7057 271.478 75.8672C271.301 76.0286 271.111 76.1094 270.908 76.1094C270.824 76.1094 270.738 76.1016 270.65 76.0859ZM267.447 64.1797C267.447 64.3724 267.496 64.5182 267.595 64.6172C267.694 64.7161 267.84 64.7656 268.033 64.7656C268.231 64.7656 268.379 64.7161 268.478 64.6172C268.572 64.5182 268.619 64.3724 268.619 64.1797C268.619 63.9818 268.572 63.8359 268.478 63.7422C268.379 63.6432 268.231 63.5938 268.033 63.5938C267.84 63.5938 267.694 63.6432 267.595 63.7422C267.496 63.8359 267.447 63.9818 267.447 64.1797ZM269.791 64.1797C269.791 64.7682 269.645 65.2083 269.353 65.5C269.061 65.7917 268.621 65.9375 268.033 65.9375C267.444 65.9375 267.004 65.7917 266.712 65.5C266.421 65.2083 266.275 64.7682 266.275 64.1797C266.275 63.5911 266.421 63.151 266.712 62.8594C267.004 62.5677 267.444 62.4219 268.033 62.4219C268.621 62.4219 269.061 62.5677 269.353 62.8594C269.645 63.151 269.791 63.5911 269.791 64.1797ZM276.822 77.6562V78.8281C276.931 78.8281 277.022 78.7995 277.095 78.7422C277.173 78.6797 277.212 78.513 277.212 78.2422C277.212 77.9714 277.173 77.8073 277.095 77.75C277.022 77.6875 276.931 77.6562 276.822 77.6562ZM275.65 70.625L277.681 68.2812L279.556 69.8438L281.431 68.2812L283.462 70.625V80H282.134V70.9375L281.353 69.9609L279.556 71.25L277.759 69.9609L276.978 70.9375V76.5625C277.098 76.5104 277.236 76.4844 277.392 76.4844C277.548 76.4844 277.712 76.625 277.884 76.9062C278.061 77.1823 278.15 77.6276 278.15 78.2422C278.15 78.8568 278.035 79.3047 277.806 79.5859C277.582 79.862 277.28 80 276.9 80C276.52 80 276.218 79.8594 275.994 79.5781C275.817 79.3646 275.707 79.0495 275.666 78.6328H275.65V70.625ZM280.337 64.2578C280.337 64.5964 280.793 64.7656 281.705 64.7656C282.876 64.7656 283.462 64.1146 283.462 62.8125V61.7969H284.634V62.8125C284.634 64.8958 283.658 65.9375 281.705 65.9375C280.012 65.9375 279.166 65.3776 279.166 64.2578C279.166 63.2943 279.577 62.8125 280.4 62.8125C280.884 62.8125 281.254 62.888 281.509 63.0391L281.275 63.9766C281.061 63.8672 280.866 63.8125 280.689 63.8125C280.455 63.8125 280.337 63.9609 280.337 64.2578ZM287.369 78.8281V77.6562H287.173C287.116 77.6562 287.069 77.6823 287.033 77.7344C286.996 77.7812 286.978 77.9505 286.978 78.2422C286.978 78.5339 286.996 78.7057 287.033 78.7578C287.069 78.8047 287.116 78.8281 287.173 78.8281H287.369ZM288.697 71.4062V78.2422C288.697 78.9089 288.608 79.3698 288.431 79.625C288.259 79.875 287.931 80 287.447 80C286.962 80 286.632 79.875 286.455 79.625C286.283 79.3698 286.197 78.9089 286.197 78.2422C286.197 77.5755 286.283 77.1172 286.455 76.8672C286.632 76.612 286.871 76.4844 287.173 76.4844C287.241 76.4844 287.306 76.4896 287.369 76.5V71.4062C287.264 71.0417 287.004 70.651 286.587 70.2344V69.4531C286.587 68.6719 286.978 68.2812 287.759 68.2812H289.087V69.4531H288.15C287.889 69.4531 287.759 69.5833 287.759 69.8438C288.384 70.2604 288.697 70.7812 288.697 71.4062ZM299.322 75.3828C299.358 75.3932 299.395 75.3984 299.431 75.3984C299.567 75.3984 299.634 75.2917 299.634 75.0781C299.634 74.8698 299.582 74.7656 299.478 74.7656C299.374 74.7656 299.322 74.8672 299.322 75.0703V75.3828ZM299.322 76.0859V76.875C299.322 78.9583 298.384 80 296.509 80C294.634 80 293.697 78.9583 293.697 76.875V75.3125H295.025V76.875C295.025 78.1771 295.52 78.8281 296.509 78.8281C297.499 78.8281 297.994 78.1771 297.994 76.875V75.8984C294.4 74.862 292.603 73.3646 292.603 71.4062C292.603 69.3229 293.905 68.2812 296.509 68.2812C299.113 68.2812 300.416 69.3229 300.416 71.4062C300.416 72.8594 299.692 73.5859 298.244 73.5859C297.916 73.5859 297.65 73.5104 297.447 73.3594V72.1875C297.817 72.2969 298.119 72.3516 298.353 72.3516C298.843 72.3516 299.087 72.0365 299.087 71.4062C299.087 70.1042 298.228 69.4531 296.509 69.4531C294.791 69.4531 293.931 70.1042 293.931 71.4062C293.931 73.0156 295.285 74.1484 297.994 74.8047C297.994 74.3099 298.358 74.0625 299.087 74.0625C299.973 74.0625 300.416 74.388 300.416 75.0391C300.416 75.4297 300.327 75.7057 300.15 75.8672C299.973 76.0286 299.783 76.1094 299.58 76.1094C299.496 76.1094 299.41 76.1016 299.322 76.0859ZM295.728 64.9219H299.244C297.947 64.0365 296.905 63.5938 296.119 63.5938C295.077 63.5938 294.556 63.8151 294.556 64.2578C294.556 64.7005 294.947 64.9219 295.728 64.9219ZM299.244 63.6328V61.6406H300.416V65.9375H295.337C294.035 65.9375 293.384 65.4167 293.384 64.375C293.384 63.0729 294.296 62.4219 296.119 62.4219C297.16 62.4219 298.137 62.7734 299.048 63.4766C299.116 63.5286 299.181 63.5807 299.244 63.6328ZM312.15 73.3984C312.259 73.3984 312.35 73.3646 312.423 73.2969C312.501 73.2292 312.541 73.1328 312.541 73.0078C312.541 72.8828 312.501 72.7865 312.423 72.7188C312.35 72.651 312.259 72.6172 312.15 72.6172V73.3984ZM310.822 70.3125L312.462 68.2812L313.947 69.8438L315.431 68.2812L317.072 70.3125V76.0938C317.072 78.6979 315.639 80 312.775 80C309.91 80 308.478 78.6979 308.478 76.0938V68.6719C308.478 68.151 308.218 67.8906 307.697 67.8906H307.306V66.7188H308.244C309.285 66.7188 309.806 67.2396 309.806 68.2812V76.0938C309.806 77.9167 310.796 78.8281 312.775 78.8281C314.754 78.8281 315.744 77.9167 315.744 76.0938V70.625L315.197 69.9609L313.947 71.25L312.697 69.9609L312.15 70.625V71.6953C312.202 71.6901 312.254 71.6875 312.306 71.6875C312.66 71.6875 312.923 71.7995 313.095 72.0234C313.298 72.2734 313.4 72.6016 313.4 73.0078C313.4 73.4141 313.298 73.7448 313.095 74C312.897 74.25 312.569 74.375 312.111 74.375C311.653 74.375 311.322 74.25 311.119 74C310.921 73.7448 310.822 73.4141 310.822 73.0078V70.3125Z" fill="#1C4076"/>
<path fill-rule="evenodd" clip-rule="evenodd" d="M333.058 68.4025C333.106 68.3542 333.164 68.3158 333.227 68.2896C333.29 68.2635 333.357 68.25 333.426 68.25C333.494 68.25 333.562 68.2635 333.625 68.2896C333.688 68.3158 333.745 68.3542 333.793 68.4025L340.023 74.6326C340.072 74.6808 340.11 74.7381 340.136 74.8012C340.162 74.8642 340.176 74.9318 340.176 75.0001C340.176 75.0684 340.162 75.136 340.136 75.1991C340.11 75.2622 340.072 75.3195 340.023 75.3677L333.793 81.5977C333.696 81.6952 333.563 81.75 333.426 81.75C333.288 81.75 333.156 81.6952 333.058 81.5977C332.961 81.5003 332.906 81.368 332.906 81.2302C332.906 81.0923 332.961 80.9601 333.058 80.8626L338.922 75.0001L333.058 69.1377C333.01 69.0894 332.971 69.0322 332.945 68.9691C332.919 68.906 332.906 68.8384 332.906 68.7701C332.906 68.7018 332.919 68.6342 332.945 68.5711C332.971 68.508 333.01 68.4508 333.058 68.4025Z" fill="#1C4076"/>
<path d="M357.369 77.8906C357.322 77.8229 357.218 77.7839 357.056 77.7734V78.6641C357.218 78.6641 357.322 78.6302 357.369 78.5625C357.421 78.4896 357.447 78.3776 357.447 78.2266C357.447 78.0703 357.421 77.9583 357.369 77.8906ZM357.447 76.4375C357.843 76.4688 358.137 76.625 358.33 76.9062C358.522 77.1823 358.619 77.6276 358.619 78.2422C358.619 78.8568 358.483 79.3047 358.212 79.5859C357.942 79.862 357.556 80 357.056 80C356.556 80 356.171 79.862 355.9 79.5859C355.629 79.3047 355.494 78.8568 355.494 78.2422V71.4062C355.494 70.9792 355.233 70.5573 354.712 70.1406V69.4531C354.712 68.6719 355.207 68.2812 356.197 68.2812H357.837V69.8438H356.509V69.9375C357.134 70.3542 357.447 70.8438 357.447 71.4062V76.4375ZM362.916 78.6641C363.077 78.6641 363.181 78.6302 363.228 78.5625C363.28 78.4896 363.306 78.3776 363.306 78.2266C363.306 78.0703 363.28 77.9583 363.228 77.8906C363.181 77.8229 363.077 77.7839 362.916 77.7734V78.6641ZM361.353 72.1875C361.353 69.5833 362.546 68.2812 364.931 68.2812C367.311 68.2812 368.501 69.5833 368.501 72.1875V76.0938C368.501 77.6562 369.087 78.4375 370.259 78.4375C371.431 78.4375 372.017 77.6562 372.017 76.0938V71.4062C372.017 70.9792 371.757 70.5573 371.236 70.1406V69.4531C371.236 68.6719 371.731 68.2812 372.72 68.2812H374.361V69.8438H373.033V69.9375C373.658 70.3542 373.97 70.8438 373.97 71.4062V76.0938C373.97 77.6562 374.556 78.4375 375.728 78.4375C376.718 78.4375 377.212 77.6562 377.212 76.0938V71.4062C377.212 70.9792 376.952 70.5573 376.431 70.1406V69.4531C376.431 68.6719 376.926 68.2812 377.916 68.2812H379.556V69.8438H378.228V69.9375C378.853 70.3542 379.166 70.8438 379.166 71.4062V76.0938C379.166 78.6979 378.02 80 375.728 80C374.238 80 373.327 79.6328 372.994 78.8984C372.66 79.6328 371.749 80 370.259 80C367.785 80 366.548 78.6979 366.548 76.0938V72.1875C366.548 70.625 366.009 69.8438 364.931 69.8438C363.848 69.8438 363.306 70.625 363.306 72.1875V76.4375C363.702 76.4688 363.996 76.625 364.189 76.9062C364.382 77.1823 364.478 77.6276 364.478 78.2422C364.478 78.7526 364.343 79.1745 364.072 79.5078C363.801 79.8359 363.416 80 362.916 80C362.416 80 362.03 79.849 361.759 79.5469C361.488 79.2396 361.353 78.8047 361.353 78.2422V72.1875ZM377.994 83.125C377.994 83.3177 378.054 83.4141 378.173 83.4141C378.298 83.4141 378.382 83.3984 378.423 83.3672C378.46 83.3411 378.478 83.3073 378.478 83.2656C378.478 83.224 378.455 83.1901 378.408 83.1641C378.356 83.1432 378.278 83.1302 378.173 83.125H377.994ZM377.994 81.7188H378.251C378.626 81.7188 378.939 81.8359 379.189 82.0703C379.434 82.3047 379.556 82.6745 379.556 83.1797C379.556 83.5859 379.439 83.8984 379.205 84.1172C378.97 84.3411 378.619 84.4531 378.15 84.4531C376.952 84.4531 376.353 84.0495 376.353 83.2422V83.125H374.673C373.699 83.125 372.723 82.8125 371.744 82.1875L372.134 80.7031C372.983 81.3802 373.83 81.7188 374.673 81.7188H376.353V80.7812H377.994V81.7188ZM379.166 68.2812H381.041C383.697 68.2812 385.025 69.3229 385.025 71.4062V80H383.072V71.4062C383.072 70.3646 382.395 69.8438 381.041 69.8438H379.166V68.2812ZM390.298 70.4297C390.298 70.5599 390.332 70.6562 390.4 70.7188C390.462 70.7865 390.559 70.8203 390.689 70.8203C390.819 70.8203 390.916 70.7865 390.978 70.7188C391.046 70.6562 391.08 70.5599 391.08 70.4297C391.08 70.2995 391.046 70.2031 390.978 70.1406C390.916 70.0729 390.819 70.0391 390.689 70.0391C390.559 70.0391 390.462 70.0729 390.4 70.1406C390.332 70.2031 390.298 70.2995 390.298 70.4297ZM392.447 70.4297C392.447 71.0182 392.301 71.4583 392.009 71.75C391.718 72.0417 391.278 72.1875 390.689 72.1875C390.1 72.1875 389.66 72.0417 389.369 71.75C389.077 71.4583 388.931 71.0182 388.931 70.4297C388.931 69.8411 389.077 69.401 389.369 69.1094C389.66 68.8177 390.1 68.6719 390.689 68.6719C391.278 68.6719 391.718 68.8177 392.009 69.1094C392.301 69.401 392.447 69.8411 392.447 70.4297ZM390.298 77.8516C390.298 77.9818 390.332 78.0781 390.4 78.1406C390.462 78.2083 390.559 78.2422 390.689 78.2422C390.819 78.2422 390.916 78.2083 390.978 78.1406C391.046 78.0781 391.08 77.9818 391.08 77.8516C391.08 77.7214 391.046 77.625 390.978 77.5625C390.916 77.4948 390.819 77.4609 390.689 77.4609C390.559 77.4609 390.462 77.4948 390.4 77.5625C390.332 77.625 390.298 77.7214 390.298 77.8516ZM392.447 77.8516C392.447 78.4401 392.301 78.8802 392.009 79.1719C391.718 79.4635 391.278 79.6094 390.689 79.6094C390.1 79.6094 389.66 79.4635 389.369 79.1719C389.077 78.8802 388.931 78.4401 388.931 77.8516C388.931 77.263 389.077 76.8229 389.369 76.5312C389.66 76.2396 390.1 76.0938 390.689 76.0938C391.278 76.0938 391.718 76.2396 392.009 76.5312C392.301 76.8229 392.447 77.263 392.447 77.8516ZM403.619 75.2031C403.619 75.0521 403.567 74.9766 403.462 74.9766C403.358 74.9766 403.306 75.0547 403.306 75.2109C403.306 75.4089 403.41 75.5182 403.619 75.5391V75.2031ZM403.697 76.5391V76.875C403.697 78.9583 402.655 80 400.572 80C398.488 80 397.447 78.9583 397.447 76.875V75.3125H399.4V76.875C399.4 77.9167 399.791 78.4375 400.572 78.4375C401.353 78.4375 401.744 77.9167 401.744 76.875V76.2266C398.15 74.9297 396.353 73.3229 396.353 71.4062C396.353 69.3229 397.759 68.2812 400.572 68.2812C403.384 68.2812 404.791 69.3229 404.791 71.4062C404.791 72.8594 403.962 73.5859 402.306 73.5859C401.853 73.5859 401.483 73.4792 401.197 73.2656V71.6016C401.832 71.7891 402.238 71.8828 402.416 71.8828C402.697 71.8828 402.837 71.724 402.837 71.4062C402.837 70.3646 402.082 69.8438 400.572 69.8438C399.061 69.8438 398.306 70.3646 398.306 71.4062C398.306 73.0521 399.452 74.1536 401.744 74.7109C401.744 74.2786 402.212 74.0625 403.15 74.0625C404.244 74.0625 404.791 74.388 404.791 75.0391C404.791 75.6276 404.684 76.0182 404.47 76.2109C404.262 76.4036 404.004 76.513 403.697 76.5391ZM400.064 64.1797C400.064 64.3099 400.098 64.4062 400.166 64.4688C400.228 64.5365 400.324 64.5703 400.455 64.5703C400.585 64.5703 400.684 64.5365 400.751 64.4688C400.814 64.4062 400.845 64.3099 400.845 64.1797C400.845 64.0495 400.814 63.9531 400.751 63.8906C400.684 63.8229 400.585 63.7891 400.455 63.7891C400.324 63.7891 400.228 63.8229 400.166 63.8906C400.098 63.9531 400.064 64.0495 400.064 64.1797ZM402.212 64.1797C402.212 64.7682 402.067 65.2083 401.775 65.5C401.483 65.7917 401.043 65.9375 400.455 65.9375C399.866 65.9375 399.426 65.7917 399.134 65.5C398.843 65.2083 398.697 64.7682 398.697 64.1797C398.697 63.5911 398.843 63.151 399.134 62.8594C399.426 62.5677 399.866 62.4219 400.455 62.4219C401.043 62.4219 401.483 62.5677 401.775 62.8594C402.067 63.151 402.212 63.5911 402.212 64.1797ZM410.259 78.6641C410.421 78.6641 410.525 78.6302 410.572 78.5625C410.624 78.4896 410.65 78.3776 410.65 78.2266C410.65 78.0703 410.624 77.9583 410.572 77.8906C410.525 77.8229 410.421 77.7839 410.259 77.7734V78.6641ZM408.697 70.7109L410.986 68.0703L412.916 69.6797L414.845 68.0703L417.134 70.7109V80H415.181V71.2422L414.626 70.5469L412.916 71.7734L411.205 70.5469L410.65 71.2422V76.4375C411.046 76.4688 411.34 76.625 411.533 76.9062C411.725 77.1823 411.822 77.6276 411.822 78.2422C411.822 78.7526 411.686 79.1745 411.416 79.5078C411.145 79.8359 410.759 80 410.259 80C409.759 80 409.374 79.849 409.103 79.5469C408.832 79.2396 408.697 78.8047 408.697 78.2422V70.7109ZM414.4 64.1016C414.4 64.2839 414.725 64.375 415.376 64.375C416.288 64.375 416.744 63.8542 416.744 62.8125V61.7969H418.306V62.8125C418.306 64.8958 417.33 65.9375 415.376 65.9375C413.684 65.9375 412.837 65.3776 412.837 64.2578C412.837 63.2943 413.301 62.8125 414.228 62.8125C414.608 62.8125 414.926 62.888 415.181 63.0391L414.947 63.9766C414.837 63.8672 414.72 63.8125 414.595 63.8125C414.465 63.8125 414.4 63.9089 414.4 64.1016ZM421.431 77.7734C421.27 77.7839 421.163 77.8229 421.111 77.8906C421.064 77.9583 421.041 78.0703 421.041 78.2266C421.041 78.3776 421.064 78.4896 421.111 78.5625C421.163 78.6302 421.27 78.6641 421.431 78.6641V77.7734ZM421.041 71.4062C421.041 70.9792 420.78 70.5573 420.259 70.1406V69.4531C420.259 68.6719 420.754 68.2812 421.744 68.2812H423.384V69.8438H422.056V69.9375C422.681 70.3542 422.994 70.8438 422.994 71.4062V78.2422C422.994 78.8568 422.858 79.3047 422.587 79.5859C422.317 79.862 421.931 80 421.431 80C420.931 80 420.546 79.862 420.275 79.5859C420.004 79.3047 419.869 78.8568 419.869 78.2422C419.869 77.6276 419.965 77.1823 420.158 76.9062C420.35 76.625 420.645 76.4688 421.041 76.4375V71.4062ZM434.166 75.2031C434.166 75.0521 434.113 74.9766 434.009 74.9766C433.905 74.9766 433.853 75.0547 433.853 75.2109C433.853 75.4089 433.957 75.5182 434.166 75.5391V75.2031ZM434.244 76.5391V76.875C434.244 78.9583 433.202 80 431.119 80C429.035 80 427.994 78.9583 427.994 76.875V75.3125H429.947V76.875C429.947 77.9167 430.337 78.4375 431.119 78.4375C431.9 78.4375 432.291 77.9167 432.291 76.875V76.2266C428.697 74.9297 426.9 73.3229 426.9 71.4062C426.9 69.3229 428.306 68.2812 431.119 68.2812C433.931 68.2812 435.337 69.3229 435.337 71.4062C435.337 72.8594 434.509 73.5859 432.853 73.5859C432.4 73.5859 432.03 73.4792 431.744 73.2656V71.6016C432.379 71.7891 432.785 71.8828 432.962 71.8828C433.244 71.8828 433.384 71.724 433.384 71.4062C433.384 70.3646 432.629 69.8438 431.119 69.8438C429.608 69.8438 428.853 70.3646 428.853 71.4062C428.853 73.0521 429.999 74.1536 432.291 74.7109C432.291 74.2786 432.759 74.0625 433.697 74.0625C434.791 74.0625 435.337 74.388 435.337 75.0391C435.337 75.6276 435.231 76.0182 435.017 76.2109C434.809 76.4036 434.551 76.513 434.244 76.5391ZM429.478 64.4141C429.478 64.7005 429.738 64.8438 430.259 64.8438H433.775C432.738 64.2708 431.827 63.9844 431.041 63.9844C429.999 63.9844 429.478 64.1276 429.478 64.4141ZM433.931 63.4453V61.6406H435.337V65.9375H429.869C428.567 65.9375 427.916 65.4167 427.916 64.375C427.916 63.0729 428.957 62.4219 431.041 62.4219C432.067 62.4219 433.03 62.763 433.931 63.4453ZM444.962 78.9062C445.087 78.9062 445.171 78.8802 445.212 78.8281C445.254 78.7708 445.275 78.7083 445.275 78.6406C445.275 78.5729 445.257 78.5182 445.22 78.4766C445.179 78.4193 445.093 78.3906 444.962 78.3906V78.9062ZM443.4 71.3438C443.4 69.3021 444.483 68.2812 446.65 68.2812C448.103 68.2812 448.947 68.5573 449.181 69.1094C449.416 68.5573 450.264 68.2812 451.728 68.2812C453.884 68.2812 454.962 69.3229 454.962 71.4062V80H453.009V71.4062C453.009 70.3646 452.535 69.8438 451.587 69.8438C450.634 69.8438 450.158 70.3646 450.158 71.4062V80H448.205V71.4062C448.205 70.3646 447.731 69.8438 446.783 69.8438C445.83 69.8438 445.353 70.3438 445.353 71.3438H445.345L445.353 77.2891C445.77 77.3047 446.093 77.4635 446.322 77.7656C446.509 77.9948 446.603 78.2839 446.603 78.6328C446.603 78.9818 446.491 79.2969 446.267 79.5781C446.043 79.8594 445.608 80 444.962 80C444.369 80 443.96 79.8594 443.736 79.5781C443.512 79.2969 443.4 78.9818 443.4 78.6328L443.392 71.3438H443.4Z" fill="#1C4076"/>
</svg>
