<svg width="434" height="147" viewBox="0 0 434 147" fill="none" xmlns="http://www.w3.org/2000/svg">
<circle cx="72" cy="16" r="12" fill="#344054"/>
<path d="M74.0057 10.3636V22H71.5455V12.6989H71.4773L68.8125 14.3693V12.1875L71.6932 10.3636H74.0057Z" fill="white"/>
<path d="M69 16H25V58" stroke="#344054" stroke-dasharray="2 2"/>
<circle cx="115" cy="131" r="12" fill="#344054"/>
<path d="M110.943 137V135.227L115.085 131.392C115.438 131.051 115.733 130.744 115.972 130.472C116.214 130.199 116.398 129.932 116.523 129.67C116.648 129.405 116.71 129.119 116.71 128.812C116.71 128.472 116.633 128.178 116.477 127.932C116.322 127.682 116.11 127.491 115.841 127.358C115.572 127.222 115.267 127.153 114.926 127.153C114.57 127.153 114.259 127.225 113.994 127.369C113.729 127.513 113.525 127.72 113.381 127.989C113.237 128.258 113.165 128.578 113.165 128.949H110.83C110.83 128.187 111.002 127.527 111.347 126.966C111.691 126.405 112.174 125.972 112.795 125.665C113.417 125.358 114.133 125.205 114.943 125.205C115.777 125.205 116.502 125.352 117.119 125.648C117.741 125.939 118.223 126.345 118.568 126.864C118.913 127.383 119.085 127.977 119.085 128.648C119.085 129.087 118.998 129.521 118.824 129.949C118.653 130.377 118.348 130.852 117.909 131.375C117.47 131.894 116.85 132.517 116.051 133.244L114.352 134.909V134.989H119.239V137H110.943Z" fill="white"/>
<path d="M112 131H68V91" stroke="#344054" stroke-dasharray="2 2"/>
<circle cx="297" cy="131" r="12" fill="#344054"/>
<path d="M297.244 137.159C296.396 137.159 295.64 137.013 294.977 136.722C294.318 136.426 293.797 136.021 293.415 135.506C293.036 134.987 292.841 134.388 292.83 133.71H295.307C295.322 133.994 295.415 134.244 295.585 134.46C295.759 134.672 295.991 134.837 296.278 134.955C296.566 135.072 296.89 135.131 297.25 135.131C297.625 135.131 297.956 135.064 298.244 134.932C298.532 134.799 298.758 134.616 298.92 134.381C299.083 134.146 299.165 133.875 299.165 133.568C299.165 133.258 299.078 132.983 298.903 132.744C298.733 132.502 298.487 132.312 298.165 132.176C297.847 132.04 297.468 131.972 297.028 131.972H295.943V130.165H297.028C297.4 130.165 297.727 130.1 298.011 129.972C298.299 129.843 298.523 129.665 298.682 129.438C298.841 129.206 298.92 128.938 298.92 128.631C298.92 128.339 298.85 128.083 298.71 127.864C298.574 127.64 298.381 127.466 298.131 127.341C297.884 127.216 297.597 127.153 297.267 127.153C296.934 127.153 296.629 127.214 296.352 127.335C296.076 127.453 295.854 127.621 295.688 127.841C295.521 128.061 295.432 128.318 295.42 128.614H293.062C293.074 127.943 293.265 127.352 293.636 126.841C294.008 126.33 294.508 125.93 295.136 125.642C295.769 125.35 296.483 125.205 297.278 125.205C298.081 125.205 298.784 125.35 299.386 125.642C299.989 125.934 300.456 126.328 300.79 126.824C301.127 127.316 301.294 127.869 301.29 128.483C301.294 129.134 301.091 129.678 300.682 130.114C300.277 130.549 299.748 130.826 299.097 130.943V131.034C299.953 131.144 300.604 131.441 301.051 131.926C301.502 132.407 301.725 133.009 301.722 133.733C301.725 134.396 301.534 134.985 301.148 135.5C300.765 136.015 300.237 136.42 299.562 136.716C298.888 137.011 298.116 137.159 297.244 137.159Z" fill="white"/>
<path d="M294 131H250V91" stroke="#344054" stroke-dasharray="2 2"/>
<path d="M8.67188 75.3828C8.70833 75.3932 8.74479 75.3984 8.78125 75.3984C8.91667 75.3984 8.98438 75.2917 8.98438 75.0781C8.98438 74.8698 8.93229 74.7656 8.82812 74.7656C8.72396 74.7656 8.67188 74.8672 8.67188 75.0703V75.3828ZM8.67188 76.0859V76.875C8.67188 78.9583 7.73438 80 5.85938 80C3.98438 80 3.04688 78.9583 3.04688 76.875V75.3125H4.375V76.875C4.375 78.1771 4.86979 78.8281 5.85938 78.8281C6.84896 78.8281 7.34375 78.1771 7.34375 76.875V75.8984C3.75 74.862 1.95312 73.3646 1.95312 71.4062C1.95312 69.3229 3.25521 68.2812 5.85938 68.2812C8.46354 68.2812 9.76562 69.3229 9.76562 71.4062C9.76562 72.8594 9.04167 73.5859 7.59375 73.5859C7.26562 73.5859 7 73.5104 6.79688 73.3594V72.1875C7.16667 72.2969 7.46875 72.3516 7.70312 72.3516C8.19271 72.3516 8.4375 72.0365 8.4375 71.4062C8.4375 70.1042 7.57812 69.4531 5.85938 69.4531C4.14062 69.4531 3.28125 70.1042 3.28125 71.4062C3.28125 73.0156 4.63542 74.1484 7.34375 74.8047C7.34375 74.3099 7.70833 74.0625 8.4375 74.0625C9.32292 74.0625 9.76562 74.388 9.76562 75.0391C9.76562 75.4297 9.67708 75.7057 9.5 75.8672C9.32292 76.0286 9.13281 76.1094 8.92969 76.1094C8.84635 76.1094 8.76042 76.1016 8.67188 76.0859ZM5.46875 64.1797C5.46875 64.3724 5.51823 64.5182 5.61719 64.6172C5.71615 64.7161 5.86198 64.7656 6.05469 64.7656C6.2526 64.7656 6.40104 64.7161 6.5 64.6172C6.59375 64.5182 6.64062 64.3724 6.64062 64.1797C6.64062 63.9818 6.59375 63.8359 6.5 63.7422C6.40104 63.6432 6.2526 63.5938 6.05469 63.5938C5.86198 63.5938 5.71615 63.6432 5.61719 63.7422C5.51823 63.8359 5.46875 63.9818 5.46875 64.1797ZM7.8125 64.1797C7.8125 64.7682 7.66667 65.2083 7.375 65.5C7.08333 65.7917 6.64323 65.9375 6.05469 65.9375C5.46615 65.9375 5.02604 65.7917 4.73438 65.5C4.44271 65.2083 4.29688 64.7682 4.29688 64.1797C4.29688 63.5911 4.44271 63.151 4.73438 62.8594C5.02604 62.5677 5.46615 62.4219 6.05469 62.4219C6.64323 62.4219 7.08333 62.5677 7.375 62.8594C7.66667 63.151 7.8125 63.5911 7.8125 64.1797ZM14.8438 77.6562V78.8281C14.9531 78.8281 15.0443 78.7995 15.1172 78.7422C15.1953 78.6797 15.2344 78.513 15.2344 78.2422C15.2344 77.9714 15.1953 77.8073 15.1172 77.75C15.0443 77.6875 14.9531 77.6562 14.8438 77.6562ZM13.6719 70.625L15.7031 68.2812L17.5781 69.8438L19.4531 68.2812L21.4844 70.625V80H20.1562V70.9375L19.375 69.9609L17.5781 71.25L15.7812 69.9609L15 70.9375V76.5625C15.1198 76.5104 15.2578 76.4844 15.4141 76.4844C15.5703 76.4844 15.7344 76.625 15.9062 76.9062C16.0833 77.1823 16.1719 77.6276 16.1719 78.2422C16.1719 78.8568 16.0573 79.3047 15.8281 79.5859C15.6042 79.862 15.3021 80 14.9219 80C14.5417 80 14.2396 79.8594 14.0156 79.5781C13.8385 79.3646 13.7292 79.0495 13.6875 78.6328H13.6719V70.625ZM18.3594 64.2578C18.3594 64.5964 18.8151 64.7656 19.7266 64.7656C20.8984 64.7656 21.4844 64.1146 21.4844 62.8125V61.7969H22.6562V62.8125C22.6562 64.8958 21.6797 65.9375 19.7266 65.9375C18.0339 65.9375 17.1875 65.3776 17.1875 64.2578C17.1875 63.2943 17.599 62.8125 18.4219 62.8125C18.9062 62.8125 19.276 62.888 19.5312 63.0391L19.2969 63.9766C19.0833 63.8672 18.888 63.8125 18.7109 63.8125C18.4766 63.8125 18.3594 63.9609 18.3594 64.2578ZM25.3906 78.8281V77.6562H25.1953C25.138 77.6562 25.0911 77.6823 25.0547 77.7344C25.0182 77.7812 25 77.9505 25 78.2422C25 78.5339 25.0182 78.7057 25.0547 78.7578C25.0911 78.8047 25.138 78.8281 25.1953 78.8281H25.3906ZM26.7188 71.4062V78.2422C26.7188 78.9089 26.6302 79.3698 26.4531 79.625C26.2812 79.875 25.9531 80 25.4688 80C24.9844 80 24.6536 79.875 24.4766 79.625C24.3047 79.3698 24.2188 78.9089 24.2188 78.2422C24.2188 77.5755 24.3047 77.1172 24.4766 76.8672C24.6536 76.612 24.8932 76.4844 25.1953 76.4844C25.263 76.4844 25.3281 76.4896 25.3906 76.5V71.4062C25.2865 71.0417 25.026 70.651 24.6094 70.2344V69.4531C24.6094 68.6719 25 68.2812 25.7812 68.2812H27.1094V69.4531H26.1719C25.9115 69.4531 25.7812 69.5833 25.7812 69.8438C26.4062 70.2604 26.7188 70.7812 26.7188 71.4062ZM32.1484 78.8281C32.2057 78.8281 32.2526 78.8047 32.2891 78.7578C32.3255 78.7057 32.3438 78.5339 32.3438 78.2422C32.3438 77.9505 32.3255 77.7812 32.2891 77.7344C32.2526 77.6823 32.2057 77.6562 32.1484 77.6562H31.9531V78.8281H32.1484ZM31.9531 76.5C32.0156 76.4896 32.0807 76.4844 32.1484 76.4844C32.4505 76.4844 32.6875 76.612 32.8594 76.8672C33.0365 77.1172 33.125 77.5755 33.125 78.2422C33.125 78.9089 33.0365 79.3698 32.8594 79.625C32.6875 79.875 32.3594 80 31.875 80C31.3906 80 31.0599 79.875 30.8828 79.625C30.7109 79.3698 30.625 78.9089 30.625 78.2422V71.4062C30.5208 71.0417 30.2604 70.651 29.8438 70.2344V69.4531C29.8438 68.6719 30.2344 68.2812 31.0156 68.2812H32.3438V69.4531H31.4062C31.1458 69.4531 31.0156 69.5833 31.0156 69.8438C31.6406 70.2604 31.9531 70.7812 31.9531 71.4062V76.5ZM35.8594 71.4062H37.1875V78.4375L39.7656 76.0938L42.3438 78.4375V71.4062H43.6719V80H42.5L39.7656 77.6562L37.0312 80H35.8594V71.4062ZM37.1875 69.5234C37.1875 69.737 38.0469 69.8438 39.7656 69.8438C41.4844 69.8438 42.3438 69.3229 42.3438 68.2812V67.1094H43.6719V68.2812C43.6719 70.1042 42.3698 71.0156 39.7656 71.0156C37.1615 71.0156 35.8594 70.5208 35.8594 69.5312C35.8594 68.6979 36.2917 68.2812 37.1562 68.2812C37.7031 68.2812 38.0781 68.3568 38.2812 68.5078V69.5234C37.9115 69.4141 37.638 69.3594 37.4609 69.3594C37.2786 69.3594 37.1875 69.4141 37.1875 69.5234ZM38.9844 64.9219H42.5C41.2031 64.0365 40.1615 63.5938 39.375 63.5938C38.3333 63.5938 37.8125 63.8151 37.8125 64.2578C37.8125 64.7005 38.2031 64.9219 38.9844 64.9219ZM42.5 63.6328V61.6406H43.6719V65.9375H38.5938C37.2917 65.9375 36.6406 65.4167 36.6406 64.375C36.6406 63.0729 37.5521 62.4219 39.375 62.4219C40.4167 62.4219 41.3932 62.7734 42.3047 63.4766C42.3724 63.5286 42.4375 63.5807 42.5 63.6328ZM48.9062 74.5312V76.0938C48.9062 77.9167 49.7656 78.8281 51.4844 78.8281C53.2031 78.8281 54.0625 77.9167 54.0625 76.0938V74.5312H48.9062ZM48.9062 73.3594H54.0625V71.4062C54.0625 71.0417 53.8021 70.651 53.2812 70.2344V69.4531C53.2812 68.6719 53.6719 68.2812 54.4531 68.2812H55.7812V69.4531H54.8438C54.5833 69.4531 54.4531 69.5833 54.4531 69.8438C55.0781 70.2604 55.3906 70.7812 55.3906 71.4062V76.0938C55.3906 78.6979 54.0885 80 51.4844 80C48.8802 80 47.5781 78.6979 47.5781 76.0938V71.4062C47.5781 71.0417 47.3177 70.651 46.7969 70.2344V69.4531C46.7969 68.6719 47.1875 68.2812 47.9688 68.2812H49.2969V69.4531H48.3594C48.099 69.4531 47.9688 69.5833 47.9688 69.8438C48.5938 70.2604 48.9062 70.7812 48.9062 71.4062V73.3594Z" fill="#1C4076"/>
<path fill-rule="evenodd" clip-rule="evenodd" d="M66.1525 68.4025C66.2008 68.3542 66.258 68.3158 66.3211 68.2896C66.3842 68.2635 66.4518 68.25 66.5201 68.25C66.5884 68.25 66.656 68.2635 66.7191 68.2896C66.7822 68.3158 66.8394 68.3542 66.8877 68.4025L73.1177 74.6326C73.1661 74.6808 73.2044 74.7381 73.2306 74.8012C73.2568 74.8642 73.2702 74.9318 73.2702 75.0001C73.2702 75.0684 73.2568 75.136 73.2306 75.1991C73.2044 75.2622 73.1661 75.3195 73.1177 75.3677L66.8877 81.5977C66.7902 81.6952 66.658 81.75 66.5201 81.75C66.3822 81.75 66.25 81.6952 66.1525 81.5977C66.055 81.5003 66.0003 81.368 66.0003 81.2302C66.0003 81.0923 66.055 80.9601 66.1525 80.8626L72.016 75.0001L66.1525 69.1377C66.1042 69.0894 66.0658 69.0322 66.0396 68.9691C66.0135 68.906 66 68.8384 66 68.7701C66 68.7018 66.0135 68.6342 66.0396 68.5711C66.0658 68.508 66.1042 68.4508 66.1525 68.4025Z" fill="#344054"/>
<path d="M84.7468 78.8281C84.8041 78.8281 84.851 78.8047 84.8875 78.7578C84.9239 78.7057 84.9421 78.5339 84.9421 78.2422C84.9421 77.9505 84.9239 77.7812 84.8875 77.7344C84.851 77.6823 84.8041 77.6562 84.7468 77.6562H84.5515V78.8281H84.7468ZM84.5515 76.5C84.614 76.4896 84.6791 76.4844 84.7468 76.4844C85.0489 76.4844 85.2859 76.612 85.4578 76.8672C85.6348 77.1172 85.7234 77.5755 85.7234 78.2422C85.7234 78.9089 85.6348 79.3698 85.4578 79.625C85.2859 79.875 84.9578 80 84.4734 80C83.989 80 83.6583 79.875 83.4812 79.625C83.3093 79.3698 83.2234 78.9089 83.2234 78.2422V71.4062C83.1192 71.0417 82.8588 70.651 82.4421 70.2344V69.4531C82.4421 68.6719 82.8328 68.2812 83.614 68.2812H84.9421V69.4531H84.0046C83.7442 69.4531 83.614 69.5833 83.614 69.8438C84.239 70.2604 84.5515 70.7812 84.5515 71.4062V76.5ZM89.6296 77.6562V78.8281C89.739 78.8281 89.8302 78.7995 89.9031 78.7422C89.9812 78.6797 90.0203 78.513 90.0203 78.2422C90.0203 77.9714 89.9812 77.8073 89.9031 77.75C89.8302 77.6875 89.739 77.6562 89.6296 77.6562ZM89.7859 76.5625C89.9057 76.5104 90.0437 76.4844 90.2 76.4844C90.3562 76.4844 90.5203 76.625 90.6921 76.9062C90.8692 77.1823 90.9578 77.6276 90.9578 78.2422C90.9578 78.8568 90.8432 79.3047 90.614 79.5859C90.3901 79.862 90.088 80 89.7078 80C89.3276 80 89.0255 79.8594 88.8015 79.5781C88.6244 79.3646 88.5151 79.0495 88.4734 78.6328H88.4578V72.1875C88.4578 69.5833 89.4994 68.2812 91.5828 68.2812C93.8484 68.2812 94.9812 69.5833 94.9812 72.1875V76.0938C94.9812 77.9167 95.6713 78.8281 97.0515 78.8281C98.4317 78.8281 99.1218 77.9167 99.1218 76.0938V71.4062C99.1218 71.0417 98.8614 70.651 98.3406 70.2344V69.4531C98.3406 68.6719 98.7312 68.2812 99.5125 68.2812H100.841V69.4531H99.9031C99.6427 69.4531 99.5125 69.5833 99.5125 69.8438C100.137 70.2604 100.45 70.7812 100.45 71.4062V76.0938C100.45 77.9167 101.14 78.8281 102.52 78.8281C103.718 78.8281 104.317 77.9167 104.317 76.0938V71.4062C104.317 71.0417 104.057 70.651 103.536 70.2344V69.4531C103.536 68.6719 103.927 68.2812 104.708 68.2812H106.036V69.4531H105.098C104.838 69.4531 104.708 69.5833 104.708 69.8438C105.333 70.2604 105.645 70.7812 105.645 71.4062V76.0938C105.645 78.6979 104.604 80 102.52 80C101.218 80 100.307 79.4219 99.7859 78.2656C99.2651 79.4219 98.3536 80 97.0515 80C94.7859 80 93.6531 78.6979 93.6531 76.0938V72.1875C93.6531 70.3646 92.963 69.4531 91.5828 69.4531C90.3848 69.4531 89.7859 70.3646 89.7859 72.1875V76.5625ZM104.473 83.125C104.473 83.3854 104.552 83.5156 104.708 83.5156C104.864 83.5156 104.968 83.4948 105.02 83.4531C105.072 83.4167 105.098 83.3698 105.098 83.3125C105.098 83.2552 105.067 83.2109 105.005 83.1797C104.937 83.1536 104.838 83.1354 104.708 83.125H104.473ZM104.473 82.1094H104.966C105.341 82.1094 105.614 82.2005 105.786 82.3828C105.953 82.5651 106.036 82.9089 106.036 83.4141C106.036 83.7682 105.945 84.0286 105.762 84.1953C105.58 84.3672 105.281 84.4531 104.864 84.4531C103.927 84.4531 103.458 84.0495 103.458 83.2422V83.125H101.544C100.57 83.125 99.5932 82.8125 98.614 82.1875L99.0046 81.3281C99.8536 81.849 100.7 82.1094 101.544 82.1094H103.458V80.7812H104.473V82.1094ZM105.645 68.2812H107.208C109.291 68.2812 110.333 69.3229 110.333 71.4062V80H109.005V71.4062C109.005 70.1042 108.406 69.4531 107.208 69.4531H105.645V68.2812ZM115.411 70.4297C115.411 70.6224 115.46 70.7682 115.559 70.8672C115.658 70.9661 115.804 71.0156 115.997 71.0156C116.195 71.0156 116.341 70.9661 116.434 70.8672C116.533 70.7682 116.583 70.6224 116.583 70.4297C116.583 70.2318 116.533 70.0859 116.434 69.9922C116.341 69.8932 116.195 69.8438 115.997 69.8438C115.804 69.8438 115.658 69.8932 115.559 69.9922C115.46 70.0859 115.411 70.2318 115.411 70.4297ZM117.755 70.4297C117.755 71.0182 117.609 71.4583 117.317 71.75C117.025 72.0417 116.585 72.1875 115.997 72.1875C115.408 72.1875 114.968 72.0417 114.677 71.75C114.385 71.4583 114.239 71.0182 114.239 70.4297C114.239 69.8411 114.385 69.401 114.677 69.1094C114.968 68.8177 115.408 68.6719 115.997 68.6719C116.585 68.6719 117.025 68.8177 117.317 69.1094C117.609 69.401 117.755 69.8411 117.755 70.4297ZM115.411 77.8516C115.411 78.0443 115.46 78.1901 115.559 78.2891C115.658 78.388 115.804 78.4375 115.997 78.4375C116.195 78.4375 116.341 78.388 116.434 78.2891C116.533 78.1901 116.583 78.0443 116.583 77.8516C116.583 77.6536 116.533 77.5078 116.434 77.4141C116.341 77.3151 116.195 77.2656 115.997 77.2656C115.804 77.2656 115.658 77.3151 115.559 77.4141C115.46 77.5078 115.411 77.6536 115.411 77.8516ZM117.755 77.8516C117.755 78.4401 117.609 78.8802 117.317 79.1719C117.025 79.4635 116.585 79.6094 115.997 79.6094C115.408 79.6094 114.968 79.4635 114.677 79.1719C114.385 78.8802 114.239 78.4401 114.239 77.8516C114.239 77.263 114.385 76.8229 114.677 76.5312C114.968 76.2396 115.408 76.0938 115.997 76.0938C116.585 76.0938 117.025 76.2396 117.317 76.5312C117.609 76.8229 117.755 77.263 117.755 77.8516ZM128.38 75.3828C128.416 75.3932 128.453 75.3984 128.489 75.3984C128.624 75.3984 128.692 75.2917 128.692 75.0781C128.692 74.8698 128.64 74.7656 128.536 74.7656C128.432 74.7656 128.38 74.8672 128.38 75.0703V75.3828ZM128.38 76.0859V76.875C128.38 78.9583 127.442 80 125.567 80C123.692 80 122.755 78.9583 122.755 76.875V75.3125H124.083V76.875C124.083 78.1771 124.578 78.8281 125.567 78.8281C126.557 78.8281 127.052 78.1771 127.052 76.875V75.8984C123.458 74.862 121.661 73.3646 121.661 71.4062C121.661 69.3229 122.963 68.2812 125.567 68.2812C128.171 68.2812 129.473 69.3229 129.473 71.4062C129.473 72.8594 128.749 73.5859 127.302 73.5859C126.973 73.5859 126.708 73.5104 126.505 73.3594V72.1875C126.874 72.2969 127.177 72.3516 127.411 72.3516C127.9 72.3516 128.145 72.0365 128.145 71.4062C128.145 70.1042 127.286 69.4531 125.567 69.4531C123.848 69.4531 122.989 70.1042 122.989 71.4062C122.989 73.0156 124.343 74.1484 127.052 74.8047C127.052 74.3099 127.416 74.0625 128.145 74.0625C129.031 74.0625 129.473 74.388 129.473 75.0391C129.473 75.4297 129.385 75.7057 129.208 75.8672C129.031 76.0286 128.841 76.1094 128.637 76.1094C128.554 76.1094 128.468 76.1016 128.38 76.0859ZM125.177 64.1797C125.177 64.3724 125.226 64.5182 125.325 64.6172C125.424 64.7161 125.57 64.7656 125.762 64.7656C125.96 64.7656 126.109 64.7161 126.208 64.6172C126.302 64.5182 126.348 64.3724 126.348 64.1797C126.348 63.9818 126.302 63.8359 126.208 63.7422C126.109 63.6432 125.96 63.5938 125.762 63.5938C125.57 63.5938 125.424 63.6432 125.325 63.7422C125.226 63.8359 125.177 63.9818 125.177 64.1797ZM127.52 64.1797C127.52 64.7682 127.374 65.2083 127.083 65.5C126.791 65.7917 126.351 65.9375 125.762 65.9375C125.174 65.9375 124.734 65.7917 124.442 65.5C124.15 65.2083 124.005 64.7682 124.005 64.1797C124.005 63.5911 124.15 63.151 124.442 62.8594C124.734 62.5677 125.174 62.4219 125.762 62.4219C126.351 62.4219 126.791 62.5677 127.083 62.8594C127.374 63.151 127.52 63.5911 127.52 64.1797ZM134.552 77.6562V78.8281C134.661 78.8281 134.752 78.7995 134.825 78.7422C134.903 78.6797 134.942 78.513 134.942 78.2422C134.942 77.9714 134.903 77.8073 134.825 77.75C134.752 77.6875 134.661 77.6562 134.552 77.6562ZM133.38 70.625L135.411 68.2812L137.286 69.8438L139.161 68.2812L141.192 70.625V80H139.864V70.9375L139.083 69.9609L137.286 71.25L135.489 69.9609L134.708 70.9375V76.5625C134.828 76.5104 134.966 76.4844 135.122 76.4844C135.278 76.4844 135.442 76.625 135.614 76.9062C135.791 77.1823 135.88 77.6276 135.88 78.2422C135.88 78.8568 135.765 79.3047 135.536 79.5859C135.312 79.862 135.01 80 134.63 80C134.249 80 133.947 79.8594 133.723 79.5781C133.546 79.3646 133.437 79.0495 133.395 78.6328H133.38V70.625ZM138.067 64.2578C138.067 64.5964 138.523 64.7656 139.434 64.7656C140.606 64.7656 141.192 64.1146 141.192 62.8125V61.7969H142.364V62.8125C142.364 64.8958 141.387 65.9375 139.434 65.9375C137.742 65.9375 136.895 65.3776 136.895 64.2578C136.895 63.2943 137.307 62.8125 138.13 62.8125C138.614 62.8125 138.984 62.888 139.239 63.0391L139.005 63.9766C138.791 63.8672 138.596 63.8125 138.419 63.8125C138.184 63.8125 138.067 63.9609 138.067 64.2578ZM145.098 78.8281V77.6562H144.903C144.846 77.6562 144.799 77.6823 144.762 77.7344C144.726 77.7812 144.708 77.9505 144.708 78.2422C144.708 78.5339 144.726 78.7057 144.762 78.7578C144.799 78.8047 144.846 78.8281 144.903 78.8281H145.098ZM146.427 71.4062V78.2422C146.427 78.9089 146.338 79.3698 146.161 79.625C145.989 79.875 145.661 80 145.177 80C144.692 80 144.361 79.875 144.184 79.625C144.012 79.3698 143.927 78.9089 143.927 78.2422C143.927 77.5755 144.012 77.1172 144.184 76.8672C144.361 76.612 144.601 76.4844 144.903 76.4844C144.971 76.4844 145.036 76.4896 145.098 76.5V71.4062C144.994 71.0417 144.734 70.651 144.317 70.2344V69.4531C144.317 68.6719 144.708 68.2812 145.489 68.2812H146.817V69.4531H145.88C145.619 69.4531 145.489 69.5833 145.489 69.8438C146.114 70.2604 146.427 70.7812 146.427 71.4062ZM157.052 75.3828C157.088 75.3932 157.124 75.3984 157.161 75.3984C157.296 75.3984 157.364 75.2917 157.364 75.0781C157.364 74.8698 157.312 74.7656 157.208 74.7656C157.104 74.7656 157.052 74.8672 157.052 75.0703V75.3828ZM157.052 76.0859V76.875C157.052 78.9583 156.114 80 154.239 80C152.364 80 151.427 78.9583 151.427 76.875V75.3125H152.755V76.875C152.755 78.1771 153.249 78.8281 154.239 78.8281C155.229 78.8281 155.723 78.1771 155.723 76.875V75.8984C152.13 74.862 150.333 73.3646 150.333 71.4062C150.333 69.3229 151.635 68.2812 154.239 68.2812C156.843 68.2812 158.145 69.3229 158.145 71.4062C158.145 72.8594 157.421 73.5859 155.973 73.5859C155.645 73.5859 155.38 73.5104 155.177 73.3594V72.1875C155.546 72.2969 155.848 72.3516 156.083 72.3516C156.572 72.3516 156.817 72.0365 156.817 71.4062C156.817 70.1042 155.958 69.4531 154.239 69.4531C152.52 69.4531 151.661 70.1042 151.661 71.4062C151.661 73.0156 153.015 74.1484 155.723 74.8047C155.723 74.3099 156.088 74.0625 156.817 74.0625C157.703 74.0625 158.145 74.388 158.145 75.0391C158.145 75.4297 158.057 75.7057 157.88 75.8672C157.703 76.0286 157.512 76.1094 157.309 76.1094C157.226 76.1094 157.14 76.1016 157.052 76.0859ZM153.458 64.9219H156.973C155.677 64.0365 154.635 63.5938 153.848 63.5938C152.807 63.5938 152.286 63.8151 152.286 64.2578C152.286 64.7005 152.677 64.9219 153.458 64.9219ZM156.973 63.6328V61.6406H158.145V65.9375H153.067C151.765 65.9375 151.114 65.4167 151.114 64.375C151.114 63.0729 152.025 62.4219 153.848 62.4219C154.89 62.4219 155.867 62.7734 156.778 63.4766C156.846 63.5286 156.911 63.5807 156.973 63.6328ZM169.723 78.8281C171.703 78.8281 172.692 77.1354 172.692 73.75C172.692 70.8854 171.833 69.4531 170.114 69.4531C168.395 69.4531 167.536 70.3646 167.536 72.1875C167.536 72.5052 167.596 72.7865 167.716 73.0312C167.841 73.2708 168.101 73.3906 168.497 73.3906C168.872 73.3906 169.109 73.3359 169.208 73.2266C169.286 73.138 169.325 73.0521 169.325 72.9688C169.325 72.9427 169.322 72.9193 169.317 72.8984C169.291 72.7891 169.249 72.7344 169.192 72.7344C169.135 72.7344 168.981 72.8203 168.731 72.9922L168.387 72.0938C168.752 71.8281 169.08 71.6953 169.372 71.6953C169.69 71.6953 169.937 71.7891 170.114 71.9766C170.291 72.1641 170.38 72.4922 170.38 72.9609C170.38 73.2214 170.312 73.5 170.177 73.7969C170.046 74.0938 169.828 74.3047 169.52 74.4297C169.213 74.5495 168.893 74.6094 168.559 74.6094C168.169 74.6094 167.804 74.5521 167.466 74.4375C167.132 74.3229 166.838 74.0885 166.583 73.7344C166.333 73.375 166.208 72.8594 166.208 72.1875C166.208 69.5833 167.51 68.2812 170.114 68.2812C172.718 68.2812 174.02 70.1042 174.02 73.75C174.02 77.9167 172.588 80 169.723 80C168.656 80 167.718 79.7135 166.911 79.1406L167.302 78.0469C167.874 78.5677 168.682 78.8281 169.723 78.8281Z" fill="#1C4076"/>
<path fill-rule="evenodd" clip-rule="evenodd" d="M184.423 68.4025C184.471 68.3542 184.528 68.3158 184.591 68.2896C184.654 68.2635 184.722 68.25 184.79 68.25C184.859 68.25 184.926 68.2635 184.989 68.2896C185.052 68.3158 185.11 68.3542 185.158 68.4025L191.388 74.6326C191.436 74.6808 191.475 74.7381 191.501 74.8012C191.527 74.8642 191.54 74.9318 191.54 75.0001C191.54 75.0684 191.527 75.136 191.501 75.1991C191.475 75.2622 191.436 75.3195 191.388 75.3677L185.158 81.5977C185.06 81.6952 184.928 81.75 184.79 81.75C184.652 81.75 184.52 81.6952 184.423 81.5977C184.325 81.5003 184.271 81.368 184.271 81.2302C184.271 81.0923 184.325 80.9601 184.423 80.8626L190.286 75.0001L184.423 69.1377C184.374 69.0894 184.336 69.0322 184.31 68.9691C184.284 68.906 184.27 68.8384 184.27 68.7701C184.27 68.7018 184.284 68.6342 184.31 68.5711C184.336 68.508 184.374 68.4508 184.423 68.4025Z" fill="#344054"/>
<path d="M203.017 78.8281C203.074 78.8281 203.121 78.8047 203.158 78.7578C203.194 78.7057 203.212 78.5339 203.212 78.2422C203.212 77.9505 203.194 77.7812 203.158 77.7344C203.121 77.6823 203.074 77.6562 203.017 77.6562H202.822V78.8281H203.017ZM202.822 76.5C202.884 76.4896 202.949 76.4844 203.017 76.4844C203.319 76.4844 203.556 76.612 203.728 76.8672C203.905 77.1172 203.994 77.5755 203.994 78.2422C203.994 78.9089 203.905 79.3698 203.728 79.625C203.556 79.875 203.228 80 202.744 80C202.259 80 201.929 79.875 201.751 79.625C201.58 79.3698 201.494 78.9089 201.494 78.2422V71.4062C201.389 71.0417 201.129 70.651 200.712 70.2344V69.4531C200.712 68.6719 201.103 68.2812 201.884 68.2812H203.212V69.4531H202.275C202.014 69.4531 201.884 69.5833 201.884 69.8438C202.509 70.2604 202.822 70.7812 202.822 71.4062V76.5ZM207.9 77.6562V78.8281C208.009 78.8281 208.1 78.7995 208.173 78.7422C208.251 78.6797 208.291 78.513 208.291 78.2422C208.291 77.9714 208.251 77.8073 208.173 77.75C208.1 77.6875 208.009 77.6562 207.9 77.6562ZM208.056 76.5625C208.176 76.5104 208.314 76.4844 208.47 76.4844C208.626 76.4844 208.791 76.625 208.962 76.9062C209.139 77.1823 209.228 77.6276 209.228 78.2422C209.228 78.8568 209.113 79.3047 208.884 79.5859C208.66 79.862 208.358 80 207.978 80C207.598 80 207.296 79.8594 207.072 79.5781C206.895 79.3646 206.785 79.0495 206.744 78.6328H206.728V72.1875C206.728 69.5833 207.77 68.2812 209.853 68.2812C212.119 68.2812 213.251 69.5833 213.251 72.1875V76.0938C213.251 77.9167 213.942 78.8281 215.322 78.8281C216.702 78.8281 217.392 77.9167 217.392 76.0938V71.4062C217.392 71.0417 217.132 70.651 216.611 70.2344V69.4531C216.611 68.6719 217.001 68.2812 217.783 68.2812H219.111V69.4531H218.173C217.913 69.4531 217.783 69.5833 217.783 69.8438C218.408 70.2604 218.72 70.7812 218.72 71.4062V76.0938C218.72 77.9167 219.41 78.8281 220.791 78.8281C221.988 78.8281 222.587 77.9167 222.587 76.0938V71.4062C222.587 71.0417 222.327 70.651 221.806 70.2344V69.4531C221.806 68.6719 222.197 68.2812 222.978 68.2812H224.306V69.4531H223.369C223.108 69.4531 222.978 69.5833 222.978 69.8438C223.603 70.2604 223.916 70.7812 223.916 71.4062V76.0938C223.916 78.6979 222.874 80 220.791 80C219.488 80 218.577 79.4219 218.056 78.2656C217.535 79.4219 216.624 80 215.322 80C213.056 80 211.923 78.6979 211.923 76.0938V72.1875C211.923 70.3646 211.233 69.4531 209.853 69.4531C208.655 69.4531 208.056 70.3646 208.056 72.1875V76.5625ZM222.744 83.125C222.744 83.3854 222.822 83.5156 222.978 83.5156C223.134 83.5156 223.238 83.4948 223.291 83.4531C223.343 83.4167 223.369 83.3698 223.369 83.3125C223.369 83.2552 223.337 83.2109 223.275 83.1797C223.207 83.1536 223.108 83.1354 222.978 83.125H222.744ZM222.744 82.1094H223.236C223.611 82.1094 223.884 82.2005 224.056 82.3828C224.223 82.5651 224.306 82.9089 224.306 83.4141C224.306 83.7682 224.215 84.0286 224.033 84.1953C223.85 84.3672 223.551 84.4531 223.134 84.4531C222.197 84.4531 221.728 84.0495 221.728 83.2422V83.125H219.814C218.84 83.125 217.863 82.8125 216.884 82.1875L217.275 81.3281C218.124 81.849 218.97 82.1094 219.814 82.1094H221.728V80.7812H222.744V82.1094ZM223.916 68.2812H225.478C227.561 68.2812 228.603 69.3229 228.603 71.4062V80H227.275V71.4062C227.275 70.1042 226.676 69.4531 225.478 69.4531H223.916V68.2812ZM233.681 70.4297C233.681 70.6224 233.731 70.7682 233.83 70.8672C233.929 70.9661 234.074 71.0156 234.267 71.0156C234.465 71.0156 234.611 70.9661 234.705 70.8672C234.804 70.7682 234.853 70.6224 234.853 70.4297C234.853 70.2318 234.804 70.0859 234.705 69.9922C234.611 69.8932 234.465 69.8438 234.267 69.8438C234.074 69.8438 233.929 69.8932 233.83 69.9922C233.731 70.0859 233.681 70.2318 233.681 70.4297ZM236.025 70.4297C236.025 71.0182 235.879 71.4583 235.587 71.75C235.296 72.0417 234.856 72.1875 234.267 72.1875C233.679 72.1875 233.238 72.0417 232.947 71.75C232.655 71.4583 232.509 71.0182 232.509 70.4297C232.509 69.8411 232.655 69.401 232.947 69.1094C233.238 68.8177 233.679 68.6719 234.267 68.6719C234.856 68.6719 235.296 68.8177 235.587 69.1094C235.879 69.401 236.025 69.8411 236.025 70.4297ZM233.681 77.8516C233.681 78.0443 233.731 78.1901 233.83 78.2891C233.929 78.388 234.074 78.4375 234.267 78.4375C234.465 78.4375 234.611 78.388 234.705 78.2891C234.804 78.1901 234.853 78.0443 234.853 77.8516C234.853 77.6536 234.804 77.5078 234.705 77.4141C234.611 77.3151 234.465 77.2656 234.267 77.2656C234.074 77.2656 233.929 77.3151 233.83 77.4141C233.731 77.5078 233.681 77.6536 233.681 77.8516ZM236.025 77.8516C236.025 78.4401 235.879 78.8802 235.587 79.1719C235.296 79.4635 234.856 79.6094 234.267 79.6094C233.679 79.6094 233.238 79.4635 232.947 79.1719C232.655 78.8802 232.509 78.4401 232.509 77.8516C232.509 77.263 232.655 76.8229 232.947 76.5312C233.238 76.2396 233.679 76.0938 234.267 76.0938C234.856 76.0938 235.296 76.2396 235.587 76.5312C235.879 76.8229 236.025 77.263 236.025 77.8516ZM246.65 75.3828C246.686 75.3932 246.723 75.3984 246.759 75.3984C246.895 75.3984 246.962 75.2917 246.962 75.0781C246.962 74.8698 246.91 74.7656 246.806 74.7656C246.702 74.7656 246.65 74.8672 246.65 75.0703V75.3828ZM246.65 76.0859V76.875C246.65 78.9583 245.712 80 243.837 80C241.962 80 241.025 78.9583 241.025 76.875V75.3125H242.353V76.875C242.353 78.1771 242.848 78.8281 243.837 78.8281C244.827 78.8281 245.322 78.1771 245.322 76.875V75.8984C241.728 74.862 239.931 73.3646 239.931 71.4062C239.931 69.3229 241.233 68.2812 243.837 68.2812C246.442 68.2812 247.744 69.3229 247.744 71.4062C247.744 72.8594 247.02 73.5859 245.572 73.5859C245.244 73.5859 244.978 73.5104 244.775 73.3594V72.1875C245.145 72.2969 245.447 72.3516 245.681 72.3516C246.171 72.3516 246.416 72.0365 246.416 71.4062C246.416 70.1042 245.556 69.4531 243.837 69.4531C242.119 69.4531 241.259 70.1042 241.259 71.4062C241.259 73.0156 242.613 74.1484 245.322 74.8047C245.322 74.3099 245.686 74.0625 246.416 74.0625C247.301 74.0625 247.744 74.388 247.744 75.0391C247.744 75.4297 247.655 75.7057 247.478 75.8672C247.301 76.0286 247.111 76.1094 246.908 76.1094C246.824 76.1094 246.738 76.1016 246.65 76.0859ZM243.447 64.1797C243.447 64.3724 243.496 64.5182 243.595 64.6172C243.694 64.7161 243.84 64.7656 244.033 64.7656C244.231 64.7656 244.379 64.7161 244.478 64.6172C244.572 64.5182 244.619 64.3724 244.619 64.1797C244.619 63.9818 244.572 63.8359 244.478 63.7422C244.379 63.6432 244.231 63.5938 244.033 63.5938C243.84 63.5938 243.694 63.6432 243.595 63.7422C243.496 63.8359 243.447 63.9818 243.447 64.1797ZM245.791 64.1797C245.791 64.7682 245.645 65.2083 245.353 65.5C245.061 65.7917 244.621 65.9375 244.033 65.9375C243.444 65.9375 243.004 65.7917 242.712 65.5C242.421 65.2083 242.275 64.7682 242.275 64.1797C242.275 63.5911 242.421 63.151 242.712 62.8594C243.004 62.5677 243.444 62.4219 244.033 62.4219C244.621 62.4219 245.061 62.5677 245.353 62.8594C245.645 63.151 245.791 63.5911 245.791 64.1797ZM252.822 77.6562V78.8281C252.931 78.8281 253.022 78.7995 253.095 78.7422C253.173 78.6797 253.212 78.513 253.212 78.2422C253.212 77.9714 253.173 77.8073 253.095 77.75C253.022 77.6875 252.931 77.6562 252.822 77.6562ZM251.65 70.625L253.681 68.2812L255.556 69.8438L257.431 68.2812L259.462 70.625V80H258.134V70.9375L257.353 69.9609L255.556 71.25L253.759 69.9609L252.978 70.9375V76.5625C253.098 76.5104 253.236 76.4844 253.392 76.4844C253.548 76.4844 253.712 76.625 253.884 76.9062C254.061 77.1823 254.15 77.6276 254.15 78.2422C254.15 78.8568 254.035 79.3047 253.806 79.5859C253.582 79.862 253.28 80 252.9 80C252.52 80 252.218 79.8594 251.994 79.5781C251.817 79.3646 251.707 79.0495 251.666 78.6328H251.65V70.625ZM256.337 64.2578C256.337 64.5964 256.793 64.7656 257.705 64.7656C258.876 64.7656 259.462 64.1146 259.462 62.8125V61.7969H260.634V62.8125C260.634 64.8958 259.658 65.9375 257.705 65.9375C256.012 65.9375 255.166 65.3776 255.166 64.2578C255.166 63.2943 255.577 62.8125 256.4 62.8125C256.884 62.8125 257.254 62.888 257.509 63.0391L257.275 63.9766C257.061 63.8672 256.866 63.8125 256.689 63.8125C256.455 63.8125 256.337 63.9609 256.337 64.2578ZM263.369 78.8281V77.6562H263.173C263.116 77.6562 263.069 77.6823 263.033 77.7344C262.996 77.7812 262.978 77.9505 262.978 78.2422C262.978 78.5339 262.996 78.7057 263.033 78.7578C263.069 78.8047 263.116 78.8281 263.173 78.8281H263.369ZM264.697 71.4062V78.2422C264.697 78.9089 264.608 79.3698 264.431 79.625C264.259 79.875 263.931 80 263.447 80C262.962 80 262.632 79.875 262.455 79.625C262.283 79.3698 262.197 78.9089 262.197 78.2422C262.197 77.5755 262.283 77.1172 262.455 76.8672C262.632 76.612 262.871 76.4844 263.173 76.4844C263.241 76.4844 263.306 76.4896 263.369 76.5V71.4062C263.264 71.0417 263.004 70.651 262.587 70.2344V69.4531C262.587 68.6719 262.978 68.2812 263.759 68.2812H265.087V69.4531H264.15C263.889 69.4531 263.759 69.5833 263.759 69.8438C264.384 70.2604 264.697 70.7812 264.697 71.4062ZM275.322 75.3828C275.358 75.3932 275.395 75.3984 275.431 75.3984C275.567 75.3984 275.634 75.2917 275.634 75.0781C275.634 74.8698 275.582 74.7656 275.478 74.7656C275.374 74.7656 275.322 74.8672 275.322 75.0703V75.3828ZM275.322 76.0859V76.875C275.322 78.9583 274.384 80 272.509 80C270.634 80 269.697 78.9583 269.697 76.875V75.3125H271.025V76.875C271.025 78.1771 271.52 78.8281 272.509 78.8281C273.499 78.8281 273.994 78.1771 273.994 76.875V75.8984C270.4 74.862 268.603 73.3646 268.603 71.4062C268.603 69.3229 269.905 68.2812 272.509 68.2812C275.113 68.2812 276.416 69.3229 276.416 71.4062C276.416 72.8594 275.692 73.5859 274.244 73.5859C273.916 73.5859 273.65 73.5104 273.447 73.3594V72.1875C273.817 72.2969 274.119 72.3516 274.353 72.3516C274.843 72.3516 275.087 72.0365 275.087 71.4062C275.087 70.1042 274.228 69.4531 272.509 69.4531C270.791 69.4531 269.931 70.1042 269.931 71.4062C269.931 73.0156 271.285 74.1484 273.994 74.8047C273.994 74.3099 274.358 74.0625 275.087 74.0625C275.973 74.0625 276.416 74.388 276.416 75.0391C276.416 75.4297 276.327 75.7057 276.15 75.8672C275.973 76.0286 275.783 76.1094 275.58 76.1094C275.496 76.1094 275.41 76.1016 275.322 76.0859ZM271.728 64.9219H275.244C273.947 64.0365 272.905 63.5938 272.119 63.5938C271.077 63.5938 270.556 63.8151 270.556 64.2578C270.556 64.7005 270.947 64.9219 271.728 64.9219ZM275.244 63.6328V61.6406H276.416V65.9375H271.337C270.035 65.9375 269.384 65.4167 269.384 64.375C269.384 63.0729 270.296 62.4219 272.119 62.4219C273.16 62.4219 274.137 62.7734 275.048 63.4766C275.116 63.5286 275.181 63.5807 275.244 63.6328ZM288.15 73.3984C288.259 73.3984 288.35 73.3646 288.423 73.2969C288.501 73.2292 288.541 73.1328 288.541 73.0078C288.541 72.8828 288.501 72.7865 288.423 72.7188C288.35 72.651 288.259 72.6172 288.15 72.6172V73.3984ZM286.822 70.3125L288.462 68.2812L289.947 69.8438L291.431 68.2812L293.072 70.3125V76.0938C293.072 78.6979 291.639 80 288.775 80C285.91 80 284.478 78.6979 284.478 76.0938V68.6719C284.478 68.151 284.218 67.8906 283.697 67.8906H283.306V66.7188H284.244C285.285 66.7188 285.806 67.2396 285.806 68.2812V76.0938C285.806 77.9167 286.796 78.8281 288.775 78.8281C290.754 78.8281 291.744 77.9167 291.744 76.0938V70.625L291.197 69.9609L289.947 71.25L288.697 69.9609L288.15 70.625V71.6953C288.202 71.6901 288.254 71.6875 288.306 71.6875C288.66 71.6875 288.923 71.7995 289.095 72.0234C289.298 72.2734 289.4 72.6016 289.4 73.0078C289.4 73.4141 289.298 73.7448 289.095 74C288.897 74.25 288.569 74.375 288.111 74.375C287.653 74.375 287.322 74.25 287.119 74C286.921 73.7448 286.822 73.4141 286.822 73.0078V70.3125Z" fill="#1C4076"/>
<path fill-rule="evenodd" clip-rule="evenodd" d="M309.058 68.4025C309.106 68.3542 309.164 68.3158 309.227 68.2896C309.29 68.2635 309.357 68.25 309.426 68.25C309.494 68.25 309.562 68.2635 309.625 68.2896C309.688 68.3158 309.745 68.3542 309.793 68.4025L316.023 74.6326C316.072 74.6808 316.11 74.7381 316.136 74.8012C316.162 74.8642 316.176 74.9318 316.176 75.0001C316.176 75.0684 316.162 75.136 316.136 75.1991C316.11 75.2622 316.072 75.3195 316.023 75.3677L309.793 81.5977C309.696 81.6952 309.563 81.75 309.426 81.75C309.288 81.75 309.156 81.6952 309.058 81.5977C308.961 81.5003 308.906 81.368 308.906 81.2302C308.906 81.0923 308.961 80.9601 309.058 80.8626L314.922 75.0001L309.058 69.1377C309.01 69.0894 308.971 69.0322 308.945 68.9691C308.919 68.906 308.906 68.8384 308.906 68.7701C308.906 68.7018 308.919 68.6342 308.945 68.5711C308.971 68.508 309.01 68.4508 309.058 68.4025Z" fill="#1C4076"/>
<path d="M333.369 77.8906C333.322 77.8229 333.218 77.7839 333.056 77.7734V78.6641C333.218 78.6641 333.322 78.6302 333.369 78.5625C333.421 78.4896 333.447 78.3776 333.447 78.2266C333.447 78.0703 333.421 77.9583 333.369 77.8906ZM333.447 76.4375C333.843 76.4688 334.137 76.625 334.33 76.9062C334.522 77.1823 334.619 77.6276 334.619 78.2422C334.619 78.8568 334.483 79.3047 334.212 79.5859C333.942 79.862 333.556 80 333.056 80C332.556 80 332.171 79.862 331.9 79.5859C331.629 79.3047 331.494 78.8568 331.494 78.2422V71.4062C331.494 70.9792 331.233 70.5573 330.712 70.1406V69.4531C330.712 68.6719 331.207 68.2812 332.197 68.2812H333.837V69.8438H332.509V69.9375C333.134 70.3542 333.447 70.8438 333.447 71.4062V76.4375ZM338.916 78.6641C339.077 78.6641 339.181 78.6302 339.228 78.5625C339.28 78.4896 339.306 78.3776 339.306 78.2266C339.306 78.0703 339.28 77.9583 339.228 77.8906C339.181 77.8229 339.077 77.7839 338.916 77.7734V78.6641ZM337.353 72.1875C337.353 69.5833 338.546 68.2812 340.931 68.2812C343.311 68.2812 344.501 69.5833 344.501 72.1875V76.0938C344.501 77.6562 345.087 78.4375 346.259 78.4375C347.431 78.4375 348.017 77.6562 348.017 76.0938V71.4062C348.017 70.9792 347.757 70.5573 347.236 70.1406V69.4531C347.236 68.6719 347.731 68.2812 348.72 68.2812H350.361V69.8438H349.033V69.9375C349.658 70.3542 349.97 70.8438 349.97 71.4062V76.0938C349.97 77.6562 350.556 78.4375 351.728 78.4375C352.718 78.4375 353.212 77.6562 353.212 76.0938V71.4062C353.212 70.9792 352.952 70.5573 352.431 70.1406V69.4531C352.431 68.6719 352.926 68.2812 353.916 68.2812H355.556V69.8438H354.228V69.9375C354.853 70.3542 355.166 70.8438 355.166 71.4062V76.0938C355.166 78.6979 354.02 80 351.728 80C350.238 80 349.327 79.6328 348.994 78.8984C348.66 79.6328 347.749 80 346.259 80C343.785 80 342.548 78.6979 342.548 76.0938V72.1875C342.548 70.625 342.009 69.8438 340.931 69.8438C339.848 69.8438 339.306 70.625 339.306 72.1875V76.4375C339.702 76.4688 339.996 76.625 340.189 76.9062C340.382 77.1823 340.478 77.6276 340.478 78.2422C340.478 78.7526 340.343 79.1745 340.072 79.5078C339.801 79.8359 339.416 80 338.916 80C338.416 80 338.03 79.849 337.759 79.5469C337.488 79.2396 337.353 78.8047 337.353 78.2422V72.1875ZM353.994 83.125C353.994 83.3177 354.054 83.4141 354.173 83.4141C354.298 83.4141 354.382 83.3984 354.423 83.3672C354.46 83.3411 354.478 83.3073 354.478 83.2656C354.478 83.224 354.455 83.1901 354.408 83.1641C354.356 83.1432 354.278 83.1302 354.173 83.125H353.994ZM353.994 81.7188H354.251C354.626 81.7188 354.939 81.8359 355.189 82.0703C355.434 82.3047 355.556 82.6745 355.556 83.1797C355.556 83.5859 355.439 83.8984 355.205 84.1172C354.97 84.3411 354.619 84.4531 354.15 84.4531C352.952 84.4531 352.353 84.0495 352.353 83.2422V83.125H350.673C349.699 83.125 348.723 82.8125 347.744 82.1875L348.134 80.7031C348.983 81.3802 349.83 81.7188 350.673 81.7188H352.353V80.7812H353.994V81.7188ZM355.166 68.2812H357.041C359.697 68.2812 361.025 69.3229 361.025 71.4062V80H359.072V71.4062C359.072 70.3646 358.395 69.8438 357.041 69.8438H355.166V68.2812ZM366.298 70.4297C366.298 70.5599 366.332 70.6562 366.4 70.7188C366.462 70.7865 366.559 70.8203 366.689 70.8203C366.819 70.8203 366.916 70.7865 366.978 70.7188C367.046 70.6562 367.08 70.5599 367.08 70.4297C367.08 70.2995 367.046 70.2031 366.978 70.1406C366.916 70.0729 366.819 70.0391 366.689 70.0391C366.559 70.0391 366.462 70.0729 366.4 70.1406C366.332 70.2031 366.298 70.2995 366.298 70.4297ZM368.447 70.4297C368.447 71.0182 368.301 71.4583 368.009 71.75C367.718 72.0417 367.278 72.1875 366.689 72.1875C366.1 72.1875 365.66 72.0417 365.369 71.75C365.077 71.4583 364.931 71.0182 364.931 70.4297C364.931 69.8411 365.077 69.401 365.369 69.1094C365.66 68.8177 366.1 68.6719 366.689 68.6719C367.278 68.6719 367.718 68.8177 368.009 69.1094C368.301 69.401 368.447 69.8411 368.447 70.4297ZM366.298 77.8516C366.298 77.9818 366.332 78.0781 366.4 78.1406C366.462 78.2083 366.559 78.2422 366.689 78.2422C366.819 78.2422 366.916 78.2083 366.978 78.1406C367.046 78.0781 367.08 77.9818 367.08 77.8516C367.08 77.7214 367.046 77.625 366.978 77.5625C366.916 77.4948 366.819 77.4609 366.689 77.4609C366.559 77.4609 366.462 77.4948 366.4 77.5625C366.332 77.625 366.298 77.7214 366.298 77.8516ZM368.447 77.8516C368.447 78.4401 368.301 78.8802 368.009 79.1719C367.718 79.4635 367.278 79.6094 366.689 79.6094C366.1 79.6094 365.66 79.4635 365.369 79.1719C365.077 78.8802 364.931 78.4401 364.931 77.8516C364.931 77.263 365.077 76.8229 365.369 76.5312C365.66 76.2396 366.1 76.0938 366.689 76.0938C367.278 76.0938 367.718 76.2396 368.009 76.5312C368.301 76.8229 368.447 77.263 368.447 77.8516ZM379.619 75.2031C379.619 75.0521 379.567 74.9766 379.462 74.9766C379.358 74.9766 379.306 75.0547 379.306 75.2109C379.306 75.4089 379.41 75.5182 379.619 75.5391V75.2031ZM379.697 76.5391V76.875C379.697 78.9583 378.655 80 376.572 80C374.488 80 373.447 78.9583 373.447 76.875V75.3125H375.4V76.875C375.4 77.9167 375.791 78.4375 376.572 78.4375C377.353 78.4375 377.744 77.9167 377.744 76.875V76.2266C374.15 74.9297 372.353 73.3229 372.353 71.4062C372.353 69.3229 373.759 68.2812 376.572 68.2812C379.384 68.2812 380.791 69.3229 380.791 71.4062C380.791 72.8594 379.962 73.5859 378.306 73.5859C377.853 73.5859 377.483 73.4792 377.197 73.2656V71.6016C377.832 71.7891 378.238 71.8828 378.416 71.8828C378.697 71.8828 378.837 71.724 378.837 71.4062C378.837 70.3646 378.082 69.8438 376.572 69.8438C375.061 69.8438 374.306 70.3646 374.306 71.4062C374.306 73.0521 375.452 74.1536 377.744 74.7109C377.744 74.2786 378.212 74.0625 379.15 74.0625C380.244 74.0625 380.791 74.388 380.791 75.0391C380.791 75.6276 380.684 76.0182 380.47 76.2109C380.262 76.4036 380.004 76.513 379.697 76.5391ZM376.064 64.1797C376.064 64.3099 376.098 64.4062 376.166 64.4688C376.228 64.5365 376.324 64.5703 376.455 64.5703C376.585 64.5703 376.684 64.5365 376.751 64.4688C376.814 64.4062 376.845 64.3099 376.845 64.1797C376.845 64.0495 376.814 63.9531 376.751 63.8906C376.684 63.8229 376.585 63.7891 376.455 63.7891C376.324 63.7891 376.228 63.8229 376.166 63.8906C376.098 63.9531 376.064 64.0495 376.064 64.1797ZM378.212 64.1797C378.212 64.7682 378.067 65.2083 377.775 65.5C377.483 65.7917 377.043 65.9375 376.455 65.9375C375.866 65.9375 375.426 65.7917 375.134 65.5C374.843 65.2083 374.697 64.7682 374.697 64.1797C374.697 63.5911 374.843 63.151 375.134 62.8594C375.426 62.5677 375.866 62.4219 376.455 62.4219C377.043 62.4219 377.483 62.5677 377.775 62.8594C378.067 63.151 378.212 63.5911 378.212 64.1797ZM386.259 78.6641C386.421 78.6641 386.525 78.6302 386.572 78.5625C386.624 78.4896 386.65 78.3776 386.65 78.2266C386.65 78.0703 386.624 77.9583 386.572 77.8906C386.525 77.8229 386.421 77.7839 386.259 77.7734V78.6641ZM384.697 70.7109L386.986 68.0703L388.916 69.6797L390.845 68.0703L393.134 70.7109V80H391.181V71.2422L390.626 70.5469L388.916 71.7734L387.205 70.5469L386.65 71.2422V76.4375C387.046 76.4688 387.34 76.625 387.533 76.9062C387.725 77.1823 387.822 77.6276 387.822 78.2422C387.822 78.7526 387.686 79.1745 387.416 79.5078C387.145 79.8359 386.759 80 386.259 80C385.759 80 385.374 79.849 385.103 79.5469C384.832 79.2396 384.697 78.8047 384.697 78.2422V70.7109ZM390.4 64.1016C390.4 64.2839 390.725 64.375 391.376 64.375C392.288 64.375 392.744 63.8542 392.744 62.8125V61.7969H394.306V62.8125C394.306 64.8958 393.33 65.9375 391.376 65.9375C389.684 65.9375 388.837 65.3776 388.837 64.2578C388.837 63.2943 389.301 62.8125 390.228 62.8125C390.608 62.8125 390.926 62.888 391.181 63.0391L390.947 63.9766C390.837 63.8672 390.72 63.8125 390.595 63.8125C390.465 63.8125 390.4 63.9089 390.4 64.1016ZM397.431 77.7734C397.27 77.7839 397.163 77.8229 397.111 77.8906C397.064 77.9583 397.041 78.0703 397.041 78.2266C397.041 78.3776 397.064 78.4896 397.111 78.5625C397.163 78.6302 397.27 78.6641 397.431 78.6641V77.7734ZM397.041 71.4062C397.041 70.9792 396.78 70.5573 396.259 70.1406V69.4531C396.259 68.6719 396.754 68.2812 397.744 68.2812H399.384V69.8438H398.056V69.9375C398.681 70.3542 398.994 70.8438 398.994 71.4062V78.2422C398.994 78.8568 398.858 79.3047 398.587 79.5859C398.317 79.862 397.931 80 397.431 80C396.931 80 396.546 79.862 396.275 79.5859C396.004 79.3047 395.869 78.8568 395.869 78.2422C395.869 77.6276 395.965 77.1823 396.158 76.9062C396.35 76.625 396.645 76.4688 397.041 76.4375V71.4062ZM410.166 75.2031C410.166 75.0521 410.113 74.9766 410.009 74.9766C409.905 74.9766 409.853 75.0547 409.853 75.2109C409.853 75.4089 409.957 75.5182 410.166 75.5391V75.2031ZM410.244 76.5391V76.875C410.244 78.9583 409.202 80 407.119 80C405.035 80 403.994 78.9583 403.994 76.875V75.3125H405.947V76.875C405.947 77.9167 406.337 78.4375 407.119 78.4375C407.9 78.4375 408.291 77.9167 408.291 76.875V76.2266C404.697 74.9297 402.9 73.3229 402.9 71.4062C402.9 69.3229 404.306 68.2812 407.119 68.2812C409.931 68.2812 411.337 69.3229 411.337 71.4062C411.337 72.8594 410.509 73.5859 408.853 73.5859C408.4 73.5859 408.03 73.4792 407.744 73.2656V71.6016C408.379 71.7891 408.785 71.8828 408.962 71.8828C409.244 71.8828 409.384 71.724 409.384 71.4062C409.384 70.3646 408.629 69.8438 407.119 69.8438C405.608 69.8438 404.853 70.3646 404.853 71.4062C404.853 73.0521 405.999 74.1536 408.291 74.7109C408.291 74.2786 408.759 74.0625 409.697 74.0625C410.791 74.0625 411.337 74.388 411.337 75.0391C411.337 75.6276 411.231 76.0182 411.017 76.2109C410.809 76.4036 410.551 76.513 410.244 76.5391ZM405.478 64.4141C405.478 64.7005 405.738 64.8438 406.259 64.8438H409.775C408.738 64.2708 407.827 63.9844 407.041 63.9844C405.999 63.9844 405.478 64.1276 405.478 64.4141ZM409.931 63.4453V61.6406H411.337V65.9375H405.869C404.567 65.9375 403.916 65.4167 403.916 64.375C403.916 63.0729 404.957 62.4219 407.041 62.4219C408.067 62.4219 409.03 62.763 409.931 63.4453ZM420.962 78.9062C421.087 78.9062 421.171 78.8802 421.212 78.8281C421.254 78.7708 421.275 78.7083 421.275 78.6406C421.275 78.5729 421.257 78.5182 421.22 78.4766C421.179 78.4193 421.093 78.3906 420.962 78.3906V78.9062ZM419.4 71.3438C419.4 69.3021 420.483 68.2812 422.65 68.2812C424.103 68.2812 424.947 68.5573 425.181 69.1094C425.416 68.5573 426.264 68.2812 427.728 68.2812C429.884 68.2812 430.962 69.3229 430.962 71.4062V80H429.009V71.4062C429.009 70.3646 428.535 69.8438 427.587 69.8438C426.634 69.8438 426.158 70.3646 426.158 71.4062V80H424.205V71.4062C424.205 70.3646 423.731 69.8438 422.783 69.8438C421.83 69.8438 421.353 70.3438 421.353 71.3438H421.345L421.353 77.2891C421.77 77.3047 422.093 77.4635 422.322 77.7656C422.509 77.9948 422.603 78.2839 422.603 78.6328C422.603 78.9818 422.491 79.2969 422.267 79.5781C422.043 79.8594 421.608 80 420.962 80C420.369 80 419.96 79.8594 419.736 79.5781C419.512 79.2969 419.4 78.9818 419.4 78.6328L419.392 71.3438H419.4Z" fill="#1C4076"/>
</svg>
