<svg width="447" height="66" viewBox="0 0 447 66" fill="none" xmlns="http://www.w3.org/2000/svg">
<rect x="209" y="48" width="31" height="18" rx="3" fill="#F07D03"/>
<path d="M218.303 61.0994C217.756 61.0994 217.269 61.0107 216.843 60.8331C216.419 60.6532 216.087 60.4081 215.845 60.098C215.604 59.7879 215.483 59.4363 215.483 59.0433C215.483 58.7403 215.552 58.4621 215.689 58.2088C215.829 57.9531 216.018 57.7412 216.257 57.5732C216.496 57.4027 216.764 57.2938 217.06 57.2464V57.1967C216.671 57.1186 216.357 56.9304 216.115 56.6321C215.874 56.3314 215.753 55.9822 215.753 55.5845C215.753 55.2081 215.863 54.8731 216.083 54.5795C216.303 54.2836 216.605 54.0516 216.989 53.8835C217.375 53.7131 217.812 53.6278 218.303 53.6278C218.793 53.6278 219.229 53.7131 219.613 53.8835C219.999 54.054 220.302 54.2872 220.522 54.5831C220.742 54.8767 220.853 55.2105 220.856 55.5845C220.853 55.9846 220.73 56.3338 220.487 56.6321C220.243 56.9304 219.93 57.1186 219.549 57.1967V57.2464C219.84 57.2938 220.104 57.4027 220.341 57.5732C220.58 57.7412 220.769 57.9531 220.909 58.2088C221.051 58.4621 221.123 58.7403 221.126 59.0433C221.123 59.4363 221.001 59.7879 220.76 60.098C220.518 60.4081 220.185 60.6532 219.759 60.8331C219.335 61.0107 218.849 61.0994 218.303 61.0994ZM218.303 59.9702C218.546 59.9702 218.759 59.9264 218.942 59.8388C219.124 59.7488 219.266 59.6257 219.368 59.4695C219.472 59.3108 219.524 59.1286 219.524 58.9226C219.524 58.7119 219.471 58.526 219.364 58.3651C219.258 58.2017 219.113 58.0739 218.931 57.9815C218.749 57.8868 218.539 57.8395 218.303 57.8395C218.068 57.8395 217.859 57.8868 217.674 57.9815C217.489 58.0739 217.344 58.2017 217.237 58.3651C217.133 58.526 217.081 58.7119 217.081 58.9226C217.081 59.1286 217.132 59.3108 217.234 59.4695C217.335 59.6257 217.479 59.7488 217.663 59.8388C217.848 59.9264 218.061 59.9702 218.303 59.9702ZM218.303 56.7209C218.506 56.7209 218.687 56.6795 218.846 56.5966C219.004 56.5137 219.129 56.3989 219.219 56.2521C219.309 56.1054 219.354 55.9361 219.354 55.7443C219.354 55.5549 219.309 55.3892 219.219 55.2472C219.129 55.1027 219.006 54.9903 218.849 54.9098C218.693 54.8269 218.511 54.7855 218.303 54.7855C218.097 54.7855 217.914 54.8269 217.756 54.9098C217.597 54.9903 217.473 55.1027 217.383 55.2472C217.295 55.3892 217.251 55.5549 217.251 55.7443C217.251 55.9361 217.296 56.1054 217.386 56.2521C217.476 56.3989 217.601 56.5137 217.759 56.5966C217.918 56.6795 218.099 56.7209 218.303 56.7209ZM222.215 63.0455V55.5455H223.706V56.4616H223.774C223.84 56.3149 223.936 56.1657 224.062 56.0142C224.189 55.8603 224.355 55.7325 224.559 55.6307C224.765 55.5265 225.02 55.4744 225.326 55.4744C225.724 55.4744 226.09 55.5786 226.427 55.7869C226.763 55.9929 227.032 56.3042 227.233 56.7209C227.434 57.1352 227.535 57.6548 227.535 58.2798C227.535 58.8883 227.436 59.402 227.24 59.821C227.046 60.2377 226.781 60.5537 226.444 60.7692C226.111 60.9822 225.737 61.0888 225.322 61.0888C225.029 61.0888 224.779 61.0402 224.573 60.9432C224.369 60.8461 224.202 60.7242 224.072 60.5774C223.942 60.4283 223.843 60.2779 223.774 60.1264H223.728V63.0455H222.215ZM223.696 58.2727C223.696 58.5971 223.741 58.88 223.831 59.1214C223.921 59.3629 224.051 59.5511 224.221 59.6861C224.392 59.8187 224.599 59.8849 224.843 59.8849C225.089 59.8849 225.297 59.8175 225.468 59.6825C225.638 59.5452 225.767 59.3558 225.855 59.1143C225.945 58.8705 225.99 58.59 225.99 58.2727C225.99 57.9579 225.946 57.6809 225.858 57.4418C225.771 57.2027 225.642 57.0156 225.471 56.8807C225.301 56.7457 225.091 56.6783 224.843 56.6783C224.597 56.6783 224.388 56.7434 224.218 56.8736C224.05 57.0038 223.921 57.1884 223.831 57.4276C223.741 57.6667 223.696 57.9484 223.696 58.2727ZM229.612 55.5455L230.613 57.4524L231.64 55.5455H233.192L231.611 58.2727L233.234 61H231.689L230.613 59.1143L229.555 61H227.993L229.612 58.2727L228.05 55.5455H229.612Z" fill="white"/>
<rect x="216.5" y="5" width="8" height="28" fill="#EE7D22" fill-opacity="0.24"/>
<path d="M216.5 43.5H224.5" stroke="#F07D03"/>
<line x1="217" y1="47" x2="217" y2="40" stroke="#F07D03"/>
<line x1="225" y1="47" x2="225" y2="40" stroke="#F07D03"/>
<path d="M33 16.3828C33.0365 16.3932 33.0729 16.3984 33.1094 16.3984C33.2448 16.3984 33.3125 16.2917 33.3125 16.0781C33.3125 15.8698 33.2604 15.7656 33.1562 15.7656C33.0521 15.7656 33 15.8672 33 16.0703V16.3828ZM33 17.0859V17.875C33 19.9583 32.0625 21 30.1875 21C28.3125 21 27.375 19.9583 27.375 17.875V16.3125H28.7031V17.875C28.7031 19.1771 29.1979 19.8281 30.1875 19.8281C31.1771 19.8281 31.6719 19.1771 31.6719 17.875V16.8984C28.0781 15.862 26.2812 14.3646 26.2812 12.4062C26.2812 10.3229 27.5833 9.28125 30.1875 9.28125C32.7917 9.28125 34.0938 10.3229 34.0938 12.4062C34.0938 13.8594 33.3698 14.5859 31.9219 14.5859C31.5938 14.5859 31.3281 14.5104 31.125 14.3594V13.1875C31.4948 13.2969 31.7969 13.3516 32.0312 13.3516C32.5208 13.3516 32.7656 13.0365 32.7656 12.4062C32.7656 11.1042 31.9062 10.4531 30.1875 10.4531C28.4688 10.4531 27.6094 11.1042 27.6094 12.4062C27.6094 14.0156 28.9635 15.1484 31.6719 15.8047C31.6719 15.3099 32.0365 15.0625 32.7656 15.0625C33.651 15.0625 34.0938 15.388 34.0938 16.0391C34.0938 16.4297 34.0052 16.7057 33.8281 16.8672C33.651 17.0286 33.4609 17.1094 33.2578 17.1094C33.1745 17.1094 33.0885 17.1016 33 17.0859ZM29.7969 5.17969C29.7969 5.3724 29.8464 5.51823 29.9453 5.61719C30.0443 5.71615 30.1901 5.76562 30.3828 5.76562C30.5807 5.76562 30.7292 5.71615 30.8281 5.61719C30.9219 5.51823 30.9688 5.3724 30.9688 5.17969C30.9688 4.98177 30.9219 4.83594 30.8281 4.74219C30.7292 4.64323 30.5807 4.59375 30.3828 4.59375C30.1901 4.59375 30.0443 4.64323 29.9453 4.74219C29.8464 4.83594 29.7969 4.98177 29.7969 5.17969ZM32.1406 5.17969C32.1406 5.76823 31.9948 6.20833 31.7031 6.5C31.4115 6.79167 30.9714 6.9375 30.3828 6.9375C29.7943 6.9375 29.3542 6.79167 29.0625 6.5C28.7708 6.20833 28.625 5.76823 28.625 5.17969C28.625 4.59115 28.7708 4.15104 29.0625 3.85938C29.3542 3.56771 29.7943 3.42188 30.3828 3.42188C30.9714 3.42188 31.4115 3.56771 31.7031 3.85938C31.9948 4.15104 32.1406 4.59115 32.1406 5.17969ZM39.1719 18.6562V19.8281C39.2812 19.8281 39.3724 19.7995 39.4453 19.7422C39.5234 19.6797 39.5625 19.513 39.5625 19.2422C39.5625 18.9714 39.5234 18.8073 39.4453 18.75C39.3724 18.6875 39.2812 18.6562 39.1719 18.6562ZM38 11.625L40.0312 9.28125L41.9062 10.8438L43.7812 9.28125L45.8125 11.625V21H44.4844V11.9375L43.7031 10.9609L41.9062 12.25L40.1094 10.9609L39.3281 11.9375V17.5625C39.4479 17.5104 39.5859 17.4844 39.7422 17.4844C39.8984 17.4844 40.0625 17.625 40.2344 17.9062C40.4115 18.1823 40.5 18.6276 40.5 19.2422C40.5 19.8568 40.3854 20.3047 40.1562 20.5859C39.9323 20.862 39.6302 21 39.25 21C38.8698 21 38.5677 20.8594 38.3438 20.5781C38.1667 20.3646 38.0573 20.0495 38.0156 19.6328H38V11.625ZM42.6875 5.25781C42.6875 5.59635 43.1432 5.76562 44.0547 5.76562C45.2266 5.76562 45.8125 5.11458 45.8125 3.8125V2.79688H46.9844V3.8125C46.9844 5.89583 46.0078 6.9375 44.0547 6.9375C42.362 6.9375 41.5156 6.3776 41.5156 5.25781C41.5156 4.29427 41.9271 3.8125 42.75 3.8125C43.2344 3.8125 43.6042 3.88802 43.8594 4.03906L43.625 4.97656C43.4115 4.86719 43.2161 4.8125 43.0391 4.8125C42.8047 4.8125 42.6875 4.96094 42.6875 5.25781ZM49.7188 19.8281V18.6562H49.5234C49.4661 18.6562 49.4193 18.6823 49.3828 18.7344C49.3464 18.7812 49.3281 18.9505 49.3281 19.2422C49.3281 19.5339 49.3464 19.7057 49.3828 19.7578C49.4193 19.8047 49.4661 19.8281 49.5234 19.8281H49.7188ZM51.0469 12.4062V19.2422C51.0469 19.9089 50.9583 20.3698 50.7812 20.625C50.6094 20.875 50.2812 21 49.7969 21C49.3125 21 48.9818 20.875 48.8047 20.625C48.6328 20.3698 48.5469 19.9089 48.5469 19.2422C48.5469 18.5755 48.6328 18.1172 48.8047 17.8672C48.9818 17.612 49.2214 17.4844 49.5234 17.4844C49.5911 17.4844 49.6562 17.4896 49.7188 17.5V12.4062C49.6146 12.0417 49.3542 11.651 48.9375 11.2344V10.4531C48.9375 9.67188 49.3281 9.28125 50.1094 9.28125H51.4375V10.4531H50.5C50.2396 10.4531 50.1094 10.5833 50.1094 10.8438C50.7344 11.2604 51.0469 11.7812 51.0469 12.4062ZM56.4766 19.8281C56.5339 19.8281 56.5807 19.8047 56.6172 19.7578C56.6536 19.7057 56.6719 19.5339 56.6719 19.2422C56.6719 18.9505 56.6536 18.7812 56.6172 18.7344C56.5807 18.6823 56.5339 18.6562 56.4766 18.6562H56.2812V19.8281H56.4766ZM56.2812 17.5C56.3438 17.4896 56.4089 17.4844 56.4766 17.4844C56.7786 17.4844 57.0156 17.612 57.1875 17.8672C57.3646 18.1172 57.4531 18.5755 57.4531 19.2422C57.4531 19.9089 57.3646 20.3698 57.1875 20.625C57.0156 20.875 56.6875 21 56.2031 21C55.7188 21 55.388 20.875 55.2109 20.625C55.0391 20.3698 54.9531 19.9089 54.9531 19.2422V12.4062C54.849 12.0417 54.5885 11.651 54.1719 11.2344V10.4531C54.1719 9.67188 54.5625 9.28125 55.3438 9.28125H56.6719V10.4531H55.7344C55.474 10.4531 55.3438 10.5833 55.3438 10.8438C55.9688 11.2604 56.2812 11.7812 56.2812 12.4062V17.5ZM60.1875 12.4062H61.5156V19.4375L64.0938 17.0938L66.6719 19.4375V12.4062H68V21H66.8281L64.0938 18.6562L61.3594 21H60.1875V12.4062ZM61.5156 10.5234C61.5156 10.737 62.375 10.8438 64.0938 10.8438C65.8125 10.8438 66.6719 10.3229 66.6719 9.28125V8.10938H68V9.28125C68 11.1042 66.6979 12.0156 64.0938 12.0156C61.4896 12.0156 60.1875 11.5208 60.1875 10.5312C60.1875 9.69792 60.6198 9.28125 61.4844 9.28125C62.0312 9.28125 62.4062 9.35677 62.6094 9.50781V10.5234C62.2396 10.4141 61.9661 10.3594 61.7891 10.3594C61.6068 10.3594 61.5156 10.4141 61.5156 10.5234ZM63.3125 5.92188H66.8281C65.5312 5.03646 64.4896 4.59375 63.7031 4.59375C62.6615 4.59375 62.1406 4.8151 62.1406 5.25781C62.1406 5.70052 62.5312 5.92188 63.3125 5.92188ZM66.8281 4.63281V2.64062H68V6.9375H62.9219C61.6198 6.9375 60.9688 6.41667 60.9688 5.375C60.9688 4.07292 61.8802 3.42188 63.7031 3.42188C64.7448 3.42188 65.7214 3.77344 66.6328 4.47656C66.7005 4.52865 66.7656 4.58073 66.8281 4.63281ZM73.2344 15.5312V17.0938C73.2344 18.9167 74.0938 19.8281 75.8125 19.8281C77.5312 19.8281 78.3906 18.9167 78.3906 17.0938V15.5312H73.2344ZM73.2344 14.3594H78.3906V12.4062C78.3906 12.0417 78.1302 11.651 77.6094 11.2344V10.4531C77.6094 9.67188 78 9.28125 78.7812 9.28125H80.1094V10.4531H79.1719C78.9115 10.4531 78.7812 10.5833 78.7812 10.8438C79.4062 11.2604 79.7188 11.7812 79.7188 12.4062V17.0938C79.7188 19.6979 78.4167 21 75.8125 21C73.2083 21 71.9062 19.6979 71.9062 17.0938V12.4062C71.9062 12.0417 71.6458 11.651 71.125 11.2344V10.4531C71.125 9.67188 71.5156 9.28125 72.2969 9.28125H73.625V10.4531H72.6875C72.4271 10.4531 72.2969 10.5833 72.2969 10.8438C72.9219 11.2604 73.2344 11.7812 73.2344 12.4062V14.3594Z" fill="#1C4076"/>
<path d="M8.75407 7.33964C8.55406 7.12217 8.28282 7 8 7C7.71718 7 7.44594 7.12217 7.24593 7.33964L0.156394 15.0492C0.106811 15.1031 0.0674796 15.1671 0.0406455 15.2376C0.0138113 15.308 0 15.3836 0 15.4598C0 15.5361 0.0138113 15.6116 0.0406455 15.6821C0.0674796 15.7525 0.106811 15.8165 0.156394 15.8705C0.256531 15.9794 0.392347 16.0406 0.533962 16.0406C0.604083 16.0406 0.673517 16.0256 0.7383 15.9964C0.803084 15.9672 0.861947 15.9244 0.91153 15.8705L1.60054 15.1199V21.26C1.60054 21.7214 1.7691 22.164 2.06913 22.4904C2.36916 22.8167 2.77609 23 3.2004 23H12.7996C13.2239 23 13.6308 22.8167 13.9309 22.4904C14.2309 22.164 14.3995 21.7214 14.3995 21.26V15.1199L15.0885 15.8705C15.1886 15.9794 15.3244 16.0406 15.466 16.0406C15.6077 16.0406 15.7435 15.9794 15.8436 15.8705C15.9437 15.7616 16 15.6139 16 15.4598C16 15.3058 15.9437 15.1581 15.8436 15.0492L13.3329 12.3196V8.49967C13.3329 8.34584 13.2767 8.19831 13.1767 8.08954C13.0767 7.98076 12.941 7.91965 12.7996 7.91965H11.733C11.5916 7.91965 11.4559 7.98076 11.3559 8.08954C11.2559 8.19831 11.1997 8.34584 11.1997 8.49967V9.99958L8.75407 7.33964ZM13.3329 13.9599V21.26C13.3329 21.4138 13.2767 21.5613 13.1767 21.6701C13.0767 21.7789 12.941 21.84 12.7996 21.84H3.2004C3.05897 21.84 2.92332 21.7789 2.82331 21.6701C2.7233 21.5613 2.66712 21.4138 2.66712 21.26V13.9599L8 8.15978L13.3329 13.9599Z" fill="#1C4076"/>
<path fill-rule="evenodd" clip-rule="evenodd" d="M90.1525 9.40253C90.2008 9.35418 90.258 9.31582 90.3211 9.28965C90.3842 9.26347 90.4518 9.25 90.5201 9.25C90.5884 9.25 90.656 9.26347 90.7191 9.28965C90.7822 9.31582 90.8394 9.35418 90.8877 9.40253L97.1177 15.6326C97.1661 15.6808 97.2044 15.7381 97.2306 15.8012C97.2568 15.8642 97.2702 15.9318 97.2702 16.0001C97.2702 16.0684 97.2568 16.136 97.2306 16.1991C97.2044 16.2622 97.1661 16.3195 97.1177 16.3677L90.8877 22.5977C90.7902 22.6952 90.658 22.75 90.5201 22.75C90.3822 22.75 90.25 22.6952 90.1525 22.5977C90.055 22.5003 90.0003 22.368 90.0003 22.2302C90.0003 22.0923 90.055 21.9601 90.1525 21.8626L96.016 16.0001L90.1525 10.1377C90.1042 10.0894 90.0658 10.0322 90.0396 9.96908C90.0135 9.906 90 9.83839 90 9.7701C90 9.70181 90.0135 9.63419 90.0396 9.57112C90.0658 9.50804 90.1042 9.45075 90.1525 9.40253Z" fill="#344054"/>
<path d="M108.747 19.8281C108.804 19.8281 108.851 19.8047 108.887 19.7578C108.924 19.7057 108.942 19.5339 108.942 19.2422C108.942 18.9505 108.924 18.7812 108.887 18.7344C108.851 18.6823 108.804 18.6562 108.747 18.6562H108.552V19.8281H108.747ZM108.552 17.5C108.614 17.4896 108.679 17.4844 108.747 17.4844C109.049 17.4844 109.286 17.612 109.458 17.8672C109.635 18.1172 109.723 18.5755 109.723 19.2422C109.723 19.9089 109.635 20.3698 109.458 20.625C109.286 20.875 108.958 21 108.473 21C107.989 21 107.658 20.875 107.481 20.625C107.309 20.3698 107.223 19.9089 107.223 19.2422V12.4062C107.119 12.0417 106.859 11.651 106.442 11.2344V10.4531C106.442 9.67188 106.833 9.28125 107.614 9.28125H108.942V10.4531H108.005C107.744 10.4531 107.614 10.5833 107.614 10.8438C108.239 11.2604 108.552 11.7812 108.552 12.4062V17.5ZM113.63 18.6562V19.8281C113.739 19.8281 113.83 19.7995 113.903 19.7422C113.981 19.6797 114.02 19.513 114.02 19.2422C114.02 18.9714 113.981 18.8073 113.903 18.75C113.83 18.6875 113.739 18.6562 113.63 18.6562ZM113.786 17.5625C113.906 17.5104 114.044 17.4844 114.2 17.4844C114.356 17.4844 114.52 17.625 114.692 17.9062C114.869 18.1823 114.958 18.6276 114.958 19.2422C114.958 19.8568 114.843 20.3047 114.614 20.5859C114.39 20.862 114.088 21 113.708 21C113.328 21 113.025 20.8594 112.802 20.5781C112.624 20.3646 112.515 20.0495 112.473 19.6328H112.458V13.1875C112.458 10.5833 113.499 9.28125 115.583 9.28125C117.848 9.28125 118.981 10.5833 118.981 13.1875V17.0938C118.981 18.9167 119.671 19.8281 121.052 19.8281C122.432 19.8281 123.122 18.9167 123.122 17.0938V12.4062C123.122 12.0417 122.861 11.651 122.341 11.2344V10.4531C122.341 9.67188 122.731 9.28125 123.512 9.28125H124.841V10.4531H123.903C123.643 10.4531 123.512 10.5833 123.512 10.8438C124.137 11.2604 124.45 11.7812 124.45 12.4062V17.0938C124.45 18.9167 125.14 19.8281 126.52 19.8281C127.718 19.8281 128.317 18.9167 128.317 17.0938V12.4062C128.317 12.0417 128.057 11.651 127.536 11.2344V10.4531C127.536 9.67188 127.927 9.28125 128.708 9.28125H130.036V10.4531H129.098C128.838 10.4531 128.708 10.5833 128.708 10.8438C129.333 11.2604 129.645 11.7812 129.645 12.4062V17.0938C129.645 19.6979 128.604 21 126.52 21C125.218 21 124.307 20.4219 123.786 19.2656C123.265 20.4219 122.354 21 121.052 21C118.786 21 117.653 19.6979 117.653 17.0938V13.1875C117.653 11.3646 116.963 10.4531 115.583 10.4531C114.385 10.4531 113.786 11.3646 113.786 13.1875V17.5625ZM128.473 24.125C128.473 24.3854 128.552 24.5156 128.708 24.5156C128.864 24.5156 128.968 24.4948 129.02 24.4531C129.072 24.4167 129.098 24.3698 129.098 24.3125C129.098 24.2552 129.067 24.2109 129.005 24.1797C128.937 24.1536 128.838 24.1354 128.708 24.125H128.473ZM128.473 23.1094H128.966C129.341 23.1094 129.614 23.2005 129.786 23.3828C129.953 23.5651 130.036 23.9089 130.036 24.4141C130.036 24.7682 129.945 25.0286 129.762 25.1953C129.58 25.3672 129.281 25.4531 128.864 25.4531C127.927 25.4531 127.458 25.0495 127.458 24.2422V24.125H125.544C124.57 24.125 123.593 23.8125 122.614 23.1875L123.005 22.3281C123.854 22.849 124.7 23.1094 125.544 23.1094H127.458V21.7812H128.473V23.1094ZM129.645 9.28125H131.208C133.291 9.28125 134.333 10.3229 134.333 12.4062V21H133.005V12.4062C133.005 11.1042 132.406 10.4531 131.208 10.4531H129.645V9.28125ZM139.411 11.4297C139.411 11.6224 139.46 11.7682 139.559 11.8672C139.658 11.9661 139.804 12.0156 139.997 12.0156C140.195 12.0156 140.341 11.9661 140.434 11.8672C140.533 11.7682 140.583 11.6224 140.583 11.4297C140.583 11.2318 140.533 11.0859 140.434 10.9922C140.341 10.8932 140.195 10.8438 139.997 10.8438C139.804 10.8438 139.658 10.8932 139.559 10.9922C139.46 11.0859 139.411 11.2318 139.411 11.4297ZM141.755 11.4297C141.755 12.0182 141.609 12.4583 141.317 12.75C141.025 13.0417 140.585 13.1875 139.997 13.1875C139.408 13.1875 138.968 13.0417 138.677 12.75C138.385 12.4583 138.239 12.0182 138.239 11.4297C138.239 10.8411 138.385 10.401 138.677 10.1094C138.968 9.81771 139.408 9.67188 139.997 9.67188C140.585 9.67188 141.025 9.81771 141.317 10.1094C141.609 10.401 141.755 10.8411 141.755 11.4297ZM139.411 18.8516C139.411 19.0443 139.46 19.1901 139.559 19.2891C139.658 19.388 139.804 19.4375 139.997 19.4375C140.195 19.4375 140.341 19.388 140.434 19.2891C140.533 19.1901 140.583 19.0443 140.583 18.8516C140.583 18.6536 140.533 18.5078 140.434 18.4141C140.341 18.3151 140.195 18.2656 139.997 18.2656C139.804 18.2656 139.658 18.3151 139.559 18.4141C139.46 18.5078 139.411 18.6536 139.411 18.8516ZM141.755 18.8516C141.755 19.4401 141.609 19.8802 141.317 20.1719C141.025 20.4635 140.585 20.6094 139.997 20.6094C139.408 20.6094 138.968 20.4635 138.677 20.1719C138.385 19.8802 138.239 19.4401 138.239 18.8516C138.239 18.263 138.385 17.8229 138.677 17.5312C138.968 17.2396 139.408 17.0938 139.997 17.0938C140.585 17.0938 141.025 17.2396 141.317 17.5312C141.609 17.8229 141.755 18.263 141.755 18.8516ZM152.38 16.3828C152.416 16.3932 152.453 16.3984 152.489 16.3984C152.624 16.3984 152.692 16.2917 152.692 16.0781C152.692 15.8698 152.64 15.7656 152.536 15.7656C152.432 15.7656 152.38 15.8672 152.38 16.0703V16.3828ZM152.38 17.0859V17.875C152.38 19.9583 151.442 21 149.567 21C147.692 21 146.755 19.9583 146.755 17.875V16.3125H148.083V17.875C148.083 19.1771 148.578 19.8281 149.567 19.8281C150.557 19.8281 151.052 19.1771 151.052 17.875V16.8984C147.458 15.862 145.661 14.3646 145.661 12.4062C145.661 10.3229 146.963 9.28125 149.567 9.28125C152.171 9.28125 153.473 10.3229 153.473 12.4062C153.473 13.8594 152.749 14.5859 151.302 14.5859C150.973 14.5859 150.708 14.5104 150.505 14.3594V13.1875C150.874 13.2969 151.177 13.3516 151.411 13.3516C151.9 13.3516 152.145 13.0365 152.145 12.4062C152.145 11.1042 151.286 10.4531 149.567 10.4531C147.848 10.4531 146.989 11.1042 146.989 12.4062C146.989 14.0156 148.343 15.1484 151.052 15.8047C151.052 15.3099 151.416 15.0625 152.145 15.0625C153.031 15.0625 153.473 15.388 153.473 16.0391C153.473 16.4297 153.385 16.7057 153.208 16.8672C153.031 17.0286 152.841 17.1094 152.637 17.1094C152.554 17.1094 152.468 17.1016 152.38 17.0859ZM149.177 5.17969C149.177 5.3724 149.226 5.51823 149.325 5.61719C149.424 5.71615 149.57 5.76562 149.762 5.76562C149.96 5.76562 150.109 5.71615 150.208 5.61719C150.302 5.51823 150.348 5.3724 150.348 5.17969C150.348 4.98177 150.302 4.83594 150.208 4.74219C150.109 4.64323 149.96 4.59375 149.762 4.59375C149.57 4.59375 149.424 4.64323 149.325 4.74219C149.226 4.83594 149.177 4.98177 149.177 5.17969ZM151.52 5.17969C151.52 5.76823 151.374 6.20833 151.083 6.5C150.791 6.79167 150.351 6.9375 149.762 6.9375C149.174 6.9375 148.734 6.79167 148.442 6.5C148.15 6.20833 148.005 5.76823 148.005 5.17969C148.005 4.59115 148.15 4.15104 148.442 3.85938C148.734 3.56771 149.174 3.42188 149.762 3.42188C150.351 3.42188 150.791 3.56771 151.083 3.85938C151.374 4.15104 151.52 4.59115 151.52 5.17969ZM158.552 18.6562V19.8281C158.661 19.8281 158.752 19.7995 158.825 19.7422C158.903 19.6797 158.942 19.513 158.942 19.2422C158.942 18.9714 158.903 18.8073 158.825 18.75C158.752 18.6875 158.661 18.6562 158.552 18.6562ZM157.38 11.625L159.411 9.28125L161.286 10.8438L163.161 9.28125L165.192 11.625V21H163.864V11.9375L163.083 10.9609L161.286 12.25L159.489 10.9609L158.708 11.9375V17.5625C158.828 17.5104 158.966 17.4844 159.122 17.4844C159.278 17.4844 159.442 17.625 159.614 17.9062C159.791 18.1823 159.88 18.6276 159.88 19.2422C159.88 19.8568 159.765 20.3047 159.536 20.5859C159.312 20.862 159.01 21 158.63 21C158.249 21 157.947 20.8594 157.723 20.5781C157.546 20.3646 157.437 20.0495 157.395 19.6328H157.38V11.625ZM162.067 5.25781C162.067 5.59635 162.523 5.76562 163.434 5.76562C164.606 5.76562 165.192 5.11458 165.192 3.8125V2.79688H166.364V3.8125C166.364 5.89583 165.387 6.9375 163.434 6.9375C161.742 6.9375 160.895 6.3776 160.895 5.25781C160.895 4.29427 161.307 3.8125 162.13 3.8125C162.614 3.8125 162.984 3.88802 163.239 4.03906L163.005 4.97656C162.791 4.86719 162.596 4.8125 162.419 4.8125C162.184 4.8125 162.067 4.96094 162.067 5.25781ZM169.098 19.8281V18.6562H168.903C168.846 18.6562 168.799 18.6823 168.762 18.7344C168.726 18.7812 168.708 18.9505 168.708 19.2422C168.708 19.5339 168.726 19.7057 168.762 19.7578C168.799 19.8047 168.846 19.8281 168.903 19.8281H169.098ZM170.427 12.4062V19.2422C170.427 19.9089 170.338 20.3698 170.161 20.625C169.989 20.875 169.661 21 169.177 21C168.692 21 168.361 20.875 168.184 20.625C168.012 20.3698 167.927 19.9089 167.927 19.2422C167.927 18.5755 168.012 18.1172 168.184 17.8672C168.361 17.612 168.601 17.4844 168.903 17.4844C168.971 17.4844 169.036 17.4896 169.098 17.5V12.4062C168.994 12.0417 168.734 11.651 168.317 11.2344V10.4531C168.317 9.67188 168.708 9.28125 169.489 9.28125H170.817V10.4531H169.88C169.619 10.4531 169.489 10.5833 169.489 10.8438C170.114 11.2604 170.427 11.7812 170.427 12.4062ZM181.052 16.3828C181.088 16.3932 181.124 16.3984 181.161 16.3984C181.296 16.3984 181.364 16.2917 181.364 16.0781C181.364 15.8698 181.312 15.7656 181.208 15.7656C181.104 15.7656 181.052 15.8672 181.052 16.0703V16.3828ZM181.052 17.0859V17.875C181.052 19.9583 180.114 21 178.239 21C176.364 21 175.427 19.9583 175.427 17.875V16.3125H176.755V17.875C176.755 19.1771 177.249 19.8281 178.239 19.8281C179.229 19.8281 179.723 19.1771 179.723 17.875V16.8984C176.13 15.862 174.333 14.3646 174.333 12.4062C174.333 10.3229 175.635 9.28125 178.239 9.28125C180.843 9.28125 182.145 10.3229 182.145 12.4062C182.145 13.8594 181.421 14.5859 179.973 14.5859C179.645 14.5859 179.38 14.5104 179.177 14.3594V13.1875C179.546 13.2969 179.848 13.3516 180.083 13.3516C180.572 13.3516 180.817 13.0365 180.817 12.4062C180.817 11.1042 179.958 10.4531 178.239 10.4531C176.52 10.4531 175.661 11.1042 175.661 12.4062C175.661 14.0156 177.015 15.1484 179.723 15.8047C179.723 15.3099 180.088 15.0625 180.817 15.0625C181.703 15.0625 182.145 15.388 182.145 16.0391C182.145 16.4297 182.057 16.7057 181.88 16.8672C181.703 17.0286 181.512 17.1094 181.309 17.1094C181.226 17.1094 181.14 17.1016 181.052 17.0859ZM177.458 5.92188H180.973C179.677 5.03646 178.635 4.59375 177.848 4.59375C176.807 4.59375 176.286 4.8151 176.286 5.25781C176.286 5.70052 176.677 5.92188 177.458 5.92188ZM180.973 4.63281V2.64062H182.145V6.9375H177.067C175.765 6.9375 175.114 6.41667 175.114 5.375C175.114 4.07292 176.025 3.42188 177.848 3.42188C178.89 3.42188 179.867 3.77344 180.778 4.47656C180.846 4.52865 180.911 4.58073 180.973 4.63281ZM193.723 19.8281C195.703 19.8281 196.692 18.1354 196.692 14.75C196.692 11.8854 195.833 10.4531 194.114 10.4531C192.395 10.4531 191.536 11.3646 191.536 13.1875C191.536 13.5052 191.596 13.7865 191.716 14.0312C191.841 14.2708 192.101 14.3906 192.497 14.3906C192.872 14.3906 193.109 14.3359 193.208 14.2266C193.286 14.138 193.325 14.0521 193.325 13.9688C193.325 13.9427 193.322 13.9193 193.317 13.8984C193.291 13.7891 193.249 13.7344 193.192 13.7344C193.135 13.7344 192.981 13.8203 192.731 13.9922L192.387 13.0938C192.752 12.8281 193.08 12.6953 193.372 12.6953C193.69 12.6953 193.937 12.7891 194.114 12.9766C194.291 13.1641 194.38 13.4922 194.38 13.9609C194.38 14.2214 194.312 14.5 194.177 14.7969C194.046 15.0938 193.828 15.3047 193.52 15.4297C193.213 15.5495 192.893 15.6094 192.559 15.6094C192.169 15.6094 191.804 15.5521 191.466 15.4375C191.132 15.3229 190.838 15.0885 190.583 14.7344C190.333 14.375 190.208 13.8594 190.208 13.1875C190.208 10.5833 191.51 9.28125 194.114 9.28125C196.718 9.28125 198.02 11.1042 198.02 14.75C198.02 18.9167 196.588 21 193.723 21C192.656 21 191.718 20.7135 190.911 20.1406L191.302 19.0469C191.874 19.5677 192.682 19.8281 193.723 19.8281Z" fill="#1C4076"/>
<path fill-rule="evenodd" clip-rule="evenodd" d="M208.423 9.40253C208.471 9.35418 208.528 9.31582 208.591 9.28965C208.654 9.26347 208.722 9.25 208.79 9.25C208.859 9.25 208.926 9.26347 208.989 9.28965C209.052 9.31582 209.11 9.35418 209.158 9.40253L215.388 15.6326C215.436 15.6808 215.475 15.7381 215.501 15.8012C215.527 15.8642 215.54 15.9318 215.54 16.0001C215.54 16.0684 215.527 16.136 215.501 16.1991C215.475 16.2622 215.436 16.3195 215.388 16.3677L209.158 22.5977C209.06 22.6952 208.928 22.75 208.79 22.75C208.652 22.75 208.52 22.6952 208.423 22.5977C208.325 22.5003 208.271 22.368 208.271 22.2302C208.271 22.0923 208.325 21.9601 208.423 21.8626L214.286 16.0001L208.423 10.1377C208.374 10.0894 208.336 10.0322 208.31 9.96908C208.284 9.906 208.27 9.83839 208.27 9.7701C208.27 9.70181 208.284 9.63419 208.31 9.57112C208.336 9.50804 208.374 9.45075 208.423 9.40253Z" fill="#344054"/>
<path d="M227.017 19.8281C227.074 19.8281 227.121 19.8047 227.158 19.7578C227.194 19.7057 227.212 19.5339 227.212 19.2422C227.212 18.9505 227.194 18.7812 227.158 18.7344C227.121 18.6823 227.074 18.6562 227.017 18.6562H226.822V19.8281H227.017ZM226.822 17.5C226.884 17.4896 226.949 17.4844 227.017 17.4844C227.319 17.4844 227.556 17.612 227.728 17.8672C227.905 18.1172 227.994 18.5755 227.994 19.2422C227.994 19.9089 227.905 20.3698 227.728 20.625C227.556 20.875 227.228 21 226.744 21C226.259 21 225.929 20.875 225.751 20.625C225.58 20.3698 225.494 19.9089 225.494 19.2422V12.4062C225.389 12.0417 225.129 11.651 224.712 11.2344V10.4531C224.712 9.67188 225.103 9.28125 225.884 9.28125H227.212V10.4531H226.275C226.014 10.4531 225.884 10.5833 225.884 10.8438C226.509 11.2604 226.822 11.7812 226.822 12.4062V17.5ZM231.9 18.6562V19.8281C232.009 19.8281 232.1 19.7995 232.173 19.7422C232.251 19.6797 232.291 19.513 232.291 19.2422C232.291 18.9714 232.251 18.8073 232.173 18.75C232.1 18.6875 232.009 18.6562 231.9 18.6562ZM232.056 17.5625C232.176 17.5104 232.314 17.4844 232.47 17.4844C232.626 17.4844 232.791 17.625 232.962 17.9062C233.139 18.1823 233.228 18.6276 233.228 19.2422C233.228 19.8568 233.113 20.3047 232.884 20.5859C232.66 20.862 232.358 21 231.978 21C231.598 21 231.296 20.8594 231.072 20.5781C230.895 20.3646 230.785 20.0495 230.744 19.6328H230.728V13.1875C230.728 10.5833 231.77 9.28125 233.853 9.28125C236.119 9.28125 237.251 10.5833 237.251 13.1875V17.0938C237.251 18.9167 237.942 19.8281 239.322 19.8281C240.702 19.8281 241.392 18.9167 241.392 17.0938V12.4062C241.392 12.0417 241.132 11.651 240.611 11.2344V10.4531C240.611 9.67188 241.001 9.28125 241.783 9.28125H243.111V10.4531H242.173C241.913 10.4531 241.783 10.5833 241.783 10.8438C242.408 11.2604 242.72 11.7812 242.72 12.4062V17.0938C242.72 18.9167 243.41 19.8281 244.791 19.8281C245.988 19.8281 246.587 18.9167 246.587 17.0938V12.4062C246.587 12.0417 246.327 11.651 245.806 11.2344V10.4531C245.806 9.67188 246.197 9.28125 246.978 9.28125H248.306V10.4531H247.369C247.108 10.4531 246.978 10.5833 246.978 10.8438C247.603 11.2604 247.916 11.7812 247.916 12.4062V17.0938C247.916 19.6979 246.874 21 244.791 21C243.488 21 242.577 20.4219 242.056 19.2656C241.535 20.4219 240.624 21 239.322 21C237.056 21 235.923 19.6979 235.923 17.0938V13.1875C235.923 11.3646 235.233 10.4531 233.853 10.4531C232.655 10.4531 232.056 11.3646 232.056 13.1875V17.5625ZM246.744 24.125C246.744 24.3854 246.822 24.5156 246.978 24.5156C247.134 24.5156 247.238 24.4948 247.291 24.4531C247.343 24.4167 247.369 24.3698 247.369 24.3125C247.369 24.2552 247.337 24.2109 247.275 24.1797C247.207 24.1536 247.108 24.1354 246.978 24.125H246.744ZM246.744 23.1094H247.236C247.611 23.1094 247.884 23.2005 248.056 23.3828C248.223 23.5651 248.306 23.9089 248.306 24.4141C248.306 24.7682 248.215 25.0286 248.033 25.1953C247.85 25.3672 247.551 25.4531 247.134 25.4531C246.197 25.4531 245.728 25.0495 245.728 24.2422V24.125H243.814C242.84 24.125 241.863 23.8125 240.884 23.1875L241.275 22.3281C242.124 22.849 242.97 23.1094 243.814 23.1094H245.728V21.7812H246.744V23.1094ZM247.916 9.28125H249.478C251.561 9.28125 252.603 10.3229 252.603 12.4062V21H251.275V12.4062C251.275 11.1042 250.676 10.4531 249.478 10.4531H247.916V9.28125ZM257.681 11.4297C257.681 11.6224 257.731 11.7682 257.83 11.8672C257.929 11.9661 258.074 12.0156 258.267 12.0156C258.465 12.0156 258.611 11.9661 258.705 11.8672C258.804 11.7682 258.853 11.6224 258.853 11.4297C258.853 11.2318 258.804 11.0859 258.705 10.9922C258.611 10.8932 258.465 10.8438 258.267 10.8438C258.074 10.8438 257.929 10.8932 257.83 10.9922C257.731 11.0859 257.681 11.2318 257.681 11.4297ZM260.025 11.4297C260.025 12.0182 259.879 12.4583 259.587 12.75C259.296 13.0417 258.856 13.1875 258.267 13.1875C257.679 13.1875 257.238 13.0417 256.947 12.75C256.655 12.4583 256.509 12.0182 256.509 11.4297C256.509 10.8411 256.655 10.401 256.947 10.1094C257.238 9.81771 257.679 9.67188 258.267 9.67188C258.856 9.67188 259.296 9.81771 259.587 10.1094C259.879 10.401 260.025 10.8411 260.025 11.4297ZM257.681 18.8516C257.681 19.0443 257.731 19.1901 257.83 19.2891C257.929 19.388 258.074 19.4375 258.267 19.4375C258.465 19.4375 258.611 19.388 258.705 19.2891C258.804 19.1901 258.853 19.0443 258.853 18.8516C258.853 18.6536 258.804 18.5078 258.705 18.4141C258.611 18.3151 258.465 18.2656 258.267 18.2656C258.074 18.2656 257.929 18.3151 257.83 18.4141C257.731 18.5078 257.681 18.6536 257.681 18.8516ZM260.025 18.8516C260.025 19.4401 259.879 19.8802 259.587 20.1719C259.296 20.4635 258.856 20.6094 258.267 20.6094C257.679 20.6094 257.238 20.4635 256.947 20.1719C256.655 19.8802 256.509 19.4401 256.509 18.8516C256.509 18.263 256.655 17.8229 256.947 17.5312C257.238 17.2396 257.679 17.0938 258.267 17.0938C258.856 17.0938 259.296 17.2396 259.587 17.5312C259.879 17.8229 260.025 18.263 260.025 18.8516ZM270.65 16.3828C270.686 16.3932 270.723 16.3984 270.759 16.3984C270.895 16.3984 270.962 16.2917 270.962 16.0781C270.962 15.8698 270.91 15.7656 270.806 15.7656C270.702 15.7656 270.65 15.8672 270.65 16.0703V16.3828ZM270.65 17.0859V17.875C270.65 19.9583 269.712 21 267.837 21C265.962 21 265.025 19.9583 265.025 17.875V16.3125H266.353V17.875C266.353 19.1771 266.848 19.8281 267.837 19.8281C268.827 19.8281 269.322 19.1771 269.322 17.875V16.8984C265.728 15.862 263.931 14.3646 263.931 12.4062C263.931 10.3229 265.233 9.28125 267.837 9.28125C270.442 9.28125 271.744 10.3229 271.744 12.4062C271.744 13.8594 271.02 14.5859 269.572 14.5859C269.244 14.5859 268.978 14.5104 268.775 14.3594V13.1875C269.145 13.2969 269.447 13.3516 269.681 13.3516C270.171 13.3516 270.416 13.0365 270.416 12.4062C270.416 11.1042 269.556 10.4531 267.837 10.4531C266.119 10.4531 265.259 11.1042 265.259 12.4062C265.259 14.0156 266.613 15.1484 269.322 15.8047C269.322 15.3099 269.686 15.0625 270.416 15.0625C271.301 15.0625 271.744 15.388 271.744 16.0391C271.744 16.4297 271.655 16.7057 271.478 16.8672C271.301 17.0286 271.111 17.1094 270.908 17.1094C270.824 17.1094 270.738 17.1016 270.65 17.0859ZM267.447 5.17969C267.447 5.3724 267.496 5.51823 267.595 5.61719C267.694 5.71615 267.84 5.76562 268.033 5.76562C268.231 5.76562 268.379 5.71615 268.478 5.61719C268.572 5.51823 268.619 5.3724 268.619 5.17969C268.619 4.98177 268.572 4.83594 268.478 4.74219C268.379 4.64323 268.231 4.59375 268.033 4.59375C267.84 4.59375 267.694 4.64323 267.595 4.74219C267.496 4.83594 267.447 4.98177 267.447 5.17969ZM269.791 5.17969C269.791 5.76823 269.645 6.20833 269.353 6.5C269.061 6.79167 268.621 6.9375 268.033 6.9375C267.444 6.9375 267.004 6.79167 266.712 6.5C266.421 6.20833 266.275 5.76823 266.275 5.17969C266.275 4.59115 266.421 4.15104 266.712 3.85938C267.004 3.56771 267.444 3.42188 268.033 3.42188C268.621 3.42188 269.061 3.56771 269.353 3.85938C269.645 4.15104 269.791 4.59115 269.791 5.17969ZM276.822 18.6562V19.8281C276.931 19.8281 277.022 19.7995 277.095 19.7422C277.173 19.6797 277.212 19.513 277.212 19.2422C277.212 18.9714 277.173 18.8073 277.095 18.75C277.022 18.6875 276.931 18.6562 276.822 18.6562ZM275.65 11.625L277.681 9.28125L279.556 10.8438L281.431 9.28125L283.462 11.625V21H282.134V11.9375L281.353 10.9609L279.556 12.25L277.759 10.9609L276.978 11.9375V17.5625C277.098 17.5104 277.236 17.4844 277.392 17.4844C277.548 17.4844 277.712 17.625 277.884 17.9062C278.061 18.1823 278.15 18.6276 278.15 19.2422C278.15 19.8568 278.035 20.3047 277.806 20.5859C277.582 20.862 277.28 21 276.9 21C276.52 21 276.218 20.8594 275.994 20.5781C275.817 20.3646 275.707 20.0495 275.666 19.6328H275.65V11.625ZM280.337 5.25781C280.337 5.59635 280.793 5.76562 281.705 5.76562C282.876 5.76562 283.462 5.11458 283.462 3.8125V2.79688H284.634V3.8125C284.634 5.89583 283.658 6.9375 281.705 6.9375C280.012 6.9375 279.166 6.3776 279.166 5.25781C279.166 4.29427 279.577 3.8125 280.4 3.8125C280.884 3.8125 281.254 3.88802 281.509 4.03906L281.275 4.97656C281.061 4.86719 280.866 4.8125 280.689 4.8125C280.455 4.8125 280.337 4.96094 280.337 5.25781ZM287.369 19.8281V18.6562H287.173C287.116 18.6562 287.069 18.6823 287.033 18.7344C286.996 18.7812 286.978 18.9505 286.978 19.2422C286.978 19.5339 286.996 19.7057 287.033 19.7578C287.069 19.8047 287.116 19.8281 287.173 19.8281H287.369ZM288.697 12.4062V19.2422C288.697 19.9089 288.608 20.3698 288.431 20.625C288.259 20.875 287.931 21 287.447 21C286.962 21 286.632 20.875 286.455 20.625C286.283 20.3698 286.197 19.9089 286.197 19.2422C286.197 18.5755 286.283 18.1172 286.455 17.8672C286.632 17.612 286.871 17.4844 287.173 17.4844C287.241 17.4844 287.306 17.4896 287.369 17.5V12.4062C287.264 12.0417 287.004 11.651 286.587 11.2344V10.4531C286.587 9.67188 286.978 9.28125 287.759 9.28125H289.087V10.4531H288.15C287.889 10.4531 287.759 10.5833 287.759 10.8438C288.384 11.2604 288.697 11.7812 288.697 12.4062ZM299.322 16.3828C299.358 16.3932 299.395 16.3984 299.431 16.3984C299.567 16.3984 299.634 16.2917 299.634 16.0781C299.634 15.8698 299.582 15.7656 299.478 15.7656C299.374 15.7656 299.322 15.8672 299.322 16.0703V16.3828ZM299.322 17.0859V17.875C299.322 19.9583 298.384 21 296.509 21C294.634 21 293.697 19.9583 293.697 17.875V16.3125H295.025V17.875C295.025 19.1771 295.52 19.8281 296.509 19.8281C297.499 19.8281 297.994 19.1771 297.994 17.875V16.8984C294.4 15.862 292.603 14.3646 292.603 12.4062C292.603 10.3229 293.905 9.28125 296.509 9.28125C299.113 9.28125 300.416 10.3229 300.416 12.4062C300.416 13.8594 299.692 14.5859 298.244 14.5859C297.916 14.5859 297.65 14.5104 297.447 14.3594V13.1875C297.817 13.2969 298.119 13.3516 298.353 13.3516C298.843 13.3516 299.087 13.0365 299.087 12.4062C299.087 11.1042 298.228 10.4531 296.509 10.4531C294.791 10.4531 293.931 11.1042 293.931 12.4062C293.931 14.0156 295.285 15.1484 297.994 15.8047C297.994 15.3099 298.358 15.0625 299.087 15.0625C299.973 15.0625 300.416 15.388 300.416 16.0391C300.416 16.4297 300.327 16.7057 300.15 16.8672C299.973 17.0286 299.783 17.1094 299.58 17.1094C299.496 17.1094 299.41 17.1016 299.322 17.0859ZM295.728 5.92188H299.244C297.947 5.03646 296.905 4.59375 296.119 4.59375C295.077 4.59375 294.556 4.8151 294.556 5.25781C294.556 5.70052 294.947 5.92188 295.728 5.92188ZM299.244 4.63281V2.64062H300.416V6.9375H295.337C294.035 6.9375 293.384 6.41667 293.384 5.375C293.384 4.07292 294.296 3.42188 296.119 3.42188C297.16 3.42188 298.137 3.77344 299.048 4.47656C299.116 4.52865 299.181 4.58073 299.244 4.63281ZM312.15 14.3984C312.259 14.3984 312.35 14.3646 312.423 14.2969C312.501 14.2292 312.541 14.1328 312.541 14.0078C312.541 13.8828 312.501 13.7865 312.423 13.7188C312.35 13.651 312.259 13.6172 312.15 13.6172V14.3984ZM310.822 11.3125L312.462 9.28125L313.947 10.8438L315.431 9.28125L317.072 11.3125V17.0938C317.072 19.6979 315.639 21 312.775 21C309.91 21 308.478 19.6979 308.478 17.0938V9.67188C308.478 9.15104 308.218 8.89062 307.697 8.89062H307.306V7.71875H308.244C309.285 7.71875 309.806 8.23958 309.806 9.28125V17.0938C309.806 18.9167 310.796 19.8281 312.775 19.8281C314.754 19.8281 315.744 18.9167 315.744 17.0938V11.625L315.197 10.9609L313.947 12.25L312.697 10.9609L312.15 11.625V12.6953C312.202 12.6901 312.254 12.6875 312.306 12.6875C312.66 12.6875 312.923 12.7995 313.095 13.0234C313.298 13.2734 313.4 13.6016 313.4 14.0078C313.4 14.4141 313.298 14.7448 313.095 15C312.897 15.25 312.569 15.375 312.111 15.375C311.653 15.375 311.322 15.25 311.119 15C310.921 14.7448 310.822 14.4141 310.822 14.0078V11.3125Z" fill="#1C4076"/>
<path fill-rule="evenodd" clip-rule="evenodd" d="M327.693 9.40253C327.741 9.35418 327.799 9.31582 327.862 9.28965C327.925 9.26347 327.992 9.25 328.061 9.25C328.129 9.25 328.197 9.26347 328.26 9.28965C328.323 9.31582 328.38 9.35418 328.428 9.40253L334.658 15.6326C334.707 15.6808 334.745 15.7381 334.771 15.8012C334.797 15.8642 334.811 15.9318 334.811 16.0001C334.811 16.0684 334.797 16.136 334.771 16.1991C334.745 16.2622 334.707 16.3195 334.658 16.3677L328.428 22.5977C328.331 22.6952 328.198 22.75 328.061 22.75C327.923 22.75 327.791 22.6952 327.693 22.5977C327.596 22.5003 327.541 22.368 327.541 22.2302C327.541 22.0923 327.596 21.9601 327.693 21.8626L333.557 16.0001L327.693 10.1377C327.645 10.0894 327.606 10.0322 327.58 9.96908C327.554 9.906 327.541 9.83839 327.541 9.7701C327.541 9.70181 327.554 9.63419 327.58 9.57112C327.606 9.50804 327.645 9.45075 327.693 9.40253Z" fill="#1C4076"/>
<path d="M346.639 18.8906C346.592 18.8229 346.488 18.7839 346.326 18.7734V19.6641C346.488 19.6641 346.592 19.6302 346.639 19.5625C346.691 19.4896 346.717 19.3776 346.717 19.2266C346.717 19.0703 346.691 18.9583 346.639 18.8906ZM346.717 17.4375C347.113 17.4688 347.407 17.625 347.6 17.9062C347.793 18.1823 347.889 18.6276 347.889 19.2422C347.889 19.8568 347.753 20.3047 347.483 20.5859C347.212 20.862 346.826 21 346.326 21C345.826 21 345.441 20.862 345.17 20.5859C344.899 20.3047 344.764 19.8568 344.764 19.2422V12.4062C344.764 11.9792 344.503 11.5573 343.983 11.1406V10.4531C343.983 9.67188 344.477 9.28125 345.467 9.28125H347.108V10.8438H345.78V10.9375C346.405 11.3542 346.717 11.8438 346.717 12.4062V17.4375ZM352.186 19.6641C352.347 19.6641 352.451 19.6302 352.498 19.5625C352.55 19.4896 352.576 19.3776 352.576 19.2266C352.576 19.0703 352.55 18.9583 352.498 18.8906C352.451 18.8229 352.347 18.7839 352.186 18.7734V19.6641ZM350.623 13.1875C350.623 10.5833 351.816 9.28125 354.201 9.28125C356.582 9.28125 357.772 10.5833 357.772 13.1875V17.0938C357.772 18.6562 358.358 19.4375 359.53 19.4375C360.701 19.4375 361.287 18.6562 361.287 17.0938V12.4062C361.287 11.9792 361.027 11.5573 360.506 11.1406V10.4531C360.506 9.67188 361.001 9.28125 361.99 9.28125H363.631V10.8438H362.303V10.9375C362.928 11.3542 363.24 11.8438 363.24 12.4062V17.0938C363.24 18.6562 363.826 19.4375 364.998 19.4375C365.988 19.4375 366.483 18.6562 366.483 17.0938V12.4062C366.483 11.9792 366.222 11.5573 365.701 11.1406V10.4531C365.701 9.67188 366.196 9.28125 367.186 9.28125H368.826V10.8438H367.498V10.9375C368.123 11.3542 368.436 11.8438 368.436 12.4062V17.0938C368.436 19.6979 367.29 21 364.998 21C363.509 21 362.597 20.6328 362.264 19.8984C361.931 20.6328 361.019 21 359.53 21C357.056 21 355.819 19.6979 355.819 17.0938V13.1875C355.819 11.625 355.28 10.8438 354.201 10.8438C353.118 10.8438 352.576 11.625 352.576 13.1875V17.4375C352.972 17.4688 353.267 17.625 353.459 17.9062C353.652 18.1823 353.748 18.6276 353.748 19.2422C353.748 19.7526 353.613 20.1745 353.342 20.5078C353.071 20.8359 352.686 21 352.186 21C351.686 21 351.3 20.849 351.03 20.5469C350.759 20.2396 350.623 19.8047 350.623 19.2422V13.1875ZM367.264 24.125C367.264 24.3177 367.324 24.4141 367.444 24.4141C367.569 24.4141 367.652 24.3984 367.694 24.3672C367.73 24.3411 367.748 24.3073 367.748 24.2656C367.748 24.224 367.725 24.1901 367.678 24.1641C367.626 24.1432 367.548 24.1302 367.444 24.125H367.264ZM367.264 22.7188H367.522C367.897 22.7188 368.209 22.8359 368.459 23.0703C368.704 23.3047 368.826 23.6745 368.826 24.1797C368.826 24.5859 368.709 24.8984 368.475 25.1172C368.24 25.3411 367.889 25.4531 367.42 25.4531C366.222 25.4531 365.623 25.0495 365.623 24.2422V24.125H363.944C362.97 24.125 361.993 23.8125 361.014 23.1875L361.405 21.7031C362.253 22.3802 363.1 22.7188 363.944 22.7188H365.623V21.7812H367.264V22.7188ZM368.436 9.28125H370.311C372.967 9.28125 374.295 10.3229 374.295 12.4062V21H372.342V12.4062C372.342 11.3646 371.665 10.8438 370.311 10.8438H368.436V9.28125ZM379.569 11.4297C379.569 11.5599 379.602 11.6562 379.67 11.7188C379.733 11.7865 379.829 11.8203 379.959 11.8203C380.089 11.8203 380.186 11.7865 380.248 11.7188C380.316 11.6562 380.35 11.5599 380.35 11.4297C380.35 11.2995 380.316 11.2031 380.248 11.1406C380.186 11.0729 380.089 11.0391 379.959 11.0391C379.829 11.0391 379.733 11.0729 379.67 11.1406C379.602 11.2031 379.569 11.2995 379.569 11.4297ZM381.717 11.4297C381.717 12.0182 381.571 12.4583 381.28 12.75C380.988 13.0417 380.548 13.1875 379.959 13.1875C379.371 13.1875 378.931 13.0417 378.639 12.75C378.347 12.4583 378.201 12.0182 378.201 11.4297C378.201 10.8411 378.347 10.401 378.639 10.1094C378.931 9.81771 379.371 9.67188 379.959 9.67188C380.548 9.67188 380.988 9.81771 381.28 10.1094C381.571 10.401 381.717 10.8411 381.717 11.4297ZM379.569 18.8516C379.569 18.9818 379.602 19.0781 379.67 19.1406C379.733 19.2083 379.829 19.2422 379.959 19.2422C380.089 19.2422 380.186 19.2083 380.248 19.1406C380.316 19.0781 380.35 18.9818 380.35 18.8516C380.35 18.7214 380.316 18.625 380.248 18.5625C380.186 18.4948 380.089 18.4609 379.959 18.4609C379.829 18.4609 379.733 18.4948 379.67 18.5625C379.602 18.625 379.569 18.7214 379.569 18.8516ZM381.717 18.8516C381.717 19.4401 381.571 19.8802 381.28 20.1719C380.988 20.4635 380.548 20.6094 379.959 20.6094C379.371 20.6094 378.931 20.4635 378.639 20.1719C378.347 19.8802 378.201 19.4401 378.201 18.8516C378.201 18.263 378.347 17.8229 378.639 17.5312C378.931 17.2396 379.371 17.0938 379.959 17.0938C380.548 17.0938 380.988 17.2396 381.28 17.5312C381.571 17.8229 381.717 18.263 381.717 18.8516ZM392.889 16.2031C392.889 16.0521 392.837 15.9766 392.733 15.9766C392.628 15.9766 392.576 16.0547 392.576 16.2109C392.576 16.4089 392.681 16.5182 392.889 16.5391V16.2031ZM392.967 17.5391V17.875C392.967 19.9583 391.925 21 389.842 21C387.759 21 386.717 19.9583 386.717 17.875V16.3125H388.67V17.875C388.67 18.9167 389.061 19.4375 389.842 19.4375C390.623 19.4375 391.014 18.9167 391.014 17.875V17.2266C387.42 15.9297 385.623 14.3229 385.623 12.4062C385.623 10.3229 387.03 9.28125 389.842 9.28125C392.655 9.28125 394.061 10.3229 394.061 12.4062C394.061 13.8594 393.233 14.5859 391.576 14.5859C391.123 14.5859 390.753 14.4792 390.467 14.2656V12.6016C391.102 12.7891 391.509 12.8828 391.686 12.8828C391.967 12.8828 392.108 12.724 392.108 12.4062C392.108 11.3646 391.352 10.8438 389.842 10.8438C388.332 10.8438 387.576 11.3646 387.576 12.4062C387.576 14.0521 388.722 15.1536 391.014 15.7109C391.014 15.2786 391.483 15.0625 392.42 15.0625C393.514 15.0625 394.061 15.388 394.061 16.0391C394.061 16.6276 393.954 17.0182 393.74 17.2109C393.532 17.4036 393.274 17.513 392.967 17.5391ZM389.334 5.17969C389.334 5.3099 389.368 5.40625 389.436 5.46875C389.498 5.53646 389.595 5.57031 389.725 5.57031C389.855 5.57031 389.954 5.53646 390.022 5.46875C390.084 5.40625 390.115 5.3099 390.115 5.17969C390.115 5.04948 390.084 4.95312 390.022 4.89062C389.954 4.82292 389.855 4.78906 389.725 4.78906C389.595 4.78906 389.498 4.82292 389.436 4.89062C389.368 4.95312 389.334 5.04948 389.334 5.17969ZM391.483 5.17969C391.483 5.76823 391.337 6.20833 391.045 6.5C390.753 6.79167 390.313 6.9375 389.725 6.9375C389.136 6.9375 388.696 6.79167 388.405 6.5C388.113 6.20833 387.967 5.76823 387.967 5.17969C387.967 4.59115 388.113 4.15104 388.405 3.85938C388.696 3.56771 389.136 3.42188 389.725 3.42188C390.313 3.42188 390.753 3.56771 391.045 3.85938C391.337 4.15104 391.483 4.59115 391.483 5.17969ZM399.53 19.6641C399.691 19.6641 399.795 19.6302 399.842 19.5625C399.894 19.4896 399.92 19.3776 399.92 19.2266C399.92 19.0703 399.894 18.9583 399.842 18.8906C399.795 18.8229 399.691 18.7839 399.53 18.7734V19.6641ZM397.967 11.7109L400.256 9.07031L402.186 10.6797L404.115 9.07031L406.405 11.7109V21H404.451V12.2422L403.897 11.5469L402.186 12.7734L400.475 11.5469L399.92 12.2422V17.4375C400.316 17.4688 400.61 17.625 400.803 17.9062C400.996 18.1823 401.092 18.6276 401.092 19.2422C401.092 19.7526 400.957 20.1745 400.686 20.5078C400.415 20.8359 400.03 21 399.53 21C399.03 21 398.644 20.849 398.373 20.5469C398.102 20.2396 397.967 19.8047 397.967 19.2422V11.7109ZM403.67 5.10156C403.67 5.28385 403.996 5.375 404.647 5.375C405.558 5.375 406.014 4.85417 406.014 3.8125V2.79688H407.576V3.8125C407.576 5.89583 406.6 6.9375 404.647 6.9375C402.954 6.9375 402.108 6.3776 402.108 5.25781C402.108 4.29427 402.571 3.8125 403.498 3.8125C403.878 3.8125 404.196 3.88802 404.451 4.03906L404.217 4.97656C404.108 4.86719 403.99 4.8125 403.865 4.8125C403.735 4.8125 403.67 4.90885 403.67 5.10156ZM410.701 18.7734C410.54 18.7839 410.433 18.8229 410.381 18.8906C410.334 18.9583 410.311 19.0703 410.311 19.2266C410.311 19.3776 410.334 19.4896 410.381 19.5625C410.433 19.6302 410.54 19.6641 410.701 19.6641V18.7734ZM410.311 12.4062C410.311 11.9792 410.05 11.5573 409.53 11.1406V10.4531C409.53 9.67188 410.024 9.28125 411.014 9.28125H412.655V10.8438H411.326V10.9375C411.951 11.3542 412.264 11.8438 412.264 12.4062V19.2422C412.264 19.8568 412.128 20.3047 411.858 20.5859C411.587 20.862 411.201 21 410.701 21C410.201 21 409.816 20.862 409.545 20.5859C409.274 20.3047 409.139 19.8568 409.139 19.2422C409.139 18.6276 409.235 18.1823 409.428 17.9062C409.621 17.625 409.915 17.4688 410.311 17.4375V12.4062ZM423.436 16.2031C423.436 16.0521 423.384 15.9766 423.28 15.9766C423.175 15.9766 423.123 16.0547 423.123 16.2109C423.123 16.4089 423.227 16.5182 423.436 16.5391V16.2031ZM423.514 17.5391V17.875C423.514 19.9583 422.472 21 420.389 21C418.306 21 417.264 19.9583 417.264 17.875V16.3125H419.217V17.875C419.217 18.9167 419.608 19.4375 420.389 19.4375C421.17 19.4375 421.561 18.9167 421.561 17.875V17.2266C417.967 15.9297 416.17 14.3229 416.17 12.4062C416.17 10.3229 417.576 9.28125 420.389 9.28125C423.201 9.28125 424.608 10.3229 424.608 12.4062C424.608 13.8594 423.78 14.5859 422.123 14.5859C421.67 14.5859 421.3 14.4792 421.014 14.2656V12.6016C421.649 12.7891 422.056 12.8828 422.233 12.8828C422.514 12.8828 422.655 12.724 422.655 12.4062C422.655 11.3646 421.899 10.8438 420.389 10.8438C418.878 10.8438 418.123 11.3646 418.123 12.4062C418.123 14.0521 419.269 15.1536 421.561 15.7109C421.561 15.2786 422.03 15.0625 422.967 15.0625C424.061 15.0625 424.608 15.388 424.608 16.0391C424.608 16.6276 424.501 17.0182 424.287 17.2109C424.079 17.4036 423.821 17.513 423.514 17.5391ZM418.748 5.41406C418.748 5.70052 419.009 5.84375 419.53 5.84375H423.045C422.009 5.27083 421.097 4.98438 420.311 4.98438C419.269 4.98438 418.748 5.1276 418.748 5.41406ZM423.201 4.44531V2.64062H424.608V6.9375H419.139C417.837 6.9375 417.186 6.41667 417.186 5.375C417.186 4.07292 418.227 3.42188 420.311 3.42188C421.337 3.42188 422.3 3.76302 423.201 4.44531ZM434.233 19.9062C434.358 19.9062 434.441 19.8802 434.483 19.8281C434.524 19.7708 434.545 19.7083 434.545 19.6406C434.545 19.5729 434.527 19.5182 434.49 19.4766C434.449 19.4193 434.363 19.3906 434.233 19.3906V19.9062ZM432.67 12.3438C432.67 10.3021 433.753 9.28125 435.92 9.28125C437.373 9.28125 438.217 9.55729 438.451 10.1094C438.686 9.55729 439.535 9.28125 440.998 9.28125C443.155 9.28125 444.233 10.3229 444.233 12.4062V21H442.28V12.4062C442.28 11.3646 441.806 10.8438 440.858 10.8438C439.905 10.8438 439.428 11.3646 439.428 12.4062V21H437.475V12.4062C437.475 11.3646 437.001 10.8438 436.053 10.8438C435.1 10.8438 434.623 11.3438 434.623 12.3438H434.615L434.623 18.2891C435.04 18.3047 435.363 18.4635 435.592 18.7656C435.78 18.9948 435.873 19.2839 435.873 19.6328C435.873 19.9818 435.761 20.2969 435.537 20.5781C435.313 20.8594 434.878 21 434.233 21C433.639 21 433.23 20.8594 433.006 20.5781C432.782 20.2969 432.67 19.9818 432.67 19.6328L432.662 12.3438H432.67Z" fill="#1C4076"/>
<rect x="10" y="48" width="31" height="18" rx="3" fill="#F07D03"/>
<path d="M19.3026 61.0994C18.7557 61.0994 18.2692 61.0107 17.843 60.8331C17.4193 60.6532 17.0866 60.4081 16.8452 60.098C16.6037 59.7879 16.483 59.4363 16.483 59.0433C16.483 58.7403 16.5516 58.4621 16.6889 58.2088C16.8286 57.9531 17.018 57.7412 17.2571 57.5732C17.4962 57.4027 17.7637 57.2938 18.0597 57.2464V57.1967C17.6714 57.1186 17.3565 56.9304 17.1151 56.6321C16.8736 56.3314 16.7528 55.9822 16.7528 55.5845C16.7528 55.2081 16.8629 54.8731 17.0831 54.5795C17.3033 54.2836 17.6051 54.0516 17.9886 53.8835C18.3745 53.7131 18.8125 53.6278 19.3026 53.6278C19.7926 53.6278 20.2294 53.7131 20.6129 53.8835C20.9988 54.054 21.3018 54.2872 21.522 54.5831C21.7422 54.8767 21.8535 55.2105 21.8558 55.5845C21.8535 55.9846 21.7304 56.3338 21.4865 56.6321C21.2427 56.9304 20.9302 57.1186 20.549 57.1967V57.2464C20.8402 57.2938 21.1042 57.4027 21.3409 57.5732C21.58 57.7412 21.7694 57.9531 21.9091 58.2088C22.0511 58.4621 22.1233 58.7403 22.1257 59.0433C22.1233 59.4363 22.0014 59.7879 21.7599 60.098C21.5185 60.4081 21.1847 60.6532 20.7585 60.8331C20.3348 61.0107 19.8494 61.0994 19.3026 61.0994ZM19.3026 59.9702C19.5464 59.9702 19.7595 59.9264 19.9418 59.8388C20.1241 59.7488 20.2661 59.6257 20.3679 59.4695C20.4721 59.3108 20.5241 59.1286 20.5241 58.9226C20.5241 58.7119 20.4709 58.526 20.3643 58.3651C20.2578 58.2017 20.1134 58.0739 19.9311 57.9815C19.7488 57.8868 19.5393 57.8395 19.3026 57.8395C19.0682 57.8395 18.8587 57.8868 18.674 57.9815C18.4893 58.0739 18.3438 58.2017 18.2372 58.3651C18.133 58.526 18.081 58.7119 18.081 58.9226C18.081 59.1286 18.1319 59.3108 18.2337 59.4695C18.3355 59.6257 18.4787 59.7488 18.6634 59.8388C18.848 59.9264 19.0611 59.9702 19.3026 59.9702ZM19.3026 56.7209C19.5062 56.7209 19.6873 56.6795 19.8459 56.5966C20.0045 56.5137 20.1288 56.3989 20.2188 56.2521C20.3087 56.1054 20.3537 55.9361 20.3537 55.7443C20.3537 55.5549 20.3087 55.3892 20.2188 55.2472C20.1288 55.1027 20.0057 54.9903 19.8494 54.9098C19.6932 54.8269 19.5109 54.7855 19.3026 54.7855C19.0966 54.7855 18.9143 54.8269 18.7557 54.9098C18.5971 54.9903 18.4728 55.1027 18.3828 55.2472C18.2952 55.3892 18.2514 55.5549 18.2514 55.7443C18.2514 55.9361 18.2964 56.1054 18.3864 56.2521C18.4763 56.3989 18.6006 56.5137 18.7592 56.5966C18.9179 56.6795 19.099 56.7209 19.3026 56.7209ZM23.215 63.0455V55.5455H24.7065V56.4616H24.774C24.8403 56.3149 24.9361 56.1657 25.0616 56.0142C25.1895 55.8603 25.3552 55.7325 25.5588 55.6307C25.7647 55.5265 26.0204 55.4744 26.3258 55.4744C26.7235 55.4744 27.0905 55.5786 27.4267 55.7869C27.7628 55.9929 28.0315 56.3042 28.2328 56.7209C28.434 57.1352 28.5346 57.6548 28.5346 58.2798C28.5346 58.8883 28.4364 59.402 28.2399 59.821C28.0458 60.2377 27.7806 60.5537 27.4444 60.7692C27.1106 60.9822 26.7366 61.0888 26.3223 61.0888C26.0287 61.0888 25.7789 61.0402 25.573 60.9432C25.3694 60.8461 25.2025 60.7242 25.0723 60.5774C24.9421 60.4283 24.8426 60.2779 24.774 60.1264H24.7278V63.0455H23.215ZM24.6958 58.2727C24.6958 58.5971 24.7408 58.88 24.8308 59.1214C24.9208 59.3629 25.051 59.5511 25.2214 59.6861C25.3919 59.8187 25.599 59.8849 25.8429 59.8849C26.0891 59.8849 26.2974 59.8175 26.4679 59.6825C26.6383 59.5452 26.7673 59.3558 26.8549 59.1143C26.9449 58.8705 26.9899 58.59 26.9899 58.2727C26.9899 57.9579 26.9461 57.6809 26.8585 57.4418C26.7709 57.2027 26.6419 57.0156 26.4714 56.8807C26.301 56.7457 26.0914 56.6783 25.8429 56.6783C25.5967 56.6783 25.3883 56.7434 25.2179 56.8736C25.0498 57.0038 24.9208 57.1884 24.8308 57.4276C24.7408 57.6667 24.6958 57.9484 24.6958 58.2727ZM30.612 55.5455L31.6135 57.4524L32.6397 55.5455H34.1916L32.6113 58.2727L34.2342 61H32.6895L31.6135 59.1143L30.5552 61H28.9927L30.612 58.2727L29.0495 55.5455H30.612Z" fill="white"/>
<rect x="17.5" y="5" width="8" height="28" fill="#EE7D22" fill-opacity="0.24"/>
<path d="M17.5 43.5H25.5" stroke="#F07D03"/>
<line x1="18" y1="47" x2="18" y2="40" stroke="#F07D03"/>
<line x1="26" y1="47" x2="26" y2="40" stroke="#F07D03"/>
</svg>
