<svg width="423" height="65" viewBox="0 0 423 65" fill="none" xmlns="http://www.w3.org/2000/svg">
<rect x="58" y="4" width="8" height="28" fill="#EE7D22" fill-opacity="0.24"/>
<path d="M58 42.5H66" stroke="#F07D03"/>
<rect x="50.5" y="47" width="31" height="18" rx="3" fill="#F07D03"/>
<path d="M59.8026 60.0994C59.2557 60.0994 58.7692 60.0107 58.343 59.8331C57.9193 59.6532 57.5866 59.4081 57.3452 59.098C57.1037 58.7879 56.983 58.4363 56.983 58.0433C56.983 57.7403 57.0516 57.4621 57.1889 57.2088C57.3286 56.9531 57.518 56.7412 57.7571 56.5732C57.9962 56.4027 58.2637 56.2938 58.5597 56.2464V56.1967C58.1714 56.1186 57.8565 55.9304 57.6151 55.6321C57.3736 55.3314 57.2528 54.9822 57.2528 54.5845C57.2528 54.2081 57.3629 53.8731 57.5831 53.5795C57.8033 53.2836 58.1051 53.0516 58.4886 52.8835C58.8745 52.7131 59.3125 52.6278 59.8026 52.6278C60.2926 52.6278 60.7294 52.7131 61.1129 52.8835C61.4988 53.054 61.8018 53.2872 62.022 53.5831C62.2422 53.8767 62.3535 54.2105 62.3558 54.5845C62.3535 54.9846 62.2304 55.3338 61.9865 55.6321C61.7427 55.9304 61.4302 56.1186 61.049 56.1967V56.2464C61.3402 56.2938 61.6042 56.4027 61.8409 56.5732C62.08 56.7412 62.2694 56.9531 62.4091 57.2088C62.5511 57.4621 62.6233 57.7403 62.6257 58.0433C62.6233 58.4363 62.5014 58.7879 62.2599 59.098C62.0185 59.4081 61.6847 59.6532 61.2585 59.8331C60.8348 60.0107 60.3494 60.0994 59.8026 60.0994ZM59.8026 58.9702C60.0464 58.9702 60.2595 58.9264 60.4418 58.8388C60.6241 58.7488 60.7661 58.6257 60.8679 58.4695C60.9721 58.3108 61.0241 58.1286 61.0241 57.9226C61.0241 57.7119 60.9709 57.526 60.8643 57.3651C60.7578 57.2017 60.6134 57.0739 60.4311 56.9815C60.2488 56.8868 60.0393 56.8395 59.8026 56.8395C59.5682 56.8395 59.3587 56.8868 59.174 56.9815C58.9893 57.0739 58.8438 57.2017 58.7372 57.3651C58.633 57.526 58.581 57.7119 58.581 57.9226C58.581 58.1286 58.6319 58.3108 58.7337 58.4695C58.8355 58.6257 58.9787 58.7488 59.1634 58.8388C59.348 58.9264 59.5611 58.9702 59.8026 58.9702ZM59.8026 55.7209C60.0062 55.7209 60.1873 55.6795 60.3459 55.5966C60.5045 55.5137 60.6288 55.3989 60.7188 55.2521C60.8087 55.1054 60.8537 54.9361 60.8537 54.7443C60.8537 54.5549 60.8087 54.3892 60.7188 54.2472C60.6288 54.1027 60.5057 53.9903 60.3494 53.9098C60.1932 53.8269 60.0109 53.7855 59.8026 53.7855C59.5966 53.7855 59.4143 53.8269 59.2557 53.9098C59.0971 53.9903 58.9728 54.1027 58.8828 54.2472C58.7952 54.3892 58.7514 54.5549 58.7514 54.7443C58.7514 54.9361 58.7964 55.1054 58.8864 55.2521C58.9763 55.3989 59.1006 55.5137 59.2592 55.5966C59.4179 55.6795 59.599 55.7209 59.8026 55.7209ZM63.715 62.0455V54.5455H65.2065V55.4616H65.274C65.3403 55.3149 65.4361 55.1657 65.5616 55.0142C65.6895 54.8603 65.8552 54.7325 66.0588 54.6307C66.2647 54.5265 66.5204 54.4744 66.8258 54.4744C67.2235 54.4744 67.5905 54.5786 67.9267 54.7869C68.2628 54.9929 68.5315 55.3042 68.7328 55.7209C68.934 56.1352 69.0346 56.6548 69.0346 57.2798C69.0346 57.8883 68.9364 58.402 68.7399 58.821C68.5458 59.2377 68.2806 59.5537 67.9444 59.7692C67.6106 59.9822 67.2366 60.0888 66.8223 60.0888C66.5287 60.0888 66.2789 60.0402 66.073 59.9432C65.8694 59.8461 65.7025 59.7242 65.5723 59.5774C65.4421 59.4283 65.3426 59.2779 65.274 59.1264H65.2278V62.0455H63.715ZM65.1958 57.2727C65.1958 57.5971 65.2408 57.88 65.3308 58.1214C65.4208 58.3629 65.551 58.5511 65.7214 58.6861C65.8919 58.8187 66.099 58.8849 66.3429 58.8849C66.5891 58.8849 66.7974 58.8175 66.9679 58.6825C67.1383 58.5452 67.2673 58.3558 67.3549 58.1143C67.4449 57.8705 67.4899 57.59 67.4899 57.2727C67.4899 56.9579 67.4461 56.6809 67.3585 56.4418C67.2709 56.2027 67.1419 56.0156 66.9714 55.8807C66.801 55.7457 66.5914 55.6783 66.3429 55.6783C66.0967 55.6783 65.8883 55.7434 65.7179 55.8736C65.5498 56.0038 65.4208 56.1884 65.3308 56.4276C65.2408 56.6667 65.1958 56.9484 65.1958 57.2727ZM71.112 54.5455L72.1135 56.4524L73.1397 54.5455H74.6916L73.1113 57.2727L74.7342 60H73.1895L72.1135 58.1143L71.0552 60H69.4927L71.112 57.2727L69.5495 54.5455H71.112Z" fill="white"/>
<line x1="58.5" y1="46" x2="58.5" y2="39" stroke="#F07D03"/>
<line x1="66.5" y1="46" x2="66.5" y2="39" stroke="#F07D03"/>
<path d="M8.67188 16.3828C8.70833 16.3932 8.74479 16.3984 8.78125 16.3984C8.91667 16.3984 8.98438 16.2917 8.98438 16.0781C8.98438 15.8698 8.93229 15.7656 8.82812 15.7656C8.72396 15.7656 8.67188 15.8672 8.67188 16.0703V16.3828ZM8.67188 17.0859V17.875C8.67188 19.9583 7.73438 21 5.85938 21C3.98438 21 3.04688 19.9583 3.04688 17.875V16.3125H4.375V17.875C4.375 19.1771 4.86979 19.8281 5.85938 19.8281C6.84896 19.8281 7.34375 19.1771 7.34375 17.875V16.8984C3.75 15.862 1.95312 14.3646 1.95312 12.4062C1.95312 10.3229 3.25521 9.28125 5.85938 9.28125C8.46354 9.28125 9.76562 10.3229 9.76562 12.4062C9.76562 13.8594 9.04167 14.5859 7.59375 14.5859C7.26562 14.5859 7 14.5104 6.79688 14.3594V13.1875C7.16667 13.2969 7.46875 13.3516 7.70312 13.3516C8.19271 13.3516 8.4375 13.0365 8.4375 12.4062C8.4375 11.1042 7.57812 10.4531 5.85938 10.4531C4.14062 10.4531 3.28125 11.1042 3.28125 12.4062C3.28125 14.0156 4.63542 15.1484 7.34375 15.8047C7.34375 15.3099 7.70833 15.0625 8.4375 15.0625C9.32292 15.0625 9.76562 15.388 9.76562 16.0391C9.76562 16.4297 9.67708 16.7057 9.5 16.8672C9.32292 17.0286 9.13281 17.1094 8.92969 17.1094C8.84635 17.1094 8.76042 17.1016 8.67188 17.0859ZM5.46875 5.17969C5.46875 5.3724 5.51823 5.51823 5.61719 5.61719C5.71615 5.71615 5.86198 5.76562 6.05469 5.76562C6.2526 5.76562 6.40104 5.71615 6.5 5.61719C6.59375 5.51823 6.64062 5.3724 6.64062 5.17969C6.64062 4.98177 6.59375 4.83594 6.5 4.74219C6.40104 4.64323 6.2526 4.59375 6.05469 4.59375C5.86198 4.59375 5.71615 4.64323 5.61719 4.74219C5.51823 4.83594 5.46875 4.98177 5.46875 5.17969ZM7.8125 5.17969C7.8125 5.76823 7.66667 6.20833 7.375 6.5C7.08333 6.79167 6.64323 6.9375 6.05469 6.9375C5.46615 6.9375 5.02604 6.79167 4.73438 6.5C4.44271 6.20833 4.29688 5.76823 4.29688 5.17969C4.29688 4.59115 4.44271 4.15104 4.73438 3.85938C5.02604 3.56771 5.46615 3.42188 6.05469 3.42188C6.64323 3.42188 7.08333 3.56771 7.375 3.85938C7.66667 4.15104 7.8125 4.59115 7.8125 5.17969ZM14.8438 18.6562V19.8281C14.9531 19.8281 15.0443 19.7995 15.1172 19.7422C15.1953 19.6797 15.2344 19.513 15.2344 19.2422C15.2344 18.9714 15.1953 18.8073 15.1172 18.75C15.0443 18.6875 14.9531 18.6562 14.8438 18.6562ZM13.6719 11.625L15.7031 9.28125L17.5781 10.8438L19.4531 9.28125L21.4844 11.625V21H20.1562V11.9375L19.375 10.9609L17.5781 12.25L15.7812 10.9609L15 11.9375V17.5625C15.1198 17.5104 15.2578 17.4844 15.4141 17.4844C15.5703 17.4844 15.7344 17.625 15.9062 17.9062C16.0833 18.1823 16.1719 18.6276 16.1719 19.2422C16.1719 19.8568 16.0573 20.3047 15.8281 20.5859C15.6042 20.862 15.3021 21 14.9219 21C14.5417 21 14.2396 20.8594 14.0156 20.5781C13.8385 20.3646 13.7292 20.0495 13.6875 19.6328H13.6719V11.625ZM18.3594 5.25781C18.3594 5.59635 18.8151 5.76562 19.7266 5.76562C20.8984 5.76562 21.4844 5.11458 21.4844 3.8125V2.79688H22.6562V3.8125C22.6562 5.89583 21.6797 6.9375 19.7266 6.9375C18.0339 6.9375 17.1875 6.3776 17.1875 5.25781C17.1875 4.29427 17.599 3.8125 18.4219 3.8125C18.9062 3.8125 19.276 3.88802 19.5312 4.03906L19.2969 4.97656C19.0833 4.86719 18.888 4.8125 18.7109 4.8125C18.4766 4.8125 18.3594 4.96094 18.3594 5.25781ZM25.3906 19.8281V18.6562H25.1953C25.138 18.6562 25.0911 18.6823 25.0547 18.7344C25.0182 18.7812 25 18.9505 25 19.2422C25 19.5339 25.0182 19.7057 25.0547 19.7578C25.0911 19.8047 25.138 19.8281 25.1953 19.8281H25.3906ZM26.7188 12.4062V19.2422C26.7188 19.9089 26.6302 20.3698 26.4531 20.625C26.2812 20.875 25.9531 21 25.4688 21C24.9844 21 24.6536 20.875 24.4766 20.625C24.3047 20.3698 24.2188 19.9089 24.2188 19.2422C24.2188 18.5755 24.3047 18.1172 24.4766 17.8672C24.6536 17.612 24.8932 17.4844 25.1953 17.4844C25.263 17.4844 25.3281 17.4896 25.3906 17.5V12.4062C25.2865 12.0417 25.026 11.651 24.6094 11.2344V10.4531C24.6094 9.67188 25 9.28125 25.7812 9.28125H27.1094V10.4531H26.1719C25.9115 10.4531 25.7812 10.5833 25.7812 10.8438C26.4062 11.2604 26.7188 11.7812 26.7188 12.4062ZM32.1484 19.8281C32.2057 19.8281 32.2526 19.8047 32.2891 19.7578C32.3255 19.7057 32.3438 19.5339 32.3438 19.2422C32.3438 18.9505 32.3255 18.7812 32.2891 18.7344C32.2526 18.6823 32.2057 18.6562 32.1484 18.6562H31.9531V19.8281H32.1484ZM31.9531 17.5C32.0156 17.4896 32.0807 17.4844 32.1484 17.4844C32.4505 17.4844 32.6875 17.612 32.8594 17.8672C33.0365 18.1172 33.125 18.5755 33.125 19.2422C33.125 19.9089 33.0365 20.3698 32.8594 20.625C32.6875 20.875 32.3594 21 31.875 21C31.3906 21 31.0599 20.875 30.8828 20.625C30.7109 20.3698 30.625 19.9089 30.625 19.2422V12.4062C30.5208 12.0417 30.2604 11.651 29.8438 11.2344V10.4531C29.8438 9.67188 30.2344 9.28125 31.0156 9.28125H32.3438V10.4531H31.4062C31.1458 10.4531 31.0156 10.5833 31.0156 10.8438C31.6406 11.2604 31.9531 11.7812 31.9531 12.4062V17.5ZM35.8594 12.4062H37.1875V19.4375L39.7656 17.0938L42.3438 19.4375V12.4062H43.6719V21H42.5L39.7656 18.6562L37.0312 21H35.8594V12.4062ZM37.1875 10.5234C37.1875 10.737 38.0469 10.8438 39.7656 10.8438C41.4844 10.8438 42.3438 10.3229 42.3438 9.28125V8.10938H43.6719V9.28125C43.6719 11.1042 42.3698 12.0156 39.7656 12.0156C37.1615 12.0156 35.8594 11.5208 35.8594 10.5312C35.8594 9.69792 36.2917 9.28125 37.1562 9.28125C37.7031 9.28125 38.0781 9.35677 38.2812 9.50781V10.5234C37.9115 10.4141 37.638 10.3594 37.4609 10.3594C37.2786 10.3594 37.1875 10.4141 37.1875 10.5234ZM38.9844 5.92188H42.5C41.2031 5.03646 40.1615 4.59375 39.375 4.59375C38.3333 4.59375 37.8125 4.8151 37.8125 5.25781C37.8125 5.70052 38.2031 5.92188 38.9844 5.92188ZM42.5 4.63281V2.64062H43.6719V6.9375H38.5938C37.2917 6.9375 36.6406 6.41667 36.6406 5.375C36.6406 4.07292 37.5521 3.42188 39.375 3.42188C40.4167 3.42188 41.3932 3.77344 42.3047 4.47656C42.3724 4.52865 42.4375 4.58073 42.5 4.63281ZM48.9062 15.5312V17.0938C48.9062 18.9167 49.7656 19.8281 51.4844 19.8281C53.2031 19.8281 54.0625 18.9167 54.0625 17.0938V15.5312H48.9062ZM48.9062 14.3594H54.0625V12.4062C54.0625 12.0417 53.8021 11.651 53.2812 11.2344V10.4531C53.2812 9.67188 53.6719 9.28125 54.4531 9.28125H55.7812V10.4531H54.8438C54.5833 10.4531 54.4531 10.5833 54.4531 10.8438C55.0781 11.2604 55.3906 11.7812 55.3906 12.4062V17.0938C55.3906 19.6979 54.0885 21 51.4844 21C48.8802 21 47.5781 19.6979 47.5781 17.0938V12.4062C47.5781 12.0417 47.3177 11.651 46.7969 11.2344V10.4531C46.7969 9.67188 47.1875 9.28125 47.9688 9.28125H49.2969V10.4531H48.3594C48.099 10.4531 47.9688 10.5833 47.9688 10.8438C48.5938 11.2604 48.9062 11.7812 48.9062 12.4062V14.3594Z" fill="#1C4076"/>
<path fill-rule="evenodd" clip-rule="evenodd" d="M66.1525 9.40253C66.2008 9.35418 66.258 9.31582 66.3211 9.28965C66.3842 9.26347 66.4518 9.25 66.5201 9.25C66.5884 9.25 66.656 9.26347 66.7191 9.28965C66.7822 9.31582 66.8394 9.35418 66.8877 9.40253L73.1177 15.6326C73.1661 15.6808 73.2044 15.7381 73.2306 15.8012C73.2568 15.8642 73.2702 15.9318 73.2702 16.0001C73.2702 16.0684 73.2568 16.136 73.2306 16.1991C73.2044 16.2622 73.1661 16.3195 73.1177 16.3677L66.8877 22.5977C66.7902 22.6952 66.658 22.75 66.5201 22.75C66.3822 22.75 66.25 22.6952 66.1525 22.5977C66.055 22.5003 66.0003 22.368 66.0003 22.2302C66.0003 22.0923 66.055 21.9601 66.1525 21.8626L72.016 16.0001L66.1525 10.1377C66.1042 10.0894 66.0658 10.0322 66.0396 9.96908C66.0135 9.906 66 9.83839 66 9.7701C66 9.70181 66.0135 9.63419 66.0396 9.57112C66.0658 9.50804 66.1042 9.45075 66.1525 9.40253Z" fill="#344054"/>
<path d="M84.7468 19.8281C84.8041 19.8281 84.851 19.8047 84.8875 19.7578C84.9239 19.7057 84.9421 19.5339 84.9421 19.2422C84.9421 18.9505 84.9239 18.7812 84.8875 18.7344C84.851 18.6823 84.8041 18.6562 84.7468 18.6562H84.5515V19.8281H84.7468ZM84.5515 17.5C84.614 17.4896 84.6791 17.4844 84.7468 17.4844C85.0489 17.4844 85.2859 17.612 85.4578 17.8672C85.6348 18.1172 85.7234 18.5755 85.7234 19.2422C85.7234 19.9089 85.6348 20.3698 85.4578 20.625C85.2859 20.875 84.9578 21 84.4734 21C83.989 21 83.6583 20.875 83.4812 20.625C83.3093 20.3698 83.2234 19.9089 83.2234 19.2422V12.4062C83.1192 12.0417 82.8588 11.651 82.4421 11.2344V10.4531C82.4421 9.67188 82.8328 9.28125 83.614 9.28125H84.9421V10.4531H84.0046C83.7442 10.4531 83.614 10.5833 83.614 10.8438C84.239 11.2604 84.5515 11.7812 84.5515 12.4062V17.5ZM89.6296 18.6562V19.8281C89.739 19.8281 89.8302 19.7995 89.9031 19.7422C89.9812 19.6797 90.0203 19.513 90.0203 19.2422C90.0203 18.9714 89.9812 18.8073 89.9031 18.75C89.8302 18.6875 89.739 18.6562 89.6296 18.6562ZM89.7859 17.5625C89.9057 17.5104 90.0437 17.4844 90.2 17.4844C90.3562 17.4844 90.5203 17.625 90.6921 17.9062C90.8692 18.1823 90.9578 18.6276 90.9578 19.2422C90.9578 19.8568 90.8432 20.3047 90.614 20.5859C90.3901 20.862 90.088 21 89.7078 21C89.3276 21 89.0255 20.8594 88.8015 20.5781C88.6244 20.3646 88.5151 20.0495 88.4734 19.6328H88.4578V13.1875C88.4578 10.5833 89.4994 9.28125 91.5828 9.28125C93.8484 9.28125 94.9812 10.5833 94.9812 13.1875V17.0938C94.9812 18.9167 95.6713 19.8281 97.0515 19.8281C98.4317 19.8281 99.1218 18.9167 99.1218 17.0938V12.4062C99.1218 12.0417 98.8614 11.651 98.3406 11.2344V10.4531C98.3406 9.67188 98.7312 9.28125 99.5125 9.28125H100.841V10.4531H99.9031C99.6427 10.4531 99.5125 10.5833 99.5125 10.8438C100.137 11.2604 100.45 11.7812 100.45 12.4062V17.0938C100.45 18.9167 101.14 19.8281 102.52 19.8281C103.718 19.8281 104.317 18.9167 104.317 17.0938V12.4062C104.317 12.0417 104.057 11.651 103.536 11.2344V10.4531C103.536 9.67188 103.927 9.28125 104.708 9.28125H106.036V10.4531H105.098C104.838 10.4531 104.708 10.5833 104.708 10.8438C105.333 11.2604 105.645 11.7812 105.645 12.4062V17.0938C105.645 19.6979 104.604 21 102.52 21C101.218 21 100.307 20.4219 99.7859 19.2656C99.2651 20.4219 98.3536 21 97.0515 21C94.7859 21 93.6531 19.6979 93.6531 17.0938V13.1875C93.6531 11.3646 92.963 10.4531 91.5828 10.4531C90.3848 10.4531 89.7859 11.3646 89.7859 13.1875V17.5625ZM104.473 24.125C104.473 24.3854 104.552 24.5156 104.708 24.5156C104.864 24.5156 104.968 24.4948 105.02 24.4531C105.072 24.4167 105.098 24.3698 105.098 24.3125C105.098 24.2552 105.067 24.2109 105.005 24.1797C104.937 24.1536 104.838 24.1354 104.708 24.125H104.473ZM104.473 23.1094H104.966C105.341 23.1094 105.614 23.2005 105.786 23.3828C105.953 23.5651 106.036 23.9089 106.036 24.4141C106.036 24.7682 105.945 25.0286 105.762 25.1953C105.58 25.3672 105.281 25.4531 104.864 25.4531C103.927 25.4531 103.458 25.0495 103.458 24.2422V24.125H101.544C100.57 24.125 99.5932 23.8125 98.614 23.1875L99.0046 22.3281C99.8536 22.849 100.7 23.1094 101.544 23.1094H103.458V21.7812H104.473V23.1094ZM105.645 9.28125H107.208C109.291 9.28125 110.333 10.3229 110.333 12.4062V21H109.005V12.4062C109.005 11.1042 108.406 10.4531 107.208 10.4531H105.645V9.28125ZM115.411 11.4297C115.411 11.6224 115.46 11.7682 115.559 11.8672C115.658 11.9661 115.804 12.0156 115.997 12.0156C116.195 12.0156 116.341 11.9661 116.434 11.8672C116.533 11.7682 116.583 11.6224 116.583 11.4297C116.583 11.2318 116.533 11.0859 116.434 10.9922C116.341 10.8932 116.195 10.8438 115.997 10.8438C115.804 10.8438 115.658 10.8932 115.559 10.9922C115.46 11.0859 115.411 11.2318 115.411 11.4297ZM117.755 11.4297C117.755 12.0182 117.609 12.4583 117.317 12.75C117.025 13.0417 116.585 13.1875 115.997 13.1875C115.408 13.1875 114.968 13.0417 114.677 12.75C114.385 12.4583 114.239 12.0182 114.239 11.4297C114.239 10.8411 114.385 10.401 114.677 10.1094C114.968 9.81771 115.408 9.67188 115.997 9.67188C116.585 9.67188 117.025 9.81771 117.317 10.1094C117.609 10.401 117.755 10.8411 117.755 11.4297ZM115.411 18.8516C115.411 19.0443 115.46 19.1901 115.559 19.2891C115.658 19.388 115.804 19.4375 115.997 19.4375C116.195 19.4375 116.341 19.388 116.434 19.2891C116.533 19.1901 116.583 19.0443 116.583 18.8516C116.583 18.6536 116.533 18.5078 116.434 18.4141C116.341 18.3151 116.195 18.2656 115.997 18.2656C115.804 18.2656 115.658 18.3151 115.559 18.4141C115.46 18.5078 115.411 18.6536 115.411 18.8516ZM117.755 18.8516C117.755 19.4401 117.609 19.8802 117.317 20.1719C117.025 20.4635 116.585 20.6094 115.997 20.6094C115.408 20.6094 114.968 20.4635 114.677 20.1719C114.385 19.8802 114.239 19.4401 114.239 18.8516C114.239 18.263 114.385 17.8229 114.677 17.5312C114.968 17.2396 115.408 17.0938 115.997 17.0938C116.585 17.0938 117.025 17.2396 117.317 17.5312C117.609 17.8229 117.755 18.263 117.755 18.8516ZM128.38 16.3828C128.416 16.3932 128.453 16.3984 128.489 16.3984C128.624 16.3984 128.692 16.2917 128.692 16.0781C128.692 15.8698 128.64 15.7656 128.536 15.7656C128.432 15.7656 128.38 15.8672 128.38 16.0703V16.3828ZM128.38 17.0859V17.875C128.38 19.9583 127.442 21 125.567 21C123.692 21 122.755 19.9583 122.755 17.875V16.3125H124.083V17.875C124.083 19.1771 124.578 19.8281 125.567 19.8281C126.557 19.8281 127.052 19.1771 127.052 17.875V16.8984C123.458 15.862 121.661 14.3646 121.661 12.4062C121.661 10.3229 122.963 9.28125 125.567 9.28125C128.171 9.28125 129.473 10.3229 129.473 12.4062C129.473 13.8594 128.749 14.5859 127.302 14.5859C126.973 14.5859 126.708 14.5104 126.505 14.3594V13.1875C126.874 13.2969 127.177 13.3516 127.411 13.3516C127.9 13.3516 128.145 13.0365 128.145 12.4062C128.145 11.1042 127.286 10.4531 125.567 10.4531C123.848 10.4531 122.989 11.1042 122.989 12.4062C122.989 14.0156 124.343 15.1484 127.052 15.8047C127.052 15.3099 127.416 15.0625 128.145 15.0625C129.031 15.0625 129.473 15.388 129.473 16.0391C129.473 16.4297 129.385 16.7057 129.208 16.8672C129.031 17.0286 128.841 17.1094 128.637 17.1094C128.554 17.1094 128.468 17.1016 128.38 17.0859ZM125.177 5.17969C125.177 5.3724 125.226 5.51823 125.325 5.61719C125.424 5.71615 125.57 5.76562 125.762 5.76562C125.96 5.76562 126.109 5.71615 126.208 5.61719C126.302 5.51823 126.348 5.3724 126.348 5.17969C126.348 4.98177 126.302 4.83594 126.208 4.74219C126.109 4.64323 125.96 4.59375 125.762 4.59375C125.57 4.59375 125.424 4.64323 125.325 4.74219C125.226 4.83594 125.177 4.98177 125.177 5.17969ZM127.52 5.17969C127.52 5.76823 127.374 6.20833 127.083 6.5C126.791 6.79167 126.351 6.9375 125.762 6.9375C125.174 6.9375 124.734 6.79167 124.442 6.5C124.15 6.20833 124.005 5.76823 124.005 5.17969C124.005 4.59115 124.15 4.15104 124.442 3.85938C124.734 3.56771 125.174 3.42188 125.762 3.42188C126.351 3.42188 126.791 3.56771 127.083 3.85938C127.374 4.15104 127.52 4.59115 127.52 5.17969ZM134.552 18.6562V19.8281C134.661 19.8281 134.752 19.7995 134.825 19.7422C134.903 19.6797 134.942 19.513 134.942 19.2422C134.942 18.9714 134.903 18.8073 134.825 18.75C134.752 18.6875 134.661 18.6562 134.552 18.6562ZM133.38 11.625L135.411 9.28125L137.286 10.8438L139.161 9.28125L141.192 11.625V21H139.864V11.9375L139.083 10.9609L137.286 12.25L135.489 10.9609L134.708 11.9375V17.5625C134.828 17.5104 134.966 17.4844 135.122 17.4844C135.278 17.4844 135.442 17.625 135.614 17.9062C135.791 18.1823 135.88 18.6276 135.88 19.2422C135.88 19.8568 135.765 20.3047 135.536 20.5859C135.312 20.862 135.01 21 134.63 21C134.249 21 133.947 20.8594 133.723 20.5781C133.546 20.3646 133.437 20.0495 133.395 19.6328H133.38V11.625ZM138.067 5.25781C138.067 5.59635 138.523 5.76562 139.434 5.76562C140.606 5.76562 141.192 5.11458 141.192 3.8125V2.79688H142.364V3.8125C142.364 5.89583 141.387 6.9375 139.434 6.9375C137.742 6.9375 136.895 6.3776 136.895 5.25781C136.895 4.29427 137.307 3.8125 138.13 3.8125C138.614 3.8125 138.984 3.88802 139.239 4.03906L139.005 4.97656C138.791 4.86719 138.596 4.8125 138.419 4.8125C138.184 4.8125 138.067 4.96094 138.067 5.25781ZM145.098 19.8281V18.6562H144.903C144.846 18.6562 144.799 18.6823 144.762 18.7344C144.726 18.7812 144.708 18.9505 144.708 19.2422C144.708 19.5339 144.726 19.7057 144.762 19.7578C144.799 19.8047 144.846 19.8281 144.903 19.8281H145.098ZM146.427 12.4062V19.2422C146.427 19.9089 146.338 20.3698 146.161 20.625C145.989 20.875 145.661 21 145.177 21C144.692 21 144.361 20.875 144.184 20.625C144.012 20.3698 143.927 19.9089 143.927 19.2422C143.927 18.5755 144.012 18.1172 144.184 17.8672C144.361 17.612 144.601 17.4844 144.903 17.4844C144.971 17.4844 145.036 17.4896 145.098 17.5V12.4062C144.994 12.0417 144.734 11.651 144.317 11.2344V10.4531C144.317 9.67188 144.708 9.28125 145.489 9.28125H146.817V10.4531H145.88C145.619 10.4531 145.489 10.5833 145.489 10.8438C146.114 11.2604 146.427 11.7812 146.427 12.4062ZM157.052 16.3828C157.088 16.3932 157.124 16.3984 157.161 16.3984C157.296 16.3984 157.364 16.2917 157.364 16.0781C157.364 15.8698 157.312 15.7656 157.208 15.7656C157.104 15.7656 157.052 15.8672 157.052 16.0703V16.3828ZM157.052 17.0859V17.875C157.052 19.9583 156.114 21 154.239 21C152.364 21 151.427 19.9583 151.427 17.875V16.3125H152.755V17.875C152.755 19.1771 153.249 19.8281 154.239 19.8281C155.229 19.8281 155.723 19.1771 155.723 17.875V16.8984C152.13 15.862 150.333 14.3646 150.333 12.4062C150.333 10.3229 151.635 9.28125 154.239 9.28125C156.843 9.28125 158.145 10.3229 158.145 12.4062C158.145 13.8594 157.421 14.5859 155.973 14.5859C155.645 14.5859 155.38 14.5104 155.177 14.3594V13.1875C155.546 13.2969 155.848 13.3516 156.083 13.3516C156.572 13.3516 156.817 13.0365 156.817 12.4062C156.817 11.1042 155.958 10.4531 154.239 10.4531C152.52 10.4531 151.661 11.1042 151.661 12.4062C151.661 14.0156 153.015 15.1484 155.723 15.8047C155.723 15.3099 156.088 15.0625 156.817 15.0625C157.703 15.0625 158.145 15.388 158.145 16.0391C158.145 16.4297 158.057 16.7057 157.88 16.8672C157.703 17.0286 157.512 17.1094 157.309 17.1094C157.226 17.1094 157.14 17.1016 157.052 17.0859ZM153.458 5.92188H156.973C155.677 5.03646 154.635 4.59375 153.848 4.59375C152.807 4.59375 152.286 4.8151 152.286 5.25781C152.286 5.70052 152.677 5.92188 153.458 5.92188ZM156.973 4.63281V2.64062H158.145V6.9375H153.067C151.765 6.9375 151.114 6.41667 151.114 5.375C151.114 4.07292 152.025 3.42188 153.848 3.42188C154.89 3.42188 155.867 3.77344 156.778 4.47656C156.846 4.52865 156.911 4.58073 156.973 4.63281ZM169.723 19.8281C171.703 19.8281 172.692 18.1354 172.692 14.75C172.692 11.8854 171.833 10.4531 170.114 10.4531C168.395 10.4531 167.536 11.3646 167.536 13.1875C167.536 13.5052 167.596 13.7865 167.716 14.0312C167.841 14.2708 168.101 14.3906 168.497 14.3906C168.872 14.3906 169.109 14.3359 169.208 14.2266C169.286 14.138 169.325 14.0521 169.325 13.9688C169.325 13.9427 169.322 13.9193 169.317 13.8984C169.291 13.7891 169.249 13.7344 169.192 13.7344C169.135 13.7344 168.981 13.8203 168.731 13.9922L168.387 13.0938C168.752 12.8281 169.08 12.6953 169.372 12.6953C169.69 12.6953 169.937 12.7891 170.114 12.9766C170.291 13.1641 170.38 13.4922 170.38 13.9609C170.38 14.2214 170.312 14.5 170.177 14.7969C170.046 15.0938 169.828 15.3047 169.52 15.4297C169.213 15.5495 168.893 15.6094 168.559 15.6094C168.169 15.6094 167.804 15.5521 167.466 15.4375C167.132 15.3229 166.838 15.0885 166.583 14.7344C166.333 14.375 166.208 13.8594 166.208 13.1875C166.208 10.5833 167.51 9.28125 170.114 9.28125C172.718 9.28125 174.02 11.1042 174.02 14.75C174.02 18.9167 172.588 21 169.723 21C168.656 21 167.718 20.7135 166.911 20.1406L167.302 19.0469C167.874 19.5677 168.682 19.8281 169.723 19.8281Z" fill="#1C4076"/>
<path fill-rule="evenodd" clip-rule="evenodd" d="M184.423 9.40253C184.471 9.35418 184.528 9.31582 184.591 9.28965C184.654 9.26347 184.722 9.25 184.79 9.25C184.859 9.25 184.926 9.26347 184.989 9.28965C185.052 9.31582 185.11 9.35418 185.158 9.40253L191.388 15.6326C191.436 15.6808 191.475 15.7381 191.501 15.8012C191.527 15.8642 191.54 15.9318 191.54 16.0001C191.54 16.0684 191.527 16.136 191.501 16.1991C191.475 16.2622 191.436 16.3195 191.388 16.3677L185.158 22.5977C185.06 22.6952 184.928 22.75 184.79 22.75C184.652 22.75 184.52 22.6952 184.423 22.5977C184.325 22.5003 184.271 22.368 184.271 22.2302C184.271 22.0923 184.325 21.9601 184.423 21.8626L190.286 16.0001L184.423 10.1377C184.374 10.0894 184.336 10.0322 184.31 9.96908C184.284 9.906 184.27 9.83839 184.27 9.7701C184.27 9.70181 184.284 9.63419 184.31 9.57112C184.336 9.50804 184.374 9.45075 184.423 9.40253Z" fill="#344054"/>
<path d="M203.017 19.8281C203.074 19.8281 203.121 19.8047 203.158 19.7578C203.194 19.7057 203.212 19.5339 203.212 19.2422C203.212 18.9505 203.194 18.7812 203.158 18.7344C203.121 18.6823 203.074 18.6562 203.017 18.6562H202.822V19.8281H203.017ZM202.822 17.5C202.884 17.4896 202.949 17.4844 203.017 17.4844C203.319 17.4844 203.556 17.612 203.728 17.8672C203.905 18.1172 203.994 18.5755 203.994 19.2422C203.994 19.9089 203.905 20.3698 203.728 20.625C203.556 20.875 203.228 21 202.744 21C202.259 21 201.929 20.875 201.751 20.625C201.58 20.3698 201.494 19.9089 201.494 19.2422V12.4062C201.389 12.0417 201.129 11.651 200.712 11.2344V10.4531C200.712 9.67188 201.103 9.28125 201.884 9.28125H203.212V10.4531H202.275C202.014 10.4531 201.884 10.5833 201.884 10.8438C202.509 11.2604 202.822 11.7812 202.822 12.4062V17.5ZM207.9 18.6562V19.8281C208.009 19.8281 208.1 19.7995 208.173 19.7422C208.251 19.6797 208.291 19.513 208.291 19.2422C208.291 18.9714 208.251 18.8073 208.173 18.75C208.1 18.6875 208.009 18.6562 207.9 18.6562ZM208.056 17.5625C208.176 17.5104 208.314 17.4844 208.47 17.4844C208.626 17.4844 208.791 17.625 208.962 17.9062C209.139 18.1823 209.228 18.6276 209.228 19.2422C209.228 19.8568 209.113 20.3047 208.884 20.5859C208.66 20.862 208.358 21 207.978 21C207.598 21 207.296 20.8594 207.072 20.5781C206.895 20.3646 206.785 20.0495 206.744 19.6328H206.728V13.1875C206.728 10.5833 207.77 9.28125 209.853 9.28125C212.119 9.28125 213.251 10.5833 213.251 13.1875V17.0938C213.251 18.9167 213.942 19.8281 215.322 19.8281C216.702 19.8281 217.392 18.9167 217.392 17.0938V12.4062C217.392 12.0417 217.132 11.651 216.611 11.2344V10.4531C216.611 9.67188 217.001 9.28125 217.783 9.28125H219.111V10.4531H218.173C217.913 10.4531 217.783 10.5833 217.783 10.8438C218.408 11.2604 218.72 11.7812 218.72 12.4062V17.0938C218.72 18.9167 219.41 19.8281 220.791 19.8281C221.988 19.8281 222.587 18.9167 222.587 17.0938V12.4062C222.587 12.0417 222.327 11.651 221.806 11.2344V10.4531C221.806 9.67188 222.197 9.28125 222.978 9.28125H224.306V10.4531H223.369C223.108 10.4531 222.978 10.5833 222.978 10.8438C223.603 11.2604 223.916 11.7812 223.916 12.4062V17.0938C223.916 19.6979 222.874 21 220.791 21C219.488 21 218.577 20.4219 218.056 19.2656C217.535 20.4219 216.624 21 215.322 21C213.056 21 211.923 19.6979 211.923 17.0938V13.1875C211.923 11.3646 211.233 10.4531 209.853 10.4531C208.655 10.4531 208.056 11.3646 208.056 13.1875V17.5625ZM222.744 24.125C222.744 24.3854 222.822 24.5156 222.978 24.5156C223.134 24.5156 223.238 24.4948 223.291 24.4531C223.343 24.4167 223.369 24.3698 223.369 24.3125C223.369 24.2552 223.337 24.2109 223.275 24.1797C223.207 24.1536 223.108 24.1354 222.978 24.125H222.744ZM222.744 23.1094H223.236C223.611 23.1094 223.884 23.2005 224.056 23.3828C224.223 23.5651 224.306 23.9089 224.306 24.4141C224.306 24.7682 224.215 25.0286 224.033 25.1953C223.85 25.3672 223.551 25.4531 223.134 25.4531C222.197 25.4531 221.728 25.0495 221.728 24.2422V24.125H219.814C218.84 24.125 217.863 23.8125 216.884 23.1875L217.275 22.3281C218.124 22.849 218.97 23.1094 219.814 23.1094H221.728V21.7812H222.744V23.1094ZM223.916 9.28125H225.478C227.561 9.28125 228.603 10.3229 228.603 12.4062V21H227.275V12.4062C227.275 11.1042 226.676 10.4531 225.478 10.4531H223.916V9.28125ZM233.681 11.4297C233.681 11.6224 233.731 11.7682 233.83 11.8672C233.929 11.9661 234.074 12.0156 234.267 12.0156C234.465 12.0156 234.611 11.9661 234.705 11.8672C234.804 11.7682 234.853 11.6224 234.853 11.4297C234.853 11.2318 234.804 11.0859 234.705 10.9922C234.611 10.8932 234.465 10.8438 234.267 10.8438C234.074 10.8438 233.929 10.8932 233.83 10.9922C233.731 11.0859 233.681 11.2318 233.681 11.4297ZM236.025 11.4297C236.025 12.0182 235.879 12.4583 235.587 12.75C235.296 13.0417 234.856 13.1875 234.267 13.1875C233.679 13.1875 233.238 13.0417 232.947 12.75C232.655 12.4583 232.509 12.0182 232.509 11.4297C232.509 10.8411 232.655 10.401 232.947 10.1094C233.238 9.81771 233.679 9.67188 234.267 9.67188C234.856 9.67188 235.296 9.81771 235.587 10.1094C235.879 10.401 236.025 10.8411 236.025 11.4297ZM233.681 18.8516C233.681 19.0443 233.731 19.1901 233.83 19.2891C233.929 19.388 234.074 19.4375 234.267 19.4375C234.465 19.4375 234.611 19.388 234.705 19.2891C234.804 19.1901 234.853 19.0443 234.853 18.8516C234.853 18.6536 234.804 18.5078 234.705 18.4141C234.611 18.3151 234.465 18.2656 234.267 18.2656C234.074 18.2656 233.929 18.3151 233.83 18.4141C233.731 18.5078 233.681 18.6536 233.681 18.8516ZM236.025 18.8516C236.025 19.4401 235.879 19.8802 235.587 20.1719C235.296 20.4635 234.856 20.6094 234.267 20.6094C233.679 20.6094 233.238 20.4635 232.947 20.1719C232.655 19.8802 232.509 19.4401 232.509 18.8516C232.509 18.263 232.655 17.8229 232.947 17.5312C233.238 17.2396 233.679 17.0938 234.267 17.0938C234.856 17.0938 235.296 17.2396 235.587 17.5312C235.879 17.8229 236.025 18.263 236.025 18.8516ZM246.65 16.3828C246.686 16.3932 246.723 16.3984 246.759 16.3984C246.895 16.3984 246.962 16.2917 246.962 16.0781C246.962 15.8698 246.91 15.7656 246.806 15.7656C246.702 15.7656 246.65 15.8672 246.65 16.0703V16.3828ZM246.65 17.0859V17.875C246.65 19.9583 245.712 21 243.837 21C241.962 21 241.025 19.9583 241.025 17.875V16.3125H242.353V17.875C242.353 19.1771 242.848 19.8281 243.837 19.8281C244.827 19.8281 245.322 19.1771 245.322 17.875V16.8984C241.728 15.862 239.931 14.3646 239.931 12.4062C239.931 10.3229 241.233 9.28125 243.837 9.28125C246.442 9.28125 247.744 10.3229 247.744 12.4062C247.744 13.8594 247.02 14.5859 245.572 14.5859C245.244 14.5859 244.978 14.5104 244.775 14.3594V13.1875C245.145 13.2969 245.447 13.3516 245.681 13.3516C246.171 13.3516 246.416 13.0365 246.416 12.4062C246.416 11.1042 245.556 10.4531 243.837 10.4531C242.119 10.4531 241.259 11.1042 241.259 12.4062C241.259 14.0156 242.613 15.1484 245.322 15.8047C245.322 15.3099 245.686 15.0625 246.416 15.0625C247.301 15.0625 247.744 15.388 247.744 16.0391C247.744 16.4297 247.655 16.7057 247.478 16.8672C247.301 17.0286 247.111 17.1094 246.908 17.1094C246.824 17.1094 246.738 17.1016 246.65 17.0859ZM243.447 5.17969C243.447 5.3724 243.496 5.51823 243.595 5.61719C243.694 5.71615 243.84 5.76562 244.033 5.76562C244.231 5.76562 244.379 5.71615 244.478 5.61719C244.572 5.51823 244.619 5.3724 244.619 5.17969C244.619 4.98177 244.572 4.83594 244.478 4.74219C244.379 4.64323 244.231 4.59375 244.033 4.59375C243.84 4.59375 243.694 4.64323 243.595 4.74219C243.496 4.83594 243.447 4.98177 243.447 5.17969ZM245.791 5.17969C245.791 5.76823 245.645 6.20833 245.353 6.5C245.061 6.79167 244.621 6.9375 244.033 6.9375C243.444 6.9375 243.004 6.79167 242.712 6.5C242.421 6.20833 242.275 5.76823 242.275 5.17969C242.275 4.59115 242.421 4.15104 242.712 3.85938C243.004 3.56771 243.444 3.42188 244.033 3.42188C244.621 3.42188 245.061 3.56771 245.353 3.85938C245.645 4.15104 245.791 4.59115 245.791 5.17969ZM252.822 18.6562V19.8281C252.931 19.8281 253.022 19.7995 253.095 19.7422C253.173 19.6797 253.212 19.513 253.212 19.2422C253.212 18.9714 253.173 18.8073 253.095 18.75C253.022 18.6875 252.931 18.6562 252.822 18.6562ZM251.65 11.625L253.681 9.28125L255.556 10.8438L257.431 9.28125L259.462 11.625V21H258.134V11.9375L257.353 10.9609L255.556 12.25L253.759 10.9609L252.978 11.9375V17.5625C253.098 17.5104 253.236 17.4844 253.392 17.4844C253.548 17.4844 253.712 17.625 253.884 17.9062C254.061 18.1823 254.15 18.6276 254.15 19.2422C254.15 19.8568 254.035 20.3047 253.806 20.5859C253.582 20.862 253.28 21 252.9 21C252.52 21 252.218 20.8594 251.994 20.5781C251.817 20.3646 251.707 20.0495 251.666 19.6328H251.65V11.625ZM256.337 5.25781C256.337 5.59635 256.793 5.76562 257.705 5.76562C258.876 5.76562 259.462 5.11458 259.462 3.8125V2.79688H260.634V3.8125C260.634 5.89583 259.658 6.9375 257.705 6.9375C256.012 6.9375 255.166 6.3776 255.166 5.25781C255.166 4.29427 255.577 3.8125 256.4 3.8125C256.884 3.8125 257.254 3.88802 257.509 4.03906L257.275 4.97656C257.061 4.86719 256.866 4.8125 256.689 4.8125C256.455 4.8125 256.337 4.96094 256.337 5.25781ZM263.369 19.8281V18.6562H263.173C263.116 18.6562 263.069 18.6823 263.033 18.7344C262.996 18.7812 262.978 18.9505 262.978 19.2422C262.978 19.5339 262.996 19.7057 263.033 19.7578C263.069 19.8047 263.116 19.8281 263.173 19.8281H263.369ZM264.697 12.4062V19.2422C264.697 19.9089 264.608 20.3698 264.431 20.625C264.259 20.875 263.931 21 263.447 21C262.962 21 262.632 20.875 262.455 20.625C262.283 20.3698 262.197 19.9089 262.197 19.2422C262.197 18.5755 262.283 18.1172 262.455 17.8672C262.632 17.612 262.871 17.4844 263.173 17.4844C263.241 17.4844 263.306 17.4896 263.369 17.5V12.4062C263.264 12.0417 263.004 11.651 262.587 11.2344V10.4531C262.587 9.67188 262.978 9.28125 263.759 9.28125H265.087V10.4531H264.15C263.889 10.4531 263.759 10.5833 263.759 10.8438C264.384 11.2604 264.697 11.7812 264.697 12.4062ZM275.322 16.3828C275.358 16.3932 275.395 16.3984 275.431 16.3984C275.567 16.3984 275.634 16.2917 275.634 16.0781C275.634 15.8698 275.582 15.7656 275.478 15.7656C275.374 15.7656 275.322 15.8672 275.322 16.0703V16.3828ZM275.322 17.0859V17.875C275.322 19.9583 274.384 21 272.509 21C270.634 21 269.697 19.9583 269.697 17.875V16.3125H271.025V17.875C271.025 19.1771 271.52 19.8281 272.509 19.8281C273.499 19.8281 273.994 19.1771 273.994 17.875V16.8984C270.4 15.862 268.603 14.3646 268.603 12.4062C268.603 10.3229 269.905 9.28125 272.509 9.28125C275.113 9.28125 276.416 10.3229 276.416 12.4062C276.416 13.8594 275.692 14.5859 274.244 14.5859C273.916 14.5859 273.65 14.5104 273.447 14.3594V13.1875C273.817 13.2969 274.119 13.3516 274.353 13.3516C274.843 13.3516 275.087 13.0365 275.087 12.4062C275.087 11.1042 274.228 10.4531 272.509 10.4531C270.791 10.4531 269.931 11.1042 269.931 12.4062C269.931 14.0156 271.285 15.1484 273.994 15.8047C273.994 15.3099 274.358 15.0625 275.087 15.0625C275.973 15.0625 276.416 15.388 276.416 16.0391C276.416 16.4297 276.327 16.7057 276.15 16.8672C275.973 17.0286 275.783 17.1094 275.58 17.1094C275.496 17.1094 275.41 17.1016 275.322 17.0859ZM271.728 5.92188H275.244C273.947 5.03646 272.905 4.59375 272.119 4.59375C271.077 4.59375 270.556 4.8151 270.556 5.25781C270.556 5.70052 270.947 5.92188 271.728 5.92188ZM275.244 4.63281V2.64062H276.416V6.9375H271.337C270.035 6.9375 269.384 6.41667 269.384 5.375C269.384 4.07292 270.296 3.42188 272.119 3.42188C273.16 3.42188 274.137 3.77344 275.048 4.47656C275.116 4.52865 275.181 4.58073 275.244 4.63281ZM288.15 14.3984C288.259 14.3984 288.35 14.3646 288.423 14.2969C288.501 14.2292 288.541 14.1328 288.541 14.0078C288.541 13.8828 288.501 13.7865 288.423 13.7188C288.35 13.651 288.259 13.6172 288.15 13.6172V14.3984ZM286.822 11.3125L288.462 9.28125L289.947 10.8438L291.431 9.28125L293.072 11.3125V17.0938C293.072 19.6979 291.639 21 288.775 21C285.91 21 284.478 19.6979 284.478 17.0938V9.67188C284.478 9.15104 284.218 8.89062 283.697 8.89062H283.306V7.71875H284.244C285.285 7.71875 285.806 8.23958 285.806 9.28125V17.0938C285.806 18.9167 286.796 19.8281 288.775 19.8281C290.754 19.8281 291.744 18.9167 291.744 17.0938V11.625L291.197 10.9609L289.947 12.25L288.697 10.9609L288.15 11.625V12.6953C288.202 12.6901 288.254 12.6875 288.306 12.6875C288.66 12.6875 288.923 12.7995 289.095 13.0234C289.298 13.2734 289.4 13.6016 289.4 14.0078C289.4 14.4141 289.298 14.7448 289.095 15C288.897 15.25 288.569 15.375 288.111 15.375C287.653 15.375 287.322 15.25 287.119 15C286.921 14.7448 286.822 14.4141 286.822 14.0078V11.3125Z" fill="#1C4076"/>
<path fill-rule="evenodd" clip-rule="evenodd" d="M303.693 9.40253C303.741 9.35418 303.799 9.31582 303.862 9.28965C303.925 9.26347 303.992 9.25 304.061 9.25C304.129 9.25 304.197 9.26347 304.26 9.28965C304.323 9.31582 304.38 9.35418 304.428 9.40253L310.658 15.6326C310.707 15.6808 310.745 15.7381 310.771 15.8012C310.797 15.8642 310.811 15.9318 310.811 16.0001C310.811 16.0684 310.797 16.136 310.771 16.1991C310.745 16.2622 310.707 16.3195 310.658 16.3677L304.428 22.5977C304.331 22.6952 304.198 22.75 304.061 22.75C303.923 22.75 303.791 22.6952 303.693 22.5977C303.596 22.5003 303.541 22.368 303.541 22.2302C303.541 22.0923 303.596 21.9601 303.693 21.8626L309.557 16.0001L303.693 10.1377C303.645 10.0894 303.606 10.0322 303.58 9.96908C303.554 9.906 303.541 9.83839 303.541 9.7701C303.541 9.70181 303.554 9.63419 303.58 9.57112C303.606 9.50804 303.645 9.45075 303.693 9.40253Z" fill="#1C4076"/>
<path d="M322.639 18.8906C322.592 18.8229 322.488 18.7839 322.326 18.7734V19.6641C322.488 19.6641 322.592 19.6302 322.639 19.5625C322.691 19.4896 322.717 19.3776 322.717 19.2266C322.717 19.0703 322.691 18.9583 322.639 18.8906ZM322.717 17.4375C323.113 17.4688 323.407 17.625 323.6 17.9062C323.793 18.1823 323.889 18.6276 323.889 19.2422C323.889 19.8568 323.753 20.3047 323.483 20.5859C323.212 20.862 322.826 21 322.326 21C321.826 21 321.441 20.862 321.17 20.5859C320.899 20.3047 320.764 19.8568 320.764 19.2422V12.4062C320.764 11.9792 320.503 11.5573 319.983 11.1406V10.4531C319.983 9.67188 320.477 9.28125 321.467 9.28125H323.108V10.8438H321.78V10.9375C322.405 11.3542 322.717 11.8438 322.717 12.4062V17.4375ZM328.186 19.6641C328.347 19.6641 328.451 19.6302 328.498 19.5625C328.55 19.4896 328.576 19.3776 328.576 19.2266C328.576 19.0703 328.55 18.9583 328.498 18.8906C328.451 18.8229 328.347 18.7839 328.186 18.7734V19.6641ZM326.623 13.1875C326.623 10.5833 327.816 9.28125 330.201 9.28125C332.582 9.28125 333.772 10.5833 333.772 13.1875V17.0938C333.772 18.6562 334.358 19.4375 335.53 19.4375C336.701 19.4375 337.287 18.6562 337.287 17.0938V12.4062C337.287 11.9792 337.027 11.5573 336.506 11.1406V10.4531C336.506 9.67188 337.001 9.28125 337.99 9.28125H339.631V10.8438H338.303V10.9375C338.928 11.3542 339.24 11.8438 339.24 12.4062V17.0938C339.24 18.6562 339.826 19.4375 340.998 19.4375C341.988 19.4375 342.483 18.6562 342.483 17.0938V12.4062C342.483 11.9792 342.222 11.5573 341.701 11.1406V10.4531C341.701 9.67188 342.196 9.28125 343.186 9.28125H344.826V10.8438H343.498V10.9375C344.123 11.3542 344.436 11.8438 344.436 12.4062V17.0938C344.436 19.6979 343.29 21 340.998 21C339.509 21 338.597 20.6328 338.264 19.8984C337.931 20.6328 337.019 21 335.53 21C333.056 21 331.819 19.6979 331.819 17.0938V13.1875C331.819 11.625 331.28 10.8438 330.201 10.8438C329.118 10.8438 328.576 11.625 328.576 13.1875V17.4375C328.972 17.4688 329.267 17.625 329.459 17.9062C329.652 18.1823 329.748 18.6276 329.748 19.2422C329.748 19.7526 329.613 20.1745 329.342 20.5078C329.071 20.8359 328.686 21 328.186 21C327.686 21 327.3 20.849 327.03 20.5469C326.759 20.2396 326.623 19.8047 326.623 19.2422V13.1875ZM343.264 24.125C343.264 24.3177 343.324 24.4141 343.444 24.4141C343.569 24.4141 343.652 24.3984 343.694 24.3672C343.73 24.3411 343.748 24.3073 343.748 24.2656C343.748 24.224 343.725 24.1901 343.678 24.1641C343.626 24.1432 343.548 24.1302 343.444 24.125H343.264ZM343.264 22.7188H343.522C343.897 22.7188 344.209 22.8359 344.459 23.0703C344.704 23.3047 344.826 23.6745 344.826 24.1797C344.826 24.5859 344.709 24.8984 344.475 25.1172C344.24 25.3411 343.889 25.4531 343.42 25.4531C342.222 25.4531 341.623 25.0495 341.623 24.2422V24.125H339.944C338.97 24.125 337.993 23.8125 337.014 23.1875L337.405 21.7031C338.253 22.3802 339.1 22.7188 339.944 22.7188H341.623V21.7812H343.264V22.7188ZM344.436 9.28125H346.311C348.967 9.28125 350.295 10.3229 350.295 12.4062V21H348.342V12.4062C348.342 11.3646 347.665 10.8438 346.311 10.8438H344.436V9.28125ZM355.569 11.4297C355.569 11.5599 355.602 11.6562 355.67 11.7188C355.733 11.7865 355.829 11.8203 355.959 11.8203C356.089 11.8203 356.186 11.7865 356.248 11.7188C356.316 11.6562 356.35 11.5599 356.35 11.4297C356.35 11.2995 356.316 11.2031 356.248 11.1406C356.186 11.0729 356.089 11.0391 355.959 11.0391C355.829 11.0391 355.733 11.0729 355.67 11.1406C355.602 11.2031 355.569 11.2995 355.569 11.4297ZM357.717 11.4297C357.717 12.0182 357.571 12.4583 357.28 12.75C356.988 13.0417 356.548 13.1875 355.959 13.1875C355.371 13.1875 354.931 13.0417 354.639 12.75C354.347 12.4583 354.201 12.0182 354.201 11.4297C354.201 10.8411 354.347 10.401 354.639 10.1094C354.931 9.81771 355.371 9.67188 355.959 9.67188C356.548 9.67188 356.988 9.81771 357.28 10.1094C357.571 10.401 357.717 10.8411 357.717 11.4297ZM355.569 18.8516C355.569 18.9818 355.602 19.0781 355.67 19.1406C355.733 19.2083 355.829 19.2422 355.959 19.2422C356.089 19.2422 356.186 19.2083 356.248 19.1406C356.316 19.0781 356.35 18.9818 356.35 18.8516C356.35 18.7214 356.316 18.625 356.248 18.5625C356.186 18.4948 356.089 18.4609 355.959 18.4609C355.829 18.4609 355.733 18.4948 355.67 18.5625C355.602 18.625 355.569 18.7214 355.569 18.8516ZM357.717 18.8516C357.717 19.4401 357.571 19.8802 357.28 20.1719C356.988 20.4635 356.548 20.6094 355.959 20.6094C355.371 20.6094 354.931 20.4635 354.639 20.1719C354.347 19.8802 354.201 19.4401 354.201 18.8516C354.201 18.263 354.347 17.8229 354.639 17.5312C354.931 17.2396 355.371 17.0938 355.959 17.0938C356.548 17.0938 356.988 17.2396 357.28 17.5312C357.571 17.8229 357.717 18.263 357.717 18.8516ZM368.889 16.2031C368.889 16.0521 368.837 15.9766 368.733 15.9766C368.628 15.9766 368.576 16.0547 368.576 16.2109C368.576 16.4089 368.681 16.5182 368.889 16.5391V16.2031ZM368.967 17.5391V17.875C368.967 19.9583 367.925 21 365.842 21C363.759 21 362.717 19.9583 362.717 17.875V16.3125H364.67V17.875C364.67 18.9167 365.061 19.4375 365.842 19.4375C366.623 19.4375 367.014 18.9167 367.014 17.875V17.2266C363.42 15.9297 361.623 14.3229 361.623 12.4062C361.623 10.3229 363.03 9.28125 365.842 9.28125C368.655 9.28125 370.061 10.3229 370.061 12.4062C370.061 13.8594 369.233 14.5859 367.576 14.5859C367.123 14.5859 366.753 14.4792 366.467 14.2656V12.6016C367.102 12.7891 367.509 12.8828 367.686 12.8828C367.967 12.8828 368.108 12.724 368.108 12.4062C368.108 11.3646 367.352 10.8438 365.842 10.8438C364.332 10.8438 363.576 11.3646 363.576 12.4062C363.576 14.0521 364.722 15.1536 367.014 15.7109C367.014 15.2786 367.483 15.0625 368.42 15.0625C369.514 15.0625 370.061 15.388 370.061 16.0391C370.061 16.6276 369.954 17.0182 369.74 17.2109C369.532 17.4036 369.274 17.513 368.967 17.5391ZM365.334 5.17969C365.334 5.3099 365.368 5.40625 365.436 5.46875C365.498 5.53646 365.595 5.57031 365.725 5.57031C365.855 5.57031 365.954 5.53646 366.022 5.46875C366.084 5.40625 366.115 5.3099 366.115 5.17969C366.115 5.04948 366.084 4.95312 366.022 4.89062C365.954 4.82292 365.855 4.78906 365.725 4.78906C365.595 4.78906 365.498 4.82292 365.436 4.89062C365.368 4.95312 365.334 5.04948 365.334 5.17969ZM367.483 5.17969C367.483 5.76823 367.337 6.20833 367.045 6.5C366.753 6.79167 366.313 6.9375 365.725 6.9375C365.136 6.9375 364.696 6.79167 364.405 6.5C364.113 6.20833 363.967 5.76823 363.967 5.17969C363.967 4.59115 364.113 4.15104 364.405 3.85938C364.696 3.56771 365.136 3.42188 365.725 3.42188C366.313 3.42188 366.753 3.56771 367.045 3.85938C367.337 4.15104 367.483 4.59115 367.483 5.17969ZM375.53 19.6641C375.691 19.6641 375.795 19.6302 375.842 19.5625C375.894 19.4896 375.92 19.3776 375.92 19.2266C375.92 19.0703 375.894 18.9583 375.842 18.8906C375.795 18.8229 375.691 18.7839 375.53 18.7734V19.6641ZM373.967 11.7109L376.256 9.07031L378.186 10.6797L380.115 9.07031L382.405 11.7109V21H380.451V12.2422L379.897 11.5469L378.186 12.7734L376.475 11.5469L375.92 12.2422V17.4375C376.316 17.4688 376.61 17.625 376.803 17.9062C376.996 18.1823 377.092 18.6276 377.092 19.2422C377.092 19.7526 376.957 20.1745 376.686 20.5078C376.415 20.8359 376.03 21 375.53 21C375.03 21 374.644 20.849 374.373 20.5469C374.102 20.2396 373.967 19.8047 373.967 19.2422V11.7109ZM379.67 5.10156C379.67 5.28385 379.996 5.375 380.647 5.375C381.558 5.375 382.014 4.85417 382.014 3.8125V2.79688H383.576V3.8125C383.576 5.89583 382.6 6.9375 380.647 6.9375C378.954 6.9375 378.108 6.3776 378.108 5.25781C378.108 4.29427 378.571 3.8125 379.498 3.8125C379.878 3.8125 380.196 3.88802 380.451 4.03906L380.217 4.97656C380.108 4.86719 379.99 4.8125 379.865 4.8125C379.735 4.8125 379.67 4.90885 379.67 5.10156ZM386.701 18.7734C386.54 18.7839 386.433 18.8229 386.381 18.8906C386.334 18.9583 386.311 19.0703 386.311 19.2266C386.311 19.3776 386.334 19.4896 386.381 19.5625C386.433 19.6302 386.54 19.6641 386.701 19.6641V18.7734ZM386.311 12.4062C386.311 11.9792 386.05 11.5573 385.53 11.1406V10.4531C385.53 9.67188 386.024 9.28125 387.014 9.28125H388.655V10.8438H387.326V10.9375C387.951 11.3542 388.264 11.8438 388.264 12.4062V19.2422C388.264 19.8568 388.128 20.3047 387.858 20.5859C387.587 20.862 387.201 21 386.701 21C386.201 21 385.816 20.862 385.545 20.5859C385.274 20.3047 385.139 19.8568 385.139 19.2422C385.139 18.6276 385.235 18.1823 385.428 17.9062C385.621 17.625 385.915 17.4688 386.311 17.4375V12.4062ZM399.436 16.2031C399.436 16.0521 399.384 15.9766 399.28 15.9766C399.175 15.9766 399.123 16.0547 399.123 16.2109C399.123 16.4089 399.227 16.5182 399.436 16.5391V16.2031ZM399.514 17.5391V17.875C399.514 19.9583 398.472 21 396.389 21C394.306 21 393.264 19.9583 393.264 17.875V16.3125H395.217V17.875C395.217 18.9167 395.608 19.4375 396.389 19.4375C397.17 19.4375 397.561 18.9167 397.561 17.875V17.2266C393.967 15.9297 392.17 14.3229 392.17 12.4062C392.17 10.3229 393.576 9.28125 396.389 9.28125C399.201 9.28125 400.608 10.3229 400.608 12.4062C400.608 13.8594 399.78 14.5859 398.123 14.5859C397.67 14.5859 397.3 14.4792 397.014 14.2656V12.6016C397.649 12.7891 398.056 12.8828 398.233 12.8828C398.514 12.8828 398.655 12.724 398.655 12.4062C398.655 11.3646 397.899 10.8438 396.389 10.8438C394.878 10.8438 394.123 11.3646 394.123 12.4062C394.123 14.0521 395.269 15.1536 397.561 15.7109C397.561 15.2786 398.03 15.0625 398.967 15.0625C400.061 15.0625 400.608 15.388 400.608 16.0391C400.608 16.6276 400.501 17.0182 400.287 17.2109C400.079 17.4036 399.821 17.513 399.514 17.5391ZM394.748 5.41406C394.748 5.70052 395.009 5.84375 395.53 5.84375H399.045C398.009 5.27083 397.097 4.98438 396.311 4.98438C395.269 4.98438 394.748 5.1276 394.748 5.41406ZM399.201 4.44531V2.64062H400.608V6.9375H395.139C393.837 6.9375 393.186 6.41667 393.186 5.375C393.186 4.07292 394.227 3.42188 396.311 3.42188C397.337 3.42188 398.3 3.76302 399.201 4.44531ZM410.233 19.9062C410.358 19.9062 410.441 19.8802 410.483 19.8281C410.524 19.7708 410.545 19.7083 410.545 19.6406C410.545 19.5729 410.527 19.5182 410.49 19.4766C410.449 19.4193 410.363 19.3906 410.233 19.3906V19.9062ZM408.67 12.3438C408.67 10.3021 409.753 9.28125 411.92 9.28125C413.373 9.28125 414.217 9.55729 414.451 10.1094C414.686 9.55729 415.535 9.28125 416.998 9.28125C419.155 9.28125 420.233 10.3229 420.233 12.4062V21H418.28V12.4062C418.28 11.3646 417.806 10.8438 416.858 10.8438C415.905 10.8438 415.428 11.3646 415.428 12.4062V21H413.475V12.4062C413.475 11.3646 413.001 10.8438 412.053 10.8438C411.1 10.8438 410.623 11.3438 410.623 12.3438H410.615L410.623 18.2891C411.04 18.3047 411.363 18.4635 411.592 18.7656C411.78 18.9948 411.873 19.2839 411.873 19.6328C411.873 19.9818 411.761 20.2969 411.537 20.5781C411.313 20.8594 410.878 21 410.233 21C409.639 21 409.23 20.8594 409.006 20.5781C408.782 20.2969 408.67 19.9818 408.67 19.6328L408.662 12.3438H408.67Z" fill="#1C4076"/>
</svg>
