<svg width="425" height="82" viewBox="0 0 425 82" fill="none" xmlns="http://www.w3.org/2000/svg">
<circle cx="12" cy="16" r="12" fill="#344054"/>
<path d="M14.0057 10.3636V22H11.5455V12.6989H11.4773L8.8125 14.3693V12.1875L11.6932 10.3636H14.0057Z" fill="white"/>
<path d="M25 16H138V66" stroke="#344054" stroke-dasharray="2 2"/>
<rect y="66" width="425" height="16" rx="4" fill="#E4E7EC"/>
<path d="M0 70C0 67.7909 1.79086 66 4 66H202V82H4C1.79086 82 0 80.2091 0 78V70Z" fill="#1C4076"/>
<path d="M0 70C0 67.7909 1.79086 66 4 66V82C1.79086 82 0 80.2091 0 78V70Z" fill="#1C4076"/>
<path d="M200 66H202V82H200V66Z" fill="#1C4076"/>
</svg>
