<svg width="394" height="202" viewBox="0 0 394 202" fill="none" xmlns="http://www.w3.org/2000/svg">
<path d="M85.1765 77.1692C85.1223 77.1403 85.0617 77.1252 85.0003 77.1252C84.9388 77.1252 84.8783 77.1403 84.824 77.1692L79.199 80.1692C79.1391 80.2012 79.089 80.2489 79.0541 80.3071C79.0192 80.3654 79.0008 80.432 79.0008 80.4999C79.0008 80.5679 79.0192 80.6345 79.0541 80.6927C79.089 80.751 79.1391 80.7987 79.199 80.8307L81.3913 81.9999L79.1983 83.1692C79.1384 83.2012 79.0883 83.2489 79.0534 83.3071C79.0184 83.3654 79 83.432 79 83.4999C79 83.5679 79.0184 83.6345 79.0534 83.6927C79.0883 83.751 79.1384 83.7987 79.1983 83.8307L84.8233 86.8307C84.8775 86.8596 84.9381 86.8747 84.9995 86.8747C85.061 86.8747 85.1215 86.8596 85.1758 86.8307L90.8008 83.8307C90.8607 83.7987 90.9108 83.751 90.9457 83.6927C90.9806 83.6345 90.9991 83.5679 90.9991 83.4999C90.9991 83.432 90.9806 83.3654 90.9457 83.3071C90.9108 83.2489 90.8607 83.2012 90.8008 83.1692L88.61 81.9999L90.8015 80.8307C90.8614 80.7987 90.9115 80.751 90.9464 80.6927C90.9814 80.6345 90.9998 80.5679 90.9998 80.4999C90.9998 80.432 90.9814 80.3654 90.9464 80.3071C90.9115 80.2489 90.8614 80.2012 90.8015 80.1692L85.1765 77.1692ZM87.8128 82.4252L89.8288 83.4999L85.0003 86.0747L80.1718 83.4999L82.1878 82.4252L84.824 83.8307C84.8783 83.8596 84.9388 83.8747 85.0003 83.8747C85.0617 83.8747 85.1223 83.8596 85.1765 83.8307L87.8128 82.4252ZM85.0003 83.0747L80.1718 80.4999L85.0003 77.9252L89.8288 80.4999L85.0003 83.0747Z" fill="#1C4076"/>
<path fill-rule="evenodd" clip-rule="evenodd" d="M305.673 78.9044C305.716 78.8615 305.767 78.8274 305.823 78.8041C305.879 78.7808 305.939 78.7689 306 78.7689C306.061 78.7689 306.121 78.7808 306.177 78.8041C306.233 78.8274 306.284 78.8615 306.327 78.9044L311.865 84.4424C311.951 84.529 312 84.6466 312 84.7691C312 84.8917 311.951 85.0092 311.865 85.0958C311.778 85.1825 311.66 85.2312 311.538 85.2312C311.415 85.2312 311.298 85.1825 311.211 85.0958L306 79.8837L300.789 85.0958C300.702 85.1825 300.585 85.2312 300.462 85.2312C300.34 85.2312 300.222 85.1825 300.135 85.0958C300.049 85.0092 300 84.8917 300 84.7691C300 84.6466 300.049 84.529 300.135 84.4424L305.673 78.9044Z" fill="#1C4076"/>
<path d="M63 106V58H59V106H63Z" fill="#1C4076"/>
<path d="M168 29C174.627 29 180 23.6274 180 17C180 10.3726 174.627 5 168 5C161.373 5 156 10.3726 156 17C156 23.6274 161.373 29 168 29Z" fill="#344054"/>
<path d="M163.943 22V20.2273L168.085 16.392C168.438 16.0511 168.733 15.7443 168.972 15.4716C169.214 15.1989 169.398 14.9318 169.523 14.6705C169.648 14.4053 169.71 14.1193 169.71 13.8125C169.71 13.4716 169.633 13.178 169.477 12.9318C169.322 12.6818 169.11 12.4905 168.841 12.358C168.572 12.2216 168.267 12.1534 167.926 12.1534C167.57 12.1534 167.259 12.2254 166.994 12.3693C166.729 12.5133 166.525 12.7197 166.381 12.9886C166.237 13.2576 166.165 13.5777 166.165 13.9489H163.83C163.83 13.1875 164.002 12.5265 164.347 11.9659C164.691 11.4053 165.174 10.9716 165.795 10.6648C166.417 10.358 167.133 10.2045 167.943 10.2045C168.777 10.2045 169.502 10.3523 170.119 10.6477C170.741 10.9394 171.223 11.3447 171.568 11.8636C171.913 12.3826 172.085 12.9773 172.085 13.6477C172.085 14.0871 171.998 14.5208 171.824 14.9489C171.653 15.3769 171.348 15.8523 170.909 16.375C170.47 16.8939 169.85 17.517 169.051 18.2443L167.352 19.9091V19.9886H172.239V22H163.943Z" fill="white"/>
<path d="M168 29V63" stroke="#344054" stroke-dasharray="2 2"/>
<path d="M382 94C388.627 94 394 88.6274 394 82C394 75.3726 388.627 70 382 70C375.373 70 370 75.3726 370 82C370 88.6274 375.373 94 382 94Z" fill="#344054"/>
<path d="M382.244 88.1591C381.396 88.1591 380.64 88.0133 379.977 87.7216C379.318 87.4261 378.797 87.0208 378.415 86.5057C378.036 85.9867 377.841 85.3883 377.83 84.7102H380.307C380.322 84.9943 380.415 85.2443 380.585 85.4602C380.759 85.6723 380.991 85.8371 381.278 85.9545C381.566 86.072 381.89 86.1307 382.25 86.1307C382.625 86.1307 382.956 86.0644 383.244 85.9318C383.532 85.7992 383.758 85.6155 383.92 85.3807C384.083 85.1458 384.165 84.875 384.165 84.5682C384.165 84.2576 384.078 83.983 383.903 83.7443C383.733 83.5019 383.487 83.3125 383.165 83.1761C382.847 83.0398 382.468 82.9716 382.028 82.9716H380.943V81.1648H382.028C382.4 81.1648 382.727 81.1004 383.011 80.9716C383.299 80.8428 383.523 80.6648 383.682 80.4375C383.841 80.2064 383.92 79.9375 383.92 79.6307C383.92 79.339 383.85 79.0833 383.71 78.8636C383.574 78.6402 383.381 78.4659 383.131 78.3409C382.884 78.2159 382.597 78.1534 382.267 78.1534C381.934 78.1534 381.629 78.214 381.352 78.3352C381.076 78.4527 380.854 78.6212 380.688 78.8409C380.521 79.0606 380.432 79.3182 380.42 79.6136H378.062C378.074 78.9432 378.265 78.3523 378.636 77.8409C379.008 77.3295 379.508 76.9299 380.136 76.642C380.769 76.3504 381.483 76.2045 382.278 76.2045C383.081 76.2045 383.784 76.3504 384.386 76.642C384.989 76.9337 385.456 77.3277 385.79 77.8239C386.127 78.3163 386.294 78.8693 386.29 79.483C386.294 80.1345 386.091 80.678 385.682 81.1136C385.277 81.5492 384.748 81.8258 384.097 81.9432V82.0341C384.953 82.1439 385.604 82.4413 386.051 82.9261C386.502 83.4072 386.725 84.0095 386.722 84.733C386.725 85.3958 386.534 85.9848 386.148 86.5C385.765 87.0152 385.237 87.4205 384.562 87.7159C383.888 88.0114 383.116 88.1591 382.244 88.1591Z" fill="white"/>
<path d="M322 82H375" stroke="#344054" stroke-dasharray="2 2"/>
<path d="M307 142C313.627 142 319 136.627 319 130C319 123.373 313.627 118 307 118C300.373 118 295 123.373 295 130C295 136.627 300.373 142 307 142Z" fill="#344054"/>
<path d="M301.767 133.955V132.017L306.625 124.364H308.295V127.045H307.307L304.244 131.892V131.983H311.148V133.955H301.767ZM307.352 136V133.364L307.398 132.506V124.364H309.705V136H307.352Z" fill="white"/>
<path d="M247 130H300" stroke="#344054" stroke-dasharray="2 2"/>
<path d="M12 94C18.6274 94 24 88.6274 24 82C24 75.3726 18.6274 70 12 70C5.37258 70 0 75.3726 0 82C0 88.6274 5.37258 94 12 94Z" fill="#344054"/>
<path d="M14.0057 76.3636V88H11.5455V78.6989H11.4773L8.8125 80.3693V78.1875L11.6932 76.3636H14.0057Z" fill="white"/>
<path d="M25 82H58" stroke="#344054" stroke-dasharray="2 2"/>
<path d="M107.906 84.9219V86.0938C107.906 87.6562 108.661 88.4375 110.172 88.4375C111.682 88.4375 112.438 87.6562 112.438 86.0938V84.9219H107.906ZM112.438 81.4062C112.438 80.9792 112.177 80.5573 111.656 80.1406V79.4531C111.656 78.6719 112.151 78.2812 113.141 78.2812H114.781V79.8438H113.453V79.9375C114.078 80.3542 114.391 80.8438 114.391 81.4062V86.0938C114.391 88.6979 112.984 90 110.172 90C107.359 90 105.953 88.6979 105.953 86.0938V81.4062C105.953 80.9792 105.693 80.5573 105.172 80.1406V79.4531C105.172 78.6719 105.667 78.2812 106.656 78.2812H108.297V79.8438H106.969V79.9375C107.594 80.3542 107.906 80.8438 107.906 81.4062V83.3594H112.438V81.4062Z" fill="#1C4076"/>
<path d="M114.391 90.7812V95.0781H112.438V90.7812H114.391Z" fill="#1C4076"/>
<path d="M108.531 74.4141C108.531 74.7005 108.792 74.8438 109.312 74.8438H112.828C111.792 74.2708 110.88 73.9844 110.094 73.9844C109.052 73.9844 108.531 74.1276 108.531 74.4141ZM111.344 72.6016V71.6406H112.594V73.1719C112.74 73.2656 112.883 73.3672 113.023 73.4766C113.065 73.5078 113.104 73.5391 113.141 73.5703V71.6406H114.391V75.9375H108.922C107.62 75.9375 106.969 75.4167 106.969 74.375C106.969 73.0729 108.01 72.4219 110.094 72.4219C110.521 72.4219 110.938 72.4818 111.344 72.6016Z" fill="#1C4076"/>
<path d="M126.734 84.8984V86.875C126.734 88.9583 125.901 90 124.234 90C123 90 122.125 89.6745 121.609 89.0234C121.094 88.3724 120.641 88.0469 120.25 88.0469V90H118.297V85.3125H120.25V86.4844C121.109 86.4844 121.823 86.8099 122.391 87.4609C122.964 88.112 123.466 88.4375 123.898 88.4375C124.487 88.4375 124.781 87.9167 124.781 86.875V86.0391C120.458 85.1016 118.297 83.5573 118.297 81.4062C118.297 79.3229 119.703 78.2812 122.516 78.2812C125.328 78.2812 126.734 79.3229 126.734 81.4062C126.734 82.8594 125.906 83.5859 124.25 83.5859C123.797 83.5859 123.427 83.4792 123.141 83.2656V81.6797C123.776 81.8672 124.182 81.9609 124.359 81.9609C124.641 81.9609 124.781 81.776 124.781 81.4062C124.781 80.3646 124.026 79.8438 122.516 79.8438C121.005 79.8438 120.25 80.3646 120.25 81.4062C120.25 82.7448 122.411 83.9089 126.734 84.8984Z" fill="#1C4076"/>
<path d="M126.734 90.7812V95.0781H124.781V90.7812H126.734Z" fill="#1C4076"/>
<path d="M132.203 79.8906C132.333 79.8906 132.419 79.862 132.461 79.8047C132.497 79.763 132.516 79.7083 132.516 79.6406C132.516 79.5729 132.495 79.513 132.453 79.4609C132.411 79.4036 132.328 79.375 132.203 79.375V79.8906ZM132.594 86.0938C132.594 87.6562 133.219 88.4375 134.469 88.4375C135.901 88.4375 136.617 87.6562 136.617 86.0938V81.4062C136.617 80.9792 136.357 80.5573 135.836 80.1406V79.4531C135.836 78.6719 136.331 78.2812 137.32 78.2812H138.961V79.8438H137.633V79.9375C138.258 80.3542 138.57 80.8438 138.57 81.4062V86.0938C138.57 87.6562 139.286 88.4375 140.719 88.4375C141.969 88.4375 142.594 87.6562 142.594 86.0938V81.4062C142.594 80.9792 142.333 80.5573 141.812 80.1406V79.4531C141.812 78.6719 142.307 78.2812 143.297 78.2812H144.938V79.8438H143.609V79.9375C144.234 80.3542 144.547 80.8438 144.547 81.4062V86.0938C144.547 88.6979 143.271 90 140.719 90C138.969 90 137.927 89.6328 137.594 88.8984C137.26 89.6328 136.219 90 134.469 90C131.917 90 130.641 88.6979 130.641 86.0938V79.6484C130.641 79.2995 130.753 78.9844 130.977 78.7031C131.201 78.4219 131.609 78.2812 132.203 78.2812C132.849 78.2812 133.284 78.4219 133.508 78.7031C133.732 78.9844 133.844 79.2995 133.844 79.6484C133.844 79.9974 133.75 80.2865 133.562 80.5156C133.333 80.8177 133.01 80.9766 132.594 80.9922V86.0938Z" fill="#1C4076"/>
<path d="M120.281 130.531V132.094C120.281 133.917 121.141 134.828 122.859 134.828C124.578 134.828 125.438 133.917 125.438 132.094V130.531H120.281ZM120.281 129.359H125.438V127.406C125.438 127.042 125.177 126.651 124.656 126.234V125.453C124.656 124.672 125.047 124.281 125.828 124.281H127.156V125.453H126.219C125.958 125.453 125.828 125.583 125.828 125.844C126.453 126.26 126.766 126.781 126.766 127.406V132.094C126.766 134.698 125.464 136 122.859 136C120.255 136 118.953 134.698 118.953 132.094V127.406C118.953 127.042 118.693 126.651 118.172 126.234V125.453C118.172 124.672 118.562 124.281 119.344 124.281H120.672V125.453H119.734C119.474 125.453 119.344 125.583 119.344 125.844C119.969 126.26 120.281 126.781 120.281 127.406V129.359Z" fill="#1C4076"/>
<path d="M126.766 136.781V141.078H125.438V136.781H126.766Z" fill="#1C4076"/>
<path d="M122.078 120.922H125.594C124.297 120.036 123.255 119.594 122.469 119.594C121.427 119.594 120.906 119.815 120.906 120.258C120.906 120.701 121.297 120.922 122.078 120.922ZM125.75 119.758V117.641H126.766V121.938H121.688C120.385 121.938 119.734 121.417 119.734 120.375C119.734 119.073 120.646 118.422 122.469 118.422C123.062 118.422 123.635 118.536 124.188 118.766V117.641H125.203V119.328C125.271 119.375 125.336 119.424 125.398 119.477C125.523 119.576 125.641 119.669 125.75 119.758Z" fill="#1C4076"/>
<path d="M138.484 131.234V132.875C138.484 134.958 137.755 136 136.297 136C135.224 136 134.43 135.674 133.914 135.023C133.398 134.372 132.76 134.047 132 134.047V136H130.672V131.312H132V132.875C132.911 132.875 133.651 133.201 134.219 133.852C134.792 134.503 135.372 134.828 135.961 134.828C136.758 134.828 137.156 134.177 137.156 132.875V132.094C132.833 131.156 130.672 129.594 130.672 127.406C130.672 125.323 131.974 124.281 134.578 124.281C137.182 124.281 138.484 125.323 138.484 127.406C138.484 128.859 137.76 129.586 136.312 129.586C135.984 129.586 135.719 129.51 135.516 129.359V128.188C135.885 128.297 136.188 128.352 136.422 128.352C136.911 128.352 137.156 128.036 137.156 127.406C137.156 126.104 136.297 125.453 134.578 125.453C132.859 125.453 132 126.104 132 127.406C132 128.969 134.161 130.245 138.484 131.234Z" fill="#1C4076"/>
<path d="M138.484 136.781V141.078H137.156V136.781H138.484Z" fill="#1C4076"/>
<path d="M143.719 126.039C143.828 126.039 143.919 126.005 143.992 125.938C144.07 125.87 144.109 125.773 144.109 125.648C144.109 125.523 144.07 125.427 143.992 125.359C143.919 125.292 143.828 125.258 143.719 125.258V126.039ZM154.344 127.406C154.344 127.042 154.083 126.651 153.562 126.234V125.453C153.562 124.672 153.953 124.281 154.734 124.281H156.062V125.453H155.125C154.865 125.453 154.734 125.583 154.734 125.844C155.359 126.26 155.672 126.781 155.672 127.406V132.094C155.672 134.698 154.5 136 152.156 136C150.594 136 149.552 135.422 149.031 134.266C148.51 135.422 147.469 136 145.906 136C143.562 136 142.391 134.698 142.391 132.094V125.648C142.391 125.242 142.49 124.914 142.688 124.664C142.891 124.409 143.221 124.281 143.68 124.281C144.138 124.281 144.466 124.409 144.664 124.664C144.867 124.914 144.969 125.242 144.969 125.648C144.969 126.055 144.867 126.383 144.664 126.633C144.492 126.857 144.229 126.969 143.875 126.969C143.823 126.969 143.771 126.966 143.719 126.961V132.094C143.719 133.917 144.448 134.828 145.906 134.828C147.547 134.828 148.367 133.917 148.367 132.094V127.406C148.367 127.042 148.107 126.651 147.586 126.234V125.453C147.586 124.672 147.977 124.281 148.758 124.281H150.086V125.453H149.148C148.888 125.453 148.758 125.583 148.758 125.844C149.383 126.26 149.695 126.781 149.695 127.406V132.094C149.695 133.917 150.516 134.828 152.156 134.828C153.615 134.828 154.344 133.917 154.344 132.094V127.406Z" fill="#1C4076"/>
<path d="M159.578 134.828V133.656H159.383C159.326 133.656 159.279 133.682 159.242 133.734C159.206 133.781 159.188 133.951 159.188 134.242C159.188 134.534 159.206 134.706 159.242 134.758C159.279 134.805 159.326 134.828 159.383 134.828H159.578ZM160.906 127.406V134.242C160.906 134.909 160.818 135.37 160.641 135.625C160.469 135.875 160.141 136 159.656 136C159.172 136 158.841 135.875 158.664 135.625C158.492 135.37 158.406 134.909 158.406 134.242C158.406 133.576 158.492 133.117 158.664 132.867C158.841 132.612 159.081 132.484 159.383 132.484C159.451 132.484 159.516 132.49 159.578 132.5V127.406C159.474 127.042 159.214 126.651 158.797 126.234V125.453C158.797 124.672 159.188 124.281 159.969 124.281H161.297V125.453H160.359C160.099 125.453 159.969 125.583 159.969 125.844C160.594 126.26 160.906 126.781 160.906 127.406Z" fill="#1C4076"/>
<path d="M170.672 125.469C170.672 125.312 170.568 125.234 170.359 125.234C170.151 125.234 170.047 125.312 170.047 125.469C170.047 125.609 170.151 125.75 170.359 125.891C170.568 125.781 170.672 125.641 170.672 125.469ZM164.617 129.359C164.56 129.359 164.513 129.385 164.477 129.438C164.44 129.484 164.422 129.654 164.422 129.945C164.422 130.237 164.44 130.409 164.477 130.461C164.513 130.508 164.56 130.531 164.617 130.531H164.812V129.359H164.617ZM166.141 134.438L168.719 132.094L171.297 134.438V128.969C171.297 128.406 170.875 127.81 170.031 127.18C169.604 127.591 168.88 127.797 167.859 127.797C166.724 127.797 165.932 127.648 165.484 127.352C165.036 127.055 164.812 126.643 164.812 126.117C164.812 125.596 164.917 125.109 165.125 124.656C165.333 124.198 165.438 123.826 165.438 123.539C165.438 123.253 165.099 123.109 164.422 123.109V121.938C165.88 121.938 166.609 122.432 166.609 123.422C166.609 123.812 166.505 124.25 166.297 124.734C166.089 125.214 165.984 125.555 165.984 125.758C165.984 125.966 166.115 126.164 166.375 126.352C166.635 126.534 167.148 126.625 167.914 126.625C168.576 126.625 169.052 126.539 169.344 126.367C169.083 126.154 168.953 125.823 168.953 125.375C168.953 124.646 169.422 124.281 170.359 124.281C171.349 124.281 171.844 124.724 171.844 125.609C171.844 126.062 171.641 126.448 171.234 126.766C172.161 127.438 172.625 128.172 172.625 128.969V136H171.062L168.719 133.656L166.375 136H164.812V131.688C164.75 131.698 164.685 131.703 164.617 131.703C164.315 131.703 164.076 131.578 163.898 131.328C163.727 131.073 163.641 130.612 163.641 129.945C163.641 129.279 163.727 128.82 163.898 128.57C164.076 128.315 164.406 128.188 164.891 128.188C165.375 128.188 165.703 128.315 165.875 128.57C166.052 128.82 166.141 129.279 166.141 129.945V134.438Z" fill="#1C4076"/>
<path d="M184.203 134.828C186.182 134.828 187.172 133.135 187.172 129.75C187.172 126.885 186.312 125.453 184.594 125.453C182.875 125.453 182.016 126.365 182.016 128.188C182.016 128.505 182.076 128.786 182.195 129.031C182.32 129.271 182.581 129.391 182.977 129.391C183.352 129.391 183.589 129.336 183.688 129.227C183.766 129.138 183.805 129.052 183.805 128.969C183.805 128.943 183.802 128.919 183.797 128.898C183.771 128.789 183.729 128.734 183.672 128.734C183.615 128.734 183.461 128.82 183.211 128.992L182.867 128.094C183.232 127.828 183.56 127.695 183.852 127.695C184.169 127.695 184.417 127.789 184.594 127.977C184.771 128.164 184.859 128.492 184.859 128.961C184.859 129.221 184.792 129.5 184.656 129.797C184.526 130.094 184.307 130.305 184 130.43C183.693 130.549 183.372 130.609 183.039 130.609C182.648 130.609 182.284 130.552 181.945 130.438C181.612 130.323 181.318 130.089 181.062 129.734C180.812 129.375 180.688 128.859 180.688 128.188C180.688 125.583 181.99 124.281 184.594 124.281C187.198 124.281 188.5 126.104 188.5 129.75C188.5 133.917 187.068 136 184.203 136C183.135 136 182.198 135.714 181.391 135.141L181.781 134.047C182.354 134.568 183.161 134.828 184.203 134.828Z" fill="#1C4076"/>
<path d="M120.281 178.531V180.094C120.281 181.917 121.141 182.828 122.859 182.828C124.578 182.828 125.438 181.917 125.438 180.094V178.531H120.281ZM120.281 177.359H125.438V175.406C125.438 175.042 125.177 174.651 124.656 174.234V173.453C124.656 172.672 125.047 172.281 125.828 172.281H127.156V173.453H126.219C125.958 173.453 125.828 173.583 125.828 173.844C126.453 174.26 126.766 174.781 126.766 175.406V180.094C126.766 182.698 125.464 184 122.859 184C120.255 184 118.953 182.698 118.953 180.094V175.406C118.953 175.042 118.693 174.651 118.172 174.234V173.453C118.172 172.672 118.562 172.281 119.344 172.281H120.672V173.453H119.734C119.474 173.453 119.344 173.583 119.344 173.844C119.969 174.26 120.281 174.781 120.281 175.406V177.359Z" fill="#1C4076"/>
<path d="M126.766 184.781V189.078H125.438V184.781H126.766Z" fill="#1C4076"/>
<path d="M122.078 168.922H125.594C124.297 168.036 123.255 167.594 122.469 167.594C121.427 167.594 120.906 167.815 120.906 168.258C120.906 168.701 121.297 168.922 122.078 168.922ZM125.75 167.758V165.641H126.766V169.938H121.688C120.385 169.938 119.734 169.417 119.734 168.375C119.734 167.073 120.646 166.422 122.469 166.422C123.062 166.422 123.635 166.536 124.188 166.766V165.641H125.203V167.328C125.271 167.375 125.336 167.424 125.398 167.477C125.523 167.576 125.641 167.669 125.75 167.758Z" fill="#1C4076"/>
<path d="M138.484 179.234V180.875C138.484 182.958 137.755 184 136.297 184C135.224 184 134.43 183.674 133.914 183.023C133.398 182.372 132.76 182.047 132 182.047V184H130.672V179.312H132V180.875C132.911 180.875 133.651 181.201 134.219 181.852C134.792 182.503 135.372 182.828 135.961 182.828C136.758 182.828 137.156 182.177 137.156 180.875V180.094C132.833 179.156 130.672 177.594 130.672 175.406C130.672 173.323 131.974 172.281 134.578 172.281C137.182 172.281 138.484 173.323 138.484 175.406C138.484 176.859 137.76 177.586 136.312 177.586C135.984 177.586 135.719 177.51 135.516 177.359V176.188C135.885 176.297 136.188 176.352 136.422 176.352C136.911 176.352 137.156 176.036 137.156 175.406C137.156 174.104 136.297 173.453 134.578 173.453C132.859 173.453 132 174.104 132 175.406C132 176.969 134.161 178.245 138.484 179.234Z" fill="#1C4076"/>
<path d="M138.484 184.781V189.078H137.156V184.781H138.484Z" fill="#1C4076"/>
<path d="M143.719 174.039C143.828 174.039 143.919 174.005 143.992 173.938C144.07 173.87 144.109 173.773 144.109 173.648C144.109 173.523 144.07 173.427 143.992 173.359C143.919 173.292 143.828 173.258 143.719 173.258V174.039ZM154.344 175.406C154.344 175.042 154.083 174.651 153.562 174.234V173.453C153.562 172.672 153.953 172.281 154.734 172.281H156.062V173.453H155.125C154.865 173.453 154.734 173.583 154.734 173.844C155.359 174.26 155.672 174.781 155.672 175.406V180.094C155.672 182.698 154.5 184 152.156 184C150.594 184 149.552 183.422 149.031 182.266C148.51 183.422 147.469 184 145.906 184C143.562 184 142.391 182.698 142.391 180.094V173.648C142.391 173.242 142.49 172.914 142.688 172.664C142.891 172.409 143.221 172.281 143.68 172.281C144.138 172.281 144.466 172.409 144.664 172.664C144.867 172.914 144.969 173.242 144.969 173.648C144.969 174.055 144.867 174.383 144.664 174.633C144.492 174.857 144.229 174.969 143.875 174.969C143.823 174.969 143.771 174.966 143.719 174.961V180.094C143.719 181.917 144.448 182.828 145.906 182.828C147.547 182.828 148.367 181.917 148.367 180.094V175.406C148.367 175.042 148.107 174.651 147.586 174.234V173.453C147.586 172.672 147.977 172.281 148.758 172.281H150.086V173.453H149.148C148.888 173.453 148.758 173.583 148.758 173.844C149.383 174.26 149.695 174.781 149.695 175.406V180.094C149.695 181.917 150.516 182.828 152.156 182.828C153.615 182.828 154.344 181.917 154.344 180.094V175.406Z" fill="#1C4076"/>
<path d="M159.578 182.828V181.656H159.383C159.326 181.656 159.279 181.682 159.242 181.734C159.206 181.781 159.188 181.951 159.188 182.242C159.188 182.534 159.206 182.706 159.242 182.758C159.279 182.805 159.326 182.828 159.383 182.828H159.578ZM160.906 175.406V182.242C160.906 182.909 160.818 183.37 160.641 183.625C160.469 183.875 160.141 184 159.656 184C159.172 184 158.841 183.875 158.664 183.625C158.492 183.37 158.406 182.909 158.406 182.242C158.406 181.576 158.492 181.117 158.664 180.867C158.841 180.612 159.081 180.484 159.383 180.484C159.451 180.484 159.516 180.49 159.578 180.5V175.406C159.474 175.042 159.214 174.651 158.797 174.234V173.453C158.797 172.672 159.188 172.281 159.969 172.281H161.297V173.453H160.359C160.099 173.453 159.969 173.583 159.969 173.844C160.594 174.26 160.906 174.781 160.906 175.406Z" fill="#1C4076"/>
<path d="M170.672 173.469C170.672 173.312 170.568 173.234 170.359 173.234C170.151 173.234 170.047 173.312 170.047 173.469C170.047 173.609 170.151 173.75 170.359 173.891C170.568 173.781 170.672 173.641 170.672 173.469ZM164.617 177.359C164.56 177.359 164.513 177.385 164.477 177.438C164.44 177.484 164.422 177.654 164.422 177.945C164.422 178.237 164.44 178.409 164.477 178.461C164.513 178.508 164.56 178.531 164.617 178.531H164.812V177.359H164.617ZM166.141 182.438L168.719 180.094L171.297 182.438V176.969C171.297 176.406 170.875 175.81 170.031 175.18C169.604 175.591 168.88 175.797 167.859 175.797C166.724 175.797 165.932 175.648 165.484 175.352C165.036 175.055 164.812 174.643 164.812 174.117C164.812 173.596 164.917 173.109 165.125 172.656C165.333 172.198 165.438 171.826 165.438 171.539C165.438 171.253 165.099 171.109 164.422 171.109V169.938C165.88 169.938 166.609 170.432 166.609 171.422C166.609 171.812 166.505 172.25 166.297 172.734C166.089 173.214 165.984 173.555 165.984 173.758C165.984 173.966 166.115 174.164 166.375 174.352C166.635 174.534 167.148 174.625 167.914 174.625C168.576 174.625 169.052 174.539 169.344 174.367C169.083 174.154 168.953 173.823 168.953 173.375C168.953 172.646 169.422 172.281 170.359 172.281C171.349 172.281 171.844 172.724 171.844 173.609C171.844 174.062 171.641 174.448 171.234 174.766C172.161 175.438 172.625 176.172 172.625 176.969V184H171.062L168.719 181.656L166.375 184H164.812V179.688C164.75 179.698 164.685 179.703 164.617 179.703C164.315 179.703 164.076 179.578 163.898 179.328C163.727 179.073 163.641 178.612 163.641 177.945C163.641 177.279 163.727 176.82 163.898 176.57C164.076 176.315 164.406 176.188 164.891 176.188C165.375 176.188 165.703 176.315 165.875 176.57C166.052 176.82 166.141 177.279 166.141 177.945V182.438Z" fill="#1C4076"/>
<path d="M184.359 177.398C184.469 177.398 184.56 177.365 184.633 177.297C184.711 177.229 184.75 177.133 184.75 177.008C184.75 176.883 184.711 176.786 184.633 176.719C184.56 176.651 184.469 176.617 184.359 176.617V177.398ZM183.031 174.312L184.672 172.281L186.156 173.844L187.641 172.281L189.281 174.312V180.094C189.281 182.698 187.849 184 184.984 184C182.12 184 180.688 182.698 180.688 180.094V172.672C180.688 172.151 180.427 171.891 179.906 171.891H179.516V170.719H180.453C181.495 170.719 182.016 171.24 182.016 172.281V180.094C182.016 181.917 183.005 182.828 184.984 182.828C186.964 182.828 187.953 181.917 187.953 180.094V174.625L187.406 173.961L186.156 175.25L184.906 173.961L184.359 174.625V175.695C184.411 175.69 184.464 175.688 184.516 175.688C184.87 175.688 185.133 175.799 185.305 176.023C185.508 176.273 185.609 176.602 185.609 177.008C185.609 177.414 185.508 177.745 185.305 178C185.107 178.25 184.779 178.375 184.32 178.375C183.862 178.375 183.531 178.25 183.328 178C183.13 177.745 183.031 177.414 183.031 177.008V174.312Z" fill="#1C4076"/>
<path d="M62 58H326C328.761 58 331 60.2386 331 63V101C331 103.761 328.761 106 326 106H62V58Z" fill="#003A8A" fill-opacity="0.1"/>
</svg>
