<svg width="367" height="208" viewBox="0 0 367 208" fill="none" xmlns="http://www.w3.org/2000/svg">
<g clip-path="url(#clip0_7114_339)">
<path d="M344 13H43V189H344V13Z" fill="#F7F7F9"/>
<path d="M83.1765 48.1692C83.1223 48.1403 83.0617 48.1252 83.0003 48.1252C82.9388 48.1252 82.8783 48.1403 82.824 48.1692L77.199 51.1692C77.1391 51.2012 77.089 51.2488 77.0541 51.3071C77.0192 51.3654 77.0008 51.432 77.0008 51.4999C77.0008 51.5678 77.0192 51.6345 77.0541 51.6927C77.089 51.751 77.1391 51.7987 77.199 51.8307L79.3913 52.9999L77.1983 54.1692C77.1384 54.2012 77.0883 54.2488 77.0534 54.3071C77.0184 54.3654 77 54.432 77 54.4999C77 54.5678 77.0184 54.6345 77.0534 54.6927C77.0883 54.751 77.1384 54.7987 77.1983 54.8307L82.8233 57.8307C82.8775 57.8596 82.9381 57.8747 82.9995 57.8747C83.061 57.8747 83.1215 57.8596 83.1758 57.8307L88.8008 54.8307C88.8607 54.7987 88.9108 54.751 88.9457 54.6927C88.9806 54.6345 88.9991 54.5678 88.9991 54.4999C88.9991 54.432 88.9806 54.3654 88.9457 54.3071C88.9108 54.2488 88.8607 54.2012 88.8008 54.1692L86.61 52.9999L88.8015 51.8307C88.8614 51.7987 88.9115 51.751 88.9464 51.6927C88.9814 51.6345 88.9998 51.5678 88.9998 51.4999C88.9998 51.432 88.9814 51.3654 88.9464 51.3071C88.9115 51.2488 88.8614 51.2012 88.8015 51.1692L83.1765 48.1692ZM85.8128 53.4252L87.8288 54.4999L83.0003 57.0747L78.1718 54.4999L80.1878 53.4252L82.824 54.8307C82.8783 54.8596 82.9388 54.8747 83.0003 54.8747C83.0617 54.8747 83.1223 54.8596 83.1765 54.8307L85.8128 53.4252ZM83.0003 54.0747L78.1718 51.4999L83.0003 48.9252L87.8288 51.4999L83.0003 54.0747Z" fill="#1C4076"/>
<path fill-rule="evenodd" clip-rule="evenodd" d="M303.673 49.9044C303.716 49.8614 303.767 49.8274 303.823 49.8041C303.879 49.7808 303.939 49.7688 304 49.7688C304.061 49.7688 304.121 49.7808 304.177 49.8041C304.233 49.8274 304.284 49.8614 304.327 49.9044L309.865 55.4423C309.951 55.529 310 55.6465 310 55.7691C310 55.8916 309.951 56.0092 309.865 56.0958C309.778 56.1825 309.66 56.2312 309.538 56.2312C309.415 56.2312 309.298 56.1825 309.211 56.0958L304 50.8837L298.789 56.0958C298.702 56.1825 298.585 56.2312 298.462 56.2312C298.34 56.2312 298.222 56.1825 298.135 56.0958C298.049 56.0092 298 55.8916 298 55.7691C298 55.6465 298.049 55.529 298.135 55.4423L303.673 49.9044Z" fill="#1C4076"/>
<path d="M61 77V29H57V77H61Z" fill="#1C4076"/>
<path d="M312 69H59V77H312V69Z" fill="#EE7D22" fill-opacity="0.24"/>
<path d="M312 29H59V37H312V29Z" fill="#EE7D22" fill-opacity="0.24"/>
<path d="M75 29H59V77H75V29Z" fill="#EE7D22" fill-opacity="0.24"/>
<path d="M59 29H43V77H59V29Z" fill="#EE7D22" fill-opacity="0.24"/>
<path d="M28 24H3C1.34315 24 0 25.3431 0 27V38.8909C0 40.5478 1.34315 41.8909 3 41.8909H28C29.6569 41.8909 31 40.5478 31 38.8909V27C31 25.3431 29.6569 24 28 24Z" fill="#EE7D22"/>
<path d="M9.30252 37.0994C8.75564 37.0994 8.26914 37.0107 7.843 36.8331C7.41923 36.6532 7.08661 36.4081 6.84513 36.098C6.60365 35.7879 6.48291 35.4363 6.48291 35.0433C6.48291 34.7403 6.55157 34.4621 6.68888 34.2088C6.82856 33.9531 7.01795 33.7412 7.25706 33.5732C7.49617 33.4027 7.76369 33.2938 8.05962 33.2464V33.1967C7.67136 33.1186 7.35649 32.9304 7.11502 32.6321C6.87354 32.3314 6.7528 31.9822 6.7528 31.5845C6.7528 31.2081 6.86289 30.8731 7.08306 30.5795C7.30323 30.2836 7.60507 30.0516 7.9886 29.8835C8.37449 29.7131 8.81246 29.6278 9.30252 29.6278C9.79257 29.6278 10.2294 29.7131 10.6129 29.8835C10.9988 30.054 11.3018 30.2872 11.522 30.5831C11.7422 30.8767 11.8535 31.2105 11.8558 31.5845C11.8535 31.9846 11.7304 32.3338 11.4865 32.6321C11.2427 32.9304 10.9302 33.1186 10.549 33.1967V33.2464C10.8402 33.2938 11.1042 33.4027 11.3409 33.5732C11.58 33.7412 11.7694 33.9531 11.9091 34.2088C12.0511 34.4621 12.1233 34.7403 12.1257 35.0433C12.1233 35.4363 12.0014 35.7879 11.7599 36.098C11.5185 36.4081 11.1847 36.6532 10.7585 36.8331C10.3348 37.0107 9.84939 37.0994 9.30252 37.0994ZM9.30252 35.9702C9.54636 35.9702 9.75943 35.9264 9.94172 35.8388C10.1241 35.7488 10.2661 35.6257 10.3679 35.4695C10.4721 35.3108 10.5241 35.1286 10.5241 34.9226C10.5241 34.7119 10.4709 34.526 10.3643 34.3651C10.2578 34.2017 10.1134 34.0739 9.93107 33.9815C9.74878 33.8868 9.53926 33.8395 9.30252 33.8395C9.06814 33.8395 8.85862 33.8868 8.67397 33.9815C8.48931 34.0739 8.34371 34.2017 8.23718 34.3651C8.13301 34.526 8.08093 34.7119 8.08093 34.9226C8.08093 35.1286 8.13183 35.3108 8.23362 35.4695C8.33542 35.6257 8.47865 35.7488 8.66331 35.8388C8.84797 35.9264 9.06104 35.9702 9.30252 35.9702ZM9.30252 32.7209C9.50612 32.7209 9.68722 32.6795 9.84584 32.5966C10.0045 32.5137 10.1288 32.3989 10.2188 32.2521C10.3087 32.1054 10.3537 31.9361 10.3537 31.7443C10.3537 31.5549 10.3087 31.3892 10.2188 31.2472C10.1288 31.1027 10.0057 30.9903 9.84939 30.9098C9.69314 30.8269 9.51085 30.7855 9.30252 30.7855C9.09655 30.7855 8.91426 30.8269 8.75564 30.9098C8.59702 30.9903 8.47273 31.1027 8.38277 31.2472C8.29518 31.3892 8.25138 31.5549 8.25138 31.7443C8.25138 31.9361 8.29636 32.1054 8.38632 32.2521C8.47629 32.3989 8.60058 32.5137 8.75919 32.5966C8.91781 32.6795 9.09892 32.7209 9.30252 32.7209ZM13.215 39.0455V31.5455H14.7065V32.4616H14.774C14.8403 32.3149 14.9361 32.1657 15.0616 32.0142C15.1895 31.8603 15.3552 31.7325 15.5588 31.6307C15.7647 31.5265 16.0204 31.4744 16.3258 31.4744C16.7235 31.4744 17.0905 31.5786 17.4267 31.7869C17.7628 31.9929 18.0315 32.3042 18.2328 32.7209C18.434 33.1352 18.5346 33.6548 18.5346 34.2798C18.5346 34.8883 18.4364 35.402 18.2399 35.821C18.0458 36.2377 17.7806 36.5537 17.4444 36.7692C17.1106 36.9822 16.7366 37.0888 16.3223 37.0888C16.0287 37.0888 15.7789 37.0402 15.573 36.9432C15.3694 36.8461 15.2025 36.7242 15.0723 36.5774C14.9421 36.4283 14.8426 36.2779 14.774 36.1264H14.7278V39.0455H13.215ZM14.6958 34.2727C14.6958 34.5971 14.7408 34.88 14.8308 35.1214C14.9208 35.3629 15.051 35.5511 15.2214 35.6861C15.3919 35.8187 15.599 35.8849 15.8429 35.8849C16.0891 35.8849 16.2974 35.8175 16.4679 35.6825C16.6383 35.5452 16.7673 35.3558 16.8549 35.1143C16.9449 34.8705 16.9899 34.59 16.9899 34.2727C16.9899 33.9579 16.9461 33.6809 16.8585 33.4418C16.7709 33.2027 16.6419 33.0156 16.4714 32.8807C16.301 32.7457 16.0914 32.6783 15.8429 32.6783C15.5967 32.6783 15.3883 32.7434 15.2179 32.8736C15.0498 33.0038 14.9208 33.1884 14.8308 33.4276C14.7408 33.6667 14.6958 33.9484 14.6958 34.2727ZM20.612 31.5455L21.6135 33.4524L22.6397 31.5455H24.1916L22.6113 34.2727L24.2342 37H22.6895L21.6135 35.1143L20.5552 37H18.9927L20.612 34.2727L19.0495 31.5455H20.612Z" fill="white"/>
<path d="M28 62.8062H3C1.34315 62.8062 0 64.1493 0 65.8062V77.6971C0 79.3539 1.34315 80.6971 3 80.6971H28C29.6569 80.6971 31 79.3539 31 77.6971V65.8062C31 64.1493 29.6569 62.8062 28 62.8062Z" fill="#EE7D22"/>
<path d="M9.30252 75.9054C8.75564 75.9054 8.26914 75.8166 7.843 75.6391C7.41923 75.4591 7.08661 75.2141 6.84513 74.904C6.60365 74.5939 6.48291 74.2423 6.48291 73.8493C6.48291 73.5463 6.55157 73.2681 6.68888 73.0148C6.82856 72.7591 7.01795 72.5472 7.25706 72.3791C7.49617 72.2087 7.76369 72.0998 8.05962 72.0524V72.0027C7.67136 71.9246 7.35649 71.7364 7.11502 71.4381C6.87354 71.1374 6.7528 70.7882 6.7528 70.3905C6.7528 70.0141 6.86289 69.6791 7.08306 69.3855C7.30323 69.0896 7.60507 68.8576 7.9886 68.6895C8.37449 68.519 8.81246 68.4338 9.30252 68.4338C9.79257 68.4338 10.2294 68.519 10.6129 68.6895C10.9988 68.86 11.3018 69.0931 11.522 69.3891C11.7422 69.6826 11.8535 70.0164 11.8558 70.3905C11.8535 70.7906 11.7304 71.1398 11.4865 71.4381C11.2427 71.7364 10.9302 71.9246 10.549 72.0027V72.0524C10.8402 72.0998 11.1042 72.2087 11.3409 72.3791C11.58 72.5472 11.7694 72.7591 11.9091 73.0148C12.0511 73.2681 12.1233 73.5463 12.1257 73.8493C12.1233 74.2423 12.0014 74.5939 11.7599 74.904C11.5185 75.2141 11.1847 75.4591 10.7585 75.6391C10.3348 75.8166 9.84939 75.9054 9.30252 75.9054ZM9.30252 74.7761C9.54636 74.7761 9.75943 74.7323 9.94172 74.6448C10.1241 74.5548 10.2661 74.4317 10.3679 74.2754C10.4721 74.1168 10.5241 73.9345 10.5241 73.7286C10.5241 73.5179 10.4709 73.332 10.3643 73.171C10.2578 73.0077 10.1134 72.8798 9.93107 72.7875C9.74878 72.6928 9.53926 72.6455 9.30252 72.6455C9.06814 72.6455 8.85862 72.6928 8.67397 72.7875C8.48931 72.8798 8.34371 73.0077 8.23718 73.171C8.13301 73.332 8.08093 73.5179 8.08093 73.7286C8.08093 73.9345 8.13183 74.1168 8.23362 74.2754C8.33542 74.4317 8.47865 74.5548 8.66331 74.6448C8.84797 74.7323 9.06104 74.7761 9.30252 74.7761ZM9.30252 71.5269C9.50612 71.5269 9.68722 71.4854 9.84584 71.4026C10.0045 71.3197 10.1288 71.2049 10.2188 71.0581C10.3087 70.9113 10.3537 70.7421 10.3537 70.5503C10.3537 70.3609 10.3087 70.1952 10.2188 70.0531C10.1288 69.9087 10.0057 69.7963 9.84939 69.7158C9.69314 69.6329 9.51085 69.5915 9.30252 69.5915C9.09655 69.5915 8.91426 69.6329 8.75564 69.7158C8.59702 69.7963 8.47273 69.9087 8.38277 70.0531C8.29518 70.1952 8.25138 70.3609 8.25138 70.5503C8.25138 70.7421 8.29636 70.9113 8.38632 71.0581C8.47629 71.2049 8.60058 71.3197 8.75919 71.4026C8.91781 71.4854 9.09892 71.5269 9.30252 71.5269ZM13.215 77.8514V70.3514H14.7065V71.2676H14.774C14.8403 71.1208 14.9361 70.9717 15.0616 70.8202C15.1895 70.6663 15.3552 70.5385 15.5588 70.4367C15.7647 70.3325 16.0204 70.2804 16.3258 70.2804C16.7235 70.2804 17.0905 70.3846 17.4267 70.5929C17.7628 70.7989 18.0315 71.1102 18.2328 71.5269C18.434 71.9412 18.5346 72.4608 18.5346 73.0858C18.5346 73.6942 18.4364 74.208 18.2399 74.627C18.0458 75.0437 17.7806 75.3597 17.4444 75.5752C17.1106 75.7882 16.7366 75.8948 16.3223 75.8948C16.0287 75.8948 15.7789 75.8462 15.573 75.7492C15.3694 75.6521 15.2025 75.5302 15.0723 75.3834C14.9421 75.2342 14.8426 75.0839 14.774 74.9324H14.7278V77.8514H13.215ZM14.6958 73.0787C14.6958 73.403 14.7408 73.6859 14.8308 73.9274C14.9208 74.1689 15.051 74.3571 15.2214 74.4921C15.3919 74.6246 15.599 74.6909 15.8429 74.6909C16.0891 74.6909 16.2974 74.6234 16.4679 74.4885C16.6383 74.3512 16.7673 74.1618 16.8549 73.9203C16.9449 73.6765 16.9899 73.3959 16.9899 73.0787C16.9899 72.7638 16.9461 72.4868 16.8585 72.2477C16.7709 72.0086 16.6419 71.8216 16.4714 71.6867C16.301 71.5517 16.0914 71.4842 15.8429 71.4842C15.5967 71.4842 15.3883 71.5493 15.2179 71.6796C15.0498 71.8098 14.9208 71.9944 14.8308 72.2335C14.7408 72.4726 14.6958 72.7544 14.6958 73.0787ZM20.612 70.3514L21.6135 72.2584L22.6397 70.3514H24.1916L22.6113 73.0787L24.2342 75.806H22.6895L21.6135 73.9203L20.5552 75.806H18.9927L20.612 73.0787L19.0495 70.3514H20.612Z" fill="white"/>
<path d="M35.5 68.2849V76.2364" stroke="#EE7D22"/>
<path d="M32 68.7788H39" stroke="#EE7D22"/>
<path d="M32 75.7365H39" stroke="#EE7D22"/>
<path d="M35.5 29V36.9515" stroke="#EE7D22"/>
<path d="M32 29.494H39" stroke="#EE7D22"/>
<path d="M32 36.4515H39" stroke="#EE7D22"/>
<path d="M28 120H3C1.34315 120 0 121.343 0 123V134.891C0 136.548 1.34315 137.891 3 137.891H28C29.6569 137.891 31 136.548 31 134.891V123C31 121.343 29.6569 120 28 120Z" fill="#EE7D22"/>
<path d="M9.30252 133.099C8.75564 133.099 8.26914 133.011 7.843 132.833C7.41923 132.653 7.08661 132.408 6.84513 132.098C6.60365 131.788 6.48291 131.436 6.48291 131.043C6.48291 130.74 6.55157 130.462 6.68888 130.209C6.82856 129.953 7.01795 129.741 7.25706 129.573C7.49617 129.403 7.76369 129.294 8.05962 129.246V129.197C7.67136 129.119 7.35649 128.93 7.11502 128.632C6.87354 128.331 6.7528 127.982 6.7528 127.585C6.7528 127.208 6.86289 126.873 7.08306 126.58C7.30323 126.284 7.60507 126.052 7.9886 125.884C8.37449 125.713 8.81246 125.628 9.30252 125.628C9.79257 125.628 10.2294 125.713 10.6129 125.884C10.9988 126.054 11.3018 126.287 11.522 126.583C11.7422 126.877 11.8535 127.21 11.8558 127.585C11.8535 127.985 11.7304 128.334 11.4865 128.632C11.2427 128.93 10.9302 129.119 10.549 129.197V129.246C10.8402 129.294 11.1042 129.403 11.3409 129.573C11.58 129.741 11.7694 129.953 11.9091 130.209C12.0511 130.462 12.1233 130.74 12.1257 131.043C12.1233 131.436 12.0014 131.788 11.7599 132.098C11.5185 132.408 11.1847 132.653 10.7585 132.833C10.3348 133.011 9.84939 133.099 9.30252 133.099ZM9.30252 131.97C9.54636 131.97 9.75943 131.926 9.94172 131.839C10.1241 131.749 10.2661 131.626 10.3679 131.469C10.4721 131.311 10.5241 131.129 10.5241 130.923C10.5241 130.712 10.4709 130.526 10.3643 130.365C10.2578 130.202 10.1134 130.074 9.93107 129.982C9.74878 129.887 9.53926 129.839 9.30252 129.839C9.06814 129.839 8.85862 129.887 8.67397 129.982C8.48931 130.074 8.34371 130.202 8.23718 130.365C8.13301 130.526 8.08093 130.712 8.08093 130.923C8.08093 131.129 8.13183 131.311 8.23362 131.469C8.33542 131.626 8.47865 131.749 8.66331 131.839C8.84797 131.926 9.06104 131.97 9.30252 131.97ZM9.30252 128.721C9.50612 128.721 9.68722 128.679 9.84584 128.597C10.0045 128.514 10.1288 128.399 10.2188 128.252C10.3087 128.105 10.3537 127.936 10.3537 127.744C10.3537 127.555 10.3087 127.389 10.2188 127.247C10.1288 127.103 10.0057 126.99 9.84939 126.91C9.69314 126.827 9.51085 126.786 9.30252 126.786C9.09655 126.786 8.91426 126.827 8.75564 126.91C8.59702 126.99 8.47273 127.103 8.38277 127.247C8.29518 127.389 8.25138 127.555 8.25138 127.744C8.25138 127.936 8.29636 128.105 8.38632 128.252C8.47629 128.399 8.60058 128.514 8.75919 128.597C8.91781 128.679 9.09892 128.721 9.30252 128.721ZM13.215 135.045V127.545H14.7065V128.462H14.774C14.8403 128.315 14.9361 128.166 15.0616 128.014C15.1895 127.86 15.3552 127.732 15.5588 127.631C15.7647 127.527 16.0204 127.474 16.3258 127.474C16.7235 127.474 17.0905 127.579 17.4267 127.787C17.7628 127.993 18.0315 128.304 18.2328 128.721C18.434 129.135 18.5346 129.655 18.5346 130.28C18.5346 130.888 18.4364 131.402 18.2399 131.821C18.0458 132.238 17.7806 132.554 17.4444 132.769C17.1106 132.982 16.7366 133.089 16.3223 133.089C16.0287 133.089 15.7789 133.04 15.573 132.943C15.3694 132.846 15.2025 132.724 15.0723 132.577C14.9421 132.428 14.8426 132.278 14.774 132.126H14.7278V135.045H13.215ZM14.6958 130.273C14.6958 130.597 14.7408 130.88 14.8308 131.121C14.9208 131.363 15.051 131.551 15.2214 131.686C15.3919 131.819 15.599 131.885 15.8429 131.885C16.0891 131.885 16.2974 131.817 16.4679 131.683C16.6383 131.545 16.7673 131.356 16.8549 131.114C16.9449 130.871 16.9899 130.59 16.9899 130.273C16.9899 129.958 16.9461 129.681 16.8585 129.442C16.7709 129.203 16.6419 129.016 16.4714 128.881C16.301 128.746 16.0914 128.678 15.8429 128.678C15.5967 128.678 15.3883 128.743 15.2179 128.874C15.0498 129.004 14.9208 129.188 14.8308 129.428C14.7408 129.667 14.6958 129.948 14.6958 130.273ZM20.612 127.545L21.6135 129.452L22.6397 127.545H24.1916L22.6113 130.273L24.2342 133H22.6895L21.6135 131.114L20.5552 133H18.9927L20.612 130.273L19.0495 127.545H20.612Z" fill="white"/>
<path d="M28 160H3C1.34315 160 0 161.343 0 163V174.891C0 176.548 1.34315 177.891 3 177.891H28C29.6569 177.891 31 176.548 31 174.891V163C31 161.343 29.6569 160 28 160Z" fill="#EE7D22"/>
<path d="M9.30252 173.099C8.75564 173.099 8.26914 173.011 7.843 172.833C7.41923 172.653 7.08661 172.408 6.84513 172.098C6.60365 171.788 6.48291 171.436 6.48291 171.043C6.48291 170.74 6.55157 170.462 6.68888 170.209C6.82856 169.953 7.01795 169.741 7.25706 169.573C7.49617 169.403 7.76369 169.294 8.05962 169.246V169.197C7.67136 169.119 7.35649 168.93 7.11502 168.632C6.87354 168.331 6.7528 167.982 6.7528 167.585C6.7528 167.208 6.86289 166.873 7.08306 166.58C7.30323 166.284 7.60507 166.052 7.9886 165.884C8.37449 165.713 8.81246 165.628 9.30252 165.628C9.79257 165.628 10.2294 165.713 10.6129 165.884C10.9988 166.054 11.3018 166.287 11.522 166.583C11.7422 166.877 11.8535 167.21 11.8558 167.585C11.8535 167.985 11.7304 168.334 11.4865 168.632C11.2427 168.93 10.9302 169.119 10.549 169.197V169.246C10.8402 169.294 11.1042 169.403 11.3409 169.573C11.58 169.741 11.7694 169.953 11.9091 170.209C12.0511 170.462 12.1233 170.74 12.1257 171.043C12.1233 171.436 12.0014 171.788 11.7599 172.098C11.5185 172.408 11.1847 172.653 10.7585 172.833C10.3348 173.011 9.84939 173.099 9.30252 173.099ZM9.30252 171.97C9.54636 171.97 9.75943 171.926 9.94172 171.839C10.1241 171.749 10.2661 171.626 10.3679 171.469C10.4721 171.311 10.5241 171.129 10.5241 170.923C10.5241 170.712 10.4709 170.526 10.3643 170.365C10.2578 170.202 10.1134 170.074 9.93107 169.982C9.74878 169.887 9.53926 169.839 9.30252 169.839C9.06814 169.839 8.85862 169.887 8.67397 169.982C8.48931 170.074 8.34371 170.202 8.23718 170.365C8.13301 170.526 8.08093 170.712 8.08093 170.923C8.08093 171.129 8.13183 171.311 8.23362 171.469C8.33542 171.626 8.47865 171.749 8.66331 171.839C8.84797 171.926 9.06104 171.97 9.30252 171.97ZM9.30252 168.721C9.50612 168.721 9.68722 168.679 9.84584 168.597C10.0045 168.514 10.1288 168.399 10.2188 168.252C10.3087 168.105 10.3537 167.936 10.3537 167.744C10.3537 167.555 10.3087 167.389 10.2188 167.247C10.1288 167.103 10.0057 166.99 9.84939 166.91C9.69314 166.827 9.51085 166.786 9.30252 166.786C9.09655 166.786 8.91426 166.827 8.75564 166.91C8.59702 166.99 8.47273 167.103 8.38277 167.247C8.29518 167.389 8.25138 167.555 8.25138 167.744C8.25138 167.936 8.29636 168.105 8.38632 168.252C8.47629 168.399 8.60058 168.514 8.75919 168.597C8.91781 168.679 9.09892 168.721 9.30252 168.721ZM13.215 175.045V167.545H14.7065V168.462H14.774C14.8403 168.315 14.9361 168.166 15.0616 168.014C15.1895 167.86 15.3552 167.732 15.5588 167.631C15.7647 167.527 16.0204 167.474 16.3258 167.474C16.7235 167.474 17.0905 167.579 17.4267 167.787C17.7628 167.993 18.0315 168.304 18.2328 168.721C18.434 169.135 18.5346 169.655 18.5346 170.28C18.5346 170.888 18.4364 171.402 18.2399 171.821C18.0458 172.238 17.7806 172.554 17.4444 172.769C17.1106 172.982 16.7366 173.089 16.3223 173.089C16.0287 173.089 15.7789 173.04 15.573 172.943C15.3694 172.846 15.2025 172.724 15.0723 172.577C14.9421 172.428 14.8426 172.278 14.774 172.126H14.7278V175.045H13.215ZM14.6958 170.273C14.6958 170.597 14.7408 170.88 14.8308 171.121C14.9208 171.363 15.051 171.551 15.2214 171.686C15.3919 171.819 15.599 171.885 15.8429 171.885C16.0891 171.885 16.2974 171.817 16.4679 171.683C16.6383 171.545 16.7673 171.356 16.8549 171.114C16.9449 170.871 16.9899 170.59 16.9899 170.273C16.9899 169.958 16.9461 169.681 16.8585 169.442C16.7709 169.203 16.6419 169.016 16.4714 168.881C16.301 168.746 16.0914 168.678 15.8429 168.678C15.5967 168.678 15.3883 168.743 15.2179 168.874C15.0498 169.004 14.9208 169.188 14.8308 169.428C14.7408 169.667 14.6958 169.948 14.6958 170.273ZM20.612 167.545L21.6135 169.452L22.6397 167.545H24.1916L22.6113 170.273L24.2342 173H22.6895L21.6135 171.114L20.5552 173H18.9927L20.612 170.273L19.0495 167.545H20.612Z" fill="white"/>
<path d="M35.5 165.479V173.43" stroke="#EE7D22"/>
<path d="M32 165.973H39" stroke="#EE7D22"/>
<path d="M32 172.93H39" stroke="#EE7D22"/>
<path d="M35.5 125V132.952" stroke="#EE7D22"/>
<path d="M32 125.494H39" stroke="#EE7D22"/>
<path d="M32 132.452H39" stroke="#EE7D22"/>
<path d="M324.5 29.4788V76.4788" stroke="#EE7D22"/>
<path d="M364 41.903H332C330.343 41.903 329 43.2461 329 44.903V56.7939C329 58.4507 330.343 59.7939 332 59.7939H364C365.657 59.7939 367 58.4507 367 56.7939V44.903C367 43.2461 365.657 41.903 364 41.903Z" fill="#EE7D22"/>
<path d="M335.479 53.6246V52.4137L338.516 47.6303H339.56V49.3065H338.942L337.028 52.3356V52.3924H341.342V53.6246H335.479ZM338.97 54.903V53.2553L338.999 52.7191V47.6303H340.44V54.903H338.97ZM345.08 55.0025C344.533 55.0025 344.047 54.9137 343.62 54.7361C343.197 54.5562 342.864 54.3112 342.623 54.0011C342.381 53.6909 342.26 53.3394 342.26 52.9464C342.26 52.6433 342.329 52.3652 342.466 52.1119C342.606 51.8562 342.795 51.6443 343.034 51.4762C343.274 51.3057 343.541 51.1968 343.837 51.1495V51.0998C343.449 51.0217 343.134 50.8334 342.892 50.5351C342.651 50.2345 342.53 49.8853 342.53 49.4876C342.53 49.1111 342.64 48.7762 342.86 48.4826C343.081 48.1867 343.382 47.9547 343.766 47.7866C344.152 47.6161 344.59 47.5309 345.08 47.5309C345.57 47.5309 346.007 47.6161 346.39 47.7866C346.776 47.957 347.079 48.1902 347.299 48.4861C347.52 48.7797 347.631 49.1135 347.633 49.4876C347.631 49.8877 347.508 50.2369 347.264 50.5351C347.02 50.8334 346.708 51.0217 346.326 51.0998V51.1495C346.618 51.1968 346.882 51.3057 347.118 51.4762C347.357 51.6443 347.547 51.8562 347.686 52.1119C347.828 52.3652 347.901 52.6433 347.903 52.9464C347.901 53.3394 347.779 53.6909 347.537 54.0011C347.296 54.3112 346.962 54.5562 346.536 54.7361C346.112 54.9137 345.627 55.0025 345.08 55.0025ZM345.08 53.8732C345.324 53.8732 345.537 53.8294 345.719 53.7418C345.901 53.6519 346.043 53.5288 346.145 53.3725C346.249 53.2139 346.301 53.0316 346.301 52.8256C346.301 52.6149 346.248 52.4291 346.142 52.2681C346.035 52.1048 345.891 51.9769 345.708 51.8846C345.526 51.7899 345.317 51.7425 345.08 51.7425C344.846 51.7425 344.636 51.7899 344.451 51.8846C344.267 51.9769 344.121 52.1048 344.015 52.2681C343.91 52.4291 343.858 52.6149 343.858 52.8256C343.858 53.0316 343.909 53.2139 344.011 53.3725C344.113 53.5288 344.256 53.6519 344.441 53.7418C344.625 53.8294 344.838 53.8732 345.08 53.8732ZM345.08 50.6239C345.283 50.6239 345.465 50.5825 345.623 50.4996C345.782 50.4168 345.906 50.302 345.996 50.1552C346.086 50.0084 346.131 49.8391 346.131 49.6474C346.131 49.458 346.086 49.2922 345.996 49.1502C345.906 49.0058 345.783 48.8933 345.627 48.8128C345.471 48.73 345.288 48.6886 345.08 48.6886C344.874 48.6886 344.692 48.73 344.533 48.8128C344.374 48.8933 344.25 49.0058 344.16 49.1502C344.073 49.2922 344.029 49.458 344.029 49.6474C344.029 49.8391 344.074 50.0084 344.164 50.1552C344.254 50.302 344.378 50.4168 344.537 50.4996C344.695 50.5825 344.876 50.6239 345.08 50.6239ZM348.992 56.9485V49.4485H350.484V50.3647H350.551C350.618 50.2179 350.713 50.0688 350.839 49.9173C350.967 49.7634 351.133 49.6355 351.336 49.5337C351.542 49.4296 351.798 49.3775 352.103 49.3775C352.501 49.3775 352.868 49.4816 353.204 49.69C353.54 49.8959 353.809 50.2073 354.01 50.6239C354.211 51.0382 354.312 51.5579 354.312 52.1829C354.312 52.7913 354.214 53.305 354.017 53.7241C353.823 54.1407 353.558 54.4568 353.222 54.6722C352.888 54.8853 352.514 54.9918 352.1 54.9918C351.806 54.9918 351.556 54.9433 351.35 54.8462C351.147 54.7492 350.98 54.6272 350.85 54.4805C350.719 54.3313 350.62 54.181 350.551 54.0295H350.505V56.9485H348.992ZM350.473 52.1758C350.473 52.5001 350.518 52.783 350.608 53.0245C350.698 53.266 350.828 53.4542 350.999 53.5891C351.169 53.7217 351.376 53.788 351.62 53.788C351.866 53.788 352.075 53.7205 352.245 53.5856C352.416 53.4483 352.545 53.2589 352.632 53.0174C352.722 52.7735 352.767 52.493 352.767 52.1758C352.767 51.8609 352.723 51.5839 352.636 51.3448C352.548 51.1057 352.419 50.9187 352.249 50.7837C352.078 50.6488 351.869 50.5813 351.62 50.5813C351.374 50.5813 351.166 50.6464 350.995 50.7766C350.827 50.9068 350.698 51.0915 350.608 51.3306C350.518 51.5697 350.473 51.8514 350.473 52.1758ZM356.389 49.4485L357.391 51.3555L358.417 49.4485H359.969L358.389 52.1758L360.012 54.903H358.467L357.391 53.0174L356.333 54.903H354.77L356.389 52.1758L354.827 49.4485H356.389Z" fill="white"/>
<path d="M321 29.9727H328" stroke="#EE7D22"/>
<path d="M321 76.5H328" stroke="#EE7D22"/>
<path d="M324.5 125.479V172.479" stroke="#EE7D22"/>
<path d="M364 137.903H332C330.343 137.903 329 139.246 329 140.903V152.794C329 154.451 330.343 155.794 332 155.794H364C365.657 155.794 367 154.451 367 152.794V140.903C367 139.246 365.657 137.903 364 137.903Z" fill="#EE7D22"/>
<path d="M335.479 149.625V148.414L338.516 143.63H339.56V145.306H338.942L337.028 148.336V148.392H341.342V149.625H335.479ZM338.97 150.903V149.255L338.999 148.719V143.63H340.44V150.903H338.97ZM345.08 151.002C344.533 151.002 344.047 150.914 343.62 150.736C343.197 150.556 342.864 150.311 342.623 150.001C342.381 149.691 342.26 149.339 342.26 148.946C342.26 148.643 342.329 148.365 342.466 148.112C342.606 147.856 342.795 147.644 343.034 147.476C343.274 147.306 343.541 147.197 343.837 147.149V147.1C343.449 147.022 343.134 146.833 342.892 146.535C342.651 146.234 342.53 145.885 342.53 145.488C342.53 145.111 342.64 144.776 342.86 144.483C343.081 144.187 343.382 143.955 343.766 143.787C344.152 143.616 344.59 143.531 345.08 143.531C345.57 143.531 346.007 143.616 346.39 143.787C346.776 143.957 347.079 144.19 347.299 144.486C347.52 144.78 347.631 145.114 347.633 145.488C347.631 145.888 347.508 146.237 347.264 146.535C347.02 146.833 346.708 147.022 346.326 147.1V147.149C346.618 147.197 346.882 147.306 347.118 147.476C347.357 147.644 347.547 147.856 347.686 148.112C347.828 148.365 347.901 148.643 347.903 148.946C347.901 149.339 347.779 149.691 347.537 150.001C347.296 150.311 346.962 150.556 346.536 150.736C346.112 150.914 345.627 151.002 345.08 151.002ZM345.08 149.873C345.324 149.873 345.537 149.829 345.719 149.742C345.901 149.652 346.043 149.529 346.145 149.373C346.249 149.214 346.301 149.032 346.301 148.826C346.301 148.615 346.248 148.429 346.142 148.268C346.035 148.105 345.891 147.977 345.708 147.885C345.526 147.79 345.317 147.743 345.08 147.743C344.846 147.743 344.636 147.79 344.451 147.885C344.267 147.977 344.121 148.105 344.015 148.268C343.91 148.429 343.858 148.615 343.858 148.826C343.858 149.032 343.909 149.214 344.011 149.373C344.113 149.529 344.256 149.652 344.441 149.742C344.625 149.829 344.838 149.873 345.08 149.873ZM345.08 146.624C345.283 146.624 345.465 146.582 345.623 146.5C345.782 146.417 345.906 146.302 345.996 146.155C346.086 146.008 346.131 145.839 346.131 145.647C346.131 145.458 346.086 145.292 345.996 145.15C345.906 145.006 345.783 144.893 345.627 144.813C345.471 144.73 345.288 144.689 345.08 144.689C344.874 144.689 344.692 144.73 344.533 144.813C344.374 144.893 344.25 145.006 344.16 145.15C344.073 145.292 344.029 145.458 344.029 145.647C344.029 145.839 344.074 146.008 344.164 146.155C344.254 146.302 344.378 146.417 344.537 146.5C344.695 146.582 344.876 146.624 345.08 146.624ZM348.992 152.949V145.449H350.484V146.365H350.551C350.618 146.218 350.713 146.069 350.839 145.917C350.967 145.763 351.133 145.636 351.336 145.534C351.542 145.43 351.798 145.377 352.103 145.377C352.501 145.377 352.868 145.482 353.204 145.69C353.54 145.896 353.809 146.207 354.01 146.624C354.211 147.038 354.312 147.558 354.312 148.183C354.312 148.791 354.214 149.305 354.017 149.724C353.823 150.141 353.558 150.457 353.222 150.672C352.888 150.885 352.514 150.992 352.1 150.992C351.806 150.992 351.556 150.943 351.35 150.846C351.147 150.749 350.98 150.627 350.85 150.48C350.719 150.331 350.62 150.181 350.551 150.029H350.505V152.949H348.992ZM350.473 148.176C350.473 148.5 350.518 148.783 350.608 149.024C350.698 149.266 350.828 149.454 350.999 149.589C351.169 149.722 351.376 149.788 351.62 149.788C351.866 149.788 352.075 149.721 352.245 149.586C352.416 149.448 352.545 149.259 352.632 149.017C352.722 148.774 352.767 148.493 352.767 148.176C352.767 147.861 352.723 147.584 352.636 147.345C352.548 147.106 352.419 146.919 352.249 146.784C352.078 146.649 351.869 146.581 351.62 146.581C351.374 146.581 351.166 146.646 350.995 146.777C350.827 146.907 350.698 147.091 350.608 147.331C350.518 147.57 350.473 147.851 350.473 148.176ZM356.389 145.449L357.391 147.355L358.417 145.449H359.969L358.389 148.176L360.012 150.903H358.467L357.391 149.017L356.333 150.903H354.77L356.389 148.176L354.827 145.449H356.389Z" fill="white"/>
<path d="M321 125.973H328" stroke="#EE7D22"/>
<path d="M321 172.5H328" stroke="#EE7D22"/>
<path d="M59 23.4788H75" stroke="#EE7D22"/>
<path d="M59.5 26.9576V20" stroke="#EE7D22"/>
<path d="M74.5 26.9576V20" stroke="#EE7D22"/>
<path d="M43 23.4788H59" stroke="#EE7D22"/>
<path d="M43.5 26.9576V20" stroke="#EE7D22"/>
<path d="M94 0H64C62.3431 0 61 1.34315 61 3V14.8909C61 16.5478 62.3431 17.8909 64 17.8909H94C95.6569 17.8909 97 16.5478 97 14.8909V3C97 1.34315 95.6569 0 94 0Z" fill="#EE7D22"/>
<path d="M70.7536 5.72724V13H69.2159V7.18676H69.1733L67.5078 8.23079V6.86716L69.3082 5.72724H70.7536ZM75.2733 13.0994C74.8992 13.0971 74.5382 13.0343 74.1902 12.9112C73.8445 12.7881 73.5344 12.5881 73.2598 12.3111C72.9851 12.0341 72.7673 11.6671 72.6064 11.2102C72.4477 10.7533 72.3684 10.1922 72.3684 9.52696C72.3708 8.91616 72.4406 8.37047 72.5779 7.88988C72.7176 7.40693 72.9165 6.99737 73.1745 6.66119C73.435 6.32502 73.7463 6.06934 74.1085 5.89415C74.4707 5.71659 74.8767 5.62781 75.3265 5.62781C75.8118 5.62781 76.2404 5.72251 76.612 5.9119C76.9837 6.09893 77.282 6.35343 77.5069 6.6754C77.7342 6.99737 77.8715 7.3584 77.9189 7.75849H76.4025C76.3433 7.50518 76.219 7.30631 76.0297 7.1619C75.8403 7.01749 75.6059 6.94528 75.3265 6.94528C74.853 6.94528 74.4932 7.15125 74.247 7.56318C74.0031 7.97511 73.8788 8.53501 73.8741 9.24287H73.9238C74.0327 9.02743 74.1795 8.84396 74.3642 8.69244C74.5512 8.53856 74.7631 8.42137 74.9998 8.34088C75.2389 8.25802 75.4911 8.21659 75.7562 8.21659C76.1871 8.21659 76.5706 8.31839 76.9068 8.52199C77.243 8.72322 77.5081 9.00021 77.7022 9.35295C77.8964 9.7057 77.9934 10.1094 77.9934 10.5639C77.9934 11.0563 77.8786 11.4943 77.649 11.8778C77.4217 12.2614 77.1033 12.562 76.6937 12.7798C76.2865 12.9953 75.813 13.1018 75.2733 13.0994ZM75.2662 11.892C75.5029 11.892 75.7148 11.8352 75.9018 11.7216C76.0888 11.608 76.2356 11.4541 76.3422 11.2599C76.4487 11.0658 76.502 10.848 76.502 10.6065C76.502 10.3651 76.4487 10.1484 76.3422 9.95665C76.238 9.76488 76.0936 9.61219 75.9089 9.49855C75.7243 9.38491 75.5136 9.32809 75.2768 9.32809C75.0993 9.32809 74.9347 9.36124 74.7832 9.42753C74.6341 9.49381 74.5027 9.58614 74.389 9.70452C74.2778 9.82289 74.1902 9.9602 74.1262 10.1165C74.0623 10.2704 74.0304 10.4349 74.0304 10.6101C74.0304 10.8445 74.0836 11.0587 74.1902 11.2528C74.2991 11.447 74.4458 11.602 74.6305 11.718C74.8175 11.834 75.0294 11.892 75.2662 11.892ZM79.0978 15.0455V7.54542H80.5893V8.46162H80.6568C80.7231 8.31484 80.819 8.16569 80.9444 8.01417C81.0723 7.86029 81.238 7.73245 81.4416 7.63065C81.6475 7.52649 81.9032 7.4744 82.2086 7.4744C82.6064 7.4744 82.9733 7.57857 83.3095 7.7869C83.6457 7.99287 83.9144 8.30418 84.1156 8.72085C84.3168 9.13515 84.4174 9.6548 84.4174 10.2798C84.4174 10.8883 84.3192 11.402 84.1227 11.821C83.9286 12.2377 83.6634 12.5537 83.3272 12.7692C82.9934 12.9822 82.6194 13.0888 82.2051 13.0888C81.9115 13.0888 81.6618 13.0402 81.4558 12.9432C81.2522 12.8461 81.0853 12.7242 80.9551 12.5774C80.8249 12.4283 80.7254 12.2779 80.6568 12.1264H80.6106V15.0455H79.0978ZM80.5787 10.2727C80.5787 10.5971 80.6236 10.88 80.7136 11.1214C80.8036 11.3629 80.9338 11.5511 81.1042 11.6861C81.2747 11.8187 81.4818 11.8849 81.7257 11.8849C81.9719 11.8849 82.1802 11.8175 82.3507 11.6825C82.5211 11.5452 82.6502 11.3558 82.7377 11.1143C82.8277 10.8705 82.8727 10.59 82.8727 10.2727C82.8727 9.95783 82.8289 9.68084 82.7413 9.44173C82.6537 9.20262 82.5247 9.01559 82.3542 8.88065C82.1838 8.74571 81.9743 8.67824 81.7257 8.67824C81.4795 8.67824 81.2711 8.74334 81.1007 8.87355C80.9326 9.00376 80.8036 9.18842 80.7136 9.42753C80.6236 9.66664 80.5787 9.94836 80.5787 10.2727ZM86.4949 7.54542L87.4963 9.45238L88.5225 7.54542H90.0744L88.4941 10.2727L90.117 13H88.5723L87.4963 11.1143L86.438 13H84.8755L86.4949 10.2727L84.9324 7.54542H86.4949Z" fill="white"/>
<path d="M55 0H25C23.3431 0 22 1.34315 22 3V14.8909C22 16.5478 23.3431 17.8909 25 17.8909H55C56.6569 17.8909 58 16.5478 58 14.8909V3C58 1.34315 56.6569 0 55 0Z" fill="#EE7D22"/>
<path d="M31.7536 5.72724V13H30.2159V7.18676H30.1733L28.5078 8.23079V6.86716L30.3082 5.72724H31.7536ZM36.2733 13.0994C35.8992 13.0971 35.5382 13.0343 35.1902 12.9112C34.8445 12.7881 34.5344 12.5881 34.2598 12.3111C33.9851 12.0341 33.7673 11.6671 33.6064 11.2102C33.4477 10.7533 33.3684 10.1922 33.3684 9.52696C33.3708 8.91616 33.4406 8.37047 33.5779 7.88988C33.7176 7.40693 33.9165 6.99737 34.1745 6.66119C34.435 6.32502 34.7463 6.06934 35.1085 5.89415C35.4707 5.71659 35.8767 5.62781 36.3265 5.62781C36.8118 5.62781 37.2404 5.72251 37.612 5.9119C37.9837 6.09893 38.282 6.35343 38.5069 6.6754C38.7342 6.99737 38.8715 7.3584 38.9189 7.75849H37.4025C37.3433 7.50518 37.219 7.30631 37.0297 7.1619C36.8403 7.01749 36.6059 6.94528 36.3265 6.94528C35.853 6.94528 35.4932 7.15125 35.247 7.56318C35.0031 7.97511 34.8788 8.53501 34.8741 9.24287H34.9238C35.0327 9.02743 35.1795 8.84396 35.3642 8.69244C35.5512 8.53856 35.7631 8.42137 35.9998 8.34088C36.2389 8.25802 36.4911 8.21659 36.7562 8.21659C37.1871 8.21659 37.5706 8.31839 37.9068 8.52199C38.243 8.72322 38.5081 9.00021 38.7022 9.35295C38.8964 9.7057 38.9934 10.1094 38.9934 10.5639C38.9934 11.0563 38.8786 11.4943 38.649 11.8778C38.4217 12.2614 38.1033 12.562 37.6937 12.7798C37.2865 12.9953 36.813 13.1018 36.2733 13.0994ZM36.2662 11.892C36.5029 11.892 36.7148 11.8352 36.9018 11.7216C37.0888 11.608 37.2356 11.4541 37.3422 11.2599C37.4487 11.0658 37.502 10.848 37.502 10.6065C37.502 10.3651 37.4487 10.1484 37.3422 9.95665C37.238 9.76488 37.0936 9.61219 36.9089 9.49855C36.7243 9.38491 36.5136 9.32809 36.2768 9.32809C36.0993 9.32809 35.9347 9.36124 35.7832 9.42753C35.6341 9.49381 35.5027 9.58614 35.389 9.70452C35.2778 9.82289 35.1902 9.9602 35.1262 10.1165C35.0623 10.2704 35.0304 10.4349 35.0304 10.6101C35.0304 10.8445 35.0836 11.0587 35.1902 11.2528C35.2991 11.447 35.4458 11.602 35.6305 11.718C35.8175 11.834 36.0294 11.892 36.2662 11.892ZM40.0978 15.0455V7.54542H41.5893V8.46162H41.6568C41.7231 8.31484 41.819 8.16569 41.9444 8.01417C42.0723 7.86029 42.238 7.73245 42.4416 7.63065C42.6475 7.52649 42.9032 7.4744 43.2086 7.4744C43.6064 7.4744 43.9733 7.57857 44.3095 7.7869C44.6457 7.99287 44.9144 8.30418 45.1156 8.72085C45.3168 9.13515 45.4174 9.6548 45.4174 10.2798C45.4174 10.8883 45.3192 11.402 45.1227 11.821C44.9286 12.2377 44.6634 12.5537 44.3272 12.7692C43.9934 12.9822 43.6194 13.0888 43.2051 13.0888C42.9115 13.0888 42.6618 13.0402 42.4558 12.9432C42.2522 12.8461 42.0853 12.7242 41.9551 12.5774C41.8249 12.4283 41.7254 12.2779 41.6568 12.1264H41.6106V15.0455H40.0978ZM41.5787 10.2727C41.5787 10.5971 41.6236 10.88 41.7136 11.1214C41.8036 11.3629 41.9338 11.5511 42.1042 11.6861C42.2747 11.8187 42.4818 11.8849 42.7257 11.8849C42.9719 11.8849 43.1802 11.8175 43.3507 11.6825C43.5211 11.5452 43.6502 11.3558 43.7377 11.1143C43.8277 10.8705 43.8727 10.59 43.8727 10.2727C43.8727 9.95783 43.8289 9.68084 43.7413 9.44173C43.6537 9.20262 43.5247 9.01559 43.3542 8.88065C43.1838 8.74571 42.9743 8.67824 42.7257 8.67824C42.4795 8.67824 42.2711 8.74334 42.1007 8.87355C41.9326 9.00376 41.8036 9.18842 41.7136 9.42753C41.6236 9.66664 41.5787 9.94836 41.5787 10.2727ZM47.4949 7.54542L48.4963 9.45238L49.5225 7.54542H51.0744L49.4941 10.2727L51.117 13H49.5723L48.4963 11.1143L47.438 13H45.8755L47.4949 10.2727L45.9324 7.54542H47.4949Z" fill="white"/>
<path d="M107 125H43V173H107V125Z" fill="#EE7D22" fill-opacity="0.24"/>
<path d="M310 125H43V133H310V125Z" fill="#EE7D22" fill-opacity="0.24"/>
<path d="M310 165H43V173H310V165Z" fill="#EE7D22" fill-opacity="0.24"/>
<path d="M44 185H106" stroke="#EE7D22"/>
<path d="M96 190H58C56.3431 190 55 191.343 55 193V205C55 206.657 56.3431 208 58 208H96C97.6569 208 99 206.657 99 205V193C99 191.343 97.6569 190 96 190Z" fill="#EE7D22"/>
<path d="M61.8984 202.123V200.919H66.8984V202.123H61.8984ZM66.8984 199.214L61.8984 200.564V199.399L65.1974 198.604L65.1513 198.678V198.501L65.1974 198.575L61.8984 197.78V196.615L66.8984 197.964V199.214ZM71.0746 203.099C70.5443 203.099 70.072 203.008 69.6577 202.826C69.2457 202.641 68.9202 202.388 68.6811 202.066C68.4444 201.742 68.3224 201.368 68.3153 200.944H69.8636C69.8731 201.121 69.9311 201.278 70.0376 201.413C70.1465 201.545 70.291 201.648 70.4709 201.722C70.6508 201.795 70.8532 201.832 71.0781 201.832C71.3125 201.832 71.5196 201.79 71.6996 201.707C71.8795 201.625 72.0204 201.51 72.1222 201.363C72.224 201.216 72.2749 201.047 72.2749 200.855C72.2749 200.661 72.2204 200.489 72.1115 200.34C72.005 200.189 71.8511 200.07 71.6499 199.985C71.451 199.9 71.2143 199.857 70.9396 199.857H70.2614V198.728H70.9396C71.1716 198.728 71.3764 198.688 71.554 198.607C71.7339 198.527 71.8736 198.415 71.973 198.273C72.0724 198.129 72.1222 197.961 72.1222 197.769C72.1222 197.587 72.0784 197.427 71.9908 197.29C71.9055 197.15 71.7848 197.041 71.6286 196.963C71.4747 196.885 71.2947 196.846 71.0888 196.846C70.8804 196.846 70.6899 196.884 70.517 196.96C70.3442 197.033 70.2057 197.138 70.1016 197.276C69.9974 197.413 69.9418 197.574 69.9347 197.759H68.4609C68.468 197.339 68.5876 196.97 68.8196 196.651C69.0516 196.331 69.3641 196.081 69.7571 195.901C70.1525 195.719 70.5987 195.628 71.0959 195.628C71.5978 195.628 72.0369 195.719 72.4134 195.901C72.7898 196.084 73.0821 196.33 73.2905 196.64C73.5012 196.948 73.6054 197.293 73.603 197.677C73.6054 198.084 73.4787 198.424 73.223 198.696C72.9697 198.968 72.6394 199.141 72.2322 199.214V199.271C72.7673 199.34 73.1745 199.526 73.4538 199.829C73.7356 200.129 73.8752 200.506 73.8729 200.958C73.8752 201.372 73.7557 201.741 73.5142 202.062C73.2751 202.384 72.9448 202.638 72.5234 202.822C72.102 203.007 71.6191 203.099 71.0746 203.099ZM74.9782 203V201.892L77.5669 199.495C77.7871 199.282 77.9718 199.09 78.1209 198.92C78.2724 198.749 78.3873 198.582 78.4654 198.419C78.5435 198.253 78.5826 198.075 78.5826 197.883C78.5826 197.67 78.534 197.486 78.437 197.332C78.3399 197.176 78.2073 197.057 78.0392 196.974C77.8712 196.888 77.6806 196.846 77.4675 196.846C77.245 196.846 77.0508 196.891 76.8851 196.981C76.7194 197.071 76.5916 197.2 76.5016 197.368C76.4116 197.536 76.3667 197.736 76.3667 197.968H74.9071C74.9071 197.492 75.0149 197.079 75.2303 196.729C75.4457 196.378 75.7476 196.107 76.1358 195.915C76.5241 195.724 76.9715 195.628 77.4782 195.628C77.999 195.628 78.4524 195.72 78.8382 195.905C79.2265 196.087 79.5284 196.34 79.7438 196.665C79.9592 196.989 80.0669 197.361 80.0669 197.78C80.0669 198.054 80.0125 198.326 79.9036 198.593C79.7971 198.861 79.6065 199.158 79.3319 199.484C79.0572 199.809 78.6702 200.198 78.1706 200.653L77.1088 201.693V201.743H80.1628V203H74.9782ZM81.2912 205.045V197.545H82.7827V198.462H82.8501C82.9164 198.315 83.0123 198.166 83.1378 198.014C83.2656 197.86 83.4313 197.732 83.6349 197.631C83.8409 197.527 84.0966 197.474 84.402 197.474C84.7997 197.474 85.1667 197.579 85.5028 197.787C85.839 197.993 86.1077 198.304 86.3089 198.721C86.5102 199.135 86.6108 199.655 86.6108 200.28C86.6108 200.888 86.5125 201.402 86.3161 201.821C86.1219 202.238 85.8568 202.554 85.5206 202.769C85.1868 202.982 84.8127 203.089 84.3984 203.089C84.1049 203.089 83.8551 203.04 83.6491 202.943C83.4455 202.846 83.2786 202.724 83.1484 202.577C83.0182 202.428 82.9188 202.278 82.8501 202.126H82.804V205.045H81.2912ZM82.772 200.273C82.772 200.597 82.817 200.88 82.907 201.121C82.9969 201.363 83.1271 201.551 83.2976 201.686C83.468 201.819 83.6752 201.885 83.919 201.885C84.1652 201.885 84.3736 201.817 84.544 201.683C84.7145 201.545 84.8435 201.356 84.9311 201.114C85.0211 200.871 85.0661 200.59 85.0661 200.273C85.0661 199.958 85.0223 199.681 84.9347 199.442C84.8471 199.203 84.718 199.016 84.5476 198.881C84.3771 198.746 84.1676 198.678 83.919 198.678C83.6728 198.678 83.4645 198.743 83.294 198.874C83.1259 199.004 82.9969 199.188 82.907 199.428C82.817 199.667 82.772 199.948 82.772 200.273ZM88.6882 197.545L89.6896 199.452L90.7159 197.545H92.2678L90.6875 200.273L92.3104 203H90.7656L89.6896 201.114L88.6314 203H87.0689L88.6882 200.273L87.1257 197.545H88.6882Z" fill="white"/>
<path d="M44 189V182" stroke="#EE7D22"/>
<path d="M106.5 189V182" stroke="#EE7D22"/>
<path d="M117.109 101.891V103.453C117.109 105.276 117.969 106.188 119.688 106.188C121.406 106.188 122.266 105.276 122.266 103.453V101.891H117.109ZM117.109 100.719H122.266V98.7656C122.266 98.401 122.005 98.0104 121.484 97.5938V96.8125C121.484 96.0312 121.875 95.6406 122.656 95.6406H123.984V96.8125H123.047C122.786 96.8125 122.656 96.9427 122.656 97.2031C123.281 97.6198 123.594 98.1406 123.594 98.7656V103.453C123.594 106.057 122.292 107.359 119.688 107.359C117.083 107.359 115.781 106.057 115.781 103.453V98.7656C115.781 98.401 115.521 98.0104 115 97.5938V96.8125C115 96.0312 115.391 95.6406 116.172 95.6406H117.5V96.8125H116.562C116.302 96.8125 116.172 96.9427 116.172 97.2031C116.797 97.6198 117.109 98.1406 117.109 98.7656V100.719Z" fill="#1C4076"/>
<path d="M123.594 108.141V112.438H122.266V108.141H123.594Z" fill="#1C4076"/>
<path d="M118.906 92.2812H122.422C121.125 91.3958 120.083 90.9531 119.297 90.9531C118.255 90.9531 117.734 91.1745 117.734 91.6172C117.734 92.0599 118.125 92.2812 118.906 92.2812ZM122.578 91.1172V89H123.594V93.2969H118.516C117.214 93.2969 116.562 92.776 116.562 91.7344C116.562 90.4323 117.474 89.7812 119.297 89.7812C119.891 89.7812 120.464 89.8958 121.016 90.125V89H122.031V90.6875C122.099 90.7344 122.164 90.7839 122.227 90.8359C122.352 90.9349 122.469 91.0286 122.578 91.1172Z" fill="#1C4076"/>
<path d="M135.312 102.594V104.234C135.312 106.318 134.583 107.359 133.125 107.359C132.052 107.359 131.258 107.034 130.742 106.383C130.227 105.732 129.589 105.406 128.828 105.406V107.359H127.5V102.672H128.828V104.234C129.74 104.234 130.479 104.56 131.047 105.211C131.62 105.862 132.201 106.188 132.789 106.188C133.586 106.188 133.984 105.536 133.984 104.234V103.453C129.661 102.516 127.5 100.953 127.5 98.7656C127.5 96.6823 128.802 95.6406 131.406 95.6406C134.01 95.6406 135.312 96.6823 135.312 98.7656C135.312 100.219 134.589 100.945 133.141 100.945C132.812 100.945 132.547 100.87 132.344 100.719V99.5469C132.714 99.6562 133.016 99.7109 133.25 99.7109C133.74 99.7109 133.984 99.3958 133.984 98.7656C133.984 97.4635 133.125 96.8125 131.406 96.8125C129.688 96.8125 128.828 97.4635 128.828 98.7656C128.828 100.328 130.99 101.604 135.312 102.594Z" fill="#1C4076"/>
<path d="M135.312 108.141V112.438H133.984V108.141H135.312Z" fill="#1C4076"/>
<path d="M140.547 97.3984C140.656 97.3984 140.747 97.3646 140.82 97.2969C140.898 97.2292 140.938 97.1328 140.938 97.0078C140.938 96.8828 140.898 96.7865 140.82 96.7188C140.747 96.651 140.656 96.6172 140.547 96.6172V97.3984ZM151.172 98.7656C151.172 98.401 150.911 98.0104 150.391 97.5938V96.8125C150.391 96.0312 150.781 95.6406 151.562 95.6406H152.891V96.8125H151.953C151.693 96.8125 151.562 96.9427 151.562 97.2031C152.188 97.6198 152.5 98.1406 152.5 98.7656V103.453C152.5 106.057 151.328 107.359 148.984 107.359C147.422 107.359 146.38 106.781 145.859 105.625C145.339 106.781 144.297 107.359 142.734 107.359C140.391 107.359 139.219 106.057 139.219 103.453V97.0078C139.219 96.6016 139.318 96.2734 139.516 96.0234C139.719 95.7682 140.049 95.6406 140.508 95.6406C140.966 95.6406 141.294 95.7682 141.492 96.0234C141.695 96.2734 141.797 96.6016 141.797 97.0078C141.797 97.4141 141.695 97.7422 141.492 97.9922C141.32 98.2161 141.057 98.3281 140.703 98.3281C140.651 98.3281 140.599 98.3255 140.547 98.3203V103.453C140.547 105.276 141.276 106.188 142.734 106.188C144.375 106.188 145.195 105.276 145.195 103.453V98.7656C145.195 98.401 144.935 98.0104 144.414 97.5938V96.8125C144.414 96.0312 144.805 95.6406 145.586 95.6406H146.914V96.8125H145.977C145.716 96.8125 145.586 96.9427 145.586 97.2031C146.211 97.6198 146.523 98.1406 146.523 98.7656V103.453C146.523 105.276 147.344 106.188 148.984 106.188C150.443 106.188 151.172 105.276 151.172 103.453V98.7656Z" fill="#1C4076"/>
<path d="M156.406 106.188V105.016H156.211C156.154 105.016 156.107 105.042 156.07 105.094C156.034 105.141 156.016 105.31 156.016 105.602C156.016 105.893 156.034 106.065 156.07 106.117C156.107 106.164 156.154 106.188 156.211 106.188H156.406ZM157.734 98.7656V105.602C157.734 106.268 157.646 106.729 157.469 106.984C157.297 107.234 156.969 107.359 156.484 107.359C156 107.359 155.669 107.234 155.492 106.984C155.32 106.729 155.234 106.268 155.234 105.602C155.234 104.935 155.32 104.477 155.492 104.227C155.669 103.971 155.909 103.844 156.211 103.844C156.279 103.844 156.344 103.849 156.406 103.859V98.7656C156.302 98.401 156.042 98.0104 155.625 97.5938V96.8125C155.625 96.0312 156.016 95.6406 156.797 95.6406H158.125V96.8125H157.188C156.927 96.8125 156.797 96.9427 156.797 97.2031C157.422 97.6198 157.734 98.1406 157.734 98.7656Z" fill="#1C4076"/>
<path d="M167.5 96.8281C167.5 96.6719 167.396 96.5938 167.188 96.5938C166.979 96.5938 166.875 96.6719 166.875 96.8281C166.875 96.9688 166.979 97.1094 167.188 97.25C167.396 97.1406 167.5 97 167.5 96.8281ZM161.445 100.719C161.388 100.719 161.341 100.745 161.305 100.797C161.268 100.844 161.25 101.013 161.25 101.305C161.25 101.596 161.268 101.768 161.305 101.82C161.341 101.867 161.388 101.891 161.445 101.891H161.641V100.719H161.445ZM162.969 105.797L165.547 103.453L168.125 105.797V100.328C168.125 99.7656 167.703 99.1693 166.859 98.5391C166.432 98.9505 165.708 99.1562 164.688 99.1562C163.552 99.1562 162.76 99.0078 162.312 98.7109C161.865 98.4141 161.641 98.0026 161.641 97.4766C161.641 96.9557 161.745 96.4688 161.953 96.0156C162.161 95.5573 162.266 95.1849 162.266 94.8984C162.266 94.612 161.927 94.4688 161.25 94.4688V93.2969C162.708 93.2969 163.438 93.7917 163.438 94.7812C163.438 95.1719 163.333 95.6094 163.125 96.0938C162.917 96.5729 162.812 96.9141 162.812 97.1172C162.812 97.3255 162.943 97.5234 163.203 97.7109C163.464 97.8932 163.977 97.9844 164.742 97.9844C165.404 97.9844 165.88 97.8984 166.172 97.7266C165.911 97.513 165.781 97.1823 165.781 96.7344C165.781 96.0052 166.25 95.6406 167.188 95.6406C168.177 95.6406 168.672 96.0833 168.672 96.9688C168.672 97.4219 168.469 97.8073 168.062 98.125C168.99 98.7969 169.453 99.5312 169.453 100.328V107.359H167.891L165.547 105.016L163.203 107.359H161.641V103.047C161.578 103.057 161.513 103.062 161.445 103.062C161.143 103.062 160.904 102.938 160.727 102.688C160.555 102.432 160.469 101.971 160.469 101.305C160.469 100.638 160.555 100.18 160.727 99.9297C160.904 99.6745 161.234 99.5469 161.719 99.5469C162.203 99.5469 162.531 99.6745 162.703 99.9297C162.88 100.18 162.969 100.638 162.969 101.305V105.797Z" fill="#1C4076"/>
<path d="M181.031 106.188C183.01 106.188 184 104.495 184 101.109C184 98.2448 183.141 96.8125 181.422 96.8125C179.703 96.8125 178.844 97.724 178.844 99.5469C178.844 99.8646 178.904 100.146 179.023 100.391C179.148 100.63 179.409 100.75 179.805 100.75C180.18 100.75 180.417 100.695 180.516 100.586C180.594 100.497 180.633 100.411 180.633 100.328C180.633 100.302 180.63 100.279 180.625 100.258C180.599 100.148 180.557 100.094 180.5 100.094C180.443 100.094 180.289 100.18 180.039 100.352L179.695 99.4531C180.06 99.1875 180.388 99.0547 180.68 99.0547C180.997 99.0547 181.245 99.1484 181.422 99.3359C181.599 99.5234 181.688 99.8516 181.688 100.32C181.688 100.581 181.62 100.859 181.484 101.156C181.354 101.453 181.135 101.664 180.828 101.789C180.521 101.909 180.201 101.969 179.867 101.969C179.477 101.969 179.112 101.911 178.773 101.797C178.44 101.682 178.146 101.448 177.891 101.094C177.641 100.734 177.516 100.219 177.516 99.5469C177.516 96.9427 178.818 95.6406 181.422 95.6406C184.026 95.6406 185.328 97.4635 185.328 101.109C185.328 105.276 183.896 107.359 181.031 107.359C179.964 107.359 179.026 107.073 178.219 106.5L178.609 105.406C179.182 105.927 179.99 106.188 181.031 106.188Z" fill="#1C4076"/>
<path d="M117.906 149.922V151.094C117.906 152.656 118.661 153.438 120.172 153.438C121.682 153.438 122.438 152.656 122.438 151.094V149.922H117.906ZM122.438 146.406C122.438 145.979 122.177 145.557 121.656 145.141V144.453C121.656 143.672 122.151 143.281 123.141 143.281H124.781V144.844H123.453V144.938C124.078 145.354 124.391 145.844 124.391 146.406V151.094C124.391 153.698 122.984 155 120.172 155C117.359 155 115.953 153.698 115.953 151.094V146.406C115.953 145.979 115.693 145.557 115.172 145.141V144.453C115.172 143.672 115.667 143.281 116.656 143.281H118.297V144.844H116.969V144.938C117.594 145.354 117.906 145.844 117.906 146.406V148.359H122.438V146.406ZM118.531 139.414C118.531 139.701 118.792 139.844 119.312 139.844H122.828C121.792 139.271 120.88 138.984 120.094 138.984C119.052 138.984 118.531 139.128 118.531 139.414ZM121.344 137.602V136.641H122.594V138.172C122.74 138.266 122.883 138.367 123.023 138.477C123.065 138.508 123.104 138.539 123.141 138.57V136.641H124.391V140.938H118.922C117.62 140.938 116.969 140.417 116.969 139.375C116.969 138.073 118.01 137.422 120.094 137.422C120.521 137.422 120.938 137.482 121.344 137.602ZM124.391 155.781V160.078H122.438V155.781H124.391ZM136.734 149.898V151.875C136.734 153.958 135.901 155 134.234 155C133 155 132.125 154.674 131.609 154.023C131.094 153.372 130.641 153.047 130.25 153.047V155H128.297V150.312H130.25V151.484C131.109 151.484 131.823 151.81 132.391 152.461C132.964 153.112 133.466 153.438 133.898 153.438C134.487 153.438 134.781 152.917 134.781 151.875V151.039C130.458 150.102 128.297 148.557 128.297 146.406C128.297 144.323 129.703 143.281 132.516 143.281C135.328 143.281 136.734 144.323 136.734 146.406C136.734 147.859 135.906 148.586 134.25 148.586C133.797 148.586 133.427 148.479 133.141 148.266V146.68C133.776 146.867 134.182 146.961 134.359 146.961C134.641 146.961 134.781 146.776 134.781 146.406C134.781 145.365 134.026 144.844 132.516 144.844C131.005 144.844 130.25 145.365 130.25 146.406C130.25 147.745 132.411 148.909 136.734 149.898ZM136.734 155.781V160.078H134.781V155.781H136.734ZM142.203 144.891C142.333 144.891 142.419 144.862 142.461 144.805C142.497 144.763 142.516 144.708 142.516 144.641C142.516 144.573 142.495 144.513 142.453 144.461C142.411 144.404 142.328 144.375 142.203 144.375V144.891ZM142.594 151.094C142.594 152.656 143.219 153.438 144.469 153.438C145.901 153.438 146.617 152.656 146.617 151.094V146.406C146.617 145.979 146.357 145.557 145.836 145.141V144.453C145.836 143.672 146.331 143.281 147.32 143.281H148.961V144.844H147.633V144.938C148.258 145.354 148.57 145.844 148.57 146.406V151.094C148.57 152.656 149.286 153.438 150.719 153.438C151.969 153.438 152.594 152.656 152.594 151.094V146.406C152.594 145.979 152.333 145.557 151.812 145.141V144.453C151.812 143.672 152.307 143.281 153.297 143.281H154.938V144.844H153.609V144.938C154.234 145.354 154.547 145.844 154.547 146.406V151.094C154.547 153.698 153.271 155 150.719 155C148.969 155 147.927 154.633 147.594 153.898C147.26 154.633 146.219 155 144.469 155C141.917 155 140.641 153.698 140.641 151.094V144.648C140.641 144.299 140.753 143.984 140.977 143.703C141.201 143.422 141.609 143.281 142.203 143.281C142.849 143.281 143.284 143.422 143.508 143.703C143.732 143.984 143.844 144.299 143.844 144.648C143.844 144.997 143.75 145.286 143.562 145.516C143.333 145.818 143.01 145.977 142.594 145.992V151.094ZM158.844 152.773C158.682 152.784 158.576 152.823 158.523 152.891C158.477 152.958 158.453 153.07 158.453 153.227C158.453 153.378 158.477 153.49 158.523 153.562C158.576 153.63 158.682 153.664 158.844 153.664V152.773ZM158.453 146.406C158.453 145.979 158.193 145.557 157.672 145.141V144.453C157.672 143.672 158.167 143.281 159.156 143.281H160.797V144.844H159.469V144.938C160.094 145.354 160.406 145.844 160.406 146.406V153.242C160.406 153.857 160.271 154.305 160 154.586C159.729 154.862 159.344 155 158.844 155C158.344 155 157.958 154.862 157.688 154.586C157.417 154.305 157.281 153.857 157.281 153.242C157.281 152.628 157.378 152.182 157.57 151.906C157.763 151.625 158.057 151.469 158.453 151.438V146.406ZM164.703 149.305C164.542 149.305 164.435 149.341 164.383 149.414C164.336 149.482 164.312 149.591 164.312 149.742C164.312 149.898 164.336 150.01 164.383 150.078C164.435 150.146 164.542 150.185 164.703 150.195V149.305ZM166.266 152.961L168.531 150.906L170.797 152.961V148.359C170.797 147.734 170.492 147.195 169.883 146.742C169.576 147.039 168.839 147.188 167.672 147.188C166.422 147.188 165.549 147.023 165.055 146.695C164.56 146.367 164.312 145.841 164.312 145.117C164.312 144.638 164.417 144.237 164.625 143.914C164.833 143.586 164.938 143.258 164.938 142.93C164.938 142.643 164.599 142.5 163.922 142.5V140.938C165.797 140.938 166.734 141.432 166.734 142.422C166.734 142.771 166.63 143.188 166.422 143.672C166.214 144.151 166.109 144.513 166.109 144.758C166.109 145.029 166.216 145.242 166.43 145.398C166.648 145.549 167.081 145.625 167.727 145.625C168.284 145.625 168.701 145.544 168.977 145.383C168.628 145.096 168.453 144.76 168.453 144.375C168.453 143.646 169.026 143.281 170.172 143.281C171.37 143.281 171.969 143.724 171.969 144.609C171.969 145 171.724 145.385 171.234 145.766C172.245 146.5 172.75 147.234 172.75 147.969V155H170.656L168.531 152.875L166.406 155H164.312V151.531C163.917 151.5 163.622 151.346 163.43 151.07C163.237 150.789 163.141 150.341 163.141 149.727C163.141 149.112 163.237 148.667 163.43 148.391C163.622 148.109 164.047 147.969 164.703 147.969C165.359 147.969 165.784 148.109 165.977 148.391C166.169 148.667 166.266 149.112 166.266 149.727V152.961ZM170.156 145.008L170.398 144.836C170.487 144.763 170.531 144.693 170.531 144.625C170.531 144.464 170.422 144.383 170.203 144.383C169.995 144.383 169.891 144.448 169.891 144.578C169.891 144.651 169.922 144.714 169.984 144.766L170.156 145.008ZM185.109 148.438C185.234 148.438 185.318 148.411 185.359 148.359C185.401 148.302 185.422 148.24 185.422 148.172C185.422 148.104 185.404 148.049 185.367 148.008C185.326 147.951 185.24 147.922 185.109 147.922V148.438ZM183.547 145.398L185.477 143.016L186.984 144.602L188.492 143.016L190.422 145.398V151.094C190.422 153.698 188.82 155 185.617 155C182.414 155 180.812 153.698 180.812 151.094V144.062C180.812 143.542 180.656 143.281 180.344 143.281H179.641V141.719H180.891C182.141 141.719 182.766 142.24 182.766 143.281V151.094C182.766 152.656 183.716 153.438 185.617 153.438C187.518 153.438 188.469 152.656 188.469 151.094V145.93L188.203 145.609L186.984 146.875L185.766 145.609L185.5 145.93V146.82C185.917 146.836 186.24 146.995 186.469 147.297C186.656 147.526 186.75 147.815 186.75 148.164C186.75 148.513 186.638 148.828 186.414 149.109C186.19 149.391 185.755 149.531 185.109 149.531C184.516 149.531 184.107 149.391 183.883 149.109C183.659 148.828 183.547 148.513 183.547 148.164V145.398Z" fill="#1C4076"/>
<path d="M109.734 54.2812V55.4531C109.734 57.0156 110.49 57.7969 112 57.7969C113.51 57.7969 114.266 57.0156 114.266 55.4531V54.2812H109.734ZM114.266 50.7656C114.266 50.3385 114.005 49.9167 113.484 49.5V48.8125C113.484 48.0312 113.979 47.6406 114.969 47.6406H116.609V49.2031H115.281V49.2969C115.906 49.7135 116.219 50.2031 116.219 50.7656V55.4531C116.219 58.0573 114.812 59.3594 112 59.3594C109.188 59.3594 107.781 58.0573 107.781 55.4531V50.7656C107.781 50.3385 107.521 49.9167 107 49.5V48.8125C107 48.0312 107.495 47.6406 108.484 47.6406H110.125V49.2031H108.797V49.2969C109.422 49.7135 109.734 50.2031 109.734 50.7656V52.7188H114.266V50.7656Z" fill="#1C4076"/>
<path d="M116.219 60.1406V64.4375H114.266V60.1406H116.219Z" fill="#1C4076"/>
<path d="M110.359 43.7734C110.359 44.0599 110.62 44.2031 111.141 44.2031H114.656C113.62 43.6302 112.708 43.3438 111.922 43.3438C110.88 43.3438 110.359 43.487 110.359 43.7734ZM113.172 41.9609V41H114.422V42.5312C114.568 42.625 114.711 42.7266 114.852 42.8359C114.893 42.8672 114.932 42.8984 114.969 42.9297V41H116.219V45.2969H110.75C109.448 45.2969 108.797 44.776 108.797 43.7344C108.797 42.4323 109.839 41.7812 111.922 41.7812C112.349 41.7812 112.766 41.8411 113.172 41.9609Z" fill="#1C4076"/>
<path d="M128.562 54.2578V56.2344C128.562 58.3177 127.729 59.3594 126.062 59.3594C124.828 59.3594 123.953 59.0339 123.438 58.3828C122.922 57.7318 122.469 57.4062 122.078 57.4062V59.3594H120.125V54.6719H122.078V55.8438C122.938 55.8438 123.651 56.1693 124.219 56.8203C124.792 57.4714 125.294 57.7969 125.727 57.7969C126.315 57.7969 126.609 57.276 126.609 56.2344V55.3984C122.286 54.4609 120.125 52.9167 120.125 50.7656C120.125 48.6823 121.531 47.6406 124.344 47.6406C127.156 47.6406 128.562 48.6823 128.562 50.7656C128.562 52.2188 127.734 52.9453 126.078 52.9453C125.625 52.9453 125.255 52.8385 124.969 52.625V51.0391C125.604 51.2266 126.01 51.3203 126.188 51.3203C126.469 51.3203 126.609 51.1354 126.609 50.7656C126.609 49.724 125.854 49.2031 124.344 49.2031C122.833 49.2031 122.078 49.724 122.078 50.7656C122.078 52.1042 124.24 53.2682 128.562 54.2578Z" fill="#1C4076"/>
<path d="M128.562 60.1406V64.4375H126.609V60.1406H128.562Z" fill="#1C4076"/>
<path d="M134.031 49.25C134.161 49.25 134.247 49.2214 134.289 49.1641C134.326 49.1224 134.344 49.0677 134.344 49C134.344 48.9323 134.323 48.8724 134.281 48.8203C134.24 48.763 134.156 48.7344 134.031 48.7344V49.25ZM134.422 55.4531C134.422 57.0156 135.047 57.7969 136.297 57.7969C137.729 57.7969 138.445 57.0156 138.445 55.4531V50.7656C138.445 50.3385 138.185 49.9167 137.664 49.5V48.8125C137.664 48.0312 138.159 47.6406 139.148 47.6406H140.789V49.2031H139.461V49.2969C140.086 49.7135 140.398 50.2031 140.398 50.7656V55.4531C140.398 57.0156 141.115 57.7969 142.547 57.7969C143.797 57.7969 144.422 57.0156 144.422 55.4531V50.7656C144.422 50.3385 144.161 49.9167 143.641 49.5V48.8125C143.641 48.0312 144.135 47.6406 145.125 47.6406H146.766V49.2031H145.438V49.2969C146.062 49.7135 146.375 50.2031 146.375 50.7656V55.4531C146.375 58.0573 145.099 59.3594 142.547 59.3594C140.797 59.3594 139.755 58.9922 139.422 58.2578C139.089 58.9922 138.047 59.3594 136.297 59.3594C133.745 59.3594 132.469 58.0573 132.469 55.4531V49.0078C132.469 48.6589 132.581 48.3438 132.805 48.0625C133.029 47.7812 133.438 47.6406 134.031 47.6406C134.677 47.6406 135.112 47.7812 135.336 48.0625C135.56 48.3438 135.672 48.6589 135.672 49.0078C135.672 49.3568 135.578 49.6458 135.391 49.875C135.161 50.1771 134.839 50.3359 134.422 50.3516V55.4531Z" fill="#1C4076"/>
<path d="M61 29H311C313.761 29 316 31.2386 316 34V72C316 74.7614 313.761 77 311 77H61V29Z" fill="#003A8A" fill-opacity="0.1"/>
</g>
<defs>
<clipPath id="clip0_7114_339">
<rect width="367" height="208" fill="white"/>
</clipPath>
</defs>
</svg>
