<svg width="367" height="208" viewBox="0 0 367 208" fill="none" xmlns="http://www.w3.org/2000/svg">
<g clip-path="url(#clip0_7114_274)">
<path d="M344 13H43V189H344V13Z" fill="#F7F7F9"/>
<path fill-rule="evenodd" clip-rule="evenodd" d="M303.673 49.9044C303.716 49.8614 303.767 49.8274 303.823 49.8041C303.879 49.7808 303.939 49.7688 304 49.7688C304.061 49.7688 304.121 49.7808 304.177 49.8041C304.233 49.8274 304.284 49.8614 304.327 49.9044L309.865 55.4423C309.951 55.529 310 55.6465 310 55.7691C310 55.8916 309.951 56.0092 309.865 56.0958C309.778 56.1825 309.66 56.2312 309.538 56.2312C309.415 56.2312 309.298 56.1825 309.211 56.0958L304 50.8837L298.789 56.0958C298.702 56.1825 298.585 56.2312 298.462 56.2312C298.34 56.2312 298.222 56.1825 298.135 56.0958C298.049 56.0092 298 55.8916 298 55.7691C298 55.6465 298.049 55.529 298.135 55.4423L303.673 49.9044Z" fill="#1C4076"/>
<path d="M61 77V29H57V77H61Z" fill="#1C4076"/>
<path d="M312 69H59V77H312V69Z" fill="#EE7D22" fill-opacity="0.24"/>
<path d="M312 29H59V37H312V29Z" fill="#EE7D22" fill-opacity="0.24"/>
<path d="M75 29H59V77H75V29Z" fill="#EE7D22" fill-opacity="0.24"/>
<path d="M59 29H43V77H59V29Z" fill="#EE7D22" fill-opacity="0.24"/>
<path d="M28 24H3C1.34315 24 0 25.3431 0 27V38.8909C0 40.5478 1.34315 41.8909 3 41.8909H28C29.6569 41.8909 31 40.5478 31 38.8909V27C31 25.3431 29.6569 24 28 24Z" fill="#EE7D22"/>
<path d="M9.30252 37.0994C8.75564 37.0994 8.26914 37.0107 7.843 36.8331C7.41923 36.6532 7.08661 36.4081 6.84513 36.098C6.60365 35.7879 6.48291 35.4363 6.48291 35.0433C6.48291 34.7403 6.55157 34.4621 6.68888 34.2088C6.82856 33.9531 7.01795 33.7412 7.25706 33.5732C7.49617 33.4027 7.76369 33.2938 8.05962 33.2464V33.1967C7.67136 33.1186 7.35649 32.9304 7.11502 32.6321C6.87354 32.3314 6.7528 31.9822 6.7528 31.5845C6.7528 31.2081 6.86289 30.8731 7.08306 30.5795C7.30323 30.2836 7.60507 30.0516 7.9886 29.8835C8.37449 29.7131 8.81246 29.6278 9.30252 29.6278C9.79257 29.6278 10.2294 29.7131 10.6129 29.8835C10.9988 30.054 11.3018 30.2872 11.522 30.5831C11.7422 30.8767 11.8535 31.2105 11.8558 31.5845C11.8535 31.9846 11.7304 32.3338 11.4865 32.6321C11.2427 32.9304 10.9302 33.1186 10.549 33.1967V33.2464C10.8402 33.2938 11.1042 33.4027 11.3409 33.5732C11.58 33.7412 11.7694 33.9531 11.9091 34.2088C12.0511 34.4621 12.1233 34.7403 12.1257 35.0433C12.1233 35.4363 12.0014 35.7879 11.7599 36.098C11.5185 36.4081 11.1847 36.6532 10.7585 36.8331C10.3348 37.0107 9.84939 37.0994 9.30252 37.0994ZM9.30252 35.9702C9.54636 35.9702 9.75943 35.9264 9.94172 35.8388C10.1241 35.7488 10.2661 35.6257 10.3679 35.4695C10.4721 35.3108 10.5241 35.1286 10.5241 34.9226C10.5241 34.7119 10.4709 34.526 10.3643 34.3651C10.2578 34.2017 10.1134 34.0739 9.93107 33.9815C9.74878 33.8868 9.53926 33.8395 9.30252 33.8395C9.06814 33.8395 8.85862 33.8868 8.67397 33.9815C8.48931 34.0739 8.34371 34.2017 8.23718 34.3651C8.13301 34.526 8.08093 34.7119 8.08093 34.9226C8.08093 35.1286 8.13183 35.3108 8.23362 35.4695C8.33542 35.6257 8.47865 35.7488 8.66331 35.8388C8.84797 35.9264 9.06104 35.9702 9.30252 35.9702ZM9.30252 32.7209C9.50612 32.7209 9.68722 32.6795 9.84584 32.5966C10.0045 32.5137 10.1288 32.3989 10.2188 32.2521C10.3087 32.1054 10.3537 31.9361 10.3537 31.7443C10.3537 31.5549 10.3087 31.3892 10.2188 31.2472C10.1288 31.1027 10.0057 30.9903 9.84939 30.9098C9.69314 30.8269 9.51085 30.7855 9.30252 30.7855C9.09655 30.7855 8.91426 30.8269 8.75564 30.9098C8.59702 30.9903 8.47273 31.1027 8.38277 31.2472C8.29518 31.3892 8.25138 31.5549 8.25138 31.7443C8.25138 31.9361 8.29636 32.1054 8.38632 32.2521C8.47629 32.3989 8.60058 32.5137 8.75919 32.5966C8.91781 32.6795 9.09892 32.7209 9.30252 32.7209ZM13.215 39.0455V31.5455H14.7065V32.4616H14.774C14.8403 32.3149 14.9361 32.1657 15.0616 32.0142C15.1895 31.8603 15.3552 31.7325 15.5588 31.6307C15.7647 31.5265 16.0204 31.4744 16.3258 31.4744C16.7235 31.4744 17.0905 31.5786 17.4267 31.7869C17.7628 31.9929 18.0315 32.3042 18.2328 32.7209C18.434 33.1352 18.5346 33.6548 18.5346 34.2798C18.5346 34.8883 18.4364 35.402 18.2399 35.821C18.0458 36.2377 17.7806 36.5537 17.4444 36.7692C17.1106 36.9822 16.7366 37.0888 16.3223 37.0888C16.0287 37.0888 15.7789 37.0402 15.573 36.9432C15.3694 36.8461 15.2025 36.7242 15.0723 36.5774C14.9421 36.4283 14.8426 36.2779 14.774 36.1264H14.7278V39.0455H13.215ZM14.6958 34.2727C14.6958 34.5971 14.7408 34.88 14.8308 35.1214C14.9208 35.3629 15.051 35.5511 15.2214 35.6861C15.3919 35.8187 15.599 35.8849 15.8429 35.8849C16.0891 35.8849 16.2974 35.8175 16.4679 35.6825C16.6383 35.5452 16.7673 35.3558 16.8549 35.1143C16.9449 34.8705 16.9899 34.59 16.9899 34.2727C16.9899 33.9579 16.9461 33.6809 16.8585 33.4418C16.7709 33.2027 16.6419 33.0156 16.4714 32.8807C16.301 32.7457 16.0914 32.6783 15.8429 32.6783C15.5967 32.6783 15.3883 32.7434 15.2179 32.8736C15.0498 33.0038 14.9208 33.1884 14.8308 33.4276C14.7408 33.6667 14.6958 33.9484 14.6958 34.2727ZM20.612 31.5455L21.6135 33.4524L22.6397 31.5455H24.1916L22.6113 34.2727L24.2342 37H22.6895L21.6135 35.1143L20.5552 37H18.9927L20.612 34.2727L19.0495 31.5455H20.612Z" fill="white"/>
<path d="M28 62.8061H3C1.34315 62.8061 0 64.1492 0 65.8061V77.697C0 79.3538 1.34315 80.697 3 80.697H28C29.6569 80.697 31 79.3538 31 77.697V65.8061C31 64.1492 29.6569 62.8061 28 62.8061Z" fill="#EE7D22"/>
<path d="M9.30252 75.9055C8.75564 75.9055 8.26914 75.8167 7.843 75.6392C7.41923 75.4592 7.08661 75.2142 6.84513 74.9041C6.60365 74.594 6.48291 74.2424 6.48291 73.8494C6.48291 73.5464 6.55157 73.2682 6.68888 73.0149C6.82856 72.7592 7.01795 72.5473 7.25706 72.3792C7.49617 72.2088 7.76369 72.0999 8.05962 72.0525V72.0028C7.67136 71.9247 7.35649 71.7365 7.11502 71.4382C6.87354 71.1375 6.7528 70.7883 6.7528 70.3906C6.7528 70.0142 6.86289 69.6792 7.08306 69.3856C7.30323 69.0897 7.60507 68.8577 7.9886 68.6896C8.37449 68.5191 8.81246 68.4339 9.30252 68.4339C9.79257 68.4339 10.2294 68.5191 10.6129 68.6896C10.9988 68.8601 11.3018 69.0932 11.522 69.3892C11.7422 69.6827 11.8535 70.0165 11.8558 70.3906C11.8535 70.7907 11.7304 71.1399 11.4865 71.4382C11.2427 71.7365 10.9302 71.9247 10.549 72.0028V72.0525C10.8402 72.0999 11.1042 72.2088 11.3409 72.3792C11.58 72.5473 11.7694 72.7592 11.9091 73.0149C12.0511 73.2682 12.1233 73.5464 12.1257 73.8494C12.1233 74.2424 12.0014 74.594 11.7599 74.9041C11.5185 75.2142 11.1847 75.4592 10.7585 75.6392C10.3348 75.8167 9.84939 75.9055 9.30252 75.9055ZM9.30252 74.7762C9.54636 74.7762 9.75943 74.7324 9.94172 74.6449C10.1241 74.5549 10.2661 74.4318 10.3679 74.2755C10.4721 74.1169 10.5241 73.9346 10.5241 73.7287C10.5241 73.518 10.4709 73.3321 10.3643 73.1711C10.2578 73.0078 10.1134 72.8799 9.93107 72.7876C9.74878 72.6929 9.53926 72.6456 9.30252 72.6456C9.06814 72.6456 8.85862 72.6929 8.67397 72.7876C8.48931 72.8799 8.34371 73.0078 8.23718 73.1711C8.13301 73.3321 8.08093 73.518 8.08093 73.7287C8.08093 73.9346 8.13183 74.1169 8.23362 74.2755C8.33542 74.4318 8.47865 74.5549 8.66331 74.6449C8.84797 74.7324 9.06104 74.7762 9.30252 74.7762ZM9.30252 71.527C9.50612 71.527 9.68722 71.4855 9.84584 71.4027C10.0045 71.3198 10.1288 71.205 10.2188 71.0582C10.3087 70.9114 10.3537 70.7422 10.3537 70.5504C10.3537 70.361 10.3087 70.1953 10.2188 70.0532C10.1288 69.9088 10.0057 69.7964 9.84939 69.7159C9.69314 69.633 9.51085 69.5916 9.30252 69.5916C9.09655 69.5916 8.91426 69.633 8.75564 69.7159C8.59702 69.7964 8.47273 69.9088 8.38277 70.0532C8.29518 70.1953 8.25138 70.361 8.25138 70.5504C8.25138 70.7422 8.29636 70.9114 8.38632 71.0582C8.47629 71.205 8.60058 71.3198 8.75919 71.4027C8.91781 71.4855 9.09892 71.527 9.30252 71.527ZM13.215 77.8515V70.3515H14.7065V71.2677H14.774C14.8403 71.1209 14.9361 70.9718 15.0616 70.8203C15.1895 70.6664 15.3552 70.5386 15.5588 70.4368C15.7647 70.3326 16.0204 70.2805 16.3258 70.2805C16.7235 70.2805 17.0905 70.3847 17.4267 70.593C17.7628 70.799 18.0315 71.1103 18.2328 71.527C18.434 71.9413 18.5346 72.4609 18.5346 73.0859C18.5346 73.6943 18.4364 74.2081 18.2399 74.6271C18.0458 75.0438 17.7806 75.3598 17.4444 75.5753C17.1106 75.7883 16.7366 75.8949 16.3223 75.8949C16.0287 75.8949 15.7789 75.8463 15.573 75.7493C15.3694 75.6522 15.2025 75.5303 15.0723 75.3835C14.9421 75.2343 14.8426 75.084 14.774 74.9325H14.7278V77.8515H13.215ZM14.6958 73.0788C14.6958 73.4031 14.7408 73.686 14.8308 73.9275C14.9208 74.169 15.051 74.3572 15.2214 74.4922C15.3919 74.6247 15.599 74.691 15.8429 74.691C16.0891 74.691 16.2974 74.6235 16.4679 74.4886C16.6383 74.3513 16.7673 74.1619 16.8549 73.9204C16.9449 73.6766 16.9899 73.396 16.9899 73.0788C16.9899 72.7639 16.9461 72.4869 16.8585 72.2478C16.7709 72.0087 16.6419 71.8217 16.4714 71.6868C16.301 71.5518 16.0914 71.4843 15.8429 71.4843C15.5967 71.4843 15.3883 71.5494 15.2179 71.6797C15.0498 71.8099 14.9208 71.9945 14.8308 72.2336C14.7408 72.4727 14.6958 72.7545 14.6958 73.0788ZM20.612 70.3515L21.6135 72.2585L22.6397 70.3515H24.1916L22.6113 73.0788L24.2342 75.8061H22.6895L21.6135 73.9204L20.5552 75.8061H18.9927L20.612 73.0788L19.0495 70.3515H20.612Z" fill="white"/>
<path d="M35.5 68.2849V76.2364" stroke="#EE7D22"/>
<path d="M32 68.7788H39" stroke="#EE7D22"/>
<path d="M32 75.7364H39" stroke="#EE7D22"/>
<path d="M35.5 29V36.9515" stroke="#EE7D22"/>
<path d="M32 29.494H39" stroke="#EE7D22"/>
<path d="M32 36.4515H39" stroke="#EE7D22"/>
<path d="M28 120H3C1.34315 120 0 121.343 0 123V134.891C0 136.548 1.34315 137.891 3 137.891H28C29.6569 137.891 31 136.548 31 134.891V123C31 121.343 29.6569 120 28 120Z" fill="#EE7D22"/>
<path d="M9.30252 133.099C8.75564 133.099 8.26914 133.011 7.843 132.833C7.41923 132.653 7.08661 132.408 6.84513 132.098C6.60365 131.788 6.48291 131.436 6.48291 131.043C6.48291 130.74 6.55157 130.462 6.68888 130.209C6.82856 129.953 7.01795 129.741 7.25706 129.573C7.49617 129.403 7.76369 129.294 8.05962 129.246V129.197C7.67136 129.119 7.35649 128.93 7.11502 128.632C6.87354 128.331 6.7528 127.982 6.7528 127.585C6.7528 127.208 6.86289 126.873 7.08306 126.58C7.30323 126.284 7.60507 126.052 7.9886 125.884C8.37449 125.713 8.81246 125.628 9.30252 125.628C9.79257 125.628 10.2294 125.713 10.6129 125.884C10.9988 126.054 11.3018 126.287 11.522 126.583C11.7422 126.877 11.8535 127.21 11.8558 127.585C11.8535 127.985 11.7304 128.334 11.4865 128.632C11.2427 128.93 10.9302 129.119 10.549 129.197V129.246C10.8402 129.294 11.1042 129.403 11.3409 129.573C11.58 129.741 11.7694 129.953 11.9091 130.209C12.0511 130.462 12.1233 130.74 12.1257 131.043C12.1233 131.436 12.0014 131.788 11.7599 132.098C11.5185 132.408 11.1847 132.653 10.7585 132.833C10.3348 133.011 9.84939 133.099 9.30252 133.099ZM9.30252 131.97C9.54636 131.97 9.75943 131.926 9.94172 131.839C10.1241 131.749 10.2661 131.626 10.3679 131.469C10.4721 131.311 10.5241 131.129 10.5241 130.923C10.5241 130.712 10.4709 130.526 10.3643 130.365C10.2578 130.202 10.1134 130.074 9.93107 129.982C9.74878 129.887 9.53926 129.839 9.30252 129.839C9.06814 129.839 8.85862 129.887 8.67397 129.982C8.48931 130.074 8.34371 130.202 8.23718 130.365C8.13301 130.526 8.08093 130.712 8.08093 130.923C8.08093 131.129 8.13183 131.311 8.23362 131.469C8.33542 131.626 8.47865 131.749 8.66331 131.839C8.84797 131.926 9.06104 131.97 9.30252 131.97ZM9.30252 128.721C9.50612 128.721 9.68722 128.679 9.84584 128.597C10.0045 128.514 10.1288 128.399 10.2188 128.252C10.3087 128.105 10.3537 127.936 10.3537 127.744C10.3537 127.555 10.3087 127.389 10.2188 127.247C10.1288 127.103 10.0057 126.99 9.84939 126.91C9.69314 126.827 9.51085 126.786 9.30252 126.786C9.09655 126.786 8.91426 126.827 8.75564 126.91C8.59702 126.99 8.47273 127.103 8.38277 127.247C8.29518 127.389 8.25138 127.555 8.25138 127.744C8.25138 127.936 8.29636 128.105 8.38632 128.252C8.47629 128.399 8.60058 128.514 8.75919 128.597C8.91781 128.679 9.09892 128.721 9.30252 128.721ZM13.215 135.045V127.545H14.7065V128.462H14.774C14.8403 128.315 14.9361 128.166 15.0616 128.014C15.1895 127.86 15.3552 127.732 15.5588 127.631C15.7647 127.527 16.0204 127.474 16.3258 127.474C16.7235 127.474 17.0905 127.579 17.4267 127.787C17.7628 127.993 18.0315 128.304 18.2328 128.721C18.434 129.135 18.5346 129.655 18.5346 130.28C18.5346 130.888 18.4364 131.402 18.2399 131.821C18.0458 132.238 17.7806 132.554 17.4444 132.769C17.1106 132.982 16.7366 133.089 16.3223 133.089C16.0287 133.089 15.7789 133.04 15.573 132.943C15.3694 132.846 15.2025 132.724 15.0723 132.577C14.9421 132.428 14.8426 132.278 14.774 132.126H14.7278V135.045H13.215ZM14.6958 130.273C14.6958 130.597 14.7408 130.88 14.8308 131.121C14.9208 131.363 15.051 131.551 15.2214 131.686C15.3919 131.819 15.599 131.885 15.8429 131.885C16.0891 131.885 16.2974 131.817 16.4679 131.683C16.6383 131.545 16.7673 131.356 16.8549 131.114C16.9449 130.871 16.9899 130.59 16.9899 130.273C16.9899 129.958 16.9461 129.681 16.8585 129.442C16.7709 129.203 16.6419 129.016 16.4714 128.881C16.301 128.746 16.0914 128.678 15.8429 128.678C15.5967 128.678 15.3883 128.743 15.2179 128.874C15.0498 129.004 14.9208 129.188 14.8308 129.428C14.7408 129.667 14.6958 129.948 14.6958 130.273ZM20.612 127.545L21.6135 129.452L22.6397 127.545H24.1916L22.6113 130.273L24.2342 133H22.6895L21.6135 131.114L20.5552 133H18.9927L20.612 130.273L19.0495 127.545H20.612Z" fill="white"/>
<path d="M28 160H3C1.34315 160 0 161.343 0 163V174.891C0 176.548 1.34315 177.891 3 177.891H28C29.6569 177.891 31 176.548 31 174.891V163C31 161.343 29.6569 160 28 160Z" fill="#EE7D22"/>
<path d="M9.30252 173.099C8.75564 173.099 8.26914 173.011 7.843 172.833C7.41923 172.653 7.08661 172.408 6.84513 172.098C6.60365 171.788 6.48291 171.436 6.48291 171.043C6.48291 170.74 6.55157 170.462 6.68888 170.209C6.82856 169.953 7.01795 169.741 7.25706 169.573C7.49617 169.403 7.76369 169.294 8.05962 169.246V169.197C7.67136 169.119 7.35649 168.93 7.11502 168.632C6.87354 168.331 6.7528 167.982 6.7528 167.585C6.7528 167.208 6.86289 166.873 7.08306 166.58C7.30323 166.284 7.60507 166.052 7.9886 165.884C8.37449 165.713 8.81246 165.628 9.30252 165.628C9.79257 165.628 10.2294 165.713 10.6129 165.884C10.9988 166.054 11.3018 166.287 11.522 166.583C11.7422 166.877 11.8535 167.21 11.8558 167.585C11.8535 167.985 11.7304 168.334 11.4865 168.632C11.2427 168.93 10.9302 169.119 10.549 169.197V169.246C10.8402 169.294 11.1042 169.403 11.3409 169.573C11.58 169.741 11.7694 169.953 11.9091 170.209C12.0511 170.462 12.1233 170.74 12.1257 171.043C12.1233 171.436 12.0014 171.788 11.7599 172.098C11.5185 172.408 11.1847 172.653 10.7585 172.833C10.3348 173.011 9.84939 173.099 9.30252 173.099ZM9.30252 171.97C9.54636 171.97 9.75943 171.926 9.94172 171.839C10.1241 171.749 10.2661 171.626 10.3679 171.469C10.4721 171.311 10.5241 171.129 10.5241 170.923C10.5241 170.712 10.4709 170.526 10.3643 170.365C10.2578 170.202 10.1134 170.074 9.93107 169.982C9.74878 169.887 9.53926 169.839 9.30252 169.839C9.06814 169.839 8.85862 169.887 8.67397 169.982C8.48931 170.074 8.34371 170.202 8.23718 170.365C8.13301 170.526 8.08093 170.712 8.08093 170.923C8.08093 171.129 8.13183 171.311 8.23362 171.469C8.33542 171.626 8.47865 171.749 8.66331 171.839C8.84797 171.926 9.06104 171.97 9.30252 171.97ZM9.30252 168.721C9.50612 168.721 9.68722 168.679 9.84584 168.597C10.0045 168.514 10.1288 168.399 10.2188 168.252C10.3087 168.105 10.3537 167.936 10.3537 167.744C10.3537 167.555 10.3087 167.389 10.2188 167.247C10.1288 167.103 10.0057 166.99 9.84939 166.91C9.69314 166.827 9.51085 166.786 9.30252 166.786C9.09655 166.786 8.91426 166.827 8.75564 166.91C8.59702 166.99 8.47273 167.103 8.38277 167.247C8.29518 167.389 8.25138 167.555 8.25138 167.744C8.25138 167.936 8.29636 168.105 8.38632 168.252C8.47629 168.399 8.60058 168.514 8.75919 168.597C8.91781 168.679 9.09892 168.721 9.30252 168.721ZM13.215 175.045V167.545H14.7065V168.462H14.774C14.8403 168.315 14.9361 168.166 15.0616 168.014C15.1895 167.86 15.3552 167.732 15.5588 167.631C15.7647 167.527 16.0204 167.474 16.3258 167.474C16.7235 167.474 17.0905 167.579 17.4267 167.787C17.7628 167.993 18.0315 168.304 18.2328 168.721C18.434 169.135 18.5346 169.655 18.5346 170.28C18.5346 170.888 18.4364 171.402 18.2399 171.821C18.0458 172.238 17.7806 172.554 17.4444 172.769C17.1106 172.982 16.7366 173.089 16.3223 173.089C16.0287 173.089 15.7789 173.04 15.573 172.943C15.3694 172.846 15.2025 172.724 15.0723 172.577C14.9421 172.428 14.8426 172.278 14.774 172.126H14.7278V175.045H13.215ZM14.6958 170.273C14.6958 170.597 14.7408 170.88 14.8308 171.121C14.9208 171.363 15.051 171.551 15.2214 171.686C15.3919 171.819 15.599 171.885 15.8429 171.885C16.0891 171.885 16.2974 171.817 16.4679 171.683C16.6383 171.545 16.7673 171.356 16.8549 171.114C16.9449 170.871 16.9899 170.59 16.9899 170.273C16.9899 169.958 16.9461 169.681 16.8585 169.442C16.7709 169.203 16.6419 169.016 16.4714 168.881C16.301 168.746 16.0914 168.678 15.8429 168.678C15.5967 168.678 15.3883 168.743 15.2179 168.874C15.0498 169.004 14.9208 169.188 14.8308 169.428C14.7408 169.667 14.6958 169.948 14.6958 170.273ZM20.612 167.545L21.6135 169.452L22.6397 167.545H24.1916L22.6113 170.273L24.2342 173H22.6895L21.6135 171.114L20.5552 173H18.9927L20.612 170.273L19.0495 167.545H20.612Z" fill="white"/>
<path d="M35.5 165.479V173.43" stroke="#EE7D22"/>
<path d="M32 165.973H39" stroke="#EE7D22"/>
<path d="M32 172.93H39" stroke="#EE7D22"/>
<path d="M35.5 125V132.952" stroke="#EE7D22"/>
<path d="M32 125.494H39" stroke="#EE7D22"/>
<path d="M32 132.452H39" stroke="#EE7D22"/>
<path d="M324.5 29.4788V76.4788" stroke="#EE7D22"/>
<path d="M364 41.903H332C330.343 41.903 329 43.2462 329 44.903V56.7939C329 58.4508 330.343 59.7939 332 59.7939H364C365.657 59.7939 367 58.4508 367 56.7939V44.903C367 43.2462 365.657 41.903 364 41.903Z" fill="#EE7D22"/>
<path d="M335.479 53.6246V52.4137L338.516 47.6303H339.56V49.3065H338.942L337.028 52.3356V52.3924H341.342V53.6246H335.479ZM338.97 54.903V53.2553L338.999 52.7191V47.6303H340.44V54.903H338.97ZM345.08 55.0025C344.533 55.0025 344.047 54.9137 343.62 54.7361C343.197 54.5562 342.864 54.3112 342.623 54.0011C342.381 53.6909 342.26 53.3394 342.26 52.9464C342.26 52.6433 342.329 52.3652 342.466 52.1119C342.606 51.8562 342.795 51.6443 343.034 51.4762C343.274 51.3057 343.541 51.1968 343.837 51.1495V51.0998C343.449 51.0217 343.134 50.8334 342.892 50.5351C342.651 50.2345 342.53 49.8853 342.53 49.4876C342.53 49.1111 342.64 48.7762 342.86 48.4826C343.081 48.1867 343.382 47.9547 343.766 47.7866C344.152 47.6161 344.59 47.5309 345.08 47.5309C345.57 47.5309 346.007 47.6161 346.39 47.7866C346.776 47.957 347.079 48.1902 347.299 48.4861C347.52 48.7797 347.631 49.1135 347.633 49.4876C347.631 49.8877 347.508 50.2369 347.264 50.5351C347.02 50.8334 346.708 51.0217 346.326 51.0998V51.1495C346.618 51.1968 346.882 51.3057 347.118 51.4762C347.357 51.6443 347.547 51.8562 347.686 52.1119C347.828 52.3652 347.901 52.6433 347.903 52.9464C347.901 53.3394 347.779 53.6909 347.537 54.0011C347.296 54.3112 346.962 54.5562 346.536 54.7361C346.112 54.9137 345.627 55.0025 345.08 55.0025ZM345.08 53.8732C345.324 53.8732 345.537 53.8294 345.719 53.7418C345.901 53.6519 346.043 53.5288 346.145 53.3725C346.249 53.2139 346.301 53.0316 346.301 52.8256C346.301 52.6149 346.248 52.4291 346.142 52.2681C346.035 52.1048 345.891 51.9769 345.708 51.8846C345.526 51.7899 345.317 51.7425 345.08 51.7425C344.846 51.7425 344.636 51.7899 344.451 51.8846C344.267 51.9769 344.121 52.1048 344.015 52.2681C343.91 52.4291 343.858 52.6149 343.858 52.8256C343.858 53.0316 343.909 53.2139 344.011 53.3725C344.113 53.5288 344.256 53.6519 344.441 53.7418C344.625 53.8294 344.838 53.8732 345.08 53.8732ZM345.08 50.6239C345.283 50.6239 345.465 50.5825 345.623 50.4996C345.782 50.4168 345.906 50.302 345.996 50.1552C346.086 50.0084 346.131 49.8391 346.131 49.6474C346.131 49.458 346.086 49.2922 345.996 49.1502C345.906 49.0058 345.783 48.8933 345.627 48.8128C345.471 48.73 345.288 48.6886 345.08 48.6886C344.874 48.6886 344.692 48.73 344.533 48.8128C344.374 48.8933 344.25 49.0058 344.16 49.1502C344.073 49.2922 344.029 49.458 344.029 49.6474C344.029 49.8391 344.074 50.0084 344.164 50.1552C344.254 50.302 344.378 50.4168 344.537 50.4996C344.695 50.5825 344.876 50.6239 345.08 50.6239ZM348.992 56.9485V49.4485H350.484V50.3647H350.551C350.618 50.2179 350.713 50.0688 350.839 49.9173C350.967 49.7634 351.133 49.6355 351.336 49.5337C351.542 49.4296 351.798 49.3775 352.103 49.3775C352.501 49.3775 352.868 49.4816 353.204 49.69C353.54 49.8959 353.809 50.2073 354.01 50.6239C354.211 51.0382 354.312 51.5579 354.312 52.1829C354.312 52.7913 354.214 53.305 354.017 53.7241C353.823 54.1407 353.558 54.4568 353.222 54.6722C352.888 54.8853 352.514 54.9918 352.1 54.9918C351.806 54.9918 351.556 54.9433 351.35 54.8462C351.147 54.7492 350.98 54.6272 350.85 54.4805C350.719 54.3313 350.62 54.181 350.551 54.0295H350.505V56.9485H348.992ZM350.473 52.1758C350.473 52.5001 350.518 52.783 350.608 53.0245C350.698 53.266 350.828 53.4542 350.999 53.5891C351.169 53.7217 351.376 53.788 351.62 53.788C351.866 53.788 352.075 53.7205 352.245 53.5856C352.416 53.4483 352.545 53.2589 352.632 53.0174C352.722 52.7735 352.767 52.493 352.767 52.1758C352.767 51.8609 352.723 51.5839 352.636 51.3448C352.548 51.1057 352.419 50.9187 352.249 50.7837C352.078 50.6488 351.869 50.5813 351.62 50.5813C351.374 50.5813 351.166 50.6464 350.995 50.7766C350.827 50.9068 350.698 51.0915 350.608 51.3306C350.518 51.5697 350.473 51.8514 350.473 52.1758ZM356.389 49.4485L357.391 51.3555L358.417 49.4485H359.969L358.389 52.1758L360.012 54.903H358.467L357.391 53.0174L356.333 54.903H354.77L356.389 52.1758L354.827 49.4485H356.389Z" fill="white"/>
<path d="M321 29.9727H328" stroke="#EE7D22"/>
<path d="M321 76.5H328" stroke="#EE7D22"/>
<path d="M324.5 125.479V172.479" stroke="#EE7D22"/>
<path d="M364 137.903H332C330.343 137.903 329 139.246 329 140.903V152.794C329 154.451 330.343 155.794 332 155.794H364C365.657 155.794 367 154.451 367 152.794V140.903C367 139.246 365.657 137.903 364 137.903Z" fill="#EE7D22"/>
<path d="M335.479 149.625V148.414L338.516 143.63H339.56V145.306H338.942L337.028 148.336V148.392H341.342V149.625H335.479ZM338.97 150.903V149.255L338.999 148.719V143.63H340.44V150.903H338.97ZM345.08 151.002C344.533 151.002 344.047 150.914 343.62 150.736C343.197 150.556 342.864 150.311 342.623 150.001C342.381 149.691 342.26 149.339 342.26 148.946C342.26 148.643 342.329 148.365 342.466 148.112C342.606 147.856 342.795 147.644 343.034 147.476C343.274 147.306 343.541 147.197 343.837 147.149V147.1C343.449 147.022 343.134 146.833 342.892 146.535C342.651 146.234 342.53 145.885 342.53 145.488C342.53 145.111 342.64 144.776 342.86 144.483C343.081 144.187 343.382 143.955 343.766 143.787C344.152 143.616 344.59 143.531 345.08 143.531C345.57 143.531 346.007 143.616 346.39 143.787C346.776 143.957 347.079 144.19 347.299 144.486C347.52 144.78 347.631 145.114 347.633 145.488C347.631 145.888 347.508 146.237 347.264 146.535C347.02 146.833 346.708 147.022 346.326 147.1V147.149C346.618 147.197 346.882 147.306 347.118 147.476C347.357 147.644 347.547 147.856 347.686 148.112C347.828 148.365 347.901 148.643 347.903 148.946C347.901 149.339 347.779 149.691 347.537 150.001C347.296 150.311 346.962 150.556 346.536 150.736C346.112 150.914 345.627 151.002 345.08 151.002ZM345.08 149.873C345.324 149.873 345.537 149.829 345.719 149.742C345.901 149.652 346.043 149.529 346.145 149.373C346.249 149.214 346.301 149.032 346.301 148.826C346.301 148.615 346.248 148.429 346.142 148.268C346.035 148.105 345.891 147.977 345.708 147.885C345.526 147.79 345.317 147.743 345.08 147.743C344.846 147.743 344.636 147.79 344.451 147.885C344.267 147.977 344.121 148.105 344.015 148.268C343.91 148.429 343.858 148.615 343.858 148.826C343.858 149.032 343.909 149.214 344.011 149.373C344.113 149.529 344.256 149.652 344.441 149.742C344.625 149.829 344.838 149.873 345.08 149.873ZM345.08 146.624C345.283 146.624 345.465 146.582 345.623 146.5C345.782 146.417 345.906 146.302 345.996 146.155C346.086 146.008 346.131 145.839 346.131 145.647C346.131 145.458 346.086 145.292 345.996 145.15C345.906 145.006 345.783 144.893 345.627 144.813C345.471 144.73 345.288 144.689 345.08 144.689C344.874 144.689 344.692 144.73 344.533 144.813C344.374 144.893 344.25 145.006 344.16 145.15C344.073 145.292 344.029 145.458 344.029 145.647C344.029 145.839 344.074 146.008 344.164 146.155C344.254 146.302 344.378 146.417 344.537 146.5C344.695 146.582 344.876 146.624 345.08 146.624ZM348.992 152.949V145.449H350.484V146.365H350.551C350.618 146.218 350.713 146.069 350.839 145.917C350.967 145.763 351.133 145.636 351.336 145.534C351.542 145.43 351.798 145.377 352.103 145.377C352.501 145.377 352.868 145.482 353.204 145.69C353.54 145.896 353.809 146.207 354.01 146.624C354.211 147.038 354.312 147.558 354.312 148.183C354.312 148.791 354.214 149.305 354.017 149.724C353.823 150.141 353.558 150.457 353.222 150.672C352.888 150.885 352.514 150.992 352.1 150.992C351.806 150.992 351.556 150.943 351.35 150.846C351.147 150.749 350.98 150.627 350.85 150.48C350.719 150.331 350.62 150.181 350.551 150.029H350.505V152.949H348.992ZM350.473 148.176C350.473 148.5 350.518 148.783 350.608 149.024C350.698 149.266 350.828 149.454 350.999 149.589C351.169 149.722 351.376 149.788 351.62 149.788C351.866 149.788 352.075 149.721 352.245 149.586C352.416 149.448 352.545 149.259 352.632 149.017C352.722 148.774 352.767 148.493 352.767 148.176C352.767 147.861 352.723 147.584 352.636 147.345C352.548 147.106 352.419 146.919 352.249 146.784C352.078 146.649 351.869 146.581 351.62 146.581C351.374 146.581 351.166 146.646 350.995 146.777C350.827 146.907 350.698 147.091 350.608 147.331C350.518 147.57 350.473 147.851 350.473 148.176ZM356.389 145.449L357.391 147.355L358.417 145.449H359.969L358.389 148.176L360.012 150.903H358.467L357.391 149.017L356.333 150.903H354.77L356.389 148.176L354.827 145.449H356.389Z" fill="white"/>
<path d="M321 125.973H328" stroke="#EE7D22"/>
<path d="M321 172.5H328" stroke="#EE7D22"/>
<path d="M59 23.4788H75" stroke="#EE7D22"/>
<path d="M59.5 26.9576V20" stroke="#EE7D22"/>
<path d="M74.5 26.9576V20" stroke="#EE7D22"/>
<path d="M43 23.4788H59" stroke="#EE7D22"/>
<path d="M43.5 26.9576V20" stroke="#EE7D22"/>
<path d="M94 0H64C62.3431 0 61 1.34315 61 3V14.8909C61 16.5478 62.3431 17.8909 64 17.8909H94C95.6569 17.8909 97 16.5478 97 14.8909V3C97 1.34315 95.6569 0 94 0Z" fill="#EE7D22"/>
<path d="M70.7536 5.7273V13H69.2159V7.18682H69.1733L67.5078 8.23085V6.86722L69.3082 5.7273H70.7536ZM75.2733 13.0994C74.8992 13.0971 74.5382 13.0343 74.1902 12.9112C73.8445 12.7881 73.5344 12.5881 73.2598 12.3111C72.9851 12.0341 72.7673 11.6671 72.6064 11.2102C72.4477 10.7533 72.3684 10.1922 72.3684 9.52702C72.3708 8.91622 72.4406 8.37053 72.5779 7.88994C72.7176 7.40699 72.9165 6.99743 73.1745 6.66125C73.435 6.32508 73.7463 6.0694 74.1085 5.89421C74.4707 5.71665 74.8767 5.62787 75.3265 5.62787C75.8118 5.62787 76.2404 5.72257 76.612 5.91196C76.9837 6.09899 77.282 6.35349 77.5069 6.67546C77.7342 6.99743 77.8715 7.35846 77.9189 7.75855H76.4025C76.3433 7.50524 76.219 7.30637 76.0297 7.16196C75.8403 7.01755 75.6059 6.94534 75.3265 6.94534C74.853 6.94534 74.4932 7.15131 74.247 7.56324C74.0031 7.97517 73.8788 8.53507 73.8741 9.24293H73.9238C74.0327 9.02749 74.1795 8.84402 74.3642 8.6925C74.5512 8.53862 74.7631 8.42143 74.9998 8.34094C75.2389 8.25808 75.4911 8.21665 75.7562 8.21665C76.1871 8.21665 76.5706 8.31845 76.9068 8.52205C77.243 8.72328 77.5081 9.00027 77.7022 9.35301C77.8964 9.70576 77.9934 10.1094 77.9934 10.5639C77.9934 11.0563 77.8786 11.4943 77.649 11.8778C77.4217 12.2614 77.1033 12.562 76.6937 12.7798C76.2865 12.9953 75.813 13.1018 75.2733 13.0994ZM75.2662 11.892C75.5029 11.892 75.7148 11.8352 75.9018 11.7216C76.0888 11.608 76.2356 11.4541 76.3422 11.2599C76.4487 11.0658 76.502 10.848 76.502 10.6065C76.502 10.3651 76.4487 10.1484 76.3422 9.95671C76.238 9.76494 76.0936 9.61225 75.9089 9.49861C75.7243 9.38497 75.5136 9.32815 75.2768 9.32815C75.0993 9.32815 74.9347 9.3613 74.7832 9.42759C74.6341 9.49387 74.5027 9.5862 74.389 9.70458C74.2778 9.82295 74.1902 9.96026 74.1262 10.1165C74.0623 10.2704 74.0304 10.4349 74.0304 10.6101C74.0304 10.8445 74.0836 11.0587 74.1902 11.2528C74.2991 11.447 74.4458 11.602 74.6305 11.718C74.8175 11.834 75.0294 11.892 75.2662 11.892ZM79.0978 15.0455V7.54548H80.5893V8.46168H80.6568C80.7231 8.3149 80.819 8.16575 80.9444 8.01423C81.0723 7.86035 81.238 7.73251 81.4416 7.63071C81.6475 7.52655 81.9032 7.47446 82.2086 7.47446C82.6064 7.47446 82.9733 7.57863 83.3095 7.78696C83.6457 7.99293 83.9144 8.30424 84.1156 8.72091C84.3168 9.13521 84.4174 9.65486 84.4174 10.2798C84.4174 10.8883 84.3192 11.402 84.1227 11.821C83.9286 12.2377 83.6634 12.5537 83.3272 12.7692C82.9934 12.9822 82.6194 13.0888 82.2051 13.0888C81.9115 13.0888 81.6618 13.0402 81.4558 12.9432C81.2522 12.8461 81.0853 12.7242 80.9551 12.5774C80.8249 12.4283 80.7254 12.2779 80.6568 12.1264H80.6106V15.0455H79.0978ZM80.5787 10.2727C80.5787 10.5971 80.6236 10.88 80.7136 11.1214C80.8036 11.3629 80.9338 11.5511 81.1042 11.6861C81.2747 11.8187 81.4818 11.8849 81.7257 11.8849C81.9719 11.8849 82.1802 11.8175 82.3507 11.6825C82.5211 11.5452 82.6502 11.3558 82.7377 11.1143C82.8277 10.8705 82.8727 10.59 82.8727 10.2727C82.8727 9.95789 82.8289 9.6809 82.7413 9.44179C82.6537 9.20268 82.5247 9.01565 82.3542 8.88071C82.1838 8.74577 81.9743 8.6783 81.7257 8.6783C81.4795 8.6783 81.2711 8.7434 81.1007 8.87361C80.9326 9.00382 80.8036 9.18848 80.7136 9.42759C80.6236 9.6667 80.5787 9.94842 80.5787 10.2727ZM86.4949 7.54548L87.4963 9.45244L88.5225 7.54548H90.0744L88.4941 10.2727L90.117 13H88.5723L87.4963 11.1143L86.438 13H84.8755L86.4949 10.2727L84.9324 7.54548H86.4949Z" fill="white"/>
<path d="M55 0H25C23.3431 0 22 1.34315 22 3V14.8909C22 16.5478 23.3431 17.8909 25 17.8909H55C56.6569 17.8909 58 16.5478 58 14.8909V3C58 1.34315 56.6569 0 55 0Z" fill="#EE7D22"/>
<path d="M31.7536 5.7273V13H30.2159V7.18682H30.1733L28.5078 8.23085V6.86722L30.3082 5.7273H31.7536ZM36.2733 13.0994C35.8992 13.0971 35.5382 13.0343 35.1902 12.9112C34.8445 12.7881 34.5344 12.5881 34.2598 12.3111C33.9851 12.0341 33.7673 11.6671 33.6064 11.2102C33.4477 10.7533 33.3684 10.1922 33.3684 9.52702C33.3708 8.91622 33.4406 8.37053 33.5779 7.88994C33.7176 7.40699 33.9165 6.99743 34.1745 6.66125C34.435 6.32508 34.7463 6.0694 35.1085 5.89421C35.4707 5.71665 35.8767 5.62787 36.3265 5.62787C36.8118 5.62787 37.2404 5.72257 37.612 5.91196C37.9837 6.09899 38.282 6.35349 38.5069 6.67546C38.7342 6.99743 38.8715 7.35846 38.9189 7.75855H37.4025C37.3433 7.50524 37.219 7.30637 37.0297 7.16196C36.8403 7.01755 36.6059 6.94534 36.3265 6.94534C35.853 6.94534 35.4932 7.15131 35.247 7.56324C35.0031 7.97517 34.8788 8.53507 34.8741 9.24293H34.9238C35.0327 9.02749 35.1795 8.84402 35.3642 8.6925C35.5512 8.53862 35.7631 8.42143 35.9998 8.34094C36.2389 8.25808 36.4911 8.21665 36.7562 8.21665C37.1871 8.21665 37.5706 8.31845 37.9068 8.52205C38.243 8.72328 38.5081 9.00027 38.7022 9.35301C38.8964 9.70576 38.9934 10.1094 38.9934 10.5639C38.9934 11.0563 38.8786 11.4943 38.649 11.8778C38.4217 12.2614 38.1033 12.562 37.6937 12.7798C37.2865 12.9953 36.813 13.1018 36.2733 13.0994ZM36.2662 11.892C36.5029 11.892 36.7148 11.8352 36.9018 11.7216C37.0888 11.608 37.2356 11.4541 37.3422 11.2599C37.4487 11.0658 37.502 10.848 37.502 10.6065C37.502 10.3651 37.4487 10.1484 37.3422 9.95671C37.238 9.76494 37.0936 9.61225 36.9089 9.49861C36.7243 9.38497 36.5136 9.32815 36.2768 9.32815C36.0993 9.32815 35.9347 9.3613 35.7832 9.42759C35.6341 9.49387 35.5027 9.5862 35.389 9.70458C35.2778 9.82295 35.1902 9.96026 35.1262 10.1165C35.0623 10.2704 35.0304 10.4349 35.0304 10.6101C35.0304 10.8445 35.0836 11.0587 35.1902 11.2528C35.2991 11.447 35.4458 11.602 35.6305 11.718C35.8175 11.834 36.0294 11.892 36.2662 11.892ZM40.0978 15.0455V7.54548H41.5893V8.46168H41.6568C41.7231 8.3149 41.819 8.16575 41.9444 8.01423C42.0723 7.86035 42.238 7.73251 42.4416 7.63071C42.6475 7.52655 42.9032 7.47446 43.2086 7.47446C43.6064 7.47446 43.9733 7.57863 44.3095 7.78696C44.6457 7.99293 44.9144 8.30424 45.1156 8.72091C45.3168 9.13521 45.4174 9.65486 45.4174 10.2798C45.4174 10.8883 45.3192 11.402 45.1227 11.821C44.9286 12.2377 44.6634 12.5537 44.3272 12.7692C43.9934 12.9822 43.6194 13.0888 43.2051 13.0888C42.9115 13.0888 42.6618 13.0402 42.4558 12.9432C42.2522 12.8461 42.0853 12.7242 41.9551 12.5774C41.8249 12.4283 41.7254 12.2779 41.6568 12.1264H41.6106V15.0455H40.0978ZM41.5787 10.2727C41.5787 10.5971 41.6236 10.88 41.7136 11.1214C41.8036 11.3629 41.9338 11.5511 42.1042 11.6861C42.2747 11.8187 42.4818 11.8849 42.7257 11.8849C42.9719 11.8849 43.1802 11.8175 43.3507 11.6825C43.5211 11.5452 43.6502 11.3558 43.7377 11.1143C43.8277 10.8705 43.8727 10.59 43.8727 10.2727C43.8727 9.95789 43.8289 9.6809 43.7413 9.44179C43.6537 9.20268 43.5247 9.01565 43.3542 8.88071C43.1838 8.74577 42.9743 8.6783 42.7257 8.6783C42.4795 8.6783 42.2711 8.7434 42.1007 8.87361C41.9326 9.00382 41.8036 9.18848 41.7136 9.42759C41.6236 9.6667 41.5787 9.94842 41.5787 10.2727ZM47.4949 7.54548L48.4963 9.45244L49.5225 7.54548H51.0744L49.4941 10.2727L51.117 13H49.5723L48.4963 11.1143L47.438 13H45.8755L47.4949 10.2727L45.9324 7.54548H47.4949Z" fill="white"/>
<path d="M75 125H43V173H75V125Z" fill="#EE7D22" fill-opacity="0.24"/>
<path d="M310 125H43V133H310V125Z" fill="#EE7D22" fill-opacity="0.24"/>
<path d="M310 165H43V173H310V165Z" fill="#EE7D22" fill-opacity="0.24"/>
<path d="M43.5 185.5H75.5" stroke="#EE7D22"/>
<path d="M78.5 190H40.5C38.8431 190 37.5 191.343 37.5 193V205C37.5 206.657 38.8431 208 40.5 208H78.5C80.1569 208 81.5 206.657 81.5 205V193C81.5 191.343 80.1569 190 78.5 190Z" fill="#EE7D22"/>
<path d="M44.3984 202.123V200.919H49.3984V202.123H44.3984ZM49.3984 199.214L44.3984 200.564V199.399L47.6974 198.604L47.6513 198.678V198.501L47.6974 198.575L44.3984 197.78V196.615L49.3984 197.964V199.214ZM53.5746 203.099C53.0443 203.099 52.572 203.008 52.1577 202.826C51.7457 202.641 51.4202 202.388 51.1811 202.066C50.9444 201.742 50.8224 201.368 50.8153 200.944H52.3636C52.3731 201.121 52.4311 201.278 52.5376 201.413C52.6465 201.545 52.791 201.648 52.9709 201.722C53.1508 201.795 53.3532 201.832 53.5781 201.832C53.8125 201.832 54.0196 201.79 54.1996 201.707C54.3795 201.625 54.5204 201.51 54.6222 201.363C54.724 201.216 54.7749 201.047 54.7749 200.855C54.7749 200.661 54.7204 200.489 54.6115 200.34C54.505 200.189 54.3511 200.07 54.1499 199.985C53.951 199.9 53.7143 199.857 53.4396 199.857H52.7614V198.728H53.4396C53.6716 198.728 53.8764 198.688 54.054 198.607C54.2339 198.527 54.3736 198.415 54.473 198.273C54.5724 198.129 54.6222 197.961 54.6222 197.769C54.6222 197.587 54.5784 197.427 54.4908 197.29C54.4055 197.15 54.2848 197.041 54.1286 196.963C53.9747 196.885 53.7947 196.846 53.5888 196.846C53.3804 196.846 53.1899 196.884 53.017 196.96C52.8442 197.033 52.7057 197.138 52.6016 197.276C52.4974 197.413 52.4418 197.574 52.4347 197.759H50.9609C50.968 197.339 51.0876 196.97 51.3196 196.651C51.5516 196.331 51.8641 196.081 52.2571 195.901C52.6525 195.719 53.0987 195.628 53.5959 195.628C54.0978 195.628 54.5369 195.719 54.9134 195.901C55.2898 196.084 55.5821 196.33 55.7905 196.64C56.0012 196.948 56.1054 197.293 56.103 197.677C56.1054 198.084 55.9787 198.424 55.723 198.696C55.4697 198.968 55.1394 199.141 54.7322 199.214V199.271C55.2673 199.34 55.6745 199.526 55.9538 199.829C56.2356 200.129 56.3752 200.506 56.3729 200.958C56.3752 201.372 56.2557 201.741 56.0142 202.062C55.7751 202.384 55.4448 202.638 55.0234 202.822C54.602 203.007 54.1191 203.099 53.5746 203.099ZM57.4782 203V201.892L60.0669 199.495C60.2871 199.282 60.4718 199.09 60.6209 198.92C60.7724 198.749 60.8873 198.582 60.9654 198.419C61.0435 198.253 61.0826 198.075 61.0826 197.883C61.0826 197.67 61.034 197.486 60.937 197.332C60.8399 197.176 60.7073 197.057 60.5392 196.974C60.3712 196.888 60.1806 196.846 59.9675 196.846C59.745 196.846 59.5508 196.891 59.3851 196.981C59.2194 197.071 59.0916 197.2 59.0016 197.368C58.9116 197.536 58.8667 197.736 58.8667 197.968H57.4071C57.4071 197.492 57.5149 197.079 57.7303 196.729C57.9457 196.378 58.2476 196.107 58.6358 195.915C59.0241 195.724 59.4715 195.628 59.9782 195.628C60.499 195.628 60.9524 195.72 61.3382 195.905C61.7265 196.087 62.0284 196.34 62.2438 196.665C62.4592 196.989 62.5669 197.361 62.5669 197.78C62.5669 198.054 62.5125 198.326 62.4036 198.593C62.2971 198.861 62.1065 199.158 61.8319 199.484C61.5572 199.809 61.1702 200.198 60.6706 200.653L59.6088 201.693V201.743H62.6628V203H57.4782ZM63.7912 205.045V197.545H65.2827V198.462H65.3501C65.4164 198.315 65.5123 198.166 65.6378 198.014C65.7656 197.86 65.9313 197.732 66.1349 197.631C66.3409 197.527 66.5966 197.474 66.902 197.474C67.2997 197.474 67.6667 197.579 68.0028 197.787C68.339 197.993 68.6077 198.304 68.8089 198.721C69.0102 199.135 69.1108 199.655 69.1108 200.28C69.1108 200.888 69.0125 201.402 68.8161 201.821C68.6219 202.238 68.3568 202.554 68.0206 202.769C67.6868 202.982 67.3127 203.089 66.8984 203.089C66.6049 203.089 66.3551 203.04 66.1491 202.943C65.9455 202.846 65.7786 202.724 65.6484 202.577C65.5182 202.428 65.4188 202.278 65.3501 202.126H65.304V205.045H63.7912ZM65.272 200.273C65.272 200.597 65.317 200.88 65.407 201.121C65.4969 201.363 65.6271 201.551 65.7976 201.686C65.968 201.819 66.1752 201.885 66.419 201.885C66.6652 201.885 66.8736 201.817 67.044 201.683C67.2145 201.545 67.3435 201.356 67.4311 201.114C67.5211 200.871 67.5661 200.59 67.5661 200.273C67.5661 199.958 67.5223 199.681 67.4347 199.442C67.3471 199.203 67.218 199.016 67.0476 198.881C66.8771 198.746 66.6676 198.678 66.419 198.678C66.1728 198.678 65.9645 198.743 65.794 198.874C65.6259 199.004 65.4969 199.188 65.407 199.428C65.317 199.667 65.272 199.948 65.272 200.273ZM71.1882 197.545L72.1896 199.452L73.2159 197.545H74.7678L73.1875 200.273L74.8104 203H73.2656L72.1896 201.114L71.1314 203H69.5689L71.1882 200.273L69.6257 197.545H71.1882Z" fill="white"/>
<path d="M44 189V182" stroke="#EE7D22"/>
<path d="M75 189V182" stroke="#EE7D22"/>
<path d="M77.7344 54.2812V55.4531C77.7344 57.0156 78.4896 57.7969 80 57.7969C81.5104 57.7969 82.2656 57.0156 82.2656 55.4531V54.2812H77.7344ZM82.2656 50.7656C82.2656 50.3385 82.0052 49.9167 81.4844 49.5V48.8125C81.4844 48.0312 81.9792 47.6406 82.9688 47.6406H84.6094V49.2031H83.2812V49.2969C83.9062 49.7135 84.2188 50.2031 84.2188 50.7656V55.4531C84.2188 58.0573 82.8125 59.3594 80 59.3594C77.1875 59.3594 75.7812 58.0573 75.7812 55.4531V50.7656C75.7812 50.3385 75.5208 49.9167 75 49.5V48.8125C75 48.0312 75.4948 47.6406 76.4844 47.6406H78.125V49.2031H76.7969V49.2969C77.4219 49.7135 77.7344 50.2031 77.7344 50.7656V52.7188H82.2656V50.7656Z" fill="#1C4076"/>
<path d="M84.2188 60.1406V64.4375H82.2656V60.1406H84.2188Z" fill="#1C4076"/>
<path d="M78.3594 43.7734C78.3594 44.0599 78.6198 44.2031 79.1406 44.2031H82.6562C81.6198 43.6302 80.7083 43.3438 79.9219 43.3438C78.8802 43.3438 78.3594 43.487 78.3594 43.7734ZM81.1719 41.9609V41H82.4219V42.5312C82.5677 42.625 82.7109 42.7266 82.8516 42.8359C82.8932 42.8672 82.9323 42.8984 82.9688 42.9297V41H84.2188V45.2969H78.75C77.4479 45.2969 76.7969 44.776 76.7969 43.7344C76.7969 42.4323 77.8385 41.7812 79.9219 41.7812C80.349 41.7812 80.7656 41.8411 81.1719 41.9609Z" fill="#1C4076"/>
<path d="M96.5625 54.2578V56.2344C96.5625 58.3177 95.7292 59.3594 94.0625 59.3594C92.8281 59.3594 91.9531 59.0339 91.4375 58.3828C90.9219 57.7318 90.4688 57.4062 90.0781 57.4062V59.3594H88.125V54.6719H90.0781V55.8438C90.9375 55.8438 91.651 56.1693 92.2188 56.8203C92.7917 57.4714 93.2943 57.7969 93.7266 57.7969C94.3151 57.7969 94.6094 57.276 94.6094 56.2344V55.3984C90.2865 54.4609 88.125 52.9167 88.125 50.7656C88.125 48.6823 89.5312 47.6406 92.3438 47.6406C95.1562 47.6406 96.5625 48.6823 96.5625 50.7656C96.5625 52.2188 95.7344 52.9453 94.0781 52.9453C93.625 52.9453 93.2552 52.8385 92.9688 52.625V51.0391C93.6042 51.2266 94.0104 51.3203 94.1875 51.3203C94.4688 51.3203 94.6094 51.1354 94.6094 50.7656C94.6094 49.724 93.8542 49.2031 92.3438 49.2031C90.8333 49.2031 90.0781 49.724 90.0781 50.7656C90.0781 52.1042 92.2396 53.2682 96.5625 54.2578Z" fill="#1C4076"/>
<path d="M96.5625 60.1406V64.4375H94.6094V60.1406H96.5625Z" fill="#1C4076"/>
<path d="M102.031 49.25C102.161 49.25 102.247 49.2214 102.289 49.1641C102.326 49.1224 102.344 49.0677 102.344 49C102.344 48.9323 102.323 48.8724 102.281 48.8203C102.24 48.763 102.156 48.7344 102.031 48.7344V49.25ZM102.422 55.4531C102.422 57.0156 103.047 57.7969 104.297 57.7969C105.729 57.7969 106.445 57.0156 106.445 55.4531V50.7656C106.445 50.3385 106.185 49.9167 105.664 49.5V48.8125C105.664 48.0312 106.159 47.6406 107.148 47.6406H108.789V49.2031H107.461V49.2969C108.086 49.7135 108.398 50.2031 108.398 50.7656V55.4531C108.398 57.0156 109.115 57.7969 110.547 57.7969C111.797 57.7969 112.422 57.0156 112.422 55.4531V50.7656C112.422 50.3385 112.161 49.9167 111.641 49.5V48.8125C111.641 48.0312 112.135 47.6406 113.125 47.6406H114.766V49.2031H113.438V49.2969C114.062 49.7135 114.375 50.2031 114.375 50.7656V55.4531C114.375 58.0573 113.099 59.3594 110.547 59.3594C108.797 59.3594 107.755 58.9922 107.422 58.2578C107.089 58.9922 106.047 59.3594 104.297 59.3594C101.745 59.3594 100.469 58.0573 100.469 55.4531V49.0078C100.469 48.6589 100.581 48.3438 100.805 48.0625C101.029 47.7812 101.438 47.6406 102.031 47.6406C102.677 47.6406 103.112 47.7812 103.336 48.0625C103.56 48.3438 103.672 48.6589 103.672 49.0078C103.672 49.3568 103.578 49.6458 103.391 49.875C103.161 50.1771 102.839 50.3359 102.422 50.3516V55.4531Z" fill="#1C4076"/>
<path d="M85.1094 101.891V103.453C85.1094 105.276 85.9688 106.188 87.6875 106.188C89.4062 106.188 90.2656 105.276 90.2656 103.453V101.891H85.1094ZM85.1094 100.719H90.2656V98.7656C90.2656 98.401 90.0052 98.0104 89.4844 97.5938V96.8125C89.4844 96.0312 89.875 95.6406 90.6562 95.6406H91.9844V96.8125H91.0469C90.7865 96.8125 90.6562 96.9427 90.6562 97.2031C91.2812 97.6198 91.5938 98.1406 91.5938 98.7656V103.453C91.5938 106.057 90.2917 107.359 87.6875 107.359C85.0833 107.359 83.7812 106.057 83.7812 103.453V98.7656C83.7812 98.401 83.5208 98.0104 83 97.5938V96.8125C83 96.0312 83.3906 95.6406 84.1719 95.6406H85.5V96.8125H84.5625C84.3021 96.8125 84.1719 96.9427 84.1719 97.2031C84.7969 97.6198 85.1094 98.1406 85.1094 98.7656V100.719Z" fill="#1C4076"/>
<path d="M91.5938 108.141V112.438H90.2656V108.141H91.5938Z" fill="#1C4076"/>
<path d="M86.9062 92.2812H90.4219C89.125 91.3958 88.0833 90.9531 87.2969 90.9531C86.2552 90.9531 85.7344 91.1745 85.7344 91.6172C85.7344 92.0599 86.125 92.2812 86.9062 92.2812ZM90.5781 91.1172V89H91.5938V93.2969H86.5156C85.2135 93.2969 84.5625 92.776 84.5625 91.7344C84.5625 90.4323 85.474 89.7812 87.2969 89.7812C87.8906 89.7812 88.4635 89.8958 89.0156 90.125V89H90.0312V90.6875C90.099 90.7344 90.1641 90.7839 90.2266 90.8359C90.3516 90.9349 90.4688 91.0286 90.5781 91.1172Z" fill="#1C4076"/>
<path d="M103.312 102.594V104.234C103.312 106.318 102.583 107.359 101.125 107.359C100.052 107.359 99.2578 107.034 98.7422 106.383C98.2266 105.732 97.5885 105.406 96.8281 105.406V107.359H95.5V102.672H96.8281V104.234C97.7396 104.234 98.4792 104.56 99.0469 105.211C99.6198 105.862 100.201 106.188 100.789 106.188C101.586 106.188 101.984 105.536 101.984 104.234V103.453C97.6615 102.516 95.5 100.953 95.5 98.7656C95.5 96.6823 96.8021 95.6406 99.4062 95.6406C102.01 95.6406 103.312 96.6823 103.312 98.7656C103.312 100.219 102.589 100.945 101.141 100.945C100.812 100.945 100.547 100.87 100.344 100.719V99.5469C100.714 99.6562 101.016 99.7109 101.25 99.7109C101.74 99.7109 101.984 99.3958 101.984 98.7656C101.984 97.4635 101.125 96.8125 99.4062 96.8125C97.6875 96.8125 96.8281 97.4635 96.8281 98.7656C96.8281 100.328 98.9896 101.604 103.312 102.594Z" fill="#1C4076"/>
<path d="M103.312 108.141V112.438H101.984V108.141H103.312Z" fill="#1C4076"/>
<path d="M108.547 97.3984C108.656 97.3984 108.747 97.3646 108.82 97.2969C108.898 97.2292 108.938 97.1328 108.938 97.0078C108.938 96.8828 108.898 96.7865 108.82 96.7188C108.747 96.651 108.656 96.6172 108.547 96.6172V97.3984ZM119.172 98.7656C119.172 98.401 118.911 98.0104 118.391 97.5938V96.8125C118.391 96.0312 118.781 95.6406 119.562 95.6406H120.891V96.8125H119.953C119.693 96.8125 119.562 96.9427 119.562 97.2031C120.188 97.6198 120.5 98.1406 120.5 98.7656V103.453C120.5 106.057 119.328 107.359 116.984 107.359C115.422 107.359 114.38 106.781 113.859 105.625C113.339 106.781 112.297 107.359 110.734 107.359C108.391 107.359 107.219 106.057 107.219 103.453V97.0078C107.219 96.6016 107.318 96.2734 107.516 96.0234C107.719 95.7682 108.049 95.6406 108.508 95.6406C108.966 95.6406 109.294 95.7682 109.492 96.0234C109.695 96.2734 109.797 96.6016 109.797 97.0078C109.797 97.4141 109.695 97.7422 109.492 97.9922C109.32 98.2161 109.057 98.3281 108.703 98.3281C108.651 98.3281 108.599 98.3255 108.547 98.3203V103.453C108.547 105.276 109.276 106.188 110.734 106.188C112.375 106.188 113.195 105.276 113.195 103.453V98.7656C113.195 98.401 112.935 98.0104 112.414 97.5938V96.8125C112.414 96.0312 112.805 95.6406 113.586 95.6406H114.914V96.8125H113.977C113.716 96.8125 113.586 96.9427 113.586 97.2031C114.211 97.6198 114.523 98.1406 114.523 98.7656V103.453C114.523 105.276 115.344 106.188 116.984 106.188C118.443 106.188 119.172 105.276 119.172 103.453V98.7656Z" fill="#1C4076"/>
<path d="M124.406 106.188V105.016H124.211C124.154 105.016 124.107 105.042 124.07 105.094C124.034 105.141 124.016 105.31 124.016 105.602C124.016 105.893 124.034 106.065 124.07 106.117C124.107 106.164 124.154 106.188 124.211 106.188H124.406ZM125.734 98.7656V105.602C125.734 106.268 125.646 106.729 125.469 106.984C125.297 107.234 124.969 107.359 124.484 107.359C124 107.359 123.669 107.234 123.492 106.984C123.32 106.729 123.234 106.268 123.234 105.602C123.234 104.935 123.32 104.477 123.492 104.227C123.669 103.971 123.909 103.844 124.211 103.844C124.279 103.844 124.344 103.849 124.406 103.859V98.7656C124.302 98.401 124.042 98.0104 123.625 97.5938V96.8125C123.625 96.0312 124.016 95.6406 124.797 95.6406H126.125V96.8125H125.188C124.927 96.8125 124.797 96.9427 124.797 97.2031C125.422 97.6198 125.734 98.1406 125.734 98.7656Z" fill="#1C4076"/>
<path d="M135.5 96.8281C135.5 96.6719 135.396 96.5938 135.188 96.5938C134.979 96.5938 134.875 96.6719 134.875 96.8281C134.875 96.9688 134.979 97.1094 135.188 97.25C135.396 97.1406 135.5 97 135.5 96.8281ZM129.445 100.719C129.388 100.719 129.341 100.745 129.305 100.797C129.268 100.844 129.25 101.013 129.25 101.305C129.25 101.596 129.268 101.768 129.305 101.82C129.341 101.867 129.388 101.891 129.445 101.891H129.641V100.719H129.445ZM130.969 105.797L133.547 103.453L136.125 105.797V100.328C136.125 99.7656 135.703 99.1693 134.859 98.5391C134.432 98.9505 133.708 99.1562 132.688 99.1562C131.552 99.1562 130.76 99.0078 130.312 98.7109C129.865 98.4141 129.641 98.0026 129.641 97.4766C129.641 96.9557 129.745 96.4688 129.953 96.0156C130.161 95.5573 130.266 95.1849 130.266 94.8984C130.266 94.612 129.927 94.4688 129.25 94.4688V93.2969C130.708 93.2969 131.438 93.7917 131.438 94.7812C131.438 95.1719 131.333 95.6094 131.125 96.0938C130.917 96.5729 130.812 96.9141 130.812 97.1172C130.812 97.3255 130.943 97.5234 131.203 97.7109C131.464 97.8932 131.977 97.9844 132.742 97.9844C133.404 97.9844 133.88 97.8984 134.172 97.7266C133.911 97.513 133.781 97.1823 133.781 96.7344C133.781 96.0052 134.25 95.6406 135.188 95.6406C136.177 95.6406 136.672 96.0833 136.672 96.9688C136.672 97.4219 136.469 97.8073 136.062 98.125C136.99 98.7969 137.453 99.5312 137.453 100.328V107.359H135.891L133.547 105.016L131.203 107.359H129.641V103.047C129.578 103.057 129.513 103.062 129.445 103.062C129.143 103.062 128.904 102.938 128.727 102.688C128.555 102.432 128.469 101.971 128.469 101.305C128.469 100.638 128.555 100.18 128.727 99.9297C128.904 99.6745 129.234 99.5469 129.719 99.5469C130.203 99.5469 130.531 99.6745 130.703 99.9297C130.88 100.18 130.969 100.638 130.969 101.305V105.797Z" fill="#1C4076"/>
<path d="M149.031 106.188C151.01 106.188 152 104.495 152 101.109C152 98.2448 151.141 96.8125 149.422 96.8125C147.703 96.8125 146.844 97.724 146.844 99.5469C146.844 99.8646 146.904 100.146 147.023 100.391C147.148 100.63 147.409 100.75 147.805 100.75C148.18 100.75 148.417 100.695 148.516 100.586C148.594 100.497 148.633 100.411 148.633 100.328C148.633 100.302 148.63 100.279 148.625 100.258C148.599 100.148 148.557 100.094 148.5 100.094C148.443 100.094 148.289 100.18 148.039 100.352L147.695 99.4531C148.06 99.1875 148.388 99.0547 148.68 99.0547C148.997 99.0547 149.245 99.1484 149.422 99.3359C149.599 99.5234 149.688 99.8516 149.688 100.32C149.688 100.581 149.62 100.859 149.484 101.156C149.354 101.453 149.135 101.664 148.828 101.789C148.521 101.909 148.201 101.969 147.867 101.969C147.477 101.969 147.112 101.911 146.773 101.797C146.44 101.682 146.146 101.448 145.891 101.094C145.641 100.734 145.516 100.219 145.516 99.5469C145.516 96.9427 146.818 95.6406 149.422 95.6406C152.026 95.6406 153.328 97.4635 153.328 101.109C153.328 105.276 151.896 107.359 149.031 107.359C147.964 107.359 147.026 107.073 146.219 106.5L146.609 105.406C147.182 105.927 147.99 106.188 149.031 106.188Z" fill="#1C4076"/>
<path d="M85.9062 149.922V151.094C85.9062 152.656 86.6615 153.438 88.1719 153.438C89.6823 153.438 90.4375 152.656 90.4375 151.094V149.922H85.9062ZM90.4375 146.406C90.4375 145.979 90.1771 145.557 89.6562 145.141V144.453C89.6562 143.672 90.151 143.281 91.1406 143.281H92.7812V144.844H91.4531V144.938C92.0781 145.354 92.3906 145.844 92.3906 146.406V151.094C92.3906 153.698 90.9844 155 88.1719 155C85.3594 155 83.9531 153.698 83.9531 151.094V146.406C83.9531 145.979 83.6927 145.557 83.1719 145.141V144.453C83.1719 143.672 83.6667 143.281 84.6562 143.281H86.2969V144.844H84.9688V144.938C85.5938 145.354 85.9062 145.844 85.9062 146.406V148.359H90.4375V146.406ZM86.5312 139.414C86.5312 139.701 86.7917 139.844 87.3125 139.844H90.8281C89.7917 139.271 88.8802 138.984 88.0938 138.984C87.0521 138.984 86.5312 139.128 86.5312 139.414ZM89.3438 137.602V136.641H90.5938V138.172C90.7396 138.266 90.8828 138.367 91.0234 138.477C91.0651 138.508 91.1042 138.539 91.1406 138.57V136.641H92.3906V140.938H86.9219C85.6198 140.938 84.9688 140.417 84.9688 139.375C84.9688 138.073 86.0104 137.422 88.0938 137.422C88.5208 137.422 88.9375 137.482 89.3438 137.602ZM92.3906 155.781V160.078H90.4375V155.781H92.3906ZM104.734 149.898V151.875C104.734 153.958 103.901 155 102.234 155C101 155 100.125 154.674 99.6094 154.023C99.0938 153.372 98.6406 153.047 98.25 153.047V155H96.2969V150.312H98.25V151.484C99.1094 151.484 99.8229 151.81 100.391 152.461C100.964 153.112 101.466 153.438 101.898 153.438C102.487 153.438 102.781 152.917 102.781 151.875V151.039C98.4583 150.102 96.2969 148.557 96.2969 146.406C96.2969 144.323 97.7031 143.281 100.516 143.281C103.328 143.281 104.734 144.323 104.734 146.406C104.734 147.859 103.906 148.586 102.25 148.586C101.797 148.586 101.427 148.479 101.141 148.266V146.68C101.776 146.867 102.182 146.961 102.359 146.961C102.641 146.961 102.781 146.776 102.781 146.406C102.781 145.365 102.026 144.844 100.516 144.844C99.0052 144.844 98.25 145.365 98.25 146.406C98.25 147.745 100.411 148.909 104.734 149.898ZM104.734 155.781V160.078H102.781V155.781H104.734ZM110.203 144.891C110.333 144.891 110.419 144.862 110.461 144.805C110.497 144.763 110.516 144.708 110.516 144.641C110.516 144.573 110.495 144.513 110.453 144.461C110.411 144.404 110.328 144.375 110.203 144.375V144.891ZM110.594 151.094C110.594 152.656 111.219 153.438 112.469 153.438C113.901 153.438 114.617 152.656 114.617 151.094V146.406C114.617 145.979 114.357 145.557 113.836 145.141V144.453C113.836 143.672 114.331 143.281 115.32 143.281H116.961V144.844H115.633V144.938C116.258 145.354 116.57 145.844 116.57 146.406V151.094C116.57 152.656 117.286 153.438 118.719 153.438C119.969 153.438 120.594 152.656 120.594 151.094V146.406C120.594 145.979 120.333 145.557 119.812 145.141V144.453C119.812 143.672 120.307 143.281 121.297 143.281H122.938V144.844H121.609V144.938C122.234 145.354 122.547 145.844 122.547 146.406V151.094C122.547 153.698 121.271 155 118.719 155C116.969 155 115.927 154.633 115.594 153.898C115.26 154.633 114.219 155 112.469 155C109.917 155 108.641 153.698 108.641 151.094V144.648C108.641 144.299 108.753 143.984 108.977 143.703C109.201 143.422 109.609 143.281 110.203 143.281C110.849 143.281 111.284 143.422 111.508 143.703C111.732 143.984 111.844 144.299 111.844 144.648C111.844 144.997 111.75 145.286 111.562 145.516C111.333 145.818 111.01 145.977 110.594 145.992V151.094ZM126.844 152.773C126.682 152.784 126.576 152.823 126.523 152.891C126.477 152.958 126.453 153.07 126.453 153.227C126.453 153.378 126.477 153.49 126.523 153.562C126.576 153.63 126.682 153.664 126.844 153.664V152.773ZM126.453 146.406C126.453 145.979 126.193 145.557 125.672 145.141V144.453C125.672 143.672 126.167 143.281 127.156 143.281H128.797V144.844H127.469V144.938C128.094 145.354 128.406 145.844 128.406 146.406V153.242C128.406 153.857 128.271 154.305 128 154.586C127.729 154.862 127.344 155 126.844 155C126.344 155 125.958 154.862 125.688 154.586C125.417 154.305 125.281 153.857 125.281 153.242C125.281 152.628 125.378 152.182 125.57 151.906C125.763 151.625 126.057 151.469 126.453 151.438V146.406ZM132.703 149.305C132.542 149.305 132.435 149.341 132.383 149.414C132.336 149.482 132.312 149.591 132.312 149.742C132.312 149.898 132.336 150.01 132.383 150.078C132.435 150.146 132.542 150.185 132.703 150.195V149.305ZM134.266 152.961L136.531 150.906L138.797 152.961V148.359C138.797 147.734 138.492 147.195 137.883 146.742C137.576 147.039 136.839 147.188 135.672 147.188C134.422 147.188 133.549 147.023 133.055 146.695C132.56 146.367 132.312 145.841 132.312 145.117C132.312 144.638 132.417 144.237 132.625 143.914C132.833 143.586 132.938 143.258 132.938 142.93C132.938 142.643 132.599 142.5 131.922 142.5V140.938C133.797 140.938 134.734 141.432 134.734 142.422C134.734 142.771 134.63 143.188 134.422 143.672C134.214 144.151 134.109 144.513 134.109 144.758C134.109 145.029 134.216 145.242 134.43 145.398C134.648 145.549 135.081 145.625 135.727 145.625C136.284 145.625 136.701 145.544 136.977 145.383C136.628 145.096 136.453 144.76 136.453 144.375C136.453 143.646 137.026 143.281 138.172 143.281C139.37 143.281 139.969 143.724 139.969 144.609C139.969 145 139.724 145.385 139.234 145.766C140.245 146.5 140.75 147.234 140.75 147.969V155H138.656L136.531 152.875L134.406 155H132.312V151.531C131.917 151.5 131.622 151.346 131.43 151.07C131.237 150.789 131.141 150.341 131.141 149.727C131.141 149.112 131.237 148.667 131.43 148.391C131.622 148.109 132.047 147.969 132.703 147.969C133.359 147.969 133.784 148.109 133.977 148.391C134.169 148.667 134.266 149.112 134.266 149.727V152.961ZM138.156 145.008L138.398 144.836C138.487 144.763 138.531 144.693 138.531 144.625C138.531 144.464 138.422 144.383 138.203 144.383C137.995 144.383 137.891 144.448 137.891 144.578C137.891 144.651 137.922 144.714 137.984 144.766L138.156 145.008ZM153.109 148.438C153.234 148.438 153.318 148.411 153.359 148.359C153.401 148.302 153.422 148.24 153.422 148.172C153.422 148.104 153.404 148.049 153.367 148.008C153.326 147.951 153.24 147.922 153.109 147.922V148.438ZM151.547 145.398L153.477 143.016L154.984 144.602L156.492 143.016L158.422 145.398V151.094C158.422 153.698 156.82 155 153.617 155C150.414 155 148.812 153.698 148.812 151.094V144.062C148.812 143.542 148.656 143.281 148.344 143.281H147.641V141.719H148.891C150.141 141.719 150.766 142.24 150.766 143.281V151.094C150.766 152.656 151.716 153.438 153.617 153.438C155.518 153.438 156.469 152.656 156.469 151.094V145.93L156.203 145.609L154.984 146.875L153.766 145.609L153.5 145.93V146.82C153.917 146.836 154.24 146.995 154.469 147.297C154.656 147.526 154.75 147.815 154.75 148.164C154.75 148.513 154.638 148.828 154.414 149.109C154.19 149.391 153.755 149.531 153.109 149.531C152.516 149.531 152.107 149.391 151.883 149.109C151.659 148.828 151.547 148.513 151.547 148.164V145.398Z" fill="#1C4076"/>
<path d="M61 29H311C313.761 29 316 31.2386 316 34V72C316 74.7614 313.761 77 311 77H61V29Z" fill="#003A8A" fill-opacity="0.1"/>
</g>
<defs>
<clipPath id="clip0_7114_274">
<rect width="367" height="208" fill="white"/>
</clipPath>
</defs>
</svg>
