<svg width="180" height="150" viewBox="0 0 180 150" fill="none" xmlns="http://www.w3.org/2000/svg">
<rect y="46" width="108" height="48" rx="10" fill="#1C4076"/>
<path d="M32 80.5C29.2152 80.5 26.5445 79.3938 24.5754 77.4246C22.6062 75.4555 21.5 72.7848 21.5 70C21.5 67.2152 22.6062 64.5445 24.5754 62.5754C26.5445 60.6062 29.2152 59.5 32 59.5C34.7848 59.5 37.4555 60.6062 39.4246 62.5754C41.3938 64.5445 42.5 67.2152 42.5 70C42.5 72.7848 41.3938 75.4555 39.4246 77.4246C37.4555 79.3938 34.7848 80.5 32 80.5ZM32 82C35.1826 82 38.2348 80.7357 40.4853 78.4853C42.7357 76.2348 44 73.1826 44 70C44 66.8174 42.7357 63.7652 40.4853 61.5147C38.2348 59.2643 35.1826 58 32 58C28.8174 58 25.7652 59.2643 23.5147 61.5147C21.2643 63.7652 20 66.8174 20 70C20 73.1826 21.2643 76.2348 23.5147 78.4853C25.7652 80.7357 28.8174 82 32 82Z" fill="white"/>
<path d="M32 64C32.1989 64 32.3897 64.079 32.5303 64.2197C32.671 64.3603 32.75 64.5511 32.75 64.75V69.25H37.25C37.4489 69.25 37.6397 69.329 37.7803 69.4697C37.921 69.6103 38 69.8011 38 70C38 70.1989 37.921 70.3897 37.7803 70.5303C37.6397 70.671 37.4489 70.75 37.25 70.75H32.75V75.25C32.75 75.4489 32.671 75.6397 32.5303 75.7803C32.3897 75.921 32.1989 76 32 76C31.8011 76 31.6103 75.921 31.4697 75.7803C31.329 75.6397 31.25 75.4489 31.25 75.25V70.75H26.75C26.5511 70.75 26.3603 70.671 26.2197 70.5303C26.079 70.3897 26 70.1989 26 70C26 69.8011 26.079 69.6103 26.2197 69.4697C26.3603 69.329 26.5511 69.25 26.75 69.25H31.25V64.75C31.25 64.5511 31.329 64.3603 31.4697 64.2197C31.6103 64.079 31.8011 64 32 64Z" fill="white"/>
<path d="M64.8594 66.4062C64.8594 66.0417 64.599 65.651 64.0781 65.2344V64.4531C64.0781 63.6719 64.4688 63.2812 65.25 63.2812H66.5781V64.4531H65.6406C65.3802 64.4531 65.25 64.5833 65.25 64.8438C65.875 65.2604 66.1875 65.7812 66.1875 66.4062V71.0938C66.1875 73.6979 64.8854 75 62.2812 75C59.6771 75 58.375 73.6979 58.375 71.0938V66.4062C58.375 66.0417 58.1146 65.651 57.5938 65.2344V64.4531C57.5938 63.6719 57.9844 63.2812 58.7656 63.2812H60.0938V64.4531H59.1562C58.8958 64.4531 58.7656 64.5833 58.7656 64.8438C59.3906 65.2604 59.7031 65.7812 59.7031 66.4062V71.0938C59.7031 72.9167 60.5625 73.8281 62.2812 73.8281C64 73.8281 64.8594 72.9167 64.8594 71.0938V66.4062ZM62.2812 62.8906L60.3281 61.7969L58.8438 62.8125L58.375 61.875L60.3281 60.5469L62.2812 61.6406L64.2344 60.5469L66.1875 61.875L65.7188 62.8125L64.2344 61.7969L62.2812 62.8906ZM63.8438 78.125C63.8438 78.6458 64.013 78.9062 64.3516 78.9062C64.6901 78.9062 64.8594 78.6458 64.8594 78.125V75.7812H66.1875V78.125C66.1875 79.4271 65.5755 80.0781 64.3516 80.0781C63.1276 80.0781 62.5156 79.4271 62.5156 78.125V75.7812H63.8438V78.125ZM71.2656 72.6562V73.8281C71.375 73.8281 71.4661 73.7995 71.5391 73.7422C71.6172 73.6797 71.6562 73.513 71.6562 73.2422C71.6562 72.9714 71.6172 72.8073 71.5391 72.75C71.4661 72.6875 71.375 72.6562 71.2656 72.6562ZM77.9062 63.2812V64.4531H70.0938V63.2812H77.9062ZM70.0938 69.5312C70.0938 66.9271 71.3958 65.625 74 65.625C76.6042 65.625 77.9062 66.9271 77.9062 69.5312V75H76.5781V69.5312C76.5781 67.7083 75.7188 66.7969 74 66.7969C72.2812 66.7969 71.4219 67.7083 71.4219 69.5312V71.5625C71.5417 71.5104 71.6797 71.4844 71.8359 71.4844C71.9922 71.4844 72.1562 71.625 72.3281 71.9062C72.5052 72.1823 72.5938 72.6276 72.5938 73.2422C72.5938 73.8568 72.4792 74.3047 72.25 74.5859C72.026 74.862 71.724 75 71.3438 75C70.9635 75 70.6615 74.8594 70.4375 74.5781C70.2604 74.3646 70.151 74.0495 70.1094 73.6328H70.0938V69.5312ZM77.9062 75.7812V80.0781H76.5781V75.7812H77.9062ZM87.6719 64.4688C87.6719 64.3125 87.5677 64.2344 87.3594 64.2344C87.151 64.2344 87.0469 64.3125 87.0469 64.4688C87.0469 64.6094 87.151 64.75 87.3594 64.8906C87.5677 64.7812 87.6719 64.6406 87.6719 64.4688ZM81.6172 68.3594C81.5599 68.3594 81.513 68.3854 81.4766 68.4375C81.4401 68.4844 81.4219 68.6536 81.4219 68.9453C81.4219 69.237 81.4401 69.4089 81.4766 69.4609C81.513 69.5078 81.5599 69.5312 81.6172 69.5312H81.8125V68.3594H81.6172ZM83.1406 73.4375L85.7188 71.0938L88.2969 73.4375V67.9688C88.2969 67.4062 87.875 66.8099 87.0312 66.1797C86.6042 66.5911 85.8802 66.7969 84.8594 66.7969C83.724 66.7969 82.9323 66.6484 82.4844 66.3516C82.0365 66.0547 81.8125 65.6432 81.8125 65.1172C81.8125 64.5964 81.9167 64.1094 82.125 63.6562C82.3333 63.1979 82.4375 62.8255 82.4375 62.5391C82.4375 62.2526 82.099 62.1094 81.4219 62.1094V60.9375C82.8802 60.9375 83.6094 61.4323 83.6094 62.4219C83.6094 62.8125 83.5052 63.25 83.2969 63.7344C83.0885 64.2135 82.9844 64.5547 82.9844 64.7578C82.9844 64.9661 83.1146 65.1641 83.375 65.3516C83.6354 65.5339 84.1484 65.625 84.9141 65.625C85.5755 65.625 86.0521 65.5391 86.3438 65.3672C86.0833 65.1536 85.9531 64.8229 85.9531 64.375C85.9531 63.6458 86.4219 63.2812 87.3594 63.2812C88.349 63.2812 88.8438 63.724 88.8438 64.6094C88.8438 65.0625 88.6406 65.4479 88.2344 65.7656C89.1615 66.4375 89.625 67.1719 89.625 67.9688V75H88.0625L85.7188 72.6562L83.375 75H81.8125V70.6875C81.75 70.6979 81.6849 70.7031 81.6172 70.7031C81.3151 70.7031 81.0755 70.5781 80.8984 70.3281C80.7266 70.0729 80.6406 69.612 80.6406 68.9453C80.6406 68.2786 80.7266 67.8203 80.8984 67.5703C81.0755 67.3151 81.4062 67.1875 81.8906 67.1875C82.375 67.1875 82.7031 67.3151 82.875 67.5703C83.0521 67.8203 83.1406 68.2786 83.1406 68.9453V73.4375Z" fill="white"/>
<circle cx="168" cy="70" r="12" fill="#344054"/>
<path d="M163.943 76V74.2273L168.085 70.392C168.438 70.0511 168.733 69.7443 168.972 69.4716C169.214 69.1989 169.398 68.9318 169.523 68.6705C169.648 68.4053 169.71 68.1193 169.71 67.8125C169.71 67.4716 169.633 67.178 169.477 66.9318C169.322 66.6818 169.11 66.4905 168.841 66.358C168.572 66.2216 168.267 66.1534 167.926 66.1534C167.57 66.1534 167.259 66.2254 166.994 66.3693C166.729 66.5133 166.525 66.7197 166.381 66.9886C166.237 67.2576 166.165 67.5777 166.165 67.9489H163.83C163.83 67.1875 164.002 66.5265 164.347 65.9659C164.691 65.4053 165.174 64.9716 165.795 64.6648C166.417 64.358 167.133 64.2045 167.943 64.2045C168.777 64.2045 169.502 64.3523 170.119 64.6477C170.741 64.9394 171.223 65.3447 171.568 65.8636C171.913 66.3826 172.085 66.9773 172.085 67.6477C172.085 68.0871 171.998 68.5208 171.824 68.9489C171.653 69.3769 171.348 69.8523 170.909 70.375C170.47 70.8939 169.85 71.517 169.051 72.2443L167.352 73.9091V73.9886H172.239V76H163.943Z" fill="white"/>
<path d="M159 70L107 70.5" stroke="#344054" stroke-dasharray="2 2"/>
<circle cx="79" cy="16" r="12" fill="#344054"/>
<path d="M81.0057 10.3636V22H78.5455V12.6989H78.4773L75.8125 14.3693V12.1875L78.6932 10.3636H81.0057Z" fill="white"/>
<path d="M76 16H32V58" stroke="#344054" stroke-dasharray="2 2"/>
<circle cx="79" cy="134" r="12" fill="#344054"/>
<path d="M79.2443 140.159C78.3958 140.159 77.6402 140.013 76.9773 139.722C76.3182 139.426 75.7973 139.021 75.4148 138.506C75.036 137.987 74.8409 137.388 74.8295 136.71H77.3068C77.322 136.994 77.4148 137.244 77.5852 137.46C77.7595 137.672 77.9905 137.837 78.2784 137.955C78.5663 138.072 78.8902 138.131 79.25 138.131C79.625 138.131 79.9564 138.064 80.2443 137.932C80.5322 137.799 80.7576 137.616 80.9205 137.381C81.0833 137.146 81.1648 136.875 81.1648 136.568C81.1648 136.258 81.0777 135.983 80.9034 135.744C80.733 135.502 80.4867 135.312 80.1648 135.176C79.8466 135.04 79.4678 134.972 79.0284 134.972H77.9432V133.165H79.0284C79.3996 133.165 79.7273 133.1 80.0114 132.972C80.2992 132.843 80.5227 132.665 80.6818 132.438C80.8409 132.206 80.9205 131.938 80.9205 131.631C80.9205 131.339 80.8504 131.083 80.7102 130.864C80.5739 130.64 80.3807 130.466 80.1307 130.341C79.8845 130.216 79.5966 130.153 79.267 130.153C78.9337 130.153 78.6288 130.214 78.3523 130.335C78.0758 130.453 77.8542 130.621 77.6875 130.841C77.5208 131.061 77.4318 131.318 77.4205 131.614H75.0625C75.0739 130.943 75.2652 130.352 75.6364 129.841C76.0076 129.33 76.5076 128.93 77.1364 128.642C77.7689 128.35 78.483 128.205 79.2784 128.205C80.0814 128.205 80.7841 128.35 81.3864 128.642C81.9886 128.934 82.4564 129.328 82.7898 129.824C83.1269 130.316 83.2936 130.869 83.2898 131.483C83.2936 132.134 83.0909 132.678 82.6818 133.114C82.2765 133.549 81.7481 133.826 81.0966 133.943V134.034C81.9527 134.144 82.6042 134.441 83.0511 134.926C83.5019 135.407 83.7254 136.009 83.7216 136.733C83.7254 137.396 83.5341 137.985 83.1477 138.5C82.7652 139.015 82.2367 139.42 81.5625 139.716C80.8883 140.011 80.1155 140.159 79.2443 140.159Z" fill="white"/>
<path d="M76 134H32V94" stroke="#344054" stroke-dasharray="2 2"/>
</svg>
