<svg width="219" height="91" viewBox="0 0 219 91" fill="none" xmlns="http://www.w3.org/2000/svg">
<rect x="59" y="4" width="108" height="48" rx="10" fill="#1C4076"/>
<path d="M91 38.5C88.2152 38.5 85.5445 37.3938 83.5754 35.4246C81.6062 33.4555 80.5 30.7848 80.5 28C80.5 25.2152 81.6062 22.5445 83.5754 20.5754C85.5445 18.6062 88.2152 17.5 91 17.5C93.7848 17.5 96.4555 18.6062 98.4246 20.5754C100.394 22.5445 101.5 25.2152 101.5 28C101.5 30.7848 100.394 33.4555 98.4246 35.4246C96.4555 37.3938 93.7848 38.5 91 38.5ZM91 40C94.1826 40 97.2348 38.7357 99.4853 36.4853C101.736 34.2348 103 31.1826 103 28C103 24.8174 101.736 21.7652 99.4853 19.5147C97.2348 17.2643 94.1826 16 91 16C87.8174 16 84.7652 17.2643 82.5147 19.5147C80.2643 21.7652 79 24.8174 79 28C79 31.1826 80.2643 34.2348 82.5147 36.4853C84.7652 38.7357 87.8174 40 91 40Z" fill="white"/>
<path d="M91 22C91.1989 22 91.3897 22.079 91.5303 22.2197C91.671 22.3603 91.75 22.5511 91.75 22.75V27.25H96.25C96.4489 27.25 96.6397 27.329 96.7803 27.4697C96.921 27.6103 97 27.8011 97 28C97 28.1989 96.921 28.3897 96.7803 28.5303C96.6397 28.671 96.4489 28.75 96.25 28.75H91.75V33.25C91.75 33.4489 91.671 33.6397 91.5303 33.7803C91.3897 33.921 91.1989 34 91 34C90.8011 34 90.6103 33.921 90.4697 33.7803C90.329 33.6397 90.25 33.4489 90.25 33.25V28.75H85.75C85.5511 28.75 85.3603 28.671 85.2197 28.5303C85.079 28.3897 85 28.1989 85 28C85 27.8011 85.079 27.6103 85.2197 27.4697C85.3603 27.329 85.5511 27.25 85.75 27.25H90.25V22.75C90.25 22.5511 90.329 22.3603 90.4697 22.2197C90.6103 22.079 90.8011 22 91 22Z" fill="white"/>
<path d="M123.859 24.4062C123.859 24.0417 123.599 23.651 123.078 23.2344V22.4531C123.078 21.6719 123.469 21.2812 124.25 21.2812H125.578V22.4531H124.641C124.38 22.4531 124.25 22.5833 124.25 22.8438C124.875 23.2604 125.188 23.7812 125.188 24.4062V29.0938C125.188 31.6979 123.885 33 121.281 33C118.677 33 117.375 31.6979 117.375 29.0938V24.4062C117.375 24.0417 117.115 23.651 116.594 23.2344V22.4531C116.594 21.6719 116.984 21.2812 117.766 21.2812H119.094V22.4531H118.156C117.896 22.4531 117.766 22.5833 117.766 22.8438C118.391 23.2604 118.703 23.7812 118.703 24.4062V29.0938C118.703 30.9167 119.562 31.8281 121.281 31.8281C123 31.8281 123.859 30.9167 123.859 29.0938V24.4062ZM121.281 20.8906L119.328 19.7969L117.844 20.8125L117.375 19.875L119.328 18.5469L121.281 19.6406L123.234 18.5469L125.188 19.875L124.719 20.8125L123.234 19.7969L121.281 20.8906ZM122.844 36.125C122.844 36.6458 123.013 36.9062 123.352 36.9062C123.69 36.9062 123.859 36.6458 123.859 36.125V33.7812H125.188V36.125C125.188 37.4271 124.576 38.0781 123.352 38.0781C122.128 38.0781 121.516 37.4271 121.516 36.125V33.7812H122.844V36.125ZM130.266 30.6562V31.8281C130.375 31.8281 130.466 31.7995 130.539 31.7422C130.617 31.6797 130.656 31.513 130.656 31.2422C130.656 30.9714 130.617 30.8073 130.539 30.75C130.466 30.6875 130.375 30.6562 130.266 30.6562ZM136.906 21.2812V22.4531H129.094V21.2812H136.906ZM129.094 27.5312C129.094 24.9271 130.396 23.625 133 23.625C135.604 23.625 136.906 24.9271 136.906 27.5312V33H135.578V27.5312C135.578 25.7083 134.719 24.7969 133 24.7969C131.281 24.7969 130.422 25.7083 130.422 27.5312V29.5625C130.542 29.5104 130.68 29.4844 130.836 29.4844C130.992 29.4844 131.156 29.625 131.328 29.9062C131.505 30.1823 131.594 30.6276 131.594 31.2422C131.594 31.8568 131.479 32.3047 131.25 32.5859C131.026 32.862 130.724 33 130.344 33C129.964 33 129.661 32.8594 129.438 32.5781C129.26 32.3646 129.151 32.0495 129.109 31.6328H129.094V27.5312ZM136.906 33.7812V38.0781H135.578V33.7812H136.906ZM146.672 22.4688C146.672 22.3125 146.568 22.2344 146.359 22.2344C146.151 22.2344 146.047 22.3125 146.047 22.4688C146.047 22.6094 146.151 22.75 146.359 22.8906C146.568 22.7812 146.672 22.6406 146.672 22.4688ZM140.617 26.3594C140.56 26.3594 140.513 26.3854 140.477 26.4375C140.44 26.4844 140.422 26.6536 140.422 26.9453C140.422 27.237 140.44 27.4089 140.477 27.4609C140.513 27.5078 140.56 27.5312 140.617 27.5312H140.812V26.3594H140.617ZM142.141 31.4375L144.719 29.0938L147.297 31.4375V25.9688C147.297 25.4062 146.875 24.8099 146.031 24.1797C145.604 24.5911 144.88 24.7969 143.859 24.7969C142.724 24.7969 141.932 24.6484 141.484 24.3516C141.036 24.0547 140.812 23.6432 140.812 23.1172C140.812 22.5964 140.917 22.1094 141.125 21.6562C141.333 21.1979 141.438 20.8255 141.438 20.5391C141.438 20.2526 141.099 20.1094 140.422 20.1094V18.9375C141.88 18.9375 142.609 19.4323 142.609 20.4219C142.609 20.8125 142.505 21.25 142.297 21.7344C142.089 22.2135 141.984 22.5547 141.984 22.7578C141.984 22.9661 142.115 23.1641 142.375 23.3516C142.635 23.5339 143.148 23.625 143.914 23.625C144.576 23.625 145.052 23.5391 145.344 23.3672C145.083 23.1536 144.953 22.8229 144.953 22.375C144.953 21.6458 145.422 21.2812 146.359 21.2812C147.349 21.2812 147.844 21.724 147.844 22.6094C147.844 23.0625 147.641 23.4479 147.234 23.7656C148.161 24.4375 148.625 25.1719 148.625 25.9688V33H147.062L144.719 30.6562L142.375 33H140.812V28.6875C140.75 28.6979 140.685 28.7031 140.617 28.7031C140.315 28.7031 140.076 28.5781 139.898 28.3281C139.727 28.0729 139.641 27.612 139.641 26.9453C139.641 26.2786 139.727 25.8203 139.898 25.5703C140.076 25.3151 140.406 25.1875 140.891 25.1875C141.375 25.1875 141.703 25.3151 141.875 25.5703C142.052 25.8203 142.141 26.2786 142.141 26.9453V31.4375Z" fill="white"/>
<rect x="59" y="4" width="16" height="48" fill="#EE7D22" fill-opacity="0.24"/>
<rect x="151" y="4" width="16" height="48" fill="#EE7D22" fill-opacity="0.24"/>
<rect x="59" y="4" width="108" height="8" fill="#EE7D22" fill-opacity="0.24"/>
<rect x="59" y="44" width="108" height="8" fill="#EE7D22" fill-opacity="0.24"/>
<path d="M151 68.5H167" stroke="#F07D03"/>
<rect x="141" y="73" width="36" height="18" rx="3" fill="#F07D03"/>
<path d="M150.754 78.7273V86H149.216V80.1868H149.173L147.508 81.2308V79.8672L149.308 78.7273H150.754ZM155.273 86.0994C154.899 86.0971 154.538 86.0343 154.19 85.9112C153.845 85.7881 153.534 85.5881 153.26 85.3111C152.985 85.0341 152.767 84.6671 152.606 84.2102C152.448 83.7533 152.368 83.1922 152.368 82.527C152.371 81.9162 152.441 81.3705 152.578 80.8899C152.718 80.407 152.916 79.9974 153.175 79.6612C153.435 79.325 153.746 79.0694 154.108 78.8942C154.471 78.7166 154.877 78.6278 155.327 78.6278C155.812 78.6278 156.24 78.7225 156.612 78.9119C156.984 79.099 157.282 79.3535 157.507 79.6754C157.734 79.9974 157.872 80.3584 157.919 80.7585H156.403C156.343 80.5052 156.219 80.3063 156.03 80.1619C155.84 80.0175 155.606 79.9453 155.327 79.9453C154.853 79.9453 154.493 80.1513 154.247 80.5632C154.003 80.9751 153.879 81.535 153.874 82.2429H153.924C154.033 82.0275 154.18 81.844 154.364 81.6925C154.551 81.5386 154.763 81.4214 155 81.3409C155.239 81.258 155.491 81.2166 155.756 81.2166C156.187 81.2166 156.571 81.3184 156.907 81.522C157.243 81.7232 157.508 82.0002 157.702 82.353C157.896 82.7057 157.993 83.1094 157.993 83.5639C157.993 84.0563 157.879 84.4943 157.649 84.8778C157.422 85.2614 157.103 85.562 156.694 85.7798C156.287 85.9953 155.813 86.1018 155.273 86.0994ZM155.266 84.892C155.503 84.892 155.715 84.8352 155.902 84.7216C156.089 84.608 156.236 84.4541 156.342 84.2599C156.449 84.0658 156.502 83.848 156.502 83.6065C156.502 83.3651 156.449 83.1484 156.342 82.9567C156.238 82.7649 156.094 82.6122 155.909 82.4986C155.724 82.3849 155.514 82.3281 155.277 82.3281C155.099 82.3281 154.935 82.3613 154.783 82.4276C154.634 82.4938 154.503 82.5862 154.389 82.7045C154.278 82.8229 154.19 82.9602 154.126 83.1165C154.062 83.2704 154.03 83.4349 154.03 83.6101C154.03 83.8445 154.084 84.0587 154.19 84.2528C154.299 84.447 154.446 84.602 154.631 84.718C154.818 84.834 155.029 84.892 155.266 84.892ZM159.098 88.0455V80.5455H160.589V81.4616H160.657C160.723 81.3149 160.819 81.1657 160.944 81.0142C161.072 80.8603 161.238 80.7325 161.442 80.6307C161.648 80.5265 161.903 80.4744 162.209 80.4744C162.606 80.4744 162.973 80.5786 163.309 80.7869C163.646 80.9929 163.914 81.3042 164.116 81.7209C164.317 82.1352 164.417 82.6548 164.417 83.2798C164.417 83.8883 164.319 84.402 164.123 84.821C163.929 85.2377 163.663 85.5537 163.327 85.7692C162.993 85.9822 162.619 86.0888 162.205 86.0888C161.912 86.0888 161.662 86.0402 161.456 85.9432C161.252 85.8461 161.085 85.7242 160.955 85.5774C160.825 85.4283 160.725 85.2779 160.657 85.1264H160.611V88.0455H159.098ZM160.579 83.2727C160.579 83.5971 160.624 83.88 160.714 84.1214C160.804 84.3629 160.934 84.5511 161.104 84.6861C161.275 84.8187 161.482 84.8849 161.726 84.8849C161.972 84.8849 162.18 84.8175 162.351 84.6825C162.521 84.5452 162.65 84.3558 162.738 84.1143C162.828 83.8705 162.873 83.59 162.873 83.2727C162.873 82.9579 162.829 82.6809 162.741 82.4418C162.654 82.2027 162.525 82.0156 162.354 81.8807C162.184 81.7457 161.974 81.6783 161.726 81.6783C161.479 81.6783 161.271 81.7434 161.101 81.8736C160.933 82.0038 160.804 82.1884 160.714 82.4276C160.624 82.6667 160.579 82.9484 160.579 83.2727ZM166.495 80.5455L167.496 82.4524L168.523 80.5455H170.074L168.494 83.2727L170.117 86H168.572L167.496 84.1143L166.438 86H164.876L166.495 83.2727L164.932 80.5455H166.495Z" fill="white"/>
<line x1="151.5" y1="72" x2="151.5" y2="65" stroke="#F07D03"/>
<line x1="166.5" y1="72" x2="166.5" y2="65" stroke="#F07D03"/>
<path d="M59 68.5H75" stroke="#F07D03"/>
<rect x="49" y="73" width="36" height="18" rx="3" fill="#F07D03"/>
<path d="M58.7536 78.7273V86H57.2159V80.1868H57.1733L55.5078 81.2308V79.8672L57.3082 78.7273H58.7536ZM63.2733 86.0994C62.8992 86.0971 62.5382 86.0343 62.1902 85.9112C61.8445 85.7881 61.5344 85.5881 61.2598 85.3111C60.9851 85.0341 60.7673 84.6671 60.6064 84.2102C60.4477 83.7533 60.3684 83.1922 60.3684 82.527C60.3708 81.9162 60.4406 81.3705 60.5779 80.8899C60.7176 80.407 60.9165 79.9974 61.1745 79.6612C61.435 79.325 61.7463 79.0694 62.1085 78.8942C62.4707 78.7166 62.8767 78.6278 63.3265 78.6278C63.8118 78.6278 64.2404 78.7225 64.612 78.9119C64.9837 79.099 65.282 79.3535 65.5069 79.6754C65.7342 79.9974 65.8715 80.3584 65.9189 80.7585H64.4025C64.3433 80.5052 64.219 80.3063 64.0297 80.1619C63.8403 80.0175 63.6059 79.9453 63.3265 79.9453C62.853 79.9453 62.4932 80.1513 62.247 80.5632C62.0031 80.9751 61.8788 81.535 61.8741 82.2429H61.9238C62.0327 82.0275 62.1795 81.844 62.3642 81.6925C62.5512 81.5386 62.7631 81.4214 62.9998 81.3409C63.2389 81.258 63.4911 81.2166 63.7562 81.2166C64.1871 81.2166 64.5706 81.3184 64.9068 81.522C65.243 81.7232 65.5081 82.0002 65.7022 82.353C65.8964 82.7057 65.9934 83.1094 65.9934 83.5639C65.9934 84.0563 65.8786 84.4943 65.649 84.8778C65.4217 85.2614 65.1033 85.562 64.6937 85.7798C64.2865 85.9953 63.813 86.1018 63.2733 86.0994ZM63.2662 84.892C63.5029 84.892 63.7148 84.8352 63.9018 84.7216C64.0888 84.608 64.2356 84.4541 64.3422 84.2599C64.4487 84.0658 64.502 83.848 64.502 83.6065C64.502 83.3651 64.4487 83.1484 64.3422 82.9567C64.238 82.7649 64.0936 82.6122 63.9089 82.4986C63.7243 82.3849 63.5136 82.3281 63.2768 82.3281C63.0993 82.3281 62.9347 82.3613 62.7832 82.4276C62.6341 82.4938 62.5027 82.5862 62.389 82.7045C62.2778 82.8229 62.1902 82.9602 62.1262 83.1165C62.0623 83.2704 62.0304 83.4349 62.0304 83.6101C62.0304 83.8445 62.0836 84.0587 62.1902 84.2528C62.2991 84.447 62.4458 84.602 62.6305 84.718C62.8175 84.834 63.0294 84.892 63.2662 84.892ZM67.0978 88.0455V80.5455H68.5893V81.4616H68.6568C68.7231 81.3149 68.819 81.1657 68.9444 81.0142C69.0723 80.8603 69.238 80.7325 69.4416 80.6307C69.6475 80.5265 69.9032 80.4744 70.2086 80.4744C70.6064 80.4744 70.9733 80.5786 71.3095 80.7869C71.6457 80.9929 71.9144 81.3042 72.1156 81.7209C72.3168 82.1352 72.4174 82.6548 72.4174 83.2798C72.4174 83.8883 72.3192 84.402 72.1227 84.821C71.9286 85.2377 71.6634 85.5537 71.3272 85.7692C70.9934 85.9822 70.6194 86.0888 70.2051 86.0888C69.9115 86.0888 69.6618 86.0402 69.4558 85.9432C69.2522 85.8461 69.0853 85.7242 68.9551 85.5774C68.8249 85.4283 68.7254 85.2779 68.6568 85.1264H68.6106V88.0455H67.0978ZM68.5787 83.2727C68.5787 83.5971 68.6236 83.88 68.7136 84.1214C68.8036 84.3629 68.9338 84.5511 69.1042 84.6861C69.2747 84.8187 69.4818 84.8849 69.7257 84.8849C69.9719 84.8849 70.1802 84.8175 70.3507 84.6825C70.5211 84.5452 70.6502 84.3558 70.7377 84.1143C70.8277 83.8705 70.8727 83.59 70.8727 83.2727C70.8727 82.9579 70.8289 82.6809 70.7413 82.4418C70.6537 82.2027 70.5247 82.0156 70.3542 81.8807C70.1838 81.7457 69.9743 81.6783 69.7257 81.6783C69.4795 81.6783 69.2711 81.7434 69.1007 81.8736C68.9326 82.0038 68.8036 82.1884 68.7136 82.4276C68.6236 82.6667 68.5787 82.9484 68.5787 83.2727ZM74.4949 80.5455L75.4963 82.4524L76.5225 80.5455H78.0744L76.4941 83.2727L78.117 86H76.5723L75.4963 84.1143L74.438 86H72.8755L74.4949 83.2727L72.9324 80.5455H74.4949Z" fill="white"/>
<line x1="59.5" y1="72" x2="59.5" y2="65" stroke="#F07D03"/>
<line x1="74.5" y1="72" x2="74.5" y2="65" stroke="#F07D03"/>
<path d="M183.5 4V12" stroke="#F07D03"/>
<rect x="188" y="0.5" width="31" height="18" rx="3" fill="#F07D03"/>
<path d="M197.303 13.5994C196.756 13.5994 196.269 13.5107 195.843 13.3331C195.419 13.1532 195.087 12.9081 194.845 12.598C194.604 12.2879 194.483 11.9363 194.483 11.5433C194.483 11.2403 194.552 10.9621 194.689 10.7088C194.829 10.4531 195.018 10.2412 195.257 10.0732C195.496 9.9027 195.764 9.7938 196.06 9.74645V9.69673C195.671 9.61861 195.357 9.4304 195.115 9.1321C194.874 8.83144 194.753 8.48224 194.753 8.08452C194.753 7.7081 194.863 7.37311 195.083 7.07955C195.303 6.78362 195.605 6.55161 195.989 6.38352C196.375 6.21307 196.812 6.12784 197.303 6.12784C197.793 6.12784 198.229 6.21307 198.613 6.38352C198.999 6.55398 199.302 6.78717 199.522 7.0831C199.742 7.37666 199.853 7.71046 199.856 8.08452C199.853 8.48461 199.73 8.83381 199.487 9.1321C199.243 9.4304 198.93 9.61861 198.549 9.69673V9.74645C198.84 9.7938 199.104 9.9027 199.341 10.0732C199.58 10.2412 199.769 10.4531 199.909 10.7088C200.051 10.9621 200.123 11.2403 200.126 11.5433C200.123 11.9363 200.001 12.2879 199.76 12.598C199.518 12.9081 199.185 13.1532 198.759 13.3331C198.335 13.5107 197.849 13.5994 197.303 13.5994ZM197.303 12.4702C197.546 12.4702 197.759 12.4264 197.942 12.3388C198.124 12.2488 198.266 12.1257 198.368 11.9695C198.472 11.8108 198.524 11.6286 198.524 11.4226C198.524 11.2119 198.471 11.026 198.364 10.8651C198.258 10.7017 198.113 10.5739 197.931 10.4815C197.749 10.3868 197.539 10.3395 197.303 10.3395C197.068 10.3395 196.859 10.3868 196.674 10.4815C196.489 10.5739 196.344 10.7017 196.237 10.8651C196.133 11.026 196.081 11.2119 196.081 11.4226C196.081 11.6286 196.132 11.8108 196.234 11.9695C196.335 12.1257 196.479 12.2488 196.663 12.3388C196.848 12.4264 197.061 12.4702 197.303 12.4702ZM197.303 9.22088C197.506 9.22088 197.687 9.17945 197.846 9.09659C198.004 9.01373 198.129 8.89891 198.219 8.75213C198.309 8.60535 198.354 8.43608 198.354 8.24432C198.354 8.05492 198.309 7.8892 198.219 7.74716C198.129 7.60275 198.006 7.49029 197.849 7.4098C197.693 7.32694 197.511 7.28551 197.303 7.28551C197.097 7.28551 196.914 7.32694 196.756 7.4098C196.597 7.49029 196.473 7.60275 196.383 7.74716C196.295 7.8892 196.251 8.05492 196.251 8.24432C196.251 8.43608 196.296 8.60535 196.386 8.75213C196.476 8.89891 196.601 9.01373 196.759 9.09659C196.918 9.17945 197.099 9.22088 197.303 9.22088ZM201.215 15.5455V8.04545H202.706V8.96165H202.774C202.84 8.81487 202.936 8.66572 203.062 8.5142C203.189 8.36032 203.355 8.23248 203.559 8.13068C203.765 8.02652 204.02 7.97443 204.326 7.97443C204.724 7.97443 205.09 8.0786 205.427 8.28693C205.763 8.4929 206.032 8.80421 206.233 9.22088C206.434 9.63518 206.535 10.1548 206.535 10.7798C206.535 11.3883 206.436 11.902 206.24 12.321C206.046 12.7377 205.781 13.0537 205.444 13.2692C205.111 13.4822 204.737 13.5888 204.322 13.5888C204.029 13.5888 203.779 13.5402 203.573 13.4432C203.369 13.3461 203.202 13.2242 203.072 13.0774C202.942 12.9283 202.843 12.7779 202.774 12.6264H202.728V15.5455H201.215ZM202.696 10.7727C202.696 11.0971 202.741 11.38 202.831 11.6214C202.921 11.8629 203.051 12.0511 203.221 12.1861C203.392 12.3187 203.599 12.3849 203.843 12.3849C204.089 12.3849 204.297 12.3175 204.468 12.1825C204.638 12.0452 204.767 11.8558 204.855 11.6143C204.945 11.3705 204.99 11.09 204.99 10.7727C204.99 10.4579 204.946 10.1809 204.858 9.94176C204.771 9.70265 204.642 9.51562 204.471 9.38068C204.301 9.24574 204.091 9.17827 203.843 9.17827C203.597 9.17827 203.388 9.24337 203.218 9.37358C203.05 9.50379 202.921 9.68845 202.831 9.92756C202.741 10.1667 202.696 10.4484 202.696 10.7727ZM208.612 8.04545L209.613 9.95241L210.64 8.04545H212.192L210.611 10.7727L212.234 13.5H210.689L209.613 11.6143L208.555 13.5H206.993L208.612 10.7727L207.05 8.04545H208.612Z" fill="white"/>
<line x1="180" y1="4.5" x2="187" y2="4.5" stroke="#F07D03"/>
<line x1="180" y1="11.5" x2="187" y2="11.5" stroke="#F07D03"/>
<path d="M183.5 44V52" stroke="#F07D03"/>
<rect x="188" y="40.5" width="31" height="18" rx="3" fill="#F07D03"/>
<path d="M197.303 53.5994C196.756 53.5994 196.269 53.5107 195.843 53.3331C195.419 53.1532 195.087 52.9081 194.845 52.598C194.604 52.2879 194.483 51.9363 194.483 51.5433C194.483 51.2403 194.552 50.9621 194.689 50.7088C194.829 50.4531 195.018 50.2412 195.257 50.0732C195.496 49.9027 195.764 49.7938 196.06 49.7464V49.6967C195.671 49.6186 195.357 49.4304 195.115 49.1321C194.874 48.8314 194.753 48.4822 194.753 48.0845C194.753 47.7081 194.863 47.3731 195.083 47.0795C195.303 46.7836 195.605 46.5516 195.989 46.3835C196.375 46.2131 196.812 46.1278 197.303 46.1278C197.793 46.1278 198.229 46.2131 198.613 46.3835C198.999 46.554 199.302 46.7872 199.522 47.0831C199.742 47.3767 199.853 47.7105 199.856 48.0845C199.853 48.4846 199.73 48.8338 199.487 49.1321C199.243 49.4304 198.93 49.6186 198.549 49.6967V49.7464C198.84 49.7938 199.104 49.9027 199.341 50.0732C199.58 50.2412 199.769 50.4531 199.909 50.7088C200.051 50.9621 200.123 51.2403 200.126 51.5433C200.123 51.9363 200.001 52.2879 199.76 52.598C199.518 52.9081 199.185 53.1532 198.759 53.3331C198.335 53.5107 197.849 53.5994 197.303 53.5994ZM197.303 52.4702C197.546 52.4702 197.759 52.4264 197.942 52.3388C198.124 52.2488 198.266 52.1257 198.368 51.9695C198.472 51.8108 198.524 51.6286 198.524 51.4226C198.524 51.2119 198.471 51.026 198.364 50.8651C198.258 50.7017 198.113 50.5739 197.931 50.4815C197.749 50.3868 197.539 50.3395 197.303 50.3395C197.068 50.3395 196.859 50.3868 196.674 50.4815C196.489 50.5739 196.344 50.7017 196.237 50.8651C196.133 51.026 196.081 51.2119 196.081 51.4226C196.081 51.6286 196.132 51.8108 196.234 51.9695C196.335 52.1257 196.479 52.2488 196.663 52.3388C196.848 52.4264 197.061 52.4702 197.303 52.4702ZM197.303 49.2209C197.506 49.2209 197.687 49.1795 197.846 49.0966C198.004 49.0137 198.129 48.8989 198.219 48.7521C198.309 48.6054 198.354 48.4361 198.354 48.2443C198.354 48.0549 198.309 47.8892 198.219 47.7472C198.129 47.6027 198.006 47.4903 197.849 47.4098C197.693 47.3269 197.511 47.2855 197.303 47.2855C197.097 47.2855 196.914 47.3269 196.756 47.4098C196.597 47.4903 196.473 47.6027 196.383 47.7472C196.295 47.8892 196.251 48.0549 196.251 48.2443C196.251 48.4361 196.296 48.6054 196.386 48.7521C196.476 48.8989 196.601 49.0137 196.759 49.0966C196.918 49.1795 197.099 49.2209 197.303 49.2209ZM201.215 55.5455V48.0455H202.706V48.9616H202.774C202.84 48.8149 202.936 48.6657 203.062 48.5142C203.189 48.3603 203.355 48.2325 203.559 48.1307C203.765 48.0265 204.02 47.9744 204.326 47.9744C204.724 47.9744 205.09 48.0786 205.427 48.2869C205.763 48.4929 206.032 48.8042 206.233 49.2209C206.434 49.6352 206.535 50.1548 206.535 50.7798C206.535 51.3883 206.436 51.902 206.24 52.321C206.046 52.7377 205.781 53.0537 205.444 53.2692C205.111 53.4822 204.737 53.5888 204.322 53.5888C204.029 53.5888 203.779 53.5402 203.573 53.4432C203.369 53.3461 203.202 53.2242 203.072 53.0774C202.942 52.9283 202.843 52.7779 202.774 52.6264H202.728V55.5455H201.215ZM202.696 50.7727C202.696 51.0971 202.741 51.38 202.831 51.6214C202.921 51.8629 203.051 52.0511 203.221 52.1861C203.392 52.3187 203.599 52.3849 203.843 52.3849C204.089 52.3849 204.297 52.3175 204.468 52.1825C204.638 52.0452 204.767 51.8558 204.855 51.6143C204.945 51.3705 204.99 51.09 204.99 50.7727C204.99 50.4579 204.946 50.1809 204.858 49.9418C204.771 49.7027 204.642 49.5156 204.471 49.3807C204.301 49.2457 204.091 49.1783 203.843 49.1783C203.597 49.1783 203.388 49.2434 203.218 49.3736C203.05 49.5038 202.921 49.6884 202.831 49.9276C202.741 50.1667 202.696 50.4484 202.696 50.7727ZM208.612 48.0455L209.613 49.9524L210.64 48.0455H212.192L210.611 50.7727L212.234 53.5H210.689L209.613 51.6143L208.555 53.5H206.993L208.612 50.7727L207.05 48.0455H208.612Z" fill="white"/>
<line x1="180" y1="44.5" x2="187" y2="44.5" stroke="#F07D03"/>
<line x1="180" y1="51.5" x2="187" y2="51.5" stroke="#F07D03"/>
<path d="M42.5 4V52" stroke="#F07D03"/>
<rect y="20.5" width="38" height="18" rx="3" fill="#F07D03"/>
<path d="M6.4794 32.2216V31.0107L9.51562 26.2273H10.5597V27.9034H9.94176L8.0277 30.9325V30.9893H12.3423V32.2216H6.4794ZM9.97017 33.5V31.8523L9.99858 31.3161V26.2273H11.4403V33.5H9.97017ZM16.0799 33.5994C15.533 33.5994 15.0465 33.5107 14.6204 33.3331C14.1966 33.1532 13.864 32.9081 13.6225 32.598C13.381 32.2879 13.2603 31.9363 13.2603 31.5433C13.2603 31.2403 13.329 30.9621 13.4663 30.7088C13.6059 30.4531 13.7953 30.2412 14.0344 30.0732C14.2736 29.9027 14.5411 29.7938 14.837 29.7464V29.6967C14.4487 29.6186 14.1339 29.4304 13.8924 29.1321C13.6509 28.8314 13.5302 28.4822 13.5302 28.0845C13.5302 27.7081 13.6403 27.3731 13.8604 27.0795C14.0806 26.7836 14.3825 26.5516 14.766 26.3835C15.1519 26.2131 15.5898 26.1278 16.0799 26.1278C16.57 26.1278 17.0067 26.2131 17.3903 26.3835C17.7762 26.554 18.0792 26.7872 18.2994 27.0831C18.5195 27.3767 18.6308 27.7105 18.6332 28.0845C18.6308 28.4846 18.5077 28.8338 18.2638 29.1321C18.02 29.4304 17.7075 29.6186 17.3263 29.6967V29.7464C17.6175 29.7938 17.8815 29.9027 18.1183 30.0732C18.3574 30.2412 18.5468 30.4531 18.6864 30.7088C18.8285 30.9621 18.9007 31.2403 18.9031 31.5433C18.9007 31.9363 18.7788 32.2879 18.5373 32.598C18.2958 32.9081 17.962 33.1532 17.5359 33.3331C17.1121 33.5107 16.6268 33.5994 16.0799 33.5994ZM16.0799 32.4702C16.3237 32.4702 16.5368 32.4264 16.7191 32.3388C16.9014 32.2488 17.0434 32.1257 17.1452 31.9695C17.2494 31.8108 17.3015 31.6286 17.3015 31.4226C17.3015 31.2119 17.2482 31.026 17.1417 30.8651C17.0352 30.7017 16.8907 30.5739 16.7085 30.4815C16.5262 30.3868 16.3166 30.3395 16.0799 30.3395C15.8455 30.3395 15.636 30.3868 15.4513 30.4815C15.2667 30.5739 15.1211 30.7017 15.0146 30.8651C14.9104 31.026 14.8583 31.2119 14.8583 31.4226C14.8583 31.6286 14.9092 31.8108 15.011 31.9695C15.1128 32.1257 15.256 32.2488 15.4407 32.3388C15.6254 32.4264 15.8384 32.4702 16.0799 32.4702ZM16.0799 29.2209C16.2835 29.2209 16.4646 29.1795 16.6232 29.0966C16.7818 29.0137 16.9061 28.8989 16.9961 28.7521C17.0861 28.6054 17.131 28.4361 17.131 28.2443C17.131 28.0549 17.0861 27.8892 16.9961 27.7472C16.9061 27.6027 16.783 27.4903 16.6268 27.4098C16.4705 27.3269 16.2882 27.2855 16.0799 27.2855C15.8739 27.2855 15.6916 27.3269 15.533 27.4098C15.3744 27.4903 15.2501 27.6027 15.1602 27.7472C15.0726 27.8892 15.0288 28.0549 15.0288 28.2443C15.0288 28.4361 15.0737 28.6054 15.1637 28.7521C15.2537 28.8989 15.378 29.0137 15.5366 29.0966C15.6952 29.1795 15.8763 29.2209 16.0799 29.2209ZM19.9924 35.5455V28.0455H21.4838V28.9616H21.5513C21.6176 28.8149 21.7135 28.6657 21.839 28.5142C21.9668 28.3603 22.1325 28.2325 22.3361 28.1307C22.5421 28.0265 22.7978 27.9744 23.1032 27.9744C23.5009 27.9744 23.8678 28.0786 24.204 28.2869C24.5402 28.4929 24.8089 28.8042 25.0101 29.2209C25.2114 29.6352 25.312 30.1548 25.312 30.7798C25.312 31.3883 25.2137 31.902 25.0172 32.321C24.8231 32.7377 24.5579 33.0537 24.2218 33.2692C23.888 33.4822 23.5139 33.5888 23.0996 33.5888C22.806 33.5888 22.5563 33.5402 22.3503 33.4432C22.1467 33.3461 21.9798 33.2242 21.8496 33.0774C21.7194 32.9283 21.62 32.7779 21.5513 32.6264H21.5051V35.5455H19.9924ZM21.4732 30.7727C21.4732 31.0971 21.5182 31.38 21.6081 31.6214C21.6981 31.8629 21.8283 32.0511 21.9988 32.1861C22.1692 32.3187 22.3764 32.3849 22.6202 32.3849C22.8664 32.3849 23.0748 32.3175 23.2452 32.1825C23.4157 32.0452 23.5447 31.8558 23.6323 31.6143C23.7222 31.3705 23.7672 31.09 23.7672 30.7727C23.7672 30.4579 23.7234 30.1809 23.6358 29.9418C23.5482 29.7027 23.4192 29.5156 23.2488 29.3807C23.0783 29.2457 22.8688 29.1783 22.6202 29.1783C22.374 29.1783 22.1657 29.2434 21.9952 29.3736C21.8271 29.5038 21.6981 29.6884 21.6081 29.9276C21.5182 30.1667 21.4732 30.4484 21.4732 30.7727ZM27.3894 28.0455L28.3908 29.9524L29.4171 28.0455H30.9689L29.3887 30.7727L31.0115 33.5H29.4668L28.3908 31.6143L27.3326 33.5H25.7701L27.3894 30.7727L25.8269 28.0455H27.3894Z" fill="white"/>
<line x1="39" y1="4.5" x2="46" y2="4.5" stroke="#F07D03"/>
<line x1="39" y1="51.5" x2="46" y2="51.5" stroke="#F07D03"/>
</svg>
