<svg width="588" height="373" viewBox="0 0 588 373" fill="none" xmlns="http://www.w3.org/2000/svg">
<path d="M3.90625 63.4062V73.9531C3.90625 74.9948 4.55729 75.5156 5.85938 75.5156C7.16146 75.5156 7.8125 74.9948 7.8125 73.9531V72.7812H9.76562V73.9531C9.76562 76.0365 8.46354 77.0781 5.85938 77.0781C3.25521 77.0781 1.95312 76.0365 1.95312 73.9531V63.4062C1.95312 62.9792 1.69271 62.5573 1.17188 62.1406V61.4531C1.17188 60.6719 1.66667 60.2812 2.65625 60.2812H4.29688V61.8438H2.96875V61.9375C3.59375 62.3542 3.90625 62.8438 3.90625 63.4062ZM14.2969 63.4062C14.2969 62.9792 14.0365 62.5573 13.5156 62.1406V61.4531C13.5156 60.6719 14.0104 60.2812 15 60.2812H16.6406V61.8438H15.3125V61.9375C15.9375 62.3542 16.25 62.8438 16.25 63.4062V68.0938C16.25 70.6979 14.8438 72 12.0312 72C9.21875 72 7.8125 70.6979 7.8125 68.0938V63.4062C7.8125 62.9792 7.55208 62.5573 7.03125 62.1406V61.4531C7.03125 60.6719 7.52604 60.2812 8.51562 60.2812H10.1562V61.8438H8.82812V61.9375C9.45312 62.3542 9.76562 62.8438 9.76562 63.4062V68.0938C9.76562 69.6562 10.5208 70.4375 12.0312 70.4375C13.5417 70.4375 14.2969 69.6562 14.2969 68.0938V63.4062ZM27.0312 64.5C26.9062 64.5 26.8229 64.5286 26.7812 64.5859C26.7396 64.638 26.7188 64.6979 26.7188 64.7656C26.7188 64.8333 26.737 64.888 26.7734 64.9297C26.8151 64.987 26.901 65.0156 27.0312 65.0156V64.5ZM20.1562 63.4062C20.1562 62.9896 20.026 62.5729 19.7656 62.1562V61.8438C19.7656 60.8021 20.3906 60.2812 21.6406 60.2812H28.5938V61.8438H22.1875C21.875 61.8438 21.7188 61.8958 21.7188 62C21.9792 62.4167 22.1094 62.8854 22.1094 63.4062V69.6094L24.375 67.6875L26.6406 69.6094V66.1172C26.224 66.1016 25.901 65.9427 25.6719 65.6406C25.4844 65.4115 25.3906 65.1224 25.3906 64.7734C25.3906 64.4245 25.5026 64.1094 25.7266 63.8281C25.9505 63.5469 26.3854 63.4062 27.0312 63.4062C27.625 63.4062 28.0339 63.5469 28.2578 63.8281C28.4818 64.1094 28.5938 64.4245 28.5938 64.7734V72H26.9062L24.375 69.8281L21.8438 72H20.1562V63.4062ZM28.5938 60.2812H30.4688C33.125 60.2812 34.4531 61.3229 34.4531 63.4062V72H32.5V63.4062C32.5 62.3646 31.8229 61.8438 30.4688 61.8438H28.5938V60.2812ZM46.7969 66.8984V68.875C46.7969 70.9583 45.9635 72 44.2969 72C43.0625 72 42.1875 71.6745 41.6719 71.0234C41.1562 70.3724 40.7031 70.0469 40.3125 70.0469V72H38.3594V67.3125H40.3125V68.4844C41.1719 68.4844 41.8854 68.8099 42.4531 69.4609C43.026 70.112 43.5286 70.4375 43.9609 70.4375C44.5495 70.4375 44.8438 69.9167 44.8438 68.875V68.0391C40.5208 67.1016 38.3594 65.5573 38.3594 63.4062C38.3594 61.3229 39.7656 60.2812 42.5781 60.2812C45.3906 60.2812 46.7969 61.3229 46.7969 63.4062C46.7969 64.8594 45.9688 65.5859 44.3125 65.5859C43.8594 65.5859 43.4896 65.4792 43.2031 65.2656V63.6797C43.8385 63.8672 44.2448 63.9609 44.4219 63.9609C44.7031 63.9609 44.8438 63.776 44.8438 63.4062C44.8438 62.3646 44.0885 61.8438 42.5781 61.8438C41.0677 61.8438 40.3125 62.3646 40.3125 63.4062C40.3125 64.7448 42.474 65.9089 46.7969 66.8984ZM57.1875 63.4062C57.1875 62.9792 56.9271 62.5573 56.4062 62.1406V61.4531C56.4062 60.6719 56.901 60.2812 57.8906 60.2812H59.5312V61.8438H58.2031V61.9375C58.8281 62.3542 59.1406 62.8438 59.1406 63.4062V68.0938C59.1406 70.6979 57.7344 72 54.9219 72C52.1094 72 50.7031 70.6979 50.7031 68.0938V63.4062C50.7031 62.9792 50.4427 62.5573 49.9219 62.1406V61.4531C49.9219 60.6719 50.4167 60.2812 51.4062 60.2812H53.0469V61.8438H51.7188V61.9375C52.3438 62.3542 52.6562 62.8438 52.6562 63.4062V68.0938C52.6562 69.6562 53.4115 70.4375 54.9219 70.4375C56.4323 70.4375 57.1875 69.6562 57.1875 68.0938V63.4062ZM70.3125 67.2031C70.3125 67.0521 70.2604 66.9766 70.1562 66.9766C70.0521 66.9766 70 67.0547 70 67.2109C70 67.4089 70.1042 67.5182 70.3125 67.5391V67.2031ZM70.3906 68.5391V68.875C70.3906 70.9583 69.349 72 67.2656 72C65.1823 72 64.1406 70.9583 64.1406 68.875V67.3125H66.0938V68.875C66.0938 69.9167 66.4844 70.4375 67.2656 70.4375C68.0469 70.4375 68.4375 69.9167 68.4375 68.875V68.2266C64.8438 66.9297 63.0469 65.3229 63.0469 63.4062C63.0469 61.3229 64.4531 60.2812 67.2656 60.2812C70.0781 60.2812 71.4844 61.3229 71.4844 63.4062C71.4844 64.8594 70.6562 65.5859 69 65.5859C68.5469 65.5859 68.1771 65.4792 67.8906 65.2656V63.6016C68.526 63.7891 68.9323 63.8828 69.1094 63.8828C69.3906 63.8828 69.5312 63.724 69.5312 63.4062C69.5312 62.3646 68.776 61.8438 67.2656 61.8438C65.7552 61.8438 65 62.3646 65 63.4062C65 65.0521 66.1458 66.1536 68.4375 66.7109C68.4375 66.2786 68.9062 66.0625 69.8438 66.0625C70.9375 66.0625 71.4844 66.388 71.4844 67.0391C71.4844 67.6276 71.3776 68.0182 71.1641 68.2109C70.9557 68.4036 70.6979 68.513 70.3906 68.5391Z" fill="#344054"/>
<path d="M553.703 66.2734C553.703 67.2734 553.594 68.1406 553.375 68.875C553.161 69.6094 552.867 70.2161 552.492 70.6953C552.122 71.1745 551.682 71.5312 551.172 71.7656C550.661 72 550.115 72.1172 549.531 72.1172C548.948 72.1172 548.404 72 547.898 71.7656C547.393 71.5312 546.953 71.1745 546.578 70.6953C546.208 70.2161 545.917 69.6094 545.703 68.875C545.49 68.1406 545.383 67.2734 545.383 66.2734C545.383 65.2682 545.49 64.3984 545.703 63.6641C545.917 62.9297 546.208 62.3203 546.578 61.8359C546.953 61.3516 547.393 60.9922 547.898 60.7578C548.404 60.5234 548.948 60.4062 549.531 60.4062C550.115 60.4062 550.661 60.5234 551.172 60.7578C551.682 60.9922 552.122 61.3516 552.492 61.8359C552.867 62.3203 553.161 62.9297 553.375 63.6641C553.594 64.3984 553.703 65.2682 553.703 66.2734ZM552.227 66.2734C552.227 65.3984 552.151 64.6641 552 64.0703C551.854 63.4766 551.656 62.9974 551.406 62.6328C551.161 62.2682 550.875 62.0078 550.547 61.8516C550.224 61.6953 549.885 61.6172 549.531 61.6172C549.182 61.6172 548.844 61.6953 548.516 61.8516C548.193 62.0078 547.909 62.2682 547.664 62.6328C547.419 62.9974 547.221 63.4766 547.07 64.0703C546.924 64.6641 546.852 65.3984 546.852 66.2734C546.852 67.1484 546.924 67.8828 547.07 68.4766C547.221 69.0651 547.419 69.5417 547.664 69.9062C547.909 70.2656 548.193 70.526 548.516 70.6875C548.844 70.8438 549.182 70.9219 549.531 70.9219C549.885 70.9219 550.224 70.8438 550.547 70.6875C550.875 70.526 551.161 70.2656 551.406 69.9062C551.656 69.5417 551.854 69.0651 552 68.4766C552.151 67.8828 552.227 67.1484 552.227 66.2734ZM555.477 72.1719C555.404 72.3542 555.292 72.4896 555.141 72.5781C554.995 72.6719 554.846 72.7188 554.695 72.7188H554.094L558.898 60.7422C558.971 60.5703 559.07 60.4401 559.195 60.3516C559.326 60.263 559.479 60.2188 559.656 60.2188H560.25L555.477 72.1719ZM564.961 60.4062C565.445 60.4062 565.898 60.4792 566.32 60.625C566.742 60.7708 567.107 60.9818 567.414 61.2578C567.721 61.5286 567.961 61.862 568.133 62.2578C568.31 62.6536 568.398 63.1016 568.398 63.6016C568.398 64.0286 568.333 64.4245 568.203 64.7891C568.078 65.1484 567.906 65.4948 567.688 65.8281C567.469 66.1615 567.216 66.4844 566.93 66.7969C566.648 67.1094 566.346 67.4271 566.023 67.75L563.008 70.8438C563.221 70.7812 563.438 70.7344 563.656 70.7031C563.875 70.6667 564.086 70.6484 564.289 70.6484H568.125C568.281 70.6484 568.404 70.6953 568.492 70.7891C568.586 70.8776 568.633 70.9922 568.633 71.1328V72H560.984V71.5156C560.984 71.4115 561.003 71.3073 561.039 71.2031C561.081 71.0938 561.148 70.9948 561.242 70.9062L564.914 67.2188C565.216 66.9062 565.492 66.6094 565.742 66.3281C565.992 66.0417 566.206 65.7552 566.383 65.4688C566.565 65.1771 566.703 64.8828 566.797 64.5859C566.896 64.2891 566.945 63.974 566.945 63.6406C566.945 63.3021 566.891 63.0078 566.781 62.7578C566.677 62.5026 566.531 62.2943 566.344 62.1328C566.156 61.9661 565.938 61.8411 565.688 61.7578C565.438 61.6745 565.169 61.6328 564.883 61.6328C564.591 61.6328 564.323 61.6771 564.078 61.7656C563.833 61.849 563.615 61.9661 563.422 62.1172C563.234 62.2682 563.076 62.4479 562.945 62.6562C562.815 62.8646 562.724 63.0938 562.672 63.3438C562.63 63.5 562.565 63.612 562.477 63.6797C562.393 63.7474 562.281 63.7812 562.141 63.7812C562.115 63.7812 562.086 63.7812 562.055 63.7812C562.029 63.776 561.997 63.7708 561.961 63.7656L561.219 63.6406C561.292 63.1198 561.435 62.6589 561.648 62.2578C561.862 61.8516 562.133 61.513 562.461 61.2422C562.789 60.9661 563.164 60.7578 563.586 60.6172C564.013 60.4766 564.471 60.4062 564.961 60.4062ZM578.234 66.2734C578.234 67.2734 578.125 68.1406 577.906 68.875C577.693 69.6094 577.398 70.2161 577.023 70.6953C576.654 71.1745 576.214 71.5312 575.703 71.7656C575.193 72 574.646 72.1172 574.062 72.1172C573.479 72.1172 572.935 72 572.43 71.7656C571.924 71.5312 571.484 71.1745 571.109 70.6953C570.74 70.2161 570.448 69.6094 570.234 68.875C570.021 68.1406 569.914 67.2734 569.914 66.2734C569.914 65.2682 570.021 64.3984 570.234 63.6641C570.448 62.9297 570.74 62.3203 571.109 61.8359C571.484 61.3516 571.924 60.9922 572.43 60.7578C572.935 60.5234 573.479 60.4062 574.062 60.4062C574.646 60.4062 575.193 60.5234 575.703 60.7578C576.214 60.9922 576.654 61.3516 577.023 61.8359C577.398 62.3203 577.693 62.9297 577.906 63.6641C578.125 64.3984 578.234 65.2682 578.234 66.2734ZM576.758 66.2734C576.758 65.3984 576.682 64.6641 576.531 64.0703C576.385 63.4766 576.188 62.9974 575.938 62.6328C575.693 62.2682 575.406 62.0078 575.078 61.8516C574.755 61.6953 574.417 61.6172 574.062 61.6172C573.714 61.6172 573.375 61.6953 573.047 61.8516C572.724 62.0078 572.44 62.2682 572.195 62.6328C571.951 62.9974 571.753 63.4766 571.602 64.0703C571.456 64.6641 571.383 65.3984 571.383 66.2734C571.383 67.1484 571.456 67.8828 571.602 68.4766C571.753 69.0651 571.951 69.5417 572.195 69.9062C572.44 70.2656 572.724 70.526 573.047 70.6875C573.375 70.8438 573.714 70.9219 574.062 70.9219C574.417 70.9219 574.755 70.8438 575.078 70.6875C575.406 70.526 575.693 70.2656 575.938 69.9062C576.188 69.5417 576.385 69.0651 576.531 68.4766C576.682 67.8828 576.758 67.1484 576.758 66.2734ZM587.516 66.2734C587.516 67.2734 587.406 68.1406 587.188 68.875C586.974 69.6094 586.68 70.2161 586.305 70.6953C585.935 71.1745 585.495 71.5312 584.984 71.7656C584.474 72 583.927 72.1172 583.344 72.1172C582.76 72.1172 582.216 72 581.711 71.7656C581.206 71.5312 580.766 71.1745 580.391 70.6953C580.021 70.2161 579.729 69.6094 579.516 68.875C579.302 68.1406 579.195 67.2734 579.195 66.2734C579.195 65.2682 579.302 64.3984 579.516 63.6641C579.729 62.9297 580.021 62.3203 580.391 61.8359C580.766 61.3516 581.206 60.9922 581.711 60.7578C582.216 60.5234 582.76 60.4062 583.344 60.4062C583.927 60.4062 584.474 60.5234 584.984 60.7578C585.495 60.9922 585.935 61.3516 586.305 61.8359C586.68 62.3203 586.974 62.9297 587.188 63.6641C587.406 64.3984 587.516 65.2682 587.516 66.2734ZM586.039 66.2734C586.039 65.3984 585.964 64.6641 585.812 64.0703C585.667 63.4766 585.469 62.9974 585.219 62.6328C584.974 62.2682 584.688 62.0078 584.359 61.8516C584.036 61.6953 583.698 61.6172 583.344 61.6172C582.995 61.6172 582.656 61.6953 582.328 61.8516C582.005 62.0078 581.721 62.2682 581.477 62.6328C581.232 62.9974 581.034 63.4766 580.883 64.0703C580.737 64.6641 580.664 65.3984 580.664 66.2734C580.664 67.1484 580.737 67.8828 580.883 68.4766C581.034 69.0651 581.232 69.5417 581.477 69.9062C581.721 70.2656 582.005 70.526 582.328 70.6875C582.656 70.8438 582.995 70.9219 583.344 70.9219C583.698 70.9219 584.036 70.8438 584.359 70.6875C584.688 70.526 584.974 70.2656 585.219 69.9062C585.469 69.5417 585.667 69.0651 585.812 68.4766C585.964 67.8828 586.039 67.1484 586.039 66.2734Z" fill="#344054"/>
<rect x="0.5" y="83.5" width="587" height="289" rx="7.5" fill="white"/>
<path d="M19.125 113.656V114.828C19.2344 114.828 19.3255 114.799 19.3984 114.742C19.4766 114.68 19.5156 114.513 19.5156 114.242C19.5156 113.971 19.4766 113.807 19.3984 113.75C19.3255 113.688 19.2344 113.656 19.125 113.656ZM31.2344 107.406V112.094C31.2344 114.698 30.0625 116 27.7188 116C25.1927 116 23.9297 114.698 23.9297 112.094V110.531C23.9297 108.708 23.1562 107.797 21.6094 107.797C20.0573 107.797 19.2812 108.708 19.2812 110.531V112.562C19.401 112.51 19.5391 112.484 19.6953 112.484C19.8516 112.484 20.0156 112.625 20.1875 112.906C20.3646 113.182 20.4531 113.628 20.4531 114.242C20.4531 114.857 20.3385 115.305 20.1094 115.586C19.8854 115.862 19.5833 116 19.2031 116C18.8229 116 18.5208 115.859 18.2969 115.578C18.1198 115.365 18.0104 115.049 17.9688 114.633H17.9531V110.531C17.9531 108.906 18.4271 107.789 19.375 107.18C19.1406 106.789 18.7969 106.474 18.3438 106.234V105.453C18.3438 104.672 18.7344 104.281 19.5156 104.281H23.8125V105.453H20.0625C19.8021 105.453 19.6719 105.583 19.6719 105.844C20.0781 106.062 20.3984 106.349 20.6328 106.703C20.9349 106.651 21.2604 106.625 21.6094 106.625C24.0417 106.625 25.2578 107.927 25.2578 110.531V112.094C25.2578 113.917 26.0781 114.828 27.7188 114.828C29.1771 114.828 29.9062 113.917 29.9062 112.094V107.406C29.9062 107.042 29.6458 106.651 29.125 106.234V105.453C29.125 104.672 29.5156 104.281 30.2969 104.281H31.625V105.453H30.6875C30.4271 105.453 30.2969 105.583 30.2969 105.844C30.9219 106.26 31.2344 106.781 31.2344 107.406ZM28.8906 119.125C28.8906 119.646 29.0599 119.906 29.3984 119.906C29.737 119.906 29.9062 119.646 29.9062 119.125V116.781H31.2344V119.125C31.2344 120.427 30.6224 121.078 29.3984 121.078C28.1745 121.078 27.5625 120.427 27.5625 119.125V116.781H28.8906V119.125ZM36.4688 110.531V112.094C36.4688 113.917 37.3281 114.828 39.0469 114.828C40.7656 114.828 41.625 113.917 41.625 112.094V110.531H36.4688ZM36.4688 109.359H41.625V107.406C41.625 107.042 41.3646 106.651 40.8438 106.234V105.453C40.8438 104.672 41.2344 104.281 42.0156 104.281H43.3438V105.453H42.4062C42.1458 105.453 42.0156 105.583 42.0156 105.844C42.6406 106.26 42.9531 106.781 42.9531 107.406V112.094C42.9531 114.698 41.651 116 39.0469 116C36.4427 116 35.1406 114.698 35.1406 112.094V107.406C35.1406 107.042 34.8802 106.651 34.3594 106.234V105.453C34.3594 104.672 34.75 104.281 35.5312 104.281H36.8594V105.453H35.9219C35.6615 105.453 35.5312 105.583 35.5312 105.844C36.1562 106.26 36.4688 106.781 36.4688 107.406V109.359ZM48.0312 113.656V114.828C48.1406 114.828 48.2318 114.799 48.3047 114.742C48.3828 114.68 48.4219 114.513 48.4219 114.242C48.4219 113.971 48.3828 113.807 48.3047 113.75C48.2318 113.688 48.1406 113.656 48.0312 113.656ZM60.1406 107.406V112.094C60.1406 114.698 58.9688 116 56.625 116C54.099 116 52.8359 114.698 52.8359 112.094V110.531C52.8359 108.708 52.0625 107.797 50.5156 107.797C48.9635 107.797 48.1875 108.708 48.1875 110.531V112.562C48.3073 112.51 48.4453 112.484 48.6016 112.484C48.7578 112.484 48.9219 112.625 49.0938 112.906C49.2708 113.182 49.3594 113.628 49.3594 114.242C49.3594 114.857 49.2448 115.305 49.0156 115.586C48.7917 115.862 48.4896 116 48.1094 116C47.7292 116 47.4271 115.859 47.2031 115.578C47.026 115.365 46.9167 115.049 46.875 114.633H46.8594V110.531C46.8594 108.906 47.3333 107.789 48.2812 107.18C48.0469 106.789 47.7031 106.474 47.25 106.234V105.453C47.25 104.672 47.6406 104.281 48.4219 104.281H52.7188V105.453H48.9688C48.7083 105.453 48.5781 105.583 48.5781 105.844C48.9844 106.062 49.3047 106.349 49.5391 106.703C49.8411 106.651 50.1667 106.625 50.5156 106.625C52.9479 106.625 54.1641 107.927 54.1641 110.531V112.094C54.1641 113.917 54.9844 114.828 56.625 114.828C58.0833 114.828 58.8125 113.917 58.8125 112.094V107.406C58.8125 107.042 58.5521 106.651 58.0312 106.234V105.453C58.0312 104.672 58.4219 104.281 59.2031 104.281H60.5312V105.453H59.5938C59.3333 105.453 59.2031 105.583 59.2031 105.844C59.8281 106.26 60.1406 106.781 60.1406 107.406ZM64.0469 114.828V113.656H63.8516C63.7943 113.656 63.7474 113.682 63.7109 113.734C63.6745 113.781 63.6562 113.951 63.6562 114.242C63.6562 114.534 63.6745 114.706 63.7109 114.758C63.7474 114.805 63.7943 114.828 63.8516 114.828H64.0469ZM65.375 107.406V114.242C65.375 114.909 65.2865 115.37 65.1094 115.625C64.9375 115.875 64.6094 116 64.125 116C63.6406 116 63.3099 115.875 63.1328 115.625C62.9609 115.37 62.875 114.909 62.875 114.242C62.875 113.576 62.9609 113.117 63.1328 112.867C63.3099 112.612 63.5495 112.484 63.8516 112.484C63.9193 112.484 63.9844 112.49 64.0469 112.5V107.406C63.9427 107.042 63.6823 106.651 63.2656 106.234V105.453C63.2656 104.672 63.6562 104.281 64.4375 104.281H65.7656V105.453H64.8281C64.5677 105.453 64.4375 105.583 64.4375 105.844C65.0625 106.26 65.375 106.781 65.375 107.406ZM70.8047 114.828C70.862 114.828 70.9089 114.805 70.9453 114.758C70.9818 114.706 71 114.534 71 114.242C71 113.951 70.9818 113.781 70.9453 113.734C70.9089 113.682 70.862 113.656 70.8047 113.656H70.6094V114.828H70.8047ZM70.6094 112.5C70.6719 112.49 70.737 112.484 70.8047 112.484C71.1068 112.484 71.3438 112.612 71.5156 112.867C71.6927 113.117 71.7812 113.576 71.7812 114.242C71.7812 114.909 71.6927 115.37 71.5156 115.625C71.3438 115.875 71.0156 116 70.5312 116C70.0469 116 69.7161 115.875 69.5391 115.625C69.3672 115.37 69.2812 114.909 69.2812 114.242V107.406C69.1771 107.042 68.9167 106.651 68.5 106.234V105.453C68.5 104.672 68.8906 104.281 69.6719 104.281H71V105.453H70.0625C69.8021 105.453 69.6719 105.583 69.6719 105.844C70.2969 106.26 70.6094 106.781 70.6094 107.406V112.5ZM75.6875 113.656V114.828C75.7969 114.828 75.888 114.799 75.9609 114.742C76.0391 114.68 76.0781 114.513 76.0781 114.242C76.0781 113.971 76.0391 113.807 75.9609 113.75C75.888 113.688 75.7969 113.656 75.6875 113.656ZM87.7969 107.406V112.094C87.7969 114.698 86.625 116 84.2812 116C81.7552 116 80.4922 114.698 80.4922 112.094V110.531C80.4922 108.708 79.7188 107.797 78.1719 107.797C76.6198 107.797 75.8438 108.708 75.8438 110.531V112.562C75.9635 112.51 76.1016 112.484 76.2578 112.484C76.4141 112.484 76.5781 112.625 76.75 112.906C76.9271 113.182 77.0156 113.628 77.0156 114.242C77.0156 114.857 76.901 115.305 76.6719 115.586C76.4479 115.862 76.1458 116 75.7656 116C75.3854 116 75.0833 115.859 74.8594 115.578C74.6823 115.365 74.5729 115.049 74.5312 114.633H74.5156V110.531C74.5156 108.906 74.9896 107.789 75.9375 107.18C75.7031 106.789 75.3594 106.474 74.9062 106.234V105.453C74.9062 104.672 75.2969 104.281 76.0781 104.281H80.375V105.453H76.625C76.3646 105.453 76.2344 105.583 76.2344 105.844C76.6406 106.062 76.9609 106.349 77.1953 106.703C77.4974 106.651 77.8229 106.625 78.1719 106.625C80.6042 106.625 81.8203 107.927 81.8203 110.531V112.094C81.8203 113.917 82.6406 114.828 84.2812 114.828C85.7396 114.828 86.4688 113.917 86.4688 112.094V107.406C86.4688 107.042 86.2083 106.651 85.6875 106.234V105.453C85.6875 104.672 86.0781 104.281 86.8594 104.281H88.1875V105.453H87.25C86.9896 105.453 86.8594 105.583 86.8594 105.844C87.4844 106.26 87.7969 106.781 87.7969 107.406ZM91.7031 114.828V113.656H91.5078C91.4505 113.656 91.4036 113.682 91.3672 113.734C91.3307 113.781 91.3125 113.951 91.3125 114.242C91.3125 114.534 91.3307 114.706 91.3672 114.758C91.4036 114.805 91.4505 114.828 91.5078 114.828H91.7031ZM93.0312 107.406V114.242C93.0312 114.909 92.9427 115.37 92.7656 115.625C92.5938 115.875 92.2656 116 91.7812 116C91.2969 116 90.9661 115.875 90.7891 115.625C90.6172 115.37 90.5312 114.909 90.5312 114.242C90.5312 113.576 90.6172 113.117 90.7891 112.867C90.9661 112.612 91.2057 112.484 91.5078 112.484C91.5755 112.484 91.6406 112.49 91.7031 112.5V107.406C91.599 107.042 91.3385 106.651 90.9219 106.234V105.453C90.9219 104.672 91.3125 104.281 92.0938 104.281H93.4219V105.453H92.4844C92.224 105.453 92.0938 105.583 92.0938 105.844C92.7188 106.26 93.0312 106.781 93.0312 107.406ZM98.4609 114.828C98.5182 114.828 98.5651 114.805 98.6016 114.758C98.638 114.706 98.6562 114.534 98.6562 114.242C98.6562 113.951 98.638 113.781 98.6016 113.734C98.5651 113.682 98.5182 113.656 98.4609 113.656H98.2656V114.828H98.4609ZM98.2656 112.5C98.3281 112.49 98.3932 112.484 98.4609 112.484C98.763 112.484 99 112.612 99.1719 112.867C99.349 113.117 99.4375 113.576 99.4375 114.242C99.4375 114.909 99.349 115.37 99.1719 115.625C99 115.875 98.6719 116 98.1875 116C97.7031 116 97.3724 115.875 97.1953 115.625C97.0234 115.37 96.9375 114.909 96.9375 114.242V107.406C96.8333 107.042 96.5729 106.651 96.1562 106.234V105.453C96.1562 104.672 96.5469 104.281 97.3281 104.281H98.6562V105.453H97.7188C97.4583 105.453 97.3281 105.583 97.3281 105.844C97.9531 106.26 98.2656 106.781 98.2656 107.406V112.5ZM109.984 111.234V112.875C109.984 114.958 109.255 116 107.797 116C106.724 116 105.93 115.674 105.414 115.023C104.898 114.372 104.26 114.047 103.5 114.047V116H102.172V111.312H103.5V112.875C104.411 112.875 105.151 113.201 105.719 113.852C106.292 114.503 106.872 114.828 107.461 114.828C108.258 114.828 108.656 114.177 108.656 112.875V112.094C104.333 111.156 102.172 109.594 102.172 107.406C102.172 105.323 103.474 104.281 106.078 104.281C108.682 104.281 109.984 105.323 109.984 107.406C109.984 108.859 109.26 109.586 107.812 109.586C107.484 109.586 107.219 109.51 107.016 109.359V108.188C107.385 108.297 107.688 108.352 107.922 108.352C108.411 108.352 108.656 108.036 108.656 107.406C108.656 106.104 107.797 105.453 106.078 105.453C104.359 105.453 103.5 106.104 103.5 107.406C103.5 108.969 105.661 110.245 109.984 111.234ZM113.344 104.656V103.031C113.344 102.562 113.135 102.328 112.719 102.328H112.328V101.156H113.109C114.151 101.156 114.672 101.677 114.672 102.719V116H113.344V107.398C113.339 106.102 112.74 105.453 111.547 105.453H109.984V104.281H111.547C112.271 104.281 112.87 104.406 113.344 104.656ZM119.906 107.406V117.953C119.906 119.255 120.466 119.906 121.586 119.906C122.706 119.906 123.266 119.255 123.266 117.953V116.781H124.594V117.953C124.594 120.036 123.591 121.078 121.586 121.078C119.581 121.078 118.578 120.036 118.578 117.953V107.406C118.578 107.042 118.318 106.651 117.797 106.234V105.453C117.797 104.672 118.188 104.281 118.969 104.281H120.297V105.453H119.359C119.099 105.453 118.969 105.583 118.969 105.844C119.594 106.26 119.906 106.781 119.906 107.406ZM124.438 113.656V114.828C124.547 114.828 124.638 114.799 124.711 114.742C124.789 114.68 124.828 114.513 124.828 114.242C124.828 113.971 124.789 113.807 124.711 113.75C124.638 113.688 124.547 113.656 124.438 113.656ZM131.078 104.281V105.453H123.266V104.281H131.078ZM123.266 110.531C123.266 107.927 124.568 106.625 127.172 106.625C129.776 106.625 131.078 107.927 131.078 110.531V116H129.75V110.531C129.75 108.708 128.891 107.797 127.172 107.797C125.453 107.797 124.594 108.708 124.594 110.531V112.562C124.714 112.51 124.852 112.484 125.008 112.484C125.164 112.484 125.328 112.625 125.5 112.906C125.677 113.182 125.766 113.628 125.766 114.242C125.766 114.857 125.651 115.305 125.422 115.586C125.198 115.862 124.896 116 124.516 116C124.135 116 123.833 115.859 123.609 115.578C123.432 115.365 123.323 115.049 123.281 114.633H123.266V110.531ZM140.844 105.469C140.844 105.312 140.74 105.234 140.531 105.234C140.323 105.234 140.219 105.312 140.219 105.469C140.219 105.609 140.323 105.75 140.531 105.891C140.74 105.781 140.844 105.641 140.844 105.469ZM134.789 109.359C134.732 109.359 134.685 109.385 134.648 109.438C134.612 109.484 134.594 109.654 134.594 109.945C134.594 110.237 134.612 110.409 134.648 110.461C134.685 110.508 134.732 110.531 134.789 110.531H134.984V109.359H134.789ZM136.312 114.438L138.891 112.094L141.469 114.438V108.969C141.469 108.406 141.047 107.81 140.203 107.18C139.776 107.591 139.052 107.797 138.031 107.797C136.896 107.797 136.104 107.648 135.656 107.352C135.208 107.055 134.984 106.643 134.984 106.117C134.984 105.596 135.089 105.109 135.297 104.656C135.505 104.198 135.609 103.826 135.609 103.539C135.609 103.253 135.271 103.109 134.594 103.109V101.938C136.052 101.938 136.781 102.432 136.781 103.422C136.781 103.812 136.677 104.25 136.469 104.734C136.26 105.214 136.156 105.555 136.156 105.758C136.156 105.966 136.286 106.164 136.547 106.352C136.807 106.534 137.32 106.625 138.086 106.625C138.747 106.625 139.224 106.539 139.516 106.367C139.255 106.154 139.125 105.823 139.125 105.375C139.125 104.646 139.594 104.281 140.531 104.281C141.521 104.281 142.016 104.724 142.016 105.609C142.016 106.062 141.812 106.448 141.406 106.766C142.333 107.438 142.797 108.172 142.797 108.969V116H141.234L138.891 113.656L136.547 116H134.984V111.688C134.922 111.698 134.857 111.703 134.789 111.703C134.487 111.703 134.247 111.578 134.07 111.328C133.898 111.073 133.812 110.612 133.812 109.945C133.812 109.279 133.898 108.82 134.07 108.57C134.247 108.315 134.578 108.188 135.062 108.188C135.547 108.188 135.875 108.315 136.047 108.57C136.224 108.82 136.312 109.279 136.312 109.945V114.438ZM139.477 98.4219V101.938H138.305V98.4219H139.477ZM148.227 114.828C148.284 114.828 148.331 114.805 148.367 114.758C148.404 114.706 148.422 114.534 148.422 114.242C148.422 113.951 148.404 113.781 148.367 113.734C148.331 113.682 148.284 113.656 148.227 113.656H148.031V114.828H148.227ZM148.031 112.5C148.094 112.49 148.159 112.484 148.227 112.484C148.529 112.484 148.766 112.612 148.938 112.867C149.115 113.117 149.203 113.576 149.203 114.242C149.203 114.909 149.115 115.37 148.938 115.625C148.766 115.875 148.438 116 147.953 116C147.469 116 147.138 115.875 146.961 115.625C146.789 115.37 146.703 114.909 146.703 114.242V107.406C146.599 107.042 146.339 106.651 145.922 106.234V105.453C145.922 104.672 146.312 104.281 147.094 104.281H148.422V105.453H147.484C147.224 105.453 147.094 105.583 147.094 105.844C147.719 106.26 148.031 106.781 148.031 107.406V112.5ZM159.75 111.234V112.875C159.75 114.958 159.021 116 157.562 116C156.49 116 155.695 115.674 155.18 115.023C154.664 114.372 154.026 114.047 153.266 114.047V116H151.938V111.312H153.266V112.875C154.177 112.875 154.917 113.201 155.484 113.852C156.057 114.503 156.638 114.828 157.227 114.828C158.023 114.828 158.422 114.177 158.422 112.875V112.094C154.099 111.156 151.938 109.594 151.938 107.406C151.938 105.323 153.24 104.281 155.844 104.281C158.448 104.281 159.75 105.323 159.75 107.406C159.75 108.859 159.026 109.586 157.578 109.586C157.25 109.586 156.984 109.51 156.781 109.359V108.188C157.151 108.297 157.453 108.352 157.688 108.352C158.177 108.352 158.422 108.036 158.422 107.406C158.422 106.104 157.562 105.453 155.844 105.453C154.125 105.453 153.266 106.104 153.266 107.406C153.266 108.969 155.427 110.245 159.75 111.234ZM164.828 106.43C164.828 106.622 164.878 106.768 164.977 106.867C165.076 106.966 165.221 107.016 165.414 107.016C165.612 107.016 165.758 106.966 165.852 106.867C165.951 106.768 166 106.622 166 106.43C166 106.232 165.951 106.086 165.852 105.992C165.758 105.893 165.612 105.844 165.414 105.844C165.221 105.844 165.076 105.893 164.977 105.992C164.878 106.086 164.828 106.232 164.828 106.43ZM167.172 106.43C167.172 107.018 167.026 107.458 166.734 107.75C166.443 108.042 166.003 108.188 165.414 108.188C164.826 108.188 164.385 108.042 164.094 107.75C163.802 107.458 163.656 107.018 163.656 106.43C163.656 105.841 163.802 105.401 164.094 105.109C164.385 104.818 164.826 104.672 165.414 104.672C166.003 104.672 166.443 104.818 166.734 105.109C167.026 105.401 167.172 105.841 167.172 106.43ZM164.828 113.852C164.828 114.044 164.878 114.19 164.977 114.289C165.076 114.388 165.221 114.438 165.414 114.438C165.612 114.438 165.758 114.388 165.852 114.289C165.951 114.19 166 114.044 166 113.852C166 113.654 165.951 113.508 165.852 113.414C165.758 113.315 165.612 113.266 165.414 113.266C165.221 113.266 165.076 113.315 164.977 113.414C164.878 113.508 164.828 113.654 164.828 113.852ZM167.172 113.852C167.172 114.44 167.026 114.88 166.734 115.172C166.443 115.464 166.003 115.609 165.414 115.609C164.826 115.609 164.385 115.464 164.094 115.172C163.802 114.88 163.656 114.44 163.656 113.852C163.656 113.263 163.802 112.823 164.094 112.531C164.385 112.24 164.826 112.094 165.414 112.094C166.003 112.094 166.443 112.24 166.734 112.531C167.026 112.823 167.172 113.263 167.172 113.852Z" fill="#344054"/>
<rect x="0.5" y="83.5" width="587" height="289" rx="7.5" stroke="#98A2B3"/>
<circle cx="66" cy="16" r="12" fill="#344054"/>
<path d="M68.0057 10.3636V22H65.5455V12.6989H65.4773L62.8125 14.3693V12.1875L65.6932 10.3636H68.0057Z" fill="white"/>
<path d="M63 16H19V58" stroke="#344054" stroke-dasharray="2 2"/>
<circle cx="565" cy="28" r="12" fill="#344054"/>
<path d="M560.943 34V32.2273L565.085 28.392C565.438 28.0511 565.733 27.7443 565.972 27.4716C566.214 27.1989 566.398 26.9318 566.523 26.6705C566.648 26.4053 566.71 26.1193 566.71 25.8125C566.71 25.4716 566.633 25.178 566.477 24.9318C566.322 24.6818 566.11 24.4905 565.841 24.358C565.572 24.2216 565.267 24.1534 564.926 24.1534C564.57 24.1534 564.259 24.2254 563.994 24.3693C563.729 24.5133 563.525 24.7197 563.381 24.9886C563.237 25.2576 563.165 25.5777 563.165 25.9489H560.83C560.83 25.1875 561.002 24.5265 561.347 23.9659C561.691 23.4053 562.174 22.9716 562.795 22.6648C563.417 22.358 564.133 22.2045 564.943 22.2045C565.777 22.2045 566.502 22.3523 567.119 22.6477C567.741 22.9394 568.223 23.3447 568.568 23.8636C568.913 24.3826 569.085 24.9773 569.085 25.6477C569.085 26.0871 568.998 26.5208 568.824 26.9489C568.653 27.3769 568.348 27.8523 567.909 28.375C567.47 28.8939 566.85 29.517 566.051 30.2443L564.352 31.9091V31.9886H569.239V34H560.943Z" fill="white"/>
<path d="M565 58L565 40" stroke="#344054" stroke-dasharray="2 2"/>
</svg>
