<svg width="650" height="361" viewBox="0 0 650 361" fill="none" xmlns="http://www.w3.org/2000/svg">
<path d="M13.9062 12.4062V22.9531C13.9062 23.9948 14.5573 24.5156 15.8594 24.5156C17.1615 24.5156 17.8125 23.9948 17.8125 22.9531V21.7812H19.7656V22.9531C19.7656 25.0365 18.4635 26.0781 15.8594 26.0781C13.2552 26.0781 11.9531 25.0365 11.9531 22.9531V12.4062C11.9531 11.9792 11.6927 11.5573 11.1719 11.1406V10.4531C11.1719 9.67188 11.6667 9.28125 12.6562 9.28125H14.2969V10.8438H12.9688V10.9375C13.5938 11.3542 13.9062 11.8438 13.9062 12.4062ZM24.2969 12.4062C24.2969 11.9792 24.0365 11.5573 23.5156 11.1406V10.4531C23.5156 9.67188 24.0104 9.28125 25 9.28125H26.6406V10.8438H25.3125V10.9375C25.9375 11.3542 26.25 11.8438 26.25 12.4062V17.0938C26.25 19.6979 24.8438 21 22.0312 21C19.2188 21 17.8125 19.6979 17.8125 17.0938V12.4062C17.8125 11.9792 17.5521 11.5573 17.0312 11.1406V10.4531C17.0312 9.67188 17.526 9.28125 18.5156 9.28125H20.1562V10.8438H18.8281V10.9375C19.4531 11.3542 19.7656 11.8438 19.7656 12.4062V17.0938C19.7656 18.6562 20.5208 19.4375 22.0312 19.4375C23.5417 19.4375 24.2969 18.6562 24.2969 17.0938V12.4062ZM37.0312 13.5C36.9062 13.5 36.8229 13.5286 36.7812 13.5859C36.7396 13.638 36.7188 13.6979 36.7188 13.7656C36.7188 13.8333 36.737 13.888 36.7734 13.9297C36.8151 13.987 36.901 14.0156 37.0312 14.0156V13.5ZM30.1562 12.4062C30.1562 11.9896 30.026 11.5729 29.7656 11.1562V10.8438C29.7656 9.80208 30.3906 9.28125 31.6406 9.28125H38.5938V10.8438H32.1875C31.875 10.8438 31.7188 10.8958 31.7188 11C31.9792 11.4167 32.1094 11.8854 32.1094 12.4062V18.6094L34.375 16.6875L36.6406 18.6094V15.1172C36.224 15.1016 35.901 14.9427 35.6719 14.6406C35.4844 14.4115 35.3906 14.1224 35.3906 13.7734C35.3906 13.4245 35.5026 13.1094 35.7266 12.8281C35.9505 12.5469 36.3854 12.4062 37.0312 12.4062C37.625 12.4062 38.0339 12.5469 38.2578 12.8281C38.4818 13.1094 38.5938 13.4245 38.5938 13.7734V21H36.9062L34.375 18.8281L31.8438 21H30.1562V12.4062ZM38.5938 9.28125H40.4688C43.125 9.28125 44.4531 10.3229 44.4531 12.4062V21H42.5V12.4062C42.5 11.3646 41.8229 10.8438 40.4688 10.8438H38.5938V9.28125ZM56.7969 15.8984V17.875C56.7969 19.9583 55.9635 21 54.2969 21C53.0625 21 52.1875 20.6745 51.6719 20.0234C51.1562 19.3724 50.7031 19.0469 50.3125 19.0469V21H48.3594V16.3125H50.3125V17.4844C51.1719 17.4844 51.8854 17.8099 52.4531 18.4609C53.026 19.112 53.5286 19.4375 53.9609 19.4375C54.5495 19.4375 54.8438 18.9167 54.8438 17.875V17.0391C50.5208 16.1016 48.3594 14.5573 48.3594 12.4062C48.3594 10.3229 49.7656 9.28125 52.5781 9.28125C55.3906 9.28125 56.7969 10.3229 56.7969 12.4062C56.7969 13.8594 55.9688 14.5859 54.3125 14.5859C53.8594 14.5859 53.4896 14.4792 53.2031 14.2656V12.6797C53.8385 12.8672 54.2448 12.9609 54.4219 12.9609C54.7031 12.9609 54.8438 12.776 54.8438 12.4062C54.8438 11.3646 54.0885 10.8438 52.5781 10.8438C51.0677 10.8438 50.3125 11.3646 50.3125 12.4062C50.3125 13.7448 52.474 14.9089 56.7969 15.8984ZM67.1875 12.4062C67.1875 11.9792 66.9271 11.5573 66.4062 11.1406V10.4531C66.4062 9.67188 66.901 9.28125 67.8906 9.28125H69.5312V10.8438H68.2031V10.9375C68.8281 11.3542 69.1406 11.8438 69.1406 12.4062V17.0938C69.1406 19.6979 67.7344 21 64.9219 21C62.1094 21 60.7031 19.6979 60.7031 17.0938V12.4062C60.7031 11.9792 60.4427 11.5573 59.9219 11.1406V10.4531C59.9219 9.67188 60.4167 9.28125 61.4062 9.28125H63.0469V10.8438H61.7188V10.9375C62.3438 11.3542 62.6562 11.8438 62.6562 12.4062V17.0938C62.6562 18.6562 63.4115 19.4375 64.9219 19.4375C66.4323 19.4375 67.1875 18.6562 67.1875 17.0938V12.4062ZM80.3125 16.2031C80.3125 16.0521 80.2604 15.9766 80.1562 15.9766C80.0521 15.9766 80 16.0547 80 16.2109C80 16.4089 80.1042 16.5182 80.3125 16.5391V16.2031ZM80.3906 17.5391V17.875C80.3906 19.9583 79.349 21 77.2656 21C75.1823 21 74.1406 19.9583 74.1406 17.875V16.3125H76.0938V17.875C76.0938 18.9167 76.4844 19.4375 77.2656 19.4375C78.0469 19.4375 78.4375 18.9167 78.4375 17.875V17.2266C74.8438 15.9297 73.0469 14.3229 73.0469 12.4062C73.0469 10.3229 74.4531 9.28125 77.2656 9.28125C80.0781 9.28125 81.4844 10.3229 81.4844 12.4062C81.4844 13.8594 80.6562 14.5859 79 14.5859C78.5469 14.5859 78.1771 14.4792 77.8906 14.2656V12.6016C78.526 12.7891 78.9323 12.8828 79.1094 12.8828C79.3906 12.8828 79.5312 12.724 79.5312 12.4062C79.5312 11.3646 78.776 10.8438 77.2656 10.8438C75.7552 10.8438 75 11.3646 75 12.4062C75 14.0521 76.1458 15.1536 78.4375 15.7109C78.4375 15.2786 78.9062 15.0625 79.8438 15.0625C80.9375 15.0625 81.4844 15.388 81.4844 16.0391C81.4844 16.6276 81.3776 17.0182 81.1641 17.2109C80.9557 17.4036 80.6979 17.513 80.3906 17.5391Z" fill="#344054"/>
<path d="M563.703 15.2734C563.703 16.2734 563.594 17.1406 563.375 17.875C563.161 18.6094 562.867 19.2161 562.492 19.6953C562.122 20.1745 561.682 20.5312 561.172 20.7656C560.661 21 560.115 21.1172 559.531 21.1172C558.948 21.1172 558.404 21 557.898 20.7656C557.393 20.5312 556.953 20.1745 556.578 19.6953C556.208 19.2161 555.917 18.6094 555.703 17.875C555.49 17.1406 555.383 16.2734 555.383 15.2734C555.383 14.2682 555.49 13.3984 555.703 12.6641C555.917 11.9297 556.208 11.3203 556.578 10.8359C556.953 10.3516 557.393 9.99219 557.898 9.75781C558.404 9.52344 558.948 9.40625 559.531 9.40625C560.115 9.40625 560.661 9.52344 561.172 9.75781C561.682 9.99219 562.122 10.3516 562.492 10.8359C562.867 11.3203 563.161 11.9297 563.375 12.6641C563.594 13.3984 563.703 14.2682 563.703 15.2734ZM562.227 15.2734C562.227 14.3984 562.151 13.6641 562 13.0703C561.854 12.4766 561.656 11.9974 561.406 11.6328C561.161 11.2682 560.875 11.0078 560.547 10.8516C560.224 10.6953 559.885 10.6172 559.531 10.6172C559.182 10.6172 558.844 10.6953 558.516 10.8516C558.193 11.0078 557.909 11.2682 557.664 11.6328C557.419 11.9974 557.221 12.4766 557.07 13.0703C556.924 13.6641 556.852 14.3984 556.852 15.2734C556.852 16.1484 556.924 16.8828 557.07 17.4766C557.221 18.0651 557.419 18.5417 557.664 18.9062C557.909 19.2656 558.193 19.526 558.516 19.6875C558.844 19.8438 559.182 19.9219 559.531 19.9219C559.885 19.9219 560.224 19.8438 560.547 19.6875C560.875 19.526 561.161 19.2656 561.406 18.9062C561.656 18.5417 561.854 18.0651 562 17.4766C562.151 16.8828 562.227 16.1484 562.227 15.2734ZM565.477 21.1719C565.404 21.3542 565.292 21.4896 565.141 21.5781C564.995 21.6719 564.846 21.7188 564.695 21.7188H564.094L568.898 9.74219C568.971 9.57031 569.07 9.4401 569.195 9.35156C569.326 9.26302 569.479 9.21875 569.656 9.21875H570.25L565.477 21.1719ZM574.961 9.40625C575.445 9.40625 575.898 9.47917 576.32 9.625C576.742 9.77083 577.107 9.98177 577.414 10.2578C577.721 10.5286 577.961 10.862 578.133 11.2578C578.31 11.6536 578.398 12.1016 578.398 12.6016C578.398 13.0286 578.333 13.4245 578.203 13.7891C578.078 14.1484 577.906 14.4948 577.688 14.8281C577.469 15.1615 577.216 15.4844 576.93 15.7969C576.648 16.1094 576.346 16.4271 576.023 16.75L573.008 19.8438C573.221 19.7812 573.438 19.7344 573.656 19.7031C573.875 19.6667 574.086 19.6484 574.289 19.6484H578.125C578.281 19.6484 578.404 19.6953 578.492 19.7891C578.586 19.8776 578.633 19.9922 578.633 20.1328V21H570.984V20.5156C570.984 20.4115 571.003 20.3073 571.039 20.2031C571.081 20.0938 571.148 19.9948 571.242 19.9062L574.914 16.2188C575.216 15.9062 575.492 15.6094 575.742 15.3281C575.992 15.0417 576.206 14.7552 576.383 14.4688C576.565 14.1771 576.703 13.8828 576.797 13.5859C576.896 13.2891 576.945 12.974 576.945 12.6406C576.945 12.3021 576.891 12.0078 576.781 11.7578C576.677 11.5026 576.531 11.2943 576.344 11.1328C576.156 10.9661 575.938 10.8411 575.688 10.7578C575.438 10.6745 575.169 10.6328 574.883 10.6328C574.591 10.6328 574.323 10.6771 574.078 10.7656C573.833 10.849 573.615 10.9661 573.422 11.1172C573.234 11.2682 573.076 11.4479 572.945 11.6562C572.815 11.8646 572.724 12.0938 572.672 12.3438C572.63 12.5 572.565 12.612 572.477 12.6797C572.393 12.7474 572.281 12.7812 572.141 12.7812C572.115 12.7812 572.086 12.7812 572.055 12.7812C572.029 12.776 571.997 12.7708 571.961 12.7656L571.219 12.6406C571.292 12.1198 571.435 11.6589 571.648 11.2578C571.862 10.8516 572.133 10.513 572.461 10.2422C572.789 9.96615 573.164 9.75781 573.586 9.61719C574.013 9.47656 574.471 9.40625 574.961 9.40625ZM588.234 15.2734C588.234 16.2734 588.125 17.1406 587.906 17.875C587.693 18.6094 587.398 19.2161 587.023 19.6953C586.654 20.1745 586.214 20.5312 585.703 20.7656C585.193 21 584.646 21.1172 584.062 21.1172C583.479 21.1172 582.935 21 582.43 20.7656C581.924 20.5312 581.484 20.1745 581.109 19.6953C580.74 19.2161 580.448 18.6094 580.234 17.875C580.021 17.1406 579.914 16.2734 579.914 15.2734C579.914 14.2682 580.021 13.3984 580.234 12.6641C580.448 11.9297 580.74 11.3203 581.109 10.8359C581.484 10.3516 581.924 9.99219 582.43 9.75781C582.935 9.52344 583.479 9.40625 584.062 9.40625C584.646 9.40625 585.193 9.52344 585.703 9.75781C586.214 9.99219 586.654 10.3516 587.023 10.8359C587.398 11.3203 587.693 11.9297 587.906 12.6641C588.125 13.3984 588.234 14.2682 588.234 15.2734ZM586.758 15.2734C586.758 14.3984 586.682 13.6641 586.531 13.0703C586.385 12.4766 586.188 11.9974 585.938 11.6328C585.693 11.2682 585.406 11.0078 585.078 10.8516C584.755 10.6953 584.417 10.6172 584.062 10.6172C583.714 10.6172 583.375 10.6953 583.047 10.8516C582.724 11.0078 582.44 11.2682 582.195 11.6328C581.951 11.9974 581.753 12.4766 581.602 13.0703C581.456 13.6641 581.383 14.3984 581.383 15.2734C581.383 16.1484 581.456 16.8828 581.602 17.4766C581.753 18.0651 581.951 18.5417 582.195 18.9062C582.44 19.2656 582.724 19.526 583.047 19.6875C583.375 19.8438 583.714 19.9219 584.062 19.9219C584.417 19.9219 584.755 19.8438 585.078 19.6875C585.406 19.526 585.693 19.2656 585.938 18.9062C586.188 18.5417 586.385 18.0651 586.531 17.4766C586.682 16.8828 586.758 16.1484 586.758 15.2734ZM597.516 15.2734C597.516 16.2734 597.406 17.1406 597.188 17.875C596.974 18.6094 596.68 19.2161 596.305 19.6953C595.935 20.1745 595.495 20.5312 594.984 20.7656C594.474 21 593.927 21.1172 593.344 21.1172C592.76 21.1172 592.216 21 591.711 20.7656C591.206 20.5312 590.766 20.1745 590.391 19.6953C590.021 19.2161 589.729 18.6094 589.516 17.875C589.302 17.1406 589.195 16.2734 589.195 15.2734C589.195 14.2682 589.302 13.3984 589.516 12.6641C589.729 11.9297 590.021 11.3203 590.391 10.8359C590.766 10.3516 591.206 9.99219 591.711 9.75781C592.216 9.52344 592.76 9.40625 593.344 9.40625C593.927 9.40625 594.474 9.52344 594.984 9.75781C595.495 9.99219 595.935 10.3516 596.305 10.8359C596.68 11.3203 596.974 11.9297 597.188 12.6641C597.406 13.3984 597.516 14.2682 597.516 15.2734ZM596.039 15.2734C596.039 14.3984 595.964 13.6641 595.812 13.0703C595.667 12.4766 595.469 11.9974 595.219 11.6328C594.974 11.2682 594.688 11.0078 594.359 10.8516C594.036 10.6953 593.698 10.6172 593.344 10.6172C592.995 10.6172 592.656 10.6953 592.328 10.8516C592.005 11.0078 591.721 11.2682 591.477 11.6328C591.232 11.9974 591.034 12.4766 590.883 13.0703C590.737 13.6641 590.664 14.3984 590.664 15.2734C590.664 16.1484 590.737 16.8828 590.883 17.4766C591.034 18.0651 591.232 18.5417 591.477 18.9062C591.721 19.2656 592.005 19.526 592.328 19.6875C592.656 19.8438 592.995 19.9219 593.344 19.9219C593.698 19.9219 594.036 19.8438 594.359 19.6875C594.688 19.526 594.974 19.2656 595.219 18.9062C595.469 18.5417 595.667 18.0651 595.812 17.4766C595.964 16.8828 596.039 16.1484 596.039 15.2734Z" fill="#344054"/>
<rect x="10.5" y="32.5" width="587" height="289" rx="7.5" fill="white"/>
<path d="M29.125 62.6562V63.8281C29.2344 63.8281 29.3255 63.7995 29.3984 63.7422C29.4766 63.6797 29.5156 63.513 29.5156 63.2422C29.5156 62.9714 29.4766 62.8073 29.3984 62.75C29.3255 62.6875 29.2344 62.6562 29.125 62.6562ZM41.2344 56.4062V61.0938C41.2344 63.6979 40.0625 65 37.7188 65C35.1927 65 33.9297 63.6979 33.9297 61.0938V59.5312C33.9297 57.7083 33.1562 56.7969 31.6094 56.7969C30.0573 56.7969 29.2812 57.7083 29.2812 59.5312V61.5625C29.401 61.5104 29.5391 61.4844 29.6953 61.4844C29.8516 61.4844 30.0156 61.625 30.1875 61.9062C30.3646 62.1823 30.4531 62.6276 30.4531 63.2422C30.4531 63.8568 30.3385 64.3047 30.1094 64.5859C29.8854 64.862 29.5833 65 29.2031 65C28.8229 65 28.5208 64.8594 28.2969 64.5781C28.1198 64.3646 28.0104 64.0495 27.9688 63.6328H27.9531V59.5312C27.9531 57.9062 28.4271 56.7891 29.375 56.1797C29.1406 55.7891 28.7969 55.474 28.3438 55.2344V54.4531C28.3438 53.6719 28.7344 53.2812 29.5156 53.2812H33.8125V54.4531H30.0625C29.8021 54.4531 29.6719 54.5833 29.6719 54.8438C30.0781 55.0625 30.3984 55.349 30.6328 55.7031C30.9349 55.651 31.2604 55.625 31.6094 55.625C34.0417 55.625 35.2578 56.9271 35.2578 59.5312V61.0938C35.2578 62.9167 36.0781 63.8281 37.7188 63.8281C39.1771 63.8281 39.9062 62.9167 39.9062 61.0938V56.4062C39.9062 56.0417 39.6458 55.651 39.125 55.2344V54.4531C39.125 53.6719 39.5156 53.2812 40.2969 53.2812H41.625V54.4531H40.6875C40.4271 54.4531 40.2969 54.5833 40.2969 54.8438C40.9219 55.2604 41.2344 55.7812 41.2344 56.4062ZM38.8906 68.125C38.8906 68.6458 39.0599 68.9062 39.3984 68.9062C39.737 68.9062 39.9062 68.6458 39.9062 68.125V65.7812H41.2344V68.125C41.2344 69.4271 40.6224 70.0781 39.3984 70.0781C38.1745 70.0781 37.5625 69.4271 37.5625 68.125V65.7812H38.8906V68.125ZM46.4688 59.5312V61.0938C46.4688 62.9167 47.3281 63.8281 49.0469 63.8281C50.7656 63.8281 51.625 62.9167 51.625 61.0938V59.5312H46.4688ZM46.4688 58.3594H51.625V56.4062C51.625 56.0417 51.3646 55.651 50.8438 55.2344V54.4531C50.8438 53.6719 51.2344 53.2812 52.0156 53.2812H53.3438V54.4531H52.4062C52.1458 54.4531 52.0156 54.5833 52.0156 54.8438C52.6406 55.2604 52.9531 55.7812 52.9531 56.4062V61.0938C52.9531 63.6979 51.651 65 49.0469 65C46.4427 65 45.1406 63.6979 45.1406 61.0938V56.4062C45.1406 56.0417 44.8802 55.651 44.3594 55.2344V54.4531C44.3594 53.6719 44.75 53.2812 45.5312 53.2812H46.8594V54.4531H45.9219C45.6615 54.4531 45.5312 54.5833 45.5312 54.8438C46.1562 55.2604 46.4688 55.7812 46.4688 56.4062V58.3594ZM58.0312 62.6562V63.8281C58.1406 63.8281 58.2318 63.7995 58.3047 63.7422C58.3828 63.6797 58.4219 63.513 58.4219 63.2422C58.4219 62.9714 58.3828 62.8073 58.3047 62.75C58.2318 62.6875 58.1406 62.6562 58.0312 62.6562ZM70.1406 56.4062V61.0938C70.1406 63.6979 68.9688 65 66.625 65C64.099 65 62.8359 63.6979 62.8359 61.0938V59.5312C62.8359 57.7083 62.0625 56.7969 60.5156 56.7969C58.9635 56.7969 58.1875 57.7083 58.1875 59.5312V61.5625C58.3073 61.5104 58.4453 61.4844 58.6016 61.4844C58.7578 61.4844 58.9219 61.625 59.0938 61.9062C59.2708 62.1823 59.3594 62.6276 59.3594 63.2422C59.3594 63.8568 59.2448 64.3047 59.0156 64.5859C58.7917 64.862 58.4896 65 58.1094 65C57.7292 65 57.4271 64.8594 57.2031 64.5781C57.026 64.3646 56.9167 64.0495 56.875 63.6328H56.8594V59.5312C56.8594 57.9062 57.3333 56.7891 58.2812 56.1797C58.0469 55.7891 57.7031 55.474 57.25 55.2344V54.4531C57.25 53.6719 57.6406 53.2812 58.4219 53.2812H62.7188V54.4531H58.9688C58.7083 54.4531 58.5781 54.5833 58.5781 54.8438C58.9844 55.0625 59.3047 55.349 59.5391 55.7031C59.8411 55.651 60.1667 55.625 60.5156 55.625C62.9479 55.625 64.1641 56.9271 64.1641 59.5312V61.0938C64.1641 62.9167 64.9844 63.8281 66.625 63.8281C68.0833 63.8281 68.8125 62.9167 68.8125 61.0938V56.4062C68.8125 56.0417 68.5521 55.651 68.0312 55.2344V54.4531C68.0312 53.6719 68.4219 53.2812 69.2031 53.2812H70.5312V54.4531H69.5938C69.3333 54.4531 69.2031 54.5833 69.2031 54.8438C69.8281 55.2604 70.1406 55.7812 70.1406 56.4062ZM74.0469 63.8281V62.6562H73.8516C73.7943 62.6562 73.7474 62.6823 73.7109 62.7344C73.6745 62.7812 73.6562 62.9505 73.6562 63.2422C73.6562 63.5339 73.6745 63.7057 73.7109 63.7578C73.7474 63.8047 73.7943 63.8281 73.8516 63.8281H74.0469ZM75.375 56.4062V63.2422C75.375 63.9089 75.2865 64.3698 75.1094 64.625C74.9375 64.875 74.6094 65 74.125 65C73.6406 65 73.3099 64.875 73.1328 64.625C72.9609 64.3698 72.875 63.9089 72.875 63.2422C72.875 62.5755 72.9609 62.1172 73.1328 61.8672C73.3099 61.612 73.5495 61.4844 73.8516 61.4844C73.9193 61.4844 73.9844 61.4896 74.0469 61.5V56.4062C73.9427 56.0417 73.6823 55.651 73.2656 55.2344V54.4531C73.2656 53.6719 73.6562 53.2812 74.4375 53.2812H75.7656V54.4531H74.8281C74.5677 54.4531 74.4375 54.5833 74.4375 54.8438C75.0625 55.2604 75.375 55.7812 75.375 56.4062ZM80.8047 63.8281C80.862 63.8281 80.9089 63.8047 80.9453 63.7578C80.9818 63.7057 81 63.5339 81 63.2422C81 62.9505 80.9818 62.7812 80.9453 62.7344C80.9089 62.6823 80.862 62.6562 80.8047 62.6562H80.6094V63.8281H80.8047ZM80.6094 61.5C80.6719 61.4896 80.737 61.4844 80.8047 61.4844C81.1068 61.4844 81.3438 61.612 81.5156 61.8672C81.6927 62.1172 81.7812 62.5755 81.7812 63.2422C81.7812 63.9089 81.6927 64.3698 81.5156 64.625C81.3438 64.875 81.0156 65 80.5312 65C80.0469 65 79.7161 64.875 79.5391 64.625C79.3672 64.3698 79.2812 63.9089 79.2812 63.2422V56.4062C79.1771 56.0417 78.9167 55.651 78.5 55.2344V54.4531C78.5 53.6719 78.8906 53.2812 79.6719 53.2812H81V54.4531H80.0625C79.8021 54.4531 79.6719 54.5833 79.6719 54.8438C80.2969 55.2604 80.6094 55.7812 80.6094 56.4062V61.5ZM85.6875 62.6562V63.8281C85.7969 63.8281 85.888 63.7995 85.9609 63.7422C86.0391 63.6797 86.0781 63.513 86.0781 63.2422C86.0781 62.9714 86.0391 62.8073 85.9609 62.75C85.888 62.6875 85.7969 62.6562 85.6875 62.6562ZM97.7969 56.4062V61.0938C97.7969 63.6979 96.625 65 94.2812 65C91.7552 65 90.4922 63.6979 90.4922 61.0938V59.5312C90.4922 57.7083 89.7188 56.7969 88.1719 56.7969C86.6198 56.7969 85.8438 57.7083 85.8438 59.5312V61.5625C85.9635 61.5104 86.1016 61.4844 86.2578 61.4844C86.4141 61.4844 86.5781 61.625 86.75 61.9062C86.9271 62.1823 87.0156 62.6276 87.0156 63.2422C87.0156 63.8568 86.901 64.3047 86.6719 64.5859C86.4479 64.862 86.1458 65 85.7656 65C85.3854 65 85.0833 64.8594 84.8594 64.5781C84.6823 64.3646 84.5729 64.0495 84.5312 63.6328H84.5156V59.5312C84.5156 57.9062 84.9896 56.7891 85.9375 56.1797C85.7031 55.7891 85.3594 55.474 84.9062 55.2344V54.4531C84.9062 53.6719 85.2969 53.2812 86.0781 53.2812H90.375V54.4531H86.625C86.3646 54.4531 86.2344 54.5833 86.2344 54.8438C86.6406 55.0625 86.9609 55.349 87.1953 55.7031C87.4974 55.651 87.8229 55.625 88.1719 55.625C90.6042 55.625 91.8203 56.9271 91.8203 59.5312V61.0938C91.8203 62.9167 92.6406 63.8281 94.2812 63.8281C95.7396 63.8281 96.4688 62.9167 96.4688 61.0938V56.4062C96.4688 56.0417 96.2083 55.651 95.6875 55.2344V54.4531C95.6875 53.6719 96.0781 53.2812 96.8594 53.2812H98.1875V54.4531H97.25C96.9896 54.4531 96.8594 54.5833 96.8594 54.8438C97.4844 55.2604 97.7969 55.7812 97.7969 56.4062ZM101.703 63.8281V62.6562H101.508C101.451 62.6562 101.404 62.6823 101.367 62.7344C101.331 62.7812 101.312 62.9505 101.312 63.2422C101.312 63.5339 101.331 63.7057 101.367 63.7578C101.404 63.8047 101.451 63.8281 101.508 63.8281H101.703ZM103.031 56.4062V63.2422C103.031 63.9089 102.943 64.3698 102.766 64.625C102.594 64.875 102.266 65 101.781 65C101.297 65 100.966 64.875 100.789 64.625C100.617 64.3698 100.531 63.9089 100.531 63.2422C100.531 62.5755 100.617 62.1172 100.789 61.8672C100.966 61.612 101.206 61.4844 101.508 61.4844C101.576 61.4844 101.641 61.4896 101.703 61.5V56.4062C101.599 56.0417 101.339 55.651 100.922 55.2344V54.4531C100.922 53.6719 101.312 53.2812 102.094 53.2812H103.422V54.4531H102.484C102.224 54.4531 102.094 54.5833 102.094 54.8438C102.719 55.2604 103.031 55.7812 103.031 56.4062ZM108.461 63.8281C108.518 63.8281 108.565 63.8047 108.602 63.7578C108.638 63.7057 108.656 63.5339 108.656 63.2422C108.656 62.9505 108.638 62.7812 108.602 62.7344C108.565 62.6823 108.518 62.6562 108.461 62.6562H108.266V63.8281H108.461ZM108.266 61.5C108.328 61.4896 108.393 61.4844 108.461 61.4844C108.763 61.4844 109 61.612 109.172 61.8672C109.349 62.1172 109.438 62.5755 109.438 63.2422C109.438 63.9089 109.349 64.3698 109.172 64.625C109 64.875 108.672 65 108.188 65C107.703 65 107.372 64.875 107.195 64.625C107.023 64.3698 106.938 63.9089 106.938 63.2422V56.4062C106.833 56.0417 106.573 55.651 106.156 55.2344V54.4531C106.156 53.6719 106.547 53.2812 107.328 53.2812H108.656V54.4531H107.719C107.458 54.4531 107.328 54.5833 107.328 54.8438C107.953 55.2604 108.266 55.7812 108.266 56.4062V61.5ZM119.984 60.2344V61.875C119.984 63.9583 119.255 65 117.797 65C116.724 65 115.93 64.6745 115.414 64.0234C114.898 63.3724 114.26 63.0469 113.5 63.0469V65H112.172V60.3125H113.5V61.875C114.411 61.875 115.151 62.2005 115.719 62.8516C116.292 63.5026 116.872 63.8281 117.461 63.8281C118.258 63.8281 118.656 63.1771 118.656 61.875V61.0938C114.333 60.1562 112.172 58.5938 112.172 56.4062C112.172 54.3229 113.474 53.2812 116.078 53.2812C118.682 53.2812 119.984 54.3229 119.984 56.4062C119.984 57.8594 119.26 58.5859 117.812 58.5859C117.484 58.5859 117.219 58.5104 117.016 58.3594V57.1875C117.385 57.2969 117.688 57.3516 117.922 57.3516C118.411 57.3516 118.656 57.0365 118.656 56.4062C118.656 55.1042 117.797 54.4531 116.078 54.4531C114.359 54.4531 113.5 55.1042 113.5 56.4062C113.5 57.9688 115.661 59.2448 119.984 60.2344ZM123.344 53.6562V52.0312C123.344 51.5625 123.135 51.3281 122.719 51.3281H122.328V50.1562H123.109C124.151 50.1562 124.672 50.6771 124.672 51.7188V65H123.344V56.3984C123.339 55.1016 122.74 54.4531 121.547 54.4531H119.984V53.2812H121.547C122.271 53.2812 122.87 53.4062 123.344 53.6562ZM129.906 56.4062V66.9531C129.906 68.2552 130.466 68.9062 131.586 68.9062C132.706 68.9062 133.266 68.2552 133.266 66.9531V65.7812H134.594V66.9531C134.594 69.0365 133.591 70.0781 131.586 70.0781C129.581 70.0781 128.578 69.0365 128.578 66.9531V56.4062C128.578 56.0417 128.318 55.651 127.797 55.2344V54.4531C127.797 53.6719 128.188 53.2812 128.969 53.2812H130.297V54.4531H129.359C129.099 54.4531 128.969 54.5833 128.969 54.8438C129.594 55.2604 129.906 55.7812 129.906 56.4062ZM134.438 62.6562V63.8281C134.547 63.8281 134.638 63.7995 134.711 63.7422C134.789 63.6797 134.828 63.513 134.828 63.2422C134.828 62.9714 134.789 62.8073 134.711 62.75C134.638 62.6875 134.547 62.6562 134.438 62.6562ZM141.078 53.2812V54.4531H133.266V53.2812H141.078ZM133.266 59.5312C133.266 56.9271 134.568 55.625 137.172 55.625C139.776 55.625 141.078 56.9271 141.078 59.5312V65H139.75V59.5312C139.75 57.7083 138.891 56.7969 137.172 56.7969C135.453 56.7969 134.594 57.7083 134.594 59.5312V61.5625C134.714 61.5104 134.852 61.4844 135.008 61.4844C135.164 61.4844 135.328 61.625 135.5 61.9062C135.677 62.1823 135.766 62.6276 135.766 63.2422C135.766 63.8568 135.651 64.3047 135.422 64.5859C135.198 64.862 134.896 65 134.516 65C134.135 65 133.833 64.8594 133.609 64.5781C133.432 64.3646 133.323 64.0495 133.281 63.6328H133.266V59.5312ZM150.844 54.4688C150.844 54.3125 150.74 54.2344 150.531 54.2344C150.323 54.2344 150.219 54.3125 150.219 54.4688C150.219 54.6094 150.323 54.75 150.531 54.8906C150.74 54.7812 150.844 54.6406 150.844 54.4688ZM144.789 58.3594C144.732 58.3594 144.685 58.3854 144.648 58.4375C144.612 58.4844 144.594 58.6536 144.594 58.9453C144.594 59.237 144.612 59.4089 144.648 59.4609C144.685 59.5078 144.732 59.5312 144.789 59.5312H144.984V58.3594H144.789ZM146.312 63.4375L148.891 61.0938L151.469 63.4375V57.9688C151.469 57.4062 151.047 56.8099 150.203 56.1797C149.776 56.5911 149.052 56.7969 148.031 56.7969C146.896 56.7969 146.104 56.6484 145.656 56.3516C145.208 56.0547 144.984 55.6432 144.984 55.1172C144.984 54.5964 145.089 54.1094 145.297 53.6562C145.505 53.1979 145.609 52.8255 145.609 52.5391C145.609 52.2526 145.271 52.1094 144.594 52.1094V50.9375C146.052 50.9375 146.781 51.4323 146.781 52.4219C146.781 52.8125 146.677 53.25 146.469 53.7344C146.26 54.2135 146.156 54.5547 146.156 54.7578C146.156 54.9661 146.286 55.1641 146.547 55.3516C146.807 55.5339 147.32 55.625 148.086 55.625C148.747 55.625 149.224 55.5391 149.516 55.3672C149.255 55.1536 149.125 54.8229 149.125 54.375C149.125 53.6458 149.594 53.2812 150.531 53.2812C151.521 53.2812 152.016 53.724 152.016 54.6094C152.016 55.0625 151.812 55.4479 151.406 55.7656C152.333 56.4375 152.797 57.1719 152.797 57.9688V65H151.234L148.891 62.6562L146.547 65H144.984V60.6875C144.922 60.6979 144.857 60.7031 144.789 60.7031C144.487 60.7031 144.247 60.5781 144.07 60.3281C143.898 60.0729 143.812 59.612 143.812 58.9453C143.812 58.2786 143.898 57.8203 144.07 57.5703C144.247 57.3151 144.578 57.1875 145.062 57.1875C145.547 57.1875 145.875 57.3151 146.047 57.5703C146.224 57.8203 146.312 58.2786 146.312 58.9453V63.4375ZM149.477 47.4219V50.9375H148.305V47.4219H149.477ZM158.227 63.8281C158.284 63.8281 158.331 63.8047 158.367 63.7578C158.404 63.7057 158.422 63.5339 158.422 63.2422C158.422 62.9505 158.404 62.7812 158.367 62.7344C158.331 62.6823 158.284 62.6562 158.227 62.6562H158.031V63.8281H158.227ZM158.031 61.5C158.094 61.4896 158.159 61.4844 158.227 61.4844C158.529 61.4844 158.766 61.612 158.938 61.8672C159.115 62.1172 159.203 62.5755 159.203 63.2422C159.203 63.9089 159.115 64.3698 158.938 64.625C158.766 64.875 158.438 65 157.953 65C157.469 65 157.138 64.875 156.961 64.625C156.789 64.3698 156.703 63.9089 156.703 63.2422V56.4062C156.599 56.0417 156.339 55.651 155.922 55.2344V54.4531C155.922 53.6719 156.312 53.2812 157.094 53.2812H158.422V54.4531H157.484C157.224 54.4531 157.094 54.5833 157.094 54.8438C157.719 55.2604 158.031 55.7812 158.031 56.4062V61.5ZM169.75 60.2344V61.875C169.75 63.9583 169.021 65 167.562 65C166.49 65 165.695 64.6745 165.18 64.0234C164.664 63.3724 164.026 63.0469 163.266 63.0469V65H161.938V60.3125H163.266V61.875C164.177 61.875 164.917 62.2005 165.484 62.8516C166.057 63.5026 166.638 63.8281 167.227 63.8281C168.023 63.8281 168.422 63.1771 168.422 61.875V61.0938C164.099 60.1562 161.938 58.5938 161.938 56.4062C161.938 54.3229 163.24 53.2812 165.844 53.2812C168.448 53.2812 169.75 54.3229 169.75 56.4062C169.75 57.8594 169.026 58.5859 167.578 58.5859C167.25 58.5859 166.984 58.5104 166.781 58.3594V57.1875C167.151 57.2969 167.453 57.3516 167.688 57.3516C168.177 57.3516 168.422 57.0365 168.422 56.4062C168.422 55.1042 167.562 54.4531 165.844 54.4531C164.125 54.4531 163.266 55.1042 163.266 56.4062C163.266 57.9688 165.427 59.2448 169.75 60.2344ZM174.828 55.4297C174.828 55.6224 174.878 55.7682 174.977 55.8672C175.076 55.9661 175.221 56.0156 175.414 56.0156C175.612 56.0156 175.758 55.9661 175.852 55.8672C175.951 55.7682 176 55.6224 176 55.4297C176 55.2318 175.951 55.0859 175.852 54.9922C175.758 54.8932 175.612 54.8438 175.414 54.8438C175.221 54.8438 175.076 54.8932 174.977 54.9922C174.878 55.0859 174.828 55.2318 174.828 55.4297ZM177.172 55.4297C177.172 56.0182 177.026 56.4583 176.734 56.75C176.443 57.0417 176.003 57.1875 175.414 57.1875C174.826 57.1875 174.385 57.0417 174.094 56.75C173.802 56.4583 173.656 56.0182 173.656 55.4297C173.656 54.8411 173.802 54.401 174.094 54.1094C174.385 53.8177 174.826 53.6719 175.414 53.6719C176.003 53.6719 176.443 53.8177 176.734 54.1094C177.026 54.401 177.172 54.8411 177.172 55.4297ZM174.828 62.8516C174.828 63.0443 174.878 63.1901 174.977 63.2891C175.076 63.388 175.221 63.4375 175.414 63.4375C175.612 63.4375 175.758 63.388 175.852 63.2891C175.951 63.1901 176 63.0443 176 62.8516C176 62.6536 175.951 62.5078 175.852 62.4141C175.758 62.3151 175.612 62.2656 175.414 62.2656C175.221 62.2656 175.076 62.3151 174.977 62.4141C174.878 62.5078 174.828 62.6536 174.828 62.8516ZM177.172 62.8516C177.172 63.4401 177.026 63.8802 176.734 64.1719C176.443 64.4635 176.003 64.6094 175.414 64.6094C174.826 64.6094 174.385 64.4635 174.094 64.1719C173.802 63.8802 173.656 63.4401 173.656 62.8516C173.656 62.263 173.802 61.8229 174.094 61.5312C174.385 61.2396 174.826 61.0938 175.414 61.0938C176.003 61.0938 176.443 61.2396 176.734 61.5312C177.026 61.8229 177.172 62.263 177.172 62.8516Z" fill="#344054"/>
<rect x="10.5" y="32.5" width="587" height="289" rx="7.5" stroke="#98A2B3"/>
<rect x="10" y="32" width="16" height="290" fill="#EE7D22" fill-opacity="0.24"/>
<rect x="10" y="32" width="588" height="8" fill="#EE7D22" fill-opacity="0.24"/>
<path d="M614.5 32V40" stroke="#F07D03"/>
<rect x="619" y="28.5" width="31" height="18" rx="3" fill="#F07D03"/>
<path d="M628.303 41.5994C627.756 41.5994 627.269 41.5107 626.843 41.3331C626.419 41.1532 626.087 40.9081 625.845 40.598C625.604 40.2879 625.483 39.9363 625.483 39.5433C625.483 39.2403 625.552 38.9621 625.689 38.7088C625.829 38.4531 626.018 38.2412 626.257 38.0732C626.496 37.9027 626.764 37.7938 627.06 37.7464V37.6967C626.671 37.6186 626.357 37.4304 626.115 37.1321C625.874 36.8314 625.753 36.4822 625.753 36.0845C625.753 35.7081 625.863 35.3731 626.083 35.0795C626.303 34.7836 626.605 34.5516 626.989 34.3835C627.375 34.2131 627.812 34.1278 628.303 34.1278C628.793 34.1278 629.229 34.2131 629.613 34.3835C629.999 34.554 630.302 34.7872 630.522 35.0831C630.742 35.3767 630.853 35.7105 630.856 36.0845C630.853 36.4846 630.73 36.8338 630.487 37.1321C630.243 37.4304 629.93 37.6186 629.549 37.6967V37.7464C629.84 37.7938 630.104 37.9027 630.341 38.0732C630.58 38.2412 630.769 38.4531 630.909 38.7088C631.051 38.9621 631.123 39.2403 631.126 39.5433C631.123 39.9363 631.001 40.2879 630.76 40.598C630.518 40.9081 630.185 41.1532 629.759 41.3331C629.335 41.5107 628.849 41.5994 628.303 41.5994ZM628.303 40.4702C628.546 40.4702 628.759 40.4264 628.942 40.3388C629.124 40.2488 629.266 40.1257 629.368 39.9695C629.472 39.8108 629.524 39.6286 629.524 39.4226C629.524 39.2119 629.471 39.026 629.364 38.8651C629.258 38.7017 629.113 38.5739 628.931 38.4815C628.749 38.3868 628.539 38.3395 628.303 38.3395C628.068 38.3395 627.859 38.3868 627.674 38.4815C627.489 38.5739 627.344 38.7017 627.237 38.8651C627.133 39.026 627.081 39.2119 627.081 39.4226C627.081 39.6286 627.132 39.8108 627.234 39.9695C627.335 40.1257 627.479 40.2488 627.663 40.3388C627.848 40.4264 628.061 40.4702 628.303 40.4702ZM628.303 37.2209C628.506 37.2209 628.687 37.1795 628.846 37.0966C629.004 37.0137 629.129 36.8989 629.219 36.7521C629.309 36.6054 629.354 36.4361 629.354 36.2443C629.354 36.0549 629.309 35.8892 629.219 35.7472C629.129 35.6027 629.006 35.4903 628.849 35.4098C628.693 35.3269 628.511 35.2855 628.303 35.2855C628.097 35.2855 627.914 35.3269 627.756 35.4098C627.597 35.4903 627.473 35.6027 627.383 35.7472C627.295 35.8892 627.251 36.0549 627.251 36.2443C627.251 36.4361 627.296 36.6054 627.386 36.7521C627.476 36.8989 627.601 37.0137 627.759 37.0966C627.918 37.1795 628.099 37.2209 628.303 37.2209ZM632.215 43.5455V36.0455H633.706V36.9616H633.774C633.84 36.8149 633.936 36.6657 634.062 36.5142C634.189 36.3603 634.355 36.2325 634.559 36.1307C634.765 36.0265 635.02 35.9744 635.326 35.9744C635.724 35.9744 636.09 36.0786 636.427 36.2869C636.763 36.4929 637.032 36.8042 637.233 37.2209C637.434 37.6352 637.535 38.1548 637.535 38.7798C637.535 39.3883 637.436 39.902 637.24 40.321C637.046 40.7377 636.781 41.0537 636.444 41.2692C636.111 41.4822 635.737 41.5888 635.322 41.5888C635.029 41.5888 634.779 41.5402 634.573 41.4432C634.369 41.3461 634.202 41.2242 634.072 41.0774C633.942 40.9283 633.843 40.7779 633.774 40.6264H633.728V43.5455H632.215ZM633.696 38.7727C633.696 39.0971 633.741 39.38 633.831 39.6214C633.921 39.8629 634.051 40.0511 634.221 40.1861C634.392 40.3187 634.599 40.3849 634.843 40.3849C635.089 40.3849 635.297 40.3175 635.468 40.1825C635.638 40.0452 635.767 39.8558 635.855 39.6143C635.945 39.3705 635.99 39.09 635.99 38.7727C635.99 38.4579 635.946 38.1809 635.858 37.9418C635.771 37.7027 635.642 37.5156 635.471 37.3807C635.301 37.2457 635.091 37.1783 634.843 37.1783C634.597 37.1783 634.388 37.2434 634.218 37.3736C634.05 37.5038 633.921 37.6884 633.831 37.9276C633.741 38.1667 633.696 38.4484 633.696 38.7727ZM639.612 36.0455L640.613 37.9524L641.64 36.0455H643.192L641.611 38.7727L643.234 41.5H641.689L640.613 39.6143L639.555 41.5H637.993L639.612 38.7727L638.05 36.0455H639.612Z" fill="white"/>
<line x1="611" y1="32.5" x2="618" y2="32.5" stroke="#F07D03"/>
<line x1="611" y1="39.5" x2="618" y2="39.5" stroke="#F07D03"/>
<path d="M10 338.5H26" stroke="#F07D03"/>
<rect y="343" width="36" height="18" rx="3" fill="#F07D03"/>
<path d="M9.75355 348.727V356H8.21591V350.187H8.1733L6.50781 351.231V349.867L8.30824 348.727H9.75355ZM14.2733 356.099C13.8992 356.097 13.5382 356.034 13.1902 355.911C12.8445 355.788 12.5344 355.588 12.2598 355.311C11.9851 355.034 11.7673 354.667 11.6064 354.21C11.4477 353.753 11.3684 353.192 11.3684 352.527C11.3708 351.916 11.4406 351.371 11.5779 350.89C11.7176 350.407 11.9165 349.997 12.1745 349.661C12.435 349.325 12.7463 349.069 13.1085 348.894C13.4707 348.717 13.8767 348.628 14.3265 348.628C14.8118 348.628 15.2404 348.723 15.612 348.912C15.9837 349.099 16.282 349.353 16.5069 349.675C16.7342 349.997 16.8715 350.358 16.9189 350.759H15.4025C15.3433 350.505 15.219 350.306 15.0297 350.162C14.8403 350.018 14.6059 349.945 14.3265 349.945C13.853 349.945 13.4932 350.151 13.247 350.563C13.0031 350.975 12.8788 351.535 12.8741 352.243H12.9238C13.0327 352.027 13.1795 351.844 13.3642 351.692C13.5512 351.539 13.7631 351.421 13.9998 351.341C14.2389 351.258 14.4911 351.217 14.7562 351.217C15.1871 351.217 15.5706 351.318 15.9068 351.522C16.243 351.723 16.5081 352 16.7022 352.353C16.8964 352.706 16.9934 353.109 16.9934 353.564C16.9934 354.056 16.8786 354.494 16.649 354.878C16.4217 355.261 16.1033 355.562 15.6937 355.78C15.2865 355.995 14.813 356.102 14.2733 356.099ZM14.2662 354.892C14.5029 354.892 14.7148 354.835 14.9018 354.722C15.0888 354.608 15.2356 354.454 15.3422 354.26C15.4487 354.066 15.502 353.848 15.502 353.607C15.502 353.365 15.4487 353.148 15.3422 352.957C15.238 352.765 15.0936 352.612 14.9089 352.499C14.7243 352.385 14.5136 352.328 14.2768 352.328C14.0993 352.328 13.9347 352.361 13.7832 352.428C13.6341 352.494 13.5027 352.586 13.389 352.705C13.2778 352.823 13.1902 352.96 13.1262 353.116C13.0623 353.27 13.0304 353.435 13.0304 353.61C13.0304 353.844 13.0836 354.059 13.1902 354.253C13.2991 354.447 13.4458 354.602 13.6305 354.718C13.8175 354.834 14.0294 354.892 14.2662 354.892ZM18.0978 358.045V350.545H19.5893V351.462H19.6568C19.7231 351.315 19.819 351.166 19.9444 351.014C20.0723 350.86 20.238 350.732 20.4416 350.631C20.6475 350.527 20.9032 350.474 21.2086 350.474C21.6064 350.474 21.9733 350.579 22.3095 350.787C22.6457 350.993 22.9144 351.304 23.1156 351.721C23.3168 352.135 23.4174 352.655 23.4174 353.28C23.4174 353.888 23.3192 354.402 23.1227 354.821C22.9286 355.238 22.6634 355.554 22.3272 355.769C21.9934 355.982 21.6194 356.089 21.2051 356.089C20.9115 356.089 20.6618 356.04 20.4558 355.943C20.2522 355.846 20.0853 355.724 19.9551 355.577C19.8249 355.428 19.7254 355.278 19.6568 355.126H19.6106V358.045H18.0978ZM19.5787 353.273C19.5787 353.597 19.6236 353.88 19.7136 354.121C19.8036 354.363 19.9338 354.551 20.1042 354.686C20.2747 354.819 20.4818 354.885 20.7257 354.885C20.9719 354.885 21.1802 354.817 21.3507 354.683C21.5211 354.545 21.6502 354.356 21.7377 354.114C21.8277 353.871 21.8727 353.59 21.8727 353.273C21.8727 352.958 21.8289 352.681 21.7413 352.442C21.6537 352.203 21.5247 352.016 21.3542 351.881C21.1838 351.746 20.9743 351.678 20.7257 351.678C20.4795 351.678 20.2711 351.743 20.1007 351.874C19.9326 352.004 19.8036 352.188 19.7136 352.428C19.6236 352.667 19.5787 352.948 19.5787 353.273ZM25.4949 350.545L26.4963 352.452L27.5225 350.545H29.0744L27.4941 353.273L29.117 356H27.5723L26.4963 354.114L25.438 356H23.8755L25.4949 353.273L23.9324 350.545H25.4949Z" fill="white"/>
<line x1="10.5" y1="342" x2="10.5" y2="335" stroke="#F07D03"/>
<line x1="25.5" y1="342" x2="25.5" y2="335" stroke="#F07D03"/>
</svg>
