<svg width="180" height="90" viewBox="0 0 180 90" fill="none" xmlns="http://www.w3.org/2000/svg">
<rect x="0.5" y="62.5" width="23" height="23" rx="4.5" fill="white" stroke="#98A2B3"/>
<path d="M43.2812 70.4062V80.9531C43.2812 82.2552 43.8411 82.9062 44.9609 82.9062C46.0807 82.9062 46.6406 82.2552 46.6406 80.9531V79.7812H47.9688V80.9531C47.9688 83.0365 46.9661 84.0781 44.9609 84.0781C42.9557 84.0781 41.9531 83.0365 41.9531 80.9531V70.4062C41.9531 70.0417 41.6927 69.651 41.1719 69.2344V68.4531C41.1719 67.6719 41.5625 67.2812 42.3438 67.2812H43.6719V68.4531H42.7344C42.474 68.4531 42.3438 68.5833 42.3438 68.8438C42.9688 69.2604 43.2812 69.7812 43.2812 70.4062ZM53.125 70.4062C53.125 70.0417 52.8646 69.651 52.3438 69.2344V68.4531C52.3438 67.6719 52.7344 67.2812 53.5156 67.2812H54.8438V68.4531H53.9062C53.6458 68.4531 53.5156 68.5833 53.5156 68.8438C54.1406 69.2604 54.4531 69.7812 54.4531 70.4062V75.0938C54.4531 77.6979 53.151 79 50.5469 79C47.9427 79 46.6406 77.6979 46.6406 75.0938V70.4062C46.6406 70.0417 46.3802 69.651 45.8594 69.2344V68.4531C45.8594 67.6719 46.25 67.2812 47.0312 67.2812H48.3594V68.4531H47.4219C47.1615 68.4531 47.0312 68.5833 47.0312 68.8438C47.6562 69.2604 47.9688 69.7812 47.9688 70.4062V75.0938C47.9688 76.9167 48.8281 77.8281 50.5469 77.8281C52.2656 77.8281 53.125 76.9167 53.125 75.0938V70.4062ZM58.3594 77.8281V76.6562H58.1641C58.1068 76.6562 58.0599 76.6823 58.0234 76.7344C57.987 76.7812 57.9688 76.9505 57.9688 77.2422C57.9688 77.5339 57.987 77.7057 58.0234 77.7578C58.0599 77.8047 58.1068 77.8281 58.1641 77.8281H58.3594ZM64.8438 77.8281V76.6562H64.6484C64.5911 76.6562 64.5443 76.6823 64.5078 76.7344C64.4714 76.7812 64.4531 76.9505 64.4531 77.2422C64.4531 77.5339 64.4714 77.7057 64.5078 77.7578C64.5443 77.8047 64.5911 77.8281 64.6484 77.8281H64.8438ZM59.6875 73.5312V77.2422C59.6875 77.9089 59.599 78.3698 59.4219 78.625C59.25 78.875 58.9219 79 58.4375 79C57.9531 79 57.6224 78.875 57.4453 78.625C57.2734 78.3698 57.1875 77.9089 57.1875 77.2422C57.1875 76.5755 57.2734 76.1172 57.4453 75.8672C57.6224 75.612 57.862 75.4844 58.1641 75.4844C58.2318 75.4844 58.2969 75.4896 58.3594 75.5V70.4062C58.2552 70.0417 57.9948 69.651 57.5781 69.2344V68.4531C57.5781 67.6719 57.9688 67.2812 58.75 67.2812H60.0781V68.4531H59.1406C58.8802 68.4531 58.75 68.5833 58.75 68.8438C59.375 69.2604 59.6875 69.7812 59.6875 70.4062V72.3594H64.8438V70.4062C64.7396 70.0417 64.4792 69.651 64.0625 69.2344V68.4531C64.0625 67.6719 64.4531 67.2812 65.2344 67.2812H66.5625V68.4531H65.625C65.3646 68.4531 65.2344 68.5833 65.2344 68.8438C65.8594 69.2604 66.1719 69.7812 66.1719 70.4062V77.2422C66.1719 77.9089 66.0833 78.3698 65.9062 78.625C65.7344 78.875 65.4062 79 64.9219 79C64.4375 79 64.1068 78.875 63.9297 78.625C63.7578 78.3698 63.6719 77.9089 63.6719 77.2422C63.6719 76.5755 63.7578 76.1172 63.9297 75.8672C64.1068 75.612 64.3464 75.4844 64.6484 75.4844C64.7161 75.4844 64.7812 75.4896 64.8438 75.5V73.5312H59.6875ZM76.5625 70.4062C76.5625 70.0417 76.3021 69.651 75.7812 69.2344V68.4531C75.7812 67.6719 76.1719 67.2812 76.9531 67.2812H78.2812V68.4531H77.3438C77.0833 68.4531 76.9531 68.5833 76.9531 68.8438C77.5781 69.2604 77.8906 69.7812 77.8906 70.4062V75.0938C77.8906 77.6979 76.5885 79 73.9844 79C71.3802 79 70.0781 77.6979 70.0781 75.0938V70.4062C70.0781 70.0417 69.8177 69.651 69.2969 69.2344V68.4531C69.2969 67.6719 69.6875 67.2812 70.4688 67.2812H71.7969V68.4531H70.8594C70.599 68.4531 70.4688 68.5833 70.4688 68.8438C71.0938 69.2604 71.4062 69.7812 71.4062 70.4062V75.0938C71.4062 76.9167 72.2656 77.8281 73.9844 77.8281C75.7031 77.8281 76.5625 76.9167 76.5625 75.0938V70.4062ZM74.5703 61.4219V64.9375H73.3984V61.4219H74.5703ZM88.2812 71.3828C88.1719 71.3828 88.0781 71.4167 88 71.4844C87.9271 71.5521 87.8906 71.6484 87.8906 71.7734C87.8906 71.8984 87.9271 71.9948 88 72.0625C88.0781 72.1302 88.1719 72.1641 88.2812 72.1641V71.3828ZM88.2812 73.0859C88.2292 73.0911 88.1771 73.0938 88.125 73.0938C87.7708 73.0938 87.5078 72.9818 87.3359 72.7578C87.1328 72.5078 87.0312 72.1797 87.0312 71.7734C87.0312 71.3672 87.1302 71.0391 87.3281 70.7891C87.5312 70.5339 87.862 70.4062 88.3203 70.4062C88.7786 70.4062 89.1068 70.5339 89.3047 70.7891C89.5078 71.0391 89.6094 71.3672 89.6094 71.7734V79H88.4375L85.7031 76.6562L82.9688 79H81.7969V70.4062C81.7969 70.0417 81.6667 69.651 81.4062 69.2344V68.8438C81.4062 67.8021 81.9271 67.2812 82.9688 67.2812H89.6094V68.4531H83.5156C82.9948 68.4531 82.7344 68.6094 82.7344 68.9219C82.9948 69.3385 83.125 69.8333 83.125 70.4062V77.4375L85.7031 75.25L88.2812 77.4375V73.0859ZM84.9219 63.9219H88.4375C87.1406 63.0365 86.099 62.5938 85.3125 62.5938C84.2708 62.5938 83.75 62.8151 83.75 63.2578C83.75 63.7005 84.1406 63.9219 84.9219 63.9219ZM88.4375 62.6328V60.6406H89.6094V64.9375H84.5312C83.2292 64.9375 82.5781 64.4167 82.5781 63.375C82.5781 62.0729 83.4896 61.4219 85.3125 61.4219C86.3542 61.4219 87.3307 61.7734 88.2422 62.4766C88.3099 62.5286 88.375 62.5807 88.4375 62.6328ZM94.8438 79H93.5156V73.5312C93.5156 70.9271 94.8177 69.625 97.4219 69.625C100.026 69.625 101.328 70.9271 101.328 73.5312V79H100V73.5312C100 71.7083 99.1406 70.7969 97.4219 70.7969C95.7031 70.7969 94.8438 71.7083 94.8438 73.5312V79ZM101.328 67.2812V68.4531H93.5156V67.2812H101.328Z" fill="#344054"/>
<circle cx="168" cy="74" r="12" fill="#344054"/>
<path d="M163.943 80V78.2273L168.085 74.392C168.438 74.0511 168.733 73.7443 168.972 73.4716C169.214 73.1989 169.398 72.9318 169.523 72.6705C169.648 72.4053 169.71 72.1193 169.71 71.8125C169.71 71.4716 169.633 71.178 169.477 70.9318C169.322 70.6818 169.11 70.4905 168.841 70.358C168.572 70.2216 168.267 70.1534 167.926 70.1534C167.57 70.1534 167.259 70.2254 166.994 70.3693C166.729 70.5133 166.525 70.7197 166.381 70.9886C166.237 71.2576 166.165 71.5777 166.165 71.9489H163.83C163.83 71.1875 164.002 70.5265 164.347 69.9659C164.691 69.4053 165.174 68.9716 165.795 68.6648C166.417 68.358 167.133 68.2045 167.943 68.2045C168.777 68.2045 169.502 68.3523 170.119 68.6477C170.741 68.9394 171.223 69.3447 171.568 69.8636C171.913 70.3826 172.085 70.9773 172.085 71.6477C172.085 72.0871 171.998 72.5208 171.824 72.9489C171.653 73.3769 171.348 73.8523 170.909 74.375C170.47 74.8939 169.85 75.517 169.051 76.2443L167.352 77.9091V77.9886H172.239V80H163.943Z" fill="white"/>
<path d="M159 74L107 74.5" stroke="#344054" stroke-dasharray="2 2"/>
<circle cx="59" cy="16" r="12" fill="#344054"/>
<path d="M61.0057 10.3636V22H58.5455V12.6989H58.4773L55.8125 14.3693V12.1875L58.6932 10.3636H61.0057Z" fill="white"/>
<path d="M56 16H12V58" stroke="#344054" stroke-dasharray="2 2"/>
</svg>
