<svg width="114" height="67" viewBox="0 0 114 67" fill="none" xmlns="http://www.w3.org/2000/svg">
<rect x="0.5" y="4.5" width="23" height="23" rx="4.5" fill="white" stroke="#98A2B3"/>
<path d="M43.2812 12.4062V22.9531C43.2812 24.2552 43.8411 24.9062 44.9609 24.9062C46.0807 24.9062 46.6406 24.2552 46.6406 22.9531V21.7812H47.9688V22.9531C47.9688 25.0365 46.9661 26.0781 44.9609 26.0781C42.9557 26.0781 41.9531 25.0365 41.9531 22.9531V12.4062C41.9531 12.0417 41.6927 11.651 41.1719 11.2344V10.4531C41.1719 9.67188 41.5625 9.28125 42.3438 9.28125H43.6719V10.4531H42.7344C42.474 10.4531 42.3438 10.5833 42.3438 10.8438C42.9688 11.2604 43.2812 11.7812 43.2812 12.4062ZM53.125 12.4062C53.125 12.0417 52.8646 11.651 52.3438 11.2344V10.4531C52.3438 9.67188 52.7344 9.28125 53.5156 9.28125H54.8438V10.4531H53.9062C53.6458 10.4531 53.5156 10.5833 53.5156 10.8438C54.1406 11.2604 54.4531 11.7812 54.4531 12.4062V17.0938C54.4531 19.6979 53.151 21 50.5469 21C47.9427 21 46.6406 19.6979 46.6406 17.0938V12.4062C46.6406 12.0417 46.3802 11.651 45.8594 11.2344V10.4531C45.8594 9.67188 46.25 9.28125 47.0312 9.28125H48.3594V10.4531H47.4219C47.1615 10.4531 47.0312 10.5833 47.0312 10.8438C47.6562 11.2604 47.9688 11.7812 47.9688 12.4062V17.0938C47.9688 18.9167 48.8281 19.8281 50.5469 19.8281C52.2656 19.8281 53.125 18.9167 53.125 17.0938V12.4062ZM58.3594 19.8281V18.6562H58.1641C58.1068 18.6562 58.0599 18.6823 58.0234 18.7344C57.987 18.7812 57.9688 18.9505 57.9688 19.2422C57.9688 19.5339 57.987 19.7057 58.0234 19.7578C58.0599 19.8047 58.1068 19.8281 58.1641 19.8281H58.3594ZM64.8438 19.8281V18.6562H64.6484C64.5911 18.6562 64.5443 18.6823 64.5078 18.7344C64.4714 18.7812 64.4531 18.9505 64.4531 19.2422C64.4531 19.5339 64.4714 19.7057 64.5078 19.7578C64.5443 19.8047 64.5911 19.8281 64.6484 19.8281H64.8438ZM59.6875 15.5312V19.2422C59.6875 19.9089 59.599 20.3698 59.4219 20.625C59.25 20.875 58.9219 21 58.4375 21C57.9531 21 57.6224 20.875 57.4453 20.625C57.2734 20.3698 57.1875 19.9089 57.1875 19.2422C57.1875 18.5755 57.2734 18.1172 57.4453 17.8672C57.6224 17.612 57.862 17.4844 58.1641 17.4844C58.2318 17.4844 58.2969 17.4896 58.3594 17.5V12.4062C58.2552 12.0417 57.9948 11.651 57.5781 11.2344V10.4531C57.5781 9.67188 57.9688 9.28125 58.75 9.28125H60.0781V10.4531H59.1406C58.8802 10.4531 58.75 10.5833 58.75 10.8438C59.375 11.2604 59.6875 11.7812 59.6875 12.4062V14.3594H64.8438V12.4062C64.7396 12.0417 64.4792 11.651 64.0625 11.2344V10.4531C64.0625 9.67188 64.4531 9.28125 65.2344 9.28125H66.5625V10.4531H65.625C65.3646 10.4531 65.2344 10.5833 65.2344 10.8438C65.8594 11.2604 66.1719 11.7812 66.1719 12.4062V19.2422C66.1719 19.9089 66.0833 20.3698 65.9062 20.625C65.7344 20.875 65.4062 21 64.9219 21C64.4375 21 64.1068 20.875 63.9297 20.625C63.7578 20.3698 63.6719 19.9089 63.6719 19.2422C63.6719 18.5755 63.7578 18.1172 63.9297 17.8672C64.1068 17.612 64.3464 17.4844 64.6484 17.4844C64.7161 17.4844 64.7812 17.4896 64.8438 17.5V15.5312H59.6875ZM76.5625 12.4062C76.5625 12.0417 76.3021 11.651 75.7812 11.2344V10.4531C75.7812 9.67188 76.1719 9.28125 76.9531 9.28125H78.2812V10.4531H77.3438C77.0833 10.4531 76.9531 10.5833 76.9531 10.8438C77.5781 11.2604 77.8906 11.7812 77.8906 12.4062V17.0938C77.8906 19.6979 76.5885 21 73.9844 21C71.3802 21 70.0781 19.6979 70.0781 17.0938V12.4062C70.0781 12.0417 69.8177 11.651 69.2969 11.2344V10.4531C69.2969 9.67188 69.6875 9.28125 70.4688 9.28125H71.7969V10.4531H70.8594C70.599 10.4531 70.4688 10.5833 70.4688 10.8438C71.0938 11.2604 71.4062 11.7812 71.4062 12.4062V17.0938C71.4062 18.9167 72.2656 19.8281 73.9844 19.8281C75.7031 19.8281 76.5625 18.9167 76.5625 17.0938V12.4062ZM74.5703 3.42188V6.9375H73.3984V3.42188H74.5703ZM88.2812 13.3828C88.1719 13.3828 88.0781 13.4167 88 13.4844C87.9271 13.5521 87.8906 13.6484 87.8906 13.7734C87.8906 13.8984 87.9271 13.9948 88 14.0625C88.0781 14.1302 88.1719 14.1641 88.2812 14.1641V13.3828ZM88.2812 15.0859C88.2292 15.0911 88.1771 15.0938 88.125 15.0938C87.7708 15.0938 87.5078 14.9818 87.3359 14.7578C87.1328 14.5078 87.0312 14.1797 87.0312 13.7734C87.0312 13.3672 87.1302 13.0391 87.3281 12.7891C87.5312 12.5339 87.862 12.4062 88.3203 12.4062C88.7786 12.4062 89.1068 12.5339 89.3047 12.7891C89.5078 13.0391 89.6094 13.3672 89.6094 13.7734V21H88.4375L85.7031 18.6562L82.9688 21H81.7969V12.4062C81.7969 12.0417 81.6667 11.651 81.4062 11.2344V10.8438C81.4062 9.80208 81.9271 9.28125 82.9688 9.28125H89.6094V10.4531H83.5156C82.9948 10.4531 82.7344 10.6094 82.7344 10.9219C82.9948 11.3385 83.125 11.8333 83.125 12.4062V19.4375L85.7031 17.25L88.2812 19.4375V15.0859ZM84.9219 5.92188H88.4375C87.1406 5.03646 86.099 4.59375 85.3125 4.59375C84.2708 4.59375 83.75 4.8151 83.75 5.25781C83.75 5.70052 84.1406 5.92188 84.9219 5.92188ZM88.4375 4.63281V2.64062H89.6094V6.9375H84.5312C83.2292 6.9375 82.5781 6.41667 82.5781 5.375C82.5781 4.07292 83.4896 3.42188 85.3125 3.42188C86.3542 3.42188 87.3307 3.77344 88.2422 4.47656C88.3099 4.52865 88.375 4.58073 88.4375 4.63281ZM94.8438 21H93.5156V15.5312C93.5156 12.9271 94.8177 11.625 97.4219 11.625C100.026 11.625 101.328 12.9271 101.328 15.5312V21H100V15.5312C100 13.7083 99.1406 12.7969 97.4219 12.7969C95.7031 12.7969 94.8438 13.7083 94.8438 15.5312V21ZM101.328 9.28125V10.4531H93.5156V9.28125H101.328Z" fill="#344054"/>
<path d="M24 44.5H40" stroke="#F07D03"/>
<rect x="14" y="49" width="36" height="18" rx="3" fill="#F07D03"/>
<path d="M23.7536 54.7273V62H22.2159V56.1868H22.1733L20.5078 57.2308V55.8672L22.3082 54.7273H23.7536ZM28.2733 62.0994C27.8992 62.0971 27.5382 62.0343 27.1902 61.9112C26.8445 61.7881 26.5344 61.5881 26.2598 61.3111C25.9851 61.0341 25.7673 60.6671 25.6064 60.2102C25.4477 59.7533 25.3684 59.1922 25.3684 58.527C25.3708 57.9162 25.4406 57.3705 25.5779 56.8899C25.7176 56.407 25.9165 55.9974 26.1745 55.6612C26.435 55.325 26.7463 55.0694 27.1085 54.8942C27.4707 54.7166 27.8767 54.6278 28.3265 54.6278C28.8118 54.6278 29.2404 54.7225 29.612 54.9119C29.9837 55.099 30.282 55.3535 30.5069 55.6754C30.7342 55.9974 30.8715 56.3584 30.9189 56.7585H29.4025C29.3433 56.5052 29.219 56.3063 29.0297 56.1619C28.8403 56.0175 28.6059 55.9453 28.3265 55.9453C27.853 55.9453 27.4932 56.1513 27.247 56.5632C27.0031 56.9751 26.8788 57.535 26.8741 58.2429H26.9238C27.0327 58.0275 27.1795 57.844 27.3642 57.6925C27.5512 57.5386 27.7631 57.4214 27.9998 57.3409C28.2389 57.258 28.4911 57.2166 28.7562 57.2166C29.1871 57.2166 29.5706 57.3184 29.9068 57.522C30.243 57.7232 30.5081 58.0002 30.7022 58.353C30.8964 58.7057 30.9934 59.1094 30.9934 59.5639C30.9934 60.0563 30.8786 60.4943 30.649 60.8778C30.4217 61.2614 30.1033 61.562 29.6937 61.7798C29.2865 61.9953 28.813 62.1018 28.2733 62.0994ZM28.2662 60.892C28.5029 60.892 28.7148 60.8352 28.9018 60.7216C29.0888 60.608 29.2356 60.4541 29.3422 60.2599C29.4487 60.0658 29.502 59.848 29.502 59.6065C29.502 59.3651 29.4487 59.1484 29.3422 58.9567C29.238 58.7649 29.0936 58.6122 28.9089 58.4986C28.7243 58.3849 28.5136 58.3281 28.2768 58.3281C28.0993 58.3281 27.9347 58.3613 27.7832 58.4276C27.6341 58.4938 27.5027 58.5862 27.389 58.7045C27.2778 58.8229 27.1902 58.9602 27.1262 59.1165C27.0623 59.2704 27.0304 59.4349 27.0304 59.6101C27.0304 59.8445 27.0836 60.0587 27.1902 60.2528C27.2991 60.447 27.4458 60.602 27.6305 60.718C27.8175 60.834 28.0294 60.892 28.2662 60.892ZM32.0978 64.0455V56.5455H33.5893V57.4616H33.6568C33.7231 57.3149 33.819 57.1657 33.9444 57.0142C34.0723 56.8603 34.238 56.7325 34.4416 56.6307C34.6475 56.5265 34.9032 56.4744 35.2086 56.4744C35.6064 56.4744 35.9733 56.5786 36.3095 56.7869C36.6457 56.9929 36.9144 57.3042 37.1156 57.7209C37.3168 58.1352 37.4174 58.6548 37.4174 59.2798C37.4174 59.8883 37.3192 60.402 37.1227 60.821C36.9286 61.2377 36.6634 61.5537 36.3272 61.7692C35.9934 61.9822 35.6194 62.0888 35.2051 62.0888C34.9115 62.0888 34.6618 62.0402 34.4558 61.9432C34.2522 61.8461 34.0853 61.7242 33.9551 61.5774C33.8249 61.4283 33.7254 61.2779 33.6568 61.1264H33.6106V64.0455H32.0978ZM33.5787 59.2727C33.5787 59.5971 33.6236 59.88 33.7136 60.1214C33.8036 60.3629 33.9338 60.5511 34.1042 60.6861C34.2747 60.8187 34.4818 60.8849 34.7257 60.8849C34.9719 60.8849 35.1802 60.8175 35.3507 60.6825C35.5211 60.5452 35.6502 60.3558 35.7377 60.1143C35.8277 59.8705 35.8727 59.59 35.8727 59.2727C35.8727 58.9579 35.8289 58.6809 35.7413 58.4418C35.6537 58.2027 35.5247 58.0156 35.3542 57.8807C35.1838 57.7457 34.9743 57.6783 34.7257 57.6783C34.4795 57.6783 34.2711 57.7434 34.1007 57.8736C33.9326 58.0038 33.8036 58.1884 33.7136 58.4276C33.6236 58.6667 33.5787 58.9484 33.5787 59.2727ZM39.4949 56.5455L40.4963 58.4524L41.5225 56.5455H43.0744L41.4941 59.2727L43.117 62H41.5723L40.4963 60.1143L39.438 62H37.8755L39.4949 59.2727L37.9324 56.5455H39.4949Z" fill="white"/>
<line x1="24.5" y1="48" x2="24.5" y2="41" stroke="#F07D03"/>
<line x1="39.5" y1="48" x2="39.5" y2="41" stroke="#F07D03"/>
<rect x="24" y="4" width="16" height="24" fill="#EE7D22" fill-opacity="0.24"/>
</svg>
