<svg width="324" height="179" viewBox="0 0 324 179" fill="none" xmlns="http://www.w3.org/2000/svg">
<circle cx="13" cy="16" r="12" fill="#344054"/>
<path d="M15.0057 10.3636V22H12.5455V12.6989H12.4773L9.8125 14.3693V12.1875L12.6932 10.3636H15.0057Z" fill="white"/>
<circle cx="12" cy="163" r="12" fill="#344054"/>
<path d="M7.94318 169V167.227L12.0852 163.392C12.4375 163.051 12.733 162.744 12.9716 162.472C13.214 162.199 13.3977 161.932 13.5227 161.67C13.6477 161.405 13.7102 161.119 13.7102 160.812C13.7102 160.472 13.6326 160.178 13.4773 159.932C13.322 159.682 13.1098 159.491 12.8409 159.358C12.572 159.222 12.267 159.153 11.9261 159.153C11.5701 159.153 11.2595 159.225 10.9943 159.369C10.7292 159.513 10.5246 159.72 10.3807 159.989C10.2367 160.258 10.1648 160.578 10.1648 160.949H7.82955C7.82955 160.187 8.00189 159.527 8.34659 158.966C8.69129 158.405 9.17424 157.972 9.79545 157.665C10.4167 157.358 11.1326 157.205 11.9432 157.205C12.7765 157.205 13.5019 157.352 14.1193 157.648C14.7405 157.939 15.2235 158.345 15.5682 158.864C15.9129 159.383 16.0852 159.977 16.0852 160.648C16.0852 161.087 15.9981 161.521 15.8239 161.949C15.6534 162.377 15.3485 162.852 14.9091 163.375C14.4697 163.894 13.8504 164.517 13.0511 165.244L11.3523 166.909V166.989H16.2386V169H7.94318Z" fill="white"/>
<path d="M20 16H64V38" stroke="#344054" stroke-dasharray="2 2"/>
<path d="M25 163H98V86" stroke="#344054" stroke-dasharray="2 2"/>
<rect x="34" y="38" width="290" height="82" rx="8" fill="#344054"/>
<path d="M53.042 69.9746C53.0921 69.9746 53.1331 69.9541 53.165 69.9131C53.1969 69.8675 53.2129 69.7171 53.2129 69.4619C53.2129 69.2067 53.1969 69.0586 53.165 69.0176C53.1331 68.972 53.0921 68.9492 53.042 68.9492H52.8711V69.9746H53.042ZM52.8711 67.9375C52.9258 67.9284 52.9827 67.9238 53.042 67.9238C53.3063 67.9238 53.5137 68.0355 53.6641 68.2588C53.819 68.4775 53.8965 68.8786 53.8965 69.4619C53.8965 70.0452 53.819 70.4486 53.6641 70.6719C53.5137 70.8906 53.2266 71 52.8027 71C52.3789 71 52.0895 70.8906 51.9346 70.6719C51.7842 70.4486 51.709 70.0452 51.709 69.4619V63.4805C51.6178 63.1615 51.39 62.8197 51.0254 62.4551V61.7715C51.0254 61.0879 51.3672 60.7461 52.0508 60.7461H53.2129V61.7715H52.3926C52.1647 61.7715 52.0508 61.8854 52.0508 62.1133C52.5977 62.4779 52.8711 62.9336 52.8711 63.4805V67.9375ZM63.125 66.8301V68.2656C63.125 70.0885 62.487 71 61.2109 71C60.2721 71 59.5771 70.7152 59.126 70.1455C58.6748 69.5758 58.1165 69.291 57.4512 69.291V71H56.2891V66.8984H57.4512V68.2656C58.2487 68.2656 58.8958 68.5505 59.3926 69.1201C59.8939 69.6898 60.402 69.9746 60.917 69.9746C61.6143 69.9746 61.9629 69.4049 61.9629 68.2656V67.582C58.1803 66.7617 56.2891 65.3945 56.2891 63.4805C56.2891 61.6576 57.4284 60.7461 59.707 60.7461C61.9857 60.7461 63.125 61.6576 63.125 63.4805C63.125 64.752 62.4915 65.3877 61.2246 65.3877C60.9375 65.3877 60.7051 65.3216 60.5273 65.1895V64.1641C60.8509 64.2598 61.1152 64.3076 61.3203 64.3076C61.7487 64.3076 61.9629 64.0319 61.9629 63.4805C61.9629 62.3411 61.2109 61.7715 59.707 61.7715C58.2031 61.7715 57.4512 62.3411 57.4512 63.4805C57.4512 64.8477 59.3424 65.9642 63.125 66.8301ZM67.5684 62.626C67.5684 62.7946 67.6117 62.9222 67.6982 63.0088C67.7848 63.0954 67.9124 63.1387 68.0811 63.1387C68.2542 63.1387 68.3818 63.0954 68.4639 63.0088C68.5505 62.9222 68.5938 62.7946 68.5938 62.626C68.5938 62.4528 68.5505 62.3252 68.4639 62.2432C68.3818 62.1566 68.2542 62.1133 68.0811 62.1133C67.9124 62.1133 67.7848 62.1566 67.6982 62.2432C67.6117 62.3252 67.5684 62.4528 67.5684 62.626ZM69.6191 62.626C69.6191 63.141 69.4915 63.526 69.2363 63.7812C68.9811 64.0365 68.596 64.1641 68.0811 64.1641C67.5661 64.1641 67.181 64.0365 66.9258 63.7812C66.6706 63.526 66.543 63.141 66.543 62.626C66.543 62.111 66.6706 61.7259 66.9258 61.4707C67.181 61.2155 67.5661 61.0879 68.0811 61.0879C68.596 61.0879 68.9811 61.2155 69.2363 61.4707C69.4915 61.7259 69.6191 62.111 69.6191 62.626ZM67.5684 69.1201C67.5684 69.2887 67.6117 69.4163 67.6982 69.5029C67.7848 69.5895 67.9124 69.6328 68.0811 69.6328C68.2542 69.6328 68.3818 69.5895 68.4639 69.5029C68.5505 69.4163 68.5938 69.2887 68.5938 69.1201C68.5938 68.9469 68.5505 68.8193 68.4639 68.7373C68.3818 68.6507 68.2542 68.6074 68.0811 68.6074C67.9124 68.6074 67.7848 68.6507 67.6982 68.7373C67.6117 68.8193 67.5684 68.9469 67.5684 69.1201ZM69.6191 69.1201C69.6191 69.6351 69.4915 70.0202 69.2363 70.2754C68.9811 70.5306 68.596 70.6582 68.0811 70.6582C67.5661 70.6582 67.181 70.5306 66.9258 70.2754C66.6706 70.0202 66.543 69.6351 66.543 69.1201C66.543 68.6051 66.6706 68.2201 66.9258 67.9648C67.181 67.7096 67.5661 67.582 68.0811 67.582C68.596 67.582 68.9811 67.7096 69.2363 67.9648C69.4915 68.2201 69.6191 68.6051 69.6191 69.1201ZM79.873 60.7461V61.7715H73.0371V60.7461H79.873ZM74.1992 68.6074C74.541 67.9238 75.0879 67.582 75.8398 67.582H76.4551V68.6758H75.8398C75.0879 68.6758 74.541 69.0176 74.1992 69.7012V71H73.0371V66.2148C73.0371 63.9362 74.1764 62.7969 76.4551 62.7969C78.7337 62.7969 79.873 63.9362 79.873 66.2148V71H78.7109V66.2148C78.7109 64.6198 77.959 63.8223 76.4551 63.8223C74.9512 63.8223 74.1992 64.6198 74.1992 66.2148V68.6074ZM75.7715 57.8066H78.8477C77.7129 57.0319 76.8014 56.6445 76.1133 56.6445C75.2018 56.6445 74.7461 56.8382 74.7461 57.2256C74.7461 57.613 75.0879 57.8066 75.7715 57.8066ZM78.9844 56.7881V54.9355H79.873V58.6953H75.4297C74.2904 58.6953 73.7207 58.2396 73.7207 57.3281C73.7207 56.1888 74.5182 55.6191 76.1133 55.6191C76.6328 55.6191 77.1341 55.7194 77.6172 55.9199V54.9355H78.5059V56.4121C78.5651 56.4531 78.6221 56.4964 78.6768 56.542C78.7861 56.6286 78.8887 56.7106 78.9844 56.7881ZM83.291 63.4805C83.291 63.1615 83.1771 62.8197 82.9492 62.4551V62.1133C82.9492 61.2018 83.4049 60.7461 84.3164 60.7461H86.3672L87.9395 61.7715H88.4863C88.8053 61.7715 88.9648 61.612 88.9648 61.293V59.7207H90.127V61.293C90.127 62.2956 89.7396 62.7969 88.9648 62.7969H87.7344L86.1621 61.7715H84.7949C84.3392 61.7715 84.1113 61.9082 84.1113 62.1816C84.3392 62.5462 84.4531 62.9792 84.4531 63.4805V69.6328L86.709 67.7188L88.9648 69.6328V63.4805H90.127V71H89.1016L86.709 68.9492L84.3164 71H83.291V63.4805ZM90.127 60.7461H91.4941C93.3171 60.7461 94.2285 61.6576 94.2285 63.4805V71H93.0664V63.4805C93.0664 62.3411 92.5423 61.7715 91.4941 61.7715H90.127V60.7461ZM98.6719 68.9492V69.9746C98.7676 69.9746 98.8473 69.9495 98.9111 69.8994C98.9795 69.8447 99.0137 69.6989 99.0137 69.4619C99.0137 69.2249 98.9795 69.0814 98.9111 69.0312C98.8473 68.9766 98.7676 68.9492 98.6719 68.9492ZM97.6465 62.7969L99.4238 60.7461L101.064 62.1133L102.705 60.7461L104.482 62.7969V71H103.32V63.0703L102.637 62.2158L101.064 63.3438L99.4922 62.2158L98.8086 63.0703V67.9922C98.9134 67.9466 99.0342 67.9238 99.1709 67.9238C99.3076 67.9238 99.4512 68.0469 99.6016 68.293C99.7565 68.5345 99.834 68.9242 99.834 69.4619C99.834 69.9997 99.7337 70.3916 99.5332 70.6377C99.3372 70.8792 99.0729 71 98.7402 71C98.4076 71 98.1432 70.877 97.9473 70.6309C97.7923 70.444 97.6966 70.1683 97.6602 69.8037H97.6465V62.7969ZM101.748 57.2256C101.748 57.5218 102.147 57.6699 102.944 57.6699C103.97 57.6699 104.482 57.1003 104.482 55.9609V55.0723H105.508V55.9609C105.508 57.7839 104.653 58.6953 102.944 58.6953C101.463 58.6953 100.723 58.2054 100.723 57.2256C100.723 56.3825 101.083 55.9609 101.803 55.9609C102.227 55.9609 102.55 56.027 102.773 56.1592L102.568 56.9795C102.382 56.8838 102.211 56.8359 102.056 56.8359C101.851 56.8359 101.748 56.9658 101.748 57.2256ZM108.926 68.9492V69.9746C109.021 69.9746 109.101 69.9495 109.165 69.8994C109.233 69.8447 109.268 69.6989 109.268 69.4619C109.268 69.2249 109.233 69.0814 109.165 69.0312C109.101 68.9766 109.021 68.9492 108.926 68.9492ZM114.736 60.7461V61.7715H107.9V60.7461H114.736ZM107.9 66.2148C107.9 63.9362 109.04 62.7969 111.318 62.7969C113.597 62.7969 114.736 63.9362 114.736 66.2148V71H113.574V66.2148C113.574 64.6198 112.822 63.8223 111.318 63.8223C109.814 63.8223 109.062 64.6198 109.062 66.2148V67.9922C109.167 67.9466 109.288 67.9238 109.425 67.9238C109.562 67.9238 109.705 68.0469 109.855 68.293C110.01 68.5345 110.088 68.9242 110.088 69.4619C110.088 69.9997 109.988 70.3916 109.787 70.6377C109.591 70.8792 109.327 71 108.994 71C108.661 71 108.397 70.877 108.201 70.6309C108.046 70.444 107.951 70.1683 107.914 69.8037H107.9V66.2148ZM113.232 57.7246C112.777 57.0957 112.139 56.7812 111.318 56.7812C110.544 56.7812 110.156 57.0319 110.156 57.5332C110.156 57.7155 110.234 57.8066 110.389 57.8066C110.544 57.8066 110.762 57.7633 111.045 57.6768C111.327 57.5856 111.69 57.54 112.132 57.54C112.67 57.54 113.196 57.8568 113.711 58.4902L113.232 58.9004C112.959 58.5495 112.588 58.374 112.118 58.374C111.767 58.374 111.446 58.4287 111.154 58.5381C110.863 58.6429 110.523 58.6953 110.136 58.6953C109.557 58.6953 109.268 58.3649 109.268 57.7041C109.268 56.542 109.953 55.9609 111.325 55.9609C112.351 55.9609 113.146 56.3711 113.711 57.1914V57.0547C113.711 56.7585 113.62 56.4622 113.438 56.166L114.189 55.9609C114.417 56.2344 114.531 56.599 114.531 57.0547C114.531 57.2826 114.497 57.499 114.429 57.7041C114.36 57.9046 114.171 58.0049 113.861 58.0049C113.611 58.0049 113.401 57.9115 113.232 57.7246ZM119.316 66.2148V67.582C119.316 69.1771 120.068 69.9746 121.572 69.9746C123.076 69.9746 123.828 69.1771 123.828 67.582V66.2148H119.316ZM119.316 65.1895H123.828V63.4805C123.828 63.1615 123.6 62.8197 123.145 62.4551V61.7715C123.145 61.0879 123.486 60.7461 124.17 60.7461H125.332V61.7715H124.512C124.284 61.7715 124.17 61.8854 124.17 62.1133C124.717 62.4779 124.99 62.9336 124.99 63.4805V67.582C124.99 69.8607 123.851 71 121.572 71C119.294 71 118.154 69.8607 118.154 67.582V63.4805C118.154 63.1615 117.926 62.8197 117.471 62.4551V61.7715C117.471 61.0879 117.812 60.7461 118.496 60.7461H119.658V61.7715H118.838C118.61 61.7715 118.496 61.8854 118.496 62.1133C119.043 62.4779 119.316 62.9336 119.316 63.4805V65.1895ZM124.99 60.7461H126.357C128.18 60.7461 129.092 61.6576 129.092 63.4805V71H127.93V63.4805C127.93 62.3411 127.406 61.7715 126.357 61.7715H124.99V60.7461ZM139.346 66.8301V68.2656C139.346 70.0885 138.708 71 137.432 71C136.493 71 135.798 70.7152 135.347 70.1455C134.896 69.5758 134.337 69.291 133.672 69.291V71H132.51V66.8984H133.672V68.2656C134.469 68.2656 135.117 68.5505 135.613 69.1201C136.115 69.6898 136.623 69.9746 137.138 69.9746C137.835 69.9746 138.184 69.4049 138.184 68.2656V67.582C134.401 66.7617 132.51 65.3945 132.51 63.4805C132.51 61.6576 133.649 60.7461 135.928 60.7461C138.206 60.7461 139.346 61.6576 139.346 63.4805C139.346 64.752 138.712 65.3877 137.445 65.3877C137.158 65.3877 136.926 65.3216 136.748 65.1895V64.1641C137.072 64.2598 137.336 64.3076 137.541 64.3076C137.969 64.3076 138.184 64.0319 138.184 63.4805C138.184 62.3411 137.432 61.7715 135.928 61.7715C134.424 61.7715 133.672 62.3411 133.672 63.4805C133.672 64.8477 135.563 65.9642 139.346 66.8301ZM142.764 63.4805C142.764 63.1615 142.65 62.8197 142.422 62.4551V62.1133C142.422 61.2018 142.878 60.7461 143.789 60.7461H145.84L147.412 61.7715H147.959C148.278 61.7715 148.438 61.612 148.438 61.293V59.7207H149.6V61.293C149.6 62.2956 149.212 62.7969 148.438 62.7969H147.207L145.635 61.7715H144.268C143.812 61.7715 143.584 61.9082 143.584 62.1816C143.812 62.5462 143.926 62.9792 143.926 63.4805V69.6328L146.182 67.7188L148.438 69.6328V63.4805H149.6V71H148.574L146.182 68.9492L143.789 71H142.764V63.4805ZM145.84 57.1572C145.84 57.3258 145.883 57.4535 145.97 57.54C146.056 57.6266 146.184 57.6699 146.353 57.6699C146.526 57.6699 146.656 57.6266 146.742 57.54C146.824 57.4535 146.865 57.3258 146.865 57.1572C146.865 56.984 146.824 56.8564 146.742 56.7744C146.656 56.6878 146.526 56.6445 146.353 56.6445C146.184 56.6445 146.056 56.6878 145.97 56.7744C145.883 56.8564 145.84 56.984 145.84 57.1572ZM147.891 57.1572C147.891 57.6722 147.763 58.0573 147.508 58.3125C147.253 58.5677 146.868 58.6953 146.353 58.6953C145.838 58.6953 145.452 58.5677 145.197 58.3125C144.942 58.0573 144.814 57.6722 144.814 57.1572C144.814 56.6423 144.942 56.2572 145.197 56.002C145.452 55.7467 145.838 55.6191 146.353 55.6191C146.868 55.6191 147.253 55.7467 147.508 56.002C147.763 56.2572 147.891 56.6423 147.891 57.1572ZM159.854 66.8301V68.2656C159.854 70.0885 159.215 71 157.939 71C157.001 71 156.306 70.7152 155.854 70.1455C155.403 69.5758 154.845 69.291 154.18 69.291V71H153.018V66.8984H154.18V68.2656C154.977 68.2656 155.624 68.5505 156.121 69.1201C156.622 69.6898 157.131 69.9746 157.646 69.9746C158.343 69.9746 158.691 69.4049 158.691 68.2656V67.582C154.909 66.7617 153.018 65.3945 153.018 63.4805C153.018 61.6576 154.157 60.7461 156.436 60.7461C158.714 60.7461 159.854 61.6576 159.854 63.4805C159.854 64.752 159.22 65.3877 157.953 65.3877C157.666 65.3877 157.434 65.3216 157.256 65.1895V64.1641C157.579 64.2598 157.844 64.3076 158.049 64.3076C158.477 64.3076 158.691 64.0319 158.691 63.4805C158.691 62.3411 157.939 61.7715 156.436 61.7715C154.932 61.7715 154.18 62.3411 154.18 63.4805C154.18 64.8477 156.071 65.9642 159.854 66.8301ZM158.691 74.2812V71.6836H159.854V75.4434H158.691L157.803 74.5547L156.914 75.4434H155.752V71.6836H156.914V74.2812L157.803 73.3926L158.691 74.2812ZM164.434 62.2842C164.529 62.2842 164.609 62.2546 164.673 62.1953C164.741 62.1361 164.775 62.0518 164.775 61.9424C164.775 61.833 164.741 61.7487 164.673 61.6895C164.609 61.6302 164.529 61.6006 164.434 61.6006V62.2842ZM173.73 63.4805C173.73 63.1615 173.503 62.8197 173.047 62.4551V61.7715C173.047 61.0879 173.389 60.7461 174.072 60.7461H175.234V61.7715H174.414C174.186 61.7715 174.072 61.8854 174.072 62.1133C174.619 62.4779 174.893 62.9336 174.893 63.4805V67.582C174.893 69.8607 173.867 71 171.816 71C170.449 71 169.538 70.4941 169.082 69.4824C168.626 70.4941 167.715 71 166.348 71C164.297 71 163.271 69.8607 163.271 67.582V61.9424C163.271 61.5869 163.358 61.2998 163.531 61.0811C163.709 60.8577 163.998 60.7461 164.399 60.7461C164.8 60.7461 165.088 60.8577 165.261 61.0811C165.438 61.2998 165.527 61.5869 165.527 61.9424C165.527 62.2979 165.438 62.585 165.261 62.8037C165.11 62.9997 164.88 63.0977 164.57 63.0977C164.525 63.0977 164.479 63.0954 164.434 63.0908V67.582C164.434 69.1771 165.072 69.9746 166.348 69.9746C167.783 69.9746 168.501 69.1771 168.501 67.582V63.4805C168.501 63.1615 168.273 62.8197 167.817 62.4551V61.7715C167.817 61.0879 168.159 60.7461 168.843 60.7461H170.005V61.7715H169.185C168.957 61.7715 168.843 61.8854 168.843 62.1133C169.39 62.4779 169.663 62.9336 169.663 63.4805V67.582C169.663 69.1771 170.381 69.9746 171.816 69.9746C173.092 69.9746 173.73 69.1771 173.73 67.582V63.4805ZM179.644 69.9746C179.694 69.9746 179.735 69.9541 179.767 69.9131C179.799 69.8675 179.814 69.7171 179.814 69.4619C179.814 69.2067 179.799 69.0586 179.767 69.0176C179.735 68.972 179.694 68.9492 179.644 68.9492H179.473V69.9746H179.644ZM179.473 67.9375C179.527 67.9284 179.584 67.9238 179.644 67.9238C179.908 67.9238 180.115 68.0355 180.266 68.2588C180.421 68.4775 180.498 68.8786 180.498 69.4619C180.498 70.0452 180.421 70.4486 180.266 70.6719C180.115 70.8906 179.828 71 179.404 71C178.98 71 178.691 70.8906 178.536 70.6719C178.386 70.4486 178.311 70.0452 178.311 69.4619V63.4805C178.219 63.1615 177.992 62.8197 177.627 62.4551V61.7715C177.627 61.0879 177.969 60.7461 178.652 60.7461H179.814V61.7715H178.994C178.766 61.7715 178.652 61.8854 178.652 62.1133C179.199 62.4779 179.473 62.9336 179.473 63.4805V67.9375ZM178.55 59.1055C179.006 59.1055 179.233 58.8548 179.233 58.3535C179.233 57.3965 178.892 56.918 178.208 56.918C177.912 56.918 177.661 57.0091 177.456 57.1914L177.114 56.3711C177.41 56.0977 177.775 55.9609 178.208 55.9609C179.53 55.9609 180.19 56.7585 180.19 58.3535C180.19 59.4928 179.644 60.0625 178.55 60.0625C177.593 60.0625 177.114 59.6797 177.114 58.9141C177.114 58.5358 177.199 58.2692 177.367 58.1143C177.54 57.9548 177.841 57.875 178.27 57.875V58.6953C178.137 58.6953 178.071 58.7637 178.071 58.9004C178.071 59.0371 178.231 59.1055 178.55 59.1055ZM182.891 63.4805H184.053V69.6328L186.309 67.582L188.564 69.6328V63.4805H189.727V71H188.701L186.309 68.9492L183.916 71H182.891V63.4805ZM184.053 61.833C184.053 62.0199 184.805 62.1133 186.309 62.1133C187.812 62.1133 188.564 61.6576 188.564 60.7461V59.7207H189.727V60.7461C189.727 62.3411 188.587 63.1387 186.309 63.1387C184.03 63.1387 182.891 62.7057 182.891 61.8398C182.891 61.1107 183.269 60.7461 184.025 60.7461C184.504 60.7461 184.832 60.8122 185.01 60.9443V61.833C184.686 61.7373 184.447 61.6895 184.292 61.6895C184.132 61.6895 184.053 61.7373 184.053 61.833ZM194.17 68.9492V69.9746C194.266 69.9746 194.345 69.9495 194.409 69.8994C194.478 69.8447 194.512 69.6989 194.512 69.4619C194.512 69.2249 194.478 69.0814 194.409 69.0312C194.345 68.9766 194.266 68.9492 194.17 68.9492ZM204.766 63.4805V67.582C204.766 69.8607 203.74 71 201.689 71C199.479 71 198.374 69.8607 198.374 67.582V64.1641C198.374 62.569 197.697 61.7715 196.344 61.7715C194.986 61.7715 194.307 62.569 194.307 64.1641V67.9922C194.411 67.9466 194.532 67.9238 194.669 67.9238C194.806 67.9238 194.949 68.0469 195.1 68.293C195.255 68.5345 195.332 68.9242 195.332 69.4619C195.332 69.9997 195.232 70.3916 195.031 70.6377C194.835 70.8792 194.571 71 194.238 71C193.906 71 193.641 70.877 193.445 70.6309C193.29 70.444 193.195 70.1683 193.158 69.8037H193.145V64.1641C193.145 61.8854 194.211 60.7461 196.344 60.7461C198.472 60.7461 199.536 61.8854 199.536 64.1641V67.582C199.536 69.1771 200.254 69.9746 201.689 69.9746C202.965 69.9746 203.604 69.1771 203.604 67.582V63.4805C203.604 63.1615 203.376 62.8197 202.92 62.4551V61.7715C202.92 61.0879 203.262 60.7461 203.945 60.7461H205.107V61.7715H204.287C204.059 61.7715 203.945 61.8854 203.945 62.1133C204.492 62.4779 204.766 62.9336 204.766 63.4805ZM209.346 66.2148V67.582C209.346 69.1771 210.098 69.9746 211.602 69.9746C213.105 69.9746 213.857 69.1771 213.857 67.582V66.2148H209.346ZM209.346 65.1895H213.857V63.4805C213.857 63.1615 213.63 62.8197 213.174 62.4551V61.7715C213.174 61.0879 213.516 60.7461 214.199 60.7461H215.361V61.7715H214.541C214.313 61.7715 214.199 61.8854 214.199 62.1133C214.746 62.4779 215.02 62.9336 215.02 63.4805V67.582C215.02 69.8607 213.88 71 211.602 71C209.323 71 208.184 69.8607 208.184 67.582V63.4805C208.184 63.1615 207.956 62.8197 207.5 62.4551V61.7715C207.5 61.0879 207.842 60.7461 208.525 60.7461H209.688V61.7715H208.867C208.639 61.7715 208.525 61.8854 208.525 62.1133C209.072 62.4779 209.346 62.9336 209.346 63.4805V65.1895ZM215.02 60.7461H216.387C218.21 60.7461 219.121 61.6576 219.121 63.4805V71H217.959V63.4805C217.959 62.3411 217.435 61.7715 216.387 61.7715H215.02V60.7461ZM229.375 66.8301V68.2656C229.375 70.0885 228.737 71 227.461 71C226.522 71 225.827 70.7152 225.376 70.1455C224.925 69.5758 224.367 69.291 223.701 69.291V71H222.539V66.8984H223.701V68.2656C224.499 68.2656 225.146 68.5505 225.643 69.1201C226.144 69.6898 226.652 69.9746 227.167 69.9746C227.864 69.9746 228.213 69.4049 228.213 68.2656V67.582C224.43 66.7617 222.539 65.3945 222.539 63.4805C222.539 61.6576 223.678 60.7461 225.957 60.7461C228.236 60.7461 229.375 61.6576 229.375 63.4805C229.375 64.752 228.742 65.3877 227.475 65.3877C227.188 65.3877 226.955 65.3216 226.777 65.1895V64.1641C227.101 64.2598 227.365 64.3076 227.57 64.3076C227.999 64.3076 228.213 64.0319 228.213 63.4805C228.213 62.3411 227.461 61.7715 225.957 61.7715C224.453 61.7715 223.701 62.3411 223.701 63.4805C223.701 64.8477 225.592 65.9642 229.375 66.8301ZM232.793 66.8301C236.576 66.1921 238.467 65.0755 238.467 63.4805C238.467 62.3411 237.715 61.7715 236.211 61.7715C234.707 61.7715 233.955 62.3411 233.955 63.4805C233.955 64.0319 234.169 64.3076 234.598 64.3076C234.803 64.3076 235.067 64.2598 235.391 64.1641V65.1895C235.213 65.3216 234.98 65.3877 234.693 65.3877C233.426 65.3877 232.793 64.752 232.793 63.4805C232.793 61.6576 233.932 60.7461 236.211 60.7461C238.49 60.7461 239.629 61.6576 239.629 63.4805C239.629 65.3945 237.738 66.7617 233.955 67.582V68.2656C233.955 69.4049 234.707 69.9746 236.211 69.9746C237.715 69.9746 238.467 69.4049 238.467 68.2656C238.467 67.582 238.148 67.1035 237.51 66.8301L238.535 66.2832C239.264 66.6934 239.629 67.3542 239.629 68.2656C239.629 70.0885 238.49 71 236.211 71C233.932 71 232.793 70.0885 232.793 68.2656V66.8301ZM234.16 73.666C234.16 74.3587 234.306 74.7051 234.598 74.7051C234.757 74.7051 234.976 74.6572 235.254 74.5615V75.2451C235.122 75.3773 234.775 75.4434 234.215 75.4434C233.495 75.4434 233.135 74.8509 233.135 73.666C233.135 72.3444 233.693 71.6836 234.81 71.6836C235.767 71.6836 236.423 72.1393 236.778 73.0508C237.129 73.9622 237.464 74.418 237.783 74.418C238.102 74.418 238.512 73.5065 239.014 71.6836L239.971 71.957C239.401 74.2812 238.713 75.4434 237.906 75.4434C237.141 75.4434 236.582 74.9876 236.231 74.0762C235.876 73.1647 235.402 72.709 234.81 72.709C234.377 72.709 234.16 73.028 234.16 73.666ZM238.535 55.7559C238.458 55.7559 238.392 55.7809 238.337 55.8311C238.287 55.8766 238.262 55.9427 238.262 56.0293C238.262 56.1068 238.287 56.1706 238.337 56.2207C238.392 56.2754 238.458 56.3027 238.535 56.3027C238.622 56.3027 238.688 56.2754 238.733 56.2207C238.784 56.1706 238.809 56.1068 238.809 56.0293C238.809 55.9427 238.784 55.8766 238.733 55.8311C238.688 55.7809 238.622 55.7559 238.535 55.7559ZM235.527 57.8066H238.604C237.469 57.0319 236.557 56.6445 235.869 56.6445C234.958 56.6445 234.502 56.8382 234.502 57.2256C234.502 57.613 234.844 57.8066 235.527 57.8066ZM237.441 55.9473C237.46 55.651 237.558 55.4141 237.735 55.2363C237.936 55.0358 238.202 54.9355 238.535 54.9355C238.868 54.9355 239.134 55.0358 239.335 55.2363C239.531 55.4323 239.629 55.6966 239.629 56.0293C239.629 56.362 239.531 56.6263 239.335 56.8223C239.244 56.9134 239.141 56.984 239.027 57.0342C239.428 57.3896 239.629 57.6471 239.629 57.8066V58.6953H235.186C234.046 58.6953 233.477 58.2396 233.477 57.3281C233.477 56.1888 234.274 55.6191 235.869 55.6191C236.416 55.6191 236.94 55.7285 237.441 55.9473ZM244.209 66.2148V67.582C244.209 69.1771 244.961 69.9746 246.465 69.9746C247.969 69.9746 248.721 69.1771 248.721 67.582V66.2148H244.209ZM244.209 65.1895H248.721V63.4805C248.721 63.1615 248.493 62.8197 248.037 62.4551V61.7715C248.037 61.0879 248.379 60.7461 249.062 60.7461H250.225V61.7715H249.404C249.176 61.7715 249.062 61.8854 249.062 62.1133C249.609 62.4779 249.883 62.9336 249.883 63.4805V67.582C249.883 69.8607 248.743 71 246.465 71C244.186 71 243.047 69.8607 243.047 67.582V63.4805C243.047 63.1615 242.819 62.8197 242.363 62.4551V61.7715C242.363 61.0879 242.705 60.7461 243.389 60.7461H244.551V61.7715H243.73C243.503 61.7715 243.389 61.8854 243.389 62.1133C243.936 62.4779 244.209 62.9336 244.209 63.4805V65.1895ZM254.326 68.9492V69.9746C254.422 69.9746 254.502 69.9495 254.565 69.8994C254.634 69.8447 254.668 69.6989 254.668 69.4619C254.668 69.2249 254.634 69.0814 254.565 69.0312C254.502 68.9766 254.422 68.9492 254.326 68.9492ZM264.922 63.4805V67.582C264.922 69.8607 263.896 71 261.846 71C259.635 71 258.53 69.8607 258.53 67.582V66.2148C258.53 64.6198 257.854 63.8223 256.5 63.8223C255.142 63.8223 254.463 64.6198 254.463 66.2148V67.9922C254.568 67.9466 254.688 67.9238 254.825 67.9238C254.962 67.9238 255.105 68.0469 255.256 68.293C255.411 68.5345 255.488 68.9242 255.488 69.4619C255.488 69.9997 255.388 70.3916 255.188 70.6377C254.992 70.8792 254.727 71 254.395 71C254.062 71 253.798 70.877 253.602 70.6309C253.447 70.444 253.351 70.1683 253.314 69.8037H253.301V66.2148C253.301 64.793 253.715 63.8154 254.545 63.2822C254.34 62.9404 254.039 62.6647 253.643 62.4551V61.7715C253.643 61.0879 253.984 60.7461 254.668 60.7461H258.428V61.7715H255.146C254.919 61.7715 254.805 61.8854 254.805 62.1133C255.16 62.3047 255.44 62.5553 255.646 62.8652C255.91 62.8197 256.195 62.7969 256.5 62.7969C258.628 62.7969 259.692 63.9362 259.692 66.2148V67.582C259.692 69.1771 260.41 69.9746 261.846 69.9746C263.122 69.9746 263.76 69.1771 263.76 67.582V63.4805C263.76 63.1615 263.532 62.8197 263.076 62.4551V61.7715C263.076 61.0879 263.418 60.7461 264.102 60.7461H265.264V61.7715H264.443C264.215 61.7715 264.102 61.8854 264.102 62.1133C264.648 62.4779 264.922 62.9336 264.922 63.4805ZM264.922 60.7461H266.289C268.112 60.7461 269.023 61.6576 269.023 63.4805V71H267.861V63.4805C267.861 62.3411 267.337 61.7715 266.289 61.7715H264.922V60.7461ZM272.441 69.9746V68.9492H272.271C272.22 68.9492 272.179 68.972 272.147 69.0176C272.116 69.0586 272.1 69.2067 272.1 69.4619C272.1 69.7171 272.116 69.8675 272.147 69.9131C272.179 69.9541 272.22 69.9746 272.271 69.9746H272.441ZM273.604 63.4805V69.4619C273.604 70.0452 273.526 70.4486 273.371 70.6719C273.221 70.8906 272.934 71 272.51 71C272.086 71 271.797 70.8906 271.642 70.6719C271.491 70.4486 271.416 70.0452 271.416 69.4619C271.416 68.8786 271.491 68.4775 271.642 68.2588C271.797 68.0355 272.006 67.9238 272.271 67.9238C272.33 67.9238 272.387 67.9284 272.441 67.9375V63.4805C272.35 63.1615 272.122 62.8197 271.758 62.4551V61.7715C271.758 61.0879 272.1 60.7461 272.783 60.7461H273.945V61.7715H273.125C272.897 61.7715 272.783 61.8854 272.783 62.1133C273.33 62.4779 273.604 62.9336 273.604 63.4805ZM278.354 69.9746C278.405 69.9746 278.446 69.9541 278.478 69.9131C278.509 69.8675 278.525 69.7171 278.525 69.4619C278.525 69.2067 278.509 69.0586 278.478 69.0176C278.446 68.972 278.405 68.9492 278.354 68.9492H278.184V69.9746H278.354ZM278.184 67.9375C278.238 67.9284 278.295 67.9238 278.354 67.9238C278.619 67.9238 278.826 68.0355 278.977 68.2588C279.132 68.4775 279.209 68.8786 279.209 69.4619C279.209 70.0452 279.132 70.4486 278.977 70.6719C278.826 70.8906 278.539 71 278.115 71C277.691 71 277.402 70.8906 277.247 70.6719C277.097 70.4486 277.021 70.0452 277.021 69.4619V63.4805C276.93 63.1615 276.702 62.8197 276.338 62.4551V61.7715C276.338 61.0879 276.68 60.7461 277.363 60.7461H278.525V61.7715H277.705C277.477 61.7715 277.363 61.8854 277.363 62.1133C277.91 62.4779 278.184 62.9336 278.184 63.4805V67.9375ZM288.438 66.8301V68.2656C288.438 70.0885 287.799 71 286.523 71C285.585 71 284.89 70.7152 284.438 70.1455C283.987 69.5758 283.429 69.291 282.764 69.291V71H281.602V66.8984H282.764V68.2656C283.561 68.2656 284.208 68.5505 284.705 69.1201C285.206 69.6898 285.715 69.9746 286.229 69.9746C286.927 69.9746 287.275 69.4049 287.275 68.2656V67.582C283.493 66.7617 281.602 65.3945 281.602 63.4805C281.602 61.6576 282.741 60.7461 285.02 60.7461C287.298 60.7461 288.438 61.6576 288.438 63.4805C288.438 64.752 287.804 65.3877 286.537 65.3877C286.25 65.3877 286.018 65.3216 285.84 65.1895V64.1641C286.163 64.2598 286.428 64.3076 286.633 64.3076C287.061 64.3076 287.275 64.0319 287.275 63.4805C287.275 62.3411 286.523 61.7715 285.02 61.7715C283.516 61.7715 282.764 62.3411 282.764 63.4805C282.764 64.8477 284.655 65.9642 288.438 66.8301ZM291.377 61.0742V59.6523C291.377 59.2422 291.195 59.0371 290.83 59.0371H290.488V58.0117H291.172C292.083 58.0117 292.539 58.4674 292.539 59.3789V71H291.377V63.4736C291.372 62.3389 290.848 61.7715 289.805 61.7715H288.438V60.7461H289.805C290.438 60.7461 290.962 60.8555 291.377 61.0742ZM51.709 91.8301C55.4915 91.1921 57.3828 90.0755 57.3828 88.4805C57.3828 87.3411 56.6309 86.7715 55.127 86.7715C53.623 86.7715 52.8711 87.3411 52.8711 88.4805C52.8711 89.0319 53.0853 89.3076 53.5137 89.3076C53.7188 89.3076 53.9831 89.2598 54.3066 89.1641V90.1895C54.1289 90.3216 53.8965 90.3877 53.6094 90.3877C52.3424 90.3877 51.709 89.752 51.709 88.4805C51.709 86.6576 52.8483 85.7461 55.127 85.7461C57.4056 85.7461 58.5449 86.6576 58.5449 88.4805C58.5449 90.3945 56.6536 91.7617 52.8711 92.582V93.2656C52.8711 94.4049 53.623 94.9746 55.127 94.9746C56.6309 94.9746 57.3828 94.4049 57.3828 93.2656C57.3828 92.582 57.0638 92.1035 56.4258 91.8301L57.4512 91.2832C58.1803 91.6934 58.5449 92.3542 58.5449 93.2656C58.5449 95.0885 57.4056 96 55.127 96C52.8483 96 51.709 95.0885 51.709 93.2656V91.8301ZM58.5449 85.7461H59.9121C61.735 85.7461 62.6465 86.6576 62.6465 88.4805V96H61.4844V88.4805C61.4844 87.3411 60.9603 86.7715 59.9121 86.7715H58.5449V85.7461ZM71.1914 86.7852C71.1914 86.6484 71.1003 86.5801 70.918 86.5801C70.7357 86.5801 70.6445 86.6484 70.6445 86.7852C70.6445 86.9082 70.7357 87.0312 70.918 87.1543C71.1003 87.0586 71.1914 86.9355 71.1914 86.7852ZM65.8936 90.1895C65.8434 90.1895 65.8024 90.2122 65.7705 90.2578C65.7386 90.2988 65.7227 90.4469 65.7227 90.7021C65.7227 90.9574 65.7386 91.1077 65.7705 91.1533C65.8024 91.1943 65.8434 91.2148 65.8936 91.2148H66.0645V90.1895H65.8936ZM67.2266 94.6328L69.4824 92.582L71.7383 94.6328V89.8477C71.7383 89.3555 71.3691 88.8337 70.6309 88.2822C70.2572 88.6423 69.6237 88.8223 68.7305 88.8223C67.737 88.8223 67.0443 88.6924 66.6523 88.4326C66.2604 88.1729 66.0645 87.8128 66.0645 87.3525C66.0645 86.8968 66.1556 86.4707 66.3379 86.0742C66.5202 85.6732 66.6113 85.3473 66.6113 85.0967C66.6113 84.846 66.3151 84.7207 65.7227 84.7207V83.6953C66.9987 83.6953 67.6367 84.1283 67.6367 84.9941C67.6367 85.3359 67.5456 85.7188 67.3633 86.1426C67.181 86.5618 67.0898 86.8604 67.0898 87.0381C67.0898 87.2204 67.2038 87.3936 67.4316 87.5576C67.6595 87.7171 68.1084 87.7969 68.7783 87.7969C69.3571 87.7969 69.7741 87.7217 70.0293 87.5713C69.8014 87.3844 69.6875 87.0951 69.6875 86.7031C69.6875 86.0651 70.0977 85.7461 70.918 85.7461C71.7839 85.7461 72.2168 86.1335 72.2168 86.9082C72.2168 87.3047 72.0391 87.6419 71.6836 87.9199C72.4948 88.5078 72.9004 89.1504 72.9004 89.8477V96H71.5332L69.4824 93.9492L67.4316 96H66.0645V92.2266C66.0098 92.2357 65.9528 92.2402 65.8936 92.2402C65.6292 92.2402 65.4196 92.1309 65.2646 91.9121C65.1143 91.6888 65.0391 91.2855 65.0391 90.7021C65.0391 90.1188 65.1143 89.7178 65.2646 89.499C65.4196 89.2757 65.709 89.1641 66.1328 89.1641C66.5566 89.1641 66.8438 89.2757 66.9941 89.499C67.1491 89.7178 67.2266 90.1188 67.2266 90.7021V94.6328ZM77.4805 96H76.3184V91.2148C76.3184 88.9362 77.4577 87.7969 79.7363 87.7969C82.015 87.7969 83.1543 88.9362 83.1543 91.2148V96H81.9922V91.2148C81.9922 89.6198 81.2402 88.8223 79.7363 88.8223C78.2324 88.8223 77.4805 89.6198 77.4805 91.2148V96ZM83.1543 85.7461V86.7715H76.3184V85.7461H83.1543ZM81.5889 97.8457H78.3691C78.1413 97.8457 78.0273 97.9141 78.0273 98.0508C78.0273 98.1875 78.1413 98.2559 78.3691 98.2559H81.5889V97.8457ZM82.6826 99.4863C82.8193 99.4863 82.9105 99.4681 82.9561 99.4316C83.0016 99.3997 83.0244 99.3587 83.0244 99.3086C83.0244 99.2585 82.9971 99.2197 82.9424 99.1924C82.8831 99.1696 82.7965 99.1536 82.6826 99.1445H82.4775C82.4775 99.3724 82.5459 99.4863 82.6826 99.4863ZM82.4775 96.957H83.4961V97.8457H82.4775V98.2559H82.9082C83.2363 98.2559 83.4756 98.3356 83.626 98.4951C83.7718 98.6546 83.8447 98.887 83.8447 99.1924C83.8447 99.5934 83.765 99.8669 83.6055 100.013C83.446 100.163 83.1611 100.238 82.751 100.238C81.9762 100.238 81.5889 99.9079 81.5889 99.2471V99.1445H78.0273C77.3438 99.1445 77.002 98.7799 77.002 98.0508C77.0065 97.3216 77.3506 96.957 78.0342 96.957H81.5889V96.3418H82.4775V96.957ZM83.1543 100.785V104.203H81.9922V100.785H83.1543ZM91.6992 86.7852C91.6992 86.6484 91.6081 86.5801 91.4258 86.5801C91.2435 86.5801 91.1523 86.6484 91.1523 86.7852C91.1523 86.9082 91.2435 87.0312 91.4258 87.1543C91.6081 87.0586 91.6992 86.9355 91.6992 86.7852ZM86.4014 90.1895C86.3512 90.1895 86.3102 90.2122 86.2783 90.2578C86.2464 90.2988 86.2305 90.4469 86.2305 90.7021C86.2305 90.9574 86.2464 91.1077 86.2783 91.1533C86.3102 91.1943 86.3512 91.2148 86.4014 91.2148H86.5723V90.1895H86.4014ZM87.7344 94.6328L89.9902 92.582L92.2461 94.6328V89.8477C92.2461 89.3555 91.877 88.8337 91.1387 88.2822C90.765 88.6423 90.1315 88.8223 89.2383 88.8223C88.2448 88.8223 87.5521 88.6924 87.1602 88.4326C86.7682 88.1729 86.5723 87.8128 86.5723 87.3525C86.5723 86.8968 86.6634 86.4707 86.8457 86.0742C87.028 85.6732 87.1191 85.3473 87.1191 85.0967C87.1191 84.846 86.8229 84.7207 86.2305 84.7207V83.6953C87.5065 83.6953 88.1445 84.1283 88.1445 84.9941C88.1445 85.3359 88.0534 85.7188 87.8711 86.1426C87.6888 86.5618 87.5977 86.8604 87.5977 87.0381C87.5977 87.2204 87.7116 87.3936 87.9395 87.5576C88.1673 87.7171 88.6162 87.7969 89.2861 87.7969C89.8649 87.7969 90.2819 87.7217 90.5371 87.5713C90.3092 87.3844 90.1953 87.0951 90.1953 86.7031C90.1953 86.0651 90.6055 85.7461 91.4258 85.7461C92.2917 85.7461 92.7246 86.1335 92.7246 86.9082C92.7246 87.3047 92.5469 87.6419 92.1914 87.9199C93.0026 88.5078 93.4082 89.1504 93.4082 89.8477V96H92.041L89.9902 93.9492L87.9395 96H86.5723V92.2266C86.5176 92.2357 86.4606 92.2402 86.4014 92.2402C86.137 92.2402 85.9274 92.1309 85.7725 91.9121C85.6221 91.6888 85.5469 91.2855 85.5469 90.7021C85.5469 90.1188 85.6221 89.7178 85.7725 89.499C85.9274 89.2757 86.2168 89.1641 86.6406 89.1641C87.0645 89.1641 87.3516 89.2757 87.502 89.499C87.6569 89.7178 87.7344 90.1188 87.7344 90.7021V94.6328ZM101.796 94.9746C101.846 94.9746 101.887 94.9541 101.919 94.9131C101.951 94.8675 101.967 94.7171 101.967 94.4619C101.967 94.2067 101.951 94.0586 101.919 94.0176C101.887 93.972 101.846 93.9492 101.796 93.9492H101.625V94.9746H101.796ZM101.625 92.9375C101.68 92.9284 101.737 92.9238 101.796 92.9238C102.06 92.9238 102.268 93.0355 102.418 93.2588C102.573 93.4775 102.65 93.8786 102.65 94.4619C102.65 95.0452 102.573 95.4486 102.418 95.6719C102.268 95.8906 101.98 96 101.557 96C101.133 96 100.843 95.8906 100.688 95.6719C100.538 95.4486 100.463 95.0452 100.463 94.4619V88.4805C100.372 88.1615 100.144 87.8197 99.7793 87.4551V86.7715C99.7793 86.0879 100.121 85.7461 100.805 85.7461H101.967V86.7715H101.146C100.919 86.7715 100.805 86.8854 100.805 87.1133C101.352 87.4779 101.625 87.9336 101.625 88.4805V92.9375ZM105.043 88.4805H106.205V94.6328L108.461 92.582L110.717 94.6328V88.4805H111.879V96H110.854L108.461 93.9492L106.068 96H105.043V88.4805ZM106.205 86.833C106.205 87.0199 106.957 87.1133 108.461 87.1133C109.965 87.1133 110.717 86.6576 110.717 85.7461V84.7207H111.879V85.7461C111.879 87.3411 110.74 88.1387 108.461 88.1387C106.182 88.1387 105.043 87.7057 105.043 86.8398C105.043 86.1107 105.421 85.7461 106.178 85.7461C106.656 85.7461 106.984 85.8122 107.162 85.9443V86.833C106.839 86.7373 106.599 86.6895 106.444 86.6895C106.285 86.6895 106.205 86.7373 106.205 86.833ZM107.777 82.8066H110.854C109.719 82.0319 108.807 81.6445 108.119 81.6445C107.208 81.6445 106.752 81.8382 106.752 82.2256C106.752 82.613 107.094 82.8066 107.777 82.8066ZM110.854 81.6787V79.9355H111.879V83.6953H107.436C106.296 83.6953 105.727 83.2396 105.727 82.3281C105.727 81.1888 106.524 80.6191 108.119 80.6191C109.031 80.6191 109.885 80.9268 110.683 81.542C110.742 81.5876 110.799 81.6331 110.854 81.6787ZM116.459 91.2148V92.582C116.459 94.1771 117.211 94.9746 118.715 94.9746C120.219 94.9746 120.971 94.1771 120.971 92.582V91.2148H116.459ZM116.459 90.1895H120.971V88.4805C120.971 88.1615 120.743 87.8197 120.287 87.4551V86.7715C120.287 86.0879 120.629 85.7461 121.312 85.7461H122.475V86.7715H121.654C121.426 86.7715 121.312 86.8854 121.312 87.1133C121.859 87.4779 122.133 87.9336 122.133 88.4805V92.582C122.133 94.8607 120.993 96 118.715 96C116.436 96 115.297 94.8607 115.297 92.582V88.4805C115.297 88.1615 115.069 87.8197 114.613 87.4551V86.7715C114.613 86.0879 114.955 85.7461 115.639 85.7461H116.801V86.7715H115.98C115.753 86.7715 115.639 86.8854 115.639 87.1133C116.186 87.4779 116.459 87.9336 116.459 88.4805V90.1895ZM126.234 88.4805V100.443H124.73L123.603 99.0762L122.475 100.443H120.971V96.6836H122.133V99.2812L123.603 97.5723L125.072 99.2812V88.4805C125.072 88.1615 124.844 87.8197 124.389 87.4551V86.7715C124.389 86.0879 124.73 85.7461 125.414 85.7461H126.576V86.7715H125.756C125.528 86.7715 125.414 86.8854 125.414 87.1133C125.961 87.4779 126.234 87.9336 126.234 88.4805ZM122.133 82.8066H125.209C124.074 82.0319 123.163 81.6445 122.475 81.6445C121.563 81.6445 121.107 81.8382 121.107 82.2256C121.107 82.613 121.449 82.8066 122.133 82.8066ZM125.209 81.6787V79.9355H126.234V83.6953H121.791C120.652 83.6953 120.082 83.2396 120.082 82.3281C120.082 81.1888 120.88 80.6191 122.475 80.6191C123.386 80.6191 124.241 80.9268 125.038 81.542C125.097 81.5876 125.154 81.6331 125.209 81.6787ZM135.326 89.335C135.23 89.335 135.148 89.3646 135.08 89.4238C135.016 89.4831 134.984 89.5674 134.984 89.6768C134.984 89.7861 135.016 89.8704 135.08 89.9297C135.148 89.9889 135.23 90.0186 135.326 90.0186V89.335ZM129.652 88.4805C129.652 88.1615 129.538 87.8197 129.311 87.4551V87.1133C129.311 86.2018 129.766 85.7461 130.678 85.7461H132.729L134.301 86.7715H134.848C135.167 86.7715 135.326 86.612 135.326 86.293V84.7207H136.488V86.293C136.488 87.2956 136.101 87.7969 135.326 87.7969H134.096L132.523 86.7715H131.156C130.701 86.7715 130.473 86.9082 130.473 87.1816C130.701 87.5462 130.814 87.9792 130.814 88.4805V94.6328L133.07 92.7188L135.326 94.6328V90.8252C135.281 90.8298 135.235 90.832 135.189 90.832C134.88 90.832 134.649 90.734 134.499 90.5381C134.321 90.3193 134.232 90.0322 134.232 89.6768C134.232 89.3213 134.319 89.0342 134.492 88.8154C134.67 88.5921 134.959 88.4805 135.36 88.4805C135.761 88.4805 136.049 88.5921 136.222 88.8154C136.399 89.0342 136.488 89.3213 136.488 89.6768V96H135.463L133.07 93.9492L130.678 96H129.652V88.4805ZM131.02 99.7598C131.115 99.7598 131.174 99.737 131.197 99.6914C131.215 99.6504 131.225 99.5934 131.225 99.5205C131.225 99.4476 131.215 99.3883 131.197 99.3428C131.174 99.3018 131.115 99.2812 131.02 99.2812V99.7598ZM129.994 98.5977C129.994 97.3216 131.02 96.6836 133.07 96.6836C135.121 96.6836 136.146 97.3672 136.146 98.7344V100.443H135.121V98.7344C135.121 98.0508 134.438 97.709 133.07 97.709C131.703 97.709 131.02 98.0052 131.02 98.5977C131.307 98.5977 131.528 98.6729 131.683 98.8232C131.833 98.9782 131.908 99.2106 131.908 99.5205C131.908 99.8304 131.822 100.061 131.648 100.211C131.471 100.366 131.238 100.443 130.951 100.443C130.664 100.443 130.434 100.366 130.261 100.211C130.083 100.061 129.994 99.8304 129.994 99.5205V98.5977ZM140.932 93.9492V94.9746C141.027 94.9746 141.107 94.9495 141.171 94.8994C141.239 94.8447 141.273 94.6989 141.273 94.4619C141.273 94.2249 141.239 94.0814 141.171 94.0312C141.107 93.9766 141.027 93.9492 140.932 93.9492ZM151.527 88.4805V92.582C151.527 94.8607 150.502 96 148.451 96C146.241 96 145.136 94.8607 145.136 92.582V89.1641C145.136 87.569 144.459 86.7715 143.105 86.7715C141.747 86.7715 141.068 87.569 141.068 89.1641V92.9922C141.173 92.9466 141.294 92.9238 141.431 92.9238C141.567 92.9238 141.711 93.0469 141.861 93.293C142.016 93.5345 142.094 93.9242 142.094 94.4619C142.094 94.9997 141.993 95.3916 141.793 95.6377C141.597 95.8792 141.333 96 141 96C140.667 96 140.403 95.877 140.207 95.6309C140.052 95.444 139.956 95.1683 139.92 94.8037H139.906V89.1641C139.906 86.8854 140.973 85.7461 143.105 85.7461C145.234 85.7461 146.298 86.8854 146.298 89.1641V92.582C146.298 94.1771 147.016 94.9746 148.451 94.9746C149.727 94.9746 150.365 94.1771 150.365 92.582V88.4805C150.365 88.1615 150.137 87.8197 149.682 87.4551V86.7715C149.682 86.0879 150.023 85.7461 150.707 85.7461H151.869V86.7715H151.049C150.821 86.7715 150.707 86.8854 150.707 87.1133C151.254 87.4779 151.527 87.9336 151.527 88.4805ZM148.622 80.6191V83.6953H147.597V80.6191H148.622ZM155.971 93.9492V94.9746C156.066 94.9746 156.146 94.9495 156.21 94.8994C156.278 94.8447 156.312 94.6989 156.312 94.4619C156.312 94.2249 156.278 94.0814 156.21 94.0312C156.146 93.9766 156.066 93.9492 155.971 93.9492ZM154.945 87.7969L156.723 85.7461L158.363 87.1133L160.004 85.7461L161.781 87.7969V96H160.619V88.0703L159.936 87.2158L158.363 88.3438L156.791 87.2158L156.107 88.0703V92.9922C156.212 92.9466 156.333 92.9238 156.47 92.9238C156.606 92.9238 156.75 93.0469 156.9 93.293C157.055 93.5345 157.133 93.9242 157.133 94.4619C157.133 94.9997 157.033 95.3916 156.832 95.6377C156.636 95.8792 156.372 96 156.039 96C155.706 96 155.442 95.877 155.246 95.6309C155.091 95.444 154.995 95.1683 154.959 94.8037H154.945V87.7969ZM159.047 82.2256C159.047 82.5218 159.446 82.6699 160.243 82.6699C161.269 82.6699 161.781 82.1003 161.781 80.9609V80.0723H162.807V80.9609C162.807 82.7839 161.952 83.6953 160.243 83.6953C158.762 83.6953 158.021 83.2054 158.021 82.2256C158.021 81.3825 158.382 80.9609 159.102 80.9609C159.525 80.9609 159.849 81.027 160.072 81.1592L159.867 81.9795C159.68 81.8838 159.509 81.8359 159.354 81.8359C159.149 81.8359 159.047 81.9658 159.047 82.2256ZM166.225 93.9492V94.9746C166.32 94.9746 166.4 94.9495 166.464 94.8994C166.532 94.8447 166.566 94.6989 166.566 94.4619C166.566 94.2249 166.532 94.0814 166.464 94.0312C166.4 93.9766 166.32 93.9492 166.225 93.9492ZM172.035 85.7461V86.7715H165.199V85.7461H172.035ZM165.199 91.2148C165.199 88.9362 166.339 87.7969 168.617 87.7969C170.896 87.7969 172.035 88.9362 172.035 91.2148V96H170.873V91.2148C170.873 89.6198 170.121 88.8223 168.617 88.8223C167.113 88.8223 166.361 89.6198 166.361 91.2148V92.9922C166.466 92.9466 166.587 92.9238 166.724 92.9238C166.86 92.9238 167.004 93.0469 167.154 93.293C167.309 93.5345 167.387 93.9242 167.387 94.4619C167.387 94.9997 167.286 95.3916 167.086 95.6377C166.89 95.8792 166.626 96 166.293 96C165.96 96 165.696 95.877 165.5 95.6309C165.345 95.444 165.249 95.1683 165.213 94.8037H165.199V91.2148ZM170.531 82.7246C170.076 82.0957 169.438 81.7812 168.617 81.7812C167.842 81.7812 167.455 82.0319 167.455 82.5332C167.455 82.7155 167.533 82.8066 167.688 82.8066C167.842 82.8066 168.061 82.7633 168.344 82.6768C168.626 82.5856 168.989 82.54 169.431 82.54C169.968 82.54 170.495 82.8568 171.01 83.4902L170.531 83.9004C170.258 83.5495 169.886 83.374 169.417 83.374C169.066 83.374 168.745 83.4287 168.453 83.5381C168.161 83.6429 167.822 83.6953 167.435 83.6953C166.856 83.6953 166.566 83.3649 166.566 82.7041C166.566 81.542 167.252 80.9609 168.624 80.9609C169.649 80.9609 170.445 81.3711 171.01 82.1914V82.0547C171.01 81.7585 170.919 81.4622 170.736 81.166L171.488 80.9609C171.716 81.2344 171.83 81.599 171.83 82.0547C171.83 82.2826 171.796 82.499 171.728 82.7041C171.659 82.9046 171.47 83.0049 171.16 83.0049C170.91 83.0049 170.7 82.9115 170.531 82.7246ZM176.615 91.2148V92.582C176.615 94.1771 177.367 94.9746 178.871 94.9746C180.375 94.9746 181.127 94.1771 181.127 92.582V91.2148H176.615ZM176.615 90.1895H181.127V88.4805C181.127 88.1615 180.899 87.8197 180.443 87.4551V86.7715C180.443 86.0879 180.785 85.7461 181.469 85.7461H182.631V86.7715H181.811C181.583 86.7715 181.469 86.8854 181.469 87.1133C182.016 87.4779 182.289 87.9336 182.289 88.4805V92.582C182.289 94.8607 181.15 96 178.871 96C176.592 96 175.453 94.8607 175.453 92.582V88.4805C175.453 88.1615 175.225 87.8197 174.77 87.4551V86.7715C174.77 86.0879 175.111 85.7461 175.795 85.7461H176.957V86.7715H176.137C175.909 86.7715 175.795 86.8854 175.795 87.1133C176.342 87.4779 176.615 87.9336 176.615 88.4805V90.1895ZM182.289 85.7461H183.656C185.479 85.7461 186.391 86.6576 186.391 88.4805V96H185.229V88.4805C185.229 87.3411 184.704 86.7715 183.656 86.7715H182.289V85.7461ZM196.645 91.8301V93.2656C196.645 95.0885 196.007 96 194.73 96C193.792 96 193.097 95.7152 192.646 95.1455C192.194 94.5758 191.636 94.291 190.971 94.291V96H189.809V91.8984H190.971V93.2656C191.768 93.2656 192.415 93.5505 192.912 94.1201C193.413 94.6898 193.922 94.9746 194.437 94.9746C195.134 94.9746 195.482 94.4049 195.482 93.2656V92.582C191.7 91.7617 189.809 90.3945 189.809 88.4805C189.809 86.6576 190.948 85.7461 193.227 85.7461C195.505 85.7461 196.645 86.6576 196.645 88.4805C196.645 89.752 196.011 90.3877 194.744 90.3877C194.457 90.3877 194.225 90.3216 194.047 90.1895V89.1641C194.37 89.2598 194.635 89.3076 194.84 89.3076C195.268 89.3076 195.482 89.0319 195.482 88.4805C195.482 87.3411 194.73 86.7715 193.227 86.7715C191.723 86.7715 190.971 87.3411 190.971 88.4805C190.971 89.8477 192.862 90.9642 196.645 91.8301ZM205.736 88.4805C205.736 88.1615 205.508 87.8197 205.053 87.4551V86.7715C205.053 86.0879 205.395 85.7461 206.078 85.7461H207.24V86.7715H206.42C206.192 86.7715 206.078 86.8854 206.078 87.1133C206.625 87.4779 206.898 87.9336 206.898 88.4805V92.582C206.898 94.8607 205.759 96 203.48 96C201.202 96 200.062 94.8607 200.062 92.582V88.4805C200.062 88.1615 199.835 87.8197 199.379 87.4551V86.7715C199.379 86.0879 199.721 85.7461 200.404 85.7461H201.566V86.7715H200.746C200.518 86.7715 200.404 86.8854 200.404 87.1133C200.951 87.4779 201.225 87.9336 201.225 88.4805V92.582C201.225 94.1771 201.977 94.9746 203.48 94.9746C204.984 94.9746 205.736 94.1771 205.736 92.582V88.4805ZM211.649 94.9746C211.7 94.9746 211.741 94.9541 211.772 94.9131C211.804 94.8675 211.82 94.7171 211.82 94.4619C211.82 94.2067 211.804 94.0586 211.772 94.0176C211.741 93.972 211.7 93.9492 211.649 93.9492H211.479V94.9746H211.649ZM211.479 92.9375C211.533 92.9284 211.59 92.9238 211.649 92.9238C211.914 92.9238 212.121 93.0355 212.271 93.2588C212.426 93.4775 212.504 93.8786 212.504 94.4619C212.504 95.0452 212.426 95.4486 212.271 95.6719C212.121 95.8906 211.834 96 211.41 96C210.986 96 210.697 95.8906 210.542 95.6719C210.392 95.4486 210.316 95.0452 210.316 94.4619V88.4805C210.225 88.1615 209.997 87.8197 209.633 87.4551V86.7715C209.633 86.0879 209.975 85.7461 210.658 85.7461H211.82V86.7715H211C210.772 86.7715 210.658 86.8854 210.658 87.1133C211.205 87.4779 211.479 87.9336 211.479 88.4805V92.9375ZM210.556 84.1055C211.011 84.1055 211.239 83.8548 211.239 83.3535C211.239 82.3965 210.897 81.918 210.214 81.918C209.918 81.918 209.667 82.0091 209.462 82.1914L209.12 81.3711C209.416 81.0977 209.781 80.9609 210.214 80.9609C211.535 80.9609 212.196 81.7585 212.196 83.3535C212.196 84.4928 211.649 85.0625 210.556 85.0625C209.599 85.0625 209.12 84.6797 209.12 83.9141C209.12 83.5358 209.204 83.2692 209.373 83.1143C209.546 82.9548 209.847 82.875 210.275 82.875V83.6953C210.143 83.6953 210.077 83.7637 210.077 83.9004C210.077 84.0371 210.237 84.1055 210.556 84.1055ZM221.732 91.8301V93.2656C221.732 95.0885 221.094 96 219.818 96C218.88 96 218.185 95.7152 217.733 95.1455C217.282 94.5758 216.724 94.291 216.059 94.291V96H214.896V91.8984H216.059V93.2656C216.856 93.2656 217.503 93.5505 218 94.1201C218.501 94.6898 219.009 94.9746 219.524 94.9746C220.222 94.9746 220.57 94.4049 220.57 93.2656V92.582C216.788 91.7617 214.896 90.3945 214.896 88.4805C214.896 86.6576 216.036 85.7461 218.314 85.7461C220.593 85.7461 221.732 86.6576 221.732 88.4805C221.732 89.752 221.099 90.3877 219.832 90.3877C219.545 90.3877 219.312 90.3216 219.135 90.1895V89.1641C219.458 89.2598 219.723 89.3076 219.928 89.3076C220.356 89.3076 220.57 89.0319 220.57 88.4805C220.57 87.3411 219.818 86.7715 218.314 86.7715C216.811 86.7715 216.059 87.3411 216.059 88.4805C216.059 89.8477 217.95 90.9642 221.732 91.8301ZM216.264 98.666C216.264 99.222 216.41 99.5 216.701 99.5C216.861 99.5 217.079 99.4521 217.357 99.3564V100.245C217.225 100.377 216.993 100.443 216.66 100.443C215.712 100.443 215.238 99.8509 215.238 98.666C215.238 97.3444 215.865 96.6836 217.118 96.6836C217.938 96.6836 218.572 97.0254 219.019 97.709C219.461 98.3926 219.83 98.8483 220.126 99.0762C220.422 99.304 220.844 99.418 221.391 99.418V100.443C220.707 100.443 220.172 100.295 219.784 99.999C219.397 99.7028 219.005 99.2471 218.608 98.6318C218.207 98.0166 217.711 97.709 217.118 97.709C216.549 97.709 216.264 98.028 216.264 98.666ZM226.312 91.2148V92.582C226.312 94.1771 227.064 94.9746 228.568 94.9746C230.072 94.9746 230.824 94.1771 230.824 92.582V91.2148H226.312ZM226.312 90.1895H230.824V88.4805C230.824 88.1615 230.596 87.8197 230.141 87.4551V86.7715C230.141 86.0879 230.482 85.7461 231.166 85.7461H232.328V86.7715H231.508C231.28 86.7715 231.166 86.8854 231.166 87.1133C231.713 87.4779 231.986 87.9336 231.986 88.4805V92.582C231.986 94.8607 230.847 96 228.568 96C226.29 96 225.15 94.8607 225.15 92.582V88.4805C225.15 88.1615 224.923 87.8197 224.467 87.4551V86.7715C224.467 86.0879 224.809 85.7461 225.492 85.7461H226.654V86.7715H225.834C225.606 86.7715 225.492 86.8854 225.492 87.1133C226.039 87.4779 226.312 87.9336 226.312 88.4805V90.1895Z" fill="white"/>
<path d="M179 131L188.526 119.75H169.474L179 131Z" fill="#344054"/>
</svg>
