<svg width="344" height="114" viewBox="0 0 344 114" fill="none" xmlns="http://www.w3.org/2000/svg">
<rect x="54" y="1" width="280" height="84" rx="8" fill="#344054"/>
<path d="M73.042 32.9746C73.0921 32.9746 73.1331 32.9541 73.165 32.9131C73.1969 32.8675 73.2129 32.7171 73.2129 32.4619C73.2129 32.2067 73.1969 32.0586 73.165 32.0176C73.1331 31.972 73.0921 31.9492 73.042 31.9492H72.8711V32.9746H73.042ZM72.8711 30.9375C72.9258 30.9284 72.9827 30.9238 73.042 30.9238C73.3063 30.9238 73.5137 31.0355 73.6641 31.2588C73.819 31.4775 73.8965 31.8786 73.8965 32.4619C73.8965 33.0452 73.819 33.4486 73.6641 33.6719C73.5137 33.8906 73.2266 34 72.8027 34C72.3789 34 72.0895 33.8906 71.9346 33.6719C71.7842 33.4486 71.709 33.0452 71.709 32.4619V26.4805C71.6178 26.1615 71.39 25.8197 71.0254 25.4551V24.7715C71.0254 24.0879 71.3672 23.7461 72.0508 23.7461H73.2129V24.7715H72.3926C72.1647 24.7715 72.0508 24.8854 72.0508 25.1133C72.5977 25.4779 72.8711 25.9336 72.8711 26.4805V30.9375ZM83.125 29.8301V31.2656C83.125 33.0885 82.487 34 81.2109 34C80.2721 34 79.5771 33.7152 79.126 33.1455C78.6748 32.5758 78.1165 32.291 77.4512 32.291V34H76.2891V29.8984H77.4512V31.2656C78.2487 31.2656 78.8958 31.5505 79.3926 32.1201C79.8939 32.6898 80.402 32.9746 80.917 32.9746C81.6143 32.9746 81.9629 32.4049 81.9629 31.2656V30.582C78.1803 29.7617 76.2891 28.3945 76.2891 26.4805C76.2891 24.6576 77.4284 23.7461 79.707 23.7461C81.9857 23.7461 83.125 24.6576 83.125 26.4805C83.125 27.752 82.4915 28.3877 81.2246 28.3877C80.9375 28.3877 80.7051 28.3216 80.5273 28.1895V27.1641C80.8509 27.2598 81.1152 27.3076 81.3203 27.3076C81.7487 27.3076 81.9629 27.0319 81.9629 26.4805C81.9629 25.3411 81.2109 24.7715 79.707 24.7715C78.2031 24.7715 77.4512 25.3411 77.4512 26.4805C77.4512 27.8477 79.3424 28.9642 83.125 29.8301ZM87.5684 25.626C87.5684 25.7946 87.6117 25.9222 87.6982 26.0088C87.7848 26.0954 87.9124 26.1387 88.0811 26.1387C88.2542 26.1387 88.3818 26.0954 88.4639 26.0088C88.5505 25.9222 88.5938 25.7946 88.5938 25.626C88.5938 25.4528 88.5505 25.3252 88.4639 25.2432C88.3818 25.1566 88.2542 25.1133 88.0811 25.1133C87.9124 25.1133 87.7848 25.1566 87.6982 25.2432C87.6117 25.3252 87.5684 25.4528 87.5684 25.626ZM89.6191 25.626C89.6191 26.141 89.4915 26.526 89.2363 26.7812C88.9811 27.0365 88.596 27.1641 88.0811 27.1641C87.5661 27.1641 87.181 27.0365 86.9258 26.7812C86.6706 26.526 86.543 26.141 86.543 25.626C86.543 25.111 86.6706 24.7259 86.9258 24.4707C87.181 24.2155 87.5661 24.0879 88.0811 24.0879C88.596 24.0879 88.9811 24.2155 89.2363 24.4707C89.4915 24.7259 89.6191 25.111 89.6191 25.626ZM87.5684 32.1201C87.5684 32.2887 87.6117 32.4163 87.6982 32.5029C87.7848 32.5895 87.9124 32.6328 88.0811 32.6328C88.2542 32.6328 88.3818 32.5895 88.4639 32.5029C88.5505 32.4163 88.5938 32.2887 88.5938 32.1201C88.5938 31.9469 88.5505 31.8193 88.4639 31.7373C88.3818 31.6507 88.2542 31.6074 88.0811 31.6074C87.9124 31.6074 87.7848 31.6507 87.6982 31.7373C87.6117 31.8193 87.5684 31.9469 87.5684 32.1201ZM89.6191 32.1201C89.6191 32.6351 89.4915 33.0202 89.2363 33.2754C88.9811 33.5306 88.596 33.6582 88.0811 33.6582C87.5661 33.6582 87.181 33.5306 86.9258 33.2754C86.6706 33.0202 86.543 32.6351 86.543 32.1201C86.543 31.6051 86.6706 31.2201 86.9258 30.9648C87.181 30.7096 87.5661 30.582 88.0811 30.582C88.596 30.582 88.9811 30.7096 89.2363 30.9648C89.4915 31.2201 89.6191 31.6051 89.6191 32.1201ZM99.873 23.7461V24.7715H93.0371V23.7461H99.873ZM94.1992 31.6074C94.541 30.9238 95.0879 30.582 95.8398 30.582H96.4551V31.6758H95.8398C95.0879 31.6758 94.541 32.0176 94.1992 32.7012V34H93.0371V29.2148C93.0371 26.9362 94.1764 25.7969 96.4551 25.7969C98.7337 25.7969 99.873 26.9362 99.873 29.2148V34H98.7109V29.2148C98.7109 27.6198 97.959 26.8223 96.4551 26.8223C94.9512 26.8223 94.1992 27.6198 94.1992 29.2148V31.6074ZM95.7715 20.8066H98.8477C97.7129 20.0319 96.8014 19.6445 96.1133 19.6445C95.2018 19.6445 94.7461 19.8382 94.7461 20.2256C94.7461 20.613 95.0879 20.8066 95.7715 20.8066ZM98.9844 19.7881V17.9355H99.873V21.6953H95.4297C94.2904 21.6953 93.7207 21.2396 93.7207 20.3281C93.7207 19.1888 94.5182 18.6191 96.1133 18.6191C96.6328 18.6191 97.1341 18.7194 97.6172 18.9199V17.9355H98.5059V19.4121C98.5651 19.4531 98.6221 19.4964 98.6768 19.542C98.7861 19.6286 98.8887 19.7106 98.9844 19.7881ZM103.291 26.4805C103.291 26.1615 103.177 25.8197 102.949 25.4551V25.1133C102.949 24.2018 103.405 23.7461 104.316 23.7461H106.367L107.939 24.7715H108.486C108.805 24.7715 108.965 24.612 108.965 24.293V22.7207H110.127V24.293C110.127 25.2956 109.74 25.7969 108.965 25.7969H107.734L106.162 24.7715H104.795C104.339 24.7715 104.111 24.9082 104.111 25.1816C104.339 25.5462 104.453 25.9792 104.453 26.4805V32.6328L106.709 30.7188L108.965 32.6328V26.4805H110.127V34H109.102L106.709 31.9492L104.316 34H103.291V26.4805ZM110.127 23.7461H111.494C113.317 23.7461 114.229 24.6576 114.229 26.4805V34H113.066V26.4805C113.066 25.3411 112.542 24.7715 111.494 24.7715H110.127V23.7461ZM118.672 31.9492V32.9746C118.768 32.9746 118.847 32.9495 118.911 32.8994C118.979 32.8447 119.014 32.6989 119.014 32.4619C119.014 32.2249 118.979 32.0814 118.911 32.0312C118.847 31.9766 118.768 31.9492 118.672 31.9492ZM117.646 25.7969L119.424 23.7461L121.064 25.1133L122.705 23.7461L124.482 25.7969V34H123.32V26.0703L122.637 25.2158L121.064 26.3438L119.492 25.2158L118.809 26.0703V30.9922C118.913 30.9466 119.034 30.9238 119.171 30.9238C119.308 30.9238 119.451 31.0469 119.602 31.293C119.757 31.5345 119.834 31.9242 119.834 32.4619C119.834 32.9997 119.734 33.3916 119.533 33.6377C119.337 33.8792 119.073 34 118.74 34C118.408 34 118.143 33.877 117.947 33.6309C117.792 33.444 117.697 33.1683 117.66 32.8037H117.646V25.7969ZM121.748 20.2256C121.748 20.5218 122.147 20.6699 122.944 20.6699C123.97 20.6699 124.482 20.1003 124.482 18.9609V18.0723H125.508V18.9609C125.508 20.7839 124.653 21.6953 122.944 21.6953C121.463 21.6953 120.723 21.2054 120.723 20.2256C120.723 19.3825 121.083 18.9609 121.803 18.9609C122.227 18.9609 122.55 19.027 122.773 19.1592L122.568 19.9795C122.382 19.8838 122.211 19.8359 122.056 19.8359C121.851 19.8359 121.748 19.9658 121.748 20.2256ZM128.926 31.9492V32.9746C129.021 32.9746 129.101 32.9495 129.165 32.8994C129.233 32.8447 129.268 32.6989 129.268 32.4619C129.268 32.2249 129.233 32.0814 129.165 32.0312C129.101 31.9766 129.021 31.9492 128.926 31.9492ZM134.736 23.7461V24.7715H127.9V23.7461H134.736ZM127.9 29.2148C127.9 26.9362 129.04 25.7969 131.318 25.7969C133.597 25.7969 134.736 26.9362 134.736 29.2148V34H133.574V29.2148C133.574 27.6198 132.822 26.8223 131.318 26.8223C129.814 26.8223 129.062 27.6198 129.062 29.2148V30.9922C129.167 30.9466 129.288 30.9238 129.425 30.9238C129.562 30.9238 129.705 31.0469 129.855 31.293C130.01 31.5345 130.088 31.9242 130.088 32.4619C130.088 32.9997 129.988 33.3916 129.787 33.6377C129.591 33.8792 129.327 34 128.994 34C128.661 34 128.397 33.877 128.201 33.6309C128.046 33.444 127.951 33.1683 127.914 32.8037H127.9V29.2148ZM133.232 20.7246C132.777 20.0957 132.139 19.7812 131.318 19.7812C130.544 19.7812 130.156 20.0319 130.156 20.5332C130.156 20.7155 130.234 20.8066 130.389 20.8066C130.544 20.8066 130.762 20.7633 131.045 20.6768C131.327 20.5856 131.69 20.54 132.132 20.54C132.67 20.54 133.196 20.8568 133.711 21.4902L133.232 21.9004C132.959 21.5495 132.588 21.374 132.118 21.374C131.767 21.374 131.446 21.4287 131.154 21.5381C130.863 21.6429 130.523 21.6953 130.136 21.6953C129.557 21.6953 129.268 21.3649 129.268 20.7041C129.268 19.542 129.953 18.9609 131.325 18.9609C132.351 18.9609 133.146 19.3711 133.711 20.1914V20.0547C133.711 19.7585 133.62 19.4622 133.438 19.166L134.189 18.9609C134.417 19.2344 134.531 19.599 134.531 20.0547C134.531 20.2826 134.497 20.499 134.429 20.7041C134.36 20.9046 134.171 21.0049 133.861 21.0049C133.611 21.0049 133.401 20.9115 133.232 20.7246ZM139.316 29.2148V30.582C139.316 32.1771 140.068 32.9746 141.572 32.9746C143.076 32.9746 143.828 32.1771 143.828 30.582V29.2148H139.316ZM139.316 28.1895H143.828V26.4805C143.828 26.1615 143.6 25.8197 143.145 25.4551V24.7715C143.145 24.0879 143.486 23.7461 144.17 23.7461H145.332V24.7715H144.512C144.284 24.7715 144.17 24.8854 144.17 25.1133C144.717 25.4779 144.99 25.9336 144.99 26.4805V30.582C144.99 32.8607 143.851 34 141.572 34C139.294 34 138.154 32.8607 138.154 30.582V26.4805C138.154 26.1615 137.926 25.8197 137.471 25.4551V24.7715C137.471 24.0879 137.812 23.7461 138.496 23.7461H139.658V24.7715H138.838C138.61 24.7715 138.496 24.8854 138.496 25.1133C139.043 25.4779 139.316 25.9336 139.316 26.4805V28.1895ZM144.99 23.7461H146.357C148.18 23.7461 149.092 24.6576 149.092 26.4805V34H147.93V26.4805C147.93 25.3411 147.406 24.7715 146.357 24.7715H144.99V23.7461ZM159.346 29.8301V31.2656C159.346 33.0885 158.708 34 157.432 34C156.493 34 155.798 33.7152 155.347 33.1455C154.896 32.5758 154.337 32.291 153.672 32.291V34H152.51V29.8984H153.672V31.2656C154.469 31.2656 155.117 31.5505 155.613 32.1201C156.115 32.6898 156.623 32.9746 157.138 32.9746C157.835 32.9746 158.184 32.4049 158.184 31.2656V30.582C154.401 29.7617 152.51 28.3945 152.51 26.4805C152.51 24.6576 153.649 23.7461 155.928 23.7461C158.206 23.7461 159.346 24.6576 159.346 26.4805C159.346 27.752 158.712 28.3877 157.445 28.3877C157.158 28.3877 156.926 28.3216 156.748 28.1895V27.1641C157.072 27.2598 157.336 27.3076 157.541 27.3076C157.969 27.3076 158.184 27.0319 158.184 26.4805C158.184 25.3411 157.432 24.7715 155.928 24.7715C154.424 24.7715 153.672 25.3411 153.672 26.4805C153.672 27.8477 155.563 28.9642 159.346 29.8301ZM162.764 26.4805C162.764 26.1615 162.65 25.8197 162.422 25.4551V25.1133C162.422 24.2018 162.878 23.7461 163.789 23.7461H165.84L167.412 24.7715H167.959C168.278 24.7715 168.438 24.612 168.438 24.293V22.7207H169.6V24.293C169.6 25.2956 169.212 25.7969 168.438 25.7969H167.207L165.635 24.7715H164.268C163.812 24.7715 163.584 24.9082 163.584 25.1816C163.812 25.5462 163.926 25.9792 163.926 26.4805V32.6328L166.182 30.7188L168.438 32.6328V26.4805H169.6V34H168.574L166.182 31.9492L163.789 34H162.764V26.4805ZM165.84 20.1572C165.84 20.3258 165.883 20.4535 165.97 20.54C166.056 20.6266 166.184 20.6699 166.353 20.6699C166.526 20.6699 166.656 20.6266 166.742 20.54C166.824 20.4535 166.865 20.3258 166.865 20.1572C166.865 19.984 166.824 19.8564 166.742 19.7744C166.656 19.6878 166.526 19.6445 166.353 19.6445C166.184 19.6445 166.056 19.6878 165.97 19.7744C165.883 19.8564 165.84 19.984 165.84 20.1572ZM167.891 20.1572C167.891 20.6722 167.763 21.0573 167.508 21.3125C167.253 21.5677 166.868 21.6953 166.353 21.6953C165.838 21.6953 165.452 21.5677 165.197 21.3125C164.942 21.0573 164.814 20.6722 164.814 20.1572C164.814 19.6423 164.942 19.2572 165.197 19.002C165.452 18.7467 165.838 18.6191 166.353 18.6191C166.868 18.6191 167.253 18.7467 167.508 19.002C167.763 19.2572 167.891 19.6423 167.891 20.1572ZM179.854 29.8301V31.2656C179.854 33.0885 179.215 34 177.939 34C177.001 34 176.306 33.7152 175.854 33.1455C175.403 32.5758 174.845 32.291 174.18 32.291V34H173.018V29.8984H174.18V31.2656C174.977 31.2656 175.624 31.5505 176.121 32.1201C176.622 32.6898 177.131 32.9746 177.646 32.9746C178.343 32.9746 178.691 32.4049 178.691 31.2656V30.582C174.909 29.7617 173.018 28.3945 173.018 26.4805C173.018 24.6576 174.157 23.7461 176.436 23.7461C178.714 23.7461 179.854 24.6576 179.854 26.4805C179.854 27.752 179.22 28.3877 177.953 28.3877C177.666 28.3877 177.434 28.3216 177.256 28.1895V27.1641C177.579 27.2598 177.844 27.3076 178.049 27.3076C178.477 27.3076 178.691 27.0319 178.691 26.4805C178.691 25.3411 177.939 24.7715 176.436 24.7715C174.932 24.7715 174.18 25.3411 174.18 26.4805C174.18 27.8477 176.071 28.9642 179.854 29.8301ZM178.691 37.2812V34.6836H179.854V38.4434H178.691L177.803 37.5547L176.914 38.4434H175.752V34.6836H176.914V37.2812L177.803 36.3926L178.691 37.2812ZM184.434 25.2842C184.529 25.2842 184.609 25.2546 184.673 25.1953C184.741 25.1361 184.775 25.0518 184.775 24.9424C184.775 24.833 184.741 24.7487 184.673 24.6895C184.609 24.6302 184.529 24.6006 184.434 24.6006V25.2842ZM193.73 26.4805C193.73 26.1615 193.503 25.8197 193.047 25.4551V24.7715C193.047 24.0879 193.389 23.7461 194.072 23.7461H195.234V24.7715H194.414C194.186 24.7715 194.072 24.8854 194.072 25.1133C194.619 25.4779 194.893 25.9336 194.893 26.4805V30.582C194.893 32.8607 193.867 34 191.816 34C190.449 34 189.538 33.4941 189.082 32.4824C188.626 33.4941 187.715 34 186.348 34C184.297 34 183.271 32.8607 183.271 30.582V24.9424C183.271 24.5869 183.358 24.2998 183.531 24.0811C183.709 23.8577 183.998 23.7461 184.399 23.7461C184.8 23.7461 185.088 23.8577 185.261 24.0811C185.438 24.2998 185.527 24.5869 185.527 24.9424C185.527 25.2979 185.438 25.585 185.261 25.8037C185.11 25.9997 184.88 26.0977 184.57 26.0977C184.525 26.0977 184.479 26.0954 184.434 26.0908V30.582C184.434 32.1771 185.072 32.9746 186.348 32.9746C187.783 32.9746 188.501 32.1771 188.501 30.582V26.4805C188.501 26.1615 188.273 25.8197 187.817 25.4551V24.7715C187.817 24.0879 188.159 23.7461 188.843 23.7461H190.005V24.7715H189.185C188.957 24.7715 188.843 24.8854 188.843 25.1133C189.39 25.4779 189.663 25.9336 189.663 26.4805V30.582C189.663 32.1771 190.381 32.9746 191.816 32.9746C193.092 32.9746 193.73 32.1771 193.73 30.582V26.4805ZM199.644 32.9746C199.694 32.9746 199.735 32.9541 199.767 32.9131C199.799 32.8675 199.814 32.7171 199.814 32.4619C199.814 32.2067 199.799 32.0586 199.767 32.0176C199.735 31.972 199.694 31.9492 199.644 31.9492H199.473V32.9746H199.644ZM199.473 30.9375C199.527 30.9284 199.584 30.9238 199.644 30.9238C199.908 30.9238 200.115 31.0355 200.266 31.2588C200.421 31.4775 200.498 31.8786 200.498 32.4619C200.498 33.0452 200.421 33.4486 200.266 33.6719C200.115 33.8906 199.828 34 199.404 34C198.98 34 198.691 33.8906 198.536 33.6719C198.386 33.4486 198.311 33.0452 198.311 32.4619V26.4805C198.219 26.1615 197.992 25.8197 197.627 25.4551V24.7715C197.627 24.0879 197.969 23.7461 198.652 23.7461H199.814V24.7715H198.994C198.766 24.7715 198.652 24.8854 198.652 25.1133C199.199 25.4779 199.473 25.9336 199.473 26.4805V30.9375ZM198.55 22.1055C199.006 22.1055 199.233 21.8548 199.233 21.3535C199.233 20.3965 198.892 19.918 198.208 19.918C197.912 19.918 197.661 20.0091 197.456 20.1914L197.114 19.3711C197.41 19.0977 197.775 18.9609 198.208 18.9609C199.53 18.9609 200.19 19.7585 200.19 21.3535C200.19 22.4928 199.644 23.0625 198.55 23.0625C197.593 23.0625 197.114 22.6797 197.114 21.9141C197.114 21.5358 197.199 21.2692 197.367 21.1143C197.54 20.9548 197.841 20.875 198.27 20.875V21.6953C198.137 21.6953 198.071 21.7637 198.071 21.9004C198.071 22.0371 198.231 22.1055 198.55 22.1055ZM202.891 26.4805H204.053V32.6328L206.309 30.582L208.564 32.6328V26.4805H209.727V34H208.701L206.309 31.9492L203.916 34H202.891V26.4805ZM204.053 24.833C204.053 25.0199 204.805 25.1133 206.309 25.1133C207.812 25.1133 208.564 24.6576 208.564 23.7461V22.7207H209.727V23.7461C209.727 25.3411 208.587 26.1387 206.309 26.1387C204.03 26.1387 202.891 25.7057 202.891 24.8398C202.891 24.1107 203.269 23.7461 204.025 23.7461C204.504 23.7461 204.832 23.8122 205.01 23.9443V24.833C204.686 24.7373 204.447 24.6895 204.292 24.6895C204.132 24.6895 204.053 24.7373 204.053 24.833ZM214.17 31.9492V32.9746C214.266 32.9746 214.345 32.9495 214.409 32.8994C214.478 32.8447 214.512 32.6989 214.512 32.4619C214.512 32.2249 214.478 32.0814 214.409 32.0312C214.345 31.9766 214.266 31.9492 214.17 31.9492ZM224.766 26.4805V30.582C224.766 32.8607 223.74 34 221.689 34C219.479 34 218.374 32.8607 218.374 30.582V27.1641C218.374 25.569 217.697 24.7715 216.344 24.7715C214.986 24.7715 214.307 25.569 214.307 27.1641V30.9922C214.411 30.9466 214.532 30.9238 214.669 30.9238C214.806 30.9238 214.949 31.0469 215.1 31.293C215.255 31.5345 215.332 31.9242 215.332 32.4619C215.332 32.9997 215.232 33.3916 215.031 33.6377C214.835 33.8792 214.571 34 214.238 34C213.906 34 213.641 33.877 213.445 33.6309C213.29 33.444 213.195 33.1683 213.158 32.8037H213.145V27.1641C213.145 24.8854 214.211 23.7461 216.344 23.7461C218.472 23.7461 219.536 24.8854 219.536 27.1641V30.582C219.536 32.1771 220.254 32.9746 221.689 32.9746C222.965 32.9746 223.604 32.1771 223.604 30.582V26.4805C223.604 26.1615 223.376 25.8197 222.92 25.4551V24.7715C222.92 24.0879 223.262 23.7461 223.945 23.7461H225.107V24.7715H224.287C224.059 24.7715 223.945 24.8854 223.945 25.1133C224.492 25.4779 224.766 25.9336 224.766 26.4805ZM229.346 29.2148V30.582C229.346 32.1771 230.098 32.9746 231.602 32.9746C233.105 32.9746 233.857 32.1771 233.857 30.582V29.2148H229.346ZM229.346 28.1895H233.857V26.4805C233.857 26.1615 233.63 25.8197 233.174 25.4551V24.7715C233.174 24.0879 233.516 23.7461 234.199 23.7461H235.361V24.7715H234.541C234.313 24.7715 234.199 24.8854 234.199 25.1133C234.746 25.4779 235.02 25.9336 235.02 26.4805V30.582C235.02 32.8607 233.88 34 231.602 34C229.323 34 228.184 32.8607 228.184 30.582V26.4805C228.184 26.1615 227.956 25.8197 227.5 25.4551V24.7715C227.5 24.0879 227.842 23.7461 228.525 23.7461H229.688V24.7715H228.867C228.639 24.7715 228.525 24.8854 228.525 25.1133C229.072 25.4779 229.346 25.9336 229.346 26.4805V28.1895ZM235.02 23.7461H236.387C238.21 23.7461 239.121 24.6576 239.121 26.4805V34H237.959V26.4805C237.959 25.3411 237.435 24.7715 236.387 24.7715H235.02V23.7461ZM249.375 29.8301V31.2656C249.375 33.0885 248.737 34 247.461 34C246.522 34 245.827 33.7152 245.376 33.1455C244.925 32.5758 244.367 32.291 243.701 32.291V34H242.539V29.8984H243.701V31.2656C244.499 31.2656 245.146 31.5505 245.643 32.1201C246.144 32.6898 246.652 32.9746 247.167 32.9746C247.864 32.9746 248.213 32.4049 248.213 31.2656V30.582C244.43 29.7617 242.539 28.3945 242.539 26.4805C242.539 24.6576 243.678 23.7461 245.957 23.7461C248.236 23.7461 249.375 24.6576 249.375 26.4805C249.375 27.752 248.742 28.3877 247.475 28.3877C247.188 28.3877 246.955 28.3216 246.777 28.1895V27.1641C247.101 27.2598 247.365 27.3076 247.57 27.3076C247.999 27.3076 248.213 27.0319 248.213 26.4805C248.213 25.3411 247.461 24.7715 245.957 24.7715C244.453 24.7715 243.701 25.3411 243.701 26.4805C243.701 27.8477 245.592 28.9642 249.375 29.8301ZM252.793 29.8301C256.576 29.1921 258.467 28.0755 258.467 26.4805C258.467 25.3411 257.715 24.7715 256.211 24.7715C254.707 24.7715 253.955 25.3411 253.955 26.4805C253.955 27.0319 254.169 27.3076 254.598 27.3076C254.803 27.3076 255.067 27.2598 255.391 27.1641V28.1895C255.213 28.3216 254.98 28.3877 254.693 28.3877C253.426 28.3877 252.793 27.752 252.793 26.4805C252.793 24.6576 253.932 23.7461 256.211 23.7461C258.49 23.7461 259.629 24.6576 259.629 26.4805C259.629 28.3945 257.738 29.7617 253.955 30.582V31.2656C253.955 32.4049 254.707 32.9746 256.211 32.9746C257.715 32.9746 258.467 32.4049 258.467 31.2656C258.467 30.582 258.148 30.1035 257.51 29.8301L258.535 29.2832C259.264 29.6934 259.629 30.3542 259.629 31.2656C259.629 33.0885 258.49 34 256.211 34C253.932 34 252.793 33.0885 252.793 31.2656V29.8301ZM254.16 36.666C254.16 37.3587 254.306 37.7051 254.598 37.7051C254.757 37.7051 254.976 37.6572 255.254 37.5615V38.2451C255.122 38.3773 254.775 38.4434 254.215 38.4434C253.495 38.4434 253.135 37.8509 253.135 36.666C253.135 35.3444 253.693 34.6836 254.81 34.6836C255.767 34.6836 256.423 35.1393 256.778 36.0508C257.129 36.9622 257.464 37.418 257.783 37.418C258.102 37.418 258.512 36.5065 259.014 34.6836L259.971 34.957C259.401 37.2812 258.713 38.4434 257.906 38.4434C257.141 38.4434 256.582 37.9876 256.231 37.0762C255.876 36.1647 255.402 35.709 254.81 35.709C254.377 35.709 254.16 36.028 254.16 36.666ZM258.535 18.7559C258.458 18.7559 258.392 18.7809 258.337 18.8311C258.287 18.8766 258.262 18.9427 258.262 19.0293C258.262 19.1068 258.287 19.1706 258.337 19.2207C258.392 19.2754 258.458 19.3027 258.535 19.3027C258.622 19.3027 258.688 19.2754 258.733 19.2207C258.784 19.1706 258.809 19.1068 258.809 19.0293C258.809 18.9427 258.784 18.8766 258.733 18.8311C258.688 18.7809 258.622 18.7559 258.535 18.7559ZM255.527 20.8066H258.604C257.469 20.0319 256.557 19.6445 255.869 19.6445C254.958 19.6445 254.502 19.8382 254.502 20.2256C254.502 20.613 254.844 20.8066 255.527 20.8066ZM257.441 18.9473C257.46 18.651 257.558 18.4141 257.735 18.2363C257.936 18.0358 258.202 17.9355 258.535 17.9355C258.868 17.9355 259.134 18.0358 259.335 18.2363C259.531 18.4323 259.629 18.6966 259.629 19.0293C259.629 19.362 259.531 19.6263 259.335 19.8223C259.244 19.9134 259.141 19.984 259.027 20.0342C259.428 20.3896 259.629 20.6471 259.629 20.8066V21.6953H255.186C254.046 21.6953 253.477 21.2396 253.477 20.3281C253.477 19.1888 254.274 18.6191 255.869 18.6191C256.416 18.6191 256.94 18.7285 257.441 18.9473ZM264.209 29.2148V30.582C264.209 32.1771 264.961 32.9746 266.465 32.9746C267.969 32.9746 268.721 32.1771 268.721 30.582V29.2148H264.209ZM264.209 28.1895H268.721V26.4805C268.721 26.1615 268.493 25.8197 268.037 25.4551V24.7715C268.037 24.0879 268.379 23.7461 269.062 23.7461H270.225V24.7715H269.404C269.176 24.7715 269.062 24.8854 269.062 25.1133C269.609 25.4779 269.883 25.9336 269.883 26.4805V30.582C269.883 32.8607 268.743 34 266.465 34C264.186 34 263.047 32.8607 263.047 30.582V26.4805C263.047 26.1615 262.819 25.8197 262.363 25.4551V24.7715C262.363 24.0879 262.705 23.7461 263.389 23.7461H264.551V24.7715H263.73C263.503 24.7715 263.389 24.8854 263.389 25.1133C263.936 25.4779 264.209 25.9336 264.209 26.4805V28.1895ZM274.326 31.9492V32.9746C274.422 32.9746 274.502 32.9495 274.565 32.8994C274.634 32.8447 274.668 32.6989 274.668 32.4619C274.668 32.2249 274.634 32.0814 274.565 32.0312C274.502 31.9766 274.422 31.9492 274.326 31.9492ZM284.922 26.4805V30.582C284.922 32.8607 283.896 34 281.846 34C279.635 34 278.53 32.8607 278.53 30.582V29.2148C278.53 27.6198 277.854 26.8223 276.5 26.8223C275.142 26.8223 274.463 27.6198 274.463 29.2148V30.9922C274.568 30.9466 274.688 30.9238 274.825 30.9238C274.962 30.9238 275.105 31.0469 275.256 31.293C275.411 31.5345 275.488 31.9242 275.488 32.4619C275.488 32.9997 275.388 33.3916 275.188 33.6377C274.992 33.8792 274.727 34 274.395 34C274.062 34 273.798 33.877 273.602 33.6309C273.447 33.444 273.351 33.1683 273.314 32.8037H273.301V29.2148C273.301 27.793 273.715 26.8154 274.545 26.2822C274.34 25.9404 274.039 25.6647 273.643 25.4551V24.7715C273.643 24.0879 273.984 23.7461 274.668 23.7461H278.428V24.7715H275.146C274.919 24.7715 274.805 24.8854 274.805 25.1133C275.16 25.3047 275.44 25.5553 275.646 25.8652C275.91 25.8197 276.195 25.7969 276.5 25.7969C278.628 25.7969 279.692 26.9362 279.692 29.2148V30.582C279.692 32.1771 280.41 32.9746 281.846 32.9746C283.122 32.9746 283.76 32.1771 283.76 30.582V26.4805C283.76 26.1615 283.532 25.8197 283.076 25.4551V24.7715C283.076 24.0879 283.418 23.7461 284.102 23.7461H285.264V24.7715H284.443C284.215 24.7715 284.102 24.8854 284.102 25.1133C284.648 25.4779 284.922 25.9336 284.922 26.4805ZM284.922 23.7461H286.289C288.112 23.7461 289.023 24.6576 289.023 26.4805V34H287.861V26.4805C287.861 25.3411 287.337 24.7715 286.289 24.7715H284.922V23.7461ZM292.441 32.9746V31.9492H292.271C292.22 31.9492 292.179 31.972 292.147 32.0176C292.116 32.0586 292.1 32.2067 292.1 32.4619C292.1 32.7171 292.116 32.8675 292.147 32.9131C292.179 32.9541 292.22 32.9746 292.271 32.9746H292.441ZM293.604 26.4805V32.4619C293.604 33.0452 293.526 33.4486 293.371 33.6719C293.221 33.8906 292.934 34 292.51 34C292.086 34 291.797 33.8906 291.642 33.6719C291.491 33.4486 291.416 33.0452 291.416 32.4619C291.416 31.8786 291.491 31.4775 291.642 31.2588C291.797 31.0355 292.006 30.9238 292.271 30.9238C292.33 30.9238 292.387 30.9284 292.441 30.9375V26.4805C292.35 26.1615 292.122 25.8197 291.758 25.4551V24.7715C291.758 24.0879 292.1 23.7461 292.783 23.7461H293.945V24.7715H293.125C292.897 24.7715 292.783 24.8854 292.783 25.1133C293.33 25.4779 293.604 25.9336 293.604 26.4805ZM298.354 32.9746C298.405 32.9746 298.446 32.9541 298.478 32.9131C298.509 32.8675 298.525 32.7171 298.525 32.4619C298.525 32.2067 298.509 32.0586 298.478 32.0176C298.446 31.972 298.405 31.9492 298.354 31.9492H298.184V32.9746H298.354ZM298.184 30.9375C298.238 30.9284 298.295 30.9238 298.354 30.9238C298.619 30.9238 298.826 31.0355 298.977 31.2588C299.132 31.4775 299.209 31.8786 299.209 32.4619C299.209 33.0452 299.132 33.4486 298.977 33.6719C298.826 33.8906 298.539 34 298.115 34C297.691 34 297.402 33.8906 297.247 33.6719C297.097 33.4486 297.021 33.0452 297.021 32.4619V26.4805C296.93 26.1615 296.702 25.8197 296.338 25.4551V24.7715C296.338 24.0879 296.68 23.7461 297.363 23.7461H298.525V24.7715H297.705C297.477 24.7715 297.363 24.8854 297.363 25.1133C297.91 25.4779 298.184 25.9336 298.184 26.4805V30.9375ZM308.438 29.8301V31.2656C308.438 33.0885 307.799 34 306.523 34C305.585 34 304.89 33.7152 304.438 33.1455C303.987 32.5758 303.429 32.291 302.764 32.291V34H301.602V29.8984H302.764V31.2656C303.561 31.2656 304.208 31.5505 304.705 32.1201C305.206 32.6898 305.715 32.9746 306.229 32.9746C306.927 32.9746 307.275 32.4049 307.275 31.2656V30.582C303.493 29.7617 301.602 28.3945 301.602 26.4805C301.602 24.6576 302.741 23.7461 305.02 23.7461C307.298 23.7461 308.438 24.6576 308.438 26.4805C308.438 27.752 307.804 28.3877 306.537 28.3877C306.25 28.3877 306.018 28.3216 305.84 28.1895V27.1641C306.163 27.2598 306.428 27.3076 306.633 27.3076C307.061 27.3076 307.275 27.0319 307.275 26.4805C307.275 25.3411 306.523 24.7715 305.02 24.7715C303.516 24.7715 302.764 25.3411 302.764 26.4805C302.764 27.8477 304.655 28.9642 308.438 29.8301ZM311.377 24.0742V22.6523C311.377 22.2422 311.195 22.0371 310.83 22.0371H310.488V21.0117H311.172C312.083 21.0117 312.539 21.4674 312.539 22.3789V34H311.377V26.4736C311.372 25.3389 310.848 24.7715 309.805 24.7715H308.438V23.7461H309.805C310.438 23.7461 310.962 23.8555 311.377 24.0742ZM71.709 55.8301C75.4915 55.1921 77.3828 54.0755 77.3828 52.4805C77.3828 51.3411 76.6309 50.7715 75.127 50.7715C73.623 50.7715 72.8711 51.3411 72.8711 52.4805C72.8711 53.0319 73.0853 53.3076 73.5137 53.3076C73.7188 53.3076 73.9831 53.2598 74.3066 53.1641V54.1895C74.1289 54.3216 73.8965 54.3877 73.6094 54.3877C72.3424 54.3877 71.709 53.752 71.709 52.4805C71.709 50.6576 72.8483 49.7461 75.127 49.7461C77.4056 49.7461 78.5449 50.6576 78.5449 52.4805C78.5449 54.3945 76.6536 55.7617 72.8711 56.582V57.2656C72.8711 58.4049 73.623 58.9746 75.127 58.9746C76.6309 58.9746 77.3828 58.4049 77.3828 57.2656C77.3828 56.582 77.0638 56.1035 76.4258 55.8301L77.4512 55.2832C78.1803 55.6934 78.5449 56.3542 78.5449 57.2656C78.5449 59.0885 77.4056 60 75.127 60C72.8483 60 71.709 59.0885 71.709 57.2656V55.8301ZM78.5449 49.7461H79.9121C81.735 49.7461 82.6465 50.6576 82.6465 52.4805V60H81.4844V52.4805C81.4844 51.3411 80.9603 50.7715 79.9121 50.7715H78.5449V49.7461ZM91.1914 50.7852C91.1914 50.6484 91.1003 50.5801 90.918 50.5801C90.7357 50.5801 90.6445 50.6484 90.6445 50.7852C90.6445 50.9082 90.7357 51.0312 90.918 51.1543C91.1003 51.0586 91.1914 50.9355 91.1914 50.7852ZM85.8936 54.1895C85.8434 54.1895 85.8024 54.2122 85.7705 54.2578C85.7386 54.2988 85.7227 54.4469 85.7227 54.7021C85.7227 54.9574 85.7386 55.1077 85.7705 55.1533C85.8024 55.1943 85.8434 55.2148 85.8936 55.2148H86.0645V54.1895H85.8936ZM87.2266 58.6328L89.4824 56.582L91.7383 58.6328V53.8477C91.7383 53.3555 91.3691 52.8337 90.6309 52.2822C90.2572 52.6423 89.6237 52.8223 88.7305 52.8223C87.737 52.8223 87.0443 52.6924 86.6523 52.4326C86.2604 52.1729 86.0645 51.8128 86.0645 51.3525C86.0645 50.8968 86.1556 50.4707 86.3379 50.0742C86.5202 49.6732 86.6113 49.3473 86.6113 49.0967C86.6113 48.846 86.3151 48.7207 85.7227 48.7207V47.6953C86.9987 47.6953 87.6367 48.1283 87.6367 48.9941C87.6367 49.3359 87.5456 49.7188 87.3633 50.1426C87.181 50.5618 87.0898 50.8604 87.0898 51.0381C87.0898 51.2204 87.2038 51.3936 87.4316 51.5576C87.6595 51.7171 88.1084 51.7969 88.7783 51.7969C89.3571 51.7969 89.7741 51.7217 90.0293 51.5713C89.8014 51.3844 89.6875 51.0951 89.6875 50.7031C89.6875 50.0651 90.0977 49.7461 90.918 49.7461C91.7839 49.7461 92.2168 50.1335 92.2168 50.9082C92.2168 51.3047 92.0391 51.6419 91.6836 51.9199C92.4948 52.5078 92.9004 53.1504 92.9004 53.8477V60H91.5332L89.4824 57.9492L87.4316 60H86.0645V56.2266C86.0098 56.2357 85.9528 56.2402 85.8936 56.2402C85.6292 56.2402 85.4196 56.1309 85.2646 55.9121C85.1143 55.6888 85.0391 55.2855 85.0391 54.7021C85.0391 54.1188 85.1143 53.7178 85.2646 53.499C85.4196 53.2757 85.709 53.1641 86.1328 53.1641C86.5566 53.1641 86.8438 53.2757 86.9941 53.499C87.1491 53.7178 87.2266 54.1188 87.2266 54.7021V58.6328ZM97.4805 60H96.3184V55.2148C96.3184 52.9362 97.4577 51.7969 99.7363 51.7969C102.015 51.7969 103.154 52.9362 103.154 55.2148V60H101.992V55.2148C101.992 53.6198 101.24 52.8223 99.7363 52.8223C98.2324 52.8223 97.4805 53.6198 97.4805 55.2148V60ZM103.154 49.7461V50.7715H96.3184V49.7461H103.154ZM101.589 61.8457H98.3691C98.1413 61.8457 98.0273 61.9141 98.0273 62.0508C98.0273 62.1875 98.1413 62.2559 98.3691 62.2559H101.589V61.8457ZM102.683 63.4863C102.819 63.4863 102.91 63.4681 102.956 63.4316C103.002 63.3997 103.024 63.3587 103.024 63.3086C103.024 63.2585 102.997 63.2197 102.942 63.1924C102.883 63.1696 102.797 63.1536 102.683 63.1445H102.478C102.478 63.3724 102.546 63.4863 102.683 63.4863ZM102.478 60.957H103.496V61.8457H102.478V62.2559H102.908C103.236 62.2559 103.476 62.3356 103.626 62.4951C103.772 62.6546 103.845 62.887 103.845 63.1924C103.845 63.5934 103.765 63.8669 103.605 64.0127C103.446 64.1631 103.161 64.2383 102.751 64.2383C101.976 64.2383 101.589 63.9079 101.589 63.2471V63.1445H98.0273C97.3438 63.1445 97.002 62.7799 97.002 62.0508C97.0065 61.3216 97.3506 60.957 98.0342 60.957H101.589V60.3418H102.478V60.957ZM103.154 64.7852V68.2031H101.992V64.7852H103.154ZM111.699 50.7852C111.699 50.6484 111.608 50.5801 111.426 50.5801C111.243 50.5801 111.152 50.6484 111.152 50.7852C111.152 50.9082 111.243 51.0312 111.426 51.1543C111.608 51.0586 111.699 50.9355 111.699 50.7852ZM106.401 54.1895C106.351 54.1895 106.31 54.2122 106.278 54.2578C106.246 54.2988 106.23 54.4469 106.23 54.7021C106.23 54.9574 106.246 55.1077 106.278 55.1533C106.31 55.1943 106.351 55.2148 106.401 55.2148H106.572V54.1895H106.401ZM107.734 58.6328L109.99 56.582L112.246 58.6328V53.8477C112.246 53.3555 111.877 52.8337 111.139 52.2822C110.765 52.6423 110.132 52.8223 109.238 52.8223C108.245 52.8223 107.552 52.6924 107.16 52.4326C106.768 52.1729 106.572 51.8128 106.572 51.3525C106.572 50.8968 106.663 50.4707 106.846 50.0742C107.028 49.6732 107.119 49.3473 107.119 49.0967C107.119 48.846 106.823 48.7207 106.23 48.7207V47.6953C107.507 47.6953 108.145 48.1283 108.145 48.9941C108.145 49.3359 108.053 49.7188 107.871 50.1426C107.689 50.5618 107.598 50.8604 107.598 51.0381C107.598 51.2204 107.712 51.3936 107.939 51.5576C108.167 51.7171 108.616 51.7969 109.286 51.7969C109.865 51.7969 110.282 51.7217 110.537 51.5713C110.309 51.3844 110.195 51.0951 110.195 50.7031C110.195 50.0651 110.605 49.7461 111.426 49.7461C112.292 49.7461 112.725 50.1335 112.725 50.9082C112.725 51.3047 112.547 51.6419 112.191 51.9199C113.003 52.5078 113.408 53.1504 113.408 53.8477V60H112.041L109.99 57.9492L107.939 60H106.572V56.2266C106.518 56.2357 106.461 56.2402 106.401 56.2402C106.137 56.2402 105.927 56.1309 105.772 55.9121C105.622 55.6888 105.547 55.2855 105.547 54.7021C105.547 54.1188 105.622 53.7178 105.772 53.499C105.927 53.2757 106.217 53.1641 106.641 53.1641C107.064 53.1641 107.352 53.2757 107.502 53.499C107.657 53.7178 107.734 54.1188 107.734 54.7021V58.6328ZM121.796 58.9746C121.846 58.9746 121.887 58.9541 121.919 58.9131C121.951 58.8675 121.967 58.7171 121.967 58.4619C121.967 58.2067 121.951 58.0586 121.919 58.0176C121.887 57.972 121.846 57.9492 121.796 57.9492H121.625V58.9746H121.796ZM121.625 56.9375C121.68 56.9284 121.737 56.9238 121.796 56.9238C122.06 56.9238 122.268 57.0355 122.418 57.2588C122.573 57.4775 122.65 57.8786 122.65 58.4619C122.65 59.0452 122.573 59.4486 122.418 59.6719C122.268 59.8906 121.98 60 121.557 60C121.133 60 120.843 59.8906 120.688 59.6719C120.538 59.4486 120.463 59.0452 120.463 58.4619V52.4805C120.372 52.1615 120.144 51.8197 119.779 51.4551V50.7715C119.779 50.0879 120.121 49.7461 120.805 49.7461H121.967V50.7715H121.146C120.919 50.7715 120.805 50.8854 120.805 51.1133C121.352 51.4779 121.625 51.9336 121.625 52.4805V56.9375ZM125.043 52.4805H126.205V58.6328L128.461 56.582L130.717 58.6328V52.4805H131.879V60H130.854L128.461 57.9492L126.068 60H125.043V52.4805ZM126.205 50.833C126.205 51.0199 126.957 51.1133 128.461 51.1133C129.965 51.1133 130.717 50.6576 130.717 49.7461V48.7207H131.879V49.7461C131.879 51.3411 130.74 52.1387 128.461 52.1387C126.182 52.1387 125.043 51.7057 125.043 50.8398C125.043 50.1107 125.421 49.7461 126.178 49.7461C126.656 49.7461 126.984 49.8122 127.162 49.9443V50.833C126.839 50.7373 126.599 50.6895 126.444 50.6895C126.285 50.6895 126.205 50.7373 126.205 50.833ZM127.777 46.8066H130.854C129.719 46.0319 128.807 45.6445 128.119 45.6445C127.208 45.6445 126.752 45.8382 126.752 46.2256C126.752 46.613 127.094 46.8066 127.777 46.8066ZM130.854 45.6787V43.9355H131.879V47.6953H127.436C126.296 47.6953 125.727 47.2396 125.727 46.3281C125.727 45.1888 126.524 44.6191 128.119 44.6191C129.031 44.6191 129.885 44.9268 130.683 45.542C130.742 45.5876 130.799 45.6331 130.854 45.6787ZM136.459 55.2148V56.582C136.459 58.1771 137.211 58.9746 138.715 58.9746C140.219 58.9746 140.971 58.1771 140.971 56.582V55.2148H136.459ZM136.459 54.1895H140.971V52.4805C140.971 52.1615 140.743 51.8197 140.287 51.4551V50.7715C140.287 50.0879 140.629 49.7461 141.312 49.7461H142.475V50.7715H141.654C141.426 50.7715 141.312 50.8854 141.312 51.1133C141.859 51.4779 142.133 51.9336 142.133 52.4805V56.582C142.133 58.8607 140.993 60 138.715 60C136.436 60 135.297 58.8607 135.297 56.582V52.4805C135.297 52.1615 135.069 51.8197 134.613 51.4551V50.7715C134.613 50.0879 134.955 49.7461 135.639 49.7461H136.801V50.7715H135.98C135.753 50.7715 135.639 50.8854 135.639 51.1133C136.186 51.4779 136.459 51.9336 136.459 52.4805V54.1895ZM146.234 52.4805V64.4434H144.73L143.603 63.0762L142.475 64.4434H140.971V60.6836H142.133V63.2812L143.603 61.5723L145.072 63.2812V52.4805C145.072 52.1615 144.844 51.8197 144.389 51.4551V50.7715C144.389 50.0879 144.73 49.7461 145.414 49.7461H146.576V50.7715H145.756C145.528 50.7715 145.414 50.8854 145.414 51.1133C145.961 51.4779 146.234 51.9336 146.234 52.4805ZM142.133 46.8066H145.209C144.074 46.0319 143.163 45.6445 142.475 45.6445C141.563 45.6445 141.107 45.8382 141.107 46.2256C141.107 46.613 141.449 46.8066 142.133 46.8066ZM145.209 45.6787V43.9355H146.234V47.6953H141.791C140.652 47.6953 140.082 47.2396 140.082 46.3281C140.082 45.1888 140.88 44.6191 142.475 44.6191C143.386 44.6191 144.241 44.9268 145.038 45.542C145.097 45.5876 145.154 45.6331 145.209 45.6787ZM155.326 53.335C155.23 53.335 155.148 53.3646 155.08 53.4238C155.016 53.4831 154.984 53.5674 154.984 53.6768C154.984 53.7861 155.016 53.8704 155.08 53.9297C155.148 53.9889 155.23 54.0186 155.326 54.0186V53.335ZM149.652 52.4805C149.652 52.1615 149.538 51.8197 149.311 51.4551V51.1133C149.311 50.2018 149.766 49.7461 150.678 49.7461H152.729L154.301 50.7715H154.848C155.167 50.7715 155.326 50.612 155.326 50.293V48.7207H156.488V50.293C156.488 51.2956 156.101 51.7969 155.326 51.7969H154.096L152.523 50.7715H151.156C150.701 50.7715 150.473 50.9082 150.473 51.1816C150.701 51.5462 150.814 51.9792 150.814 52.4805V58.6328L153.07 56.7188L155.326 58.6328V54.8252C155.281 54.8298 155.235 54.832 155.189 54.832C154.88 54.832 154.649 54.734 154.499 54.5381C154.321 54.3193 154.232 54.0322 154.232 53.6768C154.232 53.3213 154.319 53.0342 154.492 52.8154C154.67 52.5921 154.959 52.4805 155.36 52.4805C155.761 52.4805 156.049 52.5921 156.222 52.8154C156.399 53.0342 156.488 53.3213 156.488 53.6768V60H155.463L153.07 57.9492L150.678 60H149.652V52.4805ZM151.02 63.7598C151.115 63.7598 151.174 63.737 151.197 63.6914C151.215 63.6504 151.225 63.5934 151.225 63.5205C151.225 63.4476 151.215 63.3883 151.197 63.3428C151.174 63.3018 151.115 63.2812 151.02 63.2812V63.7598ZM149.994 62.5977C149.994 61.3216 151.02 60.6836 153.07 60.6836C155.121 60.6836 156.146 61.3672 156.146 62.7344V64.4434H155.121V62.7344C155.121 62.0508 154.438 61.709 153.07 61.709C151.703 61.709 151.02 62.0052 151.02 62.5977C151.307 62.5977 151.528 62.6729 151.683 62.8232C151.833 62.9782 151.908 63.2106 151.908 63.5205C151.908 63.8304 151.822 64.0605 151.648 64.2109C151.471 64.3659 151.238 64.4434 150.951 64.4434C150.664 64.4434 150.434 64.3659 150.261 64.2109C150.083 64.0605 149.994 63.8304 149.994 63.5205V62.5977ZM160.932 57.9492V58.9746C161.027 58.9746 161.107 58.9495 161.171 58.8994C161.239 58.8447 161.273 58.6989 161.273 58.4619C161.273 58.2249 161.239 58.0814 161.171 58.0312C161.107 57.9766 161.027 57.9492 160.932 57.9492ZM171.527 52.4805V56.582C171.527 58.8607 170.502 60 168.451 60C166.241 60 165.136 58.8607 165.136 56.582V53.1641C165.136 51.569 164.459 50.7715 163.105 50.7715C161.747 50.7715 161.068 51.569 161.068 53.1641V56.9922C161.173 56.9466 161.294 56.9238 161.431 56.9238C161.567 56.9238 161.711 57.0469 161.861 57.293C162.016 57.5345 162.094 57.9242 162.094 58.4619C162.094 58.9997 161.993 59.3916 161.793 59.6377C161.597 59.8792 161.333 60 161 60C160.667 60 160.403 59.877 160.207 59.6309C160.052 59.444 159.956 59.1683 159.92 58.8037H159.906V53.1641C159.906 50.8854 160.973 49.7461 163.105 49.7461C165.234 49.7461 166.298 50.8854 166.298 53.1641V56.582C166.298 58.1771 167.016 58.9746 168.451 58.9746C169.727 58.9746 170.365 58.1771 170.365 56.582V52.4805C170.365 52.1615 170.137 51.8197 169.682 51.4551V50.7715C169.682 50.0879 170.023 49.7461 170.707 49.7461H171.869V50.7715H171.049C170.821 50.7715 170.707 50.8854 170.707 51.1133C171.254 51.4779 171.527 51.9336 171.527 52.4805ZM168.622 44.6191V47.6953H167.597V44.6191H168.622ZM175.971 57.9492V58.9746C176.066 58.9746 176.146 58.9495 176.21 58.8994C176.278 58.8447 176.312 58.6989 176.312 58.4619C176.312 58.2249 176.278 58.0814 176.21 58.0312C176.146 57.9766 176.066 57.9492 175.971 57.9492ZM174.945 51.7969L176.723 49.7461L178.363 51.1133L180.004 49.7461L181.781 51.7969V60H180.619V52.0703L179.936 51.2158L178.363 52.3438L176.791 51.2158L176.107 52.0703V56.9922C176.212 56.9466 176.333 56.9238 176.47 56.9238C176.606 56.9238 176.75 57.0469 176.9 57.293C177.055 57.5345 177.133 57.9242 177.133 58.4619C177.133 58.9997 177.033 59.3916 176.832 59.6377C176.636 59.8792 176.372 60 176.039 60C175.706 60 175.442 59.877 175.246 59.6309C175.091 59.444 174.995 59.1683 174.959 58.8037H174.945V51.7969ZM179.047 46.2256C179.047 46.5218 179.446 46.6699 180.243 46.6699C181.269 46.6699 181.781 46.1003 181.781 44.9609V44.0723H182.807V44.9609C182.807 46.7839 181.952 47.6953 180.243 47.6953C178.762 47.6953 178.021 47.2054 178.021 46.2256C178.021 45.3825 178.382 44.9609 179.102 44.9609C179.525 44.9609 179.849 45.027 180.072 45.1592L179.867 45.9795C179.68 45.8838 179.509 45.8359 179.354 45.8359C179.149 45.8359 179.047 45.9658 179.047 46.2256ZM186.225 57.9492V58.9746C186.32 58.9746 186.4 58.9495 186.464 58.8994C186.532 58.8447 186.566 58.6989 186.566 58.4619C186.566 58.2249 186.532 58.0814 186.464 58.0312C186.4 57.9766 186.32 57.9492 186.225 57.9492ZM192.035 49.7461V50.7715H185.199V49.7461H192.035ZM185.199 55.2148C185.199 52.9362 186.339 51.7969 188.617 51.7969C190.896 51.7969 192.035 52.9362 192.035 55.2148V60H190.873V55.2148C190.873 53.6198 190.121 52.8223 188.617 52.8223C187.113 52.8223 186.361 53.6198 186.361 55.2148V56.9922C186.466 56.9466 186.587 56.9238 186.724 56.9238C186.86 56.9238 187.004 57.0469 187.154 57.293C187.309 57.5345 187.387 57.9242 187.387 58.4619C187.387 58.9997 187.286 59.3916 187.086 59.6377C186.89 59.8792 186.626 60 186.293 60C185.96 60 185.696 59.877 185.5 59.6309C185.345 59.444 185.249 59.1683 185.213 58.8037H185.199V55.2148ZM190.531 46.7246C190.076 46.0957 189.438 45.7812 188.617 45.7812C187.842 45.7812 187.455 46.0319 187.455 46.5332C187.455 46.7155 187.533 46.8066 187.688 46.8066C187.842 46.8066 188.061 46.7633 188.344 46.6768C188.626 46.5856 188.989 46.54 189.431 46.54C189.968 46.54 190.495 46.8568 191.01 47.4902L190.531 47.9004C190.258 47.5495 189.886 47.374 189.417 47.374C189.066 47.374 188.745 47.4287 188.453 47.5381C188.161 47.6429 187.822 47.6953 187.435 47.6953C186.856 47.6953 186.566 47.3649 186.566 46.7041C186.566 45.542 187.252 44.9609 188.624 44.9609C189.649 44.9609 190.445 45.3711 191.01 46.1914V46.0547C191.01 45.7585 190.919 45.4622 190.736 45.166L191.488 44.9609C191.716 45.2344 191.83 45.599 191.83 46.0547C191.83 46.2826 191.796 46.499 191.728 46.7041C191.659 46.9046 191.47 47.0049 191.16 47.0049C190.91 47.0049 190.7 46.9115 190.531 46.7246ZM196.615 55.2148V56.582C196.615 58.1771 197.367 58.9746 198.871 58.9746C200.375 58.9746 201.127 58.1771 201.127 56.582V55.2148H196.615ZM196.615 54.1895H201.127V52.4805C201.127 52.1615 200.899 51.8197 200.443 51.4551V50.7715C200.443 50.0879 200.785 49.7461 201.469 49.7461H202.631V50.7715H201.811C201.583 50.7715 201.469 50.8854 201.469 51.1133C202.016 51.4779 202.289 51.9336 202.289 52.4805V56.582C202.289 58.8607 201.15 60 198.871 60C196.592 60 195.453 58.8607 195.453 56.582V52.4805C195.453 52.1615 195.225 51.8197 194.77 51.4551V50.7715C194.77 50.0879 195.111 49.7461 195.795 49.7461H196.957V50.7715H196.137C195.909 50.7715 195.795 50.8854 195.795 51.1133C196.342 51.4779 196.615 51.9336 196.615 52.4805V54.1895ZM202.289 49.7461H203.656C205.479 49.7461 206.391 50.6576 206.391 52.4805V60H205.229V52.4805C205.229 51.3411 204.704 50.7715 203.656 50.7715H202.289V49.7461ZM216.645 55.8301V57.2656C216.645 59.0885 216.007 60 214.73 60C213.792 60 213.097 59.7152 212.646 59.1455C212.194 58.5758 211.636 58.291 210.971 58.291V60H209.809V55.8984H210.971V57.2656C211.768 57.2656 212.415 57.5505 212.912 58.1201C213.413 58.6898 213.922 58.9746 214.437 58.9746C215.134 58.9746 215.482 58.4049 215.482 57.2656V56.582C211.7 55.7617 209.809 54.3945 209.809 52.4805C209.809 50.6576 210.948 49.7461 213.227 49.7461C215.505 49.7461 216.645 50.6576 216.645 52.4805C216.645 53.752 216.011 54.3877 214.744 54.3877C214.457 54.3877 214.225 54.3216 214.047 54.1895V53.1641C214.37 53.2598 214.635 53.3076 214.84 53.3076C215.268 53.3076 215.482 53.0319 215.482 52.4805C215.482 51.3411 214.73 50.7715 213.227 50.7715C211.723 50.7715 210.971 51.3411 210.971 52.4805C210.971 53.8477 212.862 54.9642 216.645 55.8301ZM225.736 52.4805C225.736 52.1615 225.508 51.8197 225.053 51.4551V50.7715C225.053 50.0879 225.395 49.7461 226.078 49.7461H227.24V50.7715H226.42C226.192 50.7715 226.078 50.8854 226.078 51.1133C226.625 51.4779 226.898 51.9336 226.898 52.4805V56.582C226.898 58.8607 225.759 60 223.48 60C221.202 60 220.062 58.8607 220.062 56.582V52.4805C220.062 52.1615 219.835 51.8197 219.379 51.4551V50.7715C219.379 50.0879 219.721 49.7461 220.404 49.7461H221.566V50.7715H220.746C220.518 50.7715 220.404 50.8854 220.404 51.1133C220.951 51.4779 221.225 51.9336 221.225 52.4805V56.582C221.225 58.1771 221.977 58.9746 223.48 58.9746C224.984 58.9746 225.736 58.1771 225.736 56.582V52.4805ZM231.649 58.9746C231.7 58.9746 231.741 58.9541 231.772 58.9131C231.804 58.8675 231.82 58.7171 231.82 58.4619C231.82 58.2067 231.804 58.0586 231.772 58.0176C231.741 57.972 231.7 57.9492 231.649 57.9492H231.479V58.9746H231.649ZM231.479 56.9375C231.533 56.9284 231.59 56.9238 231.649 56.9238C231.914 56.9238 232.121 57.0355 232.271 57.2588C232.426 57.4775 232.504 57.8786 232.504 58.4619C232.504 59.0452 232.426 59.4486 232.271 59.6719C232.121 59.8906 231.834 60 231.41 60C230.986 60 230.697 59.8906 230.542 59.6719C230.392 59.4486 230.316 59.0452 230.316 58.4619V52.4805C230.225 52.1615 229.997 51.8197 229.633 51.4551V50.7715C229.633 50.0879 229.975 49.7461 230.658 49.7461H231.82V50.7715H231C230.772 50.7715 230.658 50.8854 230.658 51.1133C231.205 51.4779 231.479 51.9336 231.479 52.4805V56.9375ZM230.556 48.1055C231.011 48.1055 231.239 47.8548 231.239 47.3535C231.239 46.3965 230.897 45.918 230.214 45.918C229.918 45.918 229.667 46.0091 229.462 46.1914L229.12 45.3711C229.416 45.0977 229.781 44.9609 230.214 44.9609C231.535 44.9609 232.196 45.7585 232.196 47.3535C232.196 48.4928 231.649 49.0625 230.556 49.0625C229.599 49.0625 229.12 48.6797 229.12 47.9141C229.12 47.5358 229.204 47.2692 229.373 47.1143C229.546 46.9548 229.847 46.875 230.275 46.875V47.6953C230.143 47.6953 230.077 47.7637 230.077 47.9004C230.077 48.0371 230.237 48.1055 230.556 48.1055ZM241.732 55.8301V57.2656C241.732 59.0885 241.094 60 239.818 60C238.88 60 238.185 59.7152 237.733 59.1455C237.282 58.5758 236.724 58.291 236.059 58.291V60H234.896V55.8984H236.059V57.2656C236.856 57.2656 237.503 57.5505 238 58.1201C238.501 58.6898 239.009 58.9746 239.524 58.9746C240.222 58.9746 240.57 58.4049 240.57 57.2656V56.582C236.788 55.7617 234.896 54.3945 234.896 52.4805C234.896 50.6576 236.036 49.7461 238.314 49.7461C240.593 49.7461 241.732 50.6576 241.732 52.4805C241.732 53.752 241.099 54.3877 239.832 54.3877C239.545 54.3877 239.312 54.3216 239.135 54.1895V53.1641C239.458 53.2598 239.723 53.3076 239.928 53.3076C240.356 53.3076 240.57 53.0319 240.57 52.4805C240.57 51.3411 239.818 50.7715 238.314 50.7715C236.811 50.7715 236.059 51.3411 236.059 52.4805C236.059 53.8477 237.95 54.9642 241.732 55.8301ZM236.264 62.666C236.264 63.222 236.41 63.5 236.701 63.5C236.861 63.5 237.079 63.4521 237.357 63.3564V64.2451C237.225 64.3773 236.993 64.4434 236.66 64.4434C235.712 64.4434 235.238 63.8509 235.238 62.666C235.238 61.3444 235.865 60.6836 237.118 60.6836C237.938 60.6836 238.572 61.0254 239.019 61.709C239.461 62.3926 239.83 62.8483 240.126 63.0762C240.422 63.304 240.844 63.418 241.391 63.418V64.4434C240.707 64.4434 240.172 64.2952 239.784 63.999C239.397 63.7028 239.005 63.2471 238.608 62.6318C238.207 62.0166 237.711 61.709 237.118 61.709C236.549 61.709 236.264 62.028 236.264 62.666ZM246.312 55.2148V56.582C246.312 58.1771 247.064 58.9746 248.568 58.9746C250.072 58.9746 250.824 58.1771 250.824 56.582V55.2148H246.312ZM246.312 54.1895H250.824V52.4805C250.824 52.1615 250.596 51.8197 250.141 51.4551V50.7715C250.141 50.0879 250.482 49.7461 251.166 49.7461H252.328V50.7715H251.508C251.28 50.7715 251.166 50.8854 251.166 51.1133C251.713 51.4779 251.986 51.9336 251.986 52.4805V56.582C251.986 58.8607 250.847 60 248.568 60C246.29 60 245.15 58.8607 245.15 56.582V52.4805C245.15 52.1615 244.923 51.8197 244.467 51.4551V50.7715C244.467 50.0879 244.809 49.7461 245.492 49.7461H246.654V50.7715H245.834C245.606 50.7715 245.492 50.8854 245.492 51.1133C246.039 51.4779 246.312 51.9336 246.312 52.4805V54.1895Z" fill="white"/>
<path d="M194 96L203.526 84.75H184.474L194 96Z" fill="#344054"/>
<rect x="54" y="1" width="280" height="16" fill="#EE7D22" fill-opacity="0.24"/>
<rect x="54" y="69" width="280" height="16" fill="#EE7D22" fill-opacity="0.24"/>
<rect x="54" y="1" width="16" height="84" fill="#EE7D22" fill-opacity="0.24"/>
<rect x="318" y="1" width="16" height="84" fill="#EE7D22" fill-opacity="0.24"/>
<path d="M40.5 1V17" stroke="#F07D03"/>
<rect y="0.5" width="36" height="18" rx="3" fill="#F07D03"/>
<path d="M9.75355 6.22727V13.5H8.21591V7.68679H8.1733L6.50781 8.73082V7.36719L8.30824 6.22727H9.75355ZM14.2733 13.5994C13.8992 13.5971 13.5382 13.5343 13.1902 13.4112C12.8445 13.2881 12.5344 13.0881 12.2598 12.8111C11.9851 12.5341 11.7673 12.1671 11.6064 11.7102C11.4477 11.2533 11.3684 10.6922 11.3684 10.027C11.3708 9.41619 11.4406 8.8705 11.5779 8.38991C11.7176 7.90696 11.9165 7.4974 12.1745 7.16122C12.435 6.82505 12.7463 6.56937 13.1085 6.39418C13.4707 6.21662 13.8767 6.12784 14.3265 6.12784C14.8118 6.12784 15.2404 6.22254 15.612 6.41193C15.9837 6.59896 16.282 6.85346 16.5069 7.17543C16.7342 7.4974 16.8715 7.85843 16.9189 8.25852H15.4025C15.3433 8.00521 15.219 7.80634 15.0297 7.66193C14.8403 7.51752 14.6059 7.44531 14.3265 7.44531C13.853 7.44531 13.4932 7.65128 13.247 8.06321C13.0031 8.47514 12.8788 9.03504 12.8741 9.7429H12.9238C13.0327 9.52746 13.1795 9.34399 13.3642 9.19247C13.5512 9.03859 13.7631 8.9214 13.9998 8.84091C14.2389 8.75805 14.4911 8.71662 14.7562 8.71662C15.1871 8.71662 15.5706 8.81842 15.9068 9.02202C16.243 9.22325 16.5081 9.50024 16.7022 9.85298C16.8964 10.2057 16.9934 10.6094 16.9934 11.0639C16.9934 11.5563 16.8786 11.9943 16.649 12.3778C16.4217 12.7614 16.1033 13.062 15.6937 13.2798C15.2865 13.4953 14.813 13.6018 14.2733 13.5994ZM14.2662 12.392C14.5029 12.392 14.7148 12.3352 14.9018 12.2216C15.0888 12.108 15.2356 11.9541 15.3422 11.7599C15.4487 11.5658 15.502 11.348 15.502 11.1065C15.502 10.8651 15.4487 10.6484 15.3422 10.4567C15.238 10.2649 15.0936 10.1122 14.9089 9.99858C14.7243 9.88494 14.5136 9.82812 14.2768 9.82812C14.0993 9.82812 13.9347 9.86127 13.7832 9.92756C13.6341 9.99384 13.5027 10.0862 13.389 10.2045C13.2778 10.3229 13.1902 10.4602 13.1262 10.6165C13.0623 10.7704 13.0304 10.9349 13.0304 11.1101C13.0304 11.3445 13.0836 11.5587 13.1902 11.7528C13.2991 11.947 13.4458 12.102 13.6305 12.218C13.8175 12.334 14.0294 12.392 14.2662 12.392ZM18.0978 15.5455V8.04545H19.5893V8.96165H19.6568C19.7231 8.81487 19.819 8.66572 19.9444 8.5142C20.0723 8.36032 20.238 8.23248 20.4416 8.13068C20.6475 8.02652 20.9032 7.97443 21.2086 7.97443C21.6064 7.97443 21.9733 8.0786 22.3095 8.28693C22.6457 8.4929 22.9144 8.80421 23.1156 9.22088C23.3168 9.63518 23.4174 10.1548 23.4174 10.7798C23.4174 11.3883 23.3192 11.902 23.1227 12.321C22.9286 12.7377 22.6634 13.0537 22.3272 13.2692C21.9934 13.4822 21.6194 13.5888 21.2051 13.5888C20.9115 13.5888 20.6618 13.5402 20.4558 13.4432C20.2522 13.3461 20.0853 13.2242 19.9551 13.0774C19.8249 12.9283 19.7254 12.7779 19.6568 12.6264H19.6106V15.5455H18.0978ZM19.5787 10.7727C19.5787 11.0971 19.6236 11.38 19.7136 11.6214C19.8036 11.8629 19.9338 12.0511 20.1042 12.1861C20.2747 12.3187 20.4818 12.3849 20.7257 12.3849C20.9719 12.3849 21.1802 12.3175 21.3507 12.1825C21.5211 12.0452 21.6502 11.8558 21.7377 11.6143C21.8277 11.3705 21.8727 11.09 21.8727 10.7727C21.8727 10.4579 21.8289 10.1809 21.7413 9.94176C21.6537 9.70265 21.5247 9.51562 21.3542 9.38068C21.1838 9.24574 20.9743 9.17827 20.7257 9.17827C20.4795 9.17827 20.2711 9.24337 20.1007 9.37358C19.9326 9.50379 19.8036 9.68845 19.7136 9.92756C19.6236 10.1667 19.5787 10.4484 19.5787 10.7727ZM25.4949 8.04545L26.4963 9.95241L27.5225 8.04545H29.0744L27.4941 10.7727L29.117 13.5H27.5723L26.4963 11.6143L25.438 13.5H23.8755L25.4949 10.7727L23.9324 8.04545H25.4949Z" fill="white"/>
<line x1="37" y1="1.5" x2="44" y2="1.5" stroke="#F07D03"/>
<line x1="37" y1="16.5" x2="44" y2="16.5" stroke="#F07D03"/>
<path d="M54 91.5H70" stroke="#F07D03"/>
<rect x="44" y="96" width="36" height="18" rx="3" fill="#F07D03"/>
<path d="M53.7536 101.727V109H52.2159V103.187H52.1733L50.5078 104.231V102.867L52.3082 101.727H53.7536ZM58.2733 109.099C57.8992 109.097 57.5382 109.034 57.1902 108.911C56.8445 108.788 56.5344 108.588 56.2598 108.311C55.9851 108.034 55.7673 107.667 55.6064 107.21C55.4477 106.753 55.3684 106.192 55.3684 105.527C55.3708 104.916 55.4406 104.371 55.5779 103.89C55.7176 103.407 55.9165 102.997 56.1745 102.661C56.435 102.325 56.7463 102.069 57.1085 101.894C57.4707 101.717 57.8767 101.628 58.3265 101.628C58.8118 101.628 59.2404 101.723 59.612 101.912C59.9837 102.099 60.282 102.353 60.5069 102.675C60.7342 102.997 60.8715 103.358 60.9189 103.759H59.4025C59.3433 103.505 59.219 103.306 59.0297 103.162C58.8403 103.018 58.6059 102.945 58.3265 102.945C57.853 102.945 57.4932 103.151 57.247 103.563C57.0031 103.975 56.8788 104.535 56.8741 105.243H56.9238C57.0327 105.027 57.1795 104.844 57.3642 104.692C57.5512 104.539 57.7631 104.421 57.9998 104.341C58.2389 104.258 58.4911 104.217 58.7562 104.217C59.1871 104.217 59.5706 104.318 59.9068 104.522C60.243 104.723 60.5081 105 60.7022 105.353C60.8964 105.706 60.9934 106.109 60.9934 106.564C60.9934 107.056 60.8786 107.494 60.649 107.878C60.4217 108.261 60.1033 108.562 59.6937 108.78C59.2865 108.995 58.813 109.102 58.2733 109.099ZM58.2662 107.892C58.5029 107.892 58.7148 107.835 58.9018 107.722C59.0888 107.608 59.2356 107.454 59.3422 107.26C59.4487 107.066 59.502 106.848 59.502 106.607C59.502 106.365 59.4487 106.148 59.3422 105.957C59.238 105.765 59.0936 105.612 58.9089 105.499C58.7243 105.385 58.5136 105.328 58.2768 105.328C58.0993 105.328 57.9347 105.361 57.7832 105.428C57.6341 105.494 57.5027 105.586 57.389 105.705C57.2778 105.823 57.1902 105.96 57.1262 106.116C57.0623 106.27 57.0304 106.435 57.0304 106.61C57.0304 106.844 57.0836 107.059 57.1902 107.253C57.2991 107.447 57.4458 107.602 57.6305 107.718C57.8175 107.834 58.0294 107.892 58.2662 107.892ZM62.0978 111.045V103.545H63.5893V104.462H63.6568C63.7231 104.315 63.819 104.166 63.9444 104.014C64.0723 103.86 64.238 103.732 64.4416 103.631C64.6475 103.527 64.9032 103.474 65.2086 103.474C65.6064 103.474 65.9733 103.579 66.3095 103.787C66.6457 103.993 66.9144 104.304 67.1156 104.721C67.3168 105.135 67.4174 105.655 67.4174 106.28C67.4174 106.888 67.3192 107.402 67.1227 107.821C66.9286 108.238 66.6634 108.554 66.3272 108.769C65.9934 108.982 65.6194 109.089 65.2051 109.089C64.9115 109.089 64.6618 109.04 64.4558 108.943C64.2522 108.846 64.0853 108.724 63.9551 108.577C63.8249 108.428 63.7254 108.278 63.6568 108.126H63.6106V111.045H62.0978ZM63.5787 106.273C63.5787 106.597 63.6236 106.88 63.7136 107.121C63.8036 107.363 63.9338 107.551 64.1042 107.686C64.2747 107.819 64.4818 107.885 64.7257 107.885C64.9719 107.885 65.1802 107.817 65.3507 107.683C65.5211 107.545 65.6502 107.356 65.7377 107.114C65.8277 106.871 65.8727 106.59 65.8727 106.273C65.8727 105.958 65.8289 105.681 65.7413 105.442C65.6537 105.203 65.5247 105.016 65.3542 104.881C65.1838 104.746 64.9743 104.678 64.7257 104.678C64.4795 104.678 64.2711 104.743 64.1007 104.874C63.9326 105.004 63.8036 105.188 63.7136 105.428C63.6236 105.667 63.5787 105.948 63.5787 106.273ZM69.4949 103.545L70.4963 105.452L71.5225 103.545H73.0744L71.4941 106.273L73.117 109H71.5723L70.4963 107.114L69.438 109H67.8755L69.4949 106.273L67.9324 103.545H69.4949Z" fill="white"/>
<line x1="54.5" y1="95" x2="54.5" y2="88" stroke="#F07D03"/>
<line x1="69.5" y1="95" x2="69.5" y2="88" stroke="#F07D03"/>
<path d="M318 91.5H334" stroke="#F07D03"/>
<rect x="308" y="96" width="36" height="18" rx="3" fill="#F07D03"/>
<path d="M317.754 101.727V109H316.216V103.187H316.173L314.508 104.231V102.867L316.308 101.727H317.754ZM322.273 109.099C321.899 109.097 321.538 109.034 321.19 108.911C320.845 108.788 320.534 108.588 320.26 108.311C319.985 108.034 319.767 107.667 319.606 107.21C319.448 106.753 319.368 106.192 319.368 105.527C319.371 104.916 319.441 104.371 319.578 103.89C319.718 103.407 319.916 102.997 320.175 102.661C320.435 102.325 320.746 102.069 321.108 101.894C321.471 101.717 321.877 101.628 322.327 101.628C322.812 101.628 323.24 101.723 323.612 101.912C323.984 102.099 324.282 102.353 324.507 102.675C324.734 102.997 324.872 103.358 324.919 103.759H323.403C323.343 103.505 323.219 103.306 323.03 103.162C322.84 103.018 322.606 102.945 322.327 102.945C321.853 102.945 321.493 103.151 321.247 103.563C321.003 103.975 320.879 104.535 320.874 105.243H320.924C321.033 105.027 321.18 104.844 321.364 104.692C321.551 104.539 321.763 104.421 322 104.341C322.239 104.258 322.491 104.217 322.756 104.217C323.187 104.217 323.571 104.318 323.907 104.522C324.243 104.723 324.508 105 324.702 105.353C324.896 105.706 324.993 106.109 324.993 106.564C324.993 107.056 324.879 107.494 324.649 107.878C324.422 108.261 324.103 108.562 323.694 108.78C323.287 108.995 322.813 109.102 322.273 109.099ZM322.266 107.892C322.503 107.892 322.715 107.835 322.902 107.722C323.089 107.608 323.236 107.454 323.342 107.26C323.449 107.066 323.502 106.848 323.502 106.607C323.502 106.365 323.449 106.148 323.342 105.957C323.238 105.765 323.094 105.612 322.909 105.499C322.724 105.385 322.514 105.328 322.277 105.328C322.099 105.328 321.935 105.361 321.783 105.428C321.634 105.494 321.503 105.586 321.389 105.705C321.278 105.823 321.19 105.96 321.126 106.116C321.062 106.27 321.03 106.435 321.03 106.61C321.03 106.844 321.084 107.059 321.19 107.253C321.299 107.447 321.446 107.602 321.631 107.718C321.818 107.834 322.029 107.892 322.266 107.892ZM326.098 111.045V103.545H327.589V104.462H327.657C327.723 104.315 327.819 104.166 327.944 104.014C328.072 103.86 328.238 103.732 328.442 103.631C328.648 103.527 328.903 103.474 329.209 103.474C329.606 103.474 329.973 103.579 330.309 103.787C330.646 103.993 330.914 104.304 331.116 104.721C331.317 105.135 331.417 105.655 331.417 106.28C331.417 106.888 331.319 107.402 331.123 107.821C330.929 108.238 330.663 108.554 330.327 108.769C329.993 108.982 329.619 109.089 329.205 109.089C328.912 109.089 328.662 109.04 328.456 108.943C328.252 108.846 328.085 108.724 327.955 108.577C327.825 108.428 327.725 108.278 327.657 108.126H327.611V111.045H326.098ZM327.579 106.273C327.579 106.597 327.624 106.88 327.714 107.121C327.804 107.363 327.934 107.551 328.104 107.686C328.275 107.819 328.482 107.885 328.726 107.885C328.972 107.885 329.18 107.817 329.351 107.683C329.521 107.545 329.65 107.356 329.738 107.114C329.828 106.871 329.873 106.59 329.873 106.273C329.873 105.958 329.829 105.681 329.741 105.442C329.654 105.203 329.525 105.016 329.354 104.881C329.184 104.746 328.974 104.678 328.726 104.678C328.479 104.678 328.271 104.743 328.101 104.874C327.933 105.004 327.804 105.188 327.714 105.428C327.624 105.667 327.579 105.948 327.579 106.273ZM333.495 103.545L334.496 105.452L335.523 103.545H337.074L335.494 106.273L337.117 109H335.572L334.496 107.114L333.438 109H331.876L333.495 106.273L331.932 103.545H333.495Z" fill="white"/>
<line x1="318.5" y1="95" x2="318.5" y2="88" stroke="#F07D03"/>
<line x1="333.5" y1="95" x2="333.5" y2="88" stroke="#F07D03"/>
<rect y="68.5" width="36" height="18" rx="3" fill="#F07D03"/>
<path d="M9.75355 74.2273V81.5H8.21591V75.6868H8.1733L6.50781 76.7308V75.3672L8.30824 74.2273H9.75355ZM14.2733 81.5994C13.8992 81.5971 13.5382 81.5343 13.1902 81.4112C12.8445 81.2881 12.5344 81.0881 12.2598 80.8111C11.9851 80.5341 11.7673 80.1671 11.6064 79.7102C11.4477 79.2533 11.3684 78.6922 11.3684 78.027C11.3708 77.4162 11.4406 76.8705 11.5779 76.3899C11.7176 75.907 11.9165 75.4974 12.1745 75.1612C12.435 74.825 12.7463 74.5694 13.1085 74.3942C13.4707 74.2166 13.8767 74.1278 14.3265 74.1278C14.8118 74.1278 15.2404 74.2225 15.612 74.4119C15.9837 74.599 16.282 74.8535 16.5069 75.1754C16.7342 75.4974 16.8715 75.8584 16.9189 76.2585H15.4025C15.3433 76.0052 15.219 75.8063 15.0297 75.6619C14.8403 75.5175 14.6059 75.4453 14.3265 75.4453C13.853 75.4453 13.4932 75.6513 13.247 76.0632C13.0031 76.4751 12.8788 77.035 12.8741 77.7429H12.9238C13.0327 77.5275 13.1795 77.344 13.3642 77.1925C13.5512 77.0386 13.7631 76.9214 13.9998 76.8409C14.2389 76.758 14.4911 76.7166 14.7562 76.7166C15.1871 76.7166 15.5706 76.8184 15.9068 77.022C16.243 77.2232 16.5081 77.5002 16.7022 77.853C16.8964 78.2057 16.9934 78.6094 16.9934 79.0639C16.9934 79.5563 16.8786 79.9943 16.649 80.3778C16.4217 80.7614 16.1033 81.062 15.6937 81.2798C15.2865 81.4953 14.813 81.6018 14.2733 81.5994ZM14.2662 80.392C14.5029 80.392 14.7148 80.3352 14.9018 80.2216C15.0888 80.108 15.2356 79.9541 15.3422 79.7599C15.4487 79.5658 15.502 79.348 15.502 79.1065C15.502 78.8651 15.4487 78.6484 15.3422 78.4567C15.238 78.2649 15.0936 78.1122 14.9089 77.9986C14.7243 77.8849 14.5136 77.8281 14.2768 77.8281C14.0993 77.8281 13.9347 77.8613 13.7832 77.9276C13.6341 77.9938 13.5027 78.0862 13.389 78.2045C13.2778 78.3229 13.1902 78.4602 13.1262 78.6165C13.0623 78.7704 13.0304 78.9349 13.0304 79.1101C13.0304 79.3445 13.0836 79.5587 13.1902 79.7528C13.2991 79.947 13.4458 80.102 13.6305 80.218C13.8175 80.334 14.0294 80.392 14.2662 80.392ZM18.0978 83.5455V76.0455H19.5893V76.9616H19.6568C19.7231 76.8149 19.819 76.6657 19.9444 76.5142C20.0723 76.3603 20.238 76.2325 20.4416 76.1307C20.6475 76.0265 20.9032 75.9744 21.2086 75.9744C21.6064 75.9744 21.9733 76.0786 22.3095 76.2869C22.6457 76.4929 22.9144 76.8042 23.1156 77.2209C23.3168 77.6352 23.4174 78.1548 23.4174 78.7798C23.4174 79.3883 23.3192 79.902 23.1227 80.321C22.9286 80.7377 22.6634 81.0537 22.3272 81.2692C21.9934 81.4822 21.6194 81.5888 21.2051 81.5888C20.9115 81.5888 20.6618 81.5402 20.4558 81.4432C20.2522 81.3461 20.0853 81.2242 19.9551 81.0774C19.8249 80.9283 19.7254 80.7779 19.6568 80.6264H19.6106V83.5455H18.0978ZM19.5787 78.7727C19.5787 79.0971 19.6236 79.38 19.7136 79.6214C19.8036 79.8629 19.9338 80.0511 20.1042 80.1861C20.2747 80.3187 20.4818 80.3849 20.7257 80.3849C20.9719 80.3849 21.1802 80.3175 21.3507 80.1825C21.5211 80.0452 21.6502 79.8558 21.7377 79.6143C21.8277 79.3705 21.8727 79.09 21.8727 78.7727C21.8727 78.4579 21.8289 78.1809 21.7413 77.9418C21.6537 77.7027 21.5247 77.5156 21.3542 77.3807C21.1838 77.2457 20.9743 77.1783 20.7257 77.1783C20.4795 77.1783 20.2711 77.2434 20.1007 77.3736C19.9326 77.5038 19.8036 77.6884 19.7136 77.9276C19.6236 78.1667 19.5787 78.4484 19.5787 78.7727ZM25.4949 76.0455L26.4963 77.9524L27.5225 76.0455H29.0744L27.4941 78.7727L29.117 81.5H27.5723L26.4963 79.6143L25.438 81.5H23.8755L25.4949 78.7727L23.9324 76.0455H25.4949Z" fill="white"/>
<path d="M40.5 69V85" stroke="#F07D03"/>
<line x1="37" y1="69.5" x2="44" y2="69.5" stroke="#F07D03"/>
<line x1="37" y1="84.5" x2="44" y2="84.5" stroke="#F07D03"/>
</svg>
