<svg width="225" height="165" viewBox="0 0 225 165" fill="none" xmlns="http://www.w3.org/2000/svg">
<rect x="34" y="33.5" width="111" height="50" fill="#002266"/>
<path d="M56.2188 59.2031C56.2188 59.0521 56.1667 58.9766 56.0625 58.9766C55.9583 58.9766 55.9062 59.0547 55.9062 59.2109C55.9062 59.4089 56.0104 59.5182 56.2188 59.5391V59.2031ZM56.2969 60.5391V60.875C56.2969 62.9583 55.2552 64 53.1719 64C51.0885 64 50.0469 62.9583 50.0469 60.875V59.3125H52V60.875C52 61.9167 52.3906 62.4375 53.1719 62.4375C53.9531 62.4375 54.3438 61.9167 54.3438 60.875V60.2266C50.75 58.9297 48.9531 57.3229 48.9531 55.4062C48.9531 53.3229 50.3594 52.2812 53.1719 52.2812C55.9844 52.2812 57.3906 53.3229 57.3906 55.4062C57.3906 56.8594 56.5625 57.5859 54.9062 57.5859C54.4531 57.5859 54.0833 57.4792 53.7969 57.2656V55.6016C54.4323 55.7891 54.8385 55.8828 55.0156 55.8828C55.2969 55.8828 55.4375 55.724 55.4375 55.4062C55.4375 54.3646 54.6823 53.8438 53.1719 53.8438C51.6615 53.8438 50.9062 54.3646 50.9062 55.4062C50.9062 57.0521 52.0521 58.1536 54.3438 58.7109C54.3438 58.2786 54.8125 58.0625 55.75 58.0625C56.8438 58.0625 57.3906 58.388 57.3906 59.0391C57.3906 59.6276 57.2839 60.0182 57.0703 60.2109C56.862 60.4036 56.6042 60.513 56.2969 60.5391ZM63.25 58.9219V60.0938C63.25 61.6562 64.0052 62.4375 65.5156 62.4375C67.026 62.4375 67.7812 61.6562 67.7812 60.0938V58.9219H63.25ZM67.7812 55.4062C67.7812 54.9792 67.5208 54.5573 67 54.1406V53.4531C67 52.6719 67.4948 52.2812 68.4844 52.2812H70.125V53.8438H68.7969V53.9375C69.4219 54.3542 69.7344 54.8438 69.7344 55.4062V60.0938C69.7344 62.6979 68.3281 64 65.5156 64C62.7031 64 61.2969 62.6979 61.2969 60.0938V55.4062C61.2969 54.9792 61.0365 54.5573 60.5156 54.1406V53.4531C60.5156 52.6719 61.0104 52.2812 62 52.2812H63.6406V53.8438H62.3125V53.9375C62.9375 54.3542 63.25 54.8438 63.25 55.4062V57.3594H67.7812V55.4062ZM63.3438 67.0469C63.3438 67.6302 63.4714 67.9219 63.7266 67.9219C63.8724 67.9219 64.0651 67.8672 64.3047 67.7578V68.8516C64.138 69.0026 63.7891 69.0781 63.2578 69.0781C62.2109 69.0781 61.6875 68.401 61.6875 67.0469C61.6875 65.5365 62.3776 64.7812 63.7578 64.7812C64.9349 64.7812 65.7422 65.237 66.1797 66.1484C66.6172 67.0599 67.0312 67.5156 67.4219 67.5156C67.8177 67.5156 68.2474 66.6042 68.7109 64.7812L70.125 65.0938C69.4219 67.75 68.5208 69.0781 67.4219 69.0781C66.5781 69.0781 65.9401 68.6224 65.5078 67.7109C65.0703 66.7995 64.5391 66.3438 63.9141 66.3438C63.5339 66.3438 63.3438 66.5781 63.3438 67.0469ZM69.7344 52.2812H71.6094C74.2656 52.2812 75.5938 53.3229 75.5938 55.4062V64H73.6406V55.4062C73.6406 54.3646 72.9635 53.8438 71.6094 53.8438H69.7344V52.2812ZM81.4531 64H79.5V58.5312C79.5 55.9271 80.9062 54.625 83.7188 54.625C86.5312 54.625 87.9375 55.9271 87.9375 58.5312V64H85.9844V58.5312C85.9844 56.9688 85.2292 56.1875 83.7188 56.1875C82.2083 56.1875 81.4531 56.9688 81.4531 58.5312V64ZM87.9375 52.2812V53.8438H79.5V52.2812H87.9375ZM84.6172 46.4219V49.9375H83.0547V46.4219H84.6172ZM98.7188 56.5C98.5938 56.5 98.5104 56.5286 98.4688 56.5859C98.4271 56.638 98.4062 56.6979 98.4062 56.7656C98.4062 56.8333 98.4245 56.888 98.4609 56.9297C98.5026 56.987 98.5885 57.0156 98.7188 57.0156V56.5ZM91.8438 55.4062C91.8438 54.9896 91.7135 54.5729 91.4531 54.1562V53.8438C91.4531 52.8021 92.0781 52.2812 93.3281 52.2812H100.281V53.8438H93.875C93.5625 53.8438 93.4062 53.8958 93.4062 54C93.6667 54.4167 93.7969 54.8854 93.7969 55.4062V60.0938C93.7969 61.6562 94.5521 62.4375 96.0625 62.4375C97.5729 62.4375 98.3281 61.6562 98.3281 60.0938V58.1172C97.9115 58.1016 97.5885 57.9427 97.3594 57.6406C97.1719 57.4115 97.0781 57.1224 97.0781 56.7734C97.0781 56.4245 97.1901 56.1094 97.4141 55.8281C97.638 55.5469 98.0729 55.4062 98.7188 55.4062C99.3125 55.4062 99.7214 55.5469 99.9453 55.8281C100.169 56.1094 100.281 56.4245 100.281 56.7734V60.0938C100.281 62.6979 98.875 64 96.0625 64C93.25 64 91.8438 62.6979 91.8438 60.0938V55.4062ZM100.281 64.7812V69.0781H98.3281V64.7812H100.281ZM105.555 54.4297C105.555 54.5599 105.589 54.6562 105.656 54.7188C105.719 54.7865 105.815 54.8203 105.945 54.8203C106.076 54.8203 106.172 54.7865 106.234 54.7188C106.302 54.6562 106.336 54.5599 106.336 54.4297C106.336 54.2995 106.302 54.2031 106.234 54.1406C106.172 54.0729 106.076 54.0391 105.945 54.0391C105.815 54.0391 105.719 54.0729 105.656 54.1406C105.589 54.2031 105.555 54.2995 105.555 54.4297ZM107.703 54.4297C107.703 55.0182 107.557 55.4583 107.266 55.75C106.974 56.0417 106.534 56.1875 105.945 56.1875C105.357 56.1875 104.917 56.0417 104.625 55.75C104.333 55.4583 104.188 55.0182 104.188 54.4297C104.188 53.8411 104.333 53.401 104.625 53.1094C104.917 52.8177 105.357 52.6719 105.945 52.6719C106.534 52.6719 106.974 52.8177 107.266 53.1094C107.557 53.401 107.703 53.8411 107.703 54.4297ZM105.555 61.8516C105.555 61.9818 105.589 62.0781 105.656 62.1406C105.719 62.2083 105.815 62.2422 105.945 62.2422C106.076 62.2422 106.172 62.2083 106.234 62.1406C106.302 62.0781 106.336 61.9818 106.336 61.8516C106.336 61.7214 106.302 61.625 106.234 61.5625C106.172 61.4948 106.076 61.4609 105.945 61.4609C105.815 61.4609 105.719 61.4948 105.656 61.5625C105.589 61.625 105.555 61.7214 105.555 61.8516ZM107.703 61.8516C107.703 62.4401 107.557 62.8802 107.266 63.1719C106.974 63.4635 106.534 63.6094 105.945 63.6094C105.357 63.6094 104.917 63.4635 104.625 63.1719C104.333 62.8802 104.188 62.4401 104.188 61.8516C104.188 61.263 104.333 60.8229 104.625 60.5312C104.917 60.2396 105.357 60.0938 105.945 60.0938C106.534 60.0938 106.974 60.2396 107.266 60.5312C107.557 60.8229 107.703 61.263 107.703 61.8516Z" fill="white"/>
<path fill-rule="evenodd" clip-rule="evenodd" d="M120.136 55.4044C120.178 55.3614 120.229 55.3273 120.285 55.304C120.342 55.2808 120.402 55.2688 120.462 55.2688C120.523 55.2688 120.583 55.2808 120.639 55.304C120.695 55.3273 120.746 55.3614 120.789 55.4044L126 60.6164L131.211 55.4044C131.254 55.3615 131.305 55.3274 131.361 55.3042C131.417 55.281 131.477 55.269 131.538 55.269C131.599 55.269 131.659 55.281 131.715 55.3042C131.771 55.3274 131.822 55.3615 131.865 55.4044C131.908 55.4473 131.942 55.4982 131.965 55.5543C131.988 55.6103 132 55.6704 132 55.7311C132 55.7918 131.988 55.8519 131.965 55.9079C131.942 55.964 131.908 56.0149 131.865 56.0578L126.327 61.5957C126.284 61.6386 126.233 61.6727 126.177 61.696C126.121 61.7193 126.061 61.7312 126 61.7312C125.939 61.7312 125.879 61.7193 125.823 61.696C125.767 61.6727 125.716 61.6386 125.673 61.5957L120.136 56.0578C120.093 56.015 120.059 55.964 120.035 55.908C120.012 55.8519 120 55.7918 120 55.7311C120 55.6704 120.012 55.6103 120.035 55.5542C120.059 55.4982 120.093 55.4472 120.136 55.4044Z" fill="white"/>
<path d="M97 162C103.627 162 109 156.627 109 150C109 143.373 103.627 138 97 138C90.3726 138 85 143.373 85 150C85 156.627 90.3726 162 97 162Z" fill="#344054"/>
<path d="M92.9432 155V153.227L97.0852 149.392C97.4375 149.051 97.733 148.744 97.9716 148.472C98.214 148.199 98.3977 147.932 98.5227 147.67C98.6477 147.405 98.7102 147.119 98.7102 146.812C98.7102 146.472 98.6326 146.178 98.4773 145.932C98.322 145.682 98.1098 145.491 97.8409 145.358C97.572 145.222 97.267 145.153 96.9261 145.153C96.5701 145.153 96.2595 145.225 95.9943 145.369C95.7292 145.513 95.5246 145.72 95.3807 145.989C95.2367 146.258 95.1648 146.578 95.1648 146.949H92.8295C92.8295 146.187 93.0019 145.527 93.3466 144.966C93.6913 144.405 94.1742 143.972 94.7955 143.665C95.4167 143.358 96.1326 143.205 96.9432 143.205C97.7765 143.205 98.5019 143.352 99.1193 143.648C99.7405 143.939 100.223 144.345 100.568 144.864C100.913 145.383 101.085 145.977 101.085 146.648C101.085 147.087 100.998 147.521 100.824 147.949C100.653 148.377 100.348 148.852 99.9091 149.375C99.4697 149.894 98.8504 150.517 98.0511 151.244L96.3523 152.909V152.989H101.239V155H92.9432Z" fill="white"/>
<path d="M97 89.5V139.5" stroke="#344054" stroke-dasharray="2 2"/>
<path d="M202 74.5C208.627 74.5 214 69.1274 214 62.5C214 55.8726 208.627 50.5 202 50.5C195.373 50.5 190 55.8726 190 62.5C190 69.1274 195.373 74.5 202 74.5Z" fill="#344054"/>
<path d="M202.244 68.6587C201.396 68.6587 200.64 68.5129 199.977 68.2212C199.318 67.9257 198.797 67.5204 198.415 67.0053C198.036 66.4863 197.841 65.8879 197.83 65.2098H200.307C200.322 65.4939 200.415 65.7439 200.585 65.9598C200.759 66.1719 200.991 66.3367 201.278 66.4541C201.566 66.5716 201.89 66.6303 202.25 66.6303C202.625 66.6303 202.956 66.564 203.244 66.4314C203.532 66.2988 203.758 66.1151 203.92 65.8803C204.083 65.6454 204.165 65.3746 204.165 65.0678C204.165 64.7572 204.078 64.4826 203.903 64.2439C203.733 64.0015 203.487 63.8121 203.165 63.6757C202.847 63.5394 202.468 63.4712 202.028 63.4712H200.943V61.6644H202.028C202.4 61.6644 202.727 61.6 203.011 61.4712C203.299 61.3424 203.523 61.1644 203.682 60.9371C203.841 60.706 203.92 60.4371 203.92 60.1303C203.92 59.8386 203.85 59.5829 203.71 59.3632C203.574 59.1398 203.381 58.9655 203.131 58.8405C202.884 58.7155 202.597 58.653 202.267 58.653C201.934 58.653 201.629 58.7136 201.352 58.8348C201.076 58.9523 200.854 59.1208 200.688 59.3405C200.521 59.5602 200.432 59.8178 200.42 60.1132H198.062C198.074 59.4428 198.265 58.8519 198.636 58.3405C199.008 57.8291 199.508 57.4295 200.136 57.1416C200.769 56.85 201.483 56.7041 202.278 56.7041C203.081 56.7041 203.784 56.85 204.386 57.1416C204.989 57.4333 205.456 57.8273 205.79 58.3235C206.127 58.8159 206.294 59.3689 206.29 59.9826C206.294 60.6341 206.091 61.1776 205.682 61.6132C205.277 62.0488 204.748 62.3254 204.097 62.4428V62.5337C204.953 62.6435 205.604 62.9409 206.051 63.4257C206.502 63.9068 206.725 64.5091 206.722 65.2326C206.725 65.8954 206.534 66.4844 206.148 66.9996C205.765 67.5148 205.237 67.9201 204.562 68.2155C203.888 68.511 203.116 68.6587 202.244 68.6587Z" fill="white"/>
<path d="M142 62.5H195" stroke="#344054" stroke-dasharray="2 2"/>
<path d="M12 28C18.6274 28 24 22.6274 24 16C24 9.37258 18.6274 4 12 4C5.37258 4 0 9.37258 0 16C0 22.6274 5.37258 28 12 28Z" fill="#344054"/>
<path d="M14.0057 10.3635V21.9999H11.5455V12.6988H11.4773L8.8125 14.3692V12.1874L11.6932 10.3635H14.0057Z" fill="white"/>
<path d="M24 15.5H97V47.5" stroke="#344054" stroke-dasharray="2 2"/>
</svg>
