<svg width="380" height="115" viewBox="0 0 380 115" fill="none" xmlns="http://www.w3.org/2000/svg">
<path d="M346 32H0V82H346V32Z" fill="#1C4076"/>
<path d="M32.6719 58.3828C32.7083 58.3932 32.7448 58.3984 32.7812 58.3984C32.9167 58.3984 32.9844 58.2917 32.9844 58.0781C32.9844 57.8698 32.9323 57.7656 32.8281 57.7656C32.724 57.7656 32.6719 57.8672 32.6719 58.0703V58.3828ZM32.6719 59.0859V59.875C32.6719 61.9583 31.7344 63 29.8594 63C27.9844 63 27.0469 61.9583 27.0469 59.875V58.3125H28.375V59.875C28.375 61.1771 28.8698 61.8281 29.8594 61.8281C30.849 61.8281 31.3438 61.1771 31.3438 59.875V58.8984C27.75 57.862 25.9531 56.3646 25.9531 54.4062C25.9531 52.3229 27.2552 51.2812 29.8594 51.2812C32.4635 51.2812 33.7656 52.3229 33.7656 54.4062C33.7656 55.8594 33.0417 56.5859 31.5938 56.5859C31.2656 56.5859 31 56.5104 30.7969 56.3594V55.1875C31.1667 55.2969 31.4688 55.3516 31.7031 55.3516C32.1927 55.3516 32.4375 55.0365 32.4375 54.4062C32.4375 53.1042 31.5781 52.4531 29.8594 52.4531C28.1406 52.4531 27.2812 53.1042 27.2812 54.4062C27.2812 56.0156 28.6354 57.1484 31.3438 57.8047C31.3438 57.3099 31.7083 57.0625 32.4375 57.0625C33.3229 57.0625 33.7656 57.388 33.7656 58.0391C33.7656 58.4297 33.6771 58.7057 33.5 58.8672C33.3229 59.0286 33.1328 59.1094 32.9297 59.1094C32.8464 59.1094 32.7604 59.1016 32.6719 59.0859ZM29.4688 47.1797C29.4688 47.3724 29.5182 47.5182 29.6172 47.6172C29.7161 47.7161 29.862 47.7656 30.0547 47.7656C30.2526 47.7656 30.401 47.7161 30.5 47.6172C30.5938 47.5182 30.6406 47.3724 30.6406 47.1797C30.6406 46.9818 30.5938 46.8359 30.5 46.7422C30.401 46.6432 30.2526 46.5938 30.0547 46.5938C29.862 46.5938 29.7161 46.6432 29.6172 46.7422C29.5182 46.8359 29.4688 46.9818 29.4688 47.1797ZM31.8125 47.1797C31.8125 47.7682 31.6667 48.2083 31.375 48.5C31.0833 48.7917 30.6432 48.9375 30.0547 48.9375C29.4661 48.9375 29.026 48.7917 28.7344 48.5C28.4427 48.2083 28.2969 47.7682 28.2969 47.1797C28.2969 46.5911 28.4427 46.151 28.7344 45.8594C29.026 45.5677 29.4661 45.4219 30.0547 45.4219C30.6432 45.4219 31.0833 45.5677 31.375 45.8594C31.6667 46.151 31.8125 46.5911 31.8125 47.1797ZM38.8438 60.6562V61.8281C38.9531 61.8281 39.0443 61.7995 39.1172 61.7422C39.1953 61.6797 39.2344 61.513 39.2344 61.2422C39.2344 60.9714 39.1953 60.8073 39.1172 60.75C39.0443 60.6875 38.9531 60.6562 38.8438 60.6562ZM37.6719 53.625L39.7031 51.2812L41.5781 52.8438L43.4531 51.2812L45.4844 53.625V63H44.1562V53.9375L43.375 52.9609L41.5781 54.25L39.7812 52.9609L39 53.9375V59.5625C39.1198 59.5104 39.2578 59.4844 39.4141 59.4844C39.5703 59.4844 39.7344 59.625 39.9062 59.9062C40.0833 60.1823 40.1719 60.6276 40.1719 61.2422C40.1719 61.8568 40.0573 62.3047 39.8281 62.5859C39.6042 62.862 39.3021 63 38.9219 63C38.5417 63 38.2396 62.8594 38.0156 62.5781C37.8385 62.3646 37.7292 62.0495 37.6875 61.6328H37.6719V53.625ZM42.3594 47.2578C42.3594 47.5964 42.8151 47.7656 43.7266 47.7656C44.8984 47.7656 45.4844 47.1146 45.4844 45.8125V44.7969H46.6562V45.8125C46.6562 47.8958 45.6797 48.9375 43.7266 48.9375C42.0339 48.9375 41.1875 48.3776 41.1875 47.2578C41.1875 46.2943 41.599 45.8125 42.4219 45.8125C42.9062 45.8125 43.276 45.888 43.5312 46.0391L43.2969 46.9766C43.0833 46.8672 42.888 46.8125 42.7109 46.8125C42.4766 46.8125 42.3594 46.9609 42.3594 47.2578ZM49.3906 61.8281V60.6562H49.1953C49.138 60.6562 49.0911 60.6823 49.0547 60.7344C49.0182 60.7812 49 60.9505 49 61.2422C49 61.5339 49.0182 61.7057 49.0547 61.7578C49.0911 61.8047 49.138 61.8281 49.1953 61.8281H49.3906ZM50.7188 54.4062V61.2422C50.7188 61.9089 50.6302 62.3698 50.4531 62.625C50.2812 62.875 49.9531 63 49.4688 63C48.9844 63 48.6536 62.875 48.4766 62.625C48.3047 62.3698 48.2188 61.9089 48.2188 61.2422C48.2188 60.5755 48.3047 60.1172 48.4766 59.8672C48.6536 59.612 48.8932 59.4844 49.1953 59.4844C49.263 59.4844 49.3281 59.4896 49.3906 59.5V54.4062C49.2865 54.0417 49.026 53.651 48.6094 53.2344V52.4531C48.6094 51.6719 49 51.2812 49.7812 51.2812H51.1094V52.4531H50.1719C49.9115 52.4531 49.7812 52.5833 49.7812 52.8438C50.4062 53.2604 50.7188 53.7812 50.7188 54.4062ZM56.1484 61.8281C56.2057 61.8281 56.2526 61.8047 56.2891 61.7578C56.3255 61.7057 56.3438 61.5339 56.3438 61.2422C56.3438 60.9505 56.3255 60.7812 56.2891 60.7344C56.2526 60.6823 56.2057 60.6562 56.1484 60.6562H55.9531V61.8281H56.1484ZM55.9531 59.5C56.0156 59.4896 56.0807 59.4844 56.1484 59.4844C56.4505 59.4844 56.6875 59.612 56.8594 59.8672C57.0365 60.1172 57.125 60.5755 57.125 61.2422C57.125 61.9089 57.0365 62.3698 56.8594 62.625C56.6875 62.875 56.3594 63 55.875 63C55.3906 63 55.0599 62.875 54.8828 62.625C54.7109 62.3698 54.625 61.9089 54.625 61.2422V54.4062C54.5208 54.0417 54.2604 53.651 53.8438 53.2344V52.4531C53.8438 51.6719 54.2344 51.2812 55.0156 51.2812H56.3438V52.4531H55.4062C55.1458 52.4531 55.0156 52.5833 55.0156 52.8438C55.6406 53.2604 55.9531 53.7812 55.9531 54.4062V59.5ZM59.8594 54.4062H61.1875V61.4375L63.7656 59.0938L66.3438 61.4375V54.4062H67.6719V63H66.5L63.7656 60.6562L61.0312 63H59.8594V54.4062ZM61.1875 52.5234C61.1875 52.737 62.0469 52.8438 63.7656 52.8438C65.4844 52.8438 66.3438 52.3229 66.3438 51.2812V50.1094H67.6719V51.2812C67.6719 53.1042 66.3698 54.0156 63.7656 54.0156C61.1615 54.0156 59.8594 53.5208 59.8594 52.5312C59.8594 51.6979 60.2917 51.2812 61.1562 51.2812C61.7031 51.2812 62.0781 51.3568 62.2812 51.5078V52.5234C61.9115 52.4141 61.638 52.3594 61.4609 52.3594C61.2786 52.3594 61.1875 52.4141 61.1875 52.5234ZM62.9844 47.9219H66.5C65.2031 47.0365 64.1615 46.5938 63.375 46.5938C62.3333 46.5938 61.8125 46.8151 61.8125 47.2578C61.8125 47.7005 62.2031 47.9219 62.9844 47.9219ZM66.5 46.6328V44.6406H67.6719V48.9375H62.5938C61.2917 48.9375 60.6406 48.4167 60.6406 47.375C60.6406 46.0729 61.5521 45.4219 63.375 45.4219C64.4167 45.4219 65.3932 45.7734 66.3047 46.4766C66.3724 46.5286 66.4375 46.5807 66.5 46.6328ZM72.9062 57.5312V59.0938C72.9062 60.9167 73.7656 61.8281 75.4844 61.8281C77.2031 61.8281 78.0625 60.9167 78.0625 59.0938V57.5312H72.9062ZM72.9062 56.3594H78.0625V54.4062C78.0625 54.0417 77.8021 53.651 77.2812 53.2344V52.4531C77.2812 51.6719 77.6719 51.2812 78.4531 51.2812H79.7812V52.4531H78.8438C78.5833 52.4531 78.4531 52.5833 78.4531 52.8438C79.0781 53.2604 79.3906 53.7812 79.3906 54.4062V59.0938C79.3906 61.6979 78.0885 63 75.4844 63C72.8802 63 71.5781 61.6979 71.5781 59.0938V54.4062C71.5781 54.0417 71.3177 53.651 70.7969 53.2344V52.4531C70.7969 51.6719 71.1875 51.2812 71.9688 51.2812H73.2969V52.4531H72.3594C72.099 52.4531 71.9688 52.5833 71.9688 52.8438C72.5938 53.2604 72.9062 53.7812 72.9062 54.4062V56.3594Z" fill="white"/>
<path d="M274.672 59.3828C274.708 59.3932 274.745 59.3984 274.781 59.3984C274.917 59.3984 274.984 59.2917 274.984 59.0781C274.984 58.8698 274.932 58.7656 274.828 58.7656C274.724 58.7656 274.672 58.8672 274.672 59.0703V59.3828ZM274.672 60.0859V60.875C274.672 62.9583 273.734 64 271.859 64C269.984 64 269.047 62.9583 269.047 60.875V59.3125H270.375V60.875C270.375 62.1771 270.87 62.8281 271.859 62.8281C272.849 62.8281 273.344 62.1771 273.344 60.875V59.8984C269.75 58.862 267.953 57.3646 267.953 55.4062C267.953 53.3229 269.255 52.2812 271.859 52.2812C274.464 52.2812 275.766 53.3229 275.766 55.4062C275.766 56.8594 275.042 57.5859 273.594 57.5859C273.266 57.5859 273 57.5104 272.797 57.3594V56.1875C273.167 56.2969 273.469 56.3516 273.703 56.3516C274.193 56.3516 274.438 56.0365 274.438 55.4062C274.438 54.1042 273.578 53.4531 271.859 53.4531C270.141 53.4531 269.281 54.1042 269.281 55.4062C269.281 57.0156 270.635 58.1484 273.344 58.8047C273.344 58.3099 273.708 58.0625 274.438 58.0625C275.323 58.0625 275.766 58.388 275.766 59.0391C275.766 59.4297 275.677 59.7057 275.5 59.8672C275.323 60.0286 275.133 60.1094 274.93 60.1094C274.846 60.1094 274.76 60.1016 274.672 60.0859ZM271.469 48.1797C271.469 48.3724 271.518 48.5182 271.617 48.6172C271.716 48.7161 271.862 48.7656 272.055 48.7656C272.253 48.7656 272.401 48.7161 272.5 48.6172C272.594 48.5182 272.641 48.3724 272.641 48.1797C272.641 47.9818 272.594 47.8359 272.5 47.7422C272.401 47.6432 272.253 47.5938 272.055 47.5938C271.862 47.5938 271.716 47.6432 271.617 47.7422C271.518 47.8359 271.469 47.9818 271.469 48.1797ZM273.812 48.1797C273.812 48.7682 273.667 49.2083 273.375 49.5C273.083 49.7917 272.643 49.9375 272.055 49.9375C271.466 49.9375 271.026 49.7917 270.734 49.5C270.443 49.2083 270.297 48.7682 270.297 48.1797C270.297 47.5911 270.443 47.151 270.734 46.8594C271.026 46.5677 271.466 46.4219 272.055 46.4219C272.643 46.4219 273.083 46.5677 273.375 46.8594C273.667 47.151 273.812 47.5911 273.812 48.1797ZM280.844 61.6562V62.8281C280.953 62.8281 281.044 62.7995 281.117 62.7422C281.195 62.6797 281.234 62.513 281.234 62.2422C281.234 61.9714 281.195 61.8073 281.117 61.75C281.044 61.6875 280.953 61.6562 280.844 61.6562ZM279.672 54.625L281.703 52.2812L283.578 53.8438L285.453 52.2812L287.484 54.625V64H286.156V54.9375L285.375 53.9609L283.578 55.25L281.781 53.9609L281 54.9375V60.5625C281.12 60.5104 281.258 60.4844 281.414 60.4844C281.57 60.4844 281.734 60.625 281.906 60.9062C282.083 61.1823 282.172 61.6276 282.172 62.2422C282.172 62.8568 282.057 63.3047 281.828 63.5859C281.604 63.862 281.302 64 280.922 64C280.542 64 280.24 63.8594 280.016 63.5781C279.839 63.3646 279.729 63.0495 279.688 62.6328H279.672V54.625ZM284.359 48.2578C284.359 48.5964 284.815 48.7656 285.727 48.7656C286.898 48.7656 287.484 48.1146 287.484 46.8125V45.7969H288.656V46.8125C288.656 48.8958 287.68 49.9375 285.727 49.9375C284.034 49.9375 283.188 49.3776 283.188 48.2578C283.188 47.2943 283.599 46.8125 284.422 46.8125C284.906 46.8125 285.276 46.888 285.531 47.0391L285.297 47.9766C285.083 47.8672 284.888 47.8125 284.711 47.8125C284.477 47.8125 284.359 47.9609 284.359 48.2578ZM291.391 62.8281V61.6562H291.195C291.138 61.6562 291.091 61.6823 291.055 61.7344C291.018 61.7812 291 61.9505 291 62.2422C291 62.5339 291.018 62.7057 291.055 62.7578C291.091 62.8047 291.138 62.8281 291.195 62.8281H291.391ZM292.719 55.4062V62.2422C292.719 62.9089 292.63 63.3698 292.453 63.625C292.281 63.875 291.953 64 291.469 64C290.984 64 290.654 63.875 290.477 63.625C290.305 63.3698 290.219 62.9089 290.219 62.2422C290.219 61.5755 290.305 61.1172 290.477 60.8672C290.654 60.612 290.893 60.4844 291.195 60.4844C291.263 60.4844 291.328 60.4896 291.391 60.5V55.4062C291.286 55.0417 291.026 54.651 290.609 54.2344V53.4531C290.609 52.6719 291 52.2812 291.781 52.2812H293.109V53.4531H292.172C291.911 53.4531 291.781 53.5833 291.781 53.8438C292.406 54.2604 292.719 54.7812 292.719 55.4062ZM298.148 62.8281C298.206 62.8281 298.253 62.8047 298.289 62.7578C298.326 62.7057 298.344 62.5339 298.344 62.2422C298.344 61.9505 298.326 61.7812 298.289 61.7344C298.253 61.6823 298.206 61.6562 298.148 61.6562H297.953V62.8281H298.148ZM297.953 60.5C298.016 60.4896 298.081 60.4844 298.148 60.4844C298.451 60.4844 298.688 60.612 298.859 60.8672C299.036 61.1172 299.125 61.5755 299.125 62.2422C299.125 62.9089 299.036 63.3698 298.859 63.625C298.688 63.875 298.359 64 297.875 64C297.391 64 297.06 63.875 296.883 63.625C296.711 63.3698 296.625 62.9089 296.625 62.2422V55.4062C296.521 55.0417 296.26 54.651 295.844 54.2344V53.4531C295.844 52.6719 296.234 52.2812 297.016 52.2812H298.344V53.4531H297.406C297.146 53.4531 297.016 53.5833 297.016 53.8438C297.641 54.2604 297.953 54.7812 297.953 55.4062V60.5ZM301.859 55.4062H303.188V62.4375L305.766 60.0938L308.344 62.4375V55.4062H309.672V64H308.5L305.766 61.6562L303.031 64H301.859V55.4062ZM303.188 53.5234C303.188 53.737 304.047 53.8438 305.766 53.8438C307.484 53.8438 308.344 53.3229 308.344 52.2812V51.1094H309.672V52.2812C309.672 54.1042 308.37 55.0156 305.766 55.0156C303.161 55.0156 301.859 54.5208 301.859 53.5312C301.859 52.6979 302.292 52.2812 303.156 52.2812C303.703 52.2812 304.078 52.3568 304.281 52.5078V53.5234C303.911 53.4141 303.638 53.3594 303.461 53.3594C303.279 53.3594 303.188 53.4141 303.188 53.5234ZM304.984 48.9219H308.5C307.203 48.0365 306.161 47.5938 305.375 47.5938C304.333 47.5938 303.812 47.8151 303.812 48.2578C303.812 48.7005 304.203 48.9219 304.984 48.9219ZM308.5 47.6328V45.6406H309.672V49.9375H304.594C303.292 49.9375 302.641 49.4167 302.641 48.375C302.641 47.0729 303.552 46.4219 305.375 46.4219C306.417 46.4219 307.393 46.7734 308.305 47.4766C308.372 47.5286 308.438 47.5807 308.5 47.6328ZM314.906 58.5312V60.0938C314.906 61.9167 315.766 62.8281 317.484 62.8281C319.203 62.8281 320.062 61.9167 320.062 60.0938V58.5312H314.906ZM314.906 57.3594H320.062V55.4062C320.062 55.0417 319.802 54.651 319.281 54.2344V53.4531C319.281 52.6719 319.672 52.2812 320.453 52.2812H321.781V53.4531H320.844C320.583 53.4531 320.453 53.5833 320.453 53.8438C321.078 54.2604 321.391 54.7812 321.391 55.4062V60.0938C321.391 62.6979 320.089 64 317.484 64C314.88 64 313.578 62.6979 313.578 60.0938V55.4062C313.578 55.0417 313.318 54.651 312.797 54.2344V53.4531C312.797 52.6719 313.188 52.2812 313.969 52.2812H315.297V53.4531H314.359C314.099 53.4531 313.969 53.5833 313.969 53.8438C314.594 54.2604 314.906 54.7812 314.906 55.4062V57.3594Z" fill="white"/>
<rect x="106" y="32" width="136" height="50" fill="#002266"/>
<path d="M139.219 57.2031C139.219 57.0521 139.167 56.9766 139.062 56.9766C138.958 56.9766 138.906 57.0547 138.906 57.2109C138.906 57.4089 139.01 57.5182 139.219 57.5391V57.2031ZM139.297 58.5391V58.875C139.297 60.9583 138.255 62 136.172 62C134.089 62 133.047 60.9583 133.047 58.875V57.3125H135V58.875C135 59.9167 135.391 60.4375 136.172 60.4375C136.953 60.4375 137.344 59.9167 137.344 58.875V58.2266C133.75 56.9297 131.953 55.3229 131.953 53.4062C131.953 51.3229 133.359 50.2812 136.172 50.2812C138.984 50.2812 140.391 51.3229 140.391 53.4062C140.391 54.8594 139.562 55.5859 137.906 55.5859C137.453 55.5859 137.083 55.4792 136.797 55.2656V53.6016C137.432 53.7891 137.839 53.8828 138.016 53.8828C138.297 53.8828 138.438 53.724 138.438 53.4062C138.438 52.3646 137.682 51.8438 136.172 51.8438C134.661 51.8438 133.906 52.3646 133.906 53.4062C133.906 55.0521 135.052 56.1536 137.344 56.7109C137.344 56.2786 137.812 56.0625 138.75 56.0625C139.844 56.0625 140.391 56.388 140.391 57.0391C140.391 57.6276 140.284 58.0182 140.07 58.2109C139.862 58.4036 139.604 58.513 139.297 58.5391ZM146.25 56.9219V58.0938C146.25 59.6562 147.005 60.4375 148.516 60.4375C150.026 60.4375 150.781 59.6562 150.781 58.0938V56.9219H146.25ZM150.781 53.4062C150.781 52.9792 150.521 52.5573 150 52.1406V51.4531C150 50.6719 150.495 50.2812 151.484 50.2812H153.125V51.8438H151.797V51.9375C152.422 52.3542 152.734 52.8438 152.734 53.4062V58.0938C152.734 60.6979 151.328 62 148.516 62C145.703 62 144.297 60.6979 144.297 58.0938V53.4062C144.297 52.9792 144.036 52.5573 143.516 52.1406V51.4531C143.516 50.6719 144.01 50.2812 145 50.2812H146.641V51.8438H145.312V51.9375C145.938 52.3542 146.25 52.8438 146.25 53.4062V55.3594H150.781V53.4062ZM146.344 65.0469C146.344 65.6302 146.471 65.9219 146.727 65.9219C146.872 65.9219 147.065 65.8672 147.305 65.7578V66.8516C147.138 67.0026 146.789 67.0781 146.258 67.0781C145.211 67.0781 144.688 66.401 144.688 65.0469C144.688 63.5365 145.378 62.7812 146.758 62.7812C147.935 62.7812 148.742 63.237 149.18 64.1484C149.617 65.0599 150.031 65.5156 150.422 65.5156C150.818 65.5156 151.247 64.6042 151.711 62.7812L153.125 63.0938C152.422 65.75 151.521 67.0781 150.422 67.0781C149.578 67.0781 148.94 66.6224 148.508 65.7109C148.07 64.7995 147.539 64.3438 146.914 64.3438C146.534 64.3438 146.344 64.5781 146.344 65.0469ZM152.734 50.2812H154.609C157.266 50.2812 158.594 51.3229 158.594 53.4062V62H156.641V53.4062C156.641 52.3646 155.964 51.8438 154.609 51.8438H152.734V50.2812ZM164.453 62H162.5V56.5312C162.5 53.9271 163.906 52.625 166.719 52.625C169.531 52.625 170.938 53.9271 170.938 56.5312V62H168.984V56.5312C168.984 54.9688 168.229 54.1875 166.719 54.1875C165.208 54.1875 164.453 54.9688 164.453 56.5312V62ZM170.938 50.2812V51.8438H162.5V50.2812H170.938ZM167.617 44.4219V47.9375H166.055V44.4219H167.617ZM181.719 54.5C181.594 54.5 181.51 54.5286 181.469 54.5859C181.427 54.638 181.406 54.6979 181.406 54.7656C181.406 54.8333 181.424 54.888 181.461 54.9297C181.503 54.987 181.589 55.0156 181.719 55.0156V54.5ZM174.844 53.4062C174.844 52.9896 174.714 52.5729 174.453 52.1562V51.8438C174.453 50.8021 175.078 50.2812 176.328 50.2812H183.281V51.8438H176.875C176.562 51.8438 176.406 51.8958 176.406 52C176.667 52.4167 176.797 52.8854 176.797 53.4062V58.0938C176.797 59.6562 177.552 60.4375 179.062 60.4375C180.573 60.4375 181.328 59.6562 181.328 58.0938V56.1172C180.911 56.1016 180.589 55.9427 180.359 55.6406C180.172 55.4115 180.078 55.1224 180.078 54.7734C180.078 54.4245 180.19 54.1094 180.414 53.8281C180.638 53.5469 181.073 53.4062 181.719 53.4062C182.312 53.4062 182.721 53.5469 182.945 53.8281C183.169 54.1094 183.281 54.4245 183.281 54.7734V58.0938C183.281 60.6979 181.875 62 179.062 62C176.25 62 174.844 60.6979 174.844 58.0938V53.4062ZM183.281 62.7812V67.0781H181.328V62.7812H183.281ZM188.555 52.4297C188.555 52.5599 188.589 52.6562 188.656 52.7188C188.719 52.7865 188.815 52.8203 188.945 52.8203C189.076 52.8203 189.172 52.7865 189.234 52.7188C189.302 52.6562 189.336 52.5599 189.336 52.4297C189.336 52.2995 189.302 52.2031 189.234 52.1406C189.172 52.0729 189.076 52.0391 188.945 52.0391C188.815 52.0391 188.719 52.0729 188.656 52.1406C188.589 52.2031 188.555 52.2995 188.555 52.4297ZM190.703 52.4297C190.703 53.0182 190.557 53.4583 190.266 53.75C189.974 54.0417 189.534 54.1875 188.945 54.1875C188.357 54.1875 187.917 54.0417 187.625 53.75C187.333 53.4583 187.188 53.0182 187.188 52.4297C187.188 51.8411 187.333 51.401 187.625 51.1094C187.917 50.8177 188.357 50.6719 188.945 50.6719C189.534 50.6719 189.974 50.8177 190.266 51.1094C190.557 51.401 190.703 51.8411 190.703 52.4297ZM188.555 59.8516C188.555 59.9818 188.589 60.0781 188.656 60.1406C188.719 60.2083 188.815 60.2422 188.945 60.2422C189.076 60.2422 189.172 60.2083 189.234 60.1406C189.302 60.0781 189.336 59.9818 189.336 59.8516C189.336 59.7214 189.302 59.625 189.234 59.5625C189.172 59.4948 189.076 59.4609 188.945 59.4609C188.815 59.4609 188.719 59.4948 188.656 59.5625C188.589 59.625 188.555 59.7214 188.555 59.8516ZM190.703 59.8516C190.703 60.4401 190.557 60.8802 190.266 61.1719C189.974 61.4635 189.534 61.6094 188.945 61.6094C188.357 61.6094 187.917 61.4635 187.625 61.1719C187.333 60.8802 187.188 60.4401 187.188 59.8516C187.188 59.263 187.333 58.8229 187.625 58.5312C187.917 58.2396 188.357 58.0938 188.945 58.0938C189.534 58.0938 189.974 58.2396 190.266 58.5312C190.557 58.8229 190.703 59.263 190.703 59.8516Z" fill="white"/>
<path fill-rule="evenodd" clip-rule="evenodd" d="M205.136 54.1356C205.178 54.0926 205.229 54.0585 205.285 54.0352C205.342 54.012 205.402 54 205.462 54C205.523 54 205.583 54.012 205.639 54.0352C205.695 54.0585 205.746 54.0926 205.789 54.1356L211 59.3476L216.211 54.1356C216.254 54.0927 216.305 54.0586 216.361 54.0354C216.417 54.0122 216.477 54.0002 216.538 54.0002C216.599 54.0002 216.659 54.0122 216.715 54.0354C216.771 54.0586 216.822 54.0927 216.865 54.1356C216.908 54.1785 216.942 54.2294 216.965 54.2855C216.988 54.3415 217 54.4016 217 54.4623C217 54.523 216.988 54.5831 216.965 54.6391C216.942 54.6952 216.908 54.7461 216.865 54.789L211.327 60.3269C211.284 60.3698 211.233 60.4039 211.177 60.4272C211.121 60.4505 211.061 60.4624 211 60.4624C210.939 60.4624 210.879 60.4505 210.823 60.4272C210.767 60.4039 210.716 60.3698 210.673 60.3269L205.136 54.789C205.093 54.7462 205.059 54.6952 205.035 54.6392C205.012 54.5831 205 54.523 205 54.4623C205 54.4016 205.012 54.3415 205.035 54.2854C205.059 54.2294 205.093 54.1784 205.136 54.1356Z" fill="white"/>
<path d="M218 89H242" stroke="#F07D03"/>
<path d="M245 97H214C212.343 97 211 98.3431 211 100V112C211 113.657 212.343 115 214 115H245C246.657 115 248 113.657 248 112V100C248 98.3431 246.657 97 245 97Z" fill="#F07D03"/>
<path d="M217.589 110V108.892L220.178 106.495C220.398 106.282 220.583 106.09 220.732 105.92C220.884 105.749 220.999 105.582 221.077 105.419C221.155 105.253 221.194 105.075 221.194 104.883C221.194 104.67 221.145 104.486 221.048 104.332C220.951 104.176 220.819 104.057 220.651 103.974C220.482 103.888 220.292 103.846 220.079 103.846C219.856 103.846 219.662 103.891 219.496 103.981C219.331 104.071 219.203 104.2 219.113 104.368C219.023 104.536 218.978 104.736 218.978 104.968H217.518C217.518 104.492 217.626 104.079 217.842 103.729C218.057 103.378 218.359 103.107 218.747 102.915C219.135 102.724 219.583 102.628 220.089 102.628C220.61 102.628 221.064 102.72 221.45 102.905C221.838 103.087 222.14 103.34 222.355 103.665C222.571 103.989 222.678 104.361 222.678 104.78C222.678 105.054 222.624 105.326 222.515 105.593C222.408 105.861 222.218 106.158 221.943 106.484C221.669 106.809 221.281 107.198 220.782 107.653L219.72 108.693V108.743H222.774V110H217.589ZM223.622 108.722V107.511L226.658 102.727H227.702V104.403H227.084L225.17 107.433V107.489H229.485V108.722H223.622ZM227.113 110V108.352L227.141 107.816V102.727H228.583V110H227.113ZM230.524 112.045V104.545H232.015V105.462H232.083C232.149 105.315 232.245 105.166 232.37 105.014C232.498 104.86 232.664 104.732 232.867 104.631C233.073 104.527 233.329 104.474 233.634 104.474C234.032 104.474 234.399 104.579 234.735 104.787C235.071 104.993 235.34 105.304 235.541 105.721C235.743 106.135 235.843 106.655 235.843 107.28C235.843 107.888 235.745 108.402 235.548 108.821C235.354 109.238 235.089 109.554 234.753 109.769C234.419 109.982 234.045 110.089 233.631 110.089C233.337 110.089 233.088 110.04 232.882 109.943C232.678 109.846 232.511 109.724 232.381 109.577C232.251 109.428 232.151 109.278 232.083 109.126H232.036V112.045H230.524ZM232.004 107.273C232.004 107.597 232.049 107.88 232.139 108.121C232.229 108.363 232.36 108.551 232.53 108.686C232.7 108.819 232.908 108.885 233.151 108.885C233.398 108.885 233.606 108.817 233.776 108.683C233.947 108.545 234.076 108.356 234.164 108.114C234.253 107.871 234.298 107.59 234.298 107.273C234.298 106.958 234.255 106.681 234.167 106.442C234.079 106.203 233.95 106.016 233.78 105.881C233.61 105.746 233.4 105.678 233.151 105.678C232.905 105.678 232.697 105.743 232.526 105.874C232.358 106.004 232.229 106.188 232.139 106.428C232.049 106.667 232.004 106.948 232.004 107.273ZM237.921 104.545L238.922 106.452L239.948 104.545H241.5L239.92 107.273L241.543 110H239.998L238.922 108.114L237.864 110H236.301L237.921 107.273L236.358 104.545H237.921Z" fill="white"/>
<path d="M218.5 93V86" stroke="#F07D03"/>
<path d="M241.5 93V86" stroke="#F07D03"/>
<path d="M242 32H218V82H242V32Z" fill="#EE7D22" fill-opacity="0.24"/>
<path d="M106 25H130" stroke="#F07D03"/>
<path d="M106.5 29V22" stroke="#F07D03"/>
<path d="M129.5 29V22" stroke="#F07D03"/>
<path d="M133 0H103C101.343 0 100 1.34315 100 3V15C100 16.6569 101.343 18 103 18H133C134.657 18 136 16.6569 136 15V3C136 1.34315 134.657 0 133 0Z" fill="#F07D03"/>
<path d="M107.071 12.372V11.264L109.66 8.86699C109.88 8.65399 110.065 8.46199 110.214 8.29199C110.366 8.12099 110.481 7.954 110.559 7.791C110.637 7.625 110.676 7.44699 110.676 7.25499C110.676 7.04199 110.627 6.85799 110.53 6.70399C110.433 6.54799 110.301 6.42899 110.133 6.34599C109.964 6.25999 109.774 6.21799 109.561 6.21799C109.338 6.21799 109.144 6.263 108.978 6.353C108.813 6.443 108.685 6.57199 108.595 6.73999C108.505 6.90799 108.46 7.108 108.46 7.34H107C107 6.864 107.108 6.451 107.324 6.101C107.539 5.75 107.841 5.47899 108.229 5.28699C108.617 5.09599 109.065 5 109.571 5C110.092 5 110.546 5.09199 110.932 5.27699C111.32 5.45899 111.622 5.71199 111.837 6.03699C112.053 6.36099 112.16 6.73299 112.16 7.15199C112.16 7.42599 112.106 7.698 111.997 7.965C111.89 8.233 111.7 8.52999 111.425 8.85599C111.151 9.18099 110.763 9.56999 110.264 10.025L109.202 11.065V11.115H112.256V12.372H107.071ZM113.104 11.094V9.883L116.14 5.099H117.184V6.77499H116.566L114.652 9.80499V9.86099H118.967V11.094H113.104ZM116.595 12.372V10.724L116.623 10.188V5.099H118.065V12.372H116.595ZM120.006 14.417V6.91699H121.497V7.834H121.565C121.631 7.687 121.727 7.538 121.852 7.386C121.98 7.232 122.146 7.10399 122.349 7.00299C122.555 6.89899 122.811 6.84599 123.116 6.84599C123.514 6.84599 123.881 6.951 124.217 7.159C124.553 7.365 124.822 7.67599 125.023 8.09299C125.225 8.50699 125.325 9.02699 125.325 9.65199C125.325 10.26 125.227 10.774 125.03 11.193C124.836 11.61 124.571 11.926 124.235 12.141C123.901 12.354 123.527 12.461 123.113 12.461C122.819 12.461 122.57 12.412 122.364 12.315C122.16 12.218 121.993 12.096 121.863 11.949C121.733 11.8 121.633 11.65 121.565 11.498H121.518V14.417H120.006ZM121.486 9.64499C121.486 9.96899 121.531 10.252 121.621 10.493C121.711 10.735 121.842 10.923 122.012 11.058C122.182 11.191 122.39 11.257 122.633 11.257C122.88 11.257 123.088 11.189 123.258 11.055C123.429 10.917 123.558 10.728 123.646 10.486C123.735 10.243 123.78 9.96199 123.78 9.64499C123.78 9.32999 123.737 9.053 123.649 8.814C123.561 8.575 123.432 8.38799 123.262 8.25299C123.092 8.11799 122.882 8.04999 122.633 8.04999C122.387 8.04999 122.179 8.11499 122.008 8.24599C121.84 8.37599 121.711 8.55999 121.621 8.79999C121.531 9.03899 121.486 9.31999 121.486 9.64499ZM127.403 6.91699L128.404 8.82399L129.43 6.91699H130.982L129.402 9.64499L131.025 12.372H129.48L128.404 10.486L127.346 12.372H125.783L127.403 9.64499L125.84 6.91699H127.403Z" fill="white"/>
<path d="M130 32H106V82H130V32Z" fill="#EE7D22" fill-opacity="0.24"/>
<path d="M191 25H203" stroke="#F07D03"/>
<path d="M191.5 29V22" stroke="#F07D03"/>
<path d="M203.5 29V22" stroke="#F07D03"/>
<path d="M213 1H183C181.343 1 180 2.34315 180 4V16C180 17.6569 181.343 19 183 19H213C214.657 19 216 17.6569 216 16V4C216 2.34315 214.657 1 213 1Z" fill="#F07D03"/>
<path d="M187.338 12.0771H188.808V7.8584C188.808 7.69564 188.812 7.52474 188.822 7.3457L187.782 8.21484C187.737 8.25065 187.691 8.27507 187.646 8.28809C187.603 8.30111 187.559 8.30762 187.514 8.30762C187.449 8.30762 187.388 8.2946 187.333 8.26855C187.278 8.23926 187.237 8.20671 187.211 8.1709L186.82 7.63379L189.027 5.75879H190.038V12.0771H191.342V13H187.338V12.0771ZM194.809 5.69043C195.144 5.69043 195.45 5.73926 195.727 5.83691C196.003 5.93457 196.239 6.07454 196.435 6.25684C196.633 6.43587 196.786 6.65234 196.894 6.90625C197.004 7.16016 197.06 7.44173 197.06 7.75098C197.06 8.0179 197.021 8.2653 196.942 8.49316C196.864 8.71777 196.758 8.93424 196.625 9.14258C196.495 9.34766 196.342 9.54785 196.166 9.74316C195.99 9.93522 195.805 10.1305 195.609 10.3291L193.979 11.9941C194.141 11.9486 194.299 11.9128 194.452 11.8867C194.605 11.8607 194.752 11.8477 194.892 11.8477H196.747C196.881 11.8477 196.986 11.8867 197.064 11.9648C197.143 12.0397 197.182 12.1374 197.182 12.2578V13H192.221V12.5898C192.221 12.5052 192.239 12.4189 192.274 12.3311C192.31 12.2399 192.366 12.1569 192.44 12.082L194.638 9.87988C194.82 9.69434 194.983 9.51693 195.126 9.34766C195.272 9.17513 195.395 9.00586 195.492 8.83984C195.59 8.67383 195.665 8.50456 195.717 8.33203C195.769 8.15951 195.795 7.97884 195.795 7.79004C195.795 7.61751 195.769 7.46615 195.717 7.33594C195.668 7.20247 195.596 7.0918 195.502 7.00391C195.411 6.91276 195.3 6.8444 195.17 6.79883C195.043 6.75326 194.9 6.73047 194.74 6.73047C194.444 6.73047 194.2 6.80534 194.008 6.95508C193.816 7.10482 193.682 7.30664 193.607 7.56055C193.568 7.6875 193.511 7.77865 193.437 7.83398C193.365 7.88932 193.274 7.91699 193.163 7.91699C193.111 7.91699 193.056 7.91211 192.997 7.90234L192.348 7.78516C192.396 7.43685 192.493 7.13249 192.636 6.87207C192.779 6.61165 192.958 6.39355 193.173 6.21777C193.388 6.04199 193.633 5.91016 193.91 5.82227C194.19 5.73438 194.49 5.69043 194.809 5.69043ZM201.422 7.44C202.035 7.44 202.532 7.68 202.912 8.16C203.292 8.63333 203.482 9.33333 203.482 10.26C203.482 10.88 203.392 11.4033 203.212 11.83C203.032 12.25 202.785 12.5667 202.472 12.78C202.158 12.9933 201.795 13.1 201.382 13.1C201.122 13.1 200.895 13.0667 200.702 13C200.515 12.9333 200.355 12.8467 200.222 12.74C200.088 12.6333 199.972 12.52 199.872 12.4H199.792C199.818 12.5267 199.838 12.66 199.852 12.8C199.865 12.9333 199.872 13.0667 199.872 13.2V15.4H198.382V7.54H199.592L199.802 8.25H199.872C199.972 8.10333 200.092 7.97 200.232 7.85C200.372 7.72333 200.538 7.62333 200.732 7.55C200.932 7.47667 201.162 7.44 201.422 7.44ZM200.942 8.63C200.682 8.63 200.475 8.68333 200.322 8.79C200.168 8.89667 200.055 9.06 199.982 9.28C199.915 9.49333 199.878 9.76333 199.872 10.09V10.25C199.872 10.6033 199.905 10.9033 199.972 11.15C200.038 11.39 200.152 11.5733 200.312 11.7C200.472 11.8267 200.688 11.89 200.962 11.89C201.188 11.89 201.375 11.8267 201.522 11.7C201.668 11.5733 201.778 11.3867 201.852 11.14C201.925 10.8933 201.962 10.5933 201.962 10.24C201.962 9.70667 201.878 9.30667 201.712 9.04C201.552 8.76667 201.295 8.63 200.942 8.63ZM205.634 10.21L203.874 7.54H205.564L206.624 9.28L207.694 7.54H209.384L207.604 10.21L209.464 13H207.774L206.624 11.13L205.474 13H203.784L205.634 10.21Z" fill="white"/>
<path d="M204 32H192V82H204V32Z" fill="#EE7D22" fill-opacity="0.24"/>
<path d="M82 89H106" stroke="#F07D03"/>
<path d="M109 97H78C76.3431 97 75 98.3431 75 100V112C75 113.657 76.3431 115 78 115H109C110.657 115 112 113.657 112 112V100C112 98.3431 110.657 97 109 97Z" fill="#F07D03"/>
<path d="M81.5891 110V108.892L84.1781 106.495C84.3981 106.282 84.5831 106.09 84.7321 105.92C84.8841 105.749 84.9991 105.582 85.0771 105.419C85.1551 105.253 85.1941 105.075 85.1941 104.883C85.1941 104.67 85.1451 104.486 85.0481 104.332C84.9511 104.176 84.8191 104.057 84.6511 103.974C84.4821 103.888 84.2921 103.846 84.0791 103.846C83.8561 103.846 83.6621 103.891 83.4961 103.981C83.3311 104.071 83.2031 104.2 83.1131 104.368C83.0231 104.536 82.9781 104.736 82.9781 104.968H81.5181C81.5181 104.492 81.6261 104.079 81.8421 103.729C82.0571 103.378 82.3591 103.107 82.7471 102.915C83.1351 102.724 83.5831 102.628 84.0891 102.628C84.6101 102.628 85.0641 102.72 85.4501 102.905C85.8381 103.087 86.1401 103.34 86.3551 103.665C86.5711 103.989 86.6781 104.361 86.6781 104.78C86.6781 105.054 86.6241 105.326 86.5151 105.593C86.4081 105.861 86.2181 106.158 85.9431 106.484C85.6691 106.809 85.2811 107.198 84.7821 107.653L83.7201 108.693V108.743H86.7741V110H81.5891ZM87.6221 108.722V107.511L90.6581 102.727H91.7021V104.403H91.0841L89.1701 107.433V107.489H93.4851V108.722H87.6221ZM91.1131 110V108.352L91.1411 107.816V102.727H92.5831V110H91.1131ZM94.5241 112.045V104.545H96.0151V105.462H96.0831C96.1491 105.315 96.2451 105.166 96.3701 105.014C96.4981 104.86 96.6641 104.732 96.8671 104.631C97.0731 104.527 97.3291 104.474 97.6341 104.474C98.0321 104.474 98.3991 104.579 98.7351 104.787C99.0711 104.993 99.3401 105.304 99.5411 105.721C99.7431 106.135 99.8431 106.655 99.8431 107.28C99.8431 107.888 99.7451 108.402 99.5481 108.821C99.3541 109.238 99.0891 109.554 98.7531 109.769C98.4191 109.982 98.0451 110.089 97.6311 110.089C97.3371 110.089 97.0881 110.04 96.8821 109.943C96.6781 109.846 96.5111 109.724 96.3811 109.577C96.2511 109.428 96.1511 109.278 96.0831 109.126H96.0361V112.045H94.5241ZM96.0041 107.273C96.0041 107.597 96.0491 107.88 96.1391 108.121C96.2291 108.363 96.3601 108.551 96.5301 108.686C96.7001 108.819 96.9081 108.885 97.1511 108.885C97.3981 108.885 97.6061 108.817 97.7761 108.683C97.9471 108.545 98.0761 108.356 98.1641 108.114C98.2531 107.871 98.2981 107.59 98.2981 107.273C98.2981 106.958 98.2551 106.681 98.1671 106.442C98.0791 106.203 97.9501 106.016 97.7801 105.881C97.6101 105.746 97.4001 105.678 97.1511 105.678C96.9051 105.678 96.6971 105.743 96.5261 105.874C96.3581 106.004 96.2291 106.188 96.1391 106.428C96.0491 106.667 96.0041 106.948 96.0041 107.273ZM101.921 104.545L102.922 106.452L103.948 104.545H105.5L103.92 107.273L105.543 110H103.998L102.922 108.114L101.864 110H100.301L101.921 107.273L100.358 104.545H101.921Z" fill="white"/>
<path d="M82.5 93V86" stroke="#F07D03"/>
<path d="M105.5 93V86" stroke="#F07D03"/>
<path d="M105 32H81V82H105V32Z" fill="#EE7D22" fill-opacity="0.24"/>
<path d="M243 25H267" stroke="#F07D03"/>
<path d="M243.5 29V22" stroke="#F07D03"/>
<path d="M266.5 29V22" stroke="#F07D03"/>
<path d="M270 0H240C238.343 0 237 1.34315 237 3V15C237 16.6569 238.343 18 240 18H270C271.657 18 273 16.6569 273 15V3C273 1.34315 271.657 0 270 0Z" fill="#F07D03"/>
<path d="M244.071 12.372V11.264L246.66 8.86699C246.88 8.65399 247.065 8.46199 247.214 8.29199C247.366 8.12099 247.481 7.954 247.559 7.791C247.637 7.625 247.676 7.44699 247.676 7.25499C247.676 7.04199 247.627 6.85799 247.53 6.70399C247.433 6.54799 247.301 6.42899 247.133 6.34599C246.964 6.25999 246.774 6.21799 246.561 6.21799C246.338 6.21799 246.144 6.263 245.978 6.353C245.813 6.443 245.685 6.57199 245.595 6.73999C245.505 6.90799 245.46 7.108 245.46 7.34H244C244 6.864 244.108 6.451 244.324 6.101C244.539 5.75 244.841 5.47899 245.229 5.28699C245.617 5.09599 246.065 5 246.571 5C247.092 5 247.546 5.09199 247.932 5.27699C248.32 5.45899 248.622 5.71199 248.837 6.03699C249.053 6.36099 249.16 6.73299 249.16 7.15199C249.16 7.42599 249.106 7.698 248.997 7.965C248.89 8.233 248.7 8.52999 248.425 8.85599C248.151 9.18099 247.763 9.56999 247.264 10.025L246.202 11.065V11.115H249.256V12.372H244.071ZM250.104 11.094V9.883L253.14 5.099H254.184V6.77499H253.566L251.652 9.80499V9.86099H255.967V11.094H250.104ZM253.595 12.372V10.724L253.623 10.188V5.099H255.065V12.372H253.595ZM257.006 14.417V6.91699H258.497V7.834H258.565C258.631 7.687 258.727 7.538 258.852 7.386C258.98 7.232 259.146 7.10399 259.349 7.00299C259.555 6.89899 259.811 6.84599 260.116 6.84599C260.514 6.84599 260.881 6.951 261.217 7.159C261.553 7.365 261.822 7.67599 262.023 8.09299C262.225 8.50699 262.325 9.02699 262.325 9.65199C262.325 10.26 262.227 10.774 262.03 11.193C261.836 11.61 261.571 11.926 261.235 12.141C260.901 12.354 260.527 12.461 260.113 12.461C259.819 12.461 259.57 12.412 259.364 12.315C259.16 12.218 258.993 12.096 258.863 11.949C258.733 11.8 258.633 11.65 258.565 11.498H258.518V14.417H257.006ZM258.486 9.64499C258.486 9.96899 258.531 10.252 258.621 10.493C258.711 10.735 258.842 10.923 259.012 11.058C259.182 11.191 259.39 11.257 259.633 11.257C259.88 11.257 260.088 11.189 260.258 11.055C260.429 10.917 260.558 10.728 260.646 10.486C260.735 10.243 260.78 9.96199 260.78 9.64499C260.78 9.32999 260.737 9.053 260.649 8.814C260.561 8.575 260.432 8.38799 260.262 8.25299C260.092 8.11799 259.882 8.04999 259.633 8.04999C259.387 8.04999 259.179 8.11499 259.008 8.24599C258.84 8.37599 258.711 8.55999 258.621 8.79999C258.531 9.03899 258.486 9.31999 258.486 9.64499ZM264.403 6.91699L265.404 8.82399L266.43 6.91699H267.982L266.402 9.64499L268.025 12.372H266.48L265.404 10.486L264.346 12.372H262.783L264.403 9.64499L262.84 6.91699H264.403Z" fill="white"/>
<path d="M267 32H243V82H267V32Z" fill="#EE7D22" fill-opacity="0.24"/>
<path d="M346 70H0V82H346V70Z" fill="#EE7D22" fill-opacity="0.24"/>
<path d="M346 32H0V44H346V32Z" fill="#EE7D22" fill-opacity="0.24"/>
<path d="M379.5 91.5V60.5C379.5 58.8431 378.157 57.5 376.5 57.5H364.5C362.843 57.5 361.5 58.8431 361.5 60.5V91.5C361.5 93.1569 362.843 94.5 364.5 94.5H376.5C378.157 94.5 379.5 93.1569 379.5 91.5Z" fill="#F07D03"/>
<path d="M368.414 65.8379V67.3076H372.633C372.796 67.3076 372.967 67.3125 373.146 67.3223L372.277 66.2822C372.241 66.2367 372.217 66.1911 372.203 66.1455C372.19 66.1032 372.184 66.0592 372.184 66.0137C372.184 65.9486 372.197 65.8883 372.223 65.833C372.252 65.7777 372.285 65.737 372.321 65.7109L372.858 65.3203L374.733 67.5273V68.5381H368.414V69.8418H367.492V65.8379H368.414ZM374.801 73.3086C374.801 73.6439 374.752 73.9499 374.655 74.2266C374.557 74.5033 374.417 74.7393 374.235 74.9346C374.056 75.1331 373.839 75.2861 373.585 75.3936C373.331 75.5042 373.05 75.5596 372.741 75.5596C372.474 75.5596 372.226 75.5205 371.998 75.4424C371.774 75.3643 371.557 75.2585 371.349 75.125C371.144 74.9948 370.944 74.8418 370.748 74.666C370.556 74.4902 370.361 74.3047 370.162 74.1094L368.497 72.4785C368.543 72.6413 368.579 72.7992 368.605 72.9521C368.631 73.1051 368.644 73.2516 368.644 73.3916V75.2471C368.644 75.3805 368.605 75.4863 368.527 75.5645C368.452 75.6426 368.354 75.6816 368.234 75.6816H367.492V70.7207H367.902C367.986 70.7207 368.073 70.7386 368.161 70.7744C368.252 70.8102 368.335 70.8656 368.41 70.9404L370.612 73.1377C370.797 73.32 370.975 73.4827 371.144 73.626C371.316 73.7725 371.486 73.8945 371.652 73.9922C371.818 74.0898 371.987 74.1647 372.16 74.2168C372.332 74.2689 372.513 74.2949 372.702 74.2949C372.874 74.2949 373.025 74.2689 373.156 74.2168C373.289 74.168 373.4 74.0964 373.488 74.002C373.579 73.9108 373.647 73.8001 373.693 73.6699C373.738 73.543 373.761 73.3997 373.761 73.2402C373.761 72.944 373.686 72.6999 373.536 72.5078C373.387 72.3158 373.185 72.1823 372.931 72.1074C372.804 72.0684 372.713 72.0114 372.658 71.9365C372.602 71.8649 372.575 71.7738 372.575 71.6631C372.575 71.611 372.579 71.5557 372.589 71.4971L372.706 70.8477C373.055 70.8965 373.359 70.9925 373.62 71.1357C373.88 71.279 374.098 71.458 374.274 71.6729C374.45 71.8877 374.581 72.1335 374.669 72.4102C374.757 72.6901 374.801 72.9896 374.801 73.3086ZM373.052 79.9216C373.052 80.5349 372.812 81.0316 372.332 81.4116C371.858 81.7916 371.158 81.9816 370.232 81.9816C369.612 81.9816 369.088 81.8916 368.662 81.7116C368.242 81.5316 367.925 81.2849 367.712 80.9716C367.498 80.6582 367.392 80.2949 367.392 79.8816C367.392 79.6216 367.425 79.3949 367.492 79.2016C367.558 79.0149 367.645 78.8549 367.752 78.7216C367.858 78.5882 367.972 78.4716 368.092 78.3716V78.2916C367.965 78.3182 367.832 78.3382 367.692 78.3516C367.558 78.3649 367.425 78.3716 367.292 78.3716H365.092V76.8816H372.952V78.0916L372.242 78.3016V78.3716C372.388 78.4716 372.522 78.5916 372.642 78.7316C372.768 78.8716 372.868 79.0382 372.942 79.2316C373.015 79.4316 373.052 79.6616 373.052 79.9216ZM371.862 79.4416C371.862 79.1816 371.808 78.9749 371.702 78.8216C371.595 78.6682 371.432 78.5549 371.212 78.4816C370.998 78.4149 370.728 78.3782 370.402 78.3716H370.242C369.888 78.3716 369.588 78.4049 369.342 78.4716C369.102 78.5382 368.918 78.6516 368.792 78.8116C368.665 78.9716 368.602 79.1882 368.602 79.4616C368.602 79.6882 368.665 79.8749 368.792 80.0216C368.918 80.1682 369.105 80.2782 369.352 80.3516C369.598 80.4249 369.898 80.4616 370.252 80.4616C370.785 80.4616 371.185 80.3782 371.452 80.2116C371.725 80.0516 371.862 79.7949 371.862 79.4416ZM370.282 84.1344L372.952 82.3744V84.0644L371.212 85.1244L372.952 86.1944V87.8844L370.282 86.1044L367.492 87.9644V86.2744L369.362 85.1244L367.492 83.9744V82.2844L370.282 84.1344Z" fill="white"/>
<path d="M354 82V70" stroke="#F07D03"/>
<path d="M357 81.4998H350" stroke="#F07D03"/>
<path d="M357 70.5H350" stroke="#F07D03"/>
</svg>
