<svg width="724" height="311" viewBox="0 0 724 311" fill="none" xmlns="http://www.w3.org/2000/svg">
<g filter="url(#filter0_dd_7128_11211)">
<rect x="21" y="37" width="644" height="233" rx="8" fill="white"/>
<path d="M61 87.5C58.2152 87.5 55.5445 86.3938 53.5754 84.4246C51.6062 82.4555 50.5 79.7848 50.5 77C50.5 74.2152 51.6062 71.5445 53.5754 69.5754C55.5445 67.6062 58.2152 66.5 61 66.5C63.7848 66.5 66.4555 67.6062 68.4246 69.5754C70.3938 71.5445 71.5 74.2152 71.5 77C71.5 79.7848 70.3938 82.4555 68.4246 84.4246C66.4555 86.3938 63.7848 87.5 61 87.5ZM61 89C64.1826 89 67.2348 87.7357 69.4853 85.4853C71.7357 83.2348 73 80.1826 73 77C73 73.8174 71.7357 70.7652 69.4853 68.5147C67.2348 66.2643 64.1826 65 61 65C57.8174 65 54.7652 66.2643 52.5147 68.5147C50.2643 70.7652 49 73.8174 49 77C49 80.1826 50.2643 83.2348 52.5147 85.4853C54.7652 87.7357 57.8174 89 61 89Z" fill="#344054"/>
<path d="M59.5029 81.5001C59.5029 81.3032 59.5417 81.1081 59.6171 80.9261C59.6925 80.7441 59.803 80.5788 59.9423 80.4395C60.0816 80.3002 60.2469 80.1897 60.4289 80.1143C60.6109 80.0389 60.8059 80.0001 61.0029 80.0001C61.1999 80.0001 61.395 80.0389 61.577 80.1143C61.7589 80.1897 61.9243 80.3002 62.0636 80.4395C62.2029 80.5788 62.3134 80.7441 62.3888 80.9261C62.4641 81.1081 62.5029 81.3032 62.5029 81.5001C62.5029 81.898 62.3449 82.2795 62.0636 82.5608C61.7823 82.8421 61.4008 83.0001 61.0029 83.0001C60.6051 83.0001 60.2236 82.8421 59.9423 82.5608C59.661 82.2795 59.5029 81.898 59.5029 81.5001ZM59.6499 72.4927C59.63 72.3034 59.65 72.1121 59.7087 71.9311C59.7675 71.7501 59.8636 71.5835 59.9909 71.442C60.1182 71.3006 60.2738 71.1875 60.4476 71.1101C60.6215 71.0327 60.8096 70.9927 60.9999 70.9927C61.1902 70.9927 61.3784 71.0327 61.5522 71.1101C61.726 71.1875 61.8817 71.3006 62.009 71.442C62.1362 71.5835 62.2324 71.7501 62.2911 71.9311C62.3499 72.1121 62.3699 72.3034 62.3499 72.4927L61.8249 77.7531C61.8073 77.9598 61.7127 78.1523 61.56 78.2926C61.4072 78.4329 61.2073 78.5107 60.9999 78.5107C60.7925 78.5107 60.5927 78.4329 60.4399 78.2926C60.2871 78.1523 60.1926 77.9598 60.1749 77.7531L59.6499 72.4927Z" fill="#344054"/>
<path d="M105.242 73.75C105.055 73.75 104.93 73.793 104.867 73.8789C104.805 73.957 104.773 74.0469 104.773 74.1484C104.773 74.25 104.801 74.332 104.855 74.3945C104.918 74.4805 105.047 74.5234 105.242 74.5234V73.75ZM94.9297 72.1094C94.9297 71.4844 94.7344 70.8594 94.3438 70.2344V69.7656C94.3438 68.2031 95.2812 67.4219 97.1562 67.4219H107.586V69.7656H97.9766C97.5078 69.7656 97.2734 69.8438 97.2734 70C97.6641 70.625 97.8594 71.3281 97.8594 72.1094V79.1406C97.8594 81.4844 98.9922 82.6562 101.258 82.6562C103.523 82.6562 104.656 81.4844 104.656 79.1406V76.1758C104.031 76.1523 103.547 75.9141 103.203 75.4609C102.922 75.1172 102.781 74.6836 102.781 74.1602C102.781 73.6367 102.949 73.1641 103.285 72.7422C103.621 72.3203 104.273 72.1094 105.242 72.1094C106.133 72.1094 106.746 72.3203 107.082 72.7422C107.418 73.1641 107.586 73.6367 107.586 74.1602V79.1406C107.586 83.0469 105.477 85 101.258 85C97.0391 85 94.9297 83.0469 94.9297 79.1406V72.1094ZM100.496 61.2695C100.496 61.4648 100.547 61.6094 100.648 61.7031C100.742 61.8047 100.887 61.8555 101.082 61.8555C101.277 61.8555 101.426 61.8047 101.527 61.7031C101.621 61.6094 101.668 61.4648 101.668 61.2695C101.668 61.0742 101.621 60.9297 101.527 60.8359C101.426 60.7344 101.277 60.6836 101.082 60.6836C100.887 60.6836 100.742 60.7344 100.648 60.8359C100.547 60.9297 100.496 61.0742 100.496 61.2695ZM103.719 61.2695C103.719 62.1523 103.5 62.8125 103.062 63.25C102.625 63.6875 101.965 63.9062 101.082 63.9062C100.199 63.9062 99.5391 63.6875 99.1016 63.25C98.6641 62.8125 98.4453 62.1523 98.4453 61.2695C98.4453 60.3867 98.6641 59.7266 99.1016 59.2891C99.5391 58.8516 100.199 58.6328 101.082 58.6328C101.965 58.6328 102.625 58.8516 103.062 59.2891C103.5 59.7266 103.719 60.3867 103.719 61.2695ZM115.789 82.9961C116.031 82.9961 116.188 82.9453 116.258 82.8438C116.336 82.7344 116.375 82.5664 116.375 82.3398C116.375 82.1055 116.336 81.9375 116.258 81.8359C116.188 81.7344 116.031 81.6758 115.789 81.6602V82.9961ZM113.445 73.2812C113.445 69.375 115.234 67.4219 118.812 67.4219C122.383 67.4219 124.168 69.375 124.168 73.2812V81.3086L126.805 77.8281L129.441 81.3086V73.2812C129.441 69.375 131.23 67.4219 134.809 67.4219C138.379 67.4219 140.164 69.375 140.164 73.2812V85H137.234V73.2812C137.234 70.9375 136.426 69.7656 134.809 69.7656C133.184 69.7656 132.371 70.9375 132.371 73.2812V85H128.938L126.805 82.0117L124.672 85H121.238V73.2812C121.238 70.9375 120.43 69.7656 118.812 69.7656C117.188 69.7656 116.375 70.9375 116.375 73.2812V79.6562C116.969 79.7031 117.41 79.9375 117.699 80.3594C117.988 80.7734 118.133 81.4414 118.133 82.3633C118.133 83.1289 117.93 83.7617 117.523 84.2617C117.117 84.7539 116.539 85 115.789 85C115.039 85 114.461 84.7734 114.055 84.3203C113.648 83.8594 113.445 83.207 113.445 82.3633V73.2812ZM146.609 76.457C146.367 76.457 146.207 76.5117 146.129 76.6211C146.059 76.7227 146.023 76.8867 146.023 77.1133C146.023 77.3477 146.059 77.5156 146.129 77.6172C146.207 77.7188 146.367 77.7773 146.609 77.793V76.457ZM148.953 81.9414L152.352 78.8594L155.75 81.9414V75.0391C155.75 74.1016 155.293 73.293 154.379 72.6133C153.918 73.0586 152.812 73.2812 151.062 73.2812C149.188 73.2812 147.879 73.0352 147.137 72.543C146.395 72.0508 146.023 71.2617 146.023 70.1758C146.023 69.457 146.18 68.8555 146.492 68.3711C146.805 67.8789 146.961 67.3867 146.961 66.8945C146.961 66.4648 146.453 66.25 145.438 66.25V63.9062C148.25 63.9062 149.656 64.6484 149.656 66.1328C149.656 66.6562 149.5 67.2812 149.188 68.0078C148.875 68.7266 148.719 69.2695 148.719 69.6367C148.719 70.043 148.879 70.3633 149.199 70.5977C149.527 70.8242 150.176 70.9375 151.145 70.9375C151.98 70.9375 152.605 70.8164 153.02 70.5742C152.496 70.1445 152.234 69.6406 152.234 69.0625C152.234 67.9688 153.094 67.4219 154.812 67.4219C156.609 67.4219 157.508 68.0859 157.508 69.4141C157.508 70 157.141 70.5781 156.406 71.1484C157.922 72.25 158.68 73.3516 158.68 74.4531V85H155.539L152.352 81.8125L149.164 85H146.023V79.7969C145.43 79.75 144.988 79.5195 144.699 79.1055C144.41 78.6836 144.266 78.0117 144.266 77.0898C144.266 76.168 144.41 75.5 144.699 75.0859C144.988 74.6641 145.625 74.4531 146.609 74.4531C147.594 74.4531 148.23 74.6641 148.52 75.0859C148.809 75.5 148.953 76.168 148.953 77.0898V81.9414ZM154.789 70.0117L155.152 69.7539C155.285 69.6445 155.352 69.5391 155.352 69.4375C155.352 69.1953 155.188 69.0742 154.859 69.0742C154.547 69.0742 154.391 69.1719 154.391 69.3672C154.391 69.4766 154.438 69.5703 154.531 69.6484L154.789 70.0117ZM167.352 81.8359C167.281 81.7344 167.125 81.6758 166.883 81.6602V82.9961C167.125 82.9961 167.281 82.9453 167.352 82.8438C167.43 82.7344 167.469 82.5664 167.469 82.3398C167.469 82.1055 167.43 81.9375 167.352 81.8359ZM167.469 79.6562C168.062 79.7031 168.504 79.9375 168.793 80.3594C169.082 80.7734 169.227 81.4414 169.227 82.3633C169.227 83.2852 169.023 83.957 168.617 84.3789C168.211 84.793 167.633 85 166.883 85C166.133 85 165.555 84.793 165.148 84.3789C164.742 83.957 164.539 83.2852 164.539 82.3633V72.1094C164.539 71.4688 164.148 70.8359 163.367 70.2109V69.1797C163.367 68.0078 164.109 67.4219 165.594 67.4219H168.055V69.7656H166.062V69.9062C167 70.5312 167.469 71.2656 167.469 72.1094V79.6562ZM173.328 72.1094C173.328 71.4844 173.133 70.8594 172.742 70.2344V69.7656C172.742 68.2031 173.68 67.4219 175.555 67.4219H179.328L182.023 68.5938H182.703C182.938 68.5938 183.055 68.5156 183.055 68.3594V65.6641H185.984V68.3594C185.984 70.0781 185.164 70.9375 183.523 70.9375H181.156L178.461 69.7656H176.375C175.906 69.7656 175.672 69.8438 175.672 70C176.062 70.625 176.258 71.3281 176.258 72.1094V81.4141L179.656 78.5312L183.055 81.4141V72.1094H185.984V85H183.453L179.656 81.7422L175.859 85H173.328V72.1094ZM177.195 61.6211C177.195 62.0508 177.586 62.2656 178.367 62.2656H183.641C182.086 61.4062 180.719 60.9766 179.539 60.9766C177.977 60.9766 177.195 61.1914 177.195 61.6211ZM183.875 60.168V57.4609H185.984V63.9062H177.781C175.828 63.9062 174.852 63.125 174.852 61.5625C174.852 59.6094 176.414 58.6328 179.539 58.6328C181.078 58.6328 182.523 59.1445 183.875 60.168ZM192.43 76.457C192.188 76.457 192.027 76.5117 191.949 76.6211C191.879 76.7227 191.844 76.8867 191.844 77.1133C191.844 77.3477 191.879 77.5156 191.949 77.6172C192.027 77.7188 192.188 77.7773 192.43 77.793V76.457ZM194.773 81.9414L198.172 78.8594L201.57 81.9414V75.0391C201.57 74.1016 201.113 73.293 200.199 72.6133C199.738 73.0586 198.633 73.2812 196.883 73.2812C195.008 73.2812 193.699 73.0352 192.957 72.543C192.215 72.0508 191.844 71.2617 191.844 70.1758C191.844 69.457 192 68.8555 192.312 68.3711C192.625 67.8789 192.781 67.3867 192.781 66.8945C192.781 66.4648 192.273 66.25 191.258 66.25V63.9062C194.07 63.9062 195.477 64.6484 195.477 66.1328C195.477 66.6562 195.32 67.2812 195.008 68.0078C194.695 68.7266 194.539 69.2695 194.539 69.6367C194.539 70.043 194.699 70.3633 195.02 70.5977C195.348 70.8242 195.996 70.9375 196.965 70.9375C197.801 70.9375 198.426 70.8164 198.84 70.5742C198.316 70.1445 198.055 69.6406 198.055 69.0625C198.055 67.9688 198.914 67.4219 200.633 67.4219C202.43 67.4219 203.328 68.0859 203.328 69.4141C203.328 70 202.961 70.5781 202.227 71.1484C203.742 72.25 204.5 73.3516 204.5 74.4531V85H201.359L198.172 81.8125L194.984 85H191.844V79.7969C191.25 79.75 190.809 79.5195 190.52 79.1055C190.23 78.6836 190.086 78.0117 190.086 77.0898C190.086 76.168 190.23 75.5 190.52 75.0859C190.809 74.6641 191.445 74.4531 192.43 74.4531C193.414 74.4531 194.051 74.6641 194.34 75.0859C194.629 75.5 194.773 76.168 194.773 77.0898V81.9414ZM200.609 70.0117L200.973 69.7539C201.105 69.6445 201.172 69.5391 201.172 69.4375C201.172 69.1953 201.008 69.0742 200.68 69.0742C200.367 69.0742 200.211 69.1719 200.211 69.3672C200.211 69.4766 200.258 69.5703 200.352 69.6484L200.609 70.0117ZM220.672 73.75C220.484 73.75 220.359 73.793 220.297 73.8789C220.234 73.957 220.203 74.0469 220.203 74.1484C220.203 74.25 220.23 74.332 220.285 74.3945C220.348 74.4805 220.477 74.5234 220.672 74.5234V73.75ZM210.359 72.1094C210.359 71.4844 210.164 70.8594 209.773 70.2344V69.7656C209.773 68.2031 210.711 67.4219 212.586 67.4219H216.359L219.055 68.5938H219.734C219.969 68.5938 220.086 68.5156 220.086 68.3594V65.6641H223.016V68.3594C223.016 70.0781 222.195 70.9375 220.555 70.9375H218.188L215.492 69.7656H213.406C212.938 69.7656 212.703 69.8438 212.703 70C213.094 70.625 213.289 71.3281 213.289 72.1094V81.4141L216.688 78.5312L220.086 81.4141V76.1758C219.461 76.1523 218.977 75.9141 218.633 75.4609C218.352 75.1172 218.211 74.6836 218.211 74.1602C218.211 73.6367 218.379 73.1641 218.715 72.7422C219.051 72.3203 219.703 72.1094 220.672 72.1094C221.562 72.1094 222.176 72.3203 222.512 72.7422C222.848 73.1641 223.016 73.6367 223.016 74.1602V85H220.086L216.688 81.7422L212.891 85H210.359V72.1094ZM213.43 89.5703C213.43 90.4453 213.621 90.8828 214.004 90.8828C214.223 90.8828 214.512 90.8008 214.871 90.6367V92.2773C214.621 92.5039 214.098 92.6172 213.301 92.6172C211.73 92.6172 210.945 91.6016 210.945 89.5703C210.945 87.3047 211.98 86.1719 214.051 86.1719C215.816 86.1719 217.027 86.8555 217.684 88.2227C218.34 89.5898 218.961 90.2734 219.547 90.2734C220.141 90.2734 220.785 88.9062 221.48 86.1719L223.602 86.6406C222.547 90.625 221.195 92.6172 219.547 92.6172C218.281 92.6172 217.324 91.9336 216.676 90.5664C216.02 89.1992 215.223 88.5156 214.285 88.5156C213.715 88.5156 213.43 88.8672 213.43 89.5703ZM223.016 67.4219H225.828C229.812 67.4219 231.805 68.9844 231.805 72.1094V85H228.875V72.1094C228.875 70.5469 227.859 69.7656 225.828 69.7656H223.016V67.4219ZM240.594 85H237.664V76.7969C237.664 72.8906 239.773 70.9375 243.992 70.9375C248.211 70.9375 250.32 72.8906 250.32 76.7969V85H247.391V76.7969C247.391 74.4531 246.258 73.2812 243.992 73.2812C241.727 73.2812 240.594 74.4531 240.594 76.7969V85ZM250.32 67.4219V69.7656H237.664V67.4219H250.32ZM256.18 72.1094C256.18 71.4844 255.984 70.8594 255.594 70.2344V69.7656C255.594 68.2031 256.531 67.4219 258.406 67.4219H262.18L264.875 68.5938H265.555C265.789 68.5938 265.906 68.5156 265.906 68.3594V65.6641H268.836V68.3594C268.836 70.0781 268.016 70.9375 266.375 70.9375H264.008L261.312 69.7656H259.227C258.758 69.7656 258.523 69.8438 258.523 70C258.914 70.625 259.109 71.3281 259.109 72.1094V81.4141L262.508 78.5312L265.906 81.4141V72.1094H268.836V85H266.305L262.508 81.7422L258.711 85H256.18V72.1094ZM264.734 89.6875C264.734 90.2344 264.93 90.5078 265.32 90.5078C265.711 90.5078 265.906 90.2344 265.906 89.6875V86.1719H268.836V89.6875C268.836 91.6406 267.762 92.6172 265.613 92.6172C263.465 92.6172 262.391 91.6406 262.391 89.6875V86.1719H264.734V89.6875ZM287.352 77.3477V80.3125C287.352 83.4375 286.102 85 283.602 85C281.75 85 280.438 84.5117 279.664 83.5352C278.891 82.5586 278.211 82.0703 277.625 82.0703V85H274.695V77.9688H277.625V79.7266C278.914 79.7266 279.984 80.2148 280.836 81.1914C281.695 82.168 282.449 82.6562 283.098 82.6562C283.98 82.6562 284.422 81.875 284.422 80.3125V79.0586C277.938 77.6523 274.695 75.3359 274.695 72.1094C274.695 68.9844 276.805 67.4219 281.023 67.4219C285.242 67.4219 287.352 68.9844 287.352 72.1094C287.352 74.2891 286.109 75.3789 283.625 75.3789C282.945 75.3789 282.391 75.2188 281.961 74.8984V72.5195C282.914 72.8008 283.523 72.9414 283.789 72.9414C284.211 72.9414 284.422 72.6641 284.422 72.1094C284.422 70.5469 283.289 69.7656 281.023 69.7656C278.758 69.7656 277.625 70.5469 277.625 72.1094C277.625 74.1172 280.867 75.8633 287.352 77.3477ZM293.211 72.6953H296.141V81.3555L299.539 78.2734L302.938 81.3555V72.6953H305.867V85H303.336L299.539 81.7422L295.742 85H293.211V72.6953ZM296.141 69.2852C296.141 69.4492 297.273 69.5312 299.539 69.5312C301.805 69.5312 302.938 68.8281 302.938 67.4219V65.6641H305.867V67.4219C305.867 70.3906 303.758 71.875 299.539 71.875C295.32 71.875 293.211 71.0156 293.211 69.2969C293.211 68.0469 294.016 67.4219 295.625 67.4219C296.633 67.4219 297.352 67.582 297.781 67.9023V69.2266C296.828 69.1016 296.316 69.0391 296.246 69.0391C296.176 69.0391 296.141 69.1211 296.141 69.2852ZM298.777 61.2695C298.777 61.4648 298.828 61.6094 298.93 61.7031C299.023 61.8047 299.168 61.8555 299.363 61.8555C299.559 61.8555 299.707 61.8047 299.809 61.7031C299.902 61.6094 299.949 61.4648 299.949 61.2695C299.949 61.0742 299.902 60.9297 299.809 60.8359C299.707 60.7344 299.559 60.6836 299.363 60.6836C299.168 60.6836 299.023 60.7344 298.93 60.8359C298.828 60.9297 298.777 61.0742 298.777 61.2695ZM302 61.2695C302 62.1523 301.781 62.8125 301.344 63.25C300.906 63.6875 300.246 63.9062 299.363 63.9062C298.48 63.9062 297.82 63.6875 297.383 63.25C296.945 62.8125 296.727 62.1523 296.727 61.2695C296.727 60.3867 296.945 59.7266 297.383 59.2891C297.82 58.8516 298.48 58.6328 299.363 58.6328C300.246 58.6328 300.906 58.8516 301.344 59.2891C301.781 59.7266 302 60.3867 302 61.2695ZM314.07 82.9961C314.312 82.9961 314.469 82.9453 314.539 82.8438C314.617 82.7344 314.656 82.5664 314.656 82.3398C314.656 82.1055 314.617 81.9375 314.539 81.8359C314.469 81.7344 314.312 81.6758 314.07 81.6602V82.9961ZM311.727 73.2812C311.727 69.375 313.516 67.4219 317.094 67.4219C320.664 67.4219 322.449 69.375 322.449 73.2812V81.3086L325.086 77.8281L327.723 81.3086V73.2812C327.723 69.375 329.512 67.4219 333.09 67.4219C336.66 67.4219 338.445 69.375 338.445 73.2812V85H335.516V73.2812C335.516 70.9375 334.707 69.7656 333.09 69.7656C331.465 69.7656 330.652 70.9375 330.652 73.2812V85H327.219L325.086 82.0117L322.953 85H319.52V73.2812C319.52 70.9375 318.711 69.7656 317.094 69.7656C315.469 69.7656 314.656 70.9375 314.656 73.2812V79.6562C315.25 79.7031 315.691 79.9375 315.98 80.3594C316.27 80.7734 316.414 81.4414 316.414 82.3633C316.414 83.1289 316.211 83.7617 315.805 84.2617C315.398 84.7539 314.82 85 314.07 85C313.32 85 312.742 84.7734 312.336 84.3203C311.93 83.8594 311.727 83.207 311.727 82.3633V73.2812ZM336.57 59.1016C336.508 59.1016 336.453 59.1211 336.406 59.1602C336.359 59.1992 336.336 59.2578 336.336 59.3359C336.336 59.3984 336.359 59.4531 336.406 59.5C336.453 59.5469 336.508 59.5703 336.57 59.5703C336.648 59.5703 336.707 59.5469 336.746 59.5C336.785 59.4531 336.805 59.3984 336.805 59.3359C336.805 59.2578 336.785 59.1992 336.746 59.1602C336.707 59.1211 336.648 59.1016 336.57 59.1016ZM329.656 61.6211C329.656 62.0508 330.047 62.2656 330.828 62.2656H336.102C334.547 61.4062 333.18 60.9766 332 60.9766C330.438 60.9766 329.656 61.1914 329.656 61.6211ZM334.695 59.1953C334.727 58.6875 334.895 58.2812 335.199 57.9766C335.543 57.6328 336 57.4609 336.57 57.4609C337.141 57.4609 337.598 57.6328 337.941 57.9766C338.277 58.3125 338.445 58.7656 338.445 59.3359C338.445 59.9062 338.277 60.3594 337.941 60.6953C337.785 60.8516 337.613 60.9727 337.426 61.0586C338.105 61.668 338.445 62.1094 338.445 62.3828V63.9062H330.242C328.289 63.9062 327.312 63.125 327.312 61.5625C327.312 59.6094 328.875 58.6328 332 58.6328C332.938 58.6328 333.836 58.8203 334.695 59.1953ZM344.891 76.457C344.648 76.457 344.488 76.5117 344.41 76.6211C344.34 76.7227 344.305 76.8867 344.305 77.1133C344.305 77.3477 344.34 77.5156 344.41 77.6172C344.488 77.7188 344.648 77.7773 344.891 77.793V76.457ZM347.234 81.9414L350.633 78.8594L354.031 81.9414V75.0391C354.031 74.1016 353.574 73.293 352.66 72.6133C352.199 73.0586 351.094 73.2812 349.344 73.2812C347.469 73.2812 346.16 73.0352 345.418 72.543C344.676 72.0508 344.305 71.2617 344.305 70.1758C344.305 69.457 344.461 68.8555 344.773 68.3711C345.086 67.8789 345.242 67.3867 345.242 66.8945C345.242 66.4648 344.734 66.25 343.719 66.25V63.9062C346.531 63.9062 347.938 64.6484 347.938 66.1328C347.938 66.6562 347.781 67.2812 347.469 68.0078C347.156 68.7266 347 69.2695 347 69.6367C347 70.043 347.16 70.3633 347.48 70.5977C347.809 70.8242 348.457 70.9375 349.426 70.9375C350.262 70.9375 350.887 70.8164 351.301 70.5742C350.777 70.1445 350.516 69.6406 350.516 69.0625C350.516 67.9688 351.375 67.4219 353.094 67.4219C354.891 67.4219 355.789 68.0859 355.789 69.4141C355.789 70 355.422 70.5781 354.688 71.1484C356.203 72.25 356.961 73.3516 356.961 74.4531V85H353.82L350.633 81.8125L347.445 85H344.305V79.7969C343.711 79.75 343.27 79.5195 342.98 79.1055C342.691 78.6836 342.547 78.0117 342.547 77.0898C342.547 76.168 342.691 75.5 342.98 75.0859C343.27 74.6641 343.906 74.4531 344.891 74.4531C345.875 74.4531 346.512 74.6641 346.801 75.0859C347.09 75.5 347.234 76.168 347.234 77.0898V81.9414ZM353.07 70.0117L353.434 69.7539C353.566 69.6445 353.633 69.5391 353.633 69.4375C353.633 69.1953 353.469 69.0742 353.141 69.0742C352.828 69.0742 352.672 69.1719 352.672 69.3672C352.672 69.4766 352.719 69.5703 352.812 69.6484L353.07 70.0117Z" fill="#344054"/>
<path fill-rule="evenodd" clip-rule="evenodd" d="M616.485 68.4852C616.673 68.2976 616.927 68.1923 617.192 68.1923C617.458 68.1923 617.712 68.2976 617.899 68.4852L624.971 75.5562L632.042 68.4852C632.229 68.2976 632.484 68.1923 632.749 68.1923C633.014 68.1923 633.268 68.2976 633.456 68.4852C633.643 68.6727 633.749 68.9271 633.749 69.1923C633.749 69.4575 633.643 69.7119 633.456 69.8994L626.385 76.9705L633.456 84.0415C633.643 84.2291 633.749 84.4834 633.749 84.7486C633.749 85.0138 633.643 85.2682 633.456 85.4557C633.268 85.6433 633.014 85.7486 632.749 85.7486C632.484 85.7486 632.229 85.6433 632.042 85.4557L624.971 78.3847L617.899 85.4557C617.712 85.6433 617.458 85.7486 617.192 85.7486C616.927 85.7486 616.673 85.6433 616.485 85.4557C616.298 85.2682 616.192 85.0139 616.192 84.7486C616.192 84.4834 616.298 84.2291 616.485 84.0415L623.556 76.9705L616.485 69.8994C616.298 69.7119 616.192 69.4575 616.192 69.1923C616.192 68.9271 616.298 68.6727 616.485 68.4852Z" fill="#344054"/>
<rect x="21" y="117" width="644" height="1" fill="#98A2B3"/>
<path d="M46.9531 161.828V160.656H46.7578C46.7005 160.656 46.6536 160.682 46.6172 160.734C46.5807 160.781 46.5625 160.951 46.5625 161.242C46.5625 161.534 46.5807 161.706 46.6172 161.758C46.6536 161.805 46.7005 161.828 46.7578 161.828H46.9531ZM53.4375 161.828V160.656H53.2422C53.1849 160.656 53.138 160.682 53.1016 160.734C53.0651 160.781 53.0469 160.951 53.0469 161.242C53.0469 161.534 53.0651 161.706 53.1016 161.758C53.138 161.805 53.1849 161.828 53.2422 161.828H53.4375ZM48.2812 157.531V161.242C48.2812 161.909 48.1927 162.37 48.0156 162.625C47.8438 162.875 47.5156 163 47.0312 163C46.5469 163 46.2161 162.875 46.0391 162.625C45.8672 162.37 45.7812 161.909 45.7812 161.242C45.7812 160.576 45.8672 160.117 46.0391 159.867C46.2161 159.612 46.4557 159.484 46.7578 159.484C46.8255 159.484 46.8906 159.49 46.9531 159.5V154.406C46.849 154.042 46.5885 153.651 46.1719 153.234V152.453C46.1719 151.672 46.5625 151.281 47.3438 151.281H48.6719V152.453H47.7344C47.474 152.453 47.3438 152.583 47.3438 152.844C47.9688 153.26 48.2812 153.781 48.2812 154.406V156.359H53.4375V154.406C53.3333 154.042 53.0729 153.651 52.6562 153.234V152.453C52.6562 151.672 53.0469 151.281 53.8281 151.281H55.1562V152.453H54.2188C53.9583 152.453 53.8281 152.583 53.8281 152.844C54.4531 153.26 54.7656 153.781 54.7656 154.406V161.242C54.7656 161.909 54.6771 162.37 54.5 162.625C54.3281 162.875 54 163 53.5156 163C53.0312 163 52.7005 162.875 52.5234 162.625C52.3516 162.37 52.2656 161.909 52.2656 161.242C52.2656 160.576 52.3516 160.117 52.5234 159.867C52.7005 159.612 52.9401 159.484 53.2422 159.484C53.3099 159.484 53.375 159.49 53.4375 159.5V157.531H48.2812ZM52.9766 165.109H49.2969C49.0365 165.109 48.9062 165.188 48.9062 165.344C48.9062 165.5 49.0365 165.578 49.2969 165.578H52.9766V165.109ZM54.2266 166.984C54.3828 166.984 54.487 166.964 54.5391 166.922C54.5911 166.885 54.6172 166.839 54.6172 166.781C54.6172 166.724 54.5859 166.68 54.5234 166.648C54.4557 166.622 54.3568 166.604 54.2266 166.594H53.9922C53.9922 166.854 54.0703 166.984 54.2266 166.984ZM53.9922 164.094H55.1562V165.109H53.9922V165.578H54.4844C54.8594 165.578 55.1328 165.669 55.3047 165.852C55.4714 166.034 55.5547 166.299 55.5547 166.648C55.5547 167.107 55.4635 167.419 55.2812 167.586C55.099 167.758 54.7734 167.844 54.3047 167.844C53.4193 167.844 52.9766 167.466 52.9766 166.711V166.594H48.9062C48.125 166.594 47.7344 166.177 47.7344 165.344C47.7396 164.51 48.1328 164.094 48.9141 164.094H52.9766V163.391H53.9922V164.094ZM60 163H58.6719V157.531C58.6719 154.927 59.974 153.625 62.5781 153.625C65.1823 153.625 66.4844 154.927 66.4844 157.531V163H65.1562V157.531C65.1562 155.708 64.2969 154.797 62.5781 154.797C60.8594 154.797 60 155.708 60 157.531V163ZM66.4844 151.281V152.453H58.6719V151.281H66.4844ZM71.7188 163H70.3906V157.531C70.3906 154.927 71.6927 153.625 74.2969 153.625C76.901 153.625 78.2031 154.927 78.2031 157.531V163H76.875V157.531C76.875 155.708 76.0156 154.797 74.2969 154.797C72.5781 154.797 71.7188 155.708 71.7188 157.531V163ZM78.2031 151.281V152.453H70.3906V151.281H78.2031ZM73.9062 147.18C73.9062 147.372 73.9557 147.518 74.0547 147.617C74.1536 147.716 74.2995 147.766 74.4922 147.766C74.6901 147.766 74.8385 147.716 74.9375 147.617C75.0312 147.518 75.0781 147.372 75.0781 147.18C75.0781 146.982 75.0312 146.836 74.9375 146.742C74.8385 146.643 74.6901 146.594 74.4922 146.594C74.2995 146.594 74.1536 146.643 74.0547 146.742C73.9557 146.836 73.9062 146.982 73.9062 147.18ZM76.25 147.18C76.25 147.768 76.1042 148.208 75.8125 148.5C75.5208 148.792 75.0807 148.938 74.4922 148.938C73.9036 148.938 73.4635 148.792 73.1719 148.5C72.8802 148.208 72.7344 147.768 72.7344 147.18C72.7344 146.591 72.8802 146.151 73.1719 145.859C73.4635 145.568 73.9036 145.422 74.4922 145.422C75.0807 145.422 75.5208 145.568 75.8125 145.859C76.1042 146.151 76.25 146.591 76.25 147.18ZM83.2812 160.656V161.828C83.3906 161.828 83.4818 161.799 83.5547 161.742C83.6328 161.68 83.6719 161.513 83.6719 161.242C83.6719 160.971 83.6328 160.807 83.5547 160.75C83.4818 160.688 83.3906 160.656 83.2812 160.656ZM82.1094 153.625L84.1406 151.281L86.0156 152.844L87.8906 151.281L89.9219 153.625V163H88.5938V153.938L87.8125 152.961L86.0156 154.25L84.2188 152.961L83.4375 153.938V159.562C83.5573 159.51 83.6953 159.484 83.8516 159.484C84.0078 159.484 84.1719 159.625 84.3438 159.906C84.5208 160.182 84.6094 160.628 84.6094 161.242C84.6094 161.857 84.4948 162.305 84.2656 162.586C84.0417 162.862 83.7396 163 83.3594 163C82.9792 163 82.6771 162.859 82.4531 162.578C82.276 162.365 82.1667 162.049 82.125 161.633H82.1094V153.625ZM89.9219 163.781V168.078H88.5938V163.781H89.9219ZM99.6875 152.469C99.6875 152.312 99.5833 152.234 99.375 152.234C99.1667 152.234 99.0625 152.312 99.0625 152.469C99.0625 152.609 99.1667 152.75 99.375 152.891C99.5833 152.781 99.6875 152.641 99.6875 152.469ZM93.6328 156.359C93.5755 156.359 93.5286 156.385 93.4922 156.438C93.4557 156.484 93.4375 156.654 93.4375 156.945C93.4375 157.237 93.4557 157.409 93.4922 157.461C93.5286 157.508 93.5755 157.531 93.6328 157.531H93.8281V156.359H93.6328ZM95.1562 161.438L97.7344 159.094L100.312 161.438V155.969C100.312 155.406 99.8906 154.81 99.0469 154.18C98.6198 154.591 97.8958 154.797 96.875 154.797C95.7396 154.797 94.9479 154.648 94.5 154.352C94.0521 154.055 93.8281 153.643 93.8281 153.117C93.8281 152.596 93.9323 152.109 94.1406 151.656C94.349 151.198 94.4531 150.826 94.4531 150.539C94.4531 150.253 94.1146 150.109 93.4375 150.109V148.938C94.8958 148.938 95.625 149.432 95.625 150.422C95.625 150.812 95.5208 151.25 95.3125 151.734C95.1042 152.214 95 152.555 95 152.758C95 152.966 95.1302 153.164 95.3906 153.352C95.651 153.534 96.1641 153.625 96.9297 153.625C97.5911 153.625 98.0677 153.539 98.3594 153.367C98.099 153.154 97.9688 152.823 97.9688 152.375C97.9688 151.646 98.4375 151.281 99.375 151.281C100.365 151.281 100.859 151.724 100.859 152.609C100.859 153.062 100.656 153.448 100.25 153.766C101.177 154.438 101.641 155.172 101.641 155.969V163H100.078L97.7344 160.656L95.3906 163H93.8281V158.688C93.7656 158.698 93.7005 158.703 93.6328 158.703C93.3307 158.703 93.0911 158.578 92.9141 158.328C92.7422 158.073 92.6562 157.612 92.6562 156.945C92.6562 156.279 92.7422 155.82 92.9141 155.57C93.0911 155.315 93.4219 155.188 93.9062 155.188C94.3906 155.188 94.7188 155.315 94.8906 155.57C95.0677 155.82 95.1562 156.279 95.1562 156.945V161.438ZM105.547 161.828V160.656H105.352C105.294 160.656 105.247 160.682 105.211 160.734C105.174 160.781 105.156 160.951 105.156 161.242C105.156 161.534 105.174 161.706 105.211 161.758C105.247 161.805 105.294 161.828 105.352 161.828H105.547ZM112.031 161.828V160.656H111.836C111.779 160.656 111.732 160.682 111.695 160.734C111.659 160.781 111.641 160.951 111.641 161.242C111.641 161.534 111.659 161.706 111.695 161.758C111.732 161.805 111.779 161.828 111.836 161.828H112.031ZM106.875 157.531V161.242C106.875 161.909 106.786 162.37 106.609 162.625C106.438 162.875 106.109 163 105.625 163C105.141 163 104.81 162.875 104.633 162.625C104.461 162.37 104.375 161.909 104.375 161.242C104.375 160.576 104.461 160.117 104.633 159.867C104.81 159.612 105.049 159.484 105.352 159.484C105.419 159.484 105.484 159.49 105.547 159.5V154.406C105.443 154.042 105.182 153.651 104.766 153.234V152.453C104.766 151.672 105.156 151.281 105.938 151.281H107.266V152.453H106.328C106.068 152.453 105.938 152.583 105.938 152.844C106.562 153.26 106.875 153.781 106.875 154.406V156.359H112.031V154.406C111.927 154.042 111.667 153.651 111.25 153.234V152.453C111.25 151.672 111.641 151.281 112.422 151.281H113.75V152.453H112.812C112.552 152.453 112.422 152.583 112.422 152.844C113.047 153.26 113.359 153.781 113.359 154.406V161.242C113.359 161.909 113.271 162.37 113.094 162.625C112.922 162.875 112.594 163 112.109 163C111.625 163 111.294 162.875 111.117 162.625C110.945 162.37 110.859 161.909 110.859 161.242C110.859 160.576 110.945 160.117 111.117 159.867C111.294 159.612 111.534 159.484 111.836 159.484C111.904 159.484 111.969 159.49 112.031 159.5V157.531H106.875ZM113.359 151.281H114.922C117.005 151.281 118.047 152.323 118.047 154.406V163H116.719V154.406C116.719 153.104 116.12 152.453 114.922 152.453H113.359V151.281ZM129.766 158.234V159.875C129.766 161.958 129.036 163 127.578 163C126.505 163 125.711 162.674 125.195 162.023C124.68 161.372 124.042 161.047 123.281 161.047V163H121.953V158.312H123.281V159.875C124.193 159.875 124.932 160.201 125.5 160.852C126.073 161.503 126.654 161.828 127.242 161.828C128.039 161.828 128.438 161.177 128.438 159.875V159.094C124.115 158.156 121.953 156.594 121.953 154.406C121.953 152.323 123.255 151.281 125.859 151.281C128.464 151.281 129.766 152.323 129.766 154.406C129.766 155.859 129.042 156.586 127.594 156.586C127.266 156.586 127 156.51 126.797 156.359V155.188C127.167 155.297 127.469 155.352 127.703 155.352C128.193 155.352 128.438 155.036 128.438 154.406C128.438 153.104 127.578 152.453 125.859 152.453C124.141 152.453 123.281 153.104 123.281 154.406C123.281 155.969 125.443 157.245 129.766 158.234ZM133.672 161.828V160.656H133.477C133.419 160.656 133.372 160.682 133.336 160.734C133.299 160.781 133.281 160.951 133.281 161.242C133.281 161.534 133.299 161.706 133.336 161.758C133.372 161.805 133.419 161.828 133.477 161.828H133.672ZM140.156 161.828V160.656H139.961C139.904 160.656 139.857 160.682 139.82 160.734C139.784 160.781 139.766 160.951 139.766 161.242C139.766 161.534 139.784 161.706 139.82 161.758C139.857 161.805 139.904 161.828 139.961 161.828H140.156ZM135 157.531V161.242C135 161.909 134.911 162.37 134.734 162.625C134.562 162.875 134.234 163 133.75 163C133.266 163 132.935 162.875 132.758 162.625C132.586 162.37 132.5 161.909 132.5 161.242C132.5 160.576 132.586 160.117 132.758 159.867C132.935 159.612 133.174 159.484 133.477 159.484C133.544 159.484 133.609 159.49 133.672 159.5V154.406C133.568 154.042 133.307 153.651 132.891 153.234V152.453C132.891 151.672 133.281 151.281 134.062 151.281H135.391V152.453H134.453C134.193 152.453 134.062 152.583 134.062 152.844C134.688 153.26 135 153.781 135 154.406V156.359H140.156V154.406C140.052 154.042 139.792 153.651 139.375 153.234V152.453C139.375 151.672 139.766 151.281 140.547 151.281H141.875V152.453H140.938C140.677 152.453 140.547 152.583 140.547 152.844C141.172 153.26 141.484 153.781 141.484 154.406V161.242C141.484 161.909 141.396 162.37 141.219 162.625C141.047 162.875 140.719 163 140.234 163C139.75 163 139.419 162.875 139.242 162.625C139.07 162.37 138.984 161.909 138.984 161.242C138.984 160.576 139.07 160.117 139.242 159.867C139.419 159.612 139.659 159.484 139.961 159.484C140.029 159.484 140.094 159.49 140.156 159.5V157.531H135ZM146.562 160.656V161.828C146.672 161.828 146.763 161.799 146.836 161.742C146.914 161.68 146.953 161.513 146.953 161.242C146.953 160.971 146.914 160.807 146.836 160.75C146.763 160.688 146.672 160.656 146.562 160.656ZM153.203 151.281V152.453H145.391V151.281H153.203ZM145.391 157.531C145.391 154.927 146.693 153.625 149.297 153.625C151.901 153.625 153.203 154.927 153.203 157.531V163H151.875V157.531C151.875 155.708 151.016 154.797 149.297 154.797C147.578 154.797 146.719 155.708 146.719 157.531V159.562C146.839 159.51 146.977 159.484 147.133 159.484C147.289 159.484 147.453 159.625 147.625 159.906C147.802 160.182 147.891 160.628 147.891 161.242C147.891 161.857 147.776 162.305 147.547 162.586C147.323 162.862 147.021 163 146.641 163C146.26 163 145.958 162.859 145.734 162.578C145.557 162.365 145.448 162.049 145.406 161.633H145.391V157.531ZM146.953 166.047C146.953 166.682 147.12 167 147.453 167C147.635 167 147.885 166.945 148.203 166.836V167.852C148.052 168.003 147.786 168.078 147.406 168.078C146.323 168.078 145.781 167.401 145.781 166.047C145.781 164.536 146.497 163.781 147.93 163.781C148.867 163.781 149.591 164.172 150.102 164.953C150.607 165.734 151.029 166.255 151.367 166.516C151.706 166.776 152.188 166.906 152.812 166.906V168.078C152.031 168.078 151.419 167.909 150.977 167.57C150.534 167.232 150.086 166.711 149.633 166.008C149.174 165.305 148.607 164.953 147.93 164.953C147.279 164.953 146.953 165.318 146.953 166.047ZM163.594 154.406C163.594 154.042 163.333 153.651 162.812 153.234V152.453C162.812 151.672 163.203 151.281 163.984 151.281H165.312V152.453H164.375C164.115 152.453 163.984 152.583 163.984 152.844C164.609 153.26 164.922 153.781 164.922 154.406V159.094C164.922 161.698 163.62 163 161.016 163C158.411 163 157.109 161.698 157.109 159.094V154.406C157.109 154.042 156.849 153.651 156.328 153.234V152.453C156.328 151.672 156.719 151.281 157.5 151.281H158.828V152.453H157.891C157.63 152.453 157.5 152.583 157.5 152.844C158.125 153.26 158.438 153.781 158.438 154.406V159.094C158.438 160.917 159.297 161.828 161.016 161.828C162.734 161.828 163.594 160.917 163.594 159.094V154.406ZM175.547 158.383C175.583 158.393 175.62 158.398 175.656 158.398C175.792 158.398 175.859 158.292 175.859 158.078C175.859 157.87 175.807 157.766 175.703 157.766C175.599 157.766 175.547 157.867 175.547 158.07V158.383ZM175.547 159.086V159.875C175.547 161.958 174.609 163 172.734 163C170.859 163 169.922 161.958 169.922 159.875V158.312H171.25V159.875C171.25 161.177 171.745 161.828 172.734 161.828C173.724 161.828 174.219 161.177 174.219 159.875V158.898C170.625 157.862 168.828 156.365 168.828 154.406C168.828 152.323 170.13 151.281 172.734 151.281C175.339 151.281 176.641 152.323 176.641 154.406C176.641 155.859 175.917 156.586 174.469 156.586C174.141 156.586 173.875 156.51 173.672 156.359V155.188C174.042 155.297 174.344 155.352 174.578 155.352C175.068 155.352 175.312 155.036 175.312 154.406C175.312 153.104 174.453 152.453 172.734 152.453C171.016 152.453 170.156 153.104 170.156 154.406C170.156 156.016 171.51 157.148 174.219 157.805C174.219 157.31 174.583 157.062 175.312 157.062C176.198 157.062 176.641 157.388 176.641 158.039C176.641 158.43 176.552 158.706 176.375 158.867C176.198 159.029 176.008 159.109 175.805 159.109C175.721 159.109 175.635 159.102 175.547 159.086ZM182.07 161.828C182.128 161.828 182.174 161.805 182.211 161.758C182.247 161.706 182.266 161.534 182.266 161.242C182.266 160.951 182.247 160.781 182.211 160.734C182.174 160.682 182.128 160.656 182.07 160.656H181.875V161.828H182.07ZM181.875 159.5C181.938 159.49 182.003 159.484 182.07 159.484C182.372 159.484 182.609 159.612 182.781 159.867C182.958 160.117 183.047 160.576 183.047 161.242C183.047 161.909 182.958 162.37 182.781 162.625C182.609 162.875 182.281 163 181.797 163C181.312 163 180.982 162.875 180.805 162.625C180.633 162.37 180.547 161.909 180.547 161.242V154.406C180.443 154.042 180.182 153.651 179.766 153.234V152.453C179.766 151.672 180.156 151.281 180.938 151.281H182.266V152.453H181.328C181.068 152.453 180.938 152.583 180.938 152.844C181.562 153.26 181.875 153.781 181.875 154.406V159.5ZM193.594 158.234V159.875C193.594 161.958 192.865 163 191.406 163C190.333 163 189.539 162.674 189.023 162.023C188.508 161.372 187.87 161.047 187.109 161.047V163H185.781V158.312H187.109V159.875C188.021 159.875 188.76 160.201 189.328 160.852C189.901 161.503 190.482 161.828 191.07 161.828C191.867 161.828 192.266 161.177 192.266 159.875V159.094C187.943 158.156 185.781 156.594 185.781 154.406C185.781 152.323 187.083 151.281 189.688 151.281C192.292 151.281 193.594 152.323 193.594 154.406C193.594 155.859 192.87 156.586 191.422 156.586C191.094 156.586 190.828 156.51 190.625 156.359V155.188C190.995 155.297 191.297 155.352 191.531 155.352C192.021 155.352 192.266 155.036 192.266 154.406C192.266 153.104 191.406 152.453 189.688 152.453C187.969 152.453 187.109 153.104 187.109 154.406C187.109 155.969 189.271 157.245 193.594 158.234ZM198.672 153.43C198.672 153.622 198.721 153.768 198.82 153.867C198.919 153.966 199.065 154.016 199.258 154.016C199.456 154.016 199.602 153.966 199.695 153.867C199.794 153.768 199.844 153.622 199.844 153.43C199.844 153.232 199.794 153.086 199.695 152.992C199.602 152.893 199.456 152.844 199.258 152.844C199.065 152.844 198.919 152.893 198.82 152.992C198.721 153.086 198.672 153.232 198.672 153.43ZM201.016 153.43C201.016 154.018 200.87 154.458 200.578 154.75C200.286 155.042 199.846 155.188 199.258 155.188C198.669 155.188 198.229 155.042 197.938 154.75C197.646 154.458 197.5 154.018 197.5 153.43C197.5 152.841 197.646 152.401 197.938 152.109C198.229 151.818 198.669 151.672 199.258 151.672C199.846 151.672 200.286 151.818 200.578 152.109C200.87 152.401 201.016 152.841 201.016 153.43ZM198.672 160.852C198.672 161.044 198.721 161.19 198.82 161.289C198.919 161.388 199.065 161.438 199.258 161.438C199.456 161.438 199.602 161.388 199.695 161.289C199.794 161.19 199.844 161.044 199.844 160.852C199.844 160.654 199.794 160.508 199.695 160.414C199.602 160.315 199.456 160.266 199.258 160.266C199.065 160.266 198.919 160.315 198.82 160.414C198.721 160.508 198.672 160.654 198.672 160.852ZM201.016 160.852C201.016 161.44 200.87 161.88 200.578 162.172C200.286 162.464 199.846 162.609 199.258 162.609C198.669 162.609 198.229 162.464 197.938 162.172C197.646 161.88 197.5 161.44 197.5 160.852C197.5 160.263 197.646 159.823 197.938 159.531C198.229 159.24 198.669 159.094 199.258 159.094C199.846 159.094 200.286 159.24 200.578 159.531C200.87 159.823 201.016 160.263 201.016 160.852ZM206.25 163H204.922V157.531C204.922 154.927 206.224 153.625 208.828 153.625C211.432 153.625 212.734 154.927 212.734 157.531V163H211.406V157.531C211.406 155.708 210.547 154.797 208.828 154.797C207.109 154.797 206.25 155.708 206.25 157.531V163ZM212.734 151.281V152.453H204.922V151.281H212.734ZM210.945 165.109H207.266C207.005 165.109 206.875 165.188 206.875 165.344C206.875 165.5 207.005 165.578 207.266 165.578H210.945V165.109ZM212.195 166.984C212.352 166.984 212.456 166.964 212.508 166.922C212.56 166.885 212.586 166.839 212.586 166.781C212.586 166.724 212.555 166.68 212.492 166.648C212.424 166.622 212.326 166.604 212.195 166.594H211.961C211.961 166.854 212.039 166.984 212.195 166.984ZM211.961 164.094H213.125V165.109H211.961V165.578H212.453C212.828 165.578 213.102 165.669 213.273 165.852C213.44 166.034 213.523 166.299 213.523 166.648C213.523 167.107 213.432 167.419 213.25 167.586C213.068 167.758 212.742 167.844 212.273 167.844C211.388 167.844 210.945 167.466 210.945 166.711V166.594H206.875C206.094 166.594 205.703 166.177 205.703 165.344C205.708 164.51 206.102 164.094 206.883 164.094H210.945V163.391H211.961V164.094ZM212.734 168.469V172.375H211.406V168.469H212.734ZM222.5 152.469C222.5 152.312 222.396 152.234 222.188 152.234C221.979 152.234 221.875 152.312 221.875 152.469C221.875 152.609 221.979 152.75 222.188 152.891C222.396 152.781 222.5 152.641 222.5 152.469ZM216.445 156.359C216.388 156.359 216.341 156.385 216.305 156.438C216.268 156.484 216.25 156.654 216.25 156.945C216.25 157.237 216.268 157.409 216.305 157.461C216.341 157.508 216.388 157.531 216.445 157.531H216.641V156.359H216.445ZM217.969 161.438L220.547 159.094L223.125 161.438V155.969C223.125 155.406 222.703 154.81 221.859 154.18C221.432 154.591 220.708 154.797 219.688 154.797C218.552 154.797 217.76 154.648 217.312 154.352C216.865 154.055 216.641 153.643 216.641 153.117C216.641 152.596 216.745 152.109 216.953 151.656C217.161 151.198 217.266 150.826 217.266 150.539C217.266 150.253 216.927 150.109 216.25 150.109V148.938C217.708 148.938 218.438 149.432 218.438 150.422C218.438 150.812 218.333 151.25 218.125 151.734C217.917 152.214 217.812 152.555 217.812 152.758C217.812 152.966 217.943 153.164 218.203 153.352C218.464 153.534 218.977 153.625 219.742 153.625C220.404 153.625 220.88 153.539 221.172 153.367C220.911 153.154 220.781 152.823 220.781 152.375C220.781 151.646 221.25 151.281 222.188 151.281C223.177 151.281 223.672 151.724 223.672 152.609C223.672 153.062 223.469 153.448 223.062 153.766C223.99 154.438 224.453 155.172 224.453 155.969V163H222.891L220.547 160.656L218.203 163H216.641V158.688C216.578 158.698 216.513 158.703 216.445 158.703C216.143 158.703 215.904 158.578 215.727 158.328C215.555 158.073 215.469 157.612 215.469 156.945C215.469 156.279 215.555 155.82 215.727 155.57C215.904 155.315 216.234 155.188 216.719 155.188C217.203 155.188 217.531 155.315 217.703 155.57C217.88 155.82 217.969 156.279 217.969 156.945V161.438ZM234.844 155.383C234.734 155.383 234.641 155.417 234.562 155.484C234.49 155.552 234.453 155.648 234.453 155.773C234.453 155.898 234.49 155.995 234.562 156.062C234.641 156.13 234.734 156.164 234.844 156.164V155.383ZM228.359 154.406C228.359 154.042 228.229 153.651 227.969 153.234V152.844C227.969 151.802 228.49 151.281 229.531 151.281H231.875L233.672 152.453H234.297C234.661 152.453 234.844 152.271 234.844 151.906V150.109H236.172V151.906C236.172 153.052 235.729 153.625 234.844 153.625H233.438L231.641 152.453H230.078C229.557 152.453 229.297 152.609 229.297 152.922C229.557 153.339 229.688 153.833 229.688 154.406V161.438L232.266 159.25L234.844 161.438V157.086C234.792 157.091 234.74 157.094 234.688 157.094C234.333 157.094 234.07 156.982 233.898 156.758C233.695 156.508 233.594 156.18 233.594 155.773C233.594 155.367 233.693 155.039 233.891 154.789C234.094 154.534 234.424 154.406 234.883 154.406C235.341 154.406 235.669 154.534 235.867 154.789C236.07 155.039 236.172 155.367 236.172 155.773V163H235L232.266 160.656L229.531 163H228.359V154.406ZM229.922 166.047C229.922 166.839 230.089 167.234 230.422 167.234C230.604 167.234 230.854 167.18 231.172 167.07V167.852C231.021 168.003 230.625 168.078 229.984 168.078C229.161 168.078 228.75 167.401 228.75 166.047C228.75 164.536 229.388 163.781 230.664 163.781C231.758 163.781 232.508 164.302 232.914 165.344C233.315 166.385 233.698 166.906 234.062 166.906C234.427 166.906 234.896 165.865 235.469 163.781L236.562 164.094C235.911 166.75 235.125 168.078 234.203 168.078C233.328 168.078 232.69 167.557 232.289 166.516C231.883 165.474 231.341 164.953 230.664 164.953C230.169 164.953 229.922 165.318 229.922 166.047ZM236.172 151.281H237.734C239.818 151.281 240.859 152.323 240.859 154.406V163H239.531V154.406C239.531 153.104 238.932 152.453 237.734 152.453H236.172V151.281ZM246.094 163H244.766V157.531C244.766 154.927 246.068 153.625 248.672 153.625C251.276 153.625 252.578 154.927 252.578 157.531V163H251.25V157.531C251.25 155.708 250.391 154.797 248.672 154.797C246.953 154.797 246.094 155.708 246.094 157.531V163ZM252.578 151.281V152.453H244.766V151.281H252.578ZM256.484 154.406C256.484 154.042 256.354 153.651 256.094 153.234V152.844C256.094 151.802 256.615 151.281 257.656 151.281H260L261.797 152.453H262.422C262.786 152.453 262.969 152.271 262.969 151.906V150.109H264.297V151.906C264.297 153.052 263.854 153.625 262.969 153.625H261.562L259.766 152.453H258.203C257.682 152.453 257.422 152.609 257.422 152.922C257.682 153.339 257.812 153.833 257.812 154.406V161.438L260.391 159.25L262.969 161.438V154.406H264.297V163H263.125L260.391 160.656L257.656 163H256.484V154.406ZM261.953 166.125C261.953 166.646 262.122 166.906 262.461 166.906C262.799 166.906 262.969 166.646 262.969 166.125V163.781H264.297V166.125C264.297 167.427 263.685 168.078 262.461 168.078C261.237 168.078 260.625 167.427 260.625 166.125V163.781H261.953V166.125ZM276.016 158.234V159.875C276.016 161.958 275.286 163 273.828 163C272.755 163 271.961 162.674 271.445 162.023C270.93 161.372 270.292 161.047 269.531 161.047V163H268.203V158.312H269.531V159.875C270.443 159.875 271.182 160.201 271.75 160.852C272.323 161.503 272.904 161.828 273.492 161.828C274.289 161.828 274.688 161.177 274.688 159.875V159.094C270.365 158.156 268.203 156.594 268.203 154.406C268.203 152.323 269.505 151.281 272.109 151.281C274.714 151.281 276.016 152.323 276.016 154.406C276.016 155.859 275.292 156.586 273.844 156.586C273.516 156.586 273.25 156.51 273.047 156.359V155.188C273.417 155.297 273.719 155.352 273.953 155.352C274.443 155.352 274.688 155.036 274.688 154.406C274.688 153.104 273.828 152.453 272.109 152.453C270.391 152.453 269.531 153.104 269.531 154.406C269.531 155.969 271.693 157.245 276.016 158.234ZM279.922 154.406H281.25V161.438L283.828 159.094L286.406 161.438V154.406H287.734V163H286.562L283.828 160.656L281.094 163H279.922V154.406ZM281.25 152.523C281.25 152.737 282.109 152.844 283.828 152.844C285.547 152.844 286.406 152.323 286.406 151.281V150.109H287.734V151.281C287.734 153.104 286.432 154.016 283.828 154.016C281.224 154.016 279.922 153.521 279.922 152.531C279.922 151.698 280.354 151.281 281.219 151.281C281.766 151.281 282.141 151.357 282.344 151.508V152.523C281.974 152.414 281.701 152.359 281.523 152.359C281.341 152.359 281.25 152.414 281.25 152.523ZM283.438 147.18C283.438 147.372 283.487 147.518 283.586 147.617C283.685 147.716 283.831 147.766 284.023 147.766C284.221 147.766 284.37 147.716 284.469 147.617C284.562 147.518 284.609 147.372 284.609 147.18C284.609 146.982 284.562 146.836 284.469 146.742C284.37 146.643 284.221 146.594 284.023 146.594C283.831 146.594 283.685 146.643 283.586 146.742C283.487 146.836 283.438 146.982 283.438 147.18ZM285.781 147.18C285.781 147.768 285.635 148.208 285.344 148.5C285.052 148.792 284.612 148.938 284.023 148.938C283.435 148.938 282.995 148.792 282.703 148.5C282.411 148.208 282.266 147.768 282.266 147.18C282.266 146.591 282.411 146.151 282.703 145.859C282.995 145.568 283.435 145.422 284.023 145.422C284.612 145.422 285.052 145.568 285.344 145.859C285.635 146.151 285.781 146.591 285.781 147.18ZM292.812 160.656V161.828C292.922 161.828 293.013 161.799 293.086 161.742C293.164 161.68 293.203 161.513 293.203 161.242C293.203 160.971 293.164 160.807 293.086 160.75C293.013 160.688 292.922 160.656 292.812 160.656ZM291.641 155.188C291.641 152.583 292.729 151.281 294.906 151.281C297.078 151.281 298.164 152.583 298.164 155.188V161.672L300.234 158.938L302.305 161.672V155.188C302.305 152.583 303.393 151.281 305.57 151.281C307.742 151.281 308.828 152.583 308.828 155.188V163H307.5V155.188C307.5 153.365 306.857 152.453 305.57 152.453C304.279 152.453 303.633 153.365 303.633 155.188V163H301.914L300.234 160.656L298.555 163H296.836V155.188C296.836 153.365 296.167 152.453 294.828 152.453C293.589 152.453 292.969 153.365 292.969 155.188V159.562C293.089 159.51 293.227 159.484 293.383 159.484C293.539 159.484 293.703 159.625 293.875 159.906C294.052 160.182 294.141 160.628 294.141 161.242C294.141 161.857 294.026 162.305 293.797 162.586C293.573 162.862 293.271 163 292.891 163C292.51 163 292.208 162.859 291.984 162.578C291.807 162.365 291.698 162.049 291.656 161.633H291.641V155.188ZM307.578 145.578C307.49 145.578 307.414 145.607 307.352 145.664C307.294 145.716 307.266 145.792 307.266 145.891C307.266 145.979 307.294 146.052 307.352 146.109C307.414 146.172 307.49 146.203 307.578 146.203C307.677 146.203 307.753 146.172 307.805 146.109C307.862 146.052 307.891 145.979 307.891 145.891C307.891 145.792 307.862 145.716 307.805 145.664C307.753 145.607 307.677 145.578 307.578 145.578ZM304.141 147.922H307.656C306.359 147.036 305.318 146.594 304.531 146.594C303.49 146.594 302.969 146.815 302.969 147.258C302.969 147.701 303.359 147.922 304.141 147.922ZM306.328 145.797C306.349 145.458 306.461 145.188 306.664 144.984C306.893 144.755 307.198 144.641 307.578 144.641C307.958 144.641 308.263 144.755 308.492 144.984C308.716 145.208 308.828 145.51 308.828 145.891C308.828 146.271 308.716 146.573 308.492 146.797C308.388 146.901 308.271 146.982 308.141 147.039C308.599 147.445 308.828 147.74 308.828 147.922V148.938H303.75C302.448 148.938 301.797 148.417 301.797 147.375C301.797 146.073 302.708 145.422 304.531 145.422C305.156 145.422 305.755 145.547 306.328 145.797ZM318.594 152.469C318.594 152.312 318.49 152.234 318.281 152.234C318.073 152.234 317.969 152.312 317.969 152.469C317.969 152.609 318.073 152.75 318.281 152.891C318.49 152.781 318.594 152.641 318.594 152.469ZM312.539 156.359C312.482 156.359 312.435 156.385 312.398 156.438C312.362 156.484 312.344 156.654 312.344 156.945C312.344 157.237 312.362 157.409 312.398 157.461C312.435 157.508 312.482 157.531 312.539 157.531H312.734V156.359H312.539ZM314.062 161.438L316.641 159.094L319.219 161.438V155.969C319.219 155.406 318.797 154.81 317.953 154.18C317.526 154.591 316.802 154.797 315.781 154.797C314.646 154.797 313.854 154.648 313.406 154.352C312.958 154.055 312.734 153.643 312.734 153.117C312.734 152.596 312.839 152.109 313.047 151.656C313.255 151.198 313.359 150.826 313.359 150.539C313.359 150.253 313.021 150.109 312.344 150.109V148.938C313.802 148.938 314.531 149.432 314.531 150.422C314.531 150.812 314.427 151.25 314.219 151.734C314.01 152.214 313.906 152.555 313.906 152.758C313.906 152.966 314.036 153.164 314.297 153.352C314.557 153.534 315.07 153.625 315.836 153.625C316.497 153.625 316.974 153.539 317.266 153.367C317.005 153.154 316.875 152.823 316.875 152.375C316.875 151.646 317.344 151.281 318.281 151.281C319.271 151.281 319.766 151.724 319.766 152.609C319.766 153.062 319.562 153.448 319.156 153.766C320.083 154.438 320.547 155.172 320.547 155.969V163H318.984L316.641 160.656L314.297 163H312.734V158.688C312.672 158.698 312.607 158.703 312.539 158.703C312.237 158.703 311.997 158.578 311.82 158.328C311.648 158.073 311.562 157.612 311.562 156.945C311.562 156.279 311.648 155.82 311.82 155.57C311.997 155.315 312.328 155.188 312.812 155.188C313.297 155.188 313.625 155.315 313.797 155.57C313.974 155.82 314.062 156.279 314.062 156.945V161.438ZM325.781 157.531V159.094C325.781 160.917 326.641 161.828 328.359 161.828C330.078 161.828 330.938 160.917 330.938 159.094V157.531H325.781ZM325.781 156.359H330.938V154.406C330.938 154.042 330.677 153.651 330.156 153.234V152.453C330.156 151.672 330.547 151.281 331.328 151.281H332.656V152.453H331.719C331.458 152.453 331.328 152.583 331.328 152.844C331.953 153.26 332.266 153.781 332.266 154.406V159.094C332.266 161.698 330.964 163 328.359 163C325.755 163 324.453 161.698 324.453 159.094V154.406C324.453 154.042 324.193 153.651 323.672 153.234V152.453C323.672 151.672 324.062 151.281 324.844 151.281H326.172V152.453H325.234C324.974 152.453 324.844 152.583 324.844 152.844C325.469 153.26 325.781 153.781 325.781 154.406V156.359ZM330.938 166.75V163.781H332.266V168.078H330.938L329.922 167.062L328.906 168.078H327.578V163.781H328.906V166.75L329.922 165.734L330.938 166.75ZM337.5 153.039C337.609 153.039 337.701 153.005 337.773 152.938C337.852 152.87 337.891 152.773 337.891 152.648C337.891 152.523 337.852 152.427 337.773 152.359C337.701 152.292 337.609 152.258 337.5 152.258V153.039ZM348.125 154.406C348.125 154.042 347.865 153.651 347.344 153.234V152.453C347.344 151.672 347.734 151.281 348.516 151.281H349.844V152.453H348.906C348.646 152.453 348.516 152.583 348.516 152.844C349.141 153.26 349.453 153.781 349.453 154.406V159.094C349.453 161.698 348.281 163 345.938 163C344.375 163 343.333 162.422 342.812 161.266C342.292 162.422 341.25 163 339.688 163C337.344 163 336.172 161.698 336.172 159.094V152.648C336.172 152.242 336.271 151.914 336.469 151.664C336.672 151.409 337.003 151.281 337.461 151.281C337.919 151.281 338.247 151.409 338.445 151.664C338.648 151.914 338.75 152.242 338.75 152.648C338.75 153.055 338.648 153.383 338.445 153.633C338.273 153.857 338.01 153.969 337.656 153.969C337.604 153.969 337.552 153.966 337.5 153.961V159.094C337.5 160.917 338.229 161.828 339.688 161.828C341.328 161.828 342.148 160.917 342.148 159.094V154.406C342.148 154.042 341.888 153.651 341.367 153.234V152.453C341.367 151.672 341.758 151.281 342.539 151.281H343.867V152.453H342.93C342.669 152.453 342.539 152.583 342.539 152.844C343.164 153.26 343.477 153.781 343.477 154.406V159.094C343.477 160.917 344.297 161.828 345.938 161.828C347.396 161.828 348.125 160.917 348.125 159.094V154.406ZM354.844 151.539V156.109C354.844 156.349 354.839 156.583 354.828 156.812C354.823 157.042 354.812 157.273 354.797 157.508C354.781 157.742 354.76 157.982 354.734 158.227C354.714 158.466 354.688 158.724 354.656 159H353.688C353.651 158.724 353.62 158.466 353.594 158.227C353.573 157.982 353.555 157.742 353.539 157.508C353.523 157.273 353.51 157.042 353.5 156.812C353.495 156.583 353.492 156.349 353.492 156.109V151.539H354.844ZM353.148 162.117C353.148 161.982 353.172 161.854 353.219 161.734C353.271 161.609 353.341 161.503 353.43 161.414C353.518 161.32 353.622 161.247 353.742 161.195C353.867 161.138 354 161.109 354.141 161.109C354.281 161.109 354.411 161.138 354.531 161.195C354.656 161.247 354.763 161.32 354.852 161.414C354.945 161.503 355.016 161.609 355.062 161.734C355.115 161.854 355.141 161.982 355.141 162.117C355.141 162.263 355.115 162.396 355.062 162.516C355.016 162.635 354.945 162.742 354.852 162.836C354.763 162.924 354.656 162.992 354.531 163.039C354.411 163.091 354.281 163.117 354.141 163.117C354 163.117 353.867 163.091 353.742 163.039C353.622 162.992 353.518 162.924 353.43 162.836C353.341 162.742 353.271 162.635 353.219 162.516C353.172 162.396 353.148 162.263 353.148 162.117Z" fill="#344054"/>
<path d="M311.656 224.891C311.609 224.823 311.505 224.784 311.344 224.773V225.664C311.505 225.664 311.609 225.63 311.656 225.562C311.708 225.49 311.734 225.378 311.734 225.227C311.734 225.07 311.708 224.958 311.656 224.891ZM311.734 223.438C312.13 223.469 312.424 223.625 312.617 223.906C312.81 224.182 312.906 224.628 312.906 225.242C312.906 225.857 312.771 226.305 312.5 226.586C312.229 226.862 311.844 227 311.344 227C310.844 227 310.458 226.862 310.188 226.586C309.917 226.305 309.781 225.857 309.781 225.242V218.406C309.781 217.979 309.521 217.557 309 217.141V216.453C309 215.672 309.495 215.281 310.484 215.281H312.125V216.844H310.797V216.938C311.422 217.354 311.734 217.844 311.734 218.406V223.438ZM324.078 228.562H322.125V226.602C321.516 226.867 320.76 227 319.859 227C317.047 227 315.641 225.698 315.641 223.094V218.406C315.641 217.99 315.51 217.573 315.25 217.156V216.844C315.25 215.802 315.875 215.281 317.125 215.281H324.078V216.844H317.672C317.359 216.844 317.203 216.896 317.203 217C317.464 217.417 317.594 217.885 317.594 218.406V223.094C317.594 224.656 318.349 225.438 319.859 225.438C321.37 225.438 322.125 224.656 322.125 223.094V218.406H324.078V228.562ZM324.078 215.281H325.953C328.609 215.281 329.938 216.323 329.938 218.406V227H327.984V218.406C327.984 217.365 327.307 216.844 325.953 216.844H324.078V215.281ZM335.211 217.43C335.211 217.56 335.245 217.656 335.312 217.719C335.375 217.786 335.471 217.82 335.602 217.82C335.732 217.82 335.828 217.786 335.891 217.719C335.958 217.656 335.992 217.56 335.992 217.43C335.992 217.299 335.958 217.203 335.891 217.141C335.828 217.073 335.732 217.039 335.602 217.039C335.471 217.039 335.375 217.073 335.312 217.141C335.245 217.203 335.211 217.299 335.211 217.43ZM337.359 217.43C337.359 218.018 337.214 218.458 336.922 218.75C336.63 219.042 336.19 219.188 335.602 219.188C335.013 219.188 334.573 219.042 334.281 218.75C333.99 218.458 333.844 218.018 333.844 217.43C333.844 216.841 333.99 216.401 334.281 216.109C334.573 215.818 335.013 215.672 335.602 215.672C336.19 215.672 336.63 215.818 336.922 216.109C337.214 216.401 337.359 216.841 337.359 217.43ZM335.211 224.852C335.211 224.982 335.245 225.078 335.312 225.141C335.375 225.208 335.471 225.242 335.602 225.242C335.732 225.242 335.828 225.208 335.891 225.141C335.958 225.078 335.992 224.982 335.992 224.852C335.992 224.721 335.958 224.625 335.891 224.562C335.828 224.495 335.732 224.461 335.602 224.461C335.471 224.461 335.375 224.495 335.312 224.562C335.245 224.625 335.211 224.721 335.211 224.852ZM337.359 224.852C337.359 225.44 337.214 225.88 336.922 226.172C336.63 226.464 336.19 226.609 335.602 226.609C335.013 226.609 334.573 226.464 334.281 226.172C333.99 225.88 333.844 225.44 333.844 224.852C333.844 224.263 333.99 223.823 334.281 223.531C334.573 223.24 335.013 223.094 335.602 223.094C336.19 223.094 336.63 223.24 336.922 223.531C337.214 223.823 337.359 224.263 337.359 224.852ZM347.75 218.406C347.75 217.979 347.49 217.557 346.969 217.141V216.453C346.969 215.672 347.464 215.281 348.453 215.281H350.094V216.844H348.766V216.938C349.391 217.354 349.703 217.844 349.703 218.406V223.094C349.703 225.698 348.297 227 345.484 227C342.672 227 341.266 225.698 341.266 223.094V218.406C341.266 217.979 341.005 217.557 340.484 217.141V216.453C340.484 215.672 340.979 215.281 341.969 215.281H343.609V216.844H342.281V216.938C342.906 217.354 343.219 217.844 343.219 218.406V223.094C343.219 224.656 343.974 225.438 345.484 225.438C346.995 225.438 347.75 224.656 347.75 223.094V218.406ZM354 221.305C353.839 221.305 353.732 221.341 353.68 221.414C353.633 221.482 353.609 221.591 353.609 221.742C353.609 221.898 353.633 222.01 353.68 222.078C353.732 222.146 353.839 222.185 354 222.195V221.305ZM355.562 224.961L357.828 222.906L360.094 224.961V220.359C360.094 219.734 359.789 219.195 359.18 218.742C358.872 219.039 358.135 219.188 356.969 219.188C355.719 219.188 354.846 219.023 354.352 218.695C353.857 218.367 353.609 217.841 353.609 217.117C353.609 216.638 353.714 216.237 353.922 215.914C354.13 215.586 354.234 215.258 354.234 214.93C354.234 214.643 353.896 214.5 353.219 214.5V212.938C355.094 212.938 356.031 213.432 356.031 214.422C356.031 214.771 355.927 215.188 355.719 215.672C355.51 216.151 355.406 216.513 355.406 216.758C355.406 217.029 355.513 217.242 355.727 217.398C355.945 217.549 356.378 217.625 357.023 217.625C357.581 217.625 357.997 217.544 358.273 217.383C357.924 217.096 357.75 216.76 357.75 216.375C357.75 215.646 358.323 215.281 359.469 215.281C360.667 215.281 361.266 215.724 361.266 216.609C361.266 217 361.021 217.385 360.531 217.766C361.542 218.5 362.047 219.234 362.047 219.969V227H359.953L357.828 224.875L355.703 227H353.609V223.531C353.214 223.5 352.919 223.346 352.727 223.07C352.534 222.789 352.438 222.341 352.438 221.727C352.438 221.112 352.534 220.667 352.727 220.391C352.919 220.109 353.344 219.969 354 219.969C354.656 219.969 355.081 220.109 355.273 220.391C355.466 220.667 355.562 221.112 355.562 221.727V224.961ZM359.453 217.008L359.695 216.836C359.784 216.763 359.828 216.693 359.828 216.625C359.828 216.464 359.719 216.383 359.5 216.383C359.292 216.383 359.188 216.448 359.188 216.578C359.188 216.651 359.219 216.714 359.281 216.766L359.453 217.008ZM358.727 209.422V212.938H357.164V209.422H358.727Z" fill="#0F71BB"/>
<path d="M307.828 228.602H364V229.398H307.828V228.602Z" fill="#0F71BB"/>
<rect x="380.5" y="198.5" width="84" height="47" rx="9.5" fill="white"/>
<path d="M399.922 225.828C399.979 225.828 400.026 225.805 400.062 225.758C400.099 225.706 400.117 225.534 400.117 225.242C400.117 224.951 400.099 224.781 400.062 224.734C400.026 224.682 399.979 224.656 399.922 224.656H399.727V225.828H399.922ZM399.727 223.5C399.789 223.49 399.854 223.484 399.922 223.484C400.224 223.484 400.461 223.612 400.633 223.867C400.81 224.117 400.898 224.576 400.898 225.242C400.898 225.909 400.81 226.37 400.633 226.625C400.461 226.875 400.133 227 399.648 227C399.164 227 398.833 226.875 398.656 226.625C398.484 226.37 398.398 225.909 398.398 225.242V218.406C398.294 218.042 398.034 217.651 397.617 217.234V216.453C397.617 215.672 398.008 215.281 398.789 215.281H400.117V216.453H399.18C398.919 216.453 398.789 216.583 398.789 216.844C399.414 217.26 399.727 217.781 399.727 218.406V223.5ZM403.633 218.406C403.633 218.042 403.503 217.651 403.242 217.234V216.844C403.242 215.802 403.763 215.281 404.805 215.281H411.445V216.453H405.352C404.831 216.453 404.57 216.609 404.57 216.922C404.831 217.339 404.961 217.833 404.961 218.406V223.094C404.961 224.917 405.82 225.828 407.539 225.828C409.258 225.828 410.117 224.917 410.117 223.094V218.406H411.445V227.781H410.117V226.32C409.482 226.773 408.622 227 407.539 227C404.935 227 403.633 225.698 403.633 223.094V218.406ZM411.055 215.281H412.617C414.701 215.281 415.742 216.323 415.742 218.406V227H414.414V218.406C414.414 217.104 413.815 216.453 412.617 216.453H411.055V215.281ZM420.82 217.43C420.82 217.622 420.87 217.768 420.969 217.867C421.068 217.966 421.214 218.016 421.406 218.016C421.604 218.016 421.75 217.966 421.844 217.867C421.943 217.768 421.992 217.622 421.992 217.43C421.992 217.232 421.943 217.086 421.844 216.992C421.75 216.893 421.604 216.844 421.406 216.844C421.214 216.844 421.068 216.893 420.969 216.992C420.87 217.086 420.82 217.232 420.82 217.43ZM423.164 217.43C423.164 218.018 423.018 218.458 422.727 218.75C422.435 219.042 421.995 219.188 421.406 219.188C420.818 219.188 420.378 219.042 420.086 218.75C419.794 218.458 419.648 218.018 419.648 217.43C419.648 216.841 419.794 216.401 420.086 216.109C420.378 215.818 420.818 215.672 421.406 215.672C421.995 215.672 422.435 215.818 422.727 216.109C423.018 216.401 423.164 216.841 423.164 217.43ZM420.82 224.852C420.82 225.044 420.87 225.19 420.969 225.289C421.068 225.388 421.214 225.438 421.406 225.438C421.604 225.438 421.75 225.388 421.844 225.289C421.943 225.19 421.992 225.044 421.992 224.852C421.992 224.654 421.943 224.508 421.844 224.414C421.75 224.315 421.604 224.266 421.406 224.266C421.214 224.266 421.068 224.315 420.969 224.414C420.87 224.508 420.82 224.654 420.82 224.852ZM423.164 224.852C423.164 225.44 423.018 225.88 422.727 226.172C422.435 226.464 421.995 226.609 421.406 226.609C420.818 226.609 420.378 226.464 420.086 226.172C419.794 225.88 419.648 225.44 419.648 224.852C419.648 224.263 419.794 223.823 420.086 223.531C420.378 223.24 420.818 223.094 421.406 223.094C421.995 223.094 422.435 223.24 422.727 223.531C423.018 223.823 423.164 224.263 423.164 224.852ZM433.555 218.406C433.555 218.042 433.294 217.651 432.773 217.234V216.453C432.773 215.672 433.164 215.281 433.945 215.281H435.273V216.453H434.336C434.076 216.453 433.945 216.583 433.945 216.844C434.57 217.26 434.883 217.781 434.883 218.406V223.094C434.883 225.698 433.581 227 430.977 227C428.372 227 427.07 225.698 427.07 223.094V218.406C427.07 218.042 426.81 217.651 426.289 217.234V216.453C426.289 215.672 426.68 215.281 427.461 215.281H428.789V216.453H427.852C427.591 216.453 427.461 216.583 427.461 216.844C428.086 217.26 428.398 217.781 428.398 218.406V223.094C428.398 224.917 429.258 225.828 430.977 225.828C432.695 225.828 433.555 224.917 433.555 223.094V218.406ZM444.648 216.469C444.648 216.312 444.544 216.234 444.336 216.234C444.128 216.234 444.023 216.312 444.023 216.469C444.023 216.609 444.128 216.75 444.336 216.891C444.544 216.781 444.648 216.641 444.648 216.469ZM438.594 220.359C438.536 220.359 438.49 220.385 438.453 220.438C438.417 220.484 438.398 220.654 438.398 220.945C438.398 221.237 438.417 221.409 438.453 221.461C438.49 221.508 438.536 221.531 438.594 221.531H438.789V220.359H438.594ZM440.117 225.438L442.695 223.094L445.273 225.438V219.969C445.273 219.406 444.852 218.81 444.008 218.18C443.581 218.591 442.857 218.797 441.836 218.797C440.701 218.797 439.909 218.648 439.461 218.352C439.013 218.055 438.789 217.643 438.789 217.117C438.789 216.596 438.893 216.109 439.102 215.656C439.31 215.198 439.414 214.826 439.414 214.539C439.414 214.253 439.076 214.109 438.398 214.109V212.938C439.857 212.938 440.586 213.432 440.586 214.422C440.586 214.812 440.482 215.25 440.273 215.734C440.065 216.214 439.961 216.555 439.961 216.758C439.961 216.966 440.091 217.164 440.352 217.352C440.612 217.534 441.125 217.625 441.891 217.625C442.552 217.625 443.029 217.539 443.32 217.367C443.06 217.154 442.93 216.823 442.93 216.375C442.93 215.646 443.398 215.281 444.336 215.281C445.326 215.281 445.82 215.724 445.82 216.609C445.82 217.062 445.617 217.448 445.211 217.766C446.138 218.438 446.602 219.172 446.602 219.969V227H445.039L442.695 224.656L440.352 227H438.789V222.688C438.727 222.698 438.661 222.703 438.594 222.703C438.292 222.703 438.052 222.578 437.875 222.328C437.703 222.073 437.617 221.612 437.617 220.945C437.617 220.279 437.703 219.82 437.875 219.57C438.052 219.315 438.383 219.188 438.867 219.188C439.352 219.188 439.68 219.315 439.852 219.57C440.029 219.82 440.117 220.279 440.117 220.945V225.438ZM443.281 209.422V212.938H442.109V209.422H443.281Z" fill="#344054"/>
<rect x="380.5" y="198.5" width="84" height="47" rx="9.5" stroke="#344054"/>
<rect x="481" y="198" width="160" height="48" rx="10" fill="#1C4076"/>
<path d="M499.359 225.828V224.656H499.164C499.107 224.656 499.06 224.682 499.023 224.734C498.987 224.781 498.969 224.951 498.969 225.242C498.969 225.534 498.987 225.706 499.023 225.758C499.06 225.805 499.107 225.828 499.164 225.828H499.359ZM500.688 218.406V225.242C500.688 225.909 500.599 226.37 500.422 226.625C500.25 226.875 499.922 227 499.438 227C498.953 227 498.622 226.875 498.445 226.625C498.273 226.37 498.188 225.909 498.188 225.242C498.188 224.576 498.273 224.117 498.445 223.867C498.622 223.612 498.862 223.484 499.164 223.484C499.232 223.484 499.297 223.49 499.359 223.5V218.406C499.255 218.042 498.995 217.651 498.578 217.234V216.453C498.578 215.672 498.969 215.281 499.75 215.281H501.078V216.453H500.141C499.88 216.453 499.75 216.583 499.75 216.844C500.375 217.26 500.688 217.781 500.688 218.406ZM505.922 227H504.594V221.531C504.594 218.927 505.896 217.625 508.5 217.625C511.104 217.625 512.406 218.927 512.406 221.531V227H511.078V221.531C511.078 219.708 510.219 218.797 508.5 218.797C506.781 218.797 505.922 219.708 505.922 221.531V227ZM512.406 215.281V216.453H504.594V215.281H512.406ZM511.078 228.953C511.078 228.734 511.039 228.625 510.961 228.625C510.883 228.625 510.844 228.734 510.844 228.953V229.344H509.828V228.953C509.828 228.573 509.917 228.281 510.094 228.078C510.266 227.88 510.607 227.781 511.117 227.781C511.523 227.781 511.815 227.88 511.992 228.078C512.164 228.281 512.25 228.573 512.25 228.953C512.25 230.255 512.836 230.906 514.008 230.906C515.18 230.906 515.766 230.255 515.766 228.953V225.438H514.359V224.266H515.766V218.406C515.766 218.042 515.505 217.651 514.984 217.234V216.453C514.984 215.672 515.375 215.281 516.156 215.281H517.484V216.453H516.547C516.286 216.453 516.156 216.583 516.156 216.844C516.781 217.26 517.094 217.781 517.094 218.406V224.266H518.656V225.438H517.094V228.953C517.094 231.036 516.091 232.078 514.086 232.078C512.081 232.078 511.078 231.036 511.078 228.953ZM517.094 215.281H518.656C520.74 215.281 521.781 216.323 521.781 218.406V227H520.453V218.406C520.453 217.104 519.854 216.453 518.656 216.453H517.094V215.281ZM525.688 225.828V224.656H525.492C525.435 224.656 525.388 224.682 525.352 224.734C525.315 224.781 525.297 224.951 525.297 225.242C525.297 225.534 525.315 225.706 525.352 225.758C525.388 225.805 525.435 225.828 525.492 225.828H525.688ZM527.016 218.406V225.242C527.016 225.909 526.927 226.37 526.75 226.625C526.578 226.875 526.25 227 525.766 227C525.281 227 524.951 226.875 524.773 226.625C524.602 226.37 524.516 225.909 524.516 225.242C524.516 224.576 524.602 224.117 524.773 223.867C524.951 223.612 525.19 223.484 525.492 223.484C525.56 223.484 525.625 223.49 525.688 223.5V218.406C525.583 218.042 525.323 217.651 524.906 217.234V216.453C524.906 215.672 525.297 215.281 526.078 215.281H527.406V216.453H526.469C526.208 216.453 526.078 216.583 526.078 216.844C526.703 217.26 527.016 217.781 527.016 218.406ZM537.641 222.383C537.677 222.393 537.714 222.398 537.75 222.398C537.885 222.398 537.953 222.292 537.953 222.078C537.953 221.87 537.901 221.766 537.797 221.766C537.693 221.766 537.641 221.867 537.641 222.07V222.383ZM537.641 223.086V223.875C537.641 225.958 536.703 227 534.828 227C532.953 227 532.016 225.958 532.016 223.875V222.312H533.344V223.875C533.344 225.177 533.839 225.828 534.828 225.828C535.818 225.828 536.312 225.177 536.312 223.875V222.898C532.719 221.862 530.922 220.365 530.922 218.406C530.922 216.323 532.224 215.281 534.828 215.281C537.432 215.281 538.734 216.323 538.734 218.406C538.734 219.859 538.01 220.586 536.562 220.586C536.234 220.586 535.969 220.51 535.766 220.359V219.188C536.135 219.297 536.438 219.352 536.672 219.352C537.161 219.352 537.406 219.036 537.406 218.406C537.406 217.104 536.547 216.453 534.828 216.453C533.109 216.453 532.25 217.104 532.25 218.406C532.25 220.016 533.604 221.148 536.312 221.805C536.312 221.31 536.677 221.062 537.406 221.062C538.292 221.062 538.734 221.388 538.734 222.039C538.734 222.43 538.646 222.706 538.469 222.867C538.292 223.029 538.102 223.109 537.898 223.109C537.815 223.109 537.729 223.102 537.641 223.086ZM538.734 227.781V232.078H537.406V227.781H538.734ZM543.969 227H542.641V221.531C542.641 218.927 543.943 217.625 546.547 217.625C549.151 217.625 550.453 218.927 550.453 221.531V227H549.125V221.531C549.125 219.708 548.266 218.797 546.547 218.797C544.828 218.797 543.969 219.708 543.969 221.531V227ZM550.453 215.281V216.453H542.641V215.281H550.453ZM555.688 227H554.359V221.531C554.359 218.927 555.661 217.625 558.266 217.625C560.87 217.625 562.172 218.927 562.172 221.531V227H560.844V221.531C560.844 219.708 559.984 218.797 558.266 218.797C556.547 218.797 555.688 219.708 555.688 221.531V227ZM562.172 215.281V216.453H554.359V215.281H562.172ZM562.172 215.281H563.734C565.818 215.281 566.859 216.323 566.859 218.406V227H565.531V218.406C565.531 217.104 564.932 216.453 563.734 216.453H562.172V215.281ZM570.766 225.828V224.656H570.57C570.513 224.656 570.466 224.682 570.43 224.734C570.393 224.781 570.375 224.951 570.375 225.242C570.375 225.534 570.393 225.706 570.43 225.758C570.466 225.805 570.513 225.828 570.57 225.828H570.766ZM572.094 218.406V225.242C572.094 225.909 572.005 226.37 571.828 226.625C571.656 226.875 571.328 227 570.844 227C570.359 227 570.029 226.875 569.852 226.625C569.68 226.37 569.594 225.909 569.594 225.242C569.594 224.576 569.68 224.117 569.852 223.867C570.029 223.612 570.268 223.484 570.57 223.484C570.638 223.484 570.703 223.49 570.766 223.5V218.406C570.661 218.042 570.401 217.651 569.984 217.234V216.453C569.984 215.672 570.375 215.281 571.156 215.281H572.484V216.453H571.547C571.286 216.453 571.156 216.583 571.156 216.844C571.781 217.26 572.094 217.781 572.094 218.406ZM582.484 219.383C582.375 219.383 582.281 219.417 582.203 219.484C582.13 219.552 582.094 219.648 582.094 219.773C582.094 219.898 582.13 219.995 582.203 220.062C582.281 220.13 582.375 220.164 582.484 220.164V219.383ZM576 218.406C576 218.042 575.87 217.651 575.609 217.234V216.844C575.609 215.802 576.13 215.281 577.172 215.281H579.516L581.312 216.453H581.938C582.302 216.453 582.484 216.271 582.484 215.906V214.109H583.812V215.906C583.812 217.052 583.37 217.625 582.484 217.625H581.078L579.281 216.453H577.719C577.198 216.453 576.938 216.609 576.938 216.922C577.198 217.339 577.328 217.833 577.328 218.406V225.438L579.906 223.25L582.484 225.438V221.086C582.432 221.091 582.38 221.094 582.328 221.094C581.974 221.094 581.711 220.982 581.539 220.758C581.336 220.508 581.234 220.18 581.234 219.773C581.234 219.367 581.333 219.039 581.531 218.789C581.734 218.534 582.065 218.406 582.523 218.406C582.982 218.406 583.31 218.534 583.508 218.789C583.711 219.039 583.812 219.367 583.812 219.773V227H582.641L579.906 224.656L577.172 227H576V218.406ZM577.562 230.047C577.562 230.839 577.729 231.234 578.062 231.234C578.245 231.234 578.495 231.18 578.812 231.07V231.852C578.661 232.003 578.266 232.078 577.625 232.078C576.802 232.078 576.391 231.401 576.391 230.047C576.391 228.536 577.029 227.781 578.305 227.781C579.398 227.781 580.148 228.302 580.555 229.344C580.956 230.385 581.339 230.906 581.703 230.906C582.068 230.906 582.536 229.865 583.109 227.781L584.203 228.094C583.552 230.75 582.766 232.078 581.844 232.078C580.969 232.078 580.331 231.557 579.93 230.516C579.523 229.474 578.982 228.953 578.305 228.953C577.81 228.953 577.562 229.318 577.562 230.047ZM583.812 215.281H585.375C587.458 215.281 588.5 216.323 588.5 218.406V227H587.172V218.406C587.172 217.104 586.573 216.453 585.375 216.453H583.812V215.281ZM593.578 224.656V225.828C593.688 225.828 593.779 225.799 593.852 225.742C593.93 225.68 593.969 225.513 593.969 225.242C593.969 224.971 593.93 224.807 593.852 224.75C593.779 224.688 593.688 224.656 593.578 224.656ZM605.688 218.406V223.094C605.688 225.698 604.516 227 602.172 227C599.646 227 598.383 225.698 598.383 223.094V221.531C598.383 219.708 597.609 218.797 596.062 218.797C594.51 218.797 593.734 219.708 593.734 221.531V223.562C593.854 223.51 593.992 223.484 594.148 223.484C594.305 223.484 594.469 223.625 594.641 223.906C594.818 224.182 594.906 224.628 594.906 225.242C594.906 225.857 594.792 226.305 594.562 226.586C594.339 226.862 594.036 227 593.656 227C593.276 227 592.974 226.859 592.75 226.578C592.573 226.365 592.464 226.049 592.422 225.633H592.406V221.531C592.406 219.906 592.88 218.789 593.828 218.18C593.594 217.789 593.25 217.474 592.797 217.234V216.453C592.797 215.672 593.188 215.281 593.969 215.281H598.266V216.453H594.516C594.255 216.453 594.125 216.583 594.125 216.844C594.531 217.062 594.852 217.349 595.086 217.703C595.388 217.651 595.714 217.625 596.062 217.625C598.495 217.625 599.711 218.927 599.711 221.531V223.094C599.711 224.917 600.531 225.828 602.172 225.828C603.63 225.828 604.359 224.917 604.359 223.094V218.406C604.359 218.042 604.099 217.651 603.578 217.234V216.453C603.578 215.672 603.969 215.281 604.75 215.281H606.078V216.453H605.141C604.88 216.453 604.75 216.583 604.75 216.844C605.375 217.26 605.688 217.781 605.688 218.406ZM602.367 209.422V212.938H601.195V209.422H602.367ZM616.078 218.406C616.078 218.042 615.818 217.651 615.297 217.234V216.453C615.297 215.672 615.688 215.281 616.469 215.281H617.797V216.453H616.859C616.599 216.453 616.469 216.583 616.469 216.844C617.094 217.26 617.406 217.781 617.406 218.406V223.094C617.406 225.698 616.104 227 613.5 227C610.896 227 609.594 225.698 609.594 223.094V218.406C609.594 218.042 609.333 217.651 608.812 217.234V216.453C608.812 215.672 609.203 215.281 609.984 215.281H611.312V216.453H610.375C610.115 216.453 609.984 216.583 609.984 216.844C610.609 217.26 610.922 217.781 610.922 218.406V223.094C610.922 224.917 611.781 225.828 613.5 225.828C615.219 225.828 616.078 224.917 616.078 223.094V218.406ZM611.156 231.297C611.266 231.297 611.333 231.271 611.359 231.219C611.38 231.172 611.391 231.107 611.391 231.023C611.391 230.94 611.38 230.872 611.359 230.82C611.333 230.773 611.266 230.75 611.156 230.75V231.297ZM609.984 229.969C609.984 228.51 611.156 227.781 613.5 227.781C615.844 227.781 617.016 228.562 617.016 230.125V232.078H615.844V230.125C615.844 229.344 615.062 228.953 613.5 228.953C611.938 228.953 611.156 229.292 611.156 229.969C611.484 229.969 611.737 230.055 611.914 230.227C612.086 230.404 612.172 230.669 612.172 231.023C612.172 231.378 612.073 231.641 611.875 231.812C611.672 231.99 611.406 232.078 611.078 232.078C610.75 232.078 610.487 231.99 610.289 231.812C610.086 231.641 609.984 231.378 609.984 231.023V229.969ZM615.062 234.422C615.062 234.943 615.232 235.203 615.57 235.203C615.909 235.203 616.078 234.943 616.078 234.422V232.469H617.406V234.422C617.406 235.724 616.794 236.375 615.57 236.375C614.346 236.375 613.734 235.724 613.734 234.422V232.469H615.062V234.422ZM621.312 225.828V224.656H621.117C621.06 224.656 621.013 224.682 620.977 224.734C620.94 224.781 620.922 224.951 620.922 225.242C620.922 225.534 620.94 225.706 620.977 225.758C621.013 225.805 621.06 225.828 621.117 225.828H621.312ZM622.641 218.406V225.242C622.641 225.909 622.552 226.37 622.375 226.625C622.203 226.875 621.875 227 621.391 227C620.906 227 620.576 226.875 620.398 226.625C620.227 226.37 620.141 225.909 620.141 225.242C620.141 224.576 620.227 224.117 620.398 223.867C620.576 223.612 620.815 223.484 621.117 223.484C621.185 223.484 621.25 223.49 621.312 223.5V218.406C621.208 218.042 620.948 217.651 620.531 217.234V216.453C620.531 215.672 620.922 215.281 621.703 215.281H623.031V216.453H622.094C621.833 216.453 621.703 216.583 621.703 216.844C622.328 217.26 622.641 217.781 622.641 218.406Z" fill="white"/>
<rect x="20.5" y="36.5" width="645" height="234" rx="8.5" stroke="#98A2B3"/>
</g>
<path d="M700 158L364 158" stroke="#344054" stroke-dasharray="2 2"/>
<circle cx="712" cy="157" r="12" fill="#344054"/>
<path d="M706.767 160.955V159.017L711.625 151.364H713.295V154.045H712.307L709.244 158.892V158.983H716.148V160.955H706.767ZM712.352 163V160.364L712.398 159.506V151.364H714.705V163H712.352Z" fill="white"/>
<path d="M700 223L644 223" stroke="#344054" stroke-dasharray="2 2"/>
<circle cx="712" cy="222" r="12" fill="#344054"/>
<path d="M712.193 228.159C711.39 228.159 710.674 228.011 710.045 227.716C709.42 227.42 708.924 227.013 708.557 226.494C708.189 225.975 707.998 225.381 707.983 224.71H710.369C710.396 225.161 710.585 225.527 710.938 225.807C711.29 226.087 711.708 226.227 712.193 226.227C712.58 226.227 712.92 226.142 713.216 225.972C713.515 225.797 713.748 225.557 713.915 225.25C714.085 224.939 714.17 224.583 714.17 224.182C714.17 223.773 714.083 223.413 713.909 223.102C713.739 222.792 713.502 222.549 713.199 222.375C712.896 222.201 712.549 222.112 712.159 222.108C711.818 222.108 711.487 222.178 711.165 222.318C710.847 222.458 710.598 222.65 710.42 222.892L708.233 222.5L708.784 216.364H715.898V218.375H710.812L710.511 221.29H710.58C710.784 221.002 711.093 220.763 711.506 220.574C711.919 220.384 712.381 220.29 712.892 220.29C713.593 220.29 714.218 220.455 714.767 220.784C715.316 221.114 715.75 221.566 716.068 222.142C716.386 222.714 716.544 223.373 716.54 224.119C716.544 224.903 716.362 225.6 715.994 226.21C715.631 226.816 715.121 227.294 714.466 227.642C713.814 227.987 713.057 228.159 712.193 228.159Z" fill="white"/>
<path d="M168 16L168 58" stroke="#344054" stroke-dasharray="2 2"/>
<circle cx="168" cy="16" r="12" fill="#344054"/>
<path d="M163.943 22V20.2273L168.085 16.392C168.438 16.0511 168.733 15.7443 168.972 15.4716C169.214 15.1989 169.398 14.9318 169.523 14.6705C169.648 14.4053 169.71 14.1193 169.71 13.8125C169.71 13.4716 169.633 13.178 169.477 12.9318C169.322 12.6818 169.11 12.4905 168.841 12.358C168.572 12.2216 168.267 12.1534 167.926 12.1534C167.57 12.1534 167.259 12.2254 166.994 12.3693C166.729 12.5133 166.525 12.7197 166.381 12.9886C166.237 13.2576 166.165 13.5777 166.165 13.9489H163.83C163.83 13.1875 164.002 12.5265 164.347 11.9659C164.691 11.4053 165.174 10.9716 165.795 10.6648C166.417 10.358 167.133 10.2045 167.943 10.2045C168.777 10.2045 169.502 10.3523 170.119 10.6477C170.741 10.9394 171.223 11.3447 171.568 11.8636C171.913 12.3826 172.085 12.9773 172.085 13.6477C172.085 14.0871 171.998 14.5208 171.824 14.9489C171.653 15.3769 171.348 15.8523 170.909 16.375C170.47 16.8939 169.85 17.517 169.051 18.2443L167.352 19.9091V19.9886H172.239V22H163.943Z" fill="white"/>
<path d="M17 16.2488H61V58.2488" stroke="#344054" stroke-dasharray="2 2"/>
<circle cx="16" cy="16" r="12" fill="#344054"/>
<path d="M18.0057 10.3636V22H15.5455V12.6989H15.4773L12.8125 14.3693V12.1875L15.6932 10.3636H18.0057Z" fill="white"/>
<path d="M700 16H625V58" stroke="#344054" stroke-dasharray="2 2"/>
<circle cx="712" cy="16" r="12" fill="#344054"/>
<path d="M712.244 22.1591C711.396 22.1591 710.64 22.0133 709.977 21.7216C709.318 21.4261 708.797 21.0208 708.415 20.5057C708.036 19.9867 707.841 19.3883 707.83 18.7102H710.307C710.322 18.9943 710.415 19.2443 710.585 19.4602C710.759 19.6723 710.991 19.8371 711.278 19.9545C711.566 20.072 711.89 20.1307 712.25 20.1307C712.625 20.1307 712.956 20.0644 713.244 19.9318C713.532 19.7992 713.758 19.6155 713.92 19.3807C714.083 19.1458 714.165 18.875 714.165 18.5682C714.165 18.2576 714.078 17.983 713.903 17.7443C713.733 17.5019 713.487 17.3125 713.165 17.1761C712.847 17.0398 712.468 16.9716 712.028 16.9716H710.943V15.1648H712.028C712.4 15.1648 712.727 15.1004 713.011 14.9716C713.299 14.8428 713.523 14.6648 713.682 14.4375C713.841 14.2064 713.92 13.9375 713.92 13.6307C713.92 13.339 713.85 13.0833 713.71 12.8636C713.574 12.6402 713.381 12.4659 713.131 12.3409C712.884 12.2159 712.597 12.1534 712.267 12.1534C711.934 12.1534 711.629 12.214 711.352 12.3352C711.076 12.4527 710.854 12.6212 710.688 12.8409C710.521 13.0606 710.432 13.3182 710.42 13.6136H708.062C708.074 12.9432 708.265 12.3523 708.636 11.8409C709.008 11.3295 709.508 10.9299 710.136 10.642C710.769 10.3504 711.483 10.2045 712.278 10.2045C713.081 10.2045 713.784 10.3504 714.386 10.642C714.989 10.9337 715.456 11.3277 715.79 11.8239C716.127 12.3163 716.294 12.8693 716.29 13.483C716.294 14.1345 716.091 14.678 715.682 15.1136C715.277 15.5492 714.748 15.8258 714.097 15.9432V16.0341C714.953 16.1439 715.604 16.4413 716.051 16.9261C716.502 17.4072 716.725 18.0095 716.722 18.733C716.725 19.3958 716.534 19.9848 716.148 20.5C715.765 21.0152 715.237 21.4205 714.562 21.7159C713.888 22.0114 713.116 22.1591 712.244 22.1591Z" fill="white"/>
<defs>
<filter id="filter0_dd_7128_11211" x="0" y="36" width="686" height="275" filterUnits="userSpaceOnUse" color-interpolation-filters="sRGB">
<feFlood flood-opacity="0" result="BackgroundImageFix"/>
<feColorMatrix in="SourceAlpha" type="matrix" values="0 0 0 0 0 0 0 0 0 0 0 0 0 0 0 0 0 0 127 0" result="hardAlpha"/>
<feMorphology radius="4" operator="erode" in="SourceAlpha" result="effect1_dropShadow_7128_11211"/>
<feOffset dy="8"/>
<feGaussianBlur stdDeviation="4"/>
<feColorMatrix type="matrix" values="0 0 0 0 0.0627451 0 0 0 0 0.0941176 0 0 0 0 0.156863 0 0 0 0.04 0"/>
<feBlend mode="normal" in2="BackgroundImageFix" result="effect1_dropShadow_7128_11211"/>
<feColorMatrix in="SourceAlpha" type="matrix" values="0 0 0 0 0 0 0 0 0 0 0 0 0 0 0 0 0 0 127 0" result="hardAlpha"/>
<feMorphology radius="4" operator="erode" in="SourceAlpha" result="effect2_dropShadow_7128_11211"/>
<feOffset dy="20"/>
<feGaussianBlur stdDeviation="12"/>
<feColorMatrix type="matrix" values="0 0 0 0 0.0627451 0 0 0 0 0.0941176 0 0 0 0 0.156863 0 0 0 0.1 0"/>
<feBlend mode="normal" in2="effect1_dropShadow_7128_11211" result="effect2_dropShadow_7128_11211"/>
<feBlend mode="normal" in="SourceGraphic" in2="effect2_dropShadow_7128_11211" result="shape"/>
</filter>
</defs>
</svg>
