<svg width="718" height="335" viewBox="0 0 718 335" fill="none" xmlns="http://www.w3.org/2000/svg">
<g filter="url(#filter0_dd_7128_11694)">
<rect x="21" y="1" width="644" height="233" rx="8" fill="white"/>
<path d="M61 51.5C58.2152 51.5 55.5445 50.3938 53.5754 48.4246C51.6062 46.4555 50.5 43.7848 50.5 41C50.5 38.2152 51.6062 35.5445 53.5754 33.5754C55.5445 31.6062 58.2152 30.5 61 30.5C63.7848 30.5 66.4555 31.6062 68.4246 33.5754C70.3938 35.5445 71.5 38.2152 71.5 41C71.5 43.7848 70.3938 46.4555 68.4246 48.4246C66.4555 50.3938 63.7848 51.5 61 51.5ZM61 53C64.1826 53 67.2348 51.7357 69.4853 49.4853C71.7357 47.2348 73 44.1826 73 41C73 37.8174 71.7357 34.7652 69.4853 32.5147C67.2348 30.2643 64.1826 29 61 29C57.8174 29 54.7652 30.2643 52.5147 32.5147C50.2643 34.7652 49 37.8174 49 41C49 44.1826 50.2643 47.2348 52.5147 49.4853C54.7652 51.7357 57.8174 53 61 53Z" fill="#344054"/>
<path d="M59.5029 45.5001C59.5029 45.3032 59.5417 45.1081 59.6171 44.9261C59.6925 44.7441 59.803 44.5788 59.9423 44.4395C60.0816 44.3002 60.2469 44.1897 60.4289 44.1143C60.6109 44.0389 60.8059 44.0001 61.0029 44.0001C61.1999 44.0001 61.395 44.0389 61.577 44.1143C61.7589 44.1897 61.9243 44.3002 62.0636 44.4395C62.2029 44.5788 62.3134 44.7441 62.3888 44.9261C62.4641 45.1081 62.5029 45.3032 62.5029 45.5001C62.5029 45.898 62.3449 46.2795 62.0636 46.5608C61.7823 46.8421 61.4008 47.0001 61.0029 47.0001C60.6051 47.0001 60.2236 46.8421 59.9423 46.5608C59.661 46.2795 59.5029 45.898 59.5029 45.5001ZM59.6499 36.4927C59.63 36.3034 59.65 36.1121 59.7087 35.9311C59.7675 35.7501 59.8636 35.5835 59.9909 35.442C60.1182 35.3006 60.2738 35.1875 60.4476 35.1101C60.6215 35.0327 60.8096 34.9927 60.9999 34.9927C61.1902 34.9927 61.3784 35.0327 61.5522 35.1101C61.726 35.1875 61.8817 35.3006 62.009 35.442C62.1362 35.5835 62.2324 35.7501 62.2911 35.9311C62.3499 36.1121 62.3699 36.3034 62.3499 36.4927L61.8249 41.7531C61.8073 41.9598 61.7127 42.1523 61.56 42.2926C61.4072 42.4329 61.2073 42.5107 60.9999 42.5107C60.7925 42.5107 60.5927 42.4329 60.4399 42.2926C60.2871 42.1523 60.1926 41.9598 60.1749 41.7531L59.6499 36.4927Z" fill="#344054"/>
<path d="M105.242 37.75C105.055 37.75 104.93 37.793 104.867 37.8789C104.805 37.957 104.773 38.0469 104.773 38.1484C104.773 38.25 104.801 38.332 104.855 38.3945C104.918 38.4805 105.047 38.5234 105.242 38.5234V37.75ZM94.9297 36.1094C94.9297 35.4844 94.7344 34.8594 94.3438 34.2344V33.7656C94.3438 32.2031 95.2812 31.4219 97.1562 31.4219H107.586V33.7656H97.9766C97.5078 33.7656 97.2734 33.8438 97.2734 34C97.6641 34.625 97.8594 35.3281 97.8594 36.1094V43.1406C97.8594 45.4844 98.9922 46.6562 101.258 46.6562C103.523 46.6562 104.656 45.4844 104.656 43.1406V40.1758C104.031 40.1523 103.547 39.9141 103.203 39.4609C102.922 39.1172 102.781 38.6836 102.781 38.1602C102.781 37.6367 102.949 37.1641 103.285 36.7422C103.621 36.3203 104.273 36.1094 105.242 36.1094C106.133 36.1094 106.746 36.3203 107.082 36.7422C107.418 37.1641 107.586 37.6367 107.586 38.1602V43.1406C107.586 47.0469 105.477 49 101.258 49C97.0391 49 94.9297 47.0469 94.9297 43.1406V36.1094ZM100.496 25.2695C100.496 25.4648 100.547 25.6094 100.648 25.7031C100.742 25.8047 100.887 25.8555 101.082 25.8555C101.277 25.8555 101.426 25.8047 101.527 25.7031C101.621 25.6094 101.668 25.4648 101.668 25.2695C101.668 25.0742 101.621 24.9297 101.527 24.8359C101.426 24.7344 101.277 24.6836 101.082 24.6836C100.887 24.6836 100.742 24.7344 100.648 24.8359C100.547 24.9297 100.496 25.0742 100.496 25.2695ZM103.719 25.2695C103.719 26.1523 103.5 26.8125 103.062 27.25C102.625 27.6875 101.965 27.9062 101.082 27.9062C100.199 27.9062 99.5391 27.6875 99.1016 27.25C98.6641 26.8125 98.4453 26.1523 98.4453 25.2695C98.4453 24.3867 98.6641 23.7266 99.1016 23.2891C99.5391 22.8516 100.199 22.6328 101.082 22.6328C101.965 22.6328 102.625 22.8516 103.062 23.2891C103.5 23.7266 103.719 24.3867 103.719 25.2695ZM115.789 46.9961C116.031 46.9961 116.188 46.9453 116.258 46.8438C116.336 46.7344 116.375 46.5664 116.375 46.3398C116.375 46.1055 116.336 45.9375 116.258 45.8359C116.188 45.7344 116.031 45.6758 115.789 45.6602V46.9961ZM113.445 37.2812C113.445 33.375 115.234 31.4219 118.812 31.4219C122.383 31.4219 124.168 33.375 124.168 37.2812V45.3086L126.805 41.8281L129.441 45.3086V37.2812C129.441 33.375 131.23 31.4219 134.809 31.4219C138.379 31.4219 140.164 33.375 140.164 37.2812V49H137.234V37.2812C137.234 34.9375 136.426 33.7656 134.809 33.7656C133.184 33.7656 132.371 34.9375 132.371 37.2812V49H128.938L126.805 46.0117L124.672 49H121.238V37.2812C121.238 34.9375 120.43 33.7656 118.812 33.7656C117.188 33.7656 116.375 34.9375 116.375 37.2812V43.6562C116.969 43.7031 117.41 43.9375 117.699 44.3594C117.988 44.7734 118.133 45.4414 118.133 46.3633C118.133 47.1289 117.93 47.7617 117.523 48.2617C117.117 48.7539 116.539 49 115.789 49C115.039 49 114.461 48.7734 114.055 48.3203C113.648 47.8594 113.445 47.207 113.445 46.3633V37.2812ZM146.609 40.457C146.367 40.457 146.207 40.5117 146.129 40.6211C146.059 40.7227 146.023 40.8867 146.023 41.1133C146.023 41.3477 146.059 41.5156 146.129 41.6172C146.207 41.7188 146.367 41.7773 146.609 41.793V40.457ZM148.953 45.9414L152.352 42.8594L155.75 45.9414V39.0391C155.75 38.1016 155.293 37.293 154.379 36.6133C153.918 37.0586 152.812 37.2812 151.062 37.2812C149.188 37.2812 147.879 37.0352 147.137 36.543C146.395 36.0508 146.023 35.2617 146.023 34.1758C146.023 33.457 146.18 32.8555 146.492 32.3711C146.805 31.8789 146.961 31.3867 146.961 30.8945C146.961 30.4648 146.453 30.25 145.438 30.25V27.9062C148.25 27.9062 149.656 28.6484 149.656 30.1328C149.656 30.6562 149.5 31.2812 149.188 32.0078C148.875 32.7266 148.719 33.2695 148.719 33.6367C148.719 34.043 148.879 34.3633 149.199 34.5977C149.527 34.8242 150.176 34.9375 151.145 34.9375C151.98 34.9375 152.605 34.8164 153.02 34.5742C152.496 34.1445 152.234 33.6406 152.234 33.0625C152.234 31.9688 153.094 31.4219 154.812 31.4219C156.609 31.4219 157.508 32.0859 157.508 33.4141C157.508 34 157.141 34.5781 156.406 35.1484C157.922 36.25 158.68 37.3516 158.68 38.4531V49H155.539L152.352 45.8125L149.164 49H146.023V43.7969C145.43 43.75 144.988 43.5195 144.699 43.1055C144.41 42.6836 144.266 42.0117 144.266 41.0898C144.266 40.168 144.41 39.5 144.699 39.0859C144.988 38.6641 145.625 38.4531 146.609 38.4531C147.594 38.4531 148.23 38.6641 148.52 39.0859C148.809 39.5 148.953 40.168 148.953 41.0898V45.9414ZM154.789 34.0117L155.152 33.7539C155.285 33.6445 155.352 33.5391 155.352 33.4375C155.352 33.1953 155.188 33.0742 154.859 33.0742C154.547 33.0742 154.391 33.1719 154.391 33.3672C154.391 33.4766 154.438 33.5703 154.531 33.6484L154.789 34.0117ZM167.352 45.8359C167.281 45.7344 167.125 45.6758 166.883 45.6602V46.9961C167.125 46.9961 167.281 46.9453 167.352 46.8438C167.43 46.7344 167.469 46.5664 167.469 46.3398C167.469 46.1055 167.43 45.9375 167.352 45.8359ZM167.469 43.6562C168.062 43.7031 168.504 43.9375 168.793 44.3594C169.082 44.7734 169.227 45.4414 169.227 46.3633C169.227 47.2852 169.023 47.957 168.617 48.3789C168.211 48.793 167.633 49 166.883 49C166.133 49 165.555 48.793 165.148 48.3789C164.742 47.957 164.539 47.2852 164.539 46.3633V36.1094C164.539 35.4688 164.148 34.8359 163.367 34.2109V33.1797C163.367 32.0078 164.109 31.4219 165.594 31.4219H168.055V33.7656H166.062V33.9062C167 34.5312 167.469 35.2656 167.469 36.1094V43.6562ZM173.328 36.1094C173.328 35.4844 173.133 34.8594 172.742 34.2344V33.7656C172.742 32.2031 173.68 31.4219 175.555 31.4219H179.328L182.023 32.5938H182.703C182.938 32.5938 183.055 32.5156 183.055 32.3594V29.6641H185.984V32.3594C185.984 34.0781 185.164 34.9375 183.523 34.9375H181.156L178.461 33.7656H176.375C175.906 33.7656 175.672 33.8438 175.672 34C176.062 34.625 176.258 35.3281 176.258 36.1094V45.4141L179.656 42.5312L183.055 45.4141V36.1094H185.984V49H183.453L179.656 45.7422L175.859 49H173.328V36.1094ZM177.195 25.6211C177.195 26.0508 177.586 26.2656 178.367 26.2656H183.641C182.086 25.4062 180.719 24.9766 179.539 24.9766C177.977 24.9766 177.195 25.1914 177.195 25.6211ZM183.875 24.168V21.4609H185.984V27.9062H177.781C175.828 27.9062 174.852 27.125 174.852 25.5625C174.852 23.6094 176.414 22.6328 179.539 22.6328C181.078 22.6328 182.523 23.1445 183.875 24.168ZM192.43 40.457C192.188 40.457 192.027 40.5117 191.949 40.6211C191.879 40.7227 191.844 40.8867 191.844 41.1133C191.844 41.3477 191.879 41.5156 191.949 41.6172C192.027 41.7188 192.188 41.7773 192.43 41.793V40.457ZM194.773 45.9414L198.172 42.8594L201.57 45.9414V39.0391C201.57 38.1016 201.113 37.293 200.199 36.6133C199.738 37.0586 198.633 37.2812 196.883 37.2812C195.008 37.2812 193.699 37.0352 192.957 36.543C192.215 36.0508 191.844 35.2617 191.844 34.1758C191.844 33.457 192 32.8555 192.312 32.3711C192.625 31.8789 192.781 31.3867 192.781 30.8945C192.781 30.4648 192.273 30.25 191.258 30.25V27.9062C194.07 27.9062 195.477 28.6484 195.477 30.1328C195.477 30.6562 195.32 31.2812 195.008 32.0078C194.695 32.7266 194.539 33.2695 194.539 33.6367C194.539 34.043 194.699 34.3633 195.02 34.5977C195.348 34.8242 195.996 34.9375 196.965 34.9375C197.801 34.9375 198.426 34.8164 198.84 34.5742C198.316 34.1445 198.055 33.6406 198.055 33.0625C198.055 31.9688 198.914 31.4219 200.633 31.4219C202.43 31.4219 203.328 32.0859 203.328 33.4141C203.328 34 202.961 34.5781 202.227 35.1484C203.742 36.25 204.5 37.3516 204.5 38.4531V49H201.359L198.172 45.8125L194.984 49H191.844V43.7969C191.25 43.75 190.809 43.5195 190.52 43.1055C190.23 42.6836 190.086 42.0117 190.086 41.0898C190.086 40.168 190.23 39.5 190.52 39.0859C190.809 38.6641 191.445 38.4531 192.43 38.4531C193.414 38.4531 194.051 38.6641 194.34 39.0859C194.629 39.5 194.773 40.168 194.773 41.0898V45.9414ZM200.609 34.0117L200.973 33.7539C201.105 33.6445 201.172 33.5391 201.172 33.4375C201.172 33.1953 201.008 33.0742 200.68 33.0742C200.367 33.0742 200.211 33.1719 200.211 33.3672C200.211 33.4766 200.258 33.5703 200.352 33.6484L200.609 34.0117ZM220.672 37.75C220.484 37.75 220.359 37.793 220.297 37.8789C220.234 37.957 220.203 38.0469 220.203 38.1484C220.203 38.25 220.23 38.332 220.285 38.3945C220.348 38.4805 220.477 38.5234 220.672 38.5234V37.75ZM210.359 36.1094C210.359 35.4844 210.164 34.8594 209.773 34.2344V33.7656C209.773 32.2031 210.711 31.4219 212.586 31.4219H216.359L219.055 32.5938H219.734C219.969 32.5938 220.086 32.5156 220.086 32.3594V29.6641H223.016V32.3594C223.016 34.0781 222.195 34.9375 220.555 34.9375H218.188L215.492 33.7656H213.406C212.938 33.7656 212.703 33.8438 212.703 34C213.094 34.625 213.289 35.3281 213.289 36.1094V45.4141L216.688 42.5312L220.086 45.4141V40.1758C219.461 40.1523 218.977 39.9141 218.633 39.4609C218.352 39.1172 218.211 38.6836 218.211 38.1602C218.211 37.6367 218.379 37.1641 218.715 36.7422C219.051 36.3203 219.703 36.1094 220.672 36.1094C221.562 36.1094 222.176 36.3203 222.512 36.7422C222.848 37.1641 223.016 37.6367 223.016 38.1602V49H220.086L216.688 45.7422L212.891 49H210.359V36.1094ZM213.43 53.5703C213.43 54.4453 213.621 54.8828 214.004 54.8828C214.223 54.8828 214.512 54.8008 214.871 54.6367V56.2773C214.621 56.5039 214.098 56.6172 213.301 56.6172C211.73 56.6172 210.945 55.6016 210.945 53.5703C210.945 51.3047 211.98 50.1719 214.051 50.1719C215.816 50.1719 217.027 50.8555 217.684 52.2227C218.34 53.5898 218.961 54.2734 219.547 54.2734C220.141 54.2734 220.785 52.9062 221.48 50.1719L223.602 50.6406C222.547 54.625 221.195 56.6172 219.547 56.6172C218.281 56.6172 217.324 55.9336 216.676 54.5664C216.02 53.1992 215.223 52.5156 214.285 52.5156C213.715 52.5156 213.43 52.8672 213.43 53.5703ZM223.016 31.4219H225.828C229.812 31.4219 231.805 32.9844 231.805 36.1094V49H228.875V36.1094C228.875 34.5469 227.859 33.7656 225.828 33.7656H223.016V31.4219ZM240.594 49H237.664V40.7969C237.664 36.8906 239.773 34.9375 243.992 34.9375C248.211 34.9375 250.32 36.8906 250.32 40.7969V49H247.391V40.7969C247.391 38.4531 246.258 37.2812 243.992 37.2812C241.727 37.2812 240.594 38.4531 240.594 40.7969V49ZM250.32 31.4219V33.7656H237.664V31.4219H250.32ZM256.18 36.1094C256.18 35.4844 255.984 34.8594 255.594 34.2344V33.7656C255.594 32.2031 256.531 31.4219 258.406 31.4219H262.18L264.875 32.5938H265.555C265.789 32.5938 265.906 32.5156 265.906 32.3594V29.6641H268.836V32.3594C268.836 34.0781 268.016 34.9375 266.375 34.9375H264.008L261.312 33.7656H259.227C258.758 33.7656 258.523 33.8438 258.523 34C258.914 34.625 259.109 35.3281 259.109 36.1094V45.4141L262.508 42.5312L265.906 45.4141V36.1094H268.836V49H266.305L262.508 45.7422L258.711 49H256.18V36.1094ZM264.734 53.6875C264.734 54.2344 264.93 54.5078 265.32 54.5078C265.711 54.5078 265.906 54.2344 265.906 53.6875V50.1719H268.836V53.6875C268.836 55.6406 267.762 56.6172 265.613 56.6172C263.465 56.6172 262.391 55.6406 262.391 53.6875V50.1719H264.734V53.6875ZM287.352 41.3477V44.3125C287.352 47.4375 286.102 49 283.602 49C281.75 49 280.438 48.5117 279.664 47.5352C278.891 46.5586 278.211 46.0703 277.625 46.0703V49H274.695V41.9688H277.625V43.7266C278.914 43.7266 279.984 44.2148 280.836 45.1914C281.695 46.168 282.449 46.6562 283.098 46.6562C283.98 46.6562 284.422 45.875 284.422 44.3125V43.0586C277.938 41.6523 274.695 39.3359 274.695 36.1094C274.695 32.9844 276.805 31.4219 281.023 31.4219C285.242 31.4219 287.352 32.9844 287.352 36.1094C287.352 38.2891 286.109 39.3789 283.625 39.3789C282.945 39.3789 282.391 39.2188 281.961 38.8984V36.5195C282.914 36.8008 283.523 36.9414 283.789 36.9414C284.211 36.9414 284.422 36.6641 284.422 36.1094C284.422 34.5469 283.289 33.7656 281.023 33.7656C278.758 33.7656 277.625 34.5469 277.625 36.1094C277.625 38.1172 280.867 39.8633 287.352 41.3477ZM293.211 36.6953H296.141V45.3555L299.539 42.2734L302.938 45.3555V36.6953H305.867V49H303.336L299.539 45.7422L295.742 49H293.211V36.6953ZM296.141 33.2852C296.141 33.4492 297.273 33.5312 299.539 33.5312C301.805 33.5312 302.938 32.8281 302.938 31.4219V29.6641H305.867V31.4219C305.867 34.3906 303.758 35.875 299.539 35.875C295.32 35.875 293.211 35.0156 293.211 33.2969C293.211 32.0469 294.016 31.4219 295.625 31.4219C296.633 31.4219 297.352 31.582 297.781 31.9023V33.2266C296.828 33.1016 296.316 33.0391 296.246 33.0391C296.176 33.0391 296.141 33.1211 296.141 33.2852ZM298.777 25.2695C298.777 25.4648 298.828 25.6094 298.93 25.7031C299.023 25.8047 299.168 25.8555 299.363 25.8555C299.559 25.8555 299.707 25.8047 299.809 25.7031C299.902 25.6094 299.949 25.4648 299.949 25.2695C299.949 25.0742 299.902 24.9297 299.809 24.8359C299.707 24.7344 299.559 24.6836 299.363 24.6836C299.168 24.6836 299.023 24.7344 298.93 24.8359C298.828 24.9297 298.777 25.0742 298.777 25.2695ZM302 25.2695C302 26.1523 301.781 26.8125 301.344 27.25C300.906 27.6875 300.246 27.9062 299.363 27.9062C298.48 27.9062 297.82 27.6875 297.383 27.25C296.945 26.8125 296.727 26.1523 296.727 25.2695C296.727 24.3867 296.945 23.7266 297.383 23.2891C297.82 22.8516 298.48 22.6328 299.363 22.6328C300.246 22.6328 300.906 22.8516 301.344 23.2891C301.781 23.7266 302 24.3867 302 25.2695ZM314.07 46.9961C314.312 46.9961 314.469 46.9453 314.539 46.8438C314.617 46.7344 314.656 46.5664 314.656 46.3398C314.656 46.1055 314.617 45.9375 314.539 45.8359C314.469 45.7344 314.312 45.6758 314.07 45.6602V46.9961ZM311.727 37.2812C311.727 33.375 313.516 31.4219 317.094 31.4219C320.664 31.4219 322.449 33.375 322.449 37.2812V45.3086L325.086 41.8281L327.723 45.3086V37.2812C327.723 33.375 329.512 31.4219 333.09 31.4219C336.66 31.4219 338.445 33.375 338.445 37.2812V49H335.516V37.2812C335.516 34.9375 334.707 33.7656 333.09 33.7656C331.465 33.7656 330.652 34.9375 330.652 37.2812V49H327.219L325.086 46.0117L322.953 49H319.52V37.2812C319.52 34.9375 318.711 33.7656 317.094 33.7656C315.469 33.7656 314.656 34.9375 314.656 37.2812V43.6562C315.25 43.7031 315.691 43.9375 315.98 44.3594C316.27 44.7734 316.414 45.4414 316.414 46.3633C316.414 47.1289 316.211 47.7617 315.805 48.2617C315.398 48.7539 314.82 49 314.07 49C313.32 49 312.742 48.7734 312.336 48.3203C311.93 47.8594 311.727 47.207 311.727 46.3633V37.2812ZM336.57 23.1016C336.508 23.1016 336.453 23.1211 336.406 23.1602C336.359 23.1992 336.336 23.2578 336.336 23.3359C336.336 23.3984 336.359 23.4531 336.406 23.5C336.453 23.5469 336.508 23.5703 336.57 23.5703C336.648 23.5703 336.707 23.5469 336.746 23.5C336.785 23.4531 336.805 23.3984 336.805 23.3359C336.805 23.2578 336.785 23.1992 336.746 23.1602C336.707 23.1211 336.648 23.1016 336.57 23.1016ZM329.656 25.6211C329.656 26.0508 330.047 26.2656 330.828 26.2656H336.102C334.547 25.4062 333.18 24.9766 332 24.9766C330.438 24.9766 329.656 25.1914 329.656 25.6211ZM334.695 23.1953C334.727 22.6875 334.895 22.2812 335.199 21.9766C335.543 21.6328 336 21.4609 336.57 21.4609C337.141 21.4609 337.598 21.6328 337.941 21.9766C338.277 22.3125 338.445 22.7656 338.445 23.3359C338.445 23.9062 338.277 24.3594 337.941 24.6953C337.785 24.8516 337.613 24.9727 337.426 25.0586C338.105 25.668 338.445 26.1094 338.445 26.3828V27.9062H330.242C328.289 27.9062 327.312 27.125 327.312 25.5625C327.312 23.6094 328.875 22.6328 332 22.6328C332.938 22.6328 333.836 22.8203 334.695 23.1953ZM344.891 40.457C344.648 40.457 344.488 40.5117 344.41 40.6211C344.34 40.7227 344.305 40.8867 344.305 41.1133C344.305 41.3477 344.34 41.5156 344.41 41.6172C344.488 41.7188 344.648 41.7773 344.891 41.793V40.457ZM347.234 45.9414L350.633 42.8594L354.031 45.9414V39.0391C354.031 38.1016 353.574 37.293 352.66 36.6133C352.199 37.0586 351.094 37.2812 349.344 37.2812C347.469 37.2812 346.16 37.0352 345.418 36.543C344.676 36.0508 344.305 35.2617 344.305 34.1758C344.305 33.457 344.461 32.8555 344.773 32.3711C345.086 31.8789 345.242 31.3867 345.242 30.8945C345.242 30.4648 344.734 30.25 343.719 30.25V27.9062C346.531 27.9062 347.938 28.6484 347.938 30.1328C347.938 30.6562 347.781 31.2812 347.469 32.0078C347.156 32.7266 347 33.2695 347 33.6367C347 34.043 347.16 34.3633 347.48 34.5977C347.809 34.8242 348.457 34.9375 349.426 34.9375C350.262 34.9375 350.887 34.8164 351.301 34.5742C350.777 34.1445 350.516 33.6406 350.516 33.0625C350.516 31.9688 351.375 31.4219 353.094 31.4219C354.891 31.4219 355.789 32.0859 355.789 33.4141C355.789 34 355.422 34.5781 354.688 35.1484C356.203 36.25 356.961 37.3516 356.961 38.4531V49H353.82L350.633 45.8125L347.445 49H344.305V43.7969C343.711 43.75 343.27 43.5195 342.98 43.1055C342.691 42.6836 342.547 42.0117 342.547 41.0898C342.547 40.168 342.691 39.5 342.98 39.0859C343.27 38.6641 343.906 38.4531 344.891 38.4531C345.875 38.4531 346.512 38.6641 346.801 39.0859C347.09 39.5 347.234 40.168 347.234 41.0898V45.9414ZM353.07 34.0117L353.434 33.7539C353.566 33.6445 353.633 33.5391 353.633 33.4375C353.633 33.1953 353.469 33.0742 353.141 33.0742C352.828 33.0742 352.672 33.1719 352.672 33.3672C352.672 33.4766 352.719 33.5703 352.812 33.6484L353.07 34.0117Z" fill="#344054"/>
<path fill-rule="evenodd" clip-rule="evenodd" d="M616.485 32.4852C616.673 32.2976 616.927 32.1923 617.192 32.1923C617.458 32.1923 617.712 32.2976 617.899 32.4852L624.971 39.5562L632.042 32.4852C632.229 32.2976 632.484 32.1923 632.749 32.1923C633.014 32.1923 633.268 32.2976 633.456 32.4852C633.643 32.6727 633.749 32.9271 633.749 33.1923C633.749 33.4575 633.643 33.7119 633.456 33.8994L626.385 40.9705L633.456 48.0415C633.643 48.2291 633.749 48.4834 633.749 48.7486C633.749 49.0138 633.643 49.2682 633.456 49.4557C633.268 49.6433 633.014 49.7486 632.749 49.7486C632.484 49.7486 632.229 49.6433 632.042 49.4557L624.971 42.3847L617.899 49.4557C617.712 49.6433 617.458 49.7486 617.192 49.7486C616.927 49.7486 616.673 49.6433 616.485 49.4557C616.298 49.2682 616.192 49.0139 616.192 48.7486C616.192 48.4834 616.298 48.2291 616.485 48.0415L623.556 40.9705L616.485 33.8994C616.298 33.7119 616.192 33.4575 616.192 33.1923C616.192 32.9271 616.298 32.6727 616.485 32.4852Z" fill="#344054"/>
<rect x="21" y="81" width="644" height="1" fill="#98A2B3"/>
<path d="M46.9531 125.828V124.656H46.7578C46.7005 124.656 46.6536 124.682 46.6172 124.734C46.5807 124.781 46.5625 124.951 46.5625 125.242C46.5625 125.534 46.5807 125.706 46.6172 125.758C46.6536 125.805 46.7005 125.828 46.7578 125.828H46.9531ZM53.4375 125.828V124.656H53.2422C53.1849 124.656 53.138 124.682 53.1016 124.734C53.0651 124.781 53.0469 124.951 53.0469 125.242C53.0469 125.534 53.0651 125.706 53.1016 125.758C53.138 125.805 53.1849 125.828 53.2422 125.828H53.4375ZM48.2812 121.531V125.242C48.2812 125.909 48.1927 126.37 48.0156 126.625C47.8438 126.875 47.5156 127 47.0312 127C46.5469 127 46.2161 126.875 46.0391 126.625C45.8672 126.37 45.7812 125.909 45.7812 125.242C45.7812 124.576 45.8672 124.117 46.0391 123.867C46.2161 123.612 46.4557 123.484 46.7578 123.484C46.8255 123.484 46.8906 123.49 46.9531 123.5V118.406C46.849 118.042 46.5885 117.651 46.1719 117.234V116.453C46.1719 115.672 46.5625 115.281 47.3438 115.281H48.6719V116.453H47.7344C47.474 116.453 47.3438 116.583 47.3438 116.844C47.9688 117.26 48.2812 117.781 48.2812 118.406V120.359H53.4375V118.406C53.3333 118.042 53.0729 117.651 52.6562 117.234V116.453C52.6562 115.672 53.0469 115.281 53.8281 115.281H55.1562V116.453H54.2188C53.9583 116.453 53.8281 116.583 53.8281 116.844C54.4531 117.26 54.7656 117.781 54.7656 118.406V125.242C54.7656 125.909 54.6771 126.37 54.5 126.625C54.3281 126.875 54 127 53.5156 127C53.0312 127 52.7005 126.875 52.5234 126.625C52.3516 126.37 52.2656 125.909 52.2656 125.242C52.2656 124.576 52.3516 124.117 52.5234 123.867C52.7005 123.612 52.9401 123.484 53.2422 123.484C53.3099 123.484 53.375 123.49 53.4375 123.5V121.531H48.2812ZM52.9766 129.109H49.2969C49.0365 129.109 48.9062 129.188 48.9062 129.344C48.9062 129.5 49.0365 129.578 49.2969 129.578H52.9766V129.109ZM54.2266 130.984C54.3828 130.984 54.487 130.964 54.5391 130.922C54.5911 130.885 54.6172 130.839 54.6172 130.781C54.6172 130.724 54.5859 130.68 54.5234 130.648C54.4557 130.622 54.3568 130.604 54.2266 130.594H53.9922C53.9922 130.854 54.0703 130.984 54.2266 130.984ZM53.9922 128.094H55.1562V129.109H53.9922V129.578H54.4844C54.8594 129.578 55.1328 129.669 55.3047 129.852C55.4714 130.034 55.5547 130.299 55.5547 130.648C55.5547 131.107 55.4635 131.419 55.2812 131.586C55.099 131.758 54.7734 131.844 54.3047 131.844C53.4193 131.844 52.9766 131.466 52.9766 130.711V130.594H48.9062C48.125 130.594 47.7344 130.177 47.7344 129.344C47.7396 128.51 48.1328 128.094 48.9141 128.094H52.9766V127.391H53.9922V128.094ZM60 127H58.6719V121.531C58.6719 118.927 59.974 117.625 62.5781 117.625C65.1823 117.625 66.4844 118.927 66.4844 121.531V127H65.1562V121.531C65.1562 119.708 64.2969 118.797 62.5781 118.797C60.8594 118.797 60 119.708 60 121.531V127ZM66.4844 115.281V116.453H58.6719V115.281H66.4844ZM71.7188 127H70.3906V121.531C70.3906 118.927 71.6927 117.625 74.2969 117.625C76.901 117.625 78.2031 118.927 78.2031 121.531V127H76.875V121.531C76.875 119.708 76.0156 118.797 74.2969 118.797C72.5781 118.797 71.7188 119.708 71.7188 121.531V127ZM78.2031 115.281V116.453H70.3906V115.281H78.2031ZM73.9062 111.18C73.9062 111.372 73.9557 111.518 74.0547 111.617C74.1536 111.716 74.2995 111.766 74.4922 111.766C74.6901 111.766 74.8385 111.716 74.9375 111.617C75.0312 111.518 75.0781 111.372 75.0781 111.18C75.0781 110.982 75.0312 110.836 74.9375 110.742C74.8385 110.643 74.6901 110.594 74.4922 110.594C74.2995 110.594 74.1536 110.643 74.0547 110.742C73.9557 110.836 73.9062 110.982 73.9062 111.18ZM76.25 111.18C76.25 111.768 76.1042 112.208 75.8125 112.5C75.5208 112.792 75.0807 112.938 74.4922 112.938C73.9036 112.938 73.4635 112.792 73.1719 112.5C72.8802 112.208 72.7344 111.768 72.7344 111.18C72.7344 110.591 72.8802 110.151 73.1719 109.859C73.4635 109.568 73.9036 109.422 74.4922 109.422C75.0807 109.422 75.5208 109.568 75.8125 109.859C76.1042 110.151 76.25 110.591 76.25 111.18ZM83.2812 124.656V125.828C83.3906 125.828 83.4818 125.799 83.5547 125.742C83.6328 125.68 83.6719 125.513 83.6719 125.242C83.6719 124.971 83.6328 124.807 83.5547 124.75C83.4818 124.688 83.3906 124.656 83.2812 124.656ZM82.1094 117.625L84.1406 115.281L86.0156 116.844L87.8906 115.281L89.9219 117.625V127H88.5938V117.938L87.8125 116.961L86.0156 118.25L84.2188 116.961L83.4375 117.938V123.562C83.5573 123.51 83.6953 123.484 83.8516 123.484C84.0078 123.484 84.1719 123.625 84.3438 123.906C84.5208 124.182 84.6094 124.628 84.6094 125.242C84.6094 125.857 84.4948 126.305 84.2656 126.586C84.0417 126.862 83.7396 127 83.3594 127C82.9792 127 82.6771 126.859 82.4531 126.578C82.276 126.365 82.1667 126.049 82.125 125.633H82.1094V117.625ZM89.9219 127.781V132.078H88.5938V127.781H89.9219ZM99.6875 116.469C99.6875 116.312 99.5833 116.234 99.375 116.234C99.1667 116.234 99.0625 116.312 99.0625 116.469C99.0625 116.609 99.1667 116.75 99.375 116.891C99.5833 116.781 99.6875 116.641 99.6875 116.469ZM93.6328 120.359C93.5755 120.359 93.5286 120.385 93.4922 120.438C93.4557 120.484 93.4375 120.654 93.4375 120.945C93.4375 121.237 93.4557 121.409 93.4922 121.461C93.5286 121.508 93.5755 121.531 93.6328 121.531H93.8281V120.359H93.6328ZM95.1562 125.438L97.7344 123.094L100.312 125.438V119.969C100.312 119.406 99.8906 118.81 99.0469 118.18C98.6198 118.591 97.8958 118.797 96.875 118.797C95.7396 118.797 94.9479 118.648 94.5 118.352C94.0521 118.055 93.8281 117.643 93.8281 117.117C93.8281 116.596 93.9323 116.109 94.1406 115.656C94.349 115.198 94.4531 114.826 94.4531 114.539C94.4531 114.253 94.1146 114.109 93.4375 114.109V112.938C94.8958 112.938 95.625 113.432 95.625 114.422C95.625 114.812 95.5208 115.25 95.3125 115.734C95.1042 116.214 95 116.555 95 116.758C95 116.966 95.1302 117.164 95.3906 117.352C95.651 117.534 96.1641 117.625 96.9297 117.625C97.5911 117.625 98.0677 117.539 98.3594 117.367C98.099 117.154 97.9688 116.823 97.9688 116.375C97.9688 115.646 98.4375 115.281 99.375 115.281C100.365 115.281 100.859 115.724 100.859 116.609C100.859 117.062 100.656 117.448 100.25 117.766C101.177 118.438 101.641 119.172 101.641 119.969V127H100.078L97.7344 124.656L95.3906 127H93.8281V122.688C93.7656 122.698 93.7005 122.703 93.6328 122.703C93.3307 122.703 93.0911 122.578 92.9141 122.328C92.7422 122.073 92.6562 121.612 92.6562 120.945C92.6562 120.279 92.7422 119.82 92.9141 119.57C93.0911 119.315 93.4219 119.188 93.9062 119.188C94.3906 119.188 94.7188 119.315 94.8906 119.57C95.0677 119.82 95.1562 120.279 95.1562 120.945V125.438ZM105.547 125.828V124.656H105.352C105.294 124.656 105.247 124.682 105.211 124.734C105.174 124.781 105.156 124.951 105.156 125.242C105.156 125.534 105.174 125.706 105.211 125.758C105.247 125.805 105.294 125.828 105.352 125.828H105.547ZM112.031 125.828V124.656H111.836C111.779 124.656 111.732 124.682 111.695 124.734C111.659 124.781 111.641 124.951 111.641 125.242C111.641 125.534 111.659 125.706 111.695 125.758C111.732 125.805 111.779 125.828 111.836 125.828H112.031ZM106.875 121.531V125.242C106.875 125.909 106.786 126.37 106.609 126.625C106.438 126.875 106.109 127 105.625 127C105.141 127 104.81 126.875 104.633 126.625C104.461 126.37 104.375 125.909 104.375 125.242C104.375 124.576 104.461 124.117 104.633 123.867C104.81 123.612 105.049 123.484 105.352 123.484C105.419 123.484 105.484 123.49 105.547 123.5V118.406C105.443 118.042 105.182 117.651 104.766 117.234V116.453C104.766 115.672 105.156 115.281 105.938 115.281H107.266V116.453H106.328C106.068 116.453 105.938 116.583 105.938 116.844C106.562 117.26 106.875 117.781 106.875 118.406V120.359H112.031V118.406C111.927 118.042 111.667 117.651 111.25 117.234V116.453C111.25 115.672 111.641 115.281 112.422 115.281H113.75V116.453H112.812C112.552 116.453 112.422 116.583 112.422 116.844C113.047 117.26 113.359 117.781 113.359 118.406V125.242C113.359 125.909 113.271 126.37 113.094 126.625C112.922 126.875 112.594 127 112.109 127C111.625 127 111.294 126.875 111.117 126.625C110.945 126.37 110.859 125.909 110.859 125.242C110.859 124.576 110.945 124.117 111.117 123.867C111.294 123.612 111.534 123.484 111.836 123.484C111.904 123.484 111.969 123.49 112.031 123.5V121.531H106.875ZM113.359 115.281H114.922C117.005 115.281 118.047 116.323 118.047 118.406V127H116.719V118.406C116.719 117.104 116.12 116.453 114.922 116.453H113.359V115.281ZM129.766 122.234V123.875C129.766 125.958 129.036 127 127.578 127C126.505 127 125.711 126.674 125.195 126.023C124.68 125.372 124.042 125.047 123.281 125.047V127H121.953V122.312H123.281V123.875C124.193 123.875 124.932 124.201 125.5 124.852C126.073 125.503 126.654 125.828 127.242 125.828C128.039 125.828 128.438 125.177 128.438 123.875V123.094C124.115 122.156 121.953 120.594 121.953 118.406C121.953 116.323 123.255 115.281 125.859 115.281C128.464 115.281 129.766 116.323 129.766 118.406C129.766 119.859 129.042 120.586 127.594 120.586C127.266 120.586 127 120.51 126.797 120.359V119.188C127.167 119.297 127.469 119.352 127.703 119.352C128.193 119.352 128.438 119.036 128.438 118.406C128.438 117.104 127.578 116.453 125.859 116.453C124.141 116.453 123.281 117.104 123.281 118.406C123.281 119.969 125.443 121.245 129.766 122.234ZM133.672 125.828V124.656H133.477C133.419 124.656 133.372 124.682 133.336 124.734C133.299 124.781 133.281 124.951 133.281 125.242C133.281 125.534 133.299 125.706 133.336 125.758C133.372 125.805 133.419 125.828 133.477 125.828H133.672ZM140.156 125.828V124.656H139.961C139.904 124.656 139.857 124.682 139.82 124.734C139.784 124.781 139.766 124.951 139.766 125.242C139.766 125.534 139.784 125.706 139.82 125.758C139.857 125.805 139.904 125.828 139.961 125.828H140.156ZM135 121.531V125.242C135 125.909 134.911 126.37 134.734 126.625C134.562 126.875 134.234 127 133.75 127C133.266 127 132.935 126.875 132.758 126.625C132.586 126.37 132.5 125.909 132.5 125.242C132.5 124.576 132.586 124.117 132.758 123.867C132.935 123.612 133.174 123.484 133.477 123.484C133.544 123.484 133.609 123.49 133.672 123.5V118.406C133.568 118.042 133.307 117.651 132.891 117.234V116.453C132.891 115.672 133.281 115.281 134.062 115.281H135.391V116.453H134.453C134.193 116.453 134.062 116.583 134.062 116.844C134.688 117.26 135 117.781 135 118.406V120.359H140.156V118.406C140.052 118.042 139.792 117.651 139.375 117.234V116.453C139.375 115.672 139.766 115.281 140.547 115.281H141.875V116.453H140.938C140.677 116.453 140.547 116.583 140.547 116.844C141.172 117.26 141.484 117.781 141.484 118.406V125.242C141.484 125.909 141.396 126.37 141.219 126.625C141.047 126.875 140.719 127 140.234 127C139.75 127 139.419 126.875 139.242 126.625C139.07 126.37 138.984 125.909 138.984 125.242C138.984 124.576 139.07 124.117 139.242 123.867C139.419 123.612 139.659 123.484 139.961 123.484C140.029 123.484 140.094 123.49 140.156 123.5V121.531H135ZM146.562 124.656V125.828C146.672 125.828 146.763 125.799 146.836 125.742C146.914 125.68 146.953 125.513 146.953 125.242C146.953 124.971 146.914 124.807 146.836 124.75C146.763 124.688 146.672 124.656 146.562 124.656ZM153.203 115.281V116.453H145.391V115.281H153.203ZM145.391 121.531C145.391 118.927 146.693 117.625 149.297 117.625C151.901 117.625 153.203 118.927 153.203 121.531V127H151.875V121.531C151.875 119.708 151.016 118.797 149.297 118.797C147.578 118.797 146.719 119.708 146.719 121.531V123.562C146.839 123.51 146.977 123.484 147.133 123.484C147.289 123.484 147.453 123.625 147.625 123.906C147.802 124.182 147.891 124.628 147.891 125.242C147.891 125.857 147.776 126.305 147.547 126.586C147.323 126.862 147.021 127 146.641 127C146.26 127 145.958 126.859 145.734 126.578C145.557 126.365 145.448 126.049 145.406 125.633H145.391V121.531ZM146.953 130.047C146.953 130.682 147.12 131 147.453 131C147.635 131 147.885 130.945 148.203 130.836V131.852C148.052 132.003 147.786 132.078 147.406 132.078C146.323 132.078 145.781 131.401 145.781 130.047C145.781 128.536 146.497 127.781 147.93 127.781C148.867 127.781 149.591 128.172 150.102 128.953C150.607 129.734 151.029 130.255 151.367 130.516C151.706 130.776 152.188 130.906 152.812 130.906V132.078C152.031 132.078 151.419 131.909 150.977 131.57C150.534 131.232 150.086 130.711 149.633 130.008C149.174 129.305 148.607 128.953 147.93 128.953C147.279 128.953 146.953 129.318 146.953 130.047ZM163.594 118.406C163.594 118.042 163.333 117.651 162.812 117.234V116.453C162.812 115.672 163.203 115.281 163.984 115.281H165.312V116.453H164.375C164.115 116.453 163.984 116.583 163.984 116.844C164.609 117.26 164.922 117.781 164.922 118.406V123.094C164.922 125.698 163.62 127 161.016 127C158.411 127 157.109 125.698 157.109 123.094V118.406C157.109 118.042 156.849 117.651 156.328 117.234V116.453C156.328 115.672 156.719 115.281 157.5 115.281H158.828V116.453H157.891C157.63 116.453 157.5 116.583 157.5 116.844C158.125 117.26 158.438 117.781 158.438 118.406V123.094C158.438 124.917 159.297 125.828 161.016 125.828C162.734 125.828 163.594 124.917 163.594 123.094V118.406ZM175.547 122.383C175.583 122.393 175.62 122.398 175.656 122.398C175.792 122.398 175.859 122.292 175.859 122.078C175.859 121.87 175.807 121.766 175.703 121.766C175.599 121.766 175.547 121.867 175.547 122.07V122.383ZM175.547 123.086V123.875C175.547 125.958 174.609 127 172.734 127C170.859 127 169.922 125.958 169.922 123.875V122.312H171.25V123.875C171.25 125.177 171.745 125.828 172.734 125.828C173.724 125.828 174.219 125.177 174.219 123.875V122.898C170.625 121.862 168.828 120.365 168.828 118.406C168.828 116.323 170.13 115.281 172.734 115.281C175.339 115.281 176.641 116.323 176.641 118.406C176.641 119.859 175.917 120.586 174.469 120.586C174.141 120.586 173.875 120.51 173.672 120.359V119.188C174.042 119.297 174.344 119.352 174.578 119.352C175.068 119.352 175.312 119.036 175.312 118.406C175.312 117.104 174.453 116.453 172.734 116.453C171.016 116.453 170.156 117.104 170.156 118.406C170.156 120.016 171.51 121.148 174.219 121.805C174.219 121.31 174.583 121.062 175.312 121.062C176.198 121.062 176.641 121.388 176.641 122.039C176.641 122.43 176.552 122.706 176.375 122.867C176.198 123.029 176.008 123.109 175.805 123.109C175.721 123.109 175.635 123.102 175.547 123.086ZM182.07 125.828C182.128 125.828 182.174 125.805 182.211 125.758C182.247 125.706 182.266 125.534 182.266 125.242C182.266 124.951 182.247 124.781 182.211 124.734C182.174 124.682 182.128 124.656 182.07 124.656H181.875V125.828H182.07ZM181.875 123.5C181.938 123.49 182.003 123.484 182.07 123.484C182.372 123.484 182.609 123.612 182.781 123.867C182.958 124.117 183.047 124.576 183.047 125.242C183.047 125.909 182.958 126.37 182.781 126.625C182.609 126.875 182.281 127 181.797 127C181.312 127 180.982 126.875 180.805 126.625C180.633 126.37 180.547 125.909 180.547 125.242V118.406C180.443 118.042 180.182 117.651 179.766 117.234V116.453C179.766 115.672 180.156 115.281 180.938 115.281H182.266V116.453H181.328C181.068 116.453 180.938 116.583 180.938 116.844C181.562 117.26 181.875 117.781 181.875 118.406V123.5ZM193.594 122.234V123.875C193.594 125.958 192.865 127 191.406 127C190.333 127 189.539 126.674 189.023 126.023C188.508 125.372 187.87 125.047 187.109 125.047V127H185.781V122.312H187.109V123.875C188.021 123.875 188.76 124.201 189.328 124.852C189.901 125.503 190.482 125.828 191.07 125.828C191.867 125.828 192.266 125.177 192.266 123.875V123.094C187.943 122.156 185.781 120.594 185.781 118.406C185.781 116.323 187.083 115.281 189.688 115.281C192.292 115.281 193.594 116.323 193.594 118.406C193.594 119.859 192.87 120.586 191.422 120.586C191.094 120.586 190.828 120.51 190.625 120.359V119.188C190.995 119.297 191.297 119.352 191.531 119.352C192.021 119.352 192.266 119.036 192.266 118.406C192.266 117.104 191.406 116.453 189.688 116.453C187.969 116.453 187.109 117.104 187.109 118.406C187.109 119.969 189.271 121.245 193.594 122.234ZM198.672 117.43C198.672 117.622 198.721 117.768 198.82 117.867C198.919 117.966 199.065 118.016 199.258 118.016C199.456 118.016 199.602 117.966 199.695 117.867C199.794 117.768 199.844 117.622 199.844 117.43C199.844 117.232 199.794 117.086 199.695 116.992C199.602 116.893 199.456 116.844 199.258 116.844C199.065 116.844 198.919 116.893 198.82 116.992C198.721 117.086 198.672 117.232 198.672 117.43ZM201.016 117.43C201.016 118.018 200.87 118.458 200.578 118.75C200.286 119.042 199.846 119.188 199.258 119.188C198.669 119.188 198.229 119.042 197.938 118.75C197.646 118.458 197.5 118.018 197.5 117.43C197.5 116.841 197.646 116.401 197.938 116.109C198.229 115.818 198.669 115.672 199.258 115.672C199.846 115.672 200.286 115.818 200.578 116.109C200.87 116.401 201.016 116.841 201.016 117.43ZM198.672 124.852C198.672 125.044 198.721 125.19 198.82 125.289C198.919 125.388 199.065 125.438 199.258 125.438C199.456 125.438 199.602 125.388 199.695 125.289C199.794 125.19 199.844 125.044 199.844 124.852C199.844 124.654 199.794 124.508 199.695 124.414C199.602 124.315 199.456 124.266 199.258 124.266C199.065 124.266 198.919 124.315 198.82 124.414C198.721 124.508 198.672 124.654 198.672 124.852ZM201.016 124.852C201.016 125.44 200.87 125.88 200.578 126.172C200.286 126.464 199.846 126.609 199.258 126.609C198.669 126.609 198.229 126.464 197.938 126.172C197.646 125.88 197.5 125.44 197.5 124.852C197.5 124.263 197.646 123.823 197.938 123.531C198.229 123.24 198.669 123.094 199.258 123.094C199.846 123.094 200.286 123.24 200.578 123.531C200.87 123.823 201.016 124.263 201.016 124.852ZM206.25 127H204.922V121.531C204.922 118.927 206.224 117.625 208.828 117.625C211.432 117.625 212.734 118.927 212.734 121.531V127H211.406V121.531C211.406 119.708 210.547 118.797 208.828 118.797C207.109 118.797 206.25 119.708 206.25 121.531V127ZM212.734 115.281V116.453H204.922V115.281H212.734ZM210.945 129.109H207.266C207.005 129.109 206.875 129.188 206.875 129.344C206.875 129.5 207.005 129.578 207.266 129.578H210.945V129.109ZM212.195 130.984C212.352 130.984 212.456 130.964 212.508 130.922C212.56 130.885 212.586 130.839 212.586 130.781C212.586 130.724 212.555 130.68 212.492 130.648C212.424 130.622 212.326 130.604 212.195 130.594H211.961C211.961 130.854 212.039 130.984 212.195 130.984ZM211.961 128.094H213.125V129.109H211.961V129.578H212.453C212.828 129.578 213.102 129.669 213.273 129.852C213.44 130.034 213.523 130.299 213.523 130.648C213.523 131.107 213.432 131.419 213.25 131.586C213.068 131.758 212.742 131.844 212.273 131.844C211.388 131.844 210.945 131.466 210.945 130.711V130.594H206.875C206.094 130.594 205.703 130.177 205.703 129.344C205.708 128.51 206.102 128.094 206.883 128.094H210.945V127.391H211.961V128.094ZM212.734 132.469V136.375H211.406V132.469H212.734ZM222.5 116.469C222.5 116.312 222.396 116.234 222.188 116.234C221.979 116.234 221.875 116.312 221.875 116.469C221.875 116.609 221.979 116.75 222.188 116.891C222.396 116.781 222.5 116.641 222.5 116.469ZM216.445 120.359C216.388 120.359 216.341 120.385 216.305 120.438C216.268 120.484 216.25 120.654 216.25 120.945C216.25 121.237 216.268 121.409 216.305 121.461C216.341 121.508 216.388 121.531 216.445 121.531H216.641V120.359H216.445ZM217.969 125.438L220.547 123.094L223.125 125.438V119.969C223.125 119.406 222.703 118.81 221.859 118.18C221.432 118.591 220.708 118.797 219.688 118.797C218.552 118.797 217.76 118.648 217.312 118.352C216.865 118.055 216.641 117.643 216.641 117.117C216.641 116.596 216.745 116.109 216.953 115.656C217.161 115.198 217.266 114.826 217.266 114.539C217.266 114.253 216.927 114.109 216.25 114.109V112.938C217.708 112.938 218.438 113.432 218.438 114.422C218.438 114.812 218.333 115.25 218.125 115.734C217.917 116.214 217.812 116.555 217.812 116.758C217.812 116.966 217.943 117.164 218.203 117.352C218.464 117.534 218.977 117.625 219.742 117.625C220.404 117.625 220.88 117.539 221.172 117.367C220.911 117.154 220.781 116.823 220.781 116.375C220.781 115.646 221.25 115.281 222.188 115.281C223.177 115.281 223.672 115.724 223.672 116.609C223.672 117.062 223.469 117.448 223.062 117.766C223.99 118.438 224.453 119.172 224.453 119.969V127H222.891L220.547 124.656L218.203 127H216.641V122.688C216.578 122.698 216.513 122.703 216.445 122.703C216.143 122.703 215.904 122.578 215.727 122.328C215.555 122.073 215.469 121.612 215.469 120.945C215.469 120.279 215.555 119.82 215.727 119.57C215.904 119.315 216.234 119.188 216.719 119.188C217.203 119.188 217.531 119.315 217.703 119.57C217.88 119.82 217.969 120.279 217.969 120.945V125.438ZM234.844 119.383C234.734 119.383 234.641 119.417 234.562 119.484C234.49 119.552 234.453 119.648 234.453 119.773C234.453 119.898 234.49 119.995 234.562 120.062C234.641 120.13 234.734 120.164 234.844 120.164V119.383ZM228.359 118.406C228.359 118.042 228.229 117.651 227.969 117.234V116.844C227.969 115.802 228.49 115.281 229.531 115.281H231.875L233.672 116.453H234.297C234.661 116.453 234.844 116.271 234.844 115.906V114.109H236.172V115.906C236.172 117.052 235.729 117.625 234.844 117.625H233.438L231.641 116.453H230.078C229.557 116.453 229.297 116.609 229.297 116.922C229.557 117.339 229.688 117.833 229.688 118.406V125.438L232.266 123.25L234.844 125.438V121.086C234.792 121.091 234.74 121.094 234.688 121.094C234.333 121.094 234.07 120.982 233.898 120.758C233.695 120.508 233.594 120.18 233.594 119.773C233.594 119.367 233.693 119.039 233.891 118.789C234.094 118.534 234.424 118.406 234.883 118.406C235.341 118.406 235.669 118.534 235.867 118.789C236.07 119.039 236.172 119.367 236.172 119.773V127H235L232.266 124.656L229.531 127H228.359V118.406ZM229.922 130.047C229.922 130.839 230.089 131.234 230.422 131.234C230.604 131.234 230.854 131.18 231.172 131.07V131.852C231.021 132.003 230.625 132.078 229.984 132.078C229.161 132.078 228.75 131.401 228.75 130.047C228.75 128.536 229.388 127.781 230.664 127.781C231.758 127.781 232.508 128.302 232.914 129.344C233.315 130.385 233.698 130.906 234.062 130.906C234.427 130.906 234.896 129.865 235.469 127.781L236.562 128.094C235.911 130.75 235.125 132.078 234.203 132.078C233.328 132.078 232.69 131.557 232.289 130.516C231.883 129.474 231.341 128.953 230.664 128.953C230.169 128.953 229.922 129.318 229.922 130.047ZM236.172 115.281H237.734C239.818 115.281 240.859 116.323 240.859 118.406V127H239.531V118.406C239.531 117.104 238.932 116.453 237.734 116.453H236.172V115.281ZM246.094 127H244.766V121.531C244.766 118.927 246.068 117.625 248.672 117.625C251.276 117.625 252.578 118.927 252.578 121.531V127H251.25V121.531C251.25 119.708 250.391 118.797 248.672 118.797C246.953 118.797 246.094 119.708 246.094 121.531V127ZM252.578 115.281V116.453H244.766V115.281H252.578ZM256.484 118.406C256.484 118.042 256.354 117.651 256.094 117.234V116.844C256.094 115.802 256.615 115.281 257.656 115.281H260L261.797 116.453H262.422C262.786 116.453 262.969 116.271 262.969 115.906V114.109H264.297V115.906C264.297 117.052 263.854 117.625 262.969 117.625H261.562L259.766 116.453H258.203C257.682 116.453 257.422 116.609 257.422 116.922C257.682 117.339 257.812 117.833 257.812 118.406V125.438L260.391 123.25L262.969 125.438V118.406H264.297V127H263.125L260.391 124.656L257.656 127H256.484V118.406ZM261.953 130.125C261.953 130.646 262.122 130.906 262.461 130.906C262.799 130.906 262.969 130.646 262.969 130.125V127.781H264.297V130.125C264.297 131.427 263.685 132.078 262.461 132.078C261.237 132.078 260.625 131.427 260.625 130.125V127.781H261.953V130.125ZM276.016 122.234V123.875C276.016 125.958 275.286 127 273.828 127C272.755 127 271.961 126.674 271.445 126.023C270.93 125.372 270.292 125.047 269.531 125.047V127H268.203V122.312H269.531V123.875C270.443 123.875 271.182 124.201 271.75 124.852C272.323 125.503 272.904 125.828 273.492 125.828C274.289 125.828 274.688 125.177 274.688 123.875V123.094C270.365 122.156 268.203 120.594 268.203 118.406C268.203 116.323 269.505 115.281 272.109 115.281C274.714 115.281 276.016 116.323 276.016 118.406C276.016 119.859 275.292 120.586 273.844 120.586C273.516 120.586 273.25 120.51 273.047 120.359V119.188C273.417 119.297 273.719 119.352 273.953 119.352C274.443 119.352 274.688 119.036 274.688 118.406C274.688 117.104 273.828 116.453 272.109 116.453C270.391 116.453 269.531 117.104 269.531 118.406C269.531 119.969 271.693 121.245 276.016 122.234ZM279.922 118.406H281.25V125.438L283.828 123.094L286.406 125.438V118.406H287.734V127H286.562L283.828 124.656L281.094 127H279.922V118.406ZM281.25 116.523C281.25 116.737 282.109 116.844 283.828 116.844C285.547 116.844 286.406 116.323 286.406 115.281V114.109H287.734V115.281C287.734 117.104 286.432 118.016 283.828 118.016C281.224 118.016 279.922 117.521 279.922 116.531C279.922 115.698 280.354 115.281 281.219 115.281C281.766 115.281 282.141 115.357 282.344 115.508V116.523C281.974 116.414 281.701 116.359 281.523 116.359C281.341 116.359 281.25 116.414 281.25 116.523ZM283.438 111.18C283.438 111.372 283.487 111.518 283.586 111.617C283.685 111.716 283.831 111.766 284.023 111.766C284.221 111.766 284.37 111.716 284.469 111.617C284.562 111.518 284.609 111.372 284.609 111.18C284.609 110.982 284.562 110.836 284.469 110.742C284.37 110.643 284.221 110.594 284.023 110.594C283.831 110.594 283.685 110.643 283.586 110.742C283.487 110.836 283.438 110.982 283.438 111.18ZM285.781 111.18C285.781 111.768 285.635 112.208 285.344 112.5C285.052 112.792 284.612 112.938 284.023 112.938C283.435 112.938 282.995 112.792 282.703 112.5C282.411 112.208 282.266 111.768 282.266 111.18C282.266 110.591 282.411 110.151 282.703 109.859C282.995 109.568 283.435 109.422 284.023 109.422C284.612 109.422 285.052 109.568 285.344 109.859C285.635 110.151 285.781 110.591 285.781 111.18ZM292.812 124.656V125.828C292.922 125.828 293.013 125.799 293.086 125.742C293.164 125.68 293.203 125.513 293.203 125.242C293.203 124.971 293.164 124.807 293.086 124.75C293.013 124.688 292.922 124.656 292.812 124.656ZM291.641 119.188C291.641 116.583 292.729 115.281 294.906 115.281C297.078 115.281 298.164 116.583 298.164 119.188V125.672L300.234 122.938L302.305 125.672V119.188C302.305 116.583 303.393 115.281 305.57 115.281C307.742 115.281 308.828 116.583 308.828 119.188V127H307.5V119.188C307.5 117.365 306.857 116.453 305.57 116.453C304.279 116.453 303.633 117.365 303.633 119.188V127H301.914L300.234 124.656L298.555 127H296.836V119.188C296.836 117.365 296.167 116.453 294.828 116.453C293.589 116.453 292.969 117.365 292.969 119.188V123.562C293.089 123.51 293.227 123.484 293.383 123.484C293.539 123.484 293.703 123.625 293.875 123.906C294.052 124.182 294.141 124.628 294.141 125.242C294.141 125.857 294.026 126.305 293.797 126.586C293.573 126.862 293.271 127 292.891 127C292.51 127 292.208 126.859 291.984 126.578C291.807 126.365 291.698 126.049 291.656 125.633H291.641V119.188ZM307.578 109.578C307.49 109.578 307.414 109.607 307.352 109.664C307.294 109.716 307.266 109.792 307.266 109.891C307.266 109.979 307.294 110.052 307.352 110.109C307.414 110.172 307.49 110.203 307.578 110.203C307.677 110.203 307.753 110.172 307.805 110.109C307.862 110.052 307.891 109.979 307.891 109.891C307.891 109.792 307.862 109.716 307.805 109.664C307.753 109.607 307.677 109.578 307.578 109.578ZM304.141 111.922H307.656C306.359 111.036 305.318 110.594 304.531 110.594C303.49 110.594 302.969 110.815 302.969 111.258C302.969 111.701 303.359 111.922 304.141 111.922ZM306.328 109.797C306.349 109.458 306.461 109.188 306.664 108.984C306.893 108.755 307.198 108.641 307.578 108.641C307.958 108.641 308.263 108.755 308.492 108.984C308.716 109.208 308.828 109.51 308.828 109.891C308.828 110.271 308.716 110.573 308.492 110.797C308.388 110.901 308.271 110.982 308.141 111.039C308.599 111.445 308.828 111.74 308.828 111.922V112.938H303.75C302.448 112.938 301.797 112.417 301.797 111.375C301.797 110.073 302.708 109.422 304.531 109.422C305.156 109.422 305.755 109.547 306.328 109.797ZM318.594 116.469C318.594 116.312 318.49 116.234 318.281 116.234C318.073 116.234 317.969 116.312 317.969 116.469C317.969 116.609 318.073 116.75 318.281 116.891C318.49 116.781 318.594 116.641 318.594 116.469ZM312.539 120.359C312.482 120.359 312.435 120.385 312.398 120.438C312.362 120.484 312.344 120.654 312.344 120.945C312.344 121.237 312.362 121.409 312.398 121.461C312.435 121.508 312.482 121.531 312.539 121.531H312.734V120.359H312.539ZM314.062 125.438L316.641 123.094L319.219 125.438V119.969C319.219 119.406 318.797 118.81 317.953 118.18C317.526 118.591 316.802 118.797 315.781 118.797C314.646 118.797 313.854 118.648 313.406 118.352C312.958 118.055 312.734 117.643 312.734 117.117C312.734 116.596 312.839 116.109 313.047 115.656C313.255 115.198 313.359 114.826 313.359 114.539C313.359 114.253 313.021 114.109 312.344 114.109V112.938C313.802 112.938 314.531 113.432 314.531 114.422C314.531 114.812 314.427 115.25 314.219 115.734C314.01 116.214 313.906 116.555 313.906 116.758C313.906 116.966 314.036 117.164 314.297 117.352C314.557 117.534 315.07 117.625 315.836 117.625C316.497 117.625 316.974 117.539 317.266 117.367C317.005 117.154 316.875 116.823 316.875 116.375C316.875 115.646 317.344 115.281 318.281 115.281C319.271 115.281 319.766 115.724 319.766 116.609C319.766 117.062 319.562 117.448 319.156 117.766C320.083 118.438 320.547 119.172 320.547 119.969V127H318.984L316.641 124.656L314.297 127H312.734V122.688C312.672 122.698 312.607 122.703 312.539 122.703C312.237 122.703 311.997 122.578 311.82 122.328C311.648 122.073 311.562 121.612 311.562 120.945C311.562 120.279 311.648 119.82 311.82 119.57C311.997 119.315 312.328 119.188 312.812 119.188C313.297 119.188 313.625 119.315 313.797 119.57C313.974 119.82 314.062 120.279 314.062 120.945V125.438ZM325.781 121.531V123.094C325.781 124.917 326.641 125.828 328.359 125.828C330.078 125.828 330.938 124.917 330.938 123.094V121.531H325.781ZM325.781 120.359H330.938V118.406C330.938 118.042 330.677 117.651 330.156 117.234V116.453C330.156 115.672 330.547 115.281 331.328 115.281H332.656V116.453H331.719C331.458 116.453 331.328 116.583 331.328 116.844C331.953 117.26 332.266 117.781 332.266 118.406V123.094C332.266 125.698 330.964 127 328.359 127C325.755 127 324.453 125.698 324.453 123.094V118.406C324.453 118.042 324.193 117.651 323.672 117.234V116.453C323.672 115.672 324.062 115.281 324.844 115.281H326.172V116.453H325.234C324.974 116.453 324.844 116.583 324.844 116.844C325.469 117.26 325.781 117.781 325.781 118.406V120.359ZM330.938 130.75V127.781H332.266V132.078H330.938L329.922 131.062L328.906 132.078H327.578V127.781H328.906V130.75L329.922 129.734L330.938 130.75ZM337.5 117.039C337.609 117.039 337.701 117.005 337.773 116.938C337.852 116.87 337.891 116.773 337.891 116.648C337.891 116.523 337.852 116.427 337.773 116.359C337.701 116.292 337.609 116.258 337.5 116.258V117.039ZM348.125 118.406C348.125 118.042 347.865 117.651 347.344 117.234V116.453C347.344 115.672 347.734 115.281 348.516 115.281H349.844V116.453H348.906C348.646 116.453 348.516 116.583 348.516 116.844C349.141 117.26 349.453 117.781 349.453 118.406V123.094C349.453 125.698 348.281 127 345.938 127C344.375 127 343.333 126.422 342.812 125.266C342.292 126.422 341.25 127 339.688 127C337.344 127 336.172 125.698 336.172 123.094V116.648C336.172 116.242 336.271 115.914 336.469 115.664C336.672 115.409 337.003 115.281 337.461 115.281C337.919 115.281 338.247 115.409 338.445 115.664C338.648 115.914 338.75 116.242 338.75 116.648C338.75 117.055 338.648 117.383 338.445 117.633C338.273 117.857 338.01 117.969 337.656 117.969C337.604 117.969 337.552 117.966 337.5 117.961V123.094C337.5 124.917 338.229 125.828 339.688 125.828C341.328 125.828 342.148 124.917 342.148 123.094V118.406C342.148 118.042 341.888 117.651 341.367 117.234V116.453C341.367 115.672 341.758 115.281 342.539 115.281H343.867V116.453H342.93C342.669 116.453 342.539 116.583 342.539 116.844C343.164 117.26 343.477 117.781 343.477 118.406V123.094C343.477 124.917 344.297 125.828 345.938 125.828C347.396 125.828 348.125 124.917 348.125 123.094V118.406ZM354.844 115.539V120.109C354.844 120.349 354.839 120.583 354.828 120.812C354.823 121.042 354.812 121.273 354.797 121.508C354.781 121.742 354.76 121.982 354.734 122.227C354.714 122.466 354.688 122.724 354.656 123H353.688C353.651 122.724 353.62 122.466 353.594 122.227C353.573 121.982 353.555 121.742 353.539 121.508C353.523 121.273 353.51 121.042 353.5 120.812C353.495 120.583 353.492 120.349 353.492 120.109V115.539H354.844ZM353.148 126.117C353.148 125.982 353.172 125.854 353.219 125.734C353.271 125.609 353.341 125.503 353.43 125.414C353.518 125.32 353.622 125.247 353.742 125.195C353.867 125.138 354 125.109 354.141 125.109C354.281 125.109 354.411 125.138 354.531 125.195C354.656 125.247 354.763 125.32 354.852 125.414C354.945 125.503 355.016 125.609 355.062 125.734C355.115 125.854 355.141 125.982 355.141 126.117C355.141 126.263 355.115 126.396 355.062 126.516C355.016 126.635 354.945 126.742 354.852 126.836C354.763 126.924 354.656 126.992 354.531 127.039C354.411 127.091 354.281 127.117 354.141 127.117C354 127.117 353.867 127.091 353.742 127.039C353.622 126.992 353.518 126.924 353.43 126.836C353.341 126.742 353.271 126.635 353.219 126.516C353.172 126.396 353.148 126.263 353.148 126.117Z" fill="#344054"/>
<path d="M311.656 188.891C311.609 188.823 311.505 188.784 311.344 188.773V189.664C311.505 189.664 311.609 189.63 311.656 189.562C311.708 189.49 311.734 189.378 311.734 189.227C311.734 189.07 311.708 188.958 311.656 188.891ZM311.734 187.438C312.13 187.469 312.424 187.625 312.617 187.906C312.81 188.182 312.906 188.628 312.906 189.242C312.906 189.857 312.771 190.305 312.5 190.586C312.229 190.862 311.844 191 311.344 191C310.844 191 310.458 190.862 310.188 190.586C309.917 190.305 309.781 189.857 309.781 189.242V182.406C309.781 181.979 309.521 181.557 309 181.141V180.453C309 179.672 309.495 179.281 310.484 179.281H312.125V180.844H310.797V180.938C311.422 181.354 311.734 181.844 311.734 182.406V187.438ZM324.078 192.562H322.125V190.602C321.516 190.867 320.76 191 319.859 191C317.047 191 315.641 189.698 315.641 187.094V182.406C315.641 181.99 315.51 181.573 315.25 181.156V180.844C315.25 179.802 315.875 179.281 317.125 179.281H324.078V180.844H317.672C317.359 180.844 317.203 180.896 317.203 181C317.464 181.417 317.594 181.885 317.594 182.406V187.094C317.594 188.656 318.349 189.438 319.859 189.438C321.37 189.438 322.125 188.656 322.125 187.094V182.406H324.078V192.562ZM324.078 179.281H325.953C328.609 179.281 329.938 180.323 329.938 182.406V191H327.984V182.406C327.984 181.365 327.307 180.844 325.953 180.844H324.078V179.281ZM335.211 181.43C335.211 181.56 335.245 181.656 335.312 181.719C335.375 181.786 335.471 181.82 335.602 181.82C335.732 181.82 335.828 181.786 335.891 181.719C335.958 181.656 335.992 181.56 335.992 181.43C335.992 181.299 335.958 181.203 335.891 181.141C335.828 181.073 335.732 181.039 335.602 181.039C335.471 181.039 335.375 181.073 335.312 181.141C335.245 181.203 335.211 181.299 335.211 181.43ZM337.359 181.43C337.359 182.018 337.214 182.458 336.922 182.75C336.63 183.042 336.19 183.188 335.602 183.188C335.013 183.188 334.573 183.042 334.281 182.75C333.99 182.458 333.844 182.018 333.844 181.43C333.844 180.841 333.99 180.401 334.281 180.109C334.573 179.818 335.013 179.672 335.602 179.672C336.19 179.672 336.63 179.818 336.922 180.109C337.214 180.401 337.359 180.841 337.359 181.43ZM335.211 188.852C335.211 188.982 335.245 189.078 335.312 189.141C335.375 189.208 335.471 189.242 335.602 189.242C335.732 189.242 335.828 189.208 335.891 189.141C335.958 189.078 335.992 188.982 335.992 188.852C335.992 188.721 335.958 188.625 335.891 188.562C335.828 188.495 335.732 188.461 335.602 188.461C335.471 188.461 335.375 188.495 335.312 188.562C335.245 188.625 335.211 188.721 335.211 188.852ZM337.359 188.852C337.359 189.44 337.214 189.88 336.922 190.172C336.63 190.464 336.19 190.609 335.602 190.609C335.013 190.609 334.573 190.464 334.281 190.172C333.99 189.88 333.844 189.44 333.844 188.852C333.844 188.263 333.99 187.823 334.281 187.531C334.573 187.24 335.013 187.094 335.602 187.094C336.19 187.094 336.63 187.24 336.922 187.531C337.214 187.823 337.359 188.263 337.359 188.852ZM347.75 182.406C347.75 181.979 347.49 181.557 346.969 181.141V180.453C346.969 179.672 347.464 179.281 348.453 179.281H350.094V180.844H348.766V180.938C349.391 181.354 349.703 181.844 349.703 182.406V187.094C349.703 189.698 348.297 191 345.484 191C342.672 191 341.266 189.698 341.266 187.094V182.406C341.266 181.979 341.005 181.557 340.484 181.141V180.453C340.484 179.672 340.979 179.281 341.969 179.281H343.609V180.844H342.281V180.938C342.906 181.354 343.219 181.844 343.219 182.406V187.094C343.219 188.656 343.974 189.438 345.484 189.438C346.995 189.438 347.75 188.656 347.75 187.094V182.406ZM354 185.305C353.839 185.305 353.732 185.341 353.68 185.414C353.633 185.482 353.609 185.591 353.609 185.742C353.609 185.898 353.633 186.01 353.68 186.078C353.732 186.146 353.839 186.185 354 186.195V185.305ZM355.562 188.961L357.828 186.906L360.094 188.961V184.359C360.094 183.734 359.789 183.195 359.18 182.742C358.872 183.039 358.135 183.188 356.969 183.188C355.719 183.188 354.846 183.023 354.352 182.695C353.857 182.367 353.609 181.841 353.609 181.117C353.609 180.638 353.714 180.237 353.922 179.914C354.13 179.586 354.234 179.258 354.234 178.93C354.234 178.643 353.896 178.5 353.219 178.5V176.938C355.094 176.938 356.031 177.432 356.031 178.422C356.031 178.771 355.927 179.188 355.719 179.672C355.51 180.151 355.406 180.513 355.406 180.758C355.406 181.029 355.513 181.242 355.727 181.398C355.945 181.549 356.378 181.625 357.023 181.625C357.581 181.625 357.997 181.544 358.273 181.383C357.924 181.096 357.75 180.76 357.75 180.375C357.75 179.646 358.323 179.281 359.469 179.281C360.667 179.281 361.266 179.724 361.266 180.609C361.266 181 361.021 181.385 360.531 181.766C361.542 182.5 362.047 183.234 362.047 183.969V191H359.953L357.828 188.875L355.703 191H353.609V187.531C353.214 187.5 352.919 187.346 352.727 187.07C352.534 186.789 352.438 186.341 352.438 185.727C352.438 185.112 352.534 184.667 352.727 184.391C352.919 184.109 353.344 183.969 354 183.969C354.656 183.969 355.081 184.109 355.273 184.391C355.466 184.667 355.562 185.112 355.562 185.727V188.961ZM359.453 181.008L359.695 180.836C359.784 180.763 359.828 180.693 359.828 180.625C359.828 180.464 359.719 180.383 359.5 180.383C359.292 180.383 359.188 180.448 359.188 180.578C359.188 180.651 359.219 180.714 359.281 180.766L359.453 181.008ZM358.727 173.422V176.938H357.164V173.422H358.727Z" fill="#0F71BB"/>
<path d="M307.828 192.602H364V193.398H307.828V192.602Z" fill="#0F71BB"/>
<rect x="380.5" y="162.5" width="84" height="47" rx="9.5" fill="white"/>
<path d="M399.922 189.828C399.979 189.828 400.026 189.805 400.062 189.758C400.099 189.706 400.117 189.534 400.117 189.242C400.117 188.951 400.099 188.781 400.062 188.734C400.026 188.682 399.979 188.656 399.922 188.656H399.727V189.828H399.922ZM399.727 187.5C399.789 187.49 399.854 187.484 399.922 187.484C400.224 187.484 400.461 187.612 400.633 187.867C400.81 188.117 400.898 188.576 400.898 189.242C400.898 189.909 400.81 190.37 400.633 190.625C400.461 190.875 400.133 191 399.648 191C399.164 191 398.833 190.875 398.656 190.625C398.484 190.37 398.398 189.909 398.398 189.242V182.406C398.294 182.042 398.034 181.651 397.617 181.234V180.453C397.617 179.672 398.008 179.281 398.789 179.281H400.117V180.453H399.18C398.919 180.453 398.789 180.583 398.789 180.844C399.414 181.26 399.727 181.781 399.727 182.406V187.5ZM403.633 182.406C403.633 182.042 403.503 181.651 403.242 181.234V180.844C403.242 179.802 403.763 179.281 404.805 179.281H411.445V180.453H405.352C404.831 180.453 404.57 180.609 404.57 180.922C404.831 181.339 404.961 181.833 404.961 182.406V187.094C404.961 188.917 405.82 189.828 407.539 189.828C409.258 189.828 410.117 188.917 410.117 187.094V182.406H411.445V191.781H410.117V190.32C409.482 190.773 408.622 191 407.539 191C404.935 191 403.633 189.698 403.633 187.094V182.406ZM411.055 179.281H412.617C414.701 179.281 415.742 180.323 415.742 182.406V191H414.414V182.406C414.414 181.104 413.815 180.453 412.617 180.453H411.055V179.281ZM420.82 181.43C420.82 181.622 420.87 181.768 420.969 181.867C421.068 181.966 421.214 182.016 421.406 182.016C421.604 182.016 421.75 181.966 421.844 181.867C421.943 181.768 421.992 181.622 421.992 181.43C421.992 181.232 421.943 181.086 421.844 180.992C421.75 180.893 421.604 180.844 421.406 180.844C421.214 180.844 421.068 180.893 420.969 180.992C420.87 181.086 420.82 181.232 420.82 181.43ZM423.164 181.43C423.164 182.018 423.018 182.458 422.727 182.75C422.435 183.042 421.995 183.188 421.406 183.188C420.818 183.188 420.378 183.042 420.086 182.75C419.794 182.458 419.648 182.018 419.648 181.43C419.648 180.841 419.794 180.401 420.086 180.109C420.378 179.818 420.818 179.672 421.406 179.672C421.995 179.672 422.435 179.818 422.727 180.109C423.018 180.401 423.164 180.841 423.164 181.43ZM420.82 188.852C420.82 189.044 420.87 189.19 420.969 189.289C421.068 189.388 421.214 189.438 421.406 189.438C421.604 189.438 421.75 189.388 421.844 189.289C421.943 189.19 421.992 189.044 421.992 188.852C421.992 188.654 421.943 188.508 421.844 188.414C421.75 188.315 421.604 188.266 421.406 188.266C421.214 188.266 421.068 188.315 420.969 188.414C420.87 188.508 420.82 188.654 420.82 188.852ZM423.164 188.852C423.164 189.44 423.018 189.88 422.727 190.172C422.435 190.464 421.995 190.609 421.406 190.609C420.818 190.609 420.378 190.464 420.086 190.172C419.794 189.88 419.648 189.44 419.648 188.852C419.648 188.263 419.794 187.823 420.086 187.531C420.378 187.24 420.818 187.094 421.406 187.094C421.995 187.094 422.435 187.24 422.727 187.531C423.018 187.823 423.164 188.263 423.164 188.852ZM433.555 182.406C433.555 182.042 433.294 181.651 432.773 181.234V180.453C432.773 179.672 433.164 179.281 433.945 179.281H435.273V180.453H434.336C434.076 180.453 433.945 180.583 433.945 180.844C434.57 181.26 434.883 181.781 434.883 182.406V187.094C434.883 189.698 433.581 191 430.977 191C428.372 191 427.07 189.698 427.07 187.094V182.406C427.07 182.042 426.81 181.651 426.289 181.234V180.453C426.289 179.672 426.68 179.281 427.461 179.281H428.789V180.453H427.852C427.591 180.453 427.461 180.583 427.461 180.844C428.086 181.26 428.398 181.781 428.398 182.406V187.094C428.398 188.917 429.258 189.828 430.977 189.828C432.695 189.828 433.555 188.917 433.555 187.094V182.406ZM444.648 180.469C444.648 180.312 444.544 180.234 444.336 180.234C444.128 180.234 444.023 180.312 444.023 180.469C444.023 180.609 444.128 180.75 444.336 180.891C444.544 180.781 444.648 180.641 444.648 180.469ZM438.594 184.359C438.536 184.359 438.49 184.385 438.453 184.438C438.417 184.484 438.398 184.654 438.398 184.945C438.398 185.237 438.417 185.409 438.453 185.461C438.49 185.508 438.536 185.531 438.594 185.531H438.789V184.359H438.594ZM440.117 189.438L442.695 187.094L445.273 189.438V183.969C445.273 183.406 444.852 182.81 444.008 182.18C443.581 182.591 442.857 182.797 441.836 182.797C440.701 182.797 439.909 182.648 439.461 182.352C439.013 182.055 438.789 181.643 438.789 181.117C438.789 180.596 438.893 180.109 439.102 179.656C439.31 179.198 439.414 178.826 439.414 178.539C439.414 178.253 439.076 178.109 438.398 178.109V176.938C439.857 176.938 440.586 177.432 440.586 178.422C440.586 178.812 440.482 179.25 440.273 179.734C440.065 180.214 439.961 180.555 439.961 180.758C439.961 180.966 440.091 181.164 440.352 181.352C440.612 181.534 441.125 181.625 441.891 181.625C442.552 181.625 443.029 181.539 443.32 181.367C443.06 181.154 442.93 180.823 442.93 180.375C442.93 179.646 443.398 179.281 444.336 179.281C445.326 179.281 445.82 179.724 445.82 180.609C445.82 181.062 445.617 181.448 445.211 181.766C446.138 182.438 446.602 183.172 446.602 183.969V191H445.039L442.695 188.656L440.352 191H438.789V186.688C438.727 186.698 438.661 186.703 438.594 186.703C438.292 186.703 438.052 186.578 437.875 186.328C437.703 186.073 437.617 185.612 437.617 184.945C437.617 184.279 437.703 183.82 437.875 183.57C438.052 183.315 438.383 183.188 438.867 183.188C439.352 183.188 439.68 183.315 439.852 183.57C440.029 183.82 440.117 184.279 440.117 184.945V189.438ZM443.281 173.422V176.938H442.109V173.422H443.281Z" fill="#344054"/>
<rect x="380.5" y="162.5" width="84" height="47" rx="9.5" stroke="#344054"/>
<rect x="481" y="162" width="160" height="48" rx="10" fill="#1C4076"/>
<path d="M499.359 189.828V188.656H499.164C499.107 188.656 499.06 188.682 499.023 188.734C498.987 188.781 498.969 188.951 498.969 189.242C498.969 189.534 498.987 189.706 499.023 189.758C499.06 189.805 499.107 189.828 499.164 189.828H499.359ZM500.688 182.406V189.242C500.688 189.909 500.599 190.37 500.422 190.625C500.25 190.875 499.922 191 499.438 191C498.953 191 498.622 190.875 498.445 190.625C498.273 190.37 498.188 189.909 498.188 189.242C498.188 188.576 498.273 188.117 498.445 187.867C498.622 187.612 498.862 187.484 499.164 187.484C499.232 187.484 499.297 187.49 499.359 187.5V182.406C499.255 182.042 498.995 181.651 498.578 181.234V180.453C498.578 179.672 498.969 179.281 499.75 179.281H501.078V180.453H500.141C499.88 180.453 499.75 180.583 499.75 180.844C500.375 181.26 500.688 181.781 500.688 182.406ZM505.922 191H504.594V185.531C504.594 182.927 505.896 181.625 508.5 181.625C511.104 181.625 512.406 182.927 512.406 185.531V191H511.078V185.531C511.078 183.708 510.219 182.797 508.5 182.797C506.781 182.797 505.922 183.708 505.922 185.531V191ZM512.406 179.281V180.453H504.594V179.281H512.406ZM511.078 192.953C511.078 192.734 511.039 192.625 510.961 192.625C510.883 192.625 510.844 192.734 510.844 192.953V193.344H509.828V192.953C509.828 192.573 509.917 192.281 510.094 192.078C510.266 191.88 510.607 191.781 511.117 191.781C511.523 191.781 511.815 191.88 511.992 192.078C512.164 192.281 512.25 192.573 512.25 192.953C512.25 194.255 512.836 194.906 514.008 194.906C515.18 194.906 515.766 194.255 515.766 192.953V189.438H514.359V188.266H515.766V182.406C515.766 182.042 515.505 181.651 514.984 181.234V180.453C514.984 179.672 515.375 179.281 516.156 179.281H517.484V180.453H516.547C516.286 180.453 516.156 180.583 516.156 180.844C516.781 181.26 517.094 181.781 517.094 182.406V188.266H518.656V189.438H517.094V192.953C517.094 195.036 516.091 196.078 514.086 196.078C512.081 196.078 511.078 195.036 511.078 192.953ZM517.094 179.281H518.656C520.74 179.281 521.781 180.323 521.781 182.406V191H520.453V182.406C520.453 181.104 519.854 180.453 518.656 180.453H517.094V179.281ZM525.688 189.828V188.656H525.492C525.435 188.656 525.388 188.682 525.352 188.734C525.315 188.781 525.297 188.951 525.297 189.242C525.297 189.534 525.315 189.706 525.352 189.758C525.388 189.805 525.435 189.828 525.492 189.828H525.688ZM527.016 182.406V189.242C527.016 189.909 526.927 190.37 526.75 190.625C526.578 190.875 526.25 191 525.766 191C525.281 191 524.951 190.875 524.773 190.625C524.602 190.37 524.516 189.909 524.516 189.242C524.516 188.576 524.602 188.117 524.773 187.867C524.951 187.612 525.19 187.484 525.492 187.484C525.56 187.484 525.625 187.49 525.688 187.5V182.406C525.583 182.042 525.323 181.651 524.906 181.234V180.453C524.906 179.672 525.297 179.281 526.078 179.281H527.406V180.453H526.469C526.208 180.453 526.078 180.583 526.078 180.844C526.703 181.26 527.016 181.781 527.016 182.406ZM537.641 186.383C537.677 186.393 537.714 186.398 537.75 186.398C537.885 186.398 537.953 186.292 537.953 186.078C537.953 185.87 537.901 185.766 537.797 185.766C537.693 185.766 537.641 185.867 537.641 186.07V186.383ZM537.641 187.086V187.875C537.641 189.958 536.703 191 534.828 191C532.953 191 532.016 189.958 532.016 187.875V186.312H533.344V187.875C533.344 189.177 533.839 189.828 534.828 189.828C535.818 189.828 536.312 189.177 536.312 187.875V186.898C532.719 185.862 530.922 184.365 530.922 182.406C530.922 180.323 532.224 179.281 534.828 179.281C537.432 179.281 538.734 180.323 538.734 182.406C538.734 183.859 538.01 184.586 536.562 184.586C536.234 184.586 535.969 184.51 535.766 184.359V183.188C536.135 183.297 536.438 183.352 536.672 183.352C537.161 183.352 537.406 183.036 537.406 182.406C537.406 181.104 536.547 180.453 534.828 180.453C533.109 180.453 532.25 181.104 532.25 182.406C532.25 184.016 533.604 185.148 536.312 185.805C536.312 185.31 536.677 185.062 537.406 185.062C538.292 185.062 538.734 185.388 538.734 186.039C538.734 186.43 538.646 186.706 538.469 186.867C538.292 187.029 538.102 187.109 537.898 187.109C537.815 187.109 537.729 187.102 537.641 187.086ZM538.734 191.781V196.078H537.406V191.781H538.734ZM543.969 191H542.641V185.531C542.641 182.927 543.943 181.625 546.547 181.625C549.151 181.625 550.453 182.927 550.453 185.531V191H549.125V185.531C549.125 183.708 548.266 182.797 546.547 182.797C544.828 182.797 543.969 183.708 543.969 185.531V191ZM550.453 179.281V180.453H542.641V179.281H550.453ZM555.688 191H554.359V185.531C554.359 182.927 555.661 181.625 558.266 181.625C560.87 181.625 562.172 182.927 562.172 185.531V191H560.844V185.531C560.844 183.708 559.984 182.797 558.266 182.797C556.547 182.797 555.688 183.708 555.688 185.531V191ZM562.172 179.281V180.453H554.359V179.281H562.172ZM562.172 179.281H563.734C565.818 179.281 566.859 180.323 566.859 182.406V191H565.531V182.406C565.531 181.104 564.932 180.453 563.734 180.453H562.172V179.281ZM570.766 189.828V188.656H570.57C570.513 188.656 570.466 188.682 570.43 188.734C570.393 188.781 570.375 188.951 570.375 189.242C570.375 189.534 570.393 189.706 570.43 189.758C570.466 189.805 570.513 189.828 570.57 189.828H570.766ZM572.094 182.406V189.242C572.094 189.909 572.005 190.37 571.828 190.625C571.656 190.875 571.328 191 570.844 191C570.359 191 570.029 190.875 569.852 190.625C569.68 190.37 569.594 189.909 569.594 189.242C569.594 188.576 569.68 188.117 569.852 187.867C570.029 187.612 570.268 187.484 570.57 187.484C570.638 187.484 570.703 187.49 570.766 187.5V182.406C570.661 182.042 570.401 181.651 569.984 181.234V180.453C569.984 179.672 570.375 179.281 571.156 179.281H572.484V180.453H571.547C571.286 180.453 571.156 180.583 571.156 180.844C571.781 181.26 572.094 181.781 572.094 182.406ZM582.484 183.383C582.375 183.383 582.281 183.417 582.203 183.484C582.13 183.552 582.094 183.648 582.094 183.773C582.094 183.898 582.13 183.995 582.203 184.062C582.281 184.13 582.375 184.164 582.484 184.164V183.383ZM576 182.406C576 182.042 575.87 181.651 575.609 181.234V180.844C575.609 179.802 576.13 179.281 577.172 179.281H579.516L581.312 180.453H581.938C582.302 180.453 582.484 180.271 582.484 179.906V178.109H583.812V179.906C583.812 181.052 583.37 181.625 582.484 181.625H581.078L579.281 180.453H577.719C577.198 180.453 576.938 180.609 576.938 180.922C577.198 181.339 577.328 181.833 577.328 182.406V189.438L579.906 187.25L582.484 189.438V185.086C582.432 185.091 582.38 185.094 582.328 185.094C581.974 185.094 581.711 184.982 581.539 184.758C581.336 184.508 581.234 184.18 581.234 183.773C581.234 183.367 581.333 183.039 581.531 182.789C581.734 182.534 582.065 182.406 582.523 182.406C582.982 182.406 583.31 182.534 583.508 182.789C583.711 183.039 583.812 183.367 583.812 183.773V191H582.641L579.906 188.656L577.172 191H576V182.406ZM577.562 194.047C577.562 194.839 577.729 195.234 578.062 195.234C578.245 195.234 578.495 195.18 578.812 195.07V195.852C578.661 196.003 578.266 196.078 577.625 196.078C576.802 196.078 576.391 195.401 576.391 194.047C576.391 192.536 577.029 191.781 578.305 191.781C579.398 191.781 580.148 192.302 580.555 193.344C580.956 194.385 581.339 194.906 581.703 194.906C582.068 194.906 582.536 193.865 583.109 191.781L584.203 192.094C583.552 194.75 582.766 196.078 581.844 196.078C580.969 196.078 580.331 195.557 579.93 194.516C579.523 193.474 578.982 192.953 578.305 192.953C577.81 192.953 577.562 193.318 577.562 194.047ZM583.812 179.281H585.375C587.458 179.281 588.5 180.323 588.5 182.406V191H587.172V182.406C587.172 181.104 586.573 180.453 585.375 180.453H583.812V179.281ZM593.578 188.656V189.828C593.688 189.828 593.779 189.799 593.852 189.742C593.93 189.68 593.969 189.513 593.969 189.242C593.969 188.971 593.93 188.807 593.852 188.75C593.779 188.688 593.688 188.656 593.578 188.656ZM605.688 182.406V187.094C605.688 189.698 604.516 191 602.172 191C599.646 191 598.383 189.698 598.383 187.094V185.531C598.383 183.708 597.609 182.797 596.062 182.797C594.51 182.797 593.734 183.708 593.734 185.531V187.562C593.854 187.51 593.992 187.484 594.148 187.484C594.305 187.484 594.469 187.625 594.641 187.906C594.818 188.182 594.906 188.628 594.906 189.242C594.906 189.857 594.792 190.305 594.562 190.586C594.339 190.862 594.036 191 593.656 191C593.276 191 592.974 190.859 592.75 190.578C592.573 190.365 592.464 190.049 592.422 189.633H592.406V185.531C592.406 183.906 592.88 182.789 593.828 182.18C593.594 181.789 593.25 181.474 592.797 181.234V180.453C592.797 179.672 593.188 179.281 593.969 179.281H598.266V180.453H594.516C594.255 180.453 594.125 180.583 594.125 180.844C594.531 181.062 594.852 181.349 595.086 181.703C595.388 181.651 595.714 181.625 596.062 181.625C598.495 181.625 599.711 182.927 599.711 185.531V187.094C599.711 188.917 600.531 189.828 602.172 189.828C603.63 189.828 604.359 188.917 604.359 187.094V182.406C604.359 182.042 604.099 181.651 603.578 181.234V180.453C603.578 179.672 603.969 179.281 604.75 179.281H606.078V180.453H605.141C604.88 180.453 604.75 180.583 604.75 180.844C605.375 181.26 605.688 181.781 605.688 182.406ZM602.367 173.422V176.938H601.195V173.422H602.367ZM616.078 182.406C616.078 182.042 615.818 181.651 615.297 181.234V180.453C615.297 179.672 615.688 179.281 616.469 179.281H617.797V180.453H616.859C616.599 180.453 616.469 180.583 616.469 180.844C617.094 181.26 617.406 181.781 617.406 182.406V187.094C617.406 189.698 616.104 191 613.5 191C610.896 191 609.594 189.698 609.594 187.094V182.406C609.594 182.042 609.333 181.651 608.812 181.234V180.453C608.812 179.672 609.203 179.281 609.984 179.281H611.312V180.453H610.375C610.115 180.453 609.984 180.583 609.984 180.844C610.609 181.26 610.922 181.781 610.922 182.406V187.094C610.922 188.917 611.781 189.828 613.5 189.828C615.219 189.828 616.078 188.917 616.078 187.094V182.406ZM611.156 195.297C611.266 195.297 611.333 195.271 611.359 195.219C611.38 195.172 611.391 195.107 611.391 195.023C611.391 194.94 611.38 194.872 611.359 194.82C611.333 194.773 611.266 194.75 611.156 194.75V195.297ZM609.984 193.969C609.984 192.51 611.156 191.781 613.5 191.781C615.844 191.781 617.016 192.562 617.016 194.125V196.078H615.844V194.125C615.844 193.344 615.062 192.953 613.5 192.953C611.938 192.953 611.156 193.292 611.156 193.969C611.484 193.969 611.737 194.055 611.914 194.227C612.086 194.404 612.172 194.669 612.172 195.023C612.172 195.378 612.073 195.641 611.875 195.812C611.672 195.99 611.406 196.078 611.078 196.078C610.75 196.078 610.487 195.99 610.289 195.812C610.086 195.641 609.984 195.378 609.984 195.023V193.969ZM615.062 198.422C615.062 198.943 615.232 199.203 615.57 199.203C615.909 199.203 616.078 198.943 616.078 198.422V196.469H617.406V198.422C617.406 199.724 616.794 200.375 615.57 200.375C614.346 200.375 613.734 199.724 613.734 198.422V196.469H615.062V198.422ZM621.312 189.828V188.656H621.117C621.06 188.656 621.013 188.682 620.977 188.734C620.94 188.781 620.922 188.951 620.922 189.242C620.922 189.534 620.94 189.706 620.977 189.758C621.013 189.805 621.06 189.828 621.117 189.828H621.312ZM622.641 182.406V189.242C622.641 189.909 622.552 190.37 622.375 190.625C622.203 190.875 621.875 191 621.391 191C620.906 191 620.576 190.875 620.398 190.625C620.227 190.37 620.141 189.909 620.141 189.242C620.141 188.576 620.227 188.117 620.398 187.867C620.576 187.612 620.815 187.484 621.117 187.484C621.185 187.484 621.25 187.49 621.312 187.5V182.406C621.208 182.042 620.948 181.651 620.531 181.234V180.453C620.531 179.672 620.922 179.281 621.703 179.281H623.031V180.453H622.094C621.833 180.453 621.703 180.583 621.703 180.844C622.328 181.26 622.641 181.781 622.641 182.406Z" fill="white"/>
<rect x="20.5" y="0.5" width="645" height="234" rx="8.5" stroke="#98A2B3"/>
</g>
<rect x="21" y="1" width="644" height="24" fill="#EE7D22" fill-opacity="0.24"/>
<rect x="21" y="57" width="644" height="24" fill="#EE7D22" fill-opacity="0.24"/>
<rect x="21" y="138" width="644" height="24" fill="#EE7D22" fill-opacity="0.24"/>
<rect x="21" y="210" width="644" height="24" fill="#EE7D22" fill-opacity="0.24"/>
<path d="M676.5 1V25" stroke="#F07D03"/>
<rect x="681" y="3.5" width="37" height="18" rx="3" fill="#F07D03"/>
<path d="M687.589 16.5V15.392L690.178 12.995C690.398 12.782 690.583 12.5902 690.732 12.4197C690.884 12.2493 690.999 12.0824 691.077 11.919C691.155 11.7533 691.194 11.5746 691.194 11.3828C691.194 11.1697 691.145 10.9863 691.048 10.8324C690.951 10.6761 690.819 10.5566 690.651 10.4737C690.482 10.3885 690.292 10.3459 690.079 10.3459C689.856 10.3459 689.662 10.3909 689.496 10.4808C689.331 10.5708 689.203 10.6998 689.113 10.8679C689.023 11.036 688.978 11.236 688.978 11.468H687.518C687.518 10.9922 687.626 10.5791 687.842 10.2287C688.057 9.87831 688.359 9.60724 688.747 9.41548C689.135 9.22372 689.583 9.12784 690.089 9.12784C690.61 9.12784 691.064 9.22017 691.45 9.40483C691.838 9.58712 692.14 9.84044 692.355 10.1648C692.571 10.4891 692.678 10.8608 692.678 11.2798C692.678 11.5545 692.624 11.8255 692.515 12.093C692.408 12.3606 692.218 12.6577 691.943 12.9844C691.669 13.3087 691.281 13.6982 690.782 14.1527L689.72 15.1932V15.2429H692.774V16.5H687.589ZM693.622 15.2216V14.0107L696.658 9.22727H697.702V10.9034H697.084L695.17 13.9325V13.9893H699.485V15.2216H693.622ZM697.113 16.5V14.8523L697.141 14.3161V9.22727H698.583V16.5H697.113ZM700.524 18.5455V11.0455H702.015V11.9616H702.083C702.149 11.8149 702.245 11.6657 702.37 11.5142C702.498 11.3603 702.664 11.2325 702.867 11.1307C703.073 11.0265 703.329 10.9744 703.634 10.9744C704.032 10.9744 704.399 11.0786 704.735 11.2869C705.071 11.4929 705.34 11.8042 705.541 12.2209C705.743 12.6352 705.843 13.1548 705.843 13.7798C705.843 14.3883 705.745 14.902 705.548 15.321C705.354 15.7377 705.089 16.0537 704.753 16.2692C704.419 16.4822 704.045 16.5888 703.631 16.5888C703.337 16.5888 703.088 16.5402 702.882 16.4432C702.678 16.3461 702.511 16.2242 702.381 16.0774C702.251 15.9283 702.151 15.7779 702.083 15.6264H702.036V18.5455H700.524ZM702.004 13.7727C702.004 14.0971 702.049 14.38 702.139 14.6214C702.229 14.8629 702.36 15.0511 702.53 15.1861C702.7 15.3187 702.908 15.3849 703.151 15.3849C703.398 15.3849 703.606 15.3175 703.776 15.1825C703.947 15.0452 704.076 14.8558 704.164 14.6143C704.253 14.3705 704.298 14.09 704.298 13.7727C704.298 13.4579 704.255 13.1809 704.167 12.9418C704.079 12.7027 703.95 12.5156 703.78 12.3807C703.61 12.2457 703.4 12.1783 703.151 12.1783C702.905 12.1783 702.697 12.2434 702.526 12.3736C702.358 12.5038 702.229 12.6884 702.139 12.9276C702.049 13.1667 702.004 13.4484 702.004 13.7727ZM707.921 11.0455L708.922 12.9524L709.948 11.0455H711.5L709.92 13.7727L711.543 16.5H709.998L708.922 14.6143L707.864 16.5H706.301L707.921 13.7727L706.358 11.0455H707.921Z" fill="white"/>
<line x1="673" y1="1.5" x2="680" y2="1.5" stroke="#F07D03"/>
<line x1="673" y1="24.5" x2="680" y2="24.5" stroke="#F07D03"/>
<path d="M676.5 57V81" stroke="#F07D03"/>
<rect x="681" y="59.5" width="37" height="18" rx="3" fill="#F07D03"/>
<path d="M687.589 72.5V71.392L690.178 68.995C690.398 68.782 690.583 68.5902 690.732 68.4197C690.884 68.2493 690.999 68.0824 691.077 67.919C691.155 67.7533 691.194 67.5746 691.194 67.3828C691.194 67.1697 691.145 66.9863 691.048 66.8324C690.951 66.6761 690.819 66.5566 690.651 66.4737C690.482 66.3885 690.292 66.3459 690.079 66.3459C689.856 66.3459 689.662 66.3909 689.496 66.4808C689.331 66.5708 689.203 66.6998 689.113 66.8679C689.023 67.036 688.978 67.236 688.978 67.468H687.518C687.518 66.9922 687.626 66.5791 687.842 66.2287C688.057 65.8783 688.359 65.6072 688.747 65.4155C689.135 65.2237 689.583 65.1278 690.089 65.1278C690.61 65.1278 691.064 65.2202 691.45 65.4048C691.838 65.5871 692.14 65.8404 692.355 66.1648C692.571 66.4891 692.678 66.8608 692.678 67.2798C692.678 67.5545 692.624 67.8255 692.515 68.093C692.408 68.3606 692.218 68.6577 691.943 68.9844C691.669 69.3087 691.281 69.6982 690.782 70.1527L689.72 71.1932V71.2429H692.774V72.5H687.589ZM693.622 71.2216V70.0107L696.658 65.2273H697.702V66.9034H697.084L695.17 69.9325V69.9893H699.485V71.2216H693.622ZM697.113 72.5V70.8523L697.141 70.3161V65.2273H698.583V72.5H697.113ZM700.524 74.5455V67.0455H702.015V67.9616H702.083C702.149 67.8149 702.245 67.6657 702.37 67.5142C702.498 67.3603 702.664 67.2325 702.867 67.1307C703.073 67.0265 703.329 66.9744 703.634 66.9744C704.032 66.9744 704.399 67.0786 704.735 67.2869C705.071 67.4929 705.34 67.8042 705.541 68.2209C705.743 68.6352 705.843 69.1548 705.843 69.7798C705.843 70.3883 705.745 70.902 705.548 71.321C705.354 71.7377 705.089 72.0537 704.753 72.2692C704.419 72.4822 704.045 72.5888 703.631 72.5888C703.337 72.5888 703.088 72.5402 702.882 72.4432C702.678 72.3461 702.511 72.2242 702.381 72.0774C702.251 71.9283 702.151 71.7779 702.083 71.6264H702.036V74.5455H700.524ZM702.004 69.7727C702.004 70.0971 702.049 70.38 702.139 70.6214C702.229 70.8629 702.36 71.0511 702.53 71.1861C702.7 71.3187 702.908 71.3849 703.151 71.3849C703.398 71.3849 703.606 71.3175 703.776 71.1825C703.947 71.0452 704.076 70.8558 704.164 70.6143C704.253 70.3705 704.298 70.09 704.298 69.7727C704.298 69.4579 704.255 69.1809 704.167 68.9418C704.079 68.7027 703.95 68.5156 703.78 68.3807C703.61 68.2457 703.4 68.1783 703.151 68.1783C702.905 68.1783 702.697 68.2434 702.526 68.3736C702.358 68.5038 702.229 68.6884 702.139 68.9276C702.049 69.1667 702.004 69.4484 702.004 69.7727ZM707.921 67.0455L708.922 68.9524L709.948 67.0455H711.5L709.92 69.7727L711.543 72.5H709.998L708.922 70.6143L707.864 72.5H706.301L707.921 69.7727L706.358 67.0455H707.921Z" fill="white"/>
<line x1="673" y1="57.5" x2="680" y2="57.5" stroke="#F07D03"/>
<line x1="673" y1="80.5" x2="680" y2="80.5" stroke="#F07D03"/>
<path d="M676.5 138V162" stroke="#F07D03"/>
<rect x="681" y="140.5" width="37" height="18" rx="3" fill="#F07D03"/>
<path d="M687.589 153.5V152.392L690.178 149.995C690.398 149.782 690.583 149.59 690.732 149.42C690.884 149.249 690.999 149.082 691.077 148.919C691.155 148.753 691.194 148.575 691.194 148.383C691.194 148.17 691.145 147.986 691.048 147.832C690.951 147.676 690.819 147.557 690.651 147.474C690.482 147.388 690.292 147.346 690.079 147.346C689.856 147.346 689.662 147.391 689.496 147.481C689.331 147.571 689.203 147.7 689.113 147.868C689.023 148.036 688.978 148.236 688.978 148.468H687.518C687.518 147.992 687.626 147.579 687.842 147.229C688.057 146.878 688.359 146.607 688.747 146.415C689.135 146.224 689.583 146.128 690.089 146.128C690.61 146.128 691.064 146.22 691.45 146.405C691.838 146.587 692.14 146.84 692.355 147.165C692.571 147.489 692.678 147.861 692.678 148.28C692.678 148.554 692.624 148.826 692.515 149.093C692.408 149.361 692.218 149.658 691.943 149.984C691.669 150.309 691.281 150.698 690.782 151.153L689.72 152.193V152.243H692.774V153.5H687.589ZM693.622 152.222V151.011L696.658 146.227H697.702V147.903H697.084L695.17 150.933V150.989H699.485V152.222H693.622ZM697.113 153.5V151.852L697.141 151.316V146.227H698.583V153.5H697.113ZM700.524 155.545V148.045H702.015V148.962H702.083C702.149 148.815 702.245 148.666 702.37 148.514C702.498 148.36 702.664 148.232 702.867 148.131C703.073 148.027 703.329 147.974 703.634 147.974C704.032 147.974 704.399 148.079 704.735 148.287C705.071 148.493 705.34 148.804 705.541 149.221C705.743 149.635 705.843 150.155 705.843 150.78C705.843 151.388 705.745 151.902 705.548 152.321C705.354 152.738 705.089 153.054 704.753 153.269C704.419 153.482 704.045 153.589 703.631 153.589C703.337 153.589 703.088 153.54 702.882 153.443C702.678 153.346 702.511 153.224 702.381 153.077C702.251 152.928 702.151 152.778 702.083 152.626H702.036V155.545H700.524ZM702.004 150.773C702.004 151.097 702.049 151.38 702.139 151.621C702.229 151.863 702.36 152.051 702.53 152.186C702.7 152.319 702.908 152.385 703.151 152.385C703.398 152.385 703.606 152.317 703.776 152.183C703.947 152.045 704.076 151.856 704.164 151.614C704.253 151.371 704.298 151.09 704.298 150.773C704.298 150.458 704.255 150.181 704.167 149.942C704.079 149.703 703.95 149.516 703.78 149.381C703.61 149.246 703.4 149.178 703.151 149.178C702.905 149.178 702.697 149.243 702.526 149.374C702.358 149.504 702.229 149.688 702.139 149.928C702.049 150.167 702.004 150.448 702.004 150.773ZM707.921 148.045L708.922 149.952L709.948 148.045H711.5L709.92 150.773L711.543 153.5H709.998L708.922 151.614L707.864 153.5H706.301L707.921 150.773L706.358 148.045H707.921Z" fill="white"/>
<line x1="673" y1="138.5" x2="680" y2="138.5" stroke="#F07D03"/>
<line x1="673" y1="161.5" x2="680" y2="161.5" stroke="#F07D03"/>
<path d="M676.5 210V234" stroke="#F07D03"/>
<rect x="681" y="212.5" width="37" height="18" rx="3" fill="#F07D03"/>
<path d="M687.589 225.5V224.392L690.178 221.995C690.398 221.782 690.583 221.59 690.732 221.42C690.884 221.249 690.999 221.082 691.077 220.919C691.155 220.753 691.194 220.575 691.194 220.383C691.194 220.17 691.145 219.986 691.048 219.832C690.951 219.676 690.819 219.557 690.651 219.474C690.482 219.388 690.292 219.346 690.079 219.346C689.856 219.346 689.662 219.391 689.496 219.481C689.331 219.571 689.203 219.7 689.113 219.868C689.023 220.036 688.978 220.236 688.978 220.468H687.518C687.518 219.992 687.626 219.579 687.842 219.229C688.057 218.878 688.359 218.607 688.747 218.415C689.135 218.224 689.583 218.128 690.089 218.128C690.61 218.128 691.064 218.22 691.45 218.405C691.838 218.587 692.14 218.84 692.355 219.165C692.571 219.489 692.678 219.861 692.678 220.28C692.678 220.554 692.624 220.826 692.515 221.093C692.408 221.361 692.218 221.658 691.943 221.984C691.669 222.309 691.281 222.698 690.782 223.153L689.72 224.193V224.243H692.774V225.5H687.589ZM693.622 224.222V223.011L696.658 218.227H697.702V219.903H697.084L695.17 222.933V222.989H699.485V224.222H693.622ZM697.113 225.5V223.852L697.141 223.316V218.227H698.583V225.5H697.113ZM700.524 227.545V220.045H702.015V220.962H702.083C702.149 220.815 702.245 220.666 702.37 220.514C702.498 220.36 702.664 220.232 702.867 220.131C703.073 220.027 703.329 219.974 703.634 219.974C704.032 219.974 704.399 220.079 704.735 220.287C705.071 220.493 705.34 220.804 705.541 221.221C705.743 221.635 705.843 222.155 705.843 222.78C705.843 223.388 705.745 223.902 705.548 224.321C705.354 224.738 705.089 225.054 704.753 225.269C704.419 225.482 704.045 225.589 703.631 225.589C703.337 225.589 703.088 225.54 702.882 225.443C702.678 225.346 702.511 225.224 702.381 225.077C702.251 224.928 702.151 224.778 702.083 224.626H702.036V227.545H700.524ZM702.004 222.773C702.004 223.097 702.049 223.38 702.139 223.621C702.229 223.863 702.36 224.051 702.53 224.186C702.7 224.319 702.908 224.385 703.151 224.385C703.398 224.385 703.606 224.317 703.776 224.183C703.947 224.045 704.076 223.856 704.164 223.614C704.253 223.371 704.298 223.09 704.298 222.773C704.298 222.458 704.255 222.181 704.167 221.942C704.079 221.703 703.95 221.516 703.78 221.381C703.61 221.246 703.4 221.178 703.151 221.178C702.905 221.178 702.697 221.243 702.526 221.374C702.358 221.504 702.229 221.688 702.139 221.928C702.049 222.167 702.004 222.448 702.004 222.773ZM707.921 220.045L708.922 221.952L709.948 220.045H711.5L709.92 222.773L711.543 225.5H709.998L708.922 223.614L707.864 225.5H706.301L707.921 222.773L706.358 220.045H707.921Z" fill="white"/>
<line x1="673" y1="210.5" x2="680" y2="210.5" stroke="#F07D03"/>
<line x1="673" y1="233.5" x2="680" y2="233.5" stroke="#F07D03"/>
<rect x="641" y="1" width="24" height="233" fill="#EE7D22" fill-opacity="0.24"/>
<rect x="21" y="1" width="24" height="233" fill="#EE7D22" fill-opacity="0.24"/>
<path d="M641.5 245.5H665.5" stroke="#F07D03"/>
<rect x="636" y="253" width="37" height="18" rx="3" fill="#F07D03"/>
<path d="M642.589 266V264.892L645.178 262.495C645.398 262.282 645.583 262.09 645.732 261.92C645.884 261.749 645.999 261.582 646.077 261.419C646.155 261.253 646.194 261.075 646.194 260.883C646.194 260.67 646.145 260.486 646.048 260.332C645.951 260.176 645.819 260.057 645.651 259.974C645.482 259.888 645.292 259.846 645.079 259.846C644.856 259.846 644.662 259.891 644.496 259.981C644.331 260.071 644.203 260.2 644.113 260.368C644.023 260.536 643.978 260.736 643.978 260.968H642.518C642.518 260.492 642.626 260.079 642.842 259.729C643.057 259.378 643.359 259.107 643.747 258.915C644.135 258.724 644.583 258.628 645.089 258.628C645.61 258.628 646.064 258.72 646.45 258.905C646.838 259.087 647.14 259.34 647.355 259.665C647.571 259.989 647.678 260.361 647.678 260.78C647.678 261.054 647.624 261.326 647.515 261.593C647.408 261.861 647.218 262.158 646.943 262.484C646.669 262.809 646.281 263.198 645.782 263.653L644.72 264.693V264.743H647.774V266H642.589ZM648.622 264.722V263.511L651.658 258.727H652.702V260.403H652.084L650.17 263.433V263.489H654.485V264.722H648.622ZM652.113 266V264.352L652.141 263.816V258.727H653.583V266H652.113ZM655.524 268.045V260.545H657.015V261.462H657.083C657.149 261.315 657.245 261.166 657.37 261.014C657.498 260.86 657.664 260.732 657.867 260.631C658.073 260.527 658.329 260.474 658.634 260.474C659.032 260.474 659.399 260.579 659.735 260.787C660.071 260.993 660.34 261.304 660.541 261.721C660.743 262.135 660.843 262.655 660.843 263.28C660.843 263.888 660.745 264.402 660.548 264.821C660.354 265.238 660.089 265.554 659.753 265.769C659.419 265.982 659.045 266.089 658.631 266.089C658.337 266.089 658.088 266.04 657.882 265.943C657.678 265.846 657.511 265.724 657.381 265.577C657.251 265.428 657.151 265.278 657.083 265.126H657.036V268.045H655.524ZM657.004 263.273C657.004 263.597 657.049 263.88 657.139 264.121C657.229 264.363 657.36 264.551 657.53 264.686C657.7 264.819 657.908 264.885 658.151 264.885C658.398 264.885 658.606 264.817 658.776 264.683C658.947 264.545 659.076 264.356 659.164 264.114C659.253 263.871 659.298 263.59 659.298 263.273C659.298 262.958 659.255 262.681 659.167 262.442C659.079 262.203 658.95 262.016 658.78 261.881C658.61 261.746 658.4 261.678 658.151 261.678C657.905 261.678 657.697 261.743 657.526 261.874C657.358 262.004 657.229 262.188 657.139 262.428C657.049 262.667 657.004 262.948 657.004 263.273ZM662.921 260.545L663.922 262.452L664.948 260.545H666.5L664.92 263.273L666.543 266H664.998L663.922 264.114L662.864 266H661.301L662.921 263.273L661.358 260.545H662.921Z" fill="white"/>
<line x1="642" y1="249" x2="642" y2="242" stroke="#F07D03"/>
<line x1="665" y1="249" x2="665" y2="242" stroke="#F07D03"/>
<path d="M21.5 245.5H45.5" stroke="#F07D03"/>
<rect x="16" y="253" width="37" height="18" rx="3" fill="#F07D03"/>
<path d="M22.5895 266V264.892L25.1783 262.495C25.3984 262.282 25.5831 262.09 25.7322 261.92C25.8838 261.749 25.9986 261.582 26.0767 261.419C26.1548 261.253 26.1939 261.075 26.1939 260.883C26.1939 260.67 26.1454 260.486 26.0483 260.332C25.9512 260.176 25.8187 260.057 25.6506 259.974C25.4825 259.888 25.2919 259.846 25.0788 259.846C24.8563 259.846 24.6622 259.891 24.4964 259.981C24.3307 260.071 24.2029 260.2 24.1129 260.368C24.023 260.536 23.978 260.736 23.978 260.968H22.5185C22.5185 260.492 22.6262 260.079 22.8416 259.729C23.0571 259.378 23.3589 259.107 23.7472 258.915C24.1354 258.724 24.5829 258.628 25.0895 258.628C25.6103 258.628 26.0637 258.72 26.4496 258.905C26.8378 259.087 27.1397 259.34 27.3551 259.665C27.5705 259.989 27.6783 260.361 27.6783 260.78C27.6783 261.054 27.6238 261.326 27.5149 261.593C27.4084 261.861 27.2178 262.158 26.9432 262.484C26.6686 262.809 26.2815 263.198 25.782 263.653L24.7202 264.693V264.743H27.7741V266H22.5895ZM28.622 264.722V263.511L31.6582 258.727H32.7022V260.403H32.0843L30.1703 263.433V263.489H34.4849V264.722H28.622ZM32.1127 266V264.352L32.1412 263.816V258.727H33.5829V266H32.1127ZM35.5236 268.045V260.545H37.0151V261.462H37.0826C37.1489 261.315 37.2447 261.166 37.3702 261.014C37.498 260.86 37.6638 260.732 37.8674 260.631C38.0733 260.527 38.329 260.474 38.6344 260.474C39.0321 260.474 39.3991 260.579 39.7353 260.787C40.0714 260.993 40.3401 261.304 40.5414 261.721C40.7426 262.135 40.8432 262.655 40.8432 263.28C40.8432 263.888 40.745 264.402 40.5485 264.821C40.3543 265.238 40.0892 265.554 39.753 265.769C39.4192 265.982 39.0452 266.089 38.6309 266.089C38.3373 266.089 38.0875 266.04 37.8816 265.943C37.678 265.846 37.5111 265.724 37.3809 265.577C37.2507 265.428 37.1512 265.278 37.0826 265.126H37.0364V268.045H35.5236ZM37.0044 263.273C37.0044 263.597 37.0494 263.88 37.1394 264.121C37.2293 264.363 37.3596 264.551 37.53 264.686C37.7005 264.819 37.9076 264.885 38.1515 264.885C38.3977 264.885 38.606 264.817 38.7765 264.683C38.9469 264.545 39.0759 264.356 39.1635 264.114C39.2535 263.871 39.2985 263.59 39.2985 263.273C39.2985 262.958 39.2547 262.681 39.1671 262.442C39.0795 262.203 38.9505 262.016 38.78 261.881C38.6096 261.746 38.4 261.678 38.1515 261.678C37.9052 261.678 37.6969 261.743 37.5265 261.874C37.3584 262.004 37.2293 262.188 37.1394 262.428C37.0494 262.667 37.0044 262.948 37.0044 263.273ZM42.9206 260.545L43.9221 262.452L44.9483 260.545H46.5002L44.9199 263.273L46.5428 266H44.998L43.9221 264.114L42.8638 266H41.3013L42.9206 263.273L41.3581 260.545H42.9206Z" fill="white"/>
<line x1="22" y1="249" x2="22" y2="242" stroke="#F07D03"/>
<line x1="45" y1="249" x2="45" y2="242" stroke="#F07D03"/>
<defs>
<filter id="filter0_dd_7128_11694" x="0" y="0" width="686" height="275" filterUnits="userSpaceOnUse" color-interpolation-filters="sRGB">
<feFlood flood-opacity="0" result="BackgroundImageFix"/>
<feColorMatrix in="SourceAlpha" type="matrix" values="0 0 0 0 0 0 0 0 0 0 0 0 0 0 0 0 0 0 127 0" result="hardAlpha"/>
<feMorphology radius="4" operator="erode" in="SourceAlpha" result="effect1_dropShadow_7128_11694"/>
<feOffset dy="8"/>
<feGaussianBlur stdDeviation="4"/>
<feColorMatrix type="matrix" values="0 0 0 0 0.0627451 0 0 0 0 0.0941176 0 0 0 0 0.156863 0 0 0 0.04 0"/>
<feBlend mode="normal" in2="BackgroundImageFix" result="effect1_dropShadow_7128_11694"/>
<feColorMatrix in="SourceAlpha" type="matrix" values="0 0 0 0 0 0 0 0 0 0 0 0 0 0 0 0 0 0 127 0" result="hardAlpha"/>
<feMorphology radius="4" operator="erode" in="SourceAlpha" result="effect2_dropShadow_7128_11694"/>
<feOffset dy="20"/>
<feGaussianBlur stdDeviation="12"/>
<feColorMatrix type="matrix" values="0 0 0 0 0.0627451 0 0 0 0 0.0941176 0 0 0 0 0.156863 0 0 0 0.1 0"/>
<feBlend mode="normal" in2="effect1_dropShadow_7128_11694" result="effect2_dropShadow_7128_11694"/>
<feBlend mode="normal" in="SourceGraphic" in2="effect2_dropShadow_7128_11694" result="shape"/>
</filter>
</defs>
</svg>
