<svg width="519" height="414" viewBox="0 0 519 414" fill="none" xmlns="http://www.w3.org/2000/svg">
<path d="M83.9062 48.4062V58.9531C83.9062 59.9948 84.5573 60.5156 85.8594 60.5156C87.1615 60.5156 87.8125 59.9948 87.8125 58.9531V57.7812H89.7656V58.9531C89.7656 61.0365 88.4635 62.0781 85.8594 62.0781C83.2552 62.0781 81.9531 61.0365 81.9531 58.9531V48.4062C81.9531 47.9792 81.6927 47.5573 81.1719 47.1406V46.4531C81.1719 45.6719 81.6667 45.2812 82.6562 45.2812H84.2969V46.8438H82.9688V46.9375C83.5938 47.3542 83.9062 47.8438 83.9062 48.4062ZM94.2969 48.4062C94.2969 47.9792 94.0365 47.5573 93.5156 47.1406V46.4531C93.5156 45.6719 94.0104 45.2812 95 45.2812H96.6406V46.8438H95.3125V46.9375C95.9375 47.3542 96.25 47.8438 96.25 48.4062V53.0938C96.25 55.6979 94.8438 57 92.0312 57C89.2188 57 87.8125 55.6979 87.8125 53.0938V48.4062C87.8125 47.9792 87.5521 47.5573 87.0312 47.1406V46.4531C87.0312 45.6719 87.526 45.2812 88.5156 45.2812H90.1562V46.8438H88.8281V46.9375C89.4531 47.3542 89.7656 47.8438 89.7656 48.4062V53.0938C89.7656 54.6562 90.5208 55.4375 92.0312 55.4375C93.5417 55.4375 94.2969 54.6562 94.2969 53.0938V48.4062ZM107.031 49.5C106.906 49.5 106.823 49.5286 106.781 49.5859C106.74 49.638 106.719 49.6979 106.719 49.7656C106.719 49.8333 106.737 49.888 106.773 49.9297C106.815 49.987 106.901 50.0156 107.031 50.0156V49.5ZM100.156 48.4062C100.156 47.9896 100.026 47.5729 99.7656 47.1562V46.8438C99.7656 45.8021 100.391 45.2812 101.641 45.2812H108.594V46.8438H102.188C101.875 46.8438 101.719 46.8958 101.719 47C101.979 47.4167 102.109 47.8854 102.109 48.4062V54.6094L104.375 52.6875L106.641 54.6094V51.1172C106.224 51.1016 105.901 50.9427 105.672 50.6406C105.484 50.4115 105.391 50.1224 105.391 49.7734C105.391 49.4245 105.503 49.1094 105.727 48.8281C105.951 48.5469 106.385 48.4062 107.031 48.4062C107.625 48.4062 108.034 48.5469 108.258 48.8281C108.482 49.1094 108.594 49.4245 108.594 49.7734V57H106.906L104.375 54.8281L101.844 57H100.156V48.4062ZM108.594 45.2812H110.469C113.125 45.2812 114.453 46.3229 114.453 48.4062V57H112.5V48.4062C112.5 47.3646 111.823 46.8438 110.469 46.8438H108.594V45.2812ZM126.797 51.8984V53.875C126.797 55.9583 125.964 57 124.297 57C123.062 57 122.188 56.6745 121.672 56.0234C121.156 55.3724 120.703 55.0469 120.312 55.0469V57H118.359V52.3125H120.312V53.4844C121.172 53.4844 121.885 53.8099 122.453 54.4609C123.026 55.112 123.529 55.4375 123.961 55.4375C124.549 55.4375 124.844 54.9167 124.844 53.875V53.0391C120.521 52.1016 118.359 50.5573 118.359 48.4062C118.359 46.3229 119.766 45.2812 122.578 45.2812C125.391 45.2812 126.797 46.3229 126.797 48.4062C126.797 49.8594 125.969 50.5859 124.312 50.5859C123.859 50.5859 123.49 50.4792 123.203 50.2656V48.6797C123.839 48.8672 124.245 48.9609 124.422 48.9609C124.703 48.9609 124.844 48.776 124.844 48.4062C124.844 47.3646 124.089 46.8438 122.578 46.8438C121.068 46.8438 120.312 47.3646 120.312 48.4062C120.312 49.7448 122.474 50.9089 126.797 51.8984ZM137.188 48.4062C137.188 47.9792 136.927 47.5573 136.406 47.1406V46.4531C136.406 45.6719 136.901 45.2812 137.891 45.2812H139.531V46.8438H138.203V46.9375C138.828 47.3542 139.141 47.8438 139.141 48.4062V53.0938C139.141 55.6979 137.734 57 134.922 57C132.109 57 130.703 55.6979 130.703 53.0938V48.4062C130.703 47.9792 130.443 47.5573 129.922 47.1406V46.4531C129.922 45.6719 130.417 45.2812 131.406 45.2812H133.047V46.8438H131.719V46.9375C132.344 47.3542 132.656 47.8438 132.656 48.4062V53.0938C132.656 54.6562 133.411 55.4375 134.922 55.4375C136.432 55.4375 137.188 54.6562 137.188 53.0938V48.4062ZM150.312 52.2031C150.312 52.0521 150.26 51.9766 150.156 51.9766C150.052 51.9766 150 52.0547 150 52.2109C150 52.4089 150.104 52.5182 150.312 52.5391V52.2031ZM150.391 53.5391V53.875C150.391 55.9583 149.349 57 147.266 57C145.182 57 144.141 55.9583 144.141 53.875V52.3125H146.094V53.875C146.094 54.9167 146.484 55.4375 147.266 55.4375C148.047 55.4375 148.438 54.9167 148.438 53.875V53.2266C144.844 51.9297 143.047 50.3229 143.047 48.4062C143.047 46.3229 144.453 45.2812 147.266 45.2812C150.078 45.2812 151.484 46.3229 151.484 48.4062C151.484 49.8594 150.656 50.5859 149 50.5859C148.547 50.5859 148.177 50.4792 147.891 50.2656V48.6016C148.526 48.7891 148.932 48.8828 149.109 48.8828C149.391 48.8828 149.531 48.724 149.531 48.4062C149.531 47.3646 148.776 46.8438 147.266 46.8438C145.755 46.8438 145 47.3646 145 48.4062C145 50.0521 146.146 51.1536 148.438 51.7109C148.438 51.2786 148.906 51.0625 149.844 51.0625C150.938 51.0625 151.484 51.388 151.484 52.0391C151.484 52.6276 151.378 53.0182 151.164 53.2109C150.956 53.4036 150.698 53.513 150.391 53.5391Z" fill="#344054"/>
<path d="M83.4766 87.8281C83.5339 87.8281 83.5807 87.8047 83.6172 87.7578C83.6536 87.7057 83.6719 87.5339 83.6719 87.2422C83.6719 86.9505 83.6536 86.7812 83.6172 86.7344C83.5807 86.6823 83.5339 86.6562 83.4766 86.6562H83.2812V87.8281H83.4766ZM83.2812 85.5C83.3438 85.4896 83.4089 85.4844 83.4766 85.4844C83.7786 85.4844 84.0156 85.612 84.1875 85.8672C84.3646 86.1172 84.4531 86.5755 84.4531 87.2422C84.4531 87.9089 84.3646 88.3698 84.1875 88.625C84.0156 88.875 83.6875 89 83.2031 89C82.7188 89 82.388 88.875 82.2109 88.625C82.0391 88.3698 81.9531 87.9089 81.9531 87.2422V80.4062C81.849 80.0417 81.5885 79.651 81.1719 79.2344V78.4531C81.1719 77.6719 81.5625 77.2812 82.3438 77.2812H83.6719V78.4531H82.7344C82.474 78.4531 82.3438 78.5833 82.3438 78.8438C82.9688 79.2604 83.2812 79.7812 83.2812 80.4062V85.5ZM95 84.2344V85.875C95 87.9583 94.2708 89 92.8125 89C91.7396 89 90.9453 88.6745 90.4297 88.0234C89.9141 87.3724 89.276 87.0469 88.5156 87.0469V89H87.1875V84.3125H88.5156V85.875C89.4271 85.875 90.1667 86.2005 90.7344 86.8516C91.3073 87.5026 91.888 87.8281 92.4766 87.8281C93.2734 87.8281 93.6719 87.1771 93.6719 85.875V85.0938C89.349 84.1562 87.1875 82.5938 87.1875 80.4062C87.1875 78.3229 88.4896 77.2812 91.0938 77.2812C93.6979 77.2812 95 78.3229 95 80.4062C95 81.8594 94.276 82.5859 92.8281 82.5859C92.5 82.5859 92.2344 82.5104 92.0312 82.3594V81.1875C92.401 81.2969 92.7031 81.3516 92.9375 81.3516C93.4271 81.3516 93.6719 81.0365 93.6719 80.4062C93.6719 79.1042 92.8125 78.4531 91.0938 78.4531C89.375 78.4531 88.5156 79.1042 88.5156 80.4062C88.5156 81.9688 90.6771 83.2448 95 84.2344ZM100.078 79.4297C100.078 79.6224 100.128 79.7682 100.227 79.8672C100.326 79.9661 100.471 80.0156 100.664 80.0156C100.862 80.0156 101.008 79.9661 101.102 79.8672C101.201 79.7682 101.25 79.6224 101.25 79.4297C101.25 79.2318 101.201 79.0859 101.102 78.9922C101.008 78.8932 100.862 78.8438 100.664 78.8438C100.471 78.8438 100.326 78.8932 100.227 78.9922C100.128 79.0859 100.078 79.2318 100.078 79.4297ZM102.422 79.4297C102.422 80.0182 102.276 80.4583 101.984 80.75C101.693 81.0417 101.253 81.1875 100.664 81.1875C100.076 81.1875 99.6354 81.0417 99.3438 80.75C99.0521 80.4583 98.9062 80.0182 98.9062 79.4297C98.9062 78.8411 99.0521 78.401 99.3438 78.1094C99.6354 77.8177 100.076 77.6719 100.664 77.6719C101.253 77.6719 101.693 77.8177 101.984 78.1094C102.276 78.401 102.422 78.8411 102.422 79.4297ZM100.078 86.8516C100.078 87.0443 100.128 87.1901 100.227 87.2891C100.326 87.388 100.471 87.4375 100.664 87.4375C100.862 87.4375 101.008 87.388 101.102 87.2891C101.201 87.1901 101.25 87.0443 101.25 86.8516C101.25 86.6536 101.201 86.5078 101.102 86.4141C101.008 86.3151 100.862 86.2656 100.664 86.2656C100.471 86.2656 100.326 86.3151 100.227 86.4141C100.128 86.5078 100.078 86.6536 100.078 86.8516ZM102.422 86.8516C102.422 87.4401 102.276 87.8802 101.984 88.1719C101.693 88.4635 101.253 88.6094 100.664 88.6094C100.076 88.6094 99.6354 88.4635 99.3438 88.1719C99.0521 87.8802 98.9062 87.4401 98.9062 86.8516C98.9062 86.263 99.0521 85.8229 99.3438 85.5312C99.6354 85.2396 100.076 85.0938 100.664 85.0938C101.253 85.0938 101.693 85.2396 101.984 85.5312C102.276 85.8229 102.422 86.263 102.422 86.8516ZM114.141 77.2812V78.4531H106.328V77.2812H114.141ZM107.656 86.2656C108.047 85.4844 108.672 85.0938 109.531 85.0938H110.234V86.3438H109.531C108.672 86.3438 108.047 86.7344 107.656 87.5156V89H106.328V83.5312C106.328 80.9271 107.63 79.625 110.234 79.625C112.839 79.625 114.141 80.9271 114.141 83.5312V89H112.812V83.5312C112.812 81.7083 111.953 80.7969 110.234 80.7969C108.516 80.7969 107.656 81.7083 107.656 83.5312V86.2656ZM109.453 73.9219H112.969C111.672 73.0365 110.63 72.5938 109.844 72.5938C108.802 72.5938 108.281 72.8151 108.281 73.2578C108.281 73.7005 108.672 73.9219 109.453 73.9219ZM113.125 72.7578V70.6406H114.141V74.9375H109.062C107.76 74.9375 107.109 74.4167 107.109 73.375C107.109 72.0729 108.021 71.4219 109.844 71.4219C110.438 71.4219 111.01 71.5365 111.562 71.7656V70.6406H112.578V72.3281C112.646 72.375 112.711 72.4245 112.773 72.4766C112.898 72.5755 113.016 72.6693 113.125 72.7578ZM118.047 80.4062C118.047 80.0417 117.917 79.651 117.656 79.2344V78.8438C117.656 77.8021 118.177 77.2812 119.219 77.2812H121.562L123.359 78.4531H123.984C124.349 78.4531 124.531 78.2708 124.531 77.9062V76.1094H125.859V77.9062C125.859 79.0521 125.417 79.625 124.531 79.625H123.125L121.328 78.4531H119.766C119.245 78.4531 118.984 78.6094 118.984 78.9219C119.245 79.3385 119.375 79.8333 119.375 80.4062V87.4375L121.953 85.25L124.531 87.4375V80.4062H125.859V89H124.688L121.953 86.6562L119.219 89H118.047V80.4062ZM125.859 77.2812H127.422C129.505 77.2812 130.547 78.3229 130.547 80.4062V89H129.219V80.4062C129.219 79.1042 128.62 78.4531 127.422 78.4531H125.859V77.2812ZM134.453 87.8281V86.6562H134.258C134.201 86.6562 134.154 86.6823 134.117 86.7344C134.081 86.7812 134.062 86.9505 134.062 87.2422C134.062 87.5339 134.081 87.7057 134.117 87.7578C134.154 87.8047 134.201 87.8281 134.258 87.8281H134.453ZM140.938 87.8281V86.6562H140.742C140.685 86.6562 140.638 86.6823 140.602 86.7344C140.565 86.7812 140.547 86.9505 140.547 87.2422C140.547 87.5339 140.565 87.7057 140.602 87.7578C140.638 87.8047 140.685 87.8281 140.742 87.8281H140.938ZM135.781 83.5312V87.2422C135.781 87.9089 135.693 88.3698 135.516 88.625C135.344 88.875 135.016 89 134.531 89C134.047 89 133.716 88.875 133.539 88.625C133.367 88.3698 133.281 87.9089 133.281 87.2422C133.281 86.5755 133.367 86.1172 133.539 85.8672C133.716 85.612 133.956 85.4844 134.258 85.4844C134.326 85.4844 134.391 85.4896 134.453 85.5V80.4062C134.349 80.0417 134.089 79.651 133.672 79.2344V78.4531C133.672 77.6719 134.062 77.2812 134.844 77.2812H136.172V78.4531H135.234C134.974 78.4531 134.844 78.5833 134.844 78.8438C135.469 79.2604 135.781 79.7812 135.781 80.4062V82.3594H140.938V80.4062C140.833 80.0417 140.573 79.651 140.156 79.2344V78.4531C140.156 77.6719 140.547 77.2812 141.328 77.2812H142.656V78.4531H141.719C141.458 78.4531 141.328 78.5833 141.328 78.8438C141.953 79.2604 142.266 79.7812 142.266 80.4062V87.2422C142.266 87.9089 142.177 88.3698 142 88.625C141.828 88.875 141.5 89 141.016 89C140.531 89 140.201 88.875 140.023 88.625C139.852 88.3698 139.766 87.9089 139.766 87.2422C139.766 86.5755 139.852 86.1172 140.023 85.8672C140.201 85.612 140.44 85.4844 140.742 85.4844C140.81 85.4844 140.875 85.4896 140.938 85.5V83.5312H135.781ZM147.344 86.6562V87.8281C147.453 87.8281 147.544 87.7995 147.617 87.7422C147.695 87.6797 147.734 87.513 147.734 87.2422C147.734 86.9714 147.695 86.8073 147.617 86.75C147.544 86.6875 147.453 86.6562 147.344 86.6562ZM153.984 77.2812V78.4531H146.172V77.2812H153.984ZM146.172 83.5312C146.172 80.9271 147.474 79.625 150.078 79.625C152.682 79.625 153.984 80.9271 153.984 83.5312V89H152.656V83.5312C152.656 81.7083 151.797 80.7969 150.078 80.7969C148.359 80.7969 147.5 81.7083 147.5 83.5312V85.5625C147.62 85.5104 147.758 85.4844 147.914 85.4844C148.07 85.4844 148.234 85.625 148.406 85.9062C148.583 86.1823 148.672 86.6276 148.672 87.2422C148.672 87.8568 148.557 88.3047 148.328 88.5859C148.104 88.862 147.802 89 147.422 89C147.042 89 146.74 88.8594 146.516 88.5781C146.339 88.3646 146.229 88.0495 146.188 87.6328H146.172V83.5312ZM147.734 92.0469C147.734 92.6823 147.901 93 148.234 93C148.417 93 148.667 92.9453 148.984 92.8359V93.8516C148.833 94.0026 148.568 94.0781 148.188 94.0781C147.104 94.0781 146.562 93.401 146.562 92.0469C146.562 90.5365 147.279 89.7812 148.711 89.7812C149.648 89.7812 150.372 90.1719 150.883 90.9531C151.388 91.7344 151.81 92.2552 152.148 92.5156C152.487 92.776 152.969 92.9062 153.594 92.9062V94.0781C152.812 94.0781 152.201 93.9089 151.758 93.5703C151.315 93.2318 150.867 92.7109 150.414 92.0078C149.956 91.3047 149.388 90.9531 148.711 90.9531C148.06 90.9531 147.734 91.3177 147.734 92.0469ZM164.375 80.4062C164.375 80.0417 164.115 79.651 163.594 79.2344V78.4531C163.594 77.6719 163.984 77.2812 164.766 77.2812H166.094V78.4531H165.156C164.896 78.4531 164.766 78.5833 164.766 78.8438C165.391 79.2604 165.703 79.7812 165.703 80.4062V85.0938C165.703 87.6979 164.401 89 161.797 89C159.193 89 157.891 87.6979 157.891 85.0938V80.4062C157.891 80.0417 157.63 79.651 157.109 79.2344V78.4531C157.109 77.6719 157.5 77.2812 158.281 77.2812H159.609V78.4531H158.672C158.411 78.4531 158.281 78.5833 158.281 78.8438C158.906 79.2604 159.219 79.7812 159.219 80.4062V85.0938C159.219 86.9167 160.078 87.8281 161.797 87.8281C163.516 87.8281 164.375 86.9167 164.375 85.0938V80.4062ZM176.328 84.3828C176.365 84.3932 176.401 84.3984 176.438 84.3984C176.573 84.3984 176.641 84.2917 176.641 84.0781C176.641 83.8698 176.589 83.7656 176.484 83.7656C176.38 83.7656 176.328 83.8672 176.328 84.0703V84.3828ZM176.328 85.0859V85.875C176.328 87.9583 175.391 89 173.516 89C171.641 89 170.703 87.9583 170.703 85.875V84.3125H172.031V85.875C172.031 87.1771 172.526 87.8281 173.516 87.8281C174.505 87.8281 175 87.1771 175 85.875V84.8984C171.406 83.862 169.609 82.3646 169.609 80.4062C169.609 78.3229 170.911 77.2812 173.516 77.2812C176.12 77.2812 177.422 78.3229 177.422 80.4062C177.422 81.8594 176.698 82.5859 175.25 82.5859C174.922 82.5859 174.656 82.5104 174.453 82.3594V81.1875C174.823 81.2969 175.125 81.3516 175.359 81.3516C175.849 81.3516 176.094 81.0365 176.094 80.4062C176.094 79.1042 175.234 78.4531 173.516 78.4531C171.797 78.4531 170.938 79.1042 170.938 80.4062C170.938 82.0156 172.292 83.1484 175 83.8047C175 83.3099 175.365 83.0625 176.094 83.0625C176.979 83.0625 177.422 83.388 177.422 84.0391C177.422 84.4297 177.333 84.7057 177.156 84.8672C176.979 85.0286 176.789 85.1094 176.586 85.1094C176.503 85.1094 176.417 85.1016 176.328 85.0859ZM182.852 87.8281C182.909 87.8281 182.956 87.8047 182.992 87.7578C183.029 87.7057 183.047 87.5339 183.047 87.2422C183.047 86.9505 183.029 86.7812 182.992 86.7344C182.956 86.6823 182.909 86.6562 182.852 86.6562H182.656V87.8281H182.852ZM182.656 85.5C182.719 85.4896 182.784 85.4844 182.852 85.4844C183.154 85.4844 183.391 85.612 183.562 85.8672C183.74 86.1172 183.828 86.5755 183.828 87.2422C183.828 87.9089 183.74 88.3698 183.562 88.625C183.391 88.875 183.062 89 182.578 89C182.094 89 181.763 88.875 181.586 88.625C181.414 88.3698 181.328 87.9089 181.328 87.2422V80.4062C181.224 80.0417 180.964 79.651 180.547 79.2344V78.4531C180.547 77.6719 180.938 77.2812 181.719 77.2812H183.047V78.4531H182.109C181.849 78.4531 181.719 78.5833 181.719 78.8438C182.344 79.2604 182.656 79.7812 182.656 80.4062V85.5ZM181.602 75.4062C182.122 75.4062 182.383 75.1198 182.383 74.5469C182.383 73.4531 181.992 72.9062 181.211 72.9062C180.872 72.9062 180.586 73.0104 180.352 73.2188L179.961 72.2812C180.299 71.9688 180.716 71.8125 181.211 71.8125C182.721 71.8125 183.477 72.724 183.477 74.5469C183.477 75.849 182.852 76.5 181.602 76.5C180.508 76.5 179.961 76.0625 179.961 75.1875C179.961 74.7552 180.057 74.4505 180.25 74.2734C180.448 74.0911 180.792 74 181.281 74V74.9375C181.13 74.9375 181.055 75.0156 181.055 75.1719C181.055 75.3281 181.237 75.4062 181.602 75.4062ZM187.734 86.6562V87.8281C187.844 87.8281 187.935 87.7995 188.008 87.7422C188.086 87.6797 188.125 87.513 188.125 87.2422C188.125 86.9714 188.086 86.8073 188.008 86.75C187.935 86.6875 187.844 86.6562 187.734 86.6562ZM186.562 81.1875C186.562 78.5833 187.651 77.2812 189.828 77.2812C192 77.2812 193.086 78.5833 193.086 81.1875V87.6719L195.156 84.9375L197.227 87.6719V81.1875C197.227 78.5833 198.315 77.2812 200.492 77.2812C202.664 77.2812 203.75 78.5833 203.75 81.1875V89H202.422V81.1875C202.422 79.3646 201.779 78.4531 200.492 78.4531C199.201 78.4531 198.555 79.3646 198.555 81.1875V89H196.836L195.156 86.6562L193.477 89H191.758V81.1875C191.758 79.3646 191.089 78.4531 189.75 78.4531C188.51 78.4531 187.891 79.3646 187.891 81.1875V85.5625C188.01 85.5104 188.148 85.4844 188.305 85.4844C188.461 85.4844 188.625 85.625 188.797 85.9062C188.974 86.1823 189.062 86.6276 189.062 87.2422C189.062 87.8568 188.948 88.3047 188.719 88.5859C188.495 88.862 188.193 89 187.812 89C187.432 89 187.13 88.8594 186.906 88.5781C186.729 88.3646 186.62 88.0495 186.578 87.6328H186.562V81.1875ZM215.469 84.2344V85.875C215.469 87.9583 214.74 89 213.281 89C212.208 89 211.414 88.6745 210.898 88.0234C210.383 87.3724 209.745 87.0469 208.984 87.0469V89H207.656V84.3125H208.984V85.875C209.896 85.875 210.635 86.2005 211.203 86.8516C211.776 87.5026 212.357 87.8281 212.945 87.8281C213.742 87.8281 214.141 87.1771 214.141 85.875V85.0938C209.818 84.1562 207.656 82.5938 207.656 80.4062C207.656 78.3229 208.958 77.2812 211.562 77.2812C214.167 77.2812 215.469 78.3229 215.469 80.4062C215.469 81.8594 214.745 82.5859 213.297 82.5859C212.969 82.5859 212.703 82.5104 212.5 82.3594V81.1875C212.87 81.2969 213.172 81.3516 213.406 81.3516C213.896 81.3516 214.141 81.0365 214.141 80.4062C214.141 79.1042 213.281 78.4531 211.562 78.4531C209.844 78.4531 208.984 79.1042 208.984 80.4062C208.984 81.9688 211.146 83.2448 215.469 84.2344ZM215.469 77.2812H217.031C219.115 77.2812 220.156 78.3229 220.156 80.4062V89H218.828V80.4062C218.828 79.1042 218.229 78.4531 217.031 78.4531H215.469V77.2812ZM215.859 73.1797C215.859 73.3724 215.909 73.5182 216.008 73.6172C216.107 73.7161 216.253 73.7656 216.445 73.7656C216.643 73.7656 216.792 73.7161 216.891 73.6172C216.984 73.5182 217.031 73.3724 217.031 73.1797C217.031 72.9818 216.984 72.8359 216.891 72.7422C216.792 72.6432 216.643 72.5938 216.445 72.5938C216.253 72.5938 216.107 72.6432 216.008 72.7422C215.909 72.8359 215.859 72.9818 215.859 73.1797ZM218.203 73.1797C218.203 73.7682 218.057 74.2083 217.766 74.5C217.474 74.7917 217.034 74.9375 216.445 74.9375C215.857 74.9375 215.417 74.7917 215.125 74.5C214.833 74.2083 214.688 73.7682 214.688 73.1797C214.688 72.5911 214.833 72.151 215.125 71.8594C215.417 71.5677 215.857 71.4219 216.445 71.4219C217.034 71.4219 217.474 71.5677 217.766 71.8594C218.057 72.151 218.203 72.5911 218.203 73.1797Z" fill="#667085"/>
<rect x="80.5" y="100.5" width="360" height="47" rx="7.5" fill="white"/>
<path d="M99.125 126.656V127.828C99.2344 127.828 99.3255 127.799 99.3984 127.742C99.4766 127.68 99.5156 127.513 99.5156 127.242C99.5156 126.971 99.4766 126.807 99.3984 126.75C99.3255 126.688 99.2344 126.656 99.125 126.656ZM111.234 120.406V125.094C111.234 127.698 110.062 129 107.719 129C105.193 129 103.93 127.698 103.93 125.094V123.531C103.93 121.708 103.156 120.797 101.609 120.797C100.057 120.797 99.2812 121.708 99.2812 123.531V125.562C99.401 125.51 99.5391 125.484 99.6953 125.484C99.8516 125.484 100.016 125.625 100.188 125.906C100.365 126.182 100.453 126.628 100.453 127.242C100.453 127.857 100.339 128.305 100.109 128.586C99.8854 128.862 99.5833 129 99.2031 129C98.8229 129 98.5208 128.859 98.2969 128.578C98.1198 128.365 98.0104 128.049 97.9688 127.633H97.9531V123.531C97.9531 121.906 98.4271 120.789 99.375 120.18C99.1406 119.789 98.7969 119.474 98.3438 119.234V118.453C98.3438 117.672 98.7344 117.281 99.5156 117.281H103.812V118.453H100.062C99.8021 118.453 99.6719 118.583 99.6719 118.844C100.078 119.062 100.398 119.349 100.633 119.703C100.935 119.651 101.26 119.625 101.609 119.625C104.042 119.625 105.258 120.927 105.258 123.531V125.094C105.258 126.917 106.078 127.828 107.719 127.828C109.177 127.828 109.906 126.917 109.906 125.094V120.406C109.906 120.042 109.646 119.651 109.125 119.234V118.453C109.125 117.672 109.516 117.281 110.297 117.281H111.625V118.453H110.688C110.427 118.453 110.297 118.583 110.297 118.844C110.922 119.26 111.234 119.781 111.234 120.406ZM115.141 127.828V126.656H114.945C114.888 126.656 114.841 126.682 114.805 126.734C114.768 126.781 114.75 126.951 114.75 127.242C114.75 127.534 114.768 127.706 114.805 127.758C114.841 127.805 114.888 127.828 114.945 127.828H115.141ZM116.469 120.406V127.242C116.469 127.909 116.38 128.37 116.203 128.625C116.031 128.875 115.703 129 115.219 129C114.734 129 114.404 128.875 114.227 128.625C114.055 128.37 113.969 127.909 113.969 127.242C113.969 126.576 114.055 126.117 114.227 125.867C114.404 125.612 114.643 125.484 114.945 125.484C115.013 125.484 115.078 125.49 115.141 125.5V120.406C115.036 120.042 114.776 119.651 114.359 119.234V118.453C114.359 117.672 114.75 117.281 115.531 117.281H116.859V118.453H115.922C115.661 118.453 115.531 118.583 115.531 118.844C116.156 119.26 116.469 119.781 116.469 120.406ZM121.898 127.828C121.956 127.828 122.003 127.805 122.039 127.758C122.076 127.706 122.094 127.534 122.094 127.242C122.094 126.951 122.076 126.781 122.039 126.734C122.003 126.682 121.956 126.656 121.898 126.656H121.703V127.828H121.898ZM121.703 125.5C121.766 125.49 121.831 125.484 121.898 125.484C122.201 125.484 122.438 125.612 122.609 125.867C122.786 126.117 122.875 126.576 122.875 127.242C122.875 127.909 122.786 128.37 122.609 128.625C122.438 128.875 122.109 129 121.625 129C121.141 129 120.81 128.875 120.633 128.625C120.461 128.37 120.375 127.909 120.375 127.242V120.406C120.271 120.042 120.01 119.651 119.594 119.234V118.453C119.594 117.672 119.984 117.281 120.766 117.281H122.094V118.453H121.156C120.896 118.453 120.766 118.583 120.766 118.844C121.391 119.26 121.703 119.781 121.703 120.406V125.5ZM126.781 126.656V127.828C126.891 127.828 126.982 127.799 127.055 127.742C127.133 127.68 127.172 127.513 127.172 127.242C127.172 126.971 127.133 126.807 127.055 126.75C126.982 126.688 126.891 126.656 126.781 126.656ZM138.891 120.406V125.094C138.891 127.698 137.719 129 135.375 129C132.849 129 131.586 127.698 131.586 125.094V123.531C131.586 121.708 130.812 120.797 129.266 120.797C127.714 120.797 126.938 121.708 126.938 123.531V125.562C127.057 125.51 127.195 125.484 127.352 125.484C127.508 125.484 127.672 125.625 127.844 125.906C128.021 126.182 128.109 126.628 128.109 127.242C128.109 127.857 127.995 128.305 127.766 128.586C127.542 128.862 127.24 129 126.859 129C126.479 129 126.177 128.859 125.953 128.578C125.776 128.365 125.667 128.049 125.625 127.633H125.609V123.531C125.609 121.906 126.083 120.789 127.031 120.18C126.797 119.789 126.453 119.474 126 119.234V118.453C126 117.672 126.391 117.281 127.172 117.281H131.469V118.453H127.719C127.458 118.453 127.328 118.583 127.328 118.844C127.734 119.062 128.055 119.349 128.289 119.703C128.591 119.651 128.917 119.625 129.266 119.625C131.698 119.625 132.914 120.927 132.914 123.531V125.094C132.914 126.917 133.734 127.828 135.375 127.828C136.833 127.828 137.562 126.917 137.562 125.094V120.406C137.562 120.042 137.302 119.651 136.781 119.234V118.453C136.781 117.672 137.172 117.281 137.953 117.281H139.281V118.453H138.344C138.083 118.453 137.953 118.583 137.953 118.844C138.578 119.26 138.891 119.781 138.891 120.406ZM142.797 127.828V126.656H142.602C142.544 126.656 142.497 126.682 142.461 126.734C142.424 126.781 142.406 126.951 142.406 127.242C142.406 127.534 142.424 127.706 142.461 127.758C142.497 127.805 142.544 127.828 142.602 127.828H142.797ZM144.125 120.406V127.242C144.125 127.909 144.036 128.37 143.859 128.625C143.688 128.875 143.359 129 142.875 129C142.391 129 142.06 128.875 141.883 128.625C141.711 128.37 141.625 127.909 141.625 127.242C141.625 126.576 141.711 126.117 141.883 125.867C142.06 125.612 142.299 125.484 142.602 125.484C142.669 125.484 142.734 125.49 142.797 125.5V120.406C142.693 120.042 142.432 119.651 142.016 119.234V118.453C142.016 117.672 142.406 117.281 143.188 117.281H144.516V118.453H143.578C143.318 118.453 143.188 118.583 143.188 118.844C143.812 119.26 144.125 119.781 144.125 120.406ZM149.555 127.828C149.612 127.828 149.659 127.805 149.695 127.758C149.732 127.706 149.75 127.534 149.75 127.242C149.75 126.951 149.732 126.781 149.695 126.734C149.659 126.682 149.612 126.656 149.555 126.656H149.359V127.828H149.555ZM149.359 125.5C149.422 125.49 149.487 125.484 149.555 125.484C149.857 125.484 150.094 125.612 150.266 125.867C150.443 126.117 150.531 126.576 150.531 127.242C150.531 127.909 150.443 128.37 150.266 128.625C150.094 128.875 149.766 129 149.281 129C148.797 129 148.466 128.875 148.289 128.625C148.117 128.37 148.031 127.909 148.031 127.242V120.406C147.927 120.042 147.667 119.651 147.25 119.234V118.453C147.25 117.672 147.641 117.281 148.422 117.281H149.75V118.453H148.812C148.552 118.453 148.422 118.583 148.422 118.844C149.047 119.26 149.359 119.781 149.359 120.406V125.5ZM161.078 124.234V125.875C161.078 127.958 160.349 129 158.891 129C157.818 129 157.023 128.674 156.508 128.023C155.992 127.372 155.354 127.047 154.594 127.047V129H153.266V124.312H154.594V125.875C155.505 125.875 156.245 126.201 156.812 126.852C157.385 127.503 157.966 127.828 158.555 127.828C159.352 127.828 159.75 127.177 159.75 125.875V125.094C155.427 124.156 153.266 122.594 153.266 120.406C153.266 118.323 154.568 117.281 157.172 117.281C159.776 117.281 161.078 118.323 161.078 120.406C161.078 121.859 160.354 122.586 158.906 122.586C158.578 122.586 158.312 122.51 158.109 122.359V121.188C158.479 121.297 158.781 121.352 159.016 121.352C159.505 121.352 159.75 121.036 159.75 120.406C159.75 119.104 158.891 118.453 157.172 118.453C155.453 118.453 154.594 119.104 154.594 120.406C154.594 121.969 156.755 123.245 161.078 124.234ZM164.438 117.656V116.031C164.438 115.562 164.229 115.328 163.812 115.328H163.422V114.156H164.203C165.245 114.156 165.766 114.677 165.766 115.719V129H164.438V120.398C164.432 119.102 163.833 118.453 162.641 118.453H161.078V117.281H162.641C163.365 117.281 163.964 117.406 164.438 117.656ZM171 120.406V130.953C171 132.255 171.56 132.906 172.68 132.906C173.799 132.906 174.359 132.255 174.359 130.953V129.781H175.688V130.953C175.688 133.036 174.685 134.078 172.68 134.078C170.674 134.078 169.672 133.036 169.672 130.953V120.406C169.672 120.042 169.411 119.651 168.891 119.234V118.453C168.891 117.672 169.281 117.281 170.062 117.281H171.391V118.453H170.453C170.193 118.453 170.062 118.583 170.062 118.844C170.688 119.26 171 119.781 171 120.406ZM175.531 126.656V127.828C175.641 127.828 175.732 127.799 175.805 127.742C175.883 127.68 175.922 127.513 175.922 127.242C175.922 126.971 175.883 126.807 175.805 126.75C175.732 126.688 175.641 126.656 175.531 126.656ZM182.172 117.281V118.453H174.359V117.281H182.172ZM174.359 123.531C174.359 120.927 175.661 119.625 178.266 119.625C180.87 119.625 182.172 120.927 182.172 123.531V129H180.844V123.531C180.844 121.708 179.984 120.797 178.266 120.797C176.547 120.797 175.688 121.708 175.688 123.531V125.562C175.807 125.51 175.945 125.484 176.102 125.484C176.258 125.484 176.422 125.625 176.594 125.906C176.771 126.182 176.859 126.628 176.859 127.242C176.859 127.857 176.745 128.305 176.516 128.586C176.292 128.862 175.99 129 175.609 129C175.229 129 174.927 128.859 174.703 128.578C174.526 128.365 174.417 128.049 174.375 127.633H174.359V123.531ZM191.938 118.469C191.938 118.312 191.833 118.234 191.625 118.234C191.417 118.234 191.312 118.312 191.312 118.469C191.312 118.609 191.417 118.75 191.625 118.891C191.833 118.781 191.938 118.641 191.938 118.469ZM185.883 122.359C185.826 122.359 185.779 122.385 185.742 122.438C185.706 122.484 185.688 122.654 185.688 122.945C185.688 123.237 185.706 123.409 185.742 123.461C185.779 123.508 185.826 123.531 185.883 123.531H186.078V122.359H185.883ZM187.406 127.438L189.984 125.094L192.562 127.438V121.969C192.562 121.406 192.141 120.81 191.297 120.18C190.87 120.591 190.146 120.797 189.125 120.797C187.99 120.797 187.198 120.648 186.75 120.352C186.302 120.055 186.078 119.643 186.078 119.117C186.078 118.596 186.182 118.109 186.391 117.656C186.599 117.198 186.703 116.826 186.703 116.539C186.703 116.253 186.365 116.109 185.688 116.109V114.938C187.146 114.938 187.875 115.432 187.875 116.422C187.875 116.812 187.771 117.25 187.562 117.734C187.354 118.214 187.25 118.555 187.25 118.758C187.25 118.966 187.38 119.164 187.641 119.352C187.901 119.534 188.414 119.625 189.18 119.625C189.841 119.625 190.318 119.539 190.609 119.367C190.349 119.154 190.219 118.823 190.219 118.375C190.219 117.646 190.688 117.281 191.625 117.281C192.615 117.281 193.109 117.724 193.109 118.609C193.109 119.062 192.906 119.448 192.5 119.766C193.427 120.438 193.891 121.172 193.891 121.969V129H192.328L189.984 126.656L187.641 129H186.078V124.688C186.016 124.698 185.951 124.703 185.883 124.703C185.581 124.703 185.341 124.578 185.164 124.328C184.992 124.073 184.906 123.612 184.906 122.945C184.906 122.279 184.992 121.82 185.164 121.57C185.341 121.315 185.672 121.188 186.156 121.188C186.641 121.188 186.969 121.315 187.141 121.57C187.318 121.82 187.406 122.279 187.406 122.945V127.438ZM190.57 111.422V114.938H189.398V111.422H190.57ZM199.32 127.828C199.378 127.828 199.424 127.805 199.461 127.758C199.497 127.706 199.516 127.534 199.516 127.242C199.516 126.951 199.497 126.781 199.461 126.734C199.424 126.682 199.378 126.656 199.32 126.656H199.125V127.828H199.32ZM199.125 125.5C199.188 125.49 199.253 125.484 199.32 125.484C199.622 125.484 199.859 125.612 200.031 125.867C200.208 126.117 200.297 126.576 200.297 127.242C200.297 127.909 200.208 128.37 200.031 128.625C199.859 128.875 199.531 129 199.047 129C198.562 129 198.232 128.875 198.055 128.625C197.883 128.37 197.797 127.909 197.797 127.242V120.406C197.693 120.042 197.432 119.651 197.016 119.234V118.453C197.016 117.672 197.406 117.281 198.188 117.281H199.516V118.453H198.578C198.318 118.453 198.188 118.583 198.188 118.844C198.812 119.26 199.125 119.781 199.125 120.406V125.5ZM210.844 124.234V125.875C210.844 127.958 210.115 129 208.656 129C207.583 129 206.789 128.674 206.273 128.023C205.758 127.372 205.12 127.047 204.359 127.047V129H203.031V124.312H204.359V125.875C205.271 125.875 206.01 126.201 206.578 126.852C207.151 127.503 207.732 127.828 208.32 127.828C209.117 127.828 209.516 127.177 209.516 125.875V125.094C205.193 124.156 203.031 122.594 203.031 120.406C203.031 118.323 204.333 117.281 206.938 117.281C209.542 117.281 210.844 118.323 210.844 120.406C210.844 121.859 210.12 122.586 208.672 122.586C208.344 122.586 208.078 122.51 207.875 122.359V121.188C208.245 121.297 208.547 121.352 208.781 121.352C209.271 121.352 209.516 121.036 209.516 120.406C209.516 119.104 208.656 118.453 206.938 118.453C205.219 118.453 204.359 119.104 204.359 120.406C204.359 121.969 206.521 123.245 210.844 124.234ZM215.922 119.43C215.922 119.622 215.971 119.768 216.07 119.867C216.169 119.966 216.315 120.016 216.508 120.016C216.706 120.016 216.852 119.966 216.945 119.867C217.044 119.768 217.094 119.622 217.094 119.43C217.094 119.232 217.044 119.086 216.945 118.992C216.852 118.893 216.706 118.844 216.508 118.844C216.315 118.844 216.169 118.893 216.07 118.992C215.971 119.086 215.922 119.232 215.922 119.43ZM218.266 119.43C218.266 120.018 218.12 120.458 217.828 120.75C217.536 121.042 217.096 121.188 216.508 121.188C215.919 121.188 215.479 121.042 215.188 120.75C214.896 120.458 214.75 120.018 214.75 119.43C214.75 118.841 214.896 118.401 215.188 118.109C215.479 117.818 215.919 117.672 216.508 117.672C217.096 117.672 217.536 117.818 217.828 118.109C218.12 118.401 218.266 118.841 218.266 119.43ZM215.922 126.852C215.922 127.044 215.971 127.19 216.07 127.289C216.169 127.388 216.315 127.438 216.508 127.438C216.706 127.438 216.852 127.388 216.945 127.289C217.044 127.19 217.094 127.044 217.094 126.852C217.094 126.654 217.044 126.508 216.945 126.414C216.852 126.315 216.706 126.266 216.508 126.266C216.315 126.266 216.169 126.315 216.07 126.414C215.971 126.508 215.922 126.654 215.922 126.852ZM218.266 126.852C218.266 127.44 218.12 127.88 217.828 128.172C217.536 128.464 217.096 128.609 216.508 128.609C215.919 128.609 215.479 128.464 215.188 128.172C214.896 127.88 214.75 127.44 214.75 126.852C214.75 126.263 214.896 125.823 215.188 125.531C215.479 125.24 215.919 125.094 216.508 125.094C217.096 125.094 217.536 125.24 217.828 125.531C218.12 125.823 218.266 126.263 218.266 126.852Z" fill="#344054"/>
<path fill-rule="evenodd" clip-rule="evenodd" d="M411.136 120.904C411.178 120.861 411.229 120.827 411.285 120.804C411.342 120.781 411.402 120.769 411.462 120.769C411.523 120.769 411.583 120.781 411.639 120.804C411.695 120.827 411.746 120.861 411.789 120.904L417 126.116L422.211 120.904C422.254 120.861 422.305 120.827 422.361 120.804C422.417 120.781 422.477 120.769 422.538 120.769C422.599 120.769 422.659 120.781 422.715 120.804C422.771 120.827 422.822 120.861 422.865 120.904C422.908 120.947 422.942 120.998 422.965 121.054C422.988 121.11 423 121.17 423 121.231C423 121.292 422.988 121.352 422.965 121.408C422.942 121.464 422.908 121.515 422.865 121.558L417.327 127.096C417.284 127.139 417.233 127.173 417.177 127.196C417.121 127.219 417.061 127.231 417 127.231C416.939 127.231 416.879 127.219 416.823 127.196C416.767 127.173 416.716 127.139 416.673 127.096L411.136 121.558C411.093 121.515 411.059 121.464 411.035 121.408C411.012 121.352 411 121.292 411 121.231C411 121.17 411.012 121.11 411.035 121.054C411.059 120.998 411.093 120.947 411.136 120.904Z" fill="#344054"/>
<rect x="80.5" y="100.5" width="360" height="47" rx="7.5" stroke="#98A2B3"/>
<rect x="81" y="157" width="359" height="64" rx="8" fill="white"/>
<path d="M98.9531 185.406C98.9531 185.042 98.8229 184.651 98.5625 184.234V183.844C98.5625 182.802 99.0833 182.281 100.125 182.281H102.469L104.266 183.453H104.891C105.255 183.453 105.438 183.271 105.438 182.906V181.109H106.766V182.906C106.766 184.052 106.323 184.625 105.438 184.625H104.031L102.234 183.453H100.672C100.151 183.453 99.8906 183.609 99.8906 183.922C100.151 184.339 100.281 184.833 100.281 185.406V192.438L102.859 190.25L105.438 192.438V185.406H106.766V194H105.594L102.859 191.656L100.125 194H98.9531V185.406ZM112.195 192.828C112.253 192.828 112.299 192.805 112.336 192.758C112.372 192.706 112.391 192.534 112.391 192.242C112.391 191.951 112.372 191.781 112.336 191.734C112.299 191.682 112.253 191.656 112.195 191.656H112V192.828H112.195ZM112 190.5C112.062 190.49 112.128 190.484 112.195 190.484C112.497 190.484 112.734 190.612 112.906 190.867C113.083 191.117 113.172 191.576 113.172 192.242C113.172 192.909 113.083 193.37 112.906 193.625C112.734 193.875 112.406 194 111.922 194C111.438 194 111.107 193.875 110.93 193.625C110.758 193.37 110.672 192.909 110.672 192.242V185.406C110.568 185.042 110.307 184.651 109.891 184.234V183.453C109.891 182.672 110.281 182.281 111.062 182.281H112.391V183.453H111.453C111.193 183.453 111.062 183.583 111.062 183.844C111.688 184.26 112 184.781 112 185.406V190.5ZM117.234 185.406V195.953C117.234 197.255 117.794 197.906 118.914 197.906C120.034 197.906 120.594 197.255 120.594 195.953V194.781H121.922V195.953C121.922 198.036 120.919 199.078 118.914 199.078C116.909 199.078 115.906 198.036 115.906 195.953V185.406C115.906 185.042 115.646 184.651 115.125 184.234V183.453C115.125 182.672 115.516 182.281 116.297 182.281H117.625V183.453H116.688C116.427 183.453 116.297 183.583 116.297 183.844C116.922 184.26 117.234 184.781 117.234 185.406ZM121.922 188.531V190.094C121.922 191.917 122.781 192.828 124.5 192.828C126.219 192.828 127.078 191.917 127.078 190.094V188.531H121.922ZM121.922 187.359H127.078V185.406C127.078 185.042 126.818 184.651 126.297 184.234V183.453C126.297 182.672 126.688 182.281 127.469 182.281H128.797V183.453H127.859C127.599 183.453 127.469 183.583 127.469 183.844C128.094 184.26 128.406 184.781 128.406 185.406V190.094C128.406 192.698 127.104 194 124.5 194C121.896 194 120.594 192.698 120.594 190.094V185.406C120.594 185.042 120.333 184.651 119.812 184.234V183.453C119.812 182.672 120.203 182.281 120.984 182.281H122.312V183.453H121.375C121.115 183.453 120.984 183.583 120.984 183.844C121.609 184.26 121.922 184.781 121.922 185.406V187.359ZM123.719 178.922H127.234C125.938 178.036 124.896 177.594 124.109 177.594C123.068 177.594 122.547 177.815 122.547 178.258C122.547 178.701 122.938 178.922 123.719 178.922ZM127.234 177.633V175.641H128.406V179.938H123.328C122.026 179.938 121.375 179.417 121.375 178.375C121.375 177.073 122.286 176.422 124.109 176.422C125.151 176.422 126.128 176.773 127.039 177.477C127.107 177.529 127.172 177.581 127.234 177.633ZM133.484 191.656V192.828C133.594 192.828 133.685 192.799 133.758 192.742C133.836 192.68 133.875 192.513 133.875 192.242C133.875 191.971 133.836 191.807 133.758 191.75C133.685 191.688 133.594 191.656 133.484 191.656ZM145.594 185.406V190.094C145.594 192.698 144.422 194 142.078 194C139.552 194 138.289 192.698 138.289 190.094V188.531C138.289 186.708 137.516 185.797 135.969 185.797C134.417 185.797 133.641 186.708 133.641 188.531V190.562C133.76 190.51 133.898 190.484 134.055 190.484C134.211 190.484 134.375 190.625 134.547 190.906C134.724 191.182 134.812 191.628 134.812 192.242C134.812 192.857 134.698 193.305 134.469 193.586C134.245 193.862 133.943 194 133.562 194C133.182 194 132.88 193.859 132.656 193.578C132.479 193.365 132.37 193.049 132.328 192.633H132.312V188.531C132.312 186.906 132.786 185.789 133.734 185.18C133.5 184.789 133.156 184.474 132.703 184.234V183.453C132.703 182.672 133.094 182.281 133.875 182.281H138.172V183.453H134.422C134.161 183.453 134.031 183.583 134.031 183.844C134.438 184.062 134.758 184.349 134.992 184.703C135.294 184.651 135.62 184.625 135.969 184.625C138.401 184.625 139.617 185.927 139.617 188.531V190.094C139.617 191.917 140.438 192.828 142.078 192.828C143.536 192.828 144.266 191.917 144.266 190.094V185.406C144.266 185.042 144.005 184.651 143.484 184.234V183.453C143.484 182.672 143.875 182.281 144.656 182.281H145.984V183.453H145.047C144.786 183.453 144.656 183.583 144.656 183.844C145.281 184.26 145.594 184.781 145.594 185.406ZM156.219 189.383C156.255 189.393 156.292 189.398 156.328 189.398C156.464 189.398 156.531 189.292 156.531 189.078C156.531 188.87 156.479 188.766 156.375 188.766C156.271 188.766 156.219 188.867 156.219 189.07V189.383ZM156.219 190.086V190.875C156.219 192.958 155.281 194 153.406 194C151.531 194 150.594 192.958 150.594 190.875V189.312H151.922V190.875C151.922 192.177 152.417 192.828 153.406 192.828C154.396 192.828 154.891 192.177 154.891 190.875V189.898C151.297 188.862 149.5 187.365 149.5 185.406C149.5 183.323 150.802 182.281 153.406 182.281C156.01 182.281 157.312 183.323 157.312 185.406C157.312 186.859 156.589 187.586 155.141 187.586C154.812 187.586 154.547 187.51 154.344 187.359V186.188C154.714 186.297 155.016 186.352 155.25 186.352C155.74 186.352 155.984 186.036 155.984 185.406C155.984 184.104 155.125 183.453 153.406 183.453C151.688 183.453 150.828 184.104 150.828 185.406C150.828 187.016 152.182 188.148 154.891 188.805C154.891 188.31 155.255 188.062 155.984 188.062C156.87 188.062 157.312 188.388 157.312 189.039C157.312 189.43 157.224 189.706 157.047 189.867C156.87 190.029 156.68 190.109 156.477 190.109C156.393 190.109 156.307 190.102 156.219 190.086ZM152.625 178.922H156.141C154.844 178.036 153.802 177.594 153.016 177.594C151.974 177.594 151.453 177.815 151.453 178.258C151.453 178.701 151.844 178.922 152.625 178.922ZM156.141 177.633V175.641H157.312V179.938H152.234C150.932 179.938 150.281 179.417 150.281 178.375C150.281 177.073 151.193 176.422 153.016 176.422C154.057 176.422 155.034 176.773 155.945 177.477C156.013 177.529 156.078 177.581 156.141 177.633ZM168.891 192.828C170.87 192.828 171.859 191.135 171.859 187.75C171.859 184.885 171 183.453 169.281 183.453C167.562 183.453 166.703 184.365 166.703 186.188C166.703 186.505 166.763 186.786 166.883 187.031C167.008 187.271 167.268 187.391 167.664 187.391C168.039 187.391 168.276 187.336 168.375 187.227C168.453 187.138 168.492 187.052 168.492 186.969C168.492 186.943 168.49 186.919 168.484 186.898C168.458 186.789 168.417 186.734 168.359 186.734C168.302 186.734 168.148 186.82 167.898 186.992L167.555 186.094C167.919 185.828 168.247 185.695 168.539 185.695C168.857 185.695 169.104 185.789 169.281 185.977C169.458 186.164 169.547 186.492 169.547 186.961C169.547 187.221 169.479 187.5 169.344 187.797C169.214 188.094 168.995 188.305 168.688 188.43C168.38 188.549 168.06 188.609 167.727 188.609C167.336 188.609 166.971 188.552 166.633 188.438C166.299 188.323 166.005 188.089 165.75 187.734C165.5 187.375 165.375 186.859 165.375 186.188C165.375 183.583 166.677 182.281 169.281 182.281C171.885 182.281 173.188 184.104 173.188 187.75C173.188 191.917 171.755 194 168.891 194C167.823 194 166.885 193.714 166.078 193.141L166.469 192.047C167.042 192.568 167.849 192.828 168.891 192.828Z" fill="#344054"/>
<rect width="359" height="64" transform="translate(81 221)" fill="#1C4076"/>
<path d="M98.9531 249.406C98.9531 249.042 98.8229 248.651 98.5625 248.234V247.844C98.5625 246.802 99.0833 246.281 100.125 246.281H102.469L104.266 247.453H104.891C105.255 247.453 105.438 247.271 105.438 246.906V245.109H106.766V246.906C106.766 248.052 106.323 248.625 105.438 248.625H104.031L102.234 247.453H100.672C100.151 247.453 99.8906 247.609 99.8906 247.922C100.151 248.339 100.281 248.833 100.281 249.406V256.438L102.859 254.25L105.438 256.438V249.406H106.766V258H105.594L102.859 255.656L100.125 258H98.9531V249.406ZM112.195 256.828C112.253 256.828 112.299 256.805 112.336 256.758C112.372 256.706 112.391 256.534 112.391 256.242C112.391 255.951 112.372 255.781 112.336 255.734C112.299 255.682 112.253 255.656 112.195 255.656H112V256.828H112.195ZM112 254.5C112.062 254.49 112.128 254.484 112.195 254.484C112.497 254.484 112.734 254.612 112.906 254.867C113.083 255.117 113.172 255.576 113.172 256.242C113.172 256.909 113.083 257.37 112.906 257.625C112.734 257.875 112.406 258 111.922 258C111.438 258 111.107 257.875 110.93 257.625C110.758 257.37 110.672 256.909 110.672 256.242V249.406C110.568 249.042 110.307 248.651 109.891 248.234V247.453C109.891 246.672 110.281 246.281 111.062 246.281H112.391V247.453H111.453C111.193 247.453 111.062 247.583 111.062 247.844C111.688 248.26 112 248.781 112 249.406V254.5ZM117.234 249.406V259.953C117.234 261.255 117.794 261.906 118.914 261.906C120.034 261.906 120.594 261.255 120.594 259.953V258.781H121.922V259.953C121.922 262.036 120.919 263.078 118.914 263.078C116.909 263.078 115.906 262.036 115.906 259.953V249.406C115.906 249.042 115.646 248.651 115.125 248.234V247.453C115.125 246.672 115.516 246.281 116.297 246.281H117.625V247.453H116.688C116.427 247.453 116.297 247.583 116.297 247.844C116.922 248.26 117.234 248.781 117.234 249.406ZM121.922 252.531V254.094C121.922 255.917 122.781 256.828 124.5 256.828C126.219 256.828 127.078 255.917 127.078 254.094V252.531H121.922ZM121.922 251.359H127.078V249.406C127.078 249.042 126.818 248.651 126.297 248.234V247.453C126.297 246.672 126.688 246.281 127.469 246.281H128.797V247.453H127.859C127.599 247.453 127.469 247.583 127.469 247.844C128.094 248.26 128.406 248.781 128.406 249.406V254.094C128.406 256.698 127.104 258 124.5 258C121.896 258 120.594 256.698 120.594 254.094V249.406C120.594 249.042 120.333 248.651 119.812 248.234V247.453C119.812 246.672 120.203 246.281 120.984 246.281H122.312V247.453H121.375C121.115 247.453 120.984 247.583 120.984 247.844C121.609 248.26 121.922 248.781 121.922 249.406V251.359ZM123.719 242.922H127.234C125.938 242.036 124.896 241.594 124.109 241.594C123.068 241.594 122.547 241.815 122.547 242.258C122.547 242.701 122.938 242.922 123.719 242.922ZM127.234 241.633V239.641H128.406V243.938H123.328C122.026 243.938 121.375 243.417 121.375 242.375C121.375 241.073 122.286 240.422 124.109 240.422C125.151 240.422 126.128 240.773 127.039 241.477C127.107 241.529 127.172 241.581 127.234 241.633ZM133.484 255.656V256.828C133.594 256.828 133.685 256.799 133.758 256.742C133.836 256.68 133.875 256.513 133.875 256.242C133.875 255.971 133.836 255.807 133.758 255.75C133.685 255.688 133.594 255.656 133.484 255.656ZM145.594 249.406V254.094C145.594 256.698 144.422 258 142.078 258C139.552 258 138.289 256.698 138.289 254.094V252.531C138.289 250.708 137.516 249.797 135.969 249.797C134.417 249.797 133.641 250.708 133.641 252.531V254.562C133.76 254.51 133.898 254.484 134.055 254.484C134.211 254.484 134.375 254.625 134.547 254.906C134.724 255.182 134.812 255.628 134.812 256.242C134.812 256.857 134.698 257.305 134.469 257.586C134.245 257.862 133.943 258 133.562 258C133.182 258 132.88 257.859 132.656 257.578C132.479 257.365 132.37 257.049 132.328 256.633H132.312V252.531C132.312 250.906 132.786 249.789 133.734 249.18C133.5 248.789 133.156 248.474 132.703 248.234V247.453C132.703 246.672 133.094 246.281 133.875 246.281H138.172V247.453H134.422C134.161 247.453 134.031 247.583 134.031 247.844C134.438 248.062 134.758 248.349 134.992 248.703C135.294 248.651 135.62 248.625 135.969 248.625C138.401 248.625 139.617 249.927 139.617 252.531V254.094C139.617 255.917 140.438 256.828 142.078 256.828C143.536 256.828 144.266 255.917 144.266 254.094V249.406C144.266 249.042 144.005 248.651 143.484 248.234V247.453C143.484 246.672 143.875 246.281 144.656 246.281H145.984V247.453H145.047C144.786 247.453 144.656 247.583 144.656 247.844C145.281 248.26 145.594 248.781 145.594 249.406ZM156.219 253.383C156.255 253.393 156.292 253.398 156.328 253.398C156.464 253.398 156.531 253.292 156.531 253.078C156.531 252.87 156.479 252.766 156.375 252.766C156.271 252.766 156.219 252.867 156.219 253.07V253.383ZM156.219 254.086V254.875C156.219 256.958 155.281 258 153.406 258C151.531 258 150.594 256.958 150.594 254.875V253.312H151.922V254.875C151.922 256.177 152.417 256.828 153.406 256.828C154.396 256.828 154.891 256.177 154.891 254.875V253.898C151.297 252.862 149.5 251.365 149.5 249.406C149.5 247.323 150.802 246.281 153.406 246.281C156.01 246.281 157.312 247.323 157.312 249.406C157.312 250.859 156.589 251.586 155.141 251.586C154.812 251.586 154.547 251.51 154.344 251.359V250.188C154.714 250.297 155.016 250.352 155.25 250.352C155.74 250.352 155.984 250.036 155.984 249.406C155.984 248.104 155.125 247.453 153.406 247.453C151.688 247.453 150.828 248.104 150.828 249.406C150.828 251.016 152.182 252.148 154.891 252.805C154.891 252.31 155.255 252.062 155.984 252.062C156.87 252.062 157.312 252.388 157.312 253.039C157.312 253.43 157.224 253.706 157.047 253.867C156.87 254.029 156.68 254.109 156.477 254.109C156.393 254.109 156.307 254.102 156.219 254.086ZM152.625 242.922H156.141C154.844 242.036 153.802 241.594 153.016 241.594C151.974 241.594 151.453 241.815 151.453 242.258C151.453 242.701 151.844 242.922 152.625 242.922ZM156.141 241.633V239.641H157.312V243.938H152.234C150.932 243.938 150.281 243.417 150.281 242.375C150.281 241.073 151.193 240.422 153.016 240.422C154.057 240.422 155.034 240.773 155.945 241.477C156.013 241.529 156.078 241.581 156.141 241.633ZM169.047 251.398C169.156 251.398 169.247 251.365 169.32 251.297C169.398 251.229 169.438 251.133 169.438 251.008C169.438 250.883 169.398 250.786 169.32 250.719C169.247 250.651 169.156 250.617 169.047 250.617V251.398ZM167.719 248.312L169.359 246.281L170.844 247.844L172.328 246.281L173.969 248.312V254.094C173.969 256.698 172.536 258 169.672 258C166.807 258 165.375 256.698 165.375 254.094V246.672C165.375 246.151 165.115 245.891 164.594 245.891H164.203V244.719H165.141C166.182 244.719 166.703 245.24 166.703 246.281V254.094C166.703 255.917 167.693 256.828 169.672 256.828C171.651 256.828 172.641 255.917 172.641 254.094V248.625L172.094 247.961L170.844 249.25L169.594 247.961L169.047 248.625V249.695C169.099 249.69 169.151 249.688 169.203 249.688C169.557 249.688 169.82 249.799 169.992 250.023C170.195 250.273 170.297 250.602 170.297 251.008C170.297 251.414 170.195 251.745 169.992 252C169.794 252.25 169.466 252.375 169.008 252.375C168.549 252.375 168.219 252.25 168.016 252C167.818 251.745 167.719 251.414 167.719 251.008V248.312Z" fill="white"/>
<rect width="359" height="64" transform="translate(81 285)" fill="white"/>
<path d="M98.9531 313.406C98.9531 313.042 98.8229 312.651 98.5625 312.234V311.844C98.5625 310.802 99.0833 310.281 100.125 310.281H102.469L104.266 311.453H104.891C105.255 311.453 105.438 311.271 105.438 310.906V309.109H106.766V310.906C106.766 312.052 106.323 312.625 105.438 312.625H104.031L102.234 311.453H100.672C100.151 311.453 99.8906 311.609 99.8906 311.922C100.151 312.339 100.281 312.833 100.281 313.406V320.438L102.859 318.25L105.438 320.438V313.406H106.766V322H105.594L102.859 319.656L100.125 322H98.9531V313.406ZM112.195 320.828C112.253 320.828 112.299 320.805 112.336 320.758C112.372 320.706 112.391 320.534 112.391 320.242C112.391 319.951 112.372 319.781 112.336 319.734C112.299 319.682 112.253 319.656 112.195 319.656H112V320.828H112.195ZM112 318.5C112.062 318.49 112.128 318.484 112.195 318.484C112.497 318.484 112.734 318.612 112.906 318.867C113.083 319.117 113.172 319.576 113.172 320.242C113.172 320.909 113.083 321.37 112.906 321.625C112.734 321.875 112.406 322 111.922 322C111.438 322 111.107 321.875 110.93 321.625C110.758 321.37 110.672 320.909 110.672 320.242V313.406C110.568 313.042 110.307 312.651 109.891 312.234V311.453C109.891 310.672 110.281 310.281 111.062 310.281H112.391V311.453H111.453C111.193 311.453 111.062 311.583 111.062 311.844C111.688 312.26 112 312.781 112 313.406V318.5ZM117.234 313.406V323.953C117.234 325.255 117.794 325.906 118.914 325.906C120.034 325.906 120.594 325.255 120.594 323.953V322.781H121.922V323.953C121.922 326.036 120.919 327.078 118.914 327.078C116.909 327.078 115.906 326.036 115.906 323.953V313.406C115.906 313.042 115.646 312.651 115.125 312.234V311.453C115.125 310.672 115.516 310.281 116.297 310.281H117.625V311.453H116.688C116.427 311.453 116.297 311.583 116.297 311.844C116.922 312.26 117.234 312.781 117.234 313.406ZM121.922 316.531V318.094C121.922 319.917 122.781 320.828 124.5 320.828C126.219 320.828 127.078 319.917 127.078 318.094V316.531H121.922ZM121.922 315.359H127.078V313.406C127.078 313.042 126.818 312.651 126.297 312.234V311.453C126.297 310.672 126.688 310.281 127.469 310.281H128.797V311.453H127.859C127.599 311.453 127.469 311.583 127.469 311.844C128.094 312.26 128.406 312.781 128.406 313.406V318.094C128.406 320.698 127.104 322 124.5 322C121.896 322 120.594 320.698 120.594 318.094V313.406C120.594 313.042 120.333 312.651 119.812 312.234V311.453C119.812 310.672 120.203 310.281 120.984 310.281H122.312V311.453H121.375C121.115 311.453 120.984 311.583 120.984 311.844C121.609 312.26 121.922 312.781 121.922 313.406V315.359ZM123.719 306.922H127.234C125.938 306.036 124.896 305.594 124.109 305.594C123.068 305.594 122.547 305.815 122.547 306.258C122.547 306.701 122.938 306.922 123.719 306.922ZM127.234 305.633V303.641H128.406V307.938H123.328C122.026 307.938 121.375 307.417 121.375 306.375C121.375 305.073 122.286 304.422 124.109 304.422C125.151 304.422 126.128 304.773 127.039 305.477C127.107 305.529 127.172 305.581 127.234 305.633ZM133.484 319.656V320.828C133.594 320.828 133.685 320.799 133.758 320.742C133.836 320.68 133.875 320.513 133.875 320.242C133.875 319.971 133.836 319.807 133.758 319.75C133.685 319.688 133.594 319.656 133.484 319.656ZM145.594 313.406V318.094C145.594 320.698 144.422 322 142.078 322C139.552 322 138.289 320.698 138.289 318.094V316.531C138.289 314.708 137.516 313.797 135.969 313.797C134.417 313.797 133.641 314.708 133.641 316.531V318.562C133.76 318.51 133.898 318.484 134.055 318.484C134.211 318.484 134.375 318.625 134.547 318.906C134.724 319.182 134.812 319.628 134.812 320.242C134.812 320.857 134.698 321.305 134.469 321.586C134.245 321.862 133.943 322 133.562 322C133.182 322 132.88 321.859 132.656 321.578C132.479 321.365 132.37 321.049 132.328 320.633H132.312V316.531C132.312 314.906 132.786 313.789 133.734 313.18C133.5 312.789 133.156 312.474 132.703 312.234V311.453C132.703 310.672 133.094 310.281 133.875 310.281H138.172V311.453H134.422C134.161 311.453 134.031 311.583 134.031 311.844C134.438 312.062 134.758 312.349 134.992 312.703C135.294 312.651 135.62 312.625 135.969 312.625C138.401 312.625 139.617 313.927 139.617 316.531V318.094C139.617 319.917 140.438 320.828 142.078 320.828C143.536 320.828 144.266 319.917 144.266 318.094V313.406C144.266 313.042 144.005 312.651 143.484 312.234V311.453C143.484 310.672 143.875 310.281 144.656 310.281H145.984V311.453H145.047C144.786 311.453 144.656 311.583 144.656 311.844C145.281 312.26 145.594 312.781 145.594 313.406ZM156.219 317.383C156.255 317.393 156.292 317.398 156.328 317.398C156.464 317.398 156.531 317.292 156.531 317.078C156.531 316.87 156.479 316.766 156.375 316.766C156.271 316.766 156.219 316.867 156.219 317.07V317.383ZM156.219 318.086V318.875C156.219 320.958 155.281 322 153.406 322C151.531 322 150.594 320.958 150.594 318.875V317.312H151.922V318.875C151.922 320.177 152.417 320.828 153.406 320.828C154.396 320.828 154.891 320.177 154.891 318.875V317.898C151.297 316.862 149.5 315.365 149.5 313.406C149.5 311.323 150.802 310.281 153.406 310.281C156.01 310.281 157.312 311.323 157.312 313.406C157.312 314.859 156.589 315.586 155.141 315.586C154.812 315.586 154.547 315.51 154.344 315.359V314.188C154.714 314.297 155.016 314.352 155.25 314.352C155.74 314.352 155.984 314.036 155.984 313.406C155.984 312.104 155.125 311.453 153.406 311.453C151.688 311.453 150.828 312.104 150.828 313.406C150.828 315.016 152.182 316.148 154.891 316.805C154.891 316.31 155.255 316.062 155.984 316.062C156.87 316.062 157.312 316.388 157.312 317.039C157.312 317.43 157.224 317.706 157.047 317.867C156.87 318.029 156.68 318.109 156.477 318.109C156.393 318.109 156.307 318.102 156.219 318.086ZM152.625 306.922H156.141C154.844 306.036 153.802 305.594 153.016 305.594C151.974 305.594 151.453 305.815 151.453 306.258C151.453 306.701 151.844 306.922 152.625 306.922ZM156.141 305.633V303.641H157.312V307.938H152.234C150.932 307.938 150.281 307.417 150.281 306.375C150.281 305.073 151.193 304.422 153.016 304.422C154.057 304.422 155.034 304.773 155.945 305.477C156.013 305.529 156.078 305.581 156.141 305.633ZM166.703 321.023C166.812 321.023 166.904 320.99 166.977 320.922C167.055 320.854 167.094 320.758 167.094 320.633C167.094 320.508 167.055 320.411 166.977 320.344C166.904 320.276 166.812 320.242 166.703 320.242V321.023ZM165.375 313.344C165.385 311.302 166.365 310.281 168.312 310.281C169.573 310.281 170.417 310.784 170.844 311.789C171.271 310.784 172.12 310.281 173.391 310.281C175.339 310.281 176.312 311.323 176.312 313.406V322H174.984V313.406C174.984 312.104 174.451 311.453 173.383 311.453C172.133 311.453 171.508 312.104 171.508 313.406V322H170.18V313.406C170.18 312.104 169.557 311.453 168.312 311.453C167.25 311.453 166.714 312.083 166.703 313.344V319.32C166.755 319.315 166.807 319.312 166.859 319.312C167.214 319.312 167.477 319.424 167.648 319.648C167.852 319.898 167.953 320.227 167.953 320.633C167.953 321.039 167.852 321.37 167.648 321.625C167.451 321.875 167.122 322 166.664 322C166.206 322 165.875 321.875 165.672 321.625C165.474 321.37 165.375 321.039 165.375 320.633V313.344Z" fill="#344054"/>
<rect x="81" y="349" width="359" height="64" rx="8" fill="white"/>
<path d="M98.9531 377.406C98.9531 377.042 98.8229 376.651 98.5625 376.234V375.844C98.5625 374.802 99.0833 374.281 100.125 374.281H102.469L104.266 375.453H104.891C105.255 375.453 105.438 375.271 105.438 374.906V373.109H106.766V374.906C106.766 376.052 106.323 376.625 105.438 376.625H104.031L102.234 375.453H100.672C100.151 375.453 99.8906 375.609 99.8906 375.922C100.151 376.339 100.281 376.833 100.281 377.406V384.438L102.859 382.25L105.438 384.438V377.406H106.766V386H105.594L102.859 383.656L100.125 386H98.9531V377.406ZM112.195 384.828C112.253 384.828 112.299 384.805 112.336 384.758C112.372 384.706 112.391 384.534 112.391 384.242C112.391 383.951 112.372 383.781 112.336 383.734C112.299 383.682 112.253 383.656 112.195 383.656H112V384.828H112.195ZM112 382.5C112.062 382.49 112.128 382.484 112.195 382.484C112.497 382.484 112.734 382.612 112.906 382.867C113.083 383.117 113.172 383.576 113.172 384.242C113.172 384.909 113.083 385.37 112.906 385.625C112.734 385.875 112.406 386 111.922 386C111.438 386 111.107 385.875 110.93 385.625C110.758 385.37 110.672 384.909 110.672 384.242V377.406C110.568 377.042 110.307 376.651 109.891 376.234V375.453C109.891 374.672 110.281 374.281 111.062 374.281H112.391V375.453H111.453C111.193 375.453 111.062 375.583 111.062 375.844C111.688 376.26 112 376.781 112 377.406V382.5ZM117.234 377.406V387.953C117.234 389.255 117.794 389.906 118.914 389.906C120.034 389.906 120.594 389.255 120.594 387.953V386.781H121.922V387.953C121.922 390.036 120.919 391.078 118.914 391.078C116.909 391.078 115.906 390.036 115.906 387.953V377.406C115.906 377.042 115.646 376.651 115.125 376.234V375.453C115.125 374.672 115.516 374.281 116.297 374.281H117.625V375.453H116.688C116.427 375.453 116.297 375.583 116.297 375.844C116.922 376.26 117.234 376.781 117.234 377.406ZM121.922 380.531V382.094C121.922 383.917 122.781 384.828 124.5 384.828C126.219 384.828 127.078 383.917 127.078 382.094V380.531H121.922ZM121.922 379.359H127.078V377.406C127.078 377.042 126.818 376.651 126.297 376.234V375.453C126.297 374.672 126.688 374.281 127.469 374.281H128.797V375.453H127.859C127.599 375.453 127.469 375.583 127.469 375.844C128.094 376.26 128.406 376.781 128.406 377.406V382.094C128.406 384.698 127.104 386 124.5 386C121.896 386 120.594 384.698 120.594 382.094V377.406C120.594 377.042 120.333 376.651 119.812 376.234V375.453C119.812 374.672 120.203 374.281 120.984 374.281H122.312V375.453H121.375C121.115 375.453 120.984 375.583 120.984 375.844C121.609 376.26 121.922 376.781 121.922 377.406V379.359ZM123.719 370.922H127.234C125.938 370.036 124.896 369.594 124.109 369.594C123.068 369.594 122.547 369.815 122.547 370.258C122.547 370.701 122.938 370.922 123.719 370.922ZM127.234 369.633V367.641H128.406V371.938H123.328C122.026 371.938 121.375 371.417 121.375 370.375C121.375 369.073 122.286 368.422 124.109 368.422C125.151 368.422 126.128 368.773 127.039 369.477C127.107 369.529 127.172 369.581 127.234 369.633ZM133.484 383.656V384.828C133.594 384.828 133.685 384.799 133.758 384.742C133.836 384.68 133.875 384.513 133.875 384.242C133.875 383.971 133.836 383.807 133.758 383.75C133.685 383.688 133.594 383.656 133.484 383.656ZM145.594 377.406V382.094C145.594 384.698 144.422 386 142.078 386C139.552 386 138.289 384.698 138.289 382.094V380.531C138.289 378.708 137.516 377.797 135.969 377.797C134.417 377.797 133.641 378.708 133.641 380.531V382.562C133.76 382.51 133.898 382.484 134.055 382.484C134.211 382.484 134.375 382.625 134.547 382.906C134.724 383.182 134.812 383.628 134.812 384.242C134.812 384.857 134.698 385.305 134.469 385.586C134.245 385.862 133.943 386 133.562 386C133.182 386 132.88 385.859 132.656 385.578C132.479 385.365 132.37 385.049 132.328 384.633H132.312V380.531C132.312 378.906 132.786 377.789 133.734 377.18C133.5 376.789 133.156 376.474 132.703 376.234V375.453C132.703 374.672 133.094 374.281 133.875 374.281H138.172V375.453H134.422C134.161 375.453 134.031 375.583 134.031 375.844C134.438 376.062 134.758 376.349 134.992 376.703C135.294 376.651 135.62 376.625 135.969 376.625C138.401 376.625 139.617 377.927 139.617 380.531V382.094C139.617 383.917 140.438 384.828 142.078 384.828C143.536 384.828 144.266 383.917 144.266 382.094V377.406C144.266 377.042 144.005 376.651 143.484 376.234V375.453C143.484 374.672 143.875 374.281 144.656 374.281H145.984V375.453H145.047C144.786 375.453 144.656 375.583 144.656 375.844C145.281 376.26 145.594 376.781 145.594 377.406ZM156.219 381.383C156.255 381.393 156.292 381.398 156.328 381.398C156.464 381.398 156.531 381.292 156.531 381.078C156.531 380.87 156.479 380.766 156.375 380.766C156.271 380.766 156.219 380.867 156.219 381.07V381.383ZM156.219 382.086V382.875C156.219 384.958 155.281 386 153.406 386C151.531 386 150.594 384.958 150.594 382.875V381.312H151.922V382.875C151.922 384.177 152.417 384.828 153.406 384.828C154.396 384.828 154.891 384.177 154.891 382.875V381.898C151.297 380.862 149.5 379.365 149.5 377.406C149.5 375.323 150.802 374.281 153.406 374.281C156.01 374.281 157.312 375.323 157.312 377.406C157.312 378.859 156.589 379.586 155.141 379.586C154.812 379.586 154.547 379.51 154.344 379.359V378.188C154.714 378.297 155.016 378.352 155.25 378.352C155.74 378.352 155.984 378.036 155.984 377.406C155.984 376.104 155.125 375.453 153.406 375.453C151.688 375.453 150.828 376.104 150.828 377.406C150.828 379.016 152.182 380.148 154.891 380.805C154.891 380.31 155.255 380.062 155.984 380.062C156.87 380.062 157.312 380.388 157.312 381.039C157.312 381.43 157.224 381.706 157.047 381.867C156.87 382.029 156.68 382.109 156.477 382.109C156.393 382.109 156.307 382.102 156.219 382.086ZM152.625 370.922H156.141C154.844 370.036 153.802 369.594 153.016 369.594C151.974 369.594 151.453 369.815 151.453 370.258C151.453 370.701 151.844 370.922 152.625 370.922ZM156.141 369.633V367.641H157.312V371.938H152.234C150.932 371.938 150.281 371.417 150.281 370.375C150.281 369.073 151.193 368.422 153.016 368.422C154.057 368.422 155.034 368.773 155.945 369.477C156.013 369.529 156.078 369.581 156.141 369.633ZM172.406 380.531C172.458 380.479 172.484 380.388 172.484 380.258C172.484 380.044 172.328 379.938 172.016 379.938V380.617C172.224 380.617 172.354 380.589 172.406 380.531ZM168.5 384.828H171.953C171.109 383.938 170.688 383.026 170.688 382.094V379.75C170.688 379.229 171.12 378.969 171.984 378.969C172.37 378.969 172.68 379.034 172.914 379.164C173.154 379.289 173.323 379.469 173.422 379.703C173.526 379.932 173.578 380.195 173.578 380.492C173.578 380.779 173.487 381.052 173.305 381.312C173.122 381.573 172.693 381.703 172.016 381.703V382.094C172.016 383.141 172.536 384.052 173.578 384.828V386H168.5C166.417 386 165.375 384.958 165.375 382.875V379.75C165.375 377.75 166.471 376.557 168.664 376.172L170.523 375.867C171.674 375.576 172.25 375.047 172.25 374.281C172.25 373.76 171.995 373.448 171.484 373.344L172.5 372.719C173.219 372.927 173.578 373.448 173.578 374.281C173.578 375.792 172.555 376.693 170.508 376.984L168.648 377.281C167.352 377.531 166.703 378.354 166.703 379.75V382.875C166.703 384.177 167.302 384.828 168.5 384.828Z" fill="#344054"/>
<rect x="80.5" y="156.5" width="360" height="257" rx="7.5" stroke="#98A2B3"/>
<circle cx="12" cy="16" r="12" fill="#344054"/>
<path d="M14.0057 10.3636V22H11.5455V12.6989H11.4773L8.8125 14.3693V12.1875L11.6932 10.3636H14.0057Z" fill="white"/>
<circle cx="12" cy="84" r="12" fill="#344054"/>
<path d="M7.94318 90V88.2273L12.0852 84.392C12.4375 84.0511 12.733 83.7443 12.9716 83.4716C13.214 83.1989 13.3977 82.9318 13.5227 82.6705C13.6477 82.4053 13.7102 82.1193 13.7102 81.8125C13.7102 81.4716 13.6326 81.178 13.4773 80.9318C13.322 80.6818 13.1098 80.4905 12.8409 80.358C12.572 80.2216 12.267 80.1534 11.9261 80.1534C11.5701 80.1534 11.2595 80.2254 10.9943 80.3693C10.7292 80.5133 10.5246 80.7197 10.3807 80.9886C10.2367 81.2576 10.1648 81.5777 10.1648 81.9489H7.82955C7.82955 81.1875 8.00189 80.5265 8.34659 79.9659C8.69129 79.4053 9.17424 78.9716 9.79545 78.6648C10.4167 78.358 11.1326 78.2045 11.9432 78.2045C12.7765 78.2045 13.5019 78.3523 14.1193 78.6477C14.7405 78.9394 15.2235 79.3447 15.5682 79.8636C15.9129 80.3826 16.0852 80.9773 16.0852 81.6477C16.0852 82.0871 15.9981 82.5208 15.8239 82.9489C15.6534 83.3769 15.3485 83.8523 14.9091 84.375C14.4697 84.8939 13.8504 85.517 13.0511 86.2443L11.3523 87.9091V87.9886H16.2386V90H7.94318Z" fill="white"/>
<path d="M24 84H77" stroke="#344054" stroke-dasharray="2 2"/>
<circle cx="12" cy="188" r="12" fill="#344054"/>
<path d="M12.2443 194.159C11.3958 194.159 10.6402 194.013 9.97727 193.722C9.31818 193.426 8.79735 193.021 8.41477 192.506C8.03598 191.987 7.84091 191.388 7.82955 190.71H10.3068C10.322 190.994 10.4148 191.244 10.5852 191.46C10.7595 191.672 10.9905 191.837 11.2784 191.955C11.5663 192.072 11.8902 192.131 12.25 192.131C12.625 192.131 12.9564 192.064 13.2443 191.932C13.5322 191.799 13.7576 191.616 13.9205 191.381C14.0833 191.146 14.1648 190.875 14.1648 190.568C14.1648 190.258 14.0777 189.983 13.9034 189.744C13.733 189.502 13.4867 189.312 13.1648 189.176C12.8466 189.04 12.4678 188.972 12.0284 188.972H10.9432V187.165H12.0284C12.3996 187.165 12.7273 187.1 13.0114 186.972C13.2992 186.843 13.5227 186.665 13.6818 186.438C13.8409 186.206 13.9205 185.938 13.9205 185.631C13.9205 185.339 13.8504 185.083 13.7102 184.864C13.5739 184.64 13.3807 184.466 13.1307 184.341C12.8845 184.216 12.5966 184.153 12.267 184.153C11.9337 184.153 11.6288 184.214 11.3523 184.335C11.0758 184.453 10.8542 184.621 10.6875 184.841C10.5208 185.061 10.4318 185.318 10.4205 185.614H8.0625C8.07386 184.943 8.26515 184.352 8.63636 183.841C9.00758 183.33 9.50758 182.93 10.1364 182.642C10.7689 182.35 11.483 182.205 12.2784 182.205C13.0814 182.205 13.7841 182.35 14.3864 182.642C14.9886 182.934 15.4564 183.328 15.7898 183.824C16.1269 184.316 16.2936 184.869 16.2898 185.483C16.2936 186.134 16.0909 186.678 15.6818 187.114C15.2765 187.549 14.7481 187.826 14.0966 187.943V188.034C14.9527 188.144 15.6042 188.441 16.0511 188.926C16.5019 189.407 16.7254 190.009 16.7216 190.733C16.7254 191.396 16.5341 191.985 16.1477 192.5C15.7652 193.015 15.2367 193.42 14.5625 193.716C13.8883 194.011 13.1155 194.159 12.2443 194.159Z" fill="white"/>
<circle cx="507" cy="124" r="12" fill="#344054"/>
<path d="M501.767 127.955V126.017L506.625 118.364H508.295V121.045H507.307L504.244 125.892V125.983H511.148V127.955H501.767ZM507.352 130V127.364L507.398 126.506V118.364H509.705V130H507.352Z" fill="white"/>
<path d="M24 188H94" stroke="#344054" stroke-dasharray="2 2"/>
<path d="M425 124H495" stroke="#344054" stroke-dasharray="2 2"/>
<path d="M24.5 16H97.5V39" stroke="#344054" stroke-dasharray="2 2"/>
</svg>
