<svg width="421" height="167" viewBox="0 0 421 167" fill="none" xmlns="http://www.w3.org/2000/svg">
<path d="M13.9062 12.4062V22.9531C13.9062 23.9948 14.5573 24.5156 15.8594 24.5156C17.1615 24.5156 17.8125 23.9948 17.8125 22.9531V21.7812H19.7656V22.9531C19.7656 25.0365 18.4635 26.0781 15.8594 26.0781C13.2552 26.0781 11.9531 25.0365 11.9531 22.9531V12.4062C11.9531 11.9792 11.6927 11.5573 11.1719 11.1406V10.4531C11.1719 9.67188 11.6667 9.28125 12.6562 9.28125H14.2969V10.8438H12.9688V10.9375C13.5938 11.3542 13.9062 11.8438 13.9062 12.4062ZM24.2969 12.4062C24.2969 11.9792 24.0365 11.5573 23.5156 11.1406V10.4531C23.5156 9.67188 24.0104 9.28125 25 9.28125H26.6406V10.8438H25.3125V10.9375C25.9375 11.3542 26.25 11.8438 26.25 12.4062V17.0938C26.25 19.6979 24.8438 21 22.0312 21C19.2188 21 17.8125 19.6979 17.8125 17.0938V12.4062C17.8125 11.9792 17.5521 11.5573 17.0312 11.1406V10.4531C17.0312 9.67188 17.526 9.28125 18.5156 9.28125H20.1562V10.8438H18.8281V10.9375C19.4531 11.3542 19.7656 11.8438 19.7656 12.4062V17.0938C19.7656 18.6562 20.5208 19.4375 22.0312 19.4375C23.5417 19.4375 24.2969 18.6562 24.2969 17.0938V12.4062ZM37.0312 13.5C36.9062 13.5 36.8229 13.5286 36.7812 13.5859C36.7396 13.638 36.7188 13.6979 36.7188 13.7656C36.7188 13.8333 36.737 13.888 36.7734 13.9297C36.8151 13.987 36.901 14.0156 37.0312 14.0156V13.5ZM30.1562 12.4062C30.1562 11.9896 30.026 11.5729 29.7656 11.1562V10.8438C29.7656 9.80208 30.3906 9.28125 31.6406 9.28125H38.5938V10.8438H32.1875C31.875 10.8438 31.7188 10.8958 31.7188 11C31.9792 11.4167 32.1094 11.8854 32.1094 12.4062V18.6094L34.375 16.6875L36.6406 18.6094V15.1172C36.224 15.1016 35.901 14.9427 35.6719 14.6406C35.4844 14.4115 35.3906 14.1224 35.3906 13.7734C35.3906 13.4245 35.5026 13.1094 35.7266 12.8281C35.9505 12.5469 36.3854 12.4062 37.0312 12.4062C37.625 12.4062 38.0339 12.5469 38.2578 12.8281C38.4818 13.1094 38.5938 13.4245 38.5938 13.7734V21H36.9062L34.375 18.8281L31.8438 21H30.1562V12.4062ZM38.5938 9.28125H40.4688C43.125 9.28125 44.4531 10.3229 44.4531 12.4062V21H42.5V12.4062C42.5 11.3646 41.8229 10.8438 40.4688 10.8438H38.5938V9.28125ZM56.7969 15.8984V17.875C56.7969 19.9583 55.9635 21 54.2969 21C53.0625 21 52.1875 20.6745 51.6719 20.0234C51.1562 19.3724 50.7031 19.0469 50.3125 19.0469V21H48.3594V16.3125H50.3125V17.4844C51.1719 17.4844 51.8854 17.8099 52.4531 18.4609C53.026 19.112 53.5286 19.4375 53.9609 19.4375C54.5495 19.4375 54.8438 18.9167 54.8438 17.875V17.0391C50.5208 16.1016 48.3594 14.5573 48.3594 12.4062C48.3594 10.3229 49.7656 9.28125 52.5781 9.28125C55.3906 9.28125 56.7969 10.3229 56.7969 12.4062C56.7969 13.8594 55.9688 14.5859 54.3125 14.5859C53.8594 14.5859 53.4896 14.4792 53.2031 14.2656V12.6797C53.8385 12.8672 54.2448 12.9609 54.4219 12.9609C54.7031 12.9609 54.8438 12.776 54.8438 12.4062C54.8438 11.3646 54.0885 10.8438 52.5781 10.8438C51.0677 10.8438 50.3125 11.3646 50.3125 12.4062C50.3125 13.7448 52.474 14.9089 56.7969 15.8984ZM67.1875 12.4062C67.1875 11.9792 66.9271 11.5573 66.4062 11.1406V10.4531C66.4062 9.67188 66.901 9.28125 67.8906 9.28125H69.5312V10.8438H68.2031V10.9375C68.8281 11.3542 69.1406 11.8438 69.1406 12.4062V17.0938C69.1406 19.6979 67.7344 21 64.9219 21C62.1094 21 60.7031 19.6979 60.7031 17.0938V12.4062C60.7031 11.9792 60.4427 11.5573 59.9219 11.1406V10.4531C59.9219 9.67188 60.4167 9.28125 61.4062 9.28125H63.0469V10.8438H61.7188V10.9375C62.3438 11.3542 62.6562 11.8438 62.6562 12.4062V17.0938C62.6562 18.6562 63.4115 19.4375 64.9219 19.4375C66.4323 19.4375 67.1875 18.6562 67.1875 17.0938V12.4062ZM80.3125 16.2031C80.3125 16.0521 80.2604 15.9766 80.1562 15.9766C80.0521 15.9766 80 16.0547 80 16.2109C80 16.4089 80.1042 16.5182 80.3125 16.5391V16.2031ZM80.3906 17.5391V17.875C80.3906 19.9583 79.349 21 77.2656 21C75.1823 21 74.1406 19.9583 74.1406 17.875V16.3125H76.0938V17.875C76.0938 18.9167 76.4844 19.4375 77.2656 19.4375C78.0469 19.4375 78.4375 18.9167 78.4375 17.875V17.2266C74.8438 15.9297 73.0469 14.3229 73.0469 12.4062C73.0469 10.3229 74.4531 9.28125 77.2656 9.28125C80.0781 9.28125 81.4844 10.3229 81.4844 12.4062C81.4844 13.8594 80.6562 14.5859 79 14.5859C78.5469 14.5859 78.1771 14.4792 77.8906 14.2656V12.6016C78.526 12.7891 78.9323 12.8828 79.1094 12.8828C79.3906 12.8828 79.5312 12.724 79.5312 12.4062C79.5312 11.3646 78.776 10.8438 77.2656 10.8438C75.7552 10.8438 75 11.3646 75 12.4062C75 14.0521 76.1458 15.1536 78.4375 15.7109C78.4375 15.2786 78.9062 15.0625 79.8438 15.0625C80.9375 15.0625 81.4844 15.388 81.4844 16.0391C81.4844 16.6276 81.3776 17.0182 81.1641 17.2109C80.9557 17.4036 80.6979 17.513 80.3906 17.5391Z" fill="#344054"/>
<path d="M13.4766 51.8281C13.5339 51.8281 13.5807 51.8047 13.6172 51.7578C13.6536 51.7057 13.6719 51.5339 13.6719 51.2422C13.6719 50.9505 13.6536 50.7812 13.6172 50.7344C13.5807 50.6823 13.5339 50.6562 13.4766 50.6562H13.2812V51.8281H13.4766ZM13.2812 49.5C13.3438 49.4896 13.4089 49.4844 13.4766 49.4844C13.7786 49.4844 14.0156 49.612 14.1875 49.8672C14.3646 50.1172 14.4531 50.5755 14.4531 51.2422C14.4531 51.9089 14.3646 52.3698 14.1875 52.625C14.0156 52.875 13.6875 53 13.2031 53C12.7188 53 12.388 52.875 12.2109 52.625C12.0391 52.3698 11.9531 51.9089 11.9531 51.2422V44.4062C11.849 44.0417 11.5885 43.651 11.1719 43.2344V42.4531C11.1719 41.6719 11.5625 41.2812 12.3438 41.2812H13.6719V42.4531H12.7344C12.474 42.4531 12.3438 42.5833 12.3438 42.8438C12.9688 43.2604 13.2812 43.7812 13.2812 44.4062V49.5ZM25 48.2344V49.875C25 51.9583 24.2708 53 22.8125 53C21.7396 53 20.9453 52.6745 20.4297 52.0234C19.9141 51.3724 19.276 51.0469 18.5156 51.0469V53H17.1875V48.3125H18.5156V49.875C19.4271 49.875 20.1667 50.2005 20.7344 50.8516C21.3073 51.5026 21.888 51.8281 22.4766 51.8281C23.2734 51.8281 23.6719 51.1771 23.6719 49.875V49.0938C19.349 48.1562 17.1875 46.5938 17.1875 44.4062C17.1875 42.3229 18.4896 41.2812 21.0938 41.2812C23.6979 41.2812 25 42.3229 25 44.4062C25 45.8594 24.276 46.5859 22.8281 46.5859C22.5 46.5859 22.2344 46.5104 22.0312 46.3594V45.1875C22.401 45.2969 22.7031 45.3516 22.9375 45.3516C23.4271 45.3516 23.6719 45.0365 23.6719 44.4062C23.6719 43.1042 22.8125 42.4531 21.0938 42.4531C19.375 42.4531 18.5156 43.1042 18.5156 44.4062C18.5156 45.9688 20.6771 47.2448 25 48.2344ZM30.0781 43.4297C30.0781 43.6224 30.1276 43.7682 30.2266 43.8672C30.3255 43.9661 30.4714 44.0156 30.6641 44.0156C30.862 44.0156 31.0078 43.9661 31.1016 43.8672C31.2005 43.7682 31.25 43.6224 31.25 43.4297C31.25 43.2318 31.2005 43.0859 31.1016 42.9922C31.0078 42.8932 30.862 42.8438 30.6641 42.8438C30.4714 42.8438 30.3255 42.8932 30.2266 42.9922C30.1276 43.0859 30.0781 43.2318 30.0781 43.4297ZM32.4219 43.4297C32.4219 44.0182 32.276 44.4583 31.9844 44.75C31.6927 45.0417 31.2526 45.1875 30.6641 45.1875C30.0755 45.1875 29.6354 45.0417 29.3438 44.75C29.0521 44.4583 28.9062 44.0182 28.9062 43.4297C28.9062 42.8411 29.0521 42.401 29.3438 42.1094C29.6354 41.8177 30.0755 41.6719 30.6641 41.6719C31.2526 41.6719 31.6927 41.8177 31.9844 42.1094C32.276 42.401 32.4219 42.8411 32.4219 43.4297ZM30.0781 50.8516C30.0781 51.0443 30.1276 51.1901 30.2266 51.2891C30.3255 51.388 30.4714 51.4375 30.6641 51.4375C30.862 51.4375 31.0078 51.388 31.1016 51.2891C31.2005 51.1901 31.25 51.0443 31.25 50.8516C31.25 50.6536 31.2005 50.5078 31.1016 50.4141C31.0078 50.3151 30.862 50.2656 30.6641 50.2656C30.4714 50.2656 30.3255 50.3151 30.2266 50.4141C30.1276 50.5078 30.0781 50.6536 30.0781 50.8516ZM32.4219 50.8516C32.4219 51.4401 32.276 51.8802 31.9844 52.1719C31.6927 52.4635 31.2526 52.6094 30.6641 52.6094C30.0755 52.6094 29.6354 52.4635 29.3438 52.1719C29.0521 51.8802 28.9062 51.4401 28.9062 50.8516C28.9062 50.263 29.0521 49.8229 29.3438 49.5312C29.6354 49.2396 30.0755 49.0938 30.6641 49.0938C31.2526 49.0938 31.6927 49.2396 31.9844 49.5312C32.276 49.8229 32.4219 50.263 32.4219 50.8516ZM44.1406 41.2812V42.4531H36.3281V41.2812H44.1406ZM37.6562 50.2656C38.0469 49.4844 38.6719 49.0938 39.5312 49.0938H40.2344V50.3438H39.5312C38.6719 50.3438 38.0469 50.7344 37.6562 51.5156V53H36.3281V47.5312C36.3281 44.9271 37.6302 43.625 40.2344 43.625C42.8385 43.625 44.1406 44.9271 44.1406 47.5312V53H42.8125V47.5312C42.8125 45.7083 41.9531 44.7969 40.2344 44.7969C38.5156 44.7969 37.6562 45.7083 37.6562 47.5312V50.2656ZM39.4531 37.9219H42.9688C41.6719 37.0365 40.6302 36.5938 39.8438 36.5938C38.8021 36.5938 38.2812 36.8151 38.2812 37.2578C38.2812 37.7005 38.6719 37.9219 39.4531 37.9219ZM43.125 36.7578V34.6406H44.1406V38.9375H39.0625C37.7604 38.9375 37.1094 38.4167 37.1094 37.375C37.1094 36.0729 38.0208 35.4219 39.8438 35.4219C40.4375 35.4219 41.0104 35.5365 41.5625 35.7656V34.6406H42.5781V36.3281C42.6458 36.375 42.7109 36.4245 42.7734 36.4766C42.8984 36.5755 43.0156 36.6693 43.125 36.7578ZM48.0469 44.4062C48.0469 44.0417 47.9167 43.651 47.6562 43.2344V42.8438C47.6562 41.8021 48.1771 41.2812 49.2188 41.2812H51.5625L53.3594 42.4531H53.9844C54.349 42.4531 54.5312 42.2708 54.5312 41.9062V40.1094H55.8594V41.9062C55.8594 43.0521 55.4167 43.625 54.5312 43.625H53.125L51.3281 42.4531H49.7656C49.2448 42.4531 48.9844 42.6094 48.9844 42.9219C49.2448 43.3385 49.375 43.8333 49.375 44.4062V51.4375L51.9531 49.25L54.5312 51.4375V44.4062H55.8594V53H54.6875L51.9531 50.6562L49.2188 53H48.0469V44.4062ZM55.8594 41.2812H57.4219C59.5052 41.2812 60.5469 42.3229 60.5469 44.4062V53H59.2188V44.4062C59.2188 43.1042 58.6198 42.4531 57.4219 42.4531H55.8594V41.2812ZM64.4531 51.8281V50.6562H64.2578C64.2005 50.6562 64.1536 50.6823 64.1172 50.7344C64.0807 50.7812 64.0625 50.9505 64.0625 51.2422C64.0625 51.5339 64.0807 51.7057 64.1172 51.7578C64.1536 51.8047 64.2005 51.8281 64.2578 51.8281H64.4531ZM70.9375 51.8281V50.6562H70.7422C70.6849 50.6562 70.638 50.6823 70.6016 50.7344C70.5651 50.7812 70.5469 50.9505 70.5469 51.2422C70.5469 51.5339 70.5651 51.7057 70.6016 51.7578C70.638 51.8047 70.6849 51.8281 70.7422 51.8281H70.9375ZM65.7812 47.5312V51.2422C65.7812 51.9089 65.6927 52.3698 65.5156 52.625C65.3438 52.875 65.0156 53 64.5312 53C64.0469 53 63.7161 52.875 63.5391 52.625C63.3672 52.3698 63.2812 51.9089 63.2812 51.2422C63.2812 50.5755 63.3672 50.1172 63.5391 49.8672C63.7161 49.612 63.9557 49.4844 64.2578 49.4844C64.3255 49.4844 64.3906 49.4896 64.4531 49.5V44.4062C64.349 44.0417 64.0885 43.651 63.6719 43.2344V42.4531C63.6719 41.6719 64.0625 41.2812 64.8438 41.2812H66.1719V42.4531H65.2344C64.974 42.4531 64.8438 42.5833 64.8438 42.8438C65.4688 43.2604 65.7812 43.7812 65.7812 44.4062V46.3594H70.9375V44.4062C70.8333 44.0417 70.5729 43.651 70.1562 43.2344V42.4531C70.1562 41.6719 70.5469 41.2812 71.3281 41.2812H72.6562V42.4531H71.7188C71.4583 42.4531 71.3281 42.5833 71.3281 42.8438C71.9531 43.2604 72.2656 43.7812 72.2656 44.4062V51.2422C72.2656 51.9089 72.1771 52.3698 72 52.625C71.8281 52.875 71.5 53 71.0156 53C70.5312 53 70.2005 52.875 70.0234 52.625C69.8516 52.3698 69.7656 51.9089 69.7656 51.2422C69.7656 50.5755 69.8516 50.1172 70.0234 49.8672C70.2005 49.612 70.4401 49.4844 70.7422 49.4844C70.8099 49.4844 70.875 49.4896 70.9375 49.5V47.5312H65.7812ZM77.3438 50.6562V51.8281C77.4531 51.8281 77.5443 51.7995 77.6172 51.7422C77.6953 51.6797 77.7344 51.513 77.7344 51.2422C77.7344 50.9714 77.6953 50.8073 77.6172 50.75C77.5443 50.6875 77.4531 50.6562 77.3438 50.6562ZM83.9844 41.2812V42.4531H76.1719V41.2812H83.9844ZM76.1719 47.5312C76.1719 44.9271 77.474 43.625 80.0781 43.625C82.6823 43.625 83.9844 44.9271 83.9844 47.5312V53H82.6562V47.5312C82.6562 45.7083 81.7969 44.7969 80.0781 44.7969C78.3594 44.7969 77.5 45.7083 77.5 47.5312V49.5625C77.6198 49.5104 77.7578 49.4844 77.9141 49.4844C78.0703 49.4844 78.2344 49.625 78.4062 49.9062C78.5833 50.1823 78.6719 50.6276 78.6719 51.2422C78.6719 51.8568 78.5573 52.3047 78.3281 52.5859C78.1042 52.862 77.8021 53 77.4219 53C77.0417 53 76.7396 52.8594 76.5156 52.5781C76.3385 52.3646 76.2292 52.0495 76.1875 51.6328H76.1719V47.5312ZM77.7344 56.0469C77.7344 56.6823 77.901 57 78.2344 57C78.4167 57 78.6667 56.9453 78.9844 56.8359V57.8516C78.8333 58.0026 78.5677 58.0781 78.1875 58.0781C77.1042 58.0781 76.5625 57.401 76.5625 56.0469C76.5625 54.5365 77.2786 53.7812 78.7109 53.7812C79.6484 53.7812 80.3724 54.1719 80.8828 54.9531C81.388 55.7344 81.8099 56.2552 82.1484 56.5156C82.487 56.776 82.9688 56.9062 83.5938 56.9062V58.0781C82.8125 58.0781 82.2005 57.9089 81.7578 57.5703C81.3151 57.2318 80.8672 56.7109 80.4141 56.0078C79.9557 55.3047 79.388 54.9531 78.7109 54.9531C78.0599 54.9531 77.7344 55.3177 77.7344 56.0469ZM94.375 44.4062C94.375 44.0417 94.1146 43.651 93.5938 43.2344V42.4531C93.5938 41.6719 93.9844 41.2812 94.7656 41.2812H96.0938V42.4531H95.1562C94.8958 42.4531 94.7656 42.5833 94.7656 42.8438C95.3906 43.2604 95.7031 43.7812 95.7031 44.4062V49.0938C95.7031 51.6979 94.401 53 91.7969 53C89.1927 53 87.8906 51.6979 87.8906 49.0938V44.4062C87.8906 44.0417 87.6302 43.651 87.1094 43.2344V42.4531C87.1094 41.6719 87.5 41.2812 88.2812 41.2812H89.6094V42.4531H88.6719C88.4115 42.4531 88.2812 42.5833 88.2812 42.8438C88.9062 43.2604 89.2188 43.7812 89.2188 44.4062V49.0938C89.2188 50.9167 90.0781 51.8281 91.7969 51.8281C93.5156 51.8281 94.375 50.9167 94.375 49.0938V44.4062ZM106.328 48.3828C106.365 48.3932 106.401 48.3984 106.438 48.3984C106.573 48.3984 106.641 48.2917 106.641 48.0781C106.641 47.8698 106.589 47.7656 106.484 47.7656C106.38 47.7656 106.328 47.8672 106.328 48.0703V48.3828ZM106.328 49.0859V49.875C106.328 51.9583 105.391 53 103.516 53C101.641 53 100.703 51.9583 100.703 49.875V48.3125H102.031V49.875C102.031 51.1771 102.526 51.8281 103.516 51.8281C104.505 51.8281 105 51.1771 105 49.875V48.8984C101.406 47.862 99.6094 46.3646 99.6094 44.4062C99.6094 42.3229 100.911 41.2812 103.516 41.2812C106.12 41.2812 107.422 42.3229 107.422 44.4062C107.422 45.8594 106.698 46.5859 105.25 46.5859C104.922 46.5859 104.656 46.5104 104.453 46.3594V45.1875C104.823 45.2969 105.125 45.3516 105.359 45.3516C105.849 45.3516 106.094 45.0365 106.094 44.4062C106.094 43.1042 105.234 42.4531 103.516 42.4531C101.797 42.4531 100.938 43.1042 100.938 44.4062C100.938 46.0156 102.292 47.1484 105 47.8047C105 47.3099 105.365 47.0625 106.094 47.0625C106.979 47.0625 107.422 47.388 107.422 48.0391C107.422 48.4297 107.333 48.7057 107.156 48.8672C106.979 49.0286 106.789 49.1094 106.586 49.1094C106.503 49.1094 106.417 49.1016 106.328 49.0859ZM112.852 51.8281C112.909 51.8281 112.956 51.8047 112.992 51.7578C113.029 51.7057 113.047 51.5339 113.047 51.2422C113.047 50.9505 113.029 50.7812 112.992 50.7344C112.956 50.6823 112.909 50.6562 112.852 50.6562H112.656V51.8281H112.852ZM112.656 49.5C112.719 49.4896 112.784 49.4844 112.852 49.4844C113.154 49.4844 113.391 49.612 113.562 49.8672C113.74 50.1172 113.828 50.5755 113.828 51.2422C113.828 51.9089 113.74 52.3698 113.562 52.625C113.391 52.875 113.062 53 112.578 53C112.094 53 111.763 52.875 111.586 52.625C111.414 52.3698 111.328 51.9089 111.328 51.2422V44.4062C111.224 44.0417 110.964 43.651 110.547 43.2344V42.4531C110.547 41.6719 110.938 41.2812 111.719 41.2812H113.047V42.4531H112.109C111.849 42.4531 111.719 42.5833 111.719 42.8438C112.344 43.2604 112.656 43.7812 112.656 44.4062V49.5ZM111.602 39.4062C112.122 39.4062 112.383 39.1198 112.383 38.5469C112.383 37.4531 111.992 36.9062 111.211 36.9062C110.872 36.9062 110.586 37.0104 110.352 37.2188L109.961 36.2812C110.299 35.9688 110.716 35.8125 111.211 35.8125C112.721 35.8125 113.477 36.724 113.477 38.5469C113.477 39.849 112.852 40.5 111.602 40.5C110.508 40.5 109.961 40.0625 109.961 39.1875C109.961 38.7552 110.057 38.4505 110.25 38.2734C110.448 38.0911 110.792 38 111.281 38V38.9375C111.13 38.9375 111.055 39.0156 111.055 39.1719C111.055 39.3281 111.237 39.4062 111.602 39.4062ZM117.734 50.6562V51.8281C117.844 51.8281 117.935 51.7995 118.008 51.7422C118.086 51.6797 118.125 51.513 118.125 51.2422C118.125 50.9714 118.086 50.8073 118.008 50.75C117.935 50.6875 117.844 50.6562 117.734 50.6562ZM116.562 45.1875C116.562 42.5833 117.651 41.2812 119.828 41.2812C122 41.2812 123.086 42.5833 123.086 45.1875V51.6719L125.156 48.9375L127.227 51.6719V45.1875C127.227 42.5833 128.315 41.2812 130.492 41.2812C132.664 41.2812 133.75 42.5833 133.75 45.1875V53H132.422V45.1875C132.422 43.3646 131.779 42.4531 130.492 42.4531C129.201 42.4531 128.555 43.3646 128.555 45.1875V53H126.836L125.156 50.6562L123.477 53H121.758V45.1875C121.758 43.3646 121.089 42.4531 119.75 42.4531C118.51 42.4531 117.891 43.3646 117.891 45.1875V49.5625C118.01 49.5104 118.148 49.4844 118.305 49.4844C118.461 49.4844 118.625 49.625 118.797 49.9062C118.974 50.1823 119.062 50.6276 119.062 51.2422C119.062 51.8568 118.948 52.3047 118.719 52.5859C118.495 52.862 118.193 53 117.812 53C117.432 53 117.13 52.8594 116.906 52.5781C116.729 52.3646 116.62 52.0495 116.578 51.6328H116.562V45.1875ZM145.469 48.2344V49.875C145.469 51.9583 144.74 53 143.281 53C142.208 53 141.414 52.6745 140.898 52.0234C140.383 51.3724 139.745 51.0469 138.984 51.0469V53H137.656V48.3125H138.984V49.875C139.896 49.875 140.635 50.2005 141.203 50.8516C141.776 51.5026 142.357 51.8281 142.945 51.8281C143.742 51.8281 144.141 51.1771 144.141 49.875V49.0938C139.818 48.1562 137.656 46.5938 137.656 44.4062C137.656 42.3229 138.958 41.2812 141.562 41.2812C144.167 41.2812 145.469 42.3229 145.469 44.4062C145.469 45.8594 144.745 46.5859 143.297 46.5859C142.969 46.5859 142.703 46.5104 142.5 46.3594V45.1875C142.87 45.2969 143.172 45.3516 143.406 45.3516C143.896 45.3516 144.141 45.0365 144.141 44.4062C144.141 43.1042 143.281 42.4531 141.562 42.4531C139.844 42.4531 138.984 43.1042 138.984 44.4062C138.984 45.9688 141.146 47.2448 145.469 48.2344ZM145.469 41.2812H147.031C149.115 41.2812 150.156 42.3229 150.156 44.4062V53H148.828V44.4062C148.828 43.1042 148.229 42.4531 147.031 42.4531H145.469V41.2812ZM145.859 37.1797C145.859 37.3724 145.909 37.5182 146.008 37.6172C146.107 37.7161 146.253 37.7656 146.445 37.7656C146.643 37.7656 146.792 37.7161 146.891 37.6172C146.984 37.5182 147.031 37.3724 147.031 37.1797C147.031 36.9818 146.984 36.8359 146.891 36.7422C146.792 36.6432 146.643 36.5938 146.445 36.5938C146.253 36.5938 146.107 36.6432 146.008 36.7422C145.909 36.8359 145.859 36.9818 145.859 37.1797ZM148.203 37.1797C148.203 37.7682 148.057 38.2083 147.766 38.5C147.474 38.7917 147.034 38.9375 146.445 38.9375C145.857 38.9375 145.417 38.7917 145.125 38.5C144.833 38.2083 144.688 37.7682 144.688 37.1797C144.688 36.5911 144.833 36.151 145.125 35.8594C145.417 35.5677 145.857 35.4219 146.445 35.4219C147.034 35.4219 147.474 35.5677 147.766 35.8594C148.057 36.151 148.203 36.5911 148.203 37.1797Z" fill="#667085"/>
<rect x="10.5" y="64.5" width="358" height="47" rx="7.5" fill="white"/>
<rect x="10.5" y="64.5" width="358" height="47" rx="7.5" stroke="#98A2B3"/>
<path d="M29.4766 91.8281C29.5339 91.8281 29.5807 91.8047 29.6172 91.7578C29.6536 91.7057 29.6719 91.5339 29.6719 91.2422C29.6719 90.9505 29.6536 90.7812 29.6172 90.7344C29.5807 90.6823 29.5339 90.6562 29.4766 90.6562H29.2812V91.8281H29.4766ZM29.2812 89.5C29.3438 89.4896 29.4089 89.4844 29.4766 89.4844C29.7786 89.4844 30.0156 89.612 30.1875 89.8672C30.3646 90.1172 30.4531 90.5755 30.4531 91.2422C30.4531 91.9089 30.3646 92.3698 30.1875 92.625C30.0156 92.875 29.6875 93 29.2031 93C28.7188 93 28.388 92.875 28.2109 92.625C28.0391 92.3698 27.9531 91.9089 27.9531 91.2422V84.4062C27.849 84.0417 27.5885 83.651 27.1719 83.2344V82.4531C27.1719 81.6719 27.5625 81.2812 28.3438 81.2812H29.6719V82.4531H28.7344C28.474 82.4531 28.3438 82.5833 28.3438 82.8438C28.9688 83.2604 29.2812 83.7812 29.2812 84.4062V89.5ZM28.2266 79.4062C28.7474 79.4062 29.0078 79.1198 29.0078 78.5469C29.0078 77.4531 28.6172 76.9062 27.8359 76.9062C27.4974 76.9062 27.2109 77.0104 26.9766 77.2188L26.5859 76.2812C26.9245 75.9688 27.3411 75.8125 27.8359 75.8125C29.3464 75.8125 30.1016 76.724 30.1016 78.5469C30.1016 79.849 29.4766 80.5 28.2266 80.5C27.1328 80.5 26.5859 80.0625 26.5859 79.1875C26.5859 78.7552 26.6823 78.4505 26.875 78.2734C27.0729 78.0911 27.4167 78 27.9062 78V78.9375C27.7552 78.9375 27.6797 79.0156 27.6797 79.1719C27.6797 79.3281 27.862 79.4062 28.2266 79.4062ZM34.3594 90.6562V91.8281C34.4688 91.8281 34.5599 91.7995 34.6328 91.7422C34.7109 91.6797 34.75 91.513 34.75 91.2422C34.75 90.9714 34.7109 90.8073 34.6328 90.75C34.5599 90.6875 34.4688 90.6562 34.3594 90.6562ZM46.4688 84.4062V89.0938C46.4688 91.6979 45.2969 93 42.9531 93C40.4271 93 39.1641 91.6979 39.1641 89.0938V87.5312C39.1641 85.7083 38.3906 84.7969 36.8438 84.7969C35.2917 84.7969 34.5156 85.7083 34.5156 87.5312V89.5625C34.6354 89.5104 34.7734 89.4844 34.9297 89.4844C35.0859 89.4844 35.25 89.625 35.4219 89.9062C35.599 90.1823 35.6875 90.6276 35.6875 91.2422C35.6875 91.8568 35.5729 92.3047 35.3438 92.5859C35.1198 92.862 34.8177 93 34.4375 93C34.0573 93 33.7552 92.8594 33.5312 92.5781C33.3542 92.3646 33.2448 92.0495 33.2031 91.6328H33.1875V87.5312C33.1875 85.9062 33.6615 84.7891 34.6094 84.1797C34.375 83.7891 34.0312 83.474 33.5781 83.2344V82.4531C33.5781 81.6719 33.9688 81.2812 34.75 81.2812H39.0469V82.4531H35.2969C35.0365 82.4531 34.9062 82.5833 34.9062 82.8438C35.3125 83.0625 35.6328 83.349 35.8672 83.7031C36.1693 83.651 36.4948 83.625 36.8438 83.625C39.276 83.625 40.4922 84.9271 40.4922 87.5312V89.0938C40.4922 90.9167 41.3125 91.8281 42.9531 91.8281C44.4115 91.8281 45.1406 90.9167 45.1406 89.0938V84.4062C45.1406 84.0417 44.8802 83.651 44.3594 83.2344V82.4531C44.3594 81.6719 44.75 81.2812 45.5312 81.2812H46.8594V82.4531H45.9219C45.6615 82.4531 45.5312 82.5833 45.5312 82.8438C46.1562 83.2604 46.4688 83.7812 46.4688 84.4062ZM44.9922 95.1797C44.5391 95.5182 44 95.8307 43.375 96.1172C42.75 96.4036 42.2318 96.599 41.8203 96.7031C41.8464 96.8958 42.0443 96.9922 42.4141 96.9922C42.4609 96.9922 42.5104 96.9896 42.5625 96.9844C42.8958 96.9479 43.1719 96.901 43.3906 96.8438C43.6042 96.7865 43.8281 96.6849 44.0625 96.5391C44.2969 96.3984 44.4818 96.2292 44.6172 96.0312C44.7474 95.8333 44.8724 95.5495 44.9922 95.1797ZM44.5156 97.5156C44.25 97.6927 43.9375 97.8307 43.5781 97.9297C43.2135 98.0286 42.7708 98.0781 42.25 98.0781C41.1562 98.0781 40.6094 97.5573 40.6094 96.5156V95.8906C41.5729 95.7083 42.4375 95.4453 43.2031 95.1016C43.9688 94.7578 44.5365 94.3177 44.9062 93.7812H46.0781C46.0781 94.7188 45.9818 95.4115 45.7891 95.8594C45.5964 96.3125 45.4036 96.6589 45.2109 96.8984C45.013 97.138 44.7812 97.3438 44.5156 97.5156ZM56.2344 82.4688C56.2344 82.3125 56.1302 82.2344 55.9219 82.2344C55.7135 82.2344 55.6094 82.3125 55.6094 82.4688C55.6094 82.6094 55.7135 82.75 55.9219 82.8906C56.1302 82.7812 56.2344 82.6406 56.2344 82.4688ZM50.1797 86.3594C50.1224 86.3594 50.0755 86.3854 50.0391 86.4375C50.0026 86.4844 49.9844 86.6536 49.9844 86.9453C49.9844 87.237 50.0026 87.4089 50.0391 87.4609C50.0755 87.5078 50.1224 87.5312 50.1797 87.5312H50.375V86.3594H50.1797ZM51.7031 91.4375L54.2812 89.0938L56.8594 91.4375V85.9688C56.8594 85.4062 56.4375 84.8099 55.5938 84.1797C55.1667 84.5911 54.4427 84.7969 53.4219 84.7969C52.2865 84.7969 51.4948 84.6484 51.0469 84.3516C50.599 84.0547 50.375 83.6432 50.375 83.1172C50.375 82.5964 50.4792 82.1094 50.6875 81.6562C50.8958 81.1979 51 80.8255 51 80.5391C51 80.2526 50.6615 80.1094 49.9844 80.1094V78.9375C51.4427 78.9375 52.1719 79.4323 52.1719 80.4219C52.1719 80.8125 52.0677 81.25 51.8594 81.7344C51.651 82.2135 51.5469 82.5547 51.5469 82.7578C51.5469 82.9661 51.6771 83.1641 51.9375 83.3516C52.1979 83.5339 52.7109 83.625 53.4766 83.625C54.138 83.625 54.6146 83.5391 54.9062 83.3672C54.6458 83.1536 54.5156 82.8229 54.5156 82.375C54.5156 81.6458 54.9844 81.2812 55.9219 81.2812C56.9115 81.2812 57.4062 81.724 57.4062 82.6094C57.4062 83.0625 57.2031 83.4479 56.7969 83.7656C57.724 84.4375 58.1875 85.1719 58.1875 85.9688V93H56.625L54.2812 90.6562L51.9375 93H50.375V88.6875C50.3125 88.6979 50.2474 88.7031 50.1797 88.7031C49.8776 88.7031 49.638 88.5781 49.4609 88.3281C49.2891 88.0729 49.2031 87.612 49.2031 86.9453C49.2031 86.2786 49.2891 85.8203 49.4609 85.5703C49.638 85.3151 49.9688 85.1875 50.4531 85.1875C50.9375 85.1875 51.2656 85.3151 51.4375 85.5703C51.6146 85.8203 51.7031 86.2786 51.7031 86.9453V91.4375ZM62.0938 91.8281V90.6562H61.8984C61.8411 90.6562 61.7943 90.6823 61.7578 90.7344C61.7214 90.7812 61.7031 90.9505 61.7031 91.2422C61.7031 91.5339 61.7214 91.7057 61.7578 91.7578C61.7943 91.8047 61.8411 91.8281 61.8984 91.8281H62.0938ZM63.4219 84.4062V91.2422C63.4219 91.9089 63.3333 92.3698 63.1562 92.625C62.9844 92.875 62.6562 93 62.1719 93C61.6875 93 61.3568 92.875 61.1797 92.625C61.0078 92.3698 60.9219 91.9089 60.9219 91.2422C60.9219 90.5755 61.0078 90.1172 61.1797 89.8672C61.3568 89.612 61.5964 89.4844 61.8984 89.4844C61.9661 89.4844 62.0312 89.4896 62.0938 89.5V84.4062C61.9896 84.0417 61.7292 83.651 61.3125 83.2344V82.4531C61.3125 81.6719 61.7031 81.2812 62.4844 81.2812H63.8125V82.4531H62.875C62.6146 82.4531 62.4844 82.5833 62.4844 82.8438C63.1094 83.2604 63.4219 83.7812 63.4219 84.4062ZM68.6562 93H67.3281V87.5312C67.3281 84.9271 68.6302 83.625 71.2344 83.625C73.8385 83.625 75.1406 84.9271 75.1406 87.5312V93H73.8125V87.5312C73.8125 85.7083 72.9531 84.7969 71.2344 84.7969C69.5156 84.7969 68.6562 85.7083 68.6562 87.5312V93ZM75.1406 81.2812V82.4531H67.3281V81.2812H75.1406ZM85.5312 85.3828C85.4219 85.3828 85.3281 85.4167 85.25 85.4844C85.1771 85.5521 85.1406 85.6484 85.1406 85.7734C85.1406 85.8984 85.1771 85.9948 85.25 86.0625C85.3281 86.1302 85.4219 86.1641 85.5312 86.1641V85.3828ZM85.5312 87.0859C85.4792 87.0911 85.4271 87.0938 85.375 87.0938C85.0208 87.0938 84.7578 86.9818 84.5859 86.7578C84.3828 86.5078 84.2812 86.1797 84.2812 85.7734C84.2812 85.3672 84.3802 85.0391 84.5781 84.7891C84.7812 84.5339 85.112 84.4062 85.5703 84.4062C86.0286 84.4062 86.3568 84.5339 86.5547 84.7891C86.7578 85.0391 86.8594 85.3672 86.8594 85.7734V93H85.6875L82.9531 90.6562L80.2188 93H79.0469V84.4062C79.0469 84.0417 78.9167 83.651 78.6562 83.2344V82.8438C78.6562 81.8021 79.1771 81.2812 80.2188 81.2812H86.8594V82.4531H80.7656C80.2448 82.4531 79.9844 82.6094 79.9844 82.9219C80.2448 83.3385 80.375 83.8333 80.375 84.4062V91.4375L82.9531 89.25L85.5312 91.4375V87.0859ZM86.8594 81.2812H88.4219C90.5052 81.2812 91.5469 82.3229 91.5469 84.4062V93H90.2188V84.4062C90.2188 83.1042 89.6198 82.4531 88.4219 82.4531H86.8594V81.2812ZM96.625 90.6562V91.8281C96.7344 91.8281 96.8255 91.7995 96.8984 91.7422C96.9766 91.6797 97.0156 91.513 97.0156 91.2422C97.0156 90.9714 96.9766 90.8073 96.8984 90.75C96.8255 90.6875 96.7344 90.6562 96.625 90.6562ZM103.266 81.2812V82.4531H95.4531V81.2812H103.266ZM95.4531 87.5312C95.4531 84.9271 96.7552 83.625 99.3594 83.625C101.964 83.625 103.266 84.9271 103.266 87.5312V93H101.938V87.5312C101.938 85.7083 101.078 84.7969 99.3594 84.7969C97.6406 84.7969 96.7812 85.7083 96.7812 87.5312V89.5625C96.901 89.5104 97.0391 89.4844 97.1953 89.4844C97.3516 89.4844 97.5156 89.625 97.6875 89.9062C97.8646 90.1823 97.9531 90.6276 97.9531 91.2422C97.9531 91.8568 97.8385 92.3047 97.6094 92.5859C97.3854 92.862 97.0833 93 96.7031 93C96.3229 93 96.0208 92.8594 95.7969 92.5781C95.6198 92.3646 95.5104 92.0495 95.4688 91.6328H95.4531V87.5312ZM103.266 93.7812V98.0781H101.938V93.7812H103.266Z" fill="#344054"/>
<path fill-rule="evenodd" clip-rule="evenodd" d="M339.136 84.9044C339.178 84.8614 339.229 84.8273 339.285 84.804C339.342 84.7808 339.402 84.7688 339.462 84.7688C339.523 84.7688 339.583 84.7808 339.639 84.804C339.695 84.8273 339.746 84.8614 339.789 84.9044L345 90.1164L350.211 84.9044C350.254 84.8615 350.305 84.8274 350.361 84.8042C350.417 84.781 350.477 84.769 350.538 84.769C350.599 84.769 350.659 84.781 350.715 84.8042C350.771 84.8274 350.822 84.8615 350.865 84.9044C350.908 84.9473 350.942 84.9982 350.965 85.0543C350.988 85.1103 351 85.1704 351 85.2311C351 85.2918 350.988 85.3519 350.965 85.4079C350.942 85.464 350.908 85.5149 350.865 85.5578L345.327 91.0957C345.284 91.1386 345.233 91.1727 345.177 91.196C345.121 91.2193 345.061 91.2312 345 91.2312C344.939 91.2312 344.879 91.2193 344.823 91.196C344.767 91.1727 344.716 91.1386 344.673 91.0957L339.136 85.5578C339.093 85.515 339.059 85.464 339.035 85.408C339.012 85.3519 339 85.2918 339 85.2311C339 85.1704 339.012 85.1103 339.035 85.0542C339.059 84.9982 339.093 84.9472 339.136 84.9044Z" fill="#344054"/>
<path d="M13.125 130.656V131.828C13.2344 131.828 13.3255 131.799 13.3984 131.742C13.4766 131.68 13.5156 131.513 13.5156 131.242C13.5156 130.971 13.4766 130.807 13.3984 130.75C13.3255 130.688 13.2344 130.656 13.125 130.656ZM25.2344 124.406V129.094C25.2344 131.698 24.0625 133 21.7188 133C19.1927 133 17.9297 131.698 17.9297 129.094V127.531C17.9297 125.708 17.1562 124.797 15.6094 124.797C14.0573 124.797 13.2812 125.708 13.2812 127.531V129.562C13.401 129.51 13.5391 129.484 13.6953 129.484C13.8516 129.484 14.0156 129.625 14.1875 129.906C14.3646 130.182 14.4531 130.628 14.4531 131.242C14.4531 131.857 14.3385 132.305 14.1094 132.586C13.8854 132.862 13.5833 133 13.2031 133C12.8229 133 12.5208 132.859 12.2969 132.578C12.1198 132.365 12.0104 132.049 11.9688 131.633H11.9531V127.531C11.9531 125.906 12.4271 124.789 13.375 124.18C13.1406 123.789 12.7969 123.474 12.3438 123.234V122.453C12.3438 121.672 12.7344 121.281 13.5156 121.281H17.8125V122.453H14.0625C13.8021 122.453 13.6719 122.583 13.6719 122.844C14.0781 123.062 14.3984 123.349 14.6328 123.703C14.9349 123.651 15.2604 123.625 15.6094 123.625C18.0417 123.625 19.2578 124.927 19.2578 127.531V129.094C19.2578 130.917 20.0781 131.828 21.7188 131.828C23.1771 131.828 23.9062 130.917 23.9062 129.094V124.406C23.9062 124.042 23.6458 123.651 23.125 123.234V122.453C23.125 121.672 23.5156 121.281 24.2969 121.281H25.625V122.453H24.6875C24.4271 122.453 24.2969 122.583 24.2969 122.844C24.9219 123.26 25.2344 123.781 25.2344 124.406ZM25.2344 121.281H26.7969C28.8802 121.281 29.9219 122.323 29.9219 124.406V133H28.5938V124.406C28.5938 123.104 27.9948 122.453 26.7969 122.453H25.2344V121.281ZM33.8281 131.828V130.656H33.6328C33.5755 130.656 33.5286 130.682 33.4922 130.734C33.4557 130.781 33.4375 130.951 33.4375 131.242C33.4375 131.534 33.4557 131.706 33.4922 131.758C33.5286 131.805 33.5755 131.828 33.6328 131.828H33.8281ZM35.1562 124.406V131.242C35.1562 131.909 35.0677 132.37 34.8906 132.625C34.7188 132.875 34.3906 133 33.9062 133C33.4219 133 33.0911 132.875 32.9141 132.625C32.7422 132.37 32.6562 131.909 32.6562 131.242C32.6562 130.576 32.7422 130.117 32.9141 129.867C33.0911 129.612 33.3307 129.484 33.6328 129.484C33.7005 129.484 33.7656 129.49 33.8281 129.5V124.406C33.724 124.042 33.4635 123.651 33.0469 123.234V122.453C33.0469 121.672 33.4375 121.281 34.2188 121.281H35.5469V122.453H34.6094C34.349 122.453 34.2188 122.583 34.2188 122.844C34.8438 123.26 35.1562 123.781 35.1562 124.406ZM40.3906 124.406V134.953C40.3906 136.255 40.9505 136.906 42.0703 136.906C43.1901 136.906 43.75 136.255 43.75 134.953V133.781H45.0781V134.953C45.0781 137.036 44.0755 138.078 42.0703 138.078C40.0651 138.078 39.0625 137.036 39.0625 134.953V124.406C39.0625 124.042 38.8021 123.651 38.2812 123.234V122.453C38.2812 121.672 38.6719 121.281 39.4531 121.281H40.7812V122.453H39.8438C39.5833 122.453 39.4531 122.583 39.4531 122.844C40.0781 123.26 40.3906 123.781 40.3906 124.406ZM43.75 124.406C43.75 124.042 43.6198 123.651 43.3594 123.234V122.844C43.3594 121.802 43.8802 121.281 44.9219 121.281H51.5625V122.453H45.4688C44.9479 122.453 44.6875 122.609 44.6875 122.922C44.9479 123.339 45.0781 123.833 45.0781 124.406V129.094C45.0781 130.917 45.9375 131.828 47.6562 131.828C49.375 131.828 50.2344 130.917 50.2344 129.094V124.406H51.5625V133.781H50.2344V132.32C49.599 132.773 48.7396 133 47.6562 133C45.0521 133 43.75 131.698 43.75 129.094V124.406ZM51.1719 121.281H52.7344C54.8177 121.281 55.8594 122.323 55.8594 124.406V133H54.5312V124.406C54.5312 123.104 53.9323 122.453 52.7344 122.453H51.1719V121.281ZM66.25 124.406C66.25 124.042 65.9896 123.651 65.4688 123.234V122.453C65.4688 121.672 65.8594 121.281 66.6406 121.281H67.9688V122.453H67.0312C66.7708 122.453 66.6406 122.583 66.6406 122.844C67.2656 123.26 67.5781 123.781 67.5781 124.406V129.094C67.5781 131.698 66.276 133 63.6719 133C61.0677 133 59.7656 131.698 59.7656 129.094V124.406C59.7656 124.042 59.5052 123.651 58.9844 123.234V122.453C58.9844 121.672 59.375 121.281 60.1562 121.281H61.4844V122.453H60.5469C60.2865 122.453 60.1562 122.583 60.1562 122.844C60.7812 123.26 61.0938 123.781 61.0938 124.406V129.094C61.0938 130.917 61.9531 131.828 63.6719 131.828C65.3906 131.828 66.25 130.917 66.25 129.094V124.406ZM64.2578 115.422V118.938H63.0859V115.422H64.2578ZM72.6562 130.656V131.828C72.7656 131.828 72.8568 131.799 72.9297 131.742C73.0078 131.68 73.0469 131.513 73.0469 131.242C73.0469 130.971 73.0078 130.807 72.9297 130.75C72.8568 130.688 72.7656 130.656 72.6562 130.656ZM71.4844 123.625L73.5156 121.281L75.3906 122.844L77.2656 121.281L79.2969 123.625V133H77.9688V123.938L77.1875 122.961L75.3906 124.25L73.5938 122.961L72.8125 123.938V129.562C72.9323 129.51 73.0703 129.484 73.2266 129.484C73.3828 129.484 73.5469 129.625 73.7188 129.906C73.8958 130.182 73.9844 130.628 73.9844 131.242C73.9844 131.857 73.8698 132.305 73.6406 132.586C73.4167 132.862 73.1146 133 72.7344 133C72.3542 133 72.0521 132.859 71.8281 132.578C71.651 132.365 71.5417 132.049 71.5 131.633H71.4844V123.625ZM74.6094 117.922H78.125C76.8281 117.036 75.7865 116.594 75 116.594C73.9583 116.594 73.4375 116.815 73.4375 117.258C73.4375 117.701 73.8281 117.922 74.6094 117.922ZM78.125 116.633V114.641H79.2969V118.938H74.2188C72.9167 118.938 72.2656 118.417 72.2656 117.375C72.2656 116.073 73.1771 115.422 75 115.422C76.0417 115.422 77.0182 115.773 77.9297 116.477C77.9974 116.529 78.0625 116.581 78.125 116.633ZM89.6875 124.406C89.6875 124.042 89.4271 123.651 88.9062 123.234V122.453C88.9062 121.672 89.2969 121.281 90.0781 121.281H91.4062V122.453H90.4688C90.2083 122.453 90.0781 122.583 90.0781 122.844C90.7031 123.26 91.0156 123.781 91.0156 124.406V129.094C91.0156 131.698 89.7135 133 87.1094 133C84.5052 133 83.2031 131.698 83.2031 129.094V124.406C83.2031 124.042 82.9427 123.651 82.4219 123.234V122.453C82.4219 121.672 82.8125 121.281 83.5938 121.281H84.9219V122.453H83.9844C83.724 122.453 83.5938 122.583 83.5938 122.844C84.2188 123.26 84.5312 123.781 84.5312 124.406V129.094C84.5312 130.917 85.3906 131.828 87.1094 131.828C88.8281 131.828 89.6875 130.917 89.6875 129.094V124.406ZM96.0938 130.656V131.828C96.2031 131.828 96.2943 131.799 96.3672 131.742C96.4453 131.68 96.4844 131.513 96.4844 131.242C96.4844 130.971 96.4453 130.807 96.3672 130.75C96.2943 130.688 96.2031 130.656 96.0938 130.656ZM102.188 122.57L104.57 121.281H105.078C107.161 121.281 108.203 122.323 108.203 124.406V133H106.875V124.406C106.875 123.104 106.276 122.453 105.078 122.453H104.766L102.969 123.312L102.188 122.57ZM94.9219 123.625L96.9531 121.281L98.8281 122.844L100.703 121.281L102.734 123.625V133H101.406V123.938L100.625 122.961L98.8281 124.25L97.0312 122.961L96.25 123.938V129.562C96.3698 129.51 96.5078 129.484 96.6641 129.484C96.8203 129.484 96.9844 129.625 97.1562 129.906C97.3333 130.182 97.4219 130.628 97.4219 131.242C97.4219 131.857 97.3073 132.305 97.0781 132.586C96.8542 132.862 96.5521 133 96.1719 133C95.7917 133 95.4896 132.859 95.2656 132.578C95.0885 132.365 94.9792 132.049 94.9375 131.633H94.9219V123.625ZM103.711 135.734C103.711 134.432 104.396 133.781 105.766 133.781C107.13 133.781 107.812 134.432 107.812 135.734V138.078H106.641V135.734C106.641 135.214 106.349 134.953 105.766 134.953C105.177 134.953 104.883 135.214 104.883 135.734V136.125C104.883 137.427 104.201 138.078 102.836 138.078C101.466 138.078 100.781 137.427 100.781 136.125V133.781H101.953V136.125C101.953 136.646 102.247 136.906 102.836 136.906C103.419 136.906 103.711 136.646 103.711 136.125V135.734ZM108.203 121.281H109.766C111.849 121.281 112.891 122.323 112.891 124.406V133H111.562V124.406C111.562 123.104 110.964 122.453 109.766 122.453H108.203V121.281Z" fill="#D7260F"/>
<rect x="10" y="64" width="16" height="48" fill="#EE7D22" fill-opacity="0.24"/>
<rect x="10" y="64" width="359" height="8" fill="#EE7D22" fill-opacity="0.24"/>
<rect x="10" y="104" width="359" height="8" fill="#EE7D22" fill-opacity="0.24"/>
<rect x="353" y="64" width="16" height="48" fill="#EE7D22" fill-opacity="0.24"/>
<path d="M10 144.5H26" stroke="#F07D03"/>
<rect y="149" width="36" height="18" rx="3" fill="#F07D03"/>
<path d="M9.75355 154.727V162H8.21591V156.187H8.1733L6.50781 157.231V155.867L8.30824 154.727H9.75355ZM14.2733 162.099C13.8992 162.097 13.5382 162.034 13.1902 161.911C12.8445 161.788 12.5344 161.588 12.2598 161.311C11.9851 161.034 11.7673 160.667 11.6064 160.21C11.4477 159.753 11.3684 159.192 11.3684 158.527C11.3708 157.916 11.4406 157.371 11.5779 156.89C11.7176 156.407 11.9165 155.997 12.1745 155.661C12.435 155.325 12.7463 155.069 13.1085 154.894C13.4707 154.717 13.8767 154.628 14.3265 154.628C14.8118 154.628 15.2404 154.723 15.612 154.912C15.9837 155.099 16.282 155.353 16.5069 155.675C16.7342 155.997 16.8715 156.358 16.9189 156.759H15.4025C15.3433 156.505 15.219 156.306 15.0297 156.162C14.8403 156.018 14.6059 155.945 14.3265 155.945C13.853 155.945 13.4932 156.151 13.247 156.563C13.0031 156.975 12.8788 157.535 12.8741 158.243H12.9238C13.0327 158.027 13.1795 157.844 13.3642 157.692C13.5512 157.539 13.7631 157.421 13.9998 157.341C14.2389 157.258 14.4911 157.217 14.7562 157.217C15.1871 157.217 15.5706 157.318 15.9068 157.522C16.243 157.723 16.5081 158 16.7022 158.353C16.8964 158.706 16.9934 159.109 16.9934 159.564C16.9934 160.056 16.8786 160.494 16.649 160.878C16.4217 161.261 16.1033 161.562 15.6937 161.78C15.2865 161.995 14.813 162.102 14.2733 162.099ZM14.2662 160.892C14.5029 160.892 14.7148 160.835 14.9018 160.722C15.0888 160.608 15.2356 160.454 15.3422 160.26C15.4487 160.066 15.502 159.848 15.502 159.607C15.502 159.365 15.4487 159.148 15.3422 158.957C15.238 158.765 15.0936 158.612 14.9089 158.499C14.7243 158.385 14.5136 158.328 14.2768 158.328C14.0993 158.328 13.9347 158.361 13.7832 158.428C13.6341 158.494 13.5027 158.586 13.389 158.705C13.2778 158.823 13.1902 158.96 13.1262 159.116C13.0623 159.27 13.0304 159.435 13.0304 159.61C13.0304 159.844 13.0836 160.059 13.1902 160.253C13.2991 160.447 13.4458 160.602 13.6305 160.718C13.8175 160.834 14.0294 160.892 14.2662 160.892ZM18.0978 164.045V156.545H19.5893V157.462H19.6568C19.7231 157.315 19.819 157.166 19.9444 157.014C20.0723 156.86 20.238 156.732 20.4416 156.631C20.6475 156.527 20.9032 156.474 21.2086 156.474C21.6064 156.474 21.9733 156.579 22.3095 156.787C22.6457 156.993 22.9144 157.304 23.1156 157.721C23.3168 158.135 23.4174 158.655 23.4174 159.28C23.4174 159.888 23.3192 160.402 23.1227 160.821C22.9286 161.238 22.6634 161.554 22.3272 161.769C21.9934 161.982 21.6194 162.089 21.2051 162.089C20.9115 162.089 20.6618 162.04 20.4558 161.943C20.2522 161.846 20.0853 161.724 19.9551 161.577C19.8249 161.428 19.7254 161.278 19.6568 161.126H19.6106V164.045H18.0978ZM19.5787 159.273C19.5787 159.597 19.6236 159.88 19.7136 160.121C19.8036 160.363 19.9338 160.551 20.1042 160.686C20.2747 160.819 20.4818 160.885 20.7257 160.885C20.9719 160.885 21.1802 160.817 21.3507 160.683C21.5211 160.545 21.6502 160.356 21.7377 160.114C21.8277 159.871 21.8727 159.59 21.8727 159.273C21.8727 158.958 21.8289 158.681 21.7413 158.442C21.6537 158.203 21.5247 158.016 21.3542 157.881C21.1838 157.746 20.9743 157.678 20.7257 157.678C20.4795 157.678 20.2711 157.743 20.1007 157.874C19.9326 158.004 19.8036 158.188 19.7136 158.428C19.6236 158.667 19.5787 158.948 19.5787 159.273ZM25.4949 156.545L26.4963 158.452L27.5225 156.545H29.0744L27.4941 159.273L29.117 162H27.5723L26.4963 160.114L25.438 162H23.8755L25.4949 159.273L23.9324 156.545H25.4949Z" fill="white"/>
<line x1="10.5" y1="148" x2="10.5" y2="141" stroke="#F07D03"/>
<line x1="25.5" y1="148" x2="25.5" y2="141" stroke="#F07D03"/>
<path d="M353 128.5H369" stroke="#F07D03"/>
<rect x="343" y="133" width="36" height="18" rx="3" fill="#F07D03"/>
<path d="M352.754 138.727V146H351.216V140.187H351.173L349.508 141.231V139.867L351.308 138.727H352.754ZM357.273 146.099C356.899 146.097 356.538 146.034 356.19 145.911C355.845 145.788 355.534 145.588 355.26 145.311C354.985 145.034 354.767 144.667 354.606 144.21C354.448 143.753 354.368 143.192 354.368 142.527C354.371 141.916 354.441 141.371 354.578 140.89C354.718 140.407 354.916 139.997 355.175 139.661C355.435 139.325 355.746 139.069 356.108 138.894C356.471 138.717 356.877 138.628 357.327 138.628C357.812 138.628 358.24 138.723 358.612 138.912C358.984 139.099 359.282 139.353 359.507 139.675C359.734 139.997 359.872 140.358 359.919 140.759H358.403C358.343 140.505 358.219 140.306 358.03 140.162C357.84 140.018 357.606 139.945 357.327 139.945C356.853 139.945 356.493 140.151 356.247 140.563C356.003 140.975 355.879 141.535 355.874 142.243H355.924C356.033 142.027 356.18 141.844 356.364 141.692C356.551 141.539 356.763 141.421 357 141.341C357.239 141.258 357.491 141.217 357.756 141.217C358.187 141.217 358.571 141.318 358.907 141.522C359.243 141.723 359.508 142 359.702 142.353C359.896 142.706 359.993 143.109 359.993 143.564C359.993 144.056 359.879 144.494 359.649 144.878C359.422 145.261 359.103 145.562 358.694 145.78C358.287 145.995 357.813 146.102 357.273 146.099ZM357.266 144.892C357.503 144.892 357.715 144.835 357.902 144.722C358.089 144.608 358.236 144.454 358.342 144.26C358.449 144.066 358.502 143.848 358.502 143.607C358.502 143.365 358.449 143.148 358.342 142.957C358.238 142.765 358.094 142.612 357.909 142.499C357.724 142.385 357.514 142.328 357.277 142.328C357.099 142.328 356.935 142.361 356.783 142.428C356.634 142.494 356.503 142.586 356.389 142.705C356.278 142.823 356.19 142.96 356.126 143.116C356.062 143.27 356.03 143.435 356.03 143.61C356.03 143.844 356.084 144.059 356.19 144.253C356.299 144.447 356.446 144.602 356.631 144.718C356.818 144.834 357.029 144.892 357.266 144.892ZM361.098 148.045V140.545H362.589V141.462H362.657C362.723 141.315 362.819 141.166 362.944 141.014C363.072 140.86 363.238 140.732 363.442 140.631C363.648 140.527 363.903 140.474 364.209 140.474C364.606 140.474 364.973 140.579 365.309 140.787C365.646 140.993 365.914 141.304 366.116 141.721C366.317 142.135 366.417 142.655 366.417 143.28C366.417 143.888 366.319 144.402 366.123 144.821C365.929 145.238 365.663 145.554 365.327 145.769C364.993 145.982 364.619 146.089 364.205 146.089C363.912 146.089 363.662 146.04 363.456 145.943C363.252 145.846 363.085 145.724 362.955 145.577C362.825 145.428 362.725 145.278 362.657 145.126H362.611V148.045H361.098ZM362.579 143.273C362.579 143.597 362.624 143.88 362.714 144.121C362.804 144.363 362.934 144.551 363.104 144.686C363.275 144.819 363.482 144.885 363.726 144.885C363.972 144.885 364.18 144.817 364.351 144.683C364.521 144.545 364.65 144.356 364.738 144.114C364.828 143.871 364.873 143.59 364.873 143.273C364.873 142.958 364.829 142.681 364.741 142.442C364.654 142.203 364.525 142.016 364.354 141.881C364.184 141.746 363.974 141.678 363.726 141.678C363.479 141.678 363.271 141.743 363.101 141.874C362.933 142.004 362.804 142.188 362.714 142.428C362.624 142.667 362.579 142.948 362.579 143.273ZM368.495 140.545L369.496 142.452L370.523 140.545H372.074L370.494 143.273L372.117 146H370.572L369.496 144.114L368.438 146H366.876L368.495 143.273L366.932 140.545H368.495Z" fill="white"/>
<line x1="353.5" y1="132" x2="353.5" y2="125" stroke="#F07D03"/>
<line x1="368.5" y1="132" x2="368.5" y2="125" stroke="#F07D03"/>
<path d="M385.5 64V72" stroke="#F07D03"/>
<rect x="390" y="60.5" width="31" height="18" rx="3" fill="#F07D03"/>
<path d="M399.303 73.5994C398.756 73.5994 398.269 73.5107 397.843 73.3331C397.419 73.1532 397.087 72.9081 396.845 72.598C396.604 72.2879 396.483 71.9363 396.483 71.5433C396.483 71.2403 396.552 70.9621 396.689 70.7088C396.829 70.4531 397.018 70.2412 397.257 70.0732C397.496 69.9027 397.764 69.7938 398.06 69.7464V69.6967C397.671 69.6186 397.357 69.4304 397.115 69.1321C396.874 68.8314 396.753 68.4822 396.753 68.0845C396.753 67.7081 396.863 67.3731 397.083 67.0795C397.303 66.7836 397.605 66.5516 397.989 66.3835C398.375 66.2131 398.812 66.1278 399.303 66.1278C399.793 66.1278 400.229 66.2131 400.613 66.3835C400.999 66.554 401.302 66.7872 401.522 67.0831C401.742 67.3767 401.853 67.7105 401.856 68.0845C401.853 68.4846 401.73 68.8338 401.487 69.1321C401.243 69.4304 400.93 69.6186 400.549 69.6967V69.7464C400.84 69.7938 401.104 69.9027 401.341 70.0732C401.58 70.2412 401.769 70.4531 401.909 70.7088C402.051 70.9621 402.123 71.2403 402.126 71.5433C402.123 71.9363 402.001 72.2879 401.76 72.598C401.518 72.9081 401.185 73.1532 400.759 73.3331C400.335 73.5107 399.849 73.5994 399.303 73.5994ZM399.303 72.4702C399.546 72.4702 399.759 72.4264 399.942 72.3388C400.124 72.2488 400.266 72.1257 400.368 71.9695C400.472 71.8108 400.524 71.6286 400.524 71.4226C400.524 71.2119 400.471 71.026 400.364 70.8651C400.258 70.7017 400.113 70.5739 399.931 70.4815C399.749 70.3868 399.539 70.3395 399.303 70.3395C399.068 70.3395 398.859 70.3868 398.674 70.4815C398.489 70.5739 398.344 70.7017 398.237 70.8651C398.133 71.026 398.081 71.2119 398.081 71.4226C398.081 71.6286 398.132 71.8108 398.234 71.9695C398.335 72.1257 398.479 72.2488 398.663 72.3388C398.848 72.4264 399.061 72.4702 399.303 72.4702ZM399.303 69.2209C399.506 69.2209 399.687 69.1795 399.846 69.0966C400.004 69.0137 400.129 68.8989 400.219 68.7521C400.309 68.6054 400.354 68.4361 400.354 68.2443C400.354 68.0549 400.309 67.8892 400.219 67.7472C400.129 67.6027 400.006 67.4903 399.849 67.4098C399.693 67.3269 399.511 67.2855 399.303 67.2855C399.097 67.2855 398.914 67.3269 398.756 67.4098C398.597 67.4903 398.473 67.6027 398.383 67.7472C398.295 67.8892 398.251 68.0549 398.251 68.2443C398.251 68.4361 398.296 68.6054 398.386 68.7521C398.476 68.8989 398.601 69.0137 398.759 69.0966C398.918 69.1795 399.099 69.2209 399.303 69.2209ZM403.215 75.5455V68.0455H404.706V68.9616H404.774C404.84 68.8149 404.936 68.6657 405.062 68.5142C405.189 68.3603 405.355 68.2325 405.559 68.1307C405.765 68.0265 406.02 67.9744 406.326 67.9744C406.724 67.9744 407.09 68.0786 407.427 68.2869C407.763 68.4929 408.032 68.8042 408.233 69.2209C408.434 69.6352 408.535 70.1548 408.535 70.7798C408.535 71.3883 408.436 71.902 408.24 72.321C408.046 72.7377 407.781 73.0537 407.444 73.2692C407.111 73.4822 406.737 73.5888 406.322 73.5888C406.029 73.5888 405.779 73.5402 405.573 73.4432C405.369 73.3461 405.202 73.2242 405.072 73.0774C404.942 72.9283 404.843 72.7779 404.774 72.6264H404.728V75.5455H403.215ZM404.696 70.7727C404.696 71.0971 404.741 71.38 404.831 71.6214C404.921 71.8629 405.051 72.0511 405.221 72.1861C405.392 72.3187 405.599 72.3849 405.843 72.3849C406.089 72.3849 406.297 72.3175 406.468 72.1825C406.638 72.0452 406.767 71.8558 406.855 71.6143C406.945 71.3705 406.99 71.09 406.99 70.7727C406.99 70.4579 406.946 70.1809 406.858 69.9418C406.771 69.7027 406.642 69.5156 406.471 69.3807C406.301 69.2457 406.091 69.1783 405.843 69.1783C405.597 69.1783 405.388 69.2434 405.218 69.3736C405.05 69.5038 404.921 69.6884 404.831 69.9276C404.741 70.1667 404.696 70.4484 404.696 70.7727ZM410.612 68.0455L411.613 69.9524L412.64 68.0455H414.192L412.611 70.7727L414.234 73.5H412.689L411.613 71.6143L410.555 73.5H408.993L410.612 70.7727L409.05 68.0455H410.612Z" fill="white"/>
<line x1="382" y1="64.5" x2="389" y2="64.5" stroke="#F07D03"/>
<line x1="382" y1="71.5" x2="389" y2="71.5" stroke="#F07D03"/>
<path d="M385.5 104V112" stroke="#F07D03"/>
<rect x="390" y="100.5" width="31" height="18" rx="3" fill="#F07D03"/>
<path d="M399.303 113.599C398.756 113.599 398.269 113.511 397.843 113.333C397.419 113.153 397.087 112.908 396.845 112.598C396.604 112.288 396.483 111.936 396.483 111.543C396.483 111.24 396.552 110.962 396.689 110.709C396.829 110.453 397.018 110.241 397.257 110.073C397.496 109.903 397.764 109.794 398.06 109.746V109.697C397.671 109.619 397.357 109.43 397.115 109.132C396.874 108.831 396.753 108.482 396.753 108.085C396.753 107.708 396.863 107.373 397.083 107.08C397.303 106.784 397.605 106.552 397.989 106.384C398.375 106.213 398.812 106.128 399.303 106.128C399.793 106.128 400.229 106.213 400.613 106.384C400.999 106.554 401.302 106.787 401.522 107.083C401.742 107.377 401.853 107.71 401.856 108.085C401.853 108.485 401.73 108.834 401.487 109.132C401.243 109.43 400.93 109.619 400.549 109.697V109.746C400.84 109.794 401.104 109.903 401.341 110.073C401.58 110.241 401.769 110.453 401.909 110.709C402.051 110.962 402.123 111.24 402.126 111.543C402.123 111.936 402.001 112.288 401.76 112.598C401.518 112.908 401.185 113.153 400.759 113.333C400.335 113.511 399.849 113.599 399.303 113.599ZM399.303 112.47C399.546 112.47 399.759 112.426 399.942 112.339C400.124 112.249 400.266 112.126 400.368 111.969C400.472 111.811 400.524 111.629 400.524 111.423C400.524 111.212 400.471 111.026 400.364 110.865C400.258 110.702 400.113 110.574 399.931 110.482C399.749 110.387 399.539 110.339 399.303 110.339C399.068 110.339 398.859 110.387 398.674 110.482C398.489 110.574 398.344 110.702 398.237 110.865C398.133 111.026 398.081 111.212 398.081 111.423C398.081 111.629 398.132 111.811 398.234 111.969C398.335 112.126 398.479 112.249 398.663 112.339C398.848 112.426 399.061 112.47 399.303 112.47ZM399.303 109.221C399.506 109.221 399.687 109.179 399.846 109.097C400.004 109.014 400.129 108.899 400.219 108.752C400.309 108.605 400.354 108.436 400.354 108.244C400.354 108.055 400.309 107.889 400.219 107.747C400.129 107.603 400.006 107.49 399.849 107.41C399.693 107.327 399.511 107.286 399.303 107.286C399.097 107.286 398.914 107.327 398.756 107.41C398.597 107.49 398.473 107.603 398.383 107.747C398.295 107.889 398.251 108.055 398.251 108.244C398.251 108.436 398.296 108.605 398.386 108.752C398.476 108.899 398.601 109.014 398.759 109.097C398.918 109.179 399.099 109.221 399.303 109.221ZM403.215 115.545V108.045H404.706V108.962H404.774C404.84 108.815 404.936 108.666 405.062 108.514C405.189 108.36 405.355 108.232 405.559 108.131C405.765 108.027 406.02 107.974 406.326 107.974C406.724 107.974 407.09 108.079 407.427 108.287C407.763 108.493 408.032 108.804 408.233 109.221C408.434 109.635 408.535 110.155 408.535 110.78C408.535 111.388 408.436 111.902 408.24 112.321C408.046 112.738 407.781 113.054 407.444 113.269C407.111 113.482 406.737 113.589 406.322 113.589C406.029 113.589 405.779 113.54 405.573 113.443C405.369 113.346 405.202 113.224 405.072 113.077C404.942 112.928 404.843 112.778 404.774 112.626H404.728V115.545H403.215ZM404.696 110.773C404.696 111.097 404.741 111.38 404.831 111.621C404.921 111.863 405.051 112.051 405.221 112.186C405.392 112.319 405.599 112.385 405.843 112.385C406.089 112.385 406.297 112.317 406.468 112.183C406.638 112.045 406.767 111.856 406.855 111.614C406.945 111.371 406.99 111.09 406.99 110.773C406.99 110.458 406.946 110.181 406.858 109.942C406.771 109.703 406.642 109.516 406.471 109.381C406.301 109.246 406.091 109.178 405.843 109.178C405.597 109.178 405.388 109.243 405.218 109.374C405.05 109.504 404.921 109.688 404.831 109.928C404.741 110.167 404.696 110.448 404.696 110.773ZM410.612 108.045L411.613 109.952L412.64 108.045H414.192L412.611 110.773L414.234 113.5H412.689L411.613 111.614L410.555 113.5H408.993L410.612 110.773L409.05 108.045H410.612Z" fill="white"/>
<line x1="382" y1="104.5" x2="389" y2="104.5" stroke="#F07D03"/>
<line x1="382" y1="111.5" x2="389" y2="111.5" stroke="#F07D03"/>
</svg>
