<svg width="414" height="247" viewBox="0 0 414 247" fill="none" xmlns="http://www.w3.org/2000/svg">
<path d="M3.90625 63.4062V73.9531C3.90625 74.9948 4.55729 75.5156 5.85938 75.5156C7.16146 75.5156 7.8125 74.9948 7.8125 73.9531V72.7812H9.76562V73.9531C9.76562 76.0365 8.46354 77.0781 5.85938 77.0781C3.25521 77.0781 1.95312 76.0365 1.95312 73.9531V63.4062C1.95312 62.9792 1.69271 62.5573 1.17188 62.1406V61.4531C1.17188 60.6719 1.66667 60.2812 2.65625 60.2812H4.29688V61.8438H2.96875V61.9375C3.59375 62.3542 3.90625 62.8438 3.90625 63.4062ZM14.2969 63.4062C14.2969 62.9792 14.0365 62.5573 13.5156 62.1406V61.4531C13.5156 60.6719 14.0104 60.2812 15 60.2812H16.6406V61.8438H15.3125V61.9375C15.9375 62.3542 16.25 62.8438 16.25 63.4062V68.0938C16.25 70.6979 14.8438 72 12.0312 72C9.21875 72 7.8125 70.6979 7.8125 68.0938V63.4062C7.8125 62.9792 7.55208 62.5573 7.03125 62.1406V61.4531C7.03125 60.6719 7.52604 60.2812 8.51562 60.2812H10.1562V61.8438H8.82812V61.9375C9.45312 62.3542 9.76562 62.8438 9.76562 63.4062V68.0938C9.76562 69.6562 10.5208 70.4375 12.0312 70.4375C13.5417 70.4375 14.2969 69.6562 14.2969 68.0938V63.4062ZM27.0312 64.5C26.9062 64.5 26.8229 64.5286 26.7812 64.5859C26.7396 64.638 26.7188 64.6979 26.7188 64.7656C26.7188 64.8333 26.737 64.888 26.7734 64.9297C26.8151 64.987 26.901 65.0156 27.0312 65.0156V64.5ZM20.1562 63.4062C20.1562 62.9896 20.026 62.5729 19.7656 62.1562V61.8438C19.7656 60.8021 20.3906 60.2812 21.6406 60.2812H28.5938V61.8438H22.1875C21.875 61.8438 21.7188 61.8958 21.7188 62C21.9792 62.4167 22.1094 62.8854 22.1094 63.4062V69.6094L24.375 67.6875L26.6406 69.6094V66.1172C26.224 66.1016 25.901 65.9427 25.6719 65.6406C25.4844 65.4115 25.3906 65.1224 25.3906 64.7734C25.3906 64.4245 25.5026 64.1094 25.7266 63.8281C25.9505 63.5469 26.3854 63.4062 27.0312 63.4062C27.625 63.4062 28.0339 63.5469 28.2578 63.8281C28.4818 64.1094 28.5938 64.4245 28.5938 64.7734V72H26.9062L24.375 69.8281L21.8438 72H20.1562V63.4062ZM28.5938 60.2812H30.4688C33.125 60.2812 34.4531 61.3229 34.4531 63.4062V72H32.5V63.4062C32.5 62.3646 31.8229 61.8438 30.4688 61.8438H28.5938V60.2812ZM46.7969 66.8984V68.875C46.7969 70.9583 45.9635 72 44.2969 72C43.0625 72 42.1875 71.6745 41.6719 71.0234C41.1562 70.3724 40.7031 70.0469 40.3125 70.0469V72H38.3594V67.3125H40.3125V68.4844C41.1719 68.4844 41.8854 68.8099 42.4531 69.4609C43.026 70.112 43.5286 70.4375 43.9609 70.4375C44.5495 70.4375 44.8438 69.9167 44.8438 68.875V68.0391C40.5208 67.1016 38.3594 65.5573 38.3594 63.4062C38.3594 61.3229 39.7656 60.2812 42.5781 60.2812C45.3906 60.2812 46.7969 61.3229 46.7969 63.4062C46.7969 64.8594 45.9688 65.5859 44.3125 65.5859C43.8594 65.5859 43.4896 65.4792 43.2031 65.2656V63.6797C43.8385 63.8672 44.2448 63.9609 44.4219 63.9609C44.7031 63.9609 44.8438 63.776 44.8438 63.4062C44.8438 62.3646 44.0885 61.8438 42.5781 61.8438C41.0677 61.8438 40.3125 62.3646 40.3125 63.4062C40.3125 64.7448 42.474 65.9089 46.7969 66.8984ZM57.1875 63.4062C57.1875 62.9792 56.9271 62.5573 56.4062 62.1406V61.4531C56.4062 60.6719 56.901 60.2812 57.8906 60.2812H59.5312V61.8438H58.2031V61.9375C58.8281 62.3542 59.1406 62.8438 59.1406 63.4062V68.0938C59.1406 70.6979 57.7344 72 54.9219 72C52.1094 72 50.7031 70.6979 50.7031 68.0938V63.4062C50.7031 62.9792 50.4427 62.5573 49.9219 62.1406V61.4531C49.9219 60.6719 50.4167 60.2812 51.4062 60.2812H53.0469V61.8438H51.7188V61.9375C52.3438 62.3542 52.6562 62.8438 52.6562 63.4062V68.0938C52.6562 69.6562 53.4115 70.4375 54.9219 70.4375C56.4323 70.4375 57.1875 69.6562 57.1875 68.0938V63.4062ZM70.3125 67.2031C70.3125 67.0521 70.2604 66.9766 70.1562 66.9766C70.0521 66.9766 70 67.0547 70 67.2109C70 67.4089 70.1042 67.5182 70.3125 67.5391V67.2031ZM70.3906 68.5391V68.875C70.3906 70.9583 69.349 72 67.2656 72C65.1823 72 64.1406 70.9583 64.1406 68.875V67.3125H66.0938V68.875C66.0938 69.9167 66.4844 70.4375 67.2656 70.4375C68.0469 70.4375 68.4375 69.9167 68.4375 68.875V68.2266C64.8438 66.9297 63.0469 65.3229 63.0469 63.4062C63.0469 61.3229 64.4531 60.2812 67.2656 60.2812C70.0781 60.2812 71.4844 61.3229 71.4844 63.4062C71.4844 64.8594 70.6562 65.5859 69 65.5859C68.5469 65.5859 68.1771 65.4792 67.8906 65.2656V63.6016C68.526 63.7891 68.9323 63.8828 69.1094 63.8828C69.3906 63.8828 69.5312 63.724 69.5312 63.4062C69.5312 62.3646 68.776 61.8438 67.2656 61.8438C65.7552 61.8438 65 62.3646 65 63.4062C65 65.0521 66.1458 66.1536 68.4375 66.7109C68.4375 66.2786 68.9062 66.0625 69.8438 66.0625C70.9375 66.0625 71.4844 66.388 71.4844 67.0391C71.4844 67.6276 71.3776 68.0182 71.1641 68.2109C70.9557 68.4036 70.6979 68.513 70.3906 68.5391Z" fill="#344054"/>
<path d="M3.47656 102.828C3.53385 102.828 3.58073 102.805 3.61719 102.758C3.65365 102.706 3.67188 102.534 3.67188 102.242C3.67188 101.951 3.65365 101.781 3.61719 101.734C3.58073 101.682 3.53385 101.656 3.47656 101.656H3.28125V102.828H3.47656ZM3.28125 100.5C3.34375 100.49 3.40885 100.484 3.47656 100.484C3.77865 100.484 4.01562 100.612 4.1875 100.867C4.36458 101.117 4.45312 101.576 4.45312 102.242C4.45312 102.909 4.36458 103.37 4.1875 103.625C4.01562 103.875 3.6875 104 3.20312 104C2.71875 104 2.38802 103.875 2.21094 103.625C2.03906 103.37 1.95312 102.909 1.95312 102.242V95.4062C1.84896 95.0417 1.58854 94.651 1.17188 94.2344V93.4531C1.17188 92.6719 1.5625 92.2812 2.34375 92.2812H3.67188V93.4531H2.73438C2.47396 93.4531 2.34375 93.5833 2.34375 93.8438C2.96875 94.2604 3.28125 94.7812 3.28125 95.4062V100.5ZM15 99.2344V100.875C15 102.958 14.2708 104 12.8125 104C11.7396 104 10.9453 103.674 10.4297 103.023C9.91406 102.372 9.27604 102.047 8.51562 102.047V104H7.1875V99.3125H8.51562V100.875C9.42708 100.875 10.1667 101.201 10.7344 101.852C11.3073 102.503 11.888 102.828 12.4766 102.828C13.2734 102.828 13.6719 102.177 13.6719 100.875V100.094C9.34896 99.1562 7.1875 97.5938 7.1875 95.4062C7.1875 93.3229 8.48958 92.2812 11.0938 92.2812C13.6979 92.2812 15 93.3229 15 95.4062C15 96.8594 14.276 97.5859 12.8281 97.5859C12.5 97.5859 12.2344 97.5104 12.0312 97.3594V96.1875C12.401 96.2969 12.7031 96.3516 12.9375 96.3516C13.4271 96.3516 13.6719 96.0365 13.6719 95.4062C13.6719 94.1042 12.8125 93.4531 11.0938 93.4531C9.375 93.4531 8.51562 94.1042 8.51562 95.4062C8.51562 96.9688 10.6771 98.2448 15 99.2344ZM20.0781 94.4297C20.0781 94.6224 20.1276 94.7682 20.2266 94.8672C20.3255 94.9661 20.4714 95.0156 20.6641 95.0156C20.862 95.0156 21.0078 94.9661 21.1016 94.8672C21.2005 94.7682 21.25 94.6224 21.25 94.4297C21.25 94.2318 21.2005 94.0859 21.1016 93.9922C21.0078 93.8932 20.862 93.8438 20.6641 93.8438C20.4714 93.8438 20.3255 93.8932 20.2266 93.9922C20.1276 94.0859 20.0781 94.2318 20.0781 94.4297ZM22.4219 94.4297C22.4219 95.0182 22.276 95.4583 21.9844 95.75C21.6927 96.0417 21.2526 96.1875 20.6641 96.1875C20.0755 96.1875 19.6354 96.0417 19.3438 95.75C19.0521 95.4583 18.9062 95.0182 18.9062 94.4297C18.9062 93.8411 19.0521 93.401 19.3438 93.1094C19.6354 92.8177 20.0755 92.6719 20.6641 92.6719C21.2526 92.6719 21.6927 92.8177 21.9844 93.1094C22.276 93.401 22.4219 93.8411 22.4219 94.4297ZM20.0781 101.852C20.0781 102.044 20.1276 102.19 20.2266 102.289C20.3255 102.388 20.4714 102.438 20.6641 102.438C20.862 102.438 21.0078 102.388 21.1016 102.289C21.2005 102.19 21.25 102.044 21.25 101.852C21.25 101.654 21.2005 101.508 21.1016 101.414C21.0078 101.315 20.862 101.266 20.6641 101.266C20.4714 101.266 20.3255 101.315 20.2266 101.414C20.1276 101.508 20.0781 101.654 20.0781 101.852ZM22.4219 101.852C22.4219 102.44 22.276 102.88 21.9844 103.172C21.6927 103.464 21.2526 103.609 20.6641 103.609C20.0755 103.609 19.6354 103.464 19.3438 103.172C19.0521 102.88 18.9062 102.44 18.9062 101.852C18.9062 101.263 19.0521 100.823 19.3438 100.531C19.6354 100.24 20.0755 100.094 20.6641 100.094C21.2526 100.094 21.6927 100.24 21.9844 100.531C22.276 100.823 22.4219 101.263 22.4219 101.852ZM34.1406 92.2812V93.4531H26.3281V92.2812H34.1406ZM27.6562 101.266C28.0469 100.484 28.6719 100.094 29.5312 100.094H30.2344V101.344H29.5312C28.6719 101.344 28.0469 101.734 27.6562 102.516V104H26.3281V98.5312C26.3281 95.9271 27.6302 94.625 30.2344 94.625C32.8385 94.625 34.1406 95.9271 34.1406 98.5312V104H32.8125V98.5312C32.8125 96.7083 31.9531 95.7969 30.2344 95.7969C28.5156 95.7969 27.6562 96.7083 27.6562 98.5312V101.266ZM29.4531 88.9219H32.9688C31.6719 88.0365 30.6302 87.5938 29.8438 87.5938C28.8021 87.5938 28.2812 87.8151 28.2812 88.2578C28.2812 88.7005 28.6719 88.9219 29.4531 88.9219ZM33.125 87.7578V85.6406H34.1406V89.9375H29.0625C27.7604 89.9375 27.1094 89.4167 27.1094 88.375C27.1094 87.0729 28.0208 86.4219 29.8438 86.4219C30.4375 86.4219 31.0104 86.5365 31.5625 86.7656V85.6406H32.5781V87.3281C32.6458 87.375 32.7109 87.4245 32.7734 87.4766C32.8984 87.5755 33.0156 87.6693 33.125 87.7578ZM38.0469 95.4062C38.0469 95.0417 37.9167 94.651 37.6562 94.2344V93.8438C37.6562 92.8021 38.1771 92.2812 39.2188 92.2812H41.5625L43.3594 93.4531H43.9844C44.349 93.4531 44.5312 93.2708 44.5312 92.9062V91.1094H45.8594V92.9062C45.8594 94.0521 45.4167 94.625 44.5312 94.625H43.125L41.3281 93.4531H39.7656C39.2448 93.4531 38.9844 93.6094 38.9844 93.9219C39.2448 94.3385 39.375 94.8333 39.375 95.4062V102.438L41.9531 100.25L44.5312 102.438V95.4062H45.8594V104H44.6875L41.9531 101.656L39.2188 104H38.0469V95.4062ZM45.8594 92.2812H47.4219C49.5052 92.2812 50.5469 93.3229 50.5469 95.4062V104H49.2188V95.4062C49.2188 94.1042 48.6198 93.4531 47.4219 93.4531H45.8594V92.2812ZM55.9766 102.828C56.0339 102.828 56.0807 102.805 56.1172 102.758C56.1536 102.706 56.1719 102.534 56.1719 102.242C56.1719 101.951 56.1536 101.781 56.1172 101.734C56.0807 101.682 56.0339 101.656 55.9766 101.656H55.7812V102.828H55.9766ZM55.7812 100.5C55.8438 100.49 55.9089 100.484 55.9766 100.484C56.2786 100.484 56.5156 100.612 56.6875 100.867C56.8646 101.117 56.9531 101.576 56.9531 102.242C56.9531 102.909 56.8646 103.37 56.6875 103.625C56.5156 103.875 56.1875 104 55.7031 104C55.2188 104 54.888 103.875 54.7109 103.625C54.5391 103.37 54.4531 102.909 54.4531 102.242V95.4062C54.349 95.0417 54.0885 94.651 53.6719 94.2344V93.4531C53.6719 92.6719 54.0625 92.2812 54.8438 92.2812H56.1719V93.4531H55.2344C54.974 93.4531 54.8438 93.5833 54.8438 93.8438C55.4688 94.2604 55.7812 94.7812 55.7812 95.4062V100.5ZM60.8594 101.656V102.828C60.9688 102.828 61.0599 102.799 61.1328 102.742C61.2109 102.68 61.25 102.513 61.25 102.242C61.25 101.971 61.2109 101.807 61.1328 101.75C61.0599 101.688 60.9688 101.656 60.8594 101.656ZM72.9688 95.4062V100.094C72.9688 102.698 71.7969 104 69.4531 104C66.9271 104 65.6641 102.698 65.6641 100.094V98.5312C65.6641 96.7083 64.8906 95.7969 63.3438 95.7969C61.7917 95.7969 61.0156 96.7083 61.0156 98.5312V100.562C61.1354 100.51 61.2734 100.484 61.4297 100.484C61.5859 100.484 61.75 100.625 61.9219 100.906C62.099 101.182 62.1875 101.628 62.1875 102.242C62.1875 102.857 62.0729 103.305 61.8438 103.586C61.6198 103.862 61.3177 104 60.9375 104C60.5573 104 60.2552 103.859 60.0312 103.578C59.8542 103.365 59.7448 103.049 59.7031 102.633H59.6875V98.5312C59.6875 96.9062 60.1615 95.7891 61.1094 95.1797C60.875 94.7891 60.5312 94.474 60.0781 94.2344V93.4531C60.0781 92.6719 60.4688 92.2812 61.25 92.2812H65.5469V93.4531H61.7969C61.5365 93.4531 61.4062 93.5833 61.4062 93.8438C61.8125 94.0625 62.1328 94.349 62.3672 94.7031C62.6693 94.651 62.9948 94.625 63.3438 94.625C65.776 94.625 66.9922 95.9271 66.9922 98.5312V100.094C66.9922 101.917 67.8125 102.828 69.4531 102.828C70.9115 102.828 71.6406 101.917 71.6406 100.094V95.4062C71.6406 95.0417 71.3802 94.651 70.8594 94.2344V93.4531C70.8594 92.6719 71.25 92.2812 72.0312 92.2812H73.3594V93.4531H72.4219C72.1615 93.4531 72.0312 93.5833 72.0312 93.8438C72.6562 94.2604 72.9688 94.7812 72.9688 95.4062ZM83.3594 96.3828C83.25 96.3828 83.1562 96.4167 83.0781 96.4844C83.0052 96.5521 82.9688 96.6484 82.9688 96.7734C82.9688 96.8984 83.0052 96.9948 83.0781 97.0625C83.1562 97.1302 83.25 97.1641 83.3594 97.1641V96.3828ZM83.3594 98.0859C83.3073 98.0911 83.2552 98.0938 83.2031 98.0938C82.849 98.0938 82.5859 97.9818 82.4141 97.7578C82.2109 97.5078 82.1094 97.1797 82.1094 96.7734C82.1094 96.3672 82.2083 96.0391 82.4062 95.7891C82.6094 95.5339 82.9401 95.4062 83.3984 95.4062C83.8568 95.4062 84.1849 95.5339 84.3828 95.7891C84.5859 96.0391 84.6875 96.3672 84.6875 96.7734V100.094C84.6875 102.698 83.3854 104 80.7812 104C78.1771 104 76.875 102.698 76.875 100.094V95.4062C76.875 95.0417 76.7448 94.651 76.4844 94.2344V93.8438C76.4844 92.8021 77.0052 92.2812 78.0469 92.2812H84.6875V93.4531H78.5938C78.0729 93.4531 77.8125 93.6094 77.8125 93.9219C78.0729 94.3385 78.2031 94.8333 78.2031 95.4062V100.094C78.2031 101.917 79.0625 102.828 80.7812 102.828C82.5 102.828 83.3594 101.917 83.3594 100.094V98.0859ZM89.9219 104H88.5938V98.5312C88.5938 95.9271 89.8958 94.625 92.5 94.625C95.1042 94.625 96.4062 95.9271 96.4062 98.5312V104H95.0781V98.5312C95.0781 96.7083 94.2188 95.7969 92.5 95.7969C90.7812 95.7969 89.9219 96.7083 89.9219 98.5312V104ZM96.4062 92.2812V93.4531H88.5938V92.2812H96.4062ZM90.1562 108.297C90.2656 108.297 90.3333 108.271 90.3594 108.219C90.3802 108.172 90.3906 108.107 90.3906 108.023C90.3906 107.94 90.3802 107.872 90.3594 107.82C90.3333 107.773 90.2656 107.75 90.1562 107.75V108.297ZM88.9844 106.969C88.9844 105.51 90.1562 104.781 92.5 104.781C94.8438 104.781 96.0156 105.562 96.0156 107.125V109.078H94.8438V107.125C94.8438 106.344 94.0625 105.953 92.5 105.953C90.9375 105.953 90.1562 106.292 90.1562 106.969C90.4844 106.969 90.737 107.055 90.9141 107.227C91.0859 107.404 91.1719 107.669 91.1719 108.023C91.1719 108.378 91.0729 108.641 90.875 108.812C90.6719 108.99 90.4062 109.078 90.0781 109.078C89.75 109.078 89.487 108.99 89.2891 108.812C89.0859 108.641 88.9844 108.378 88.9844 108.023V106.969ZM91.7188 88.9219H95.2344C93.9375 88.0365 92.8958 87.5938 92.1094 87.5938C91.0677 87.5938 90.5469 87.8151 90.5469 88.2578C90.5469 88.7005 90.9375 88.9219 91.7188 88.9219ZM95.2344 87.6328V85.6406H96.4062V89.9375H91.3281C90.026 89.9375 89.375 89.4167 89.375 88.375C89.375 87.0729 90.2865 86.4219 92.1094 86.4219C93.151 86.4219 94.1276 86.7734 95.0391 87.4766C95.1068 87.5286 95.1719 87.5807 95.2344 87.6328ZM101.836 102.828C101.893 102.828 101.94 102.805 101.977 102.758C102.013 102.706 102.031 102.534 102.031 102.242C102.031 101.951 102.013 101.781 101.977 101.734C101.94 101.682 101.893 101.656 101.836 101.656H101.641V102.828H101.836ZM101.641 100.5C101.703 100.49 101.768 100.484 101.836 100.484C102.138 100.484 102.375 100.612 102.547 100.867C102.724 101.117 102.812 101.576 102.812 102.242C102.812 102.909 102.724 103.37 102.547 103.625C102.375 103.875 102.047 104 101.562 104C101.078 104 100.747 103.875 100.57 103.625C100.398 103.37 100.312 102.909 100.312 102.242V95.4062C100.208 95.0417 99.9479 94.651 99.5312 94.2344V93.4531C99.5312 92.6719 99.9219 92.2812 100.703 92.2812H102.031V93.4531H101.094C100.833 93.4531 100.703 93.5833 100.703 93.8438C101.328 94.2604 101.641 94.7812 101.641 95.4062V100.5ZM100.586 90.4062C101.107 90.4062 101.367 90.1198 101.367 89.5469C101.367 88.4531 100.977 87.9062 100.195 87.9062C99.8568 87.9062 99.5703 88.0104 99.3359 88.2188L98.9453 87.2812C99.2839 86.9688 99.7005 86.8125 100.195 86.8125C101.706 86.8125 102.461 87.724 102.461 89.5469C102.461 90.849 101.836 91.5 100.586 91.5C99.4922 91.5 98.9453 91.0625 98.9453 90.1875C98.9453 89.7552 99.0417 89.4505 99.2344 89.2734C99.4323 89.0911 99.776 89 100.266 89V89.9375C100.115 89.9375 100.039 90.0156 100.039 90.1719C100.039 90.3281 100.221 90.4062 100.586 90.4062ZM106.719 101.656V102.828C106.828 102.828 106.919 102.799 106.992 102.742C107.07 102.68 107.109 102.513 107.109 102.242C107.109 101.971 107.07 101.807 106.992 101.75C106.919 101.688 106.828 101.656 106.719 101.656ZM105.547 96.1875C105.547 93.5833 106.635 92.2812 108.812 92.2812C110.984 92.2812 112.07 93.5833 112.07 96.1875V102.672L114.141 99.9375L116.211 102.672V96.1875C116.211 93.5833 117.299 92.2812 119.477 92.2812C121.648 92.2812 122.734 93.5833 122.734 96.1875V104H121.406V96.1875C121.406 94.3646 120.763 93.4531 119.477 93.4531C118.185 93.4531 117.539 94.3646 117.539 96.1875V104H115.82L114.141 101.656L112.461 104H110.742V96.1875C110.742 94.3646 110.073 93.4531 108.734 93.4531C107.495 93.4531 106.875 94.3646 106.875 96.1875V100.562C106.995 100.51 107.133 100.484 107.289 100.484C107.445 100.484 107.609 100.625 107.781 100.906C107.958 101.182 108.047 101.628 108.047 102.242C108.047 102.857 107.932 103.305 107.703 103.586C107.479 103.862 107.177 104 106.797 104C106.417 104 106.115 103.859 105.891 103.578C105.714 103.365 105.604 103.049 105.562 102.633H105.547V96.1875ZM134.453 99.2344V100.875C134.453 102.958 133.724 104 132.266 104C131.193 104 130.398 103.674 129.883 103.023C129.367 102.372 128.729 102.047 127.969 102.047V104H126.641V99.3125H127.969V100.875C128.88 100.875 129.62 101.201 130.188 101.852C130.76 102.503 131.341 102.828 131.93 102.828C132.727 102.828 133.125 102.177 133.125 100.875V100.094C128.802 99.1562 126.641 97.5938 126.641 95.4062C126.641 93.3229 127.943 92.2812 130.547 92.2812C133.151 92.2812 134.453 93.3229 134.453 95.4062C134.453 96.8594 133.729 97.5859 132.281 97.5859C131.953 97.5859 131.688 97.5104 131.484 97.3594V96.1875C131.854 96.2969 132.156 96.3516 132.391 96.3516C132.88 96.3516 133.125 96.0365 133.125 95.4062C133.125 94.1042 132.266 93.4531 130.547 93.4531C128.828 93.4531 127.969 94.1042 127.969 95.4062C127.969 96.9688 130.13 98.2448 134.453 99.2344ZM134.453 92.2812H136.016C138.099 92.2812 139.141 93.3229 139.141 95.4062V104H137.812V95.4062C137.812 94.1042 137.214 93.4531 136.016 93.4531H134.453V92.2812ZM134.844 88.1797C134.844 88.3724 134.893 88.5182 134.992 88.6172C135.091 88.7161 135.237 88.7656 135.43 88.7656C135.628 88.7656 135.776 88.7161 135.875 88.6172C135.969 88.5182 136.016 88.3724 136.016 88.1797C136.016 87.9818 135.969 87.8359 135.875 87.7422C135.776 87.6432 135.628 87.5938 135.43 87.5938C135.237 87.5938 135.091 87.6432 134.992 87.7422C134.893 87.8359 134.844 87.9818 134.844 88.1797ZM137.188 88.1797C137.188 88.7682 137.042 89.2083 136.75 89.5C136.458 89.7917 136.018 89.9375 135.43 89.9375C134.841 89.9375 134.401 89.7917 134.109 89.5C133.818 89.2083 133.672 88.7682 133.672 88.1797C133.672 87.5911 133.818 87.151 134.109 86.8594C134.401 86.5677 134.841 86.4219 135.43 86.4219C136.018 86.4219 136.458 86.5677 136.75 86.8594C137.042 87.151 137.188 87.5911 137.188 88.1797Z" fill="#667085"/>
<rect x="0.5" y="115.5" width="358" height="47" rx="7.5" fill="white"/>
<path d="M19.125 141.656V142.828C19.2344 142.828 19.3255 142.799 19.3984 142.742C19.4766 142.68 19.5156 142.513 19.5156 142.242C19.5156 141.971 19.4766 141.807 19.3984 141.75C19.3255 141.688 19.2344 141.656 19.125 141.656ZM31.2344 135.406V140.094C31.2344 142.698 30.0625 144 27.7188 144C25.1927 144 23.9297 142.698 23.9297 140.094V138.531C23.9297 136.708 23.1562 135.797 21.6094 135.797C20.0573 135.797 19.2812 136.708 19.2812 138.531V140.562C19.401 140.51 19.5391 140.484 19.6953 140.484C19.8516 140.484 20.0156 140.625 20.1875 140.906C20.3646 141.182 20.4531 141.628 20.4531 142.242C20.4531 142.857 20.3385 143.305 20.1094 143.586C19.8854 143.862 19.5833 144 19.2031 144C18.8229 144 18.5208 143.859 18.2969 143.578C18.1198 143.365 18.0104 143.049 17.9688 142.633H17.9531V138.531C17.9531 136.906 18.4271 135.789 19.375 135.18C19.1406 134.789 18.7969 134.474 18.3438 134.234V133.453C18.3438 132.672 18.7344 132.281 19.5156 132.281H23.8125V133.453H20.0625C19.8021 133.453 19.6719 133.583 19.6719 133.844C20.0781 134.062 20.3984 134.349 20.6328 134.703C20.9349 134.651 21.2604 134.625 21.6094 134.625C24.0417 134.625 25.2578 135.927 25.2578 138.531V140.094C25.2578 141.917 26.0781 142.828 27.7188 142.828C29.1771 142.828 29.9062 141.917 29.9062 140.094V135.406C29.9062 135.042 29.6458 134.651 29.125 134.234V133.453C29.125 132.672 29.5156 132.281 30.2969 132.281H31.625V133.453H30.6875C30.4271 133.453 30.2969 133.583 30.2969 133.844C30.9219 134.26 31.2344 134.781 31.2344 135.406ZM35.1406 142.828V141.656H34.9453C34.888 141.656 34.8411 141.682 34.8047 141.734C34.7682 141.781 34.75 141.951 34.75 142.242C34.75 142.534 34.7682 142.706 34.8047 142.758C34.8411 142.805 34.888 142.828 34.9453 142.828H35.1406ZM36.4688 135.406V142.242C36.4688 142.909 36.3802 143.37 36.2031 143.625C36.0312 143.875 35.7031 144 35.2188 144C34.7344 144 34.4036 143.875 34.2266 143.625C34.0547 143.37 33.9688 142.909 33.9688 142.242C33.9688 141.576 34.0547 141.117 34.2266 140.867C34.4036 140.612 34.6432 140.484 34.9453 140.484C35.013 140.484 35.0781 140.49 35.1406 140.5V135.406C35.0365 135.042 34.776 134.651 34.3594 134.234V133.453C34.3594 132.672 34.75 132.281 35.5312 132.281H36.8594V133.453H35.9219C35.6615 133.453 35.5312 133.583 35.5312 133.844C36.1562 134.26 36.4688 134.781 36.4688 135.406ZM41.8984 142.828C41.9557 142.828 42.0026 142.805 42.0391 142.758C42.0755 142.706 42.0938 142.534 42.0938 142.242C42.0938 141.951 42.0755 141.781 42.0391 141.734C42.0026 141.682 41.9557 141.656 41.8984 141.656H41.7031V142.828H41.8984ZM41.7031 140.5C41.7656 140.49 41.8307 140.484 41.8984 140.484C42.2005 140.484 42.4375 140.612 42.6094 140.867C42.7865 141.117 42.875 141.576 42.875 142.242C42.875 142.909 42.7865 143.37 42.6094 143.625C42.4375 143.875 42.1094 144 41.625 144C41.1406 144 40.8099 143.875 40.6328 143.625C40.4609 143.37 40.375 142.909 40.375 142.242V135.406C40.2708 135.042 40.0104 134.651 39.5938 134.234V133.453C39.5938 132.672 39.9844 132.281 40.7656 132.281H42.0938V133.453H41.1562C40.8958 133.453 40.7656 133.583 40.7656 133.844C41.3906 134.26 41.7031 134.781 41.7031 135.406V140.5ZM46.7812 141.656V142.828C46.8906 142.828 46.9818 142.799 47.0547 142.742C47.1328 142.68 47.1719 142.513 47.1719 142.242C47.1719 141.971 47.1328 141.807 47.0547 141.75C46.9818 141.688 46.8906 141.656 46.7812 141.656ZM58.8906 135.406V140.094C58.8906 142.698 57.7188 144 55.375 144C52.849 144 51.5859 142.698 51.5859 140.094V138.531C51.5859 136.708 50.8125 135.797 49.2656 135.797C47.7135 135.797 46.9375 136.708 46.9375 138.531V140.562C47.0573 140.51 47.1953 140.484 47.3516 140.484C47.5078 140.484 47.6719 140.625 47.8438 140.906C48.0208 141.182 48.1094 141.628 48.1094 142.242C48.1094 142.857 47.9948 143.305 47.7656 143.586C47.5417 143.862 47.2396 144 46.8594 144C46.4792 144 46.1771 143.859 45.9531 143.578C45.776 143.365 45.6667 143.049 45.625 142.633H45.6094V138.531C45.6094 136.906 46.0833 135.789 47.0312 135.18C46.7969 134.789 46.4531 134.474 46 134.234V133.453C46 132.672 46.3906 132.281 47.1719 132.281H51.4688V133.453H47.7188C47.4583 133.453 47.3281 133.583 47.3281 133.844C47.7344 134.062 48.0547 134.349 48.2891 134.703C48.5911 134.651 48.9167 134.625 49.2656 134.625C51.6979 134.625 52.9141 135.927 52.9141 138.531V140.094C52.9141 141.917 53.7344 142.828 55.375 142.828C56.8333 142.828 57.5625 141.917 57.5625 140.094V135.406C57.5625 135.042 57.3021 134.651 56.7812 134.234V133.453C56.7812 132.672 57.1719 132.281 57.9531 132.281H59.2812V133.453H58.3438C58.0833 133.453 57.9531 133.583 57.9531 133.844C58.5781 134.26 58.8906 134.781 58.8906 135.406ZM62.7969 142.828V141.656H62.6016C62.5443 141.656 62.4974 141.682 62.4609 141.734C62.4245 141.781 62.4062 141.951 62.4062 142.242C62.4062 142.534 62.4245 142.706 62.4609 142.758C62.4974 142.805 62.5443 142.828 62.6016 142.828H62.7969ZM64.125 135.406V142.242C64.125 142.909 64.0365 143.37 63.8594 143.625C63.6875 143.875 63.3594 144 62.875 144C62.3906 144 62.0599 143.875 61.8828 143.625C61.7109 143.37 61.625 142.909 61.625 142.242C61.625 141.576 61.7109 141.117 61.8828 140.867C62.0599 140.612 62.2995 140.484 62.6016 140.484C62.6693 140.484 62.7344 140.49 62.7969 140.5V135.406C62.6927 135.042 62.4323 134.651 62.0156 134.234V133.453C62.0156 132.672 62.4062 132.281 63.1875 132.281H64.5156V133.453H63.5781C63.3177 133.453 63.1875 133.583 63.1875 133.844C63.8125 134.26 64.125 134.781 64.125 135.406ZM69.5547 142.828C69.612 142.828 69.6589 142.805 69.6953 142.758C69.7318 142.706 69.75 142.534 69.75 142.242C69.75 141.951 69.7318 141.781 69.6953 141.734C69.6589 141.682 69.612 141.656 69.5547 141.656H69.3594V142.828H69.5547ZM69.3594 140.5C69.4219 140.49 69.487 140.484 69.5547 140.484C69.8568 140.484 70.0938 140.612 70.2656 140.867C70.4427 141.117 70.5312 141.576 70.5312 142.242C70.5312 142.909 70.4427 143.37 70.2656 143.625C70.0938 143.875 69.7656 144 69.2812 144C68.7969 144 68.4661 143.875 68.2891 143.625C68.1172 143.37 68.0312 142.909 68.0312 142.242V135.406C67.9271 135.042 67.6667 134.651 67.25 134.234V133.453C67.25 132.672 67.6406 132.281 68.4219 132.281H69.75V133.453H68.8125C68.5521 133.453 68.4219 133.583 68.4219 133.844C69.0469 134.26 69.3594 134.781 69.3594 135.406V140.5ZM81.0781 139.234V140.875C81.0781 142.958 80.349 144 78.8906 144C77.8177 144 77.0234 143.674 76.5078 143.023C75.9922 142.372 75.3542 142.047 74.5938 142.047V144H73.2656V139.312H74.5938V140.875C75.5052 140.875 76.2448 141.201 76.8125 141.852C77.3854 142.503 77.9661 142.828 78.5547 142.828C79.3516 142.828 79.75 142.177 79.75 140.875V140.094C75.4271 139.156 73.2656 137.594 73.2656 135.406C73.2656 133.323 74.5677 132.281 77.1719 132.281C79.776 132.281 81.0781 133.323 81.0781 135.406C81.0781 136.859 80.3542 137.586 78.9062 137.586C78.5781 137.586 78.3125 137.51 78.1094 137.359V136.188C78.4792 136.297 78.7812 136.352 79.0156 136.352C79.5052 136.352 79.75 136.036 79.75 135.406C79.75 134.104 78.8906 133.453 77.1719 133.453C75.4531 133.453 74.5938 134.104 74.5938 135.406C74.5938 136.969 76.7552 138.245 81.0781 139.234ZM84.4375 132.656V131.031C84.4375 130.562 84.2292 130.328 83.8125 130.328H83.4219V129.156H84.2031C85.2448 129.156 85.7656 129.677 85.7656 130.719V144H84.4375V135.398C84.4323 134.102 83.8333 133.453 82.6406 133.453H81.0781V132.281H82.6406C83.3646 132.281 83.9635 132.406 84.4375 132.656ZM91 135.406V145.953C91 147.255 91.5599 147.906 92.6797 147.906C93.7995 147.906 94.3594 147.255 94.3594 145.953V144.781H95.6875V145.953C95.6875 148.036 94.6849 149.078 92.6797 149.078C90.6745 149.078 89.6719 148.036 89.6719 145.953V135.406C89.6719 135.042 89.4115 134.651 88.8906 134.234V133.453C88.8906 132.672 89.2812 132.281 90.0625 132.281H91.3906V133.453H90.4531C90.1927 133.453 90.0625 133.583 90.0625 133.844C90.6875 134.26 91 134.781 91 135.406ZM95.5312 141.656V142.828C95.6406 142.828 95.7318 142.799 95.8047 142.742C95.8828 142.68 95.9219 142.513 95.9219 142.242C95.9219 141.971 95.8828 141.807 95.8047 141.75C95.7318 141.688 95.6406 141.656 95.5312 141.656ZM102.172 132.281V133.453H94.3594V132.281H102.172ZM94.3594 138.531C94.3594 135.927 95.6615 134.625 98.2656 134.625C100.87 134.625 102.172 135.927 102.172 138.531V144H100.844V138.531C100.844 136.708 99.9844 135.797 98.2656 135.797C96.5469 135.797 95.6875 136.708 95.6875 138.531V140.562C95.8073 140.51 95.9453 140.484 96.1016 140.484C96.2578 140.484 96.4219 140.625 96.5938 140.906C96.7708 141.182 96.8594 141.628 96.8594 142.242C96.8594 142.857 96.7448 143.305 96.5156 143.586C96.2917 143.862 95.9896 144 95.6094 144C95.2292 144 94.9271 143.859 94.7031 143.578C94.526 143.365 94.4167 143.049 94.375 142.633H94.3594V138.531ZM111.938 133.469C111.938 133.312 111.833 133.234 111.625 133.234C111.417 133.234 111.312 133.312 111.312 133.469C111.312 133.609 111.417 133.75 111.625 133.891C111.833 133.781 111.938 133.641 111.938 133.469ZM105.883 137.359C105.826 137.359 105.779 137.385 105.742 137.438C105.706 137.484 105.688 137.654 105.688 137.945C105.688 138.237 105.706 138.409 105.742 138.461C105.779 138.508 105.826 138.531 105.883 138.531H106.078V137.359H105.883ZM107.406 142.438L109.984 140.094L112.562 142.438V136.969C112.562 136.406 112.141 135.81 111.297 135.18C110.87 135.591 110.146 135.797 109.125 135.797C107.99 135.797 107.198 135.648 106.75 135.352C106.302 135.055 106.078 134.643 106.078 134.117C106.078 133.596 106.182 133.109 106.391 132.656C106.599 132.198 106.703 131.826 106.703 131.539C106.703 131.253 106.365 131.109 105.688 131.109V129.938C107.146 129.938 107.875 130.432 107.875 131.422C107.875 131.812 107.771 132.25 107.562 132.734C107.354 133.214 107.25 133.555 107.25 133.758C107.25 133.966 107.38 134.164 107.641 134.352C107.901 134.534 108.414 134.625 109.18 134.625C109.841 134.625 110.318 134.539 110.609 134.367C110.349 134.154 110.219 133.823 110.219 133.375C110.219 132.646 110.688 132.281 111.625 132.281C112.615 132.281 113.109 132.724 113.109 133.609C113.109 134.062 112.906 134.448 112.5 134.766C113.427 135.438 113.891 136.172 113.891 136.969V144H112.328L109.984 141.656L107.641 144H106.078V139.688C106.016 139.698 105.951 139.703 105.883 139.703C105.581 139.703 105.341 139.578 105.164 139.328C104.992 139.073 104.906 138.612 104.906 137.945C104.906 137.279 104.992 136.82 105.164 136.57C105.341 136.315 105.672 136.188 106.156 136.188C106.641 136.188 106.969 136.315 107.141 136.57C107.318 136.82 107.406 137.279 107.406 137.945V142.438ZM110.57 126.422V129.938H109.398V126.422H110.57ZM119.32 142.828C119.378 142.828 119.424 142.805 119.461 142.758C119.497 142.706 119.516 142.534 119.516 142.242C119.516 141.951 119.497 141.781 119.461 141.734C119.424 141.682 119.378 141.656 119.32 141.656H119.125V142.828H119.32ZM119.125 140.5C119.188 140.49 119.253 140.484 119.32 140.484C119.622 140.484 119.859 140.612 120.031 140.867C120.208 141.117 120.297 141.576 120.297 142.242C120.297 142.909 120.208 143.37 120.031 143.625C119.859 143.875 119.531 144 119.047 144C118.562 144 118.232 143.875 118.055 143.625C117.883 143.37 117.797 142.909 117.797 142.242V135.406C117.693 135.042 117.432 134.651 117.016 134.234V133.453C117.016 132.672 117.406 132.281 118.188 132.281H119.516V133.453H118.578C118.318 133.453 118.188 133.583 118.188 133.844C118.812 134.26 119.125 134.781 119.125 135.406V140.5ZM130.844 139.234V140.875C130.844 142.958 130.115 144 128.656 144C127.583 144 126.789 143.674 126.273 143.023C125.758 142.372 125.12 142.047 124.359 142.047V144H123.031V139.312H124.359V140.875C125.271 140.875 126.01 141.201 126.578 141.852C127.151 142.503 127.732 142.828 128.32 142.828C129.117 142.828 129.516 142.177 129.516 140.875V140.094C125.193 139.156 123.031 137.594 123.031 135.406C123.031 133.323 124.333 132.281 126.938 132.281C129.542 132.281 130.844 133.323 130.844 135.406C130.844 136.859 130.12 137.586 128.672 137.586C128.344 137.586 128.078 137.51 127.875 137.359V136.188C128.245 136.297 128.547 136.352 128.781 136.352C129.271 136.352 129.516 136.036 129.516 135.406C129.516 134.104 128.656 133.453 126.938 133.453C125.219 133.453 124.359 134.104 124.359 135.406C124.359 136.969 126.521 138.245 130.844 139.234ZM135.922 134.43C135.922 134.622 135.971 134.768 136.07 134.867C136.169 134.966 136.315 135.016 136.508 135.016C136.706 135.016 136.852 134.966 136.945 134.867C137.044 134.768 137.094 134.622 137.094 134.43C137.094 134.232 137.044 134.086 136.945 133.992C136.852 133.893 136.706 133.844 136.508 133.844C136.315 133.844 136.169 133.893 136.07 133.992C135.971 134.086 135.922 134.232 135.922 134.43ZM138.266 134.43C138.266 135.018 138.12 135.458 137.828 135.75C137.536 136.042 137.096 136.188 136.508 136.188C135.919 136.188 135.479 136.042 135.188 135.75C134.896 135.458 134.75 135.018 134.75 134.43C134.75 133.841 134.896 133.401 135.188 133.109C135.479 132.818 135.919 132.672 136.508 132.672C137.096 132.672 137.536 132.818 137.828 133.109C138.12 133.401 138.266 133.841 138.266 134.43ZM135.922 141.852C135.922 142.044 135.971 142.19 136.07 142.289C136.169 142.388 136.315 142.438 136.508 142.438C136.706 142.438 136.852 142.388 136.945 142.289C137.044 142.19 137.094 142.044 137.094 141.852C137.094 141.654 137.044 141.508 136.945 141.414C136.852 141.315 136.706 141.266 136.508 141.266C136.315 141.266 136.169 141.315 136.07 141.414C135.971 141.508 135.922 141.654 135.922 141.852ZM138.266 141.852C138.266 142.44 138.12 142.88 137.828 143.172C137.536 143.464 137.096 143.609 136.508 143.609C135.919 143.609 135.479 143.464 135.188 143.172C134.896 142.88 134.75 142.44 134.75 141.852C134.75 141.263 134.896 140.823 135.188 140.531C135.479 140.24 135.919 140.094 136.508 140.094C137.096 140.094 137.536 140.24 137.828 140.531C138.12 140.823 138.266 141.263 138.266 141.852Z" fill="#344054"/>
<path d="M337.807 140.757C338.533 139.766 338.859 138.538 338.718 137.317C338.577 136.097 337.981 134.974 337.048 134.175C336.115 133.375 334.915 132.957 333.687 133.004C332.46 133.052 331.295 133.561 330.427 134.43C329.558 135.299 329.05 136.464 329.003 137.692C328.957 138.919 329.376 140.119 330.176 141.051C330.977 141.984 332.099 142.579 333.32 142.719C334.541 142.859 335.769 142.533 336.759 141.806H336.759C336.781 141.836 336.805 141.864 336.832 141.892L339.72 144.78C339.86 144.92 340.051 145 340.25 145C340.449 145 340.64 144.921 340.781 144.78C340.921 144.639 341 144.449 341 144.25C341.001 144.051 340.922 143.86 340.781 143.719L337.893 140.832C337.867 140.805 337.838 140.78 337.807 140.757V140.757ZM338.001 137.874C338.001 138.416 337.894 138.953 337.687 139.453C337.479 139.954 337.176 140.408 336.792 140.791C336.409 141.174 335.955 141.478 335.454 141.685C334.954 141.893 334.417 141.999 333.876 141.999C333.334 141.999 332.798 141.893 332.297 141.685C331.797 141.478 331.342 141.174 330.959 140.791C330.576 140.408 330.272 139.954 330.065 139.453C329.857 138.953 329.751 138.416 329.751 137.874C329.751 136.78 330.185 135.731 330.959 134.958C331.732 134.184 332.782 133.749 333.876 133.749C334.97 133.749 336.019 134.184 336.792 134.958C337.566 135.731 338.001 136.78 338.001 137.874Z" fill="#344054"/>
<rect x="0.5" y="115.5" width="358" height="47" rx="7.5" stroke="#98A2B3"/>
<path d="M3.125 181.656V182.828C3.23438 182.828 3.32552 182.799 3.39844 182.742C3.47656 182.68 3.51562 182.513 3.51562 182.242C3.51562 181.971 3.47656 181.807 3.39844 181.75C3.32552 181.688 3.23438 181.656 3.125 181.656ZM15.2344 175.406V180.094C15.2344 182.698 14.0625 184 11.7188 184C9.19271 184 7.92969 182.698 7.92969 180.094V178.531C7.92969 176.708 7.15625 175.797 5.60938 175.797C4.05729 175.797 3.28125 176.708 3.28125 178.531V180.562C3.40104 180.51 3.53906 180.484 3.69531 180.484C3.85156 180.484 4.01562 180.625 4.1875 180.906C4.36458 181.182 4.45312 181.628 4.45312 182.242C4.45312 182.857 4.33854 183.305 4.10938 183.586C3.88542 183.862 3.58333 184 3.20312 184C2.82292 184 2.52083 183.859 2.29688 183.578C2.11979 183.365 2.01042 183.049 1.96875 182.633H1.95312V178.531C1.95312 176.906 2.42708 175.789 3.375 175.18C3.14062 174.789 2.79688 174.474 2.34375 174.234V173.453C2.34375 172.672 2.73438 172.281 3.51562 172.281H7.8125V173.453H4.0625C3.80208 173.453 3.67188 173.583 3.67188 173.844C4.07812 174.062 4.39844 174.349 4.63281 174.703C4.9349 174.651 5.26042 174.625 5.60938 174.625C8.04167 174.625 9.25781 175.927 9.25781 178.531V180.094C9.25781 181.917 10.0781 182.828 11.7188 182.828C13.1771 182.828 13.9062 181.917 13.9062 180.094V175.406C13.9062 175.042 13.6458 174.651 13.125 174.234V173.453C13.125 172.672 13.5156 172.281 14.2969 172.281H15.625V173.453H14.6875C14.4271 173.453 14.2969 173.583 14.2969 173.844C14.9219 174.26 15.2344 174.781 15.2344 175.406ZM15.2344 172.281H16.7969C18.8802 172.281 19.9219 173.323 19.9219 175.406V184H18.5938V175.406C18.5938 174.104 17.9948 173.453 16.7969 173.453H15.2344V172.281ZM23.8281 182.828V181.656H23.6328C23.5755 181.656 23.5286 181.682 23.4922 181.734C23.4557 181.781 23.4375 181.951 23.4375 182.242C23.4375 182.534 23.4557 182.706 23.4922 182.758C23.5286 182.805 23.5755 182.828 23.6328 182.828H23.8281ZM25.1562 175.406V182.242C25.1562 182.909 25.0677 183.37 24.8906 183.625C24.7188 183.875 24.3906 184 23.9062 184C23.4219 184 23.0911 183.875 22.9141 183.625C22.7422 183.37 22.6562 182.909 22.6562 182.242C22.6562 181.576 22.7422 181.117 22.9141 180.867C23.0911 180.612 23.3307 180.484 23.6328 180.484C23.7005 180.484 23.7656 180.49 23.8281 180.5V175.406C23.724 175.042 23.4635 174.651 23.0469 174.234V173.453C23.0469 172.672 23.4375 172.281 24.2188 172.281H25.5469V173.453H24.6094C24.349 173.453 24.2188 173.583 24.2188 173.844C24.8438 174.26 25.1562 174.781 25.1562 175.406ZM30.3906 175.406V185.953C30.3906 187.255 30.9505 187.906 32.0703 187.906C33.1901 187.906 33.75 187.255 33.75 185.953V184.781H35.0781V185.953C35.0781 188.036 34.0755 189.078 32.0703 189.078C30.0651 189.078 29.0625 188.036 29.0625 185.953V175.406C29.0625 175.042 28.8021 174.651 28.2812 174.234V173.453C28.2812 172.672 28.6719 172.281 29.4531 172.281H30.7812V173.453H29.8438C29.5833 173.453 29.4531 173.583 29.4531 173.844C30.0781 174.26 30.3906 174.781 30.3906 175.406ZM33.75 175.406C33.75 175.042 33.6198 174.651 33.3594 174.234V173.844C33.3594 172.802 33.8802 172.281 34.9219 172.281H41.5625V173.453H35.4688C34.9479 173.453 34.6875 173.609 34.6875 173.922C34.9479 174.339 35.0781 174.833 35.0781 175.406V180.094C35.0781 181.917 35.9375 182.828 37.6562 182.828C39.375 182.828 40.2344 181.917 40.2344 180.094V175.406H41.5625V184.781H40.2344V183.32C39.599 183.773 38.7396 184 37.6562 184C35.0521 184 33.75 182.698 33.75 180.094V175.406ZM41.1719 172.281H42.7344C44.8177 172.281 45.8594 173.323 45.8594 175.406V184H44.5312V175.406C44.5312 174.104 43.9323 173.453 42.7344 173.453H41.1719V172.281ZM56.25 175.406C56.25 175.042 55.9896 174.651 55.4688 174.234V173.453C55.4688 172.672 55.8594 172.281 56.6406 172.281H57.9688V173.453H57.0312C56.7708 173.453 56.6406 173.583 56.6406 173.844C57.2656 174.26 57.5781 174.781 57.5781 175.406V180.094C57.5781 182.698 56.276 184 53.6719 184C51.0677 184 49.7656 182.698 49.7656 180.094V175.406C49.7656 175.042 49.5052 174.651 48.9844 174.234V173.453C48.9844 172.672 49.375 172.281 50.1562 172.281H51.4844V173.453H50.5469C50.2865 173.453 50.1562 173.583 50.1562 173.844C50.7812 174.26 51.0938 174.781 51.0938 175.406V180.094C51.0938 181.917 51.9531 182.828 53.6719 182.828C55.3906 182.828 56.25 181.917 56.25 180.094V175.406ZM54.2578 166.422V169.938H53.0859V166.422H54.2578ZM62.6562 181.656V182.828C62.7656 182.828 62.8568 182.799 62.9297 182.742C63.0078 182.68 63.0469 182.513 63.0469 182.242C63.0469 181.971 63.0078 181.807 62.9297 181.75C62.8568 181.688 62.7656 181.656 62.6562 181.656ZM61.4844 174.625L63.5156 172.281L65.3906 173.844L67.2656 172.281L69.2969 174.625V184H67.9688V174.938L67.1875 173.961L65.3906 175.25L63.5938 173.961L62.8125 174.938V180.562C62.9323 180.51 63.0703 180.484 63.2266 180.484C63.3828 180.484 63.5469 180.625 63.7188 180.906C63.8958 181.182 63.9844 181.628 63.9844 182.242C63.9844 182.857 63.8698 183.305 63.6406 183.586C63.4167 183.862 63.1146 184 62.7344 184C62.3542 184 62.0521 183.859 61.8281 183.578C61.651 183.365 61.5417 183.049 61.5 182.633H61.4844V174.625ZM64.6094 168.922H68.125C66.8281 168.036 65.7865 167.594 65 167.594C63.9583 167.594 63.4375 167.815 63.4375 168.258C63.4375 168.701 63.8281 168.922 64.6094 168.922ZM68.125 167.633V165.641H69.2969V169.938H64.2188C62.9167 169.938 62.2656 169.417 62.2656 168.375C62.2656 167.073 63.1771 166.422 65 166.422C66.0417 166.422 67.0182 166.773 67.9297 167.477C67.9974 167.529 68.0625 167.581 68.125 167.633ZM79.6875 175.406C79.6875 175.042 79.4271 174.651 78.9062 174.234V173.453C78.9062 172.672 79.2969 172.281 80.0781 172.281H81.4062V173.453H80.4688C80.2083 173.453 80.0781 173.583 80.0781 173.844C80.7031 174.26 81.0156 174.781 81.0156 175.406V180.094C81.0156 182.698 79.7135 184 77.1094 184C74.5052 184 73.2031 182.698 73.2031 180.094V175.406C73.2031 175.042 72.9427 174.651 72.4219 174.234V173.453C72.4219 172.672 72.8125 172.281 73.5938 172.281H74.9219V173.453H73.9844C73.724 173.453 73.5938 173.583 73.5938 173.844C74.2188 174.26 74.5312 174.781 74.5312 175.406V180.094C74.5312 181.917 75.3906 182.828 77.1094 182.828C78.8281 182.828 79.6875 181.917 79.6875 180.094V175.406ZM86.0938 181.656V182.828C86.2031 182.828 86.2943 182.799 86.3672 182.742C86.4453 182.68 86.4844 182.513 86.4844 182.242C86.4844 181.971 86.4453 181.807 86.3672 181.75C86.2943 181.688 86.2031 181.656 86.0938 181.656ZM92.1875 173.57L94.5703 172.281H95.0781C97.1615 172.281 98.2031 173.323 98.2031 175.406V184H96.875V175.406C96.875 174.104 96.276 173.453 95.0781 173.453H94.7656L92.9688 174.312L92.1875 173.57ZM84.9219 174.625L86.9531 172.281L88.8281 173.844L90.7031 172.281L92.7344 174.625V184H91.4062V174.938L90.625 173.961L88.8281 175.25L87.0312 173.961L86.25 174.938V180.562C86.3698 180.51 86.5078 180.484 86.6641 180.484C86.8203 180.484 86.9844 180.625 87.1562 180.906C87.3333 181.182 87.4219 181.628 87.4219 182.242C87.4219 182.857 87.3073 183.305 87.0781 183.586C86.8542 183.862 86.5521 184 86.1719 184C85.7917 184 85.4896 183.859 85.2656 183.578C85.0885 183.365 84.9792 183.049 84.9375 182.633H84.9219V174.625ZM93.7109 186.734C93.7109 185.432 94.3958 184.781 95.7656 184.781C97.1302 184.781 97.8125 185.432 97.8125 186.734V189.078H96.6406V186.734C96.6406 186.214 96.349 185.953 95.7656 185.953C95.1771 185.953 94.8828 186.214 94.8828 186.734V187.125C94.8828 188.427 94.2005 189.078 92.8359 189.078C91.4661 189.078 90.7812 188.427 90.7812 187.125V184.781H91.9531V187.125C91.9531 187.646 92.2474 187.906 92.8359 187.906C93.4193 187.906 93.7109 187.646 93.7109 187.125V186.734ZM98.2031 172.281H99.7656C101.849 172.281 102.891 173.323 102.891 175.406V184H101.562V175.406C101.562 174.104 100.964 173.453 99.7656 173.453H98.2031V172.281Z" fill="#D7260F"/>
<circle cx="205" cy="99" r="12" fill="#344054"/>
<path d="M200.943 105V103.227L205.085 99.392C205.438 99.0511 205.733 98.7443 205.972 98.4716C206.214 98.1989 206.398 97.9318 206.523 97.6705C206.648 97.4053 206.71 97.1193 206.71 96.8125C206.71 96.4716 206.633 96.178 206.477 95.9318C206.322 95.6818 206.11 95.4905 205.841 95.358C205.572 95.2216 205.267 95.1534 204.926 95.1534C204.57 95.1534 204.259 95.2254 203.994 95.3693C203.729 95.5133 203.525 95.7197 203.381 95.9886C203.237 96.2576 203.165 96.5777 203.165 96.9489H200.83C200.83 96.1875 201.002 95.5265 201.347 94.9659C201.691 94.4053 202.174 93.9716 202.795 93.6648C203.417 93.358 204.133 93.2045 204.943 93.2045C205.777 93.2045 206.502 93.3523 207.119 93.6477C207.741 93.9394 208.223 94.3447 208.568 94.8636C208.913 95.3826 209.085 95.9773 209.085 96.6477C209.085 97.0871 208.998 97.5208 208.824 97.9489C208.653 98.3769 208.348 98.8523 207.909 99.375C207.47 99.8939 206.85 100.517 206.051 101.244L204.352 102.909V102.989H209.239V105H200.943Z" fill="white"/>
<path d="M196 99L144 99.5" stroke="#344054" stroke-dasharray="2 2"/>
<circle cx="402" cy="139" r="12" fill="#344054"/>
<path d="M402.244 145.159C401.396 145.159 400.64 145.013 399.977 144.722C399.318 144.426 398.797 144.021 398.415 143.506C398.036 142.987 397.841 142.388 397.83 141.71H400.307C400.322 141.994 400.415 142.244 400.585 142.46C400.759 142.672 400.991 142.837 401.278 142.955C401.566 143.072 401.89 143.131 402.25 143.131C402.625 143.131 402.956 143.064 403.244 142.932C403.532 142.799 403.758 142.616 403.92 142.381C404.083 142.146 404.165 141.875 404.165 141.568C404.165 141.258 404.078 140.983 403.903 140.744C403.733 140.502 403.487 140.312 403.165 140.176C402.847 140.04 402.468 139.972 402.028 139.972H400.943V138.165H402.028C402.4 138.165 402.727 138.1 403.011 137.972C403.299 137.843 403.523 137.665 403.682 137.438C403.841 137.206 403.92 136.938 403.92 136.631C403.92 136.339 403.85 136.083 403.71 135.864C403.574 135.64 403.381 135.466 403.131 135.341C402.884 135.216 402.597 135.153 402.267 135.153C401.934 135.153 401.629 135.214 401.352 135.335C401.076 135.453 400.854 135.621 400.688 135.841C400.521 136.061 400.432 136.318 400.42 136.614H398.062C398.074 135.943 398.265 135.352 398.636 134.841C399.008 134.33 399.508 133.93 400.136 133.642C400.769 133.35 401.483 133.205 402.278 133.205C403.081 133.205 403.784 133.35 404.386 133.642C404.989 133.934 405.456 134.328 405.79 134.824C406.127 135.316 406.294 135.869 406.29 136.483C406.294 137.134 406.091 137.678 405.682 138.114C405.277 138.549 404.748 138.826 404.097 138.943V139.034C404.953 139.144 405.604 139.441 406.051 139.926C406.502 140.407 406.725 141.009 406.722 141.733C406.725 142.396 406.534 142.985 406.148 143.5C405.765 144.015 405.237 144.42 404.562 144.716C403.888 145.011 403.116 145.159 402.244 145.159Z" fill="white"/>
<path d="M393 139L341 139.5" stroke="#344054" stroke-dasharray="2 2"/>
<circle cx="67" cy="16" r="12" fill="#344054"/>
<path d="M69.0057 10.3636V22H66.5455V12.6989H66.4773L63.8125 14.3693V12.1875L66.6932 10.3636H69.0057Z" fill="white"/>
<path d="M64 16H20V58" stroke="#344054" stroke-dasharray="2 2"/>
<circle cx="67" cy="231" r="12" fill="#344054"/>
<path d="M62.767 234.955V233.017L67.625 225.364H69.2955V228.045H68.3068L65.2443 232.892V232.983H72.1477V234.955H62.767ZM68.3523 237V234.364L68.3977 233.506V225.364H70.7045V237H68.3523Z" fill="white"/>
<path d="M64 232H20V190" stroke="#344054" stroke-dasharray="2 2"/>
</svg>
