<svg width="446" height="167" viewBox="0 0 446 167" fill="none" xmlns="http://www.w3.org/2000/svg">
<path d="M38.9062 12.4062V22.9531C38.9062 23.9948 39.5573 24.5156 40.8594 24.5156C42.1615 24.5156 42.8125 23.9948 42.8125 22.9531V21.7812H44.7656V22.9531C44.7656 25.0365 43.4635 26.0781 40.8594 26.0781C38.2552 26.0781 36.9531 25.0365 36.9531 22.9531V12.4062C36.9531 11.9792 36.6927 11.5573 36.1719 11.1406V10.4531C36.1719 9.67188 36.6667 9.28125 37.6562 9.28125H39.2969V10.8438H37.9688V10.9375C38.5938 11.3542 38.9062 11.8438 38.9062 12.4062ZM49.2969 12.4062C49.2969 11.9792 49.0365 11.5573 48.5156 11.1406V10.4531C48.5156 9.67188 49.0104 9.28125 50 9.28125H51.6406V10.8438H50.3125V10.9375C50.9375 11.3542 51.25 11.8438 51.25 12.4062V17.0938C51.25 19.6979 49.8438 21 47.0312 21C44.2188 21 42.8125 19.6979 42.8125 17.0938V12.4062C42.8125 11.9792 42.5521 11.5573 42.0312 11.1406V10.4531C42.0312 9.67188 42.526 9.28125 43.5156 9.28125H45.1562V10.8438H43.8281V10.9375C44.4531 11.3542 44.7656 11.8438 44.7656 12.4062V17.0938C44.7656 18.6562 45.5208 19.4375 47.0312 19.4375C48.5417 19.4375 49.2969 18.6562 49.2969 17.0938V12.4062ZM62.0312 13.5C61.9062 13.5 61.8229 13.5286 61.7812 13.5859C61.7396 13.638 61.7188 13.6979 61.7188 13.7656C61.7188 13.8333 61.737 13.888 61.7734 13.9297C61.8151 13.987 61.901 14.0156 62.0312 14.0156V13.5ZM55.1562 12.4062C55.1562 11.9896 55.026 11.5729 54.7656 11.1562V10.8438C54.7656 9.80208 55.3906 9.28125 56.6406 9.28125H63.5938V10.8438H57.1875C56.875 10.8438 56.7188 10.8958 56.7188 11C56.9792 11.4167 57.1094 11.8854 57.1094 12.4062V18.6094L59.375 16.6875L61.6406 18.6094V15.1172C61.224 15.1016 60.901 14.9427 60.6719 14.6406C60.4844 14.4115 60.3906 14.1224 60.3906 13.7734C60.3906 13.4245 60.5026 13.1094 60.7266 12.8281C60.9505 12.5469 61.3854 12.4062 62.0312 12.4062C62.625 12.4062 63.0339 12.5469 63.2578 12.8281C63.4818 13.1094 63.5938 13.4245 63.5938 13.7734V21H61.9062L59.375 18.8281L56.8438 21H55.1562V12.4062ZM63.5938 9.28125H65.4688C68.125 9.28125 69.4531 10.3229 69.4531 12.4062V21H67.5V12.4062C67.5 11.3646 66.8229 10.8438 65.4688 10.8438H63.5938V9.28125ZM81.7969 15.8984V17.875C81.7969 19.9583 80.9635 21 79.2969 21C78.0625 21 77.1875 20.6745 76.6719 20.0234C76.1562 19.3724 75.7031 19.0469 75.3125 19.0469V21H73.3594V16.3125H75.3125V17.4844C76.1719 17.4844 76.8854 17.8099 77.4531 18.4609C78.026 19.112 78.5286 19.4375 78.9609 19.4375C79.5495 19.4375 79.8438 18.9167 79.8438 17.875V17.0391C75.5208 16.1016 73.3594 14.5573 73.3594 12.4062C73.3594 10.3229 74.7656 9.28125 77.5781 9.28125C80.3906 9.28125 81.7969 10.3229 81.7969 12.4062C81.7969 13.8594 80.9688 14.5859 79.3125 14.5859C78.8594 14.5859 78.4896 14.4792 78.2031 14.2656V12.6797C78.8385 12.8672 79.2448 12.9609 79.4219 12.9609C79.7031 12.9609 79.8438 12.776 79.8438 12.4062C79.8438 11.3646 79.0885 10.8438 77.5781 10.8438C76.0677 10.8438 75.3125 11.3646 75.3125 12.4062C75.3125 13.7448 77.474 14.9089 81.7969 15.8984ZM92.1875 12.4062C92.1875 11.9792 91.9271 11.5573 91.4062 11.1406V10.4531C91.4062 9.67188 91.901 9.28125 92.8906 9.28125H94.5312V10.8438H93.2031V10.9375C93.8281 11.3542 94.1406 11.8438 94.1406 12.4062V17.0938C94.1406 19.6979 92.7344 21 89.9219 21C87.1094 21 85.7031 19.6979 85.7031 17.0938V12.4062C85.7031 11.9792 85.4427 11.5573 84.9219 11.1406V10.4531C84.9219 9.67188 85.4167 9.28125 86.4062 9.28125H88.0469V10.8438H86.7188V10.9375C87.3438 11.3542 87.6562 11.8438 87.6562 12.4062V17.0938C87.6562 18.6562 88.4115 19.4375 89.9219 19.4375C91.4323 19.4375 92.1875 18.6562 92.1875 17.0938V12.4062ZM105.312 16.2031C105.312 16.0521 105.26 15.9766 105.156 15.9766C105.052 15.9766 105 16.0547 105 16.2109C105 16.4089 105.104 16.5182 105.312 16.5391V16.2031ZM105.391 17.5391V17.875C105.391 19.9583 104.349 21 102.266 21C100.182 21 99.1406 19.9583 99.1406 17.875V16.3125H101.094V17.875C101.094 18.9167 101.484 19.4375 102.266 19.4375C103.047 19.4375 103.438 18.9167 103.438 17.875V17.2266C99.8438 15.9297 98.0469 14.3229 98.0469 12.4062C98.0469 10.3229 99.4531 9.28125 102.266 9.28125C105.078 9.28125 106.484 10.3229 106.484 12.4062C106.484 13.8594 105.656 14.5859 104 14.5859C103.547 14.5859 103.177 14.4792 102.891 14.2656V12.6016C103.526 12.7891 103.932 12.8828 104.109 12.8828C104.391 12.8828 104.531 12.724 104.531 12.4062C104.531 11.3646 103.776 10.8438 102.266 10.8438C100.755 10.8438 100 11.3646 100 12.4062C100 14.0521 101.146 15.1536 103.438 15.7109C103.438 15.2786 103.906 15.0625 104.844 15.0625C105.938 15.0625 106.484 15.388 106.484 16.0391C106.484 16.6276 106.378 17.0182 106.164 17.2109C105.956 17.4036 105.698 17.513 105.391 17.5391Z" fill="#344054"/>
<path d="M38.4766 51.8281C38.5339 51.8281 38.5807 51.8047 38.6172 51.7578C38.6536 51.7057 38.6719 51.5339 38.6719 51.2422C38.6719 50.9505 38.6536 50.7812 38.6172 50.7344C38.5807 50.6823 38.5339 50.6562 38.4766 50.6562H38.2812V51.8281H38.4766ZM38.2812 49.5C38.3438 49.4896 38.4089 49.4844 38.4766 49.4844C38.7786 49.4844 39.0156 49.612 39.1875 49.8672C39.3646 50.1172 39.4531 50.5755 39.4531 51.2422C39.4531 51.9089 39.3646 52.3698 39.1875 52.625C39.0156 52.875 38.6875 53 38.2031 53C37.7188 53 37.388 52.875 37.2109 52.625C37.0391 52.3698 36.9531 51.9089 36.9531 51.2422V44.4062C36.849 44.0417 36.5885 43.651 36.1719 43.2344V42.4531C36.1719 41.6719 36.5625 41.2812 37.3438 41.2812H38.6719V42.4531H37.7344C37.474 42.4531 37.3438 42.5833 37.3438 42.8438C37.9688 43.2604 38.2812 43.7812 38.2812 44.4062V49.5ZM50 48.2344V49.875C50 51.9583 49.2708 53 47.8125 53C46.7396 53 45.9453 52.6745 45.4297 52.0234C44.9141 51.3724 44.276 51.0469 43.5156 51.0469V53H42.1875V48.3125H43.5156V49.875C44.4271 49.875 45.1667 50.2005 45.7344 50.8516C46.3073 51.5026 46.888 51.8281 47.4766 51.8281C48.2734 51.8281 48.6719 51.1771 48.6719 49.875V49.0938C44.349 48.1562 42.1875 46.5938 42.1875 44.4062C42.1875 42.3229 43.4896 41.2812 46.0938 41.2812C48.6979 41.2812 50 42.3229 50 44.4062C50 45.8594 49.276 46.5859 47.8281 46.5859C47.5 46.5859 47.2344 46.5104 47.0312 46.3594V45.1875C47.401 45.2969 47.7031 45.3516 47.9375 45.3516C48.4271 45.3516 48.6719 45.0365 48.6719 44.4062C48.6719 43.1042 47.8125 42.4531 46.0938 42.4531C44.375 42.4531 43.5156 43.1042 43.5156 44.4062C43.5156 45.9688 45.6771 47.2448 50 48.2344ZM55.0781 43.4297C55.0781 43.6224 55.1276 43.7682 55.2266 43.8672C55.3255 43.9661 55.4714 44.0156 55.6641 44.0156C55.862 44.0156 56.0078 43.9661 56.1016 43.8672C56.2005 43.7682 56.25 43.6224 56.25 43.4297C56.25 43.2318 56.2005 43.0859 56.1016 42.9922C56.0078 42.8932 55.862 42.8438 55.6641 42.8438C55.4714 42.8438 55.3255 42.8932 55.2266 42.9922C55.1276 43.0859 55.0781 43.2318 55.0781 43.4297ZM57.4219 43.4297C57.4219 44.0182 57.276 44.4583 56.9844 44.75C56.6927 45.0417 56.2526 45.1875 55.6641 45.1875C55.0755 45.1875 54.6354 45.0417 54.3438 44.75C54.0521 44.4583 53.9062 44.0182 53.9062 43.4297C53.9062 42.8411 54.0521 42.401 54.3438 42.1094C54.6354 41.8177 55.0755 41.6719 55.6641 41.6719C56.2526 41.6719 56.6927 41.8177 56.9844 42.1094C57.276 42.401 57.4219 42.8411 57.4219 43.4297ZM55.0781 50.8516C55.0781 51.0443 55.1276 51.1901 55.2266 51.2891C55.3255 51.388 55.4714 51.4375 55.6641 51.4375C55.862 51.4375 56.0078 51.388 56.1016 51.2891C56.2005 51.1901 56.25 51.0443 56.25 50.8516C56.25 50.6536 56.2005 50.5078 56.1016 50.4141C56.0078 50.3151 55.862 50.2656 55.6641 50.2656C55.4714 50.2656 55.3255 50.3151 55.2266 50.4141C55.1276 50.5078 55.0781 50.6536 55.0781 50.8516ZM57.4219 50.8516C57.4219 51.4401 57.276 51.8802 56.9844 52.1719C56.6927 52.4635 56.2526 52.6094 55.6641 52.6094C55.0755 52.6094 54.6354 52.4635 54.3438 52.1719C54.0521 51.8802 53.9062 51.4401 53.9062 50.8516C53.9062 50.263 54.0521 49.8229 54.3438 49.5312C54.6354 49.2396 55.0755 49.0938 55.6641 49.0938C56.2526 49.0938 56.6927 49.2396 56.9844 49.5312C57.276 49.8229 57.4219 50.263 57.4219 50.8516ZM69.1406 41.2812V42.4531H61.3281V41.2812H69.1406ZM62.6562 50.2656C63.0469 49.4844 63.6719 49.0938 64.5312 49.0938H65.2344V50.3438H64.5312C63.6719 50.3438 63.0469 50.7344 62.6562 51.5156V53H61.3281V47.5312C61.3281 44.9271 62.6302 43.625 65.2344 43.625C67.8385 43.625 69.1406 44.9271 69.1406 47.5312V53H67.8125V47.5312C67.8125 45.7083 66.9531 44.7969 65.2344 44.7969C63.5156 44.7969 62.6562 45.7083 62.6562 47.5312V50.2656ZM64.4531 37.9219H67.9688C66.6719 37.0365 65.6302 36.5938 64.8438 36.5938C63.8021 36.5938 63.2812 36.8151 63.2812 37.2578C63.2812 37.7005 63.6719 37.9219 64.4531 37.9219ZM68.125 36.7578V34.6406H69.1406V38.9375H64.0625C62.7604 38.9375 62.1094 38.4167 62.1094 37.375C62.1094 36.0729 63.0208 35.4219 64.8438 35.4219C65.4375 35.4219 66.0104 35.5365 66.5625 35.7656V34.6406H67.5781V36.3281C67.6458 36.375 67.7109 36.4245 67.7734 36.4766C67.8984 36.5755 68.0156 36.6693 68.125 36.7578ZM73.0469 44.4062C73.0469 44.0417 72.9167 43.651 72.6562 43.2344V42.8438C72.6562 41.8021 73.1771 41.2812 74.2188 41.2812H76.5625L78.3594 42.4531H78.9844C79.349 42.4531 79.5312 42.2708 79.5312 41.9062V40.1094H80.8594V41.9062C80.8594 43.0521 80.4167 43.625 79.5312 43.625H78.125L76.3281 42.4531H74.7656C74.2448 42.4531 73.9844 42.6094 73.9844 42.9219C74.2448 43.3385 74.375 43.8333 74.375 44.4062V51.4375L76.9531 49.25L79.5312 51.4375V44.4062H80.8594V53H79.6875L76.9531 50.6562L74.2188 53H73.0469V44.4062ZM80.8594 41.2812H82.4219C84.5052 41.2812 85.5469 42.3229 85.5469 44.4062V53H84.2188V44.4062C84.2188 43.1042 83.6198 42.4531 82.4219 42.4531H80.8594V41.2812ZM90.9766 51.8281C91.0339 51.8281 91.0807 51.8047 91.1172 51.7578C91.1536 51.7057 91.1719 51.5339 91.1719 51.2422C91.1719 50.9505 91.1536 50.7812 91.1172 50.7344C91.0807 50.6823 91.0339 50.6562 90.9766 50.6562H90.7812V51.8281H90.9766ZM90.7812 49.5C90.8438 49.4896 90.9089 49.4844 90.9766 49.4844C91.2786 49.4844 91.5156 49.612 91.6875 49.8672C91.8646 50.1172 91.9531 50.5755 91.9531 51.2422C91.9531 51.9089 91.8646 52.3698 91.6875 52.625C91.5156 52.875 91.1875 53 90.7031 53C90.2188 53 89.888 52.875 89.7109 52.625C89.5391 52.3698 89.4531 51.9089 89.4531 51.2422V44.4062C89.349 44.0417 89.0885 43.651 88.6719 43.2344V42.4531C88.6719 41.6719 89.0625 41.2812 89.8438 41.2812H91.1719V42.4531H90.2344C89.974 42.4531 89.8438 42.5833 89.8438 42.8438C90.4688 43.2604 90.7812 43.7812 90.7812 44.4062V49.5ZM95.8594 50.6562V51.8281C95.9688 51.8281 96.0599 51.7995 96.1328 51.7422C96.2109 51.6797 96.25 51.513 96.25 51.2422C96.25 50.9714 96.2109 50.8073 96.1328 50.75C96.0599 50.6875 95.9688 50.6562 95.8594 50.6562ZM107.969 44.4062V49.0938C107.969 51.6979 106.797 53 104.453 53C101.927 53 100.664 51.6979 100.664 49.0938V47.5312C100.664 45.7083 99.8906 44.7969 98.3438 44.7969C96.7917 44.7969 96.0156 45.7083 96.0156 47.5312V49.5625C96.1354 49.5104 96.2734 49.4844 96.4297 49.4844C96.5859 49.4844 96.75 49.625 96.9219 49.9062C97.099 50.1823 97.1875 50.6276 97.1875 51.2422C97.1875 51.8568 97.0729 52.3047 96.8438 52.5859C96.6198 52.862 96.3177 53 95.9375 53C95.5573 53 95.2552 52.8594 95.0312 52.5781C94.8542 52.3646 94.7448 52.0495 94.7031 51.6328H94.6875V47.5312C94.6875 45.9062 95.1615 44.7891 96.1094 44.1797C95.875 43.7891 95.5312 43.474 95.0781 43.2344V42.4531C95.0781 41.6719 95.4688 41.2812 96.25 41.2812H100.547V42.4531H96.7969C96.5365 42.4531 96.4062 42.5833 96.4062 42.8438C96.8125 43.0625 97.1328 43.349 97.3672 43.7031C97.6693 43.651 97.9948 43.625 98.3438 43.625C100.776 43.625 101.992 44.9271 101.992 47.5312V49.0938C101.992 50.9167 102.812 51.8281 104.453 51.8281C105.911 51.8281 106.641 50.9167 106.641 49.0938V44.4062C106.641 44.0417 106.38 43.651 105.859 43.2344V42.4531C105.859 41.6719 106.25 41.2812 107.031 41.2812H108.359V42.4531H107.422C107.161 42.4531 107.031 42.5833 107.031 42.8438C107.656 43.2604 107.969 43.7812 107.969 44.4062ZM118.359 45.3828C118.25 45.3828 118.156 45.4167 118.078 45.4844C118.005 45.5521 117.969 45.6484 117.969 45.7734C117.969 45.8984 118.005 45.9948 118.078 46.0625C118.156 46.1302 118.25 46.1641 118.359 46.1641V45.3828ZM118.359 47.0859C118.307 47.0911 118.255 47.0938 118.203 47.0938C117.849 47.0938 117.586 46.9818 117.414 46.7578C117.211 46.5078 117.109 46.1797 117.109 45.7734C117.109 45.3672 117.208 45.0391 117.406 44.7891C117.609 44.5339 117.94 44.4062 118.398 44.4062C118.857 44.4062 119.185 44.5339 119.383 44.7891C119.586 45.0391 119.688 45.3672 119.688 45.7734V49.0938C119.688 51.6979 118.385 53 115.781 53C113.177 53 111.875 51.6979 111.875 49.0938V44.4062C111.875 44.0417 111.745 43.651 111.484 43.2344V42.8438C111.484 41.8021 112.005 41.2812 113.047 41.2812H119.688V42.4531H113.594C113.073 42.4531 112.812 42.6094 112.812 42.9219C113.073 43.3385 113.203 43.8333 113.203 44.4062V49.0938C113.203 50.9167 114.062 51.8281 115.781 51.8281C117.5 51.8281 118.359 50.9167 118.359 49.0938V47.0859ZM124.922 53H123.594V47.5312C123.594 44.9271 124.896 43.625 127.5 43.625C130.104 43.625 131.406 44.9271 131.406 47.5312V53H130.078V47.5312C130.078 45.7083 129.219 44.7969 127.5 44.7969C125.781 44.7969 124.922 45.7083 124.922 47.5312V53ZM131.406 41.2812V42.4531H123.594V41.2812H131.406ZM125.156 57.2969C125.266 57.2969 125.333 57.2708 125.359 57.2188C125.38 57.1719 125.391 57.1068 125.391 57.0234C125.391 56.9401 125.38 56.8724 125.359 56.8203C125.333 56.7734 125.266 56.75 125.156 56.75V57.2969ZM123.984 55.9688C123.984 54.5104 125.156 53.7812 127.5 53.7812C129.844 53.7812 131.016 54.5625 131.016 56.125V58.0781H129.844V56.125C129.844 55.3438 129.062 54.9531 127.5 54.9531C125.938 54.9531 125.156 55.2917 125.156 55.9688C125.484 55.9688 125.737 56.0547 125.914 56.2266C126.086 56.4036 126.172 56.6693 126.172 57.0234C126.172 57.3776 126.073 57.6406 125.875 57.8125C125.672 57.9896 125.406 58.0781 125.078 58.0781C124.75 58.0781 124.487 57.9896 124.289 57.8125C124.086 57.6406 123.984 57.3776 123.984 57.0234V55.9688ZM126.719 37.9219H130.234C128.938 37.0365 127.896 36.5938 127.109 36.5938C126.068 36.5938 125.547 36.8151 125.547 37.2578C125.547 37.7005 125.938 37.9219 126.719 37.9219ZM130.234 36.6328V34.6406H131.406V38.9375H126.328C125.026 38.9375 124.375 38.4167 124.375 37.375C124.375 36.0729 125.286 35.4219 127.109 35.4219C128.151 35.4219 129.128 35.7734 130.039 36.4766C130.107 36.5286 130.172 36.5807 130.234 36.6328ZM136.836 51.8281C136.893 51.8281 136.94 51.8047 136.977 51.7578C137.013 51.7057 137.031 51.5339 137.031 51.2422C137.031 50.9505 137.013 50.7812 136.977 50.7344C136.94 50.6823 136.893 50.6562 136.836 50.6562H136.641V51.8281H136.836ZM136.641 49.5C136.703 49.4896 136.768 49.4844 136.836 49.4844C137.138 49.4844 137.375 49.612 137.547 49.8672C137.724 50.1172 137.812 50.5755 137.812 51.2422C137.812 51.9089 137.724 52.3698 137.547 52.625C137.375 52.875 137.047 53 136.562 53C136.078 53 135.747 52.875 135.57 52.625C135.398 52.3698 135.312 51.9089 135.312 51.2422V44.4062C135.208 44.0417 134.948 43.651 134.531 43.2344V42.4531C134.531 41.6719 134.922 41.2812 135.703 41.2812H137.031V42.4531H136.094C135.833 42.4531 135.703 42.5833 135.703 42.8438C136.328 43.2604 136.641 43.7812 136.641 44.4062V49.5ZM135.586 39.4062C136.107 39.4062 136.367 39.1198 136.367 38.5469C136.367 37.4531 135.977 36.9062 135.195 36.9062C134.857 36.9062 134.57 37.0104 134.336 37.2188L133.945 36.2812C134.284 35.9688 134.701 35.8125 135.195 35.8125C136.706 35.8125 137.461 36.724 137.461 38.5469C137.461 39.849 136.836 40.5 135.586 40.5C134.492 40.5 133.945 40.0625 133.945 39.1875C133.945 38.7552 134.042 38.4505 134.234 38.2734C134.432 38.0911 134.776 38 135.266 38V38.9375C135.115 38.9375 135.039 39.0156 135.039 39.1719C135.039 39.3281 135.221 39.4062 135.586 39.4062ZM141.719 50.6562V51.8281C141.828 51.8281 141.919 51.7995 141.992 51.7422C142.07 51.6797 142.109 51.513 142.109 51.2422C142.109 50.9714 142.07 50.8073 141.992 50.75C141.919 50.6875 141.828 50.6562 141.719 50.6562ZM140.547 45.1875C140.547 42.5833 141.635 41.2812 143.812 41.2812C145.984 41.2812 147.07 42.5833 147.07 45.1875V51.6719L149.141 48.9375L151.211 51.6719V45.1875C151.211 42.5833 152.299 41.2812 154.477 41.2812C156.648 41.2812 157.734 42.5833 157.734 45.1875V53H156.406V45.1875C156.406 43.3646 155.763 42.4531 154.477 42.4531C153.185 42.4531 152.539 43.3646 152.539 45.1875V53H150.82L149.141 50.6562L147.461 53H145.742V45.1875C145.742 43.3646 145.073 42.4531 143.734 42.4531C142.495 42.4531 141.875 43.3646 141.875 45.1875V49.5625C141.995 49.5104 142.133 49.4844 142.289 49.4844C142.445 49.4844 142.609 49.625 142.781 49.9062C142.958 50.1823 143.047 50.6276 143.047 51.2422C143.047 51.8568 142.932 52.3047 142.703 52.5859C142.479 52.862 142.177 53 141.797 53C141.417 53 141.115 52.8594 140.891 52.5781C140.714 52.3646 140.604 52.0495 140.562 51.6328H140.547V45.1875ZM169.453 48.2344V49.875C169.453 51.9583 168.724 53 167.266 53C166.193 53 165.398 52.6745 164.883 52.0234C164.367 51.3724 163.729 51.0469 162.969 51.0469V53H161.641V48.3125H162.969V49.875C163.88 49.875 164.62 50.2005 165.188 50.8516C165.76 51.5026 166.341 51.8281 166.93 51.8281C167.727 51.8281 168.125 51.1771 168.125 49.875V49.0938C163.802 48.1562 161.641 46.5938 161.641 44.4062C161.641 42.3229 162.943 41.2812 165.547 41.2812C168.151 41.2812 169.453 42.3229 169.453 44.4062C169.453 45.8594 168.729 46.5859 167.281 46.5859C166.953 46.5859 166.688 46.5104 166.484 46.3594V45.1875C166.854 45.2969 167.156 45.3516 167.391 45.3516C167.88 45.3516 168.125 45.0365 168.125 44.4062C168.125 43.1042 167.266 42.4531 165.547 42.4531C163.828 42.4531 162.969 43.1042 162.969 44.4062C162.969 45.9688 165.13 47.2448 169.453 48.2344ZM169.453 41.2812H171.016C173.099 41.2812 174.141 42.3229 174.141 44.4062V53H172.812V44.4062C172.812 43.1042 172.214 42.4531 171.016 42.4531H169.453V41.2812ZM169.844 37.1797C169.844 37.3724 169.893 37.5182 169.992 37.6172C170.091 37.7161 170.237 37.7656 170.43 37.7656C170.628 37.7656 170.776 37.7161 170.875 37.6172C170.969 37.5182 171.016 37.3724 171.016 37.1797C171.016 36.9818 170.969 36.8359 170.875 36.7422C170.776 36.6432 170.628 36.5938 170.43 36.5938C170.237 36.5938 170.091 36.6432 169.992 36.7422C169.893 36.8359 169.844 36.9818 169.844 37.1797ZM172.188 37.1797C172.188 37.7682 172.042 38.2083 171.75 38.5C171.458 38.7917 171.018 38.9375 170.43 38.9375C169.841 38.9375 169.401 38.7917 169.109 38.5C168.818 38.2083 168.672 37.7682 168.672 37.1797C168.672 36.5911 168.818 36.151 169.109 35.8594C169.401 35.5677 169.841 35.4219 170.43 35.4219C171.018 35.4219 171.458 35.5677 171.75 35.8594C172.042 36.151 172.188 36.5911 172.188 37.1797Z" fill="#667085"/>
<rect x="35.5" y="64.5" width="358" height="47" rx="7.5" fill="white"/>
<path d="M54.125 90.6562V91.8281C54.2344 91.8281 54.3255 91.7995 54.3984 91.7422C54.4766 91.6797 54.5156 91.513 54.5156 91.2422C54.5156 90.9714 54.4766 90.8073 54.3984 90.75C54.3255 90.6875 54.2344 90.6562 54.125 90.6562ZM66.2344 84.4062V89.0938C66.2344 91.6979 65.0625 93 62.7188 93C60.1927 93 58.9297 91.6979 58.9297 89.0938V87.5312C58.9297 85.7083 58.1562 84.7969 56.6094 84.7969C55.0573 84.7969 54.2812 85.7083 54.2812 87.5312V89.5625C54.401 89.5104 54.5391 89.4844 54.6953 89.4844C54.8516 89.4844 55.0156 89.625 55.1875 89.9062C55.3646 90.1823 55.4531 90.6276 55.4531 91.2422C55.4531 91.8568 55.3385 92.3047 55.1094 92.5859C54.8854 92.862 54.5833 93 54.2031 93C53.8229 93 53.5208 92.8594 53.2969 92.5781C53.1198 92.3646 53.0104 92.0495 52.9688 91.6328H52.9531V87.5312C52.9531 85.9062 53.4271 84.7891 54.375 84.1797C54.1406 83.7891 53.7969 83.474 53.3438 83.2344V82.4531C53.3438 81.6719 53.7344 81.2812 54.5156 81.2812H58.8125V82.4531H55.0625C54.8021 82.4531 54.6719 82.5833 54.6719 82.8438C55.0781 83.0625 55.3984 83.349 55.6328 83.7031C55.9349 83.651 56.2604 83.625 56.6094 83.625C59.0417 83.625 60.2578 84.9271 60.2578 87.5312V89.0938C60.2578 90.9167 61.0781 91.8281 62.7188 91.8281C64.1771 91.8281 64.9062 90.9167 64.9062 89.0938V84.4062C64.9062 84.0417 64.6458 83.651 64.125 83.2344V82.4531C64.125 81.6719 64.5156 81.2812 65.2969 81.2812H66.625V82.4531H65.6875C65.4271 82.4531 65.2969 82.5833 65.2969 82.8438C65.9219 83.2604 66.2344 83.7812 66.2344 84.4062ZM70.1406 91.8281V90.6562H69.9453C69.888 90.6562 69.8411 90.6823 69.8047 90.7344C69.7682 90.7812 69.75 90.9505 69.75 91.2422C69.75 91.5339 69.7682 91.7057 69.8047 91.7578C69.8411 91.8047 69.888 91.8281 69.9453 91.8281H70.1406ZM71.4688 84.4062V91.2422C71.4688 91.9089 71.3802 92.3698 71.2031 92.625C71.0312 92.875 70.7031 93 70.2188 93C69.7344 93 69.4036 92.875 69.2266 92.625C69.0547 92.3698 68.9688 91.9089 68.9688 91.2422C68.9688 90.5755 69.0547 90.1172 69.2266 89.8672C69.4036 89.612 69.6432 89.4844 69.9453 89.4844C70.013 89.4844 70.0781 89.4896 70.1406 89.5V84.4062C70.0365 84.0417 69.776 83.651 69.3594 83.2344V82.4531C69.3594 81.6719 69.75 81.2812 70.5312 81.2812H71.8594V82.4531H70.9219C70.6615 82.4531 70.5312 82.5833 70.5312 82.8438C71.1562 83.2604 71.4688 83.7812 71.4688 84.4062ZM76.8984 91.8281C76.9557 91.8281 77.0026 91.8047 77.0391 91.7578C77.0755 91.7057 77.0938 91.5339 77.0938 91.2422C77.0938 90.9505 77.0755 90.7812 77.0391 90.7344C77.0026 90.6823 76.9557 90.6562 76.8984 90.6562H76.7031V91.8281H76.8984ZM76.7031 89.5C76.7656 89.4896 76.8307 89.4844 76.8984 89.4844C77.2005 89.4844 77.4375 89.612 77.6094 89.8672C77.7865 90.1172 77.875 90.5755 77.875 91.2422C77.875 91.9089 77.7865 92.3698 77.6094 92.625C77.4375 92.875 77.1094 93 76.625 93C76.1406 93 75.8099 92.875 75.6328 92.625C75.4609 92.3698 75.375 91.9089 75.375 91.2422V84.4062C75.2708 84.0417 75.0104 83.651 74.5938 83.2344V82.4531C74.5938 81.6719 74.9844 81.2812 75.7656 81.2812H77.0938V82.4531H76.1562C75.8958 82.4531 75.7656 82.5833 75.7656 82.8438C76.3906 83.2604 76.7031 83.7812 76.7031 84.4062V89.5ZM81.7812 90.6562V91.8281C81.8906 91.8281 81.9818 91.7995 82.0547 91.7422C82.1328 91.6797 82.1719 91.513 82.1719 91.2422C82.1719 90.9714 82.1328 90.8073 82.0547 90.75C81.9818 90.6875 81.8906 90.6562 81.7812 90.6562ZM93.8906 84.4062V89.0938C93.8906 91.6979 92.7188 93 90.375 93C87.849 93 86.5859 91.6979 86.5859 89.0938V87.5312C86.5859 85.7083 85.8125 84.7969 84.2656 84.7969C82.7135 84.7969 81.9375 85.7083 81.9375 87.5312V89.5625C82.0573 89.5104 82.1953 89.4844 82.3516 89.4844C82.5078 89.4844 82.6719 89.625 82.8438 89.9062C83.0208 90.1823 83.1094 90.6276 83.1094 91.2422C83.1094 91.8568 82.9948 92.3047 82.7656 92.5859C82.5417 92.862 82.2396 93 81.8594 93C81.4792 93 81.1771 92.8594 80.9531 92.5781C80.776 92.3646 80.6667 92.0495 80.625 91.6328H80.6094V87.5312C80.6094 85.9062 81.0833 84.7891 82.0312 84.1797C81.7969 83.7891 81.4531 83.474 81 83.2344V82.4531C81 81.6719 81.3906 81.2812 82.1719 81.2812H86.4688V82.4531H82.7188C82.4583 82.4531 82.3281 82.5833 82.3281 82.8438C82.7344 83.0625 83.0547 83.349 83.2891 83.7031C83.5911 83.651 83.9167 83.625 84.2656 83.625C86.6979 83.625 87.9141 84.9271 87.9141 87.5312V89.0938C87.9141 90.9167 88.7344 91.8281 90.375 91.8281C91.8333 91.8281 92.5625 90.9167 92.5625 89.0938V84.4062C92.5625 84.0417 92.3021 83.651 91.7812 83.2344V82.4531C91.7812 81.6719 92.1719 81.2812 92.9531 81.2812H94.2812V82.4531H93.3438C93.0833 82.4531 92.9531 82.5833 92.9531 82.8438C93.5781 83.2604 93.8906 83.7812 93.8906 84.4062ZM97.7969 91.8281V90.6562H97.6016C97.5443 90.6562 97.4974 90.6823 97.4609 90.7344C97.4245 90.7812 97.4062 90.9505 97.4062 91.2422C97.4062 91.5339 97.4245 91.7057 97.4609 91.7578C97.4974 91.8047 97.5443 91.8281 97.6016 91.8281H97.7969ZM99.125 84.4062V91.2422C99.125 91.9089 99.0365 92.3698 98.8594 92.625C98.6875 92.875 98.3594 93 97.875 93C97.3906 93 97.0599 92.875 96.8828 92.625C96.7109 92.3698 96.625 91.9089 96.625 91.2422C96.625 90.5755 96.7109 90.1172 96.8828 89.8672C97.0599 89.612 97.2995 89.4844 97.6016 89.4844C97.6693 89.4844 97.7344 89.4896 97.7969 89.5V84.4062C97.6927 84.0417 97.4323 83.651 97.0156 83.2344V82.4531C97.0156 81.6719 97.4062 81.2812 98.1875 81.2812H99.5156V82.4531H98.5781C98.3177 82.4531 98.1875 82.5833 98.1875 82.8438C98.8125 83.2604 99.125 83.7812 99.125 84.4062ZM104.555 91.8281C104.612 91.8281 104.659 91.8047 104.695 91.7578C104.732 91.7057 104.75 91.5339 104.75 91.2422C104.75 90.9505 104.732 90.7812 104.695 90.7344C104.659 90.6823 104.612 90.6562 104.555 90.6562H104.359V91.8281H104.555ZM104.359 89.5C104.422 89.4896 104.487 89.4844 104.555 89.4844C104.857 89.4844 105.094 89.612 105.266 89.8672C105.443 90.1172 105.531 90.5755 105.531 91.2422C105.531 91.9089 105.443 92.3698 105.266 92.625C105.094 92.875 104.766 93 104.281 93C103.797 93 103.466 92.875 103.289 92.625C103.117 92.3698 103.031 91.9089 103.031 91.2422V84.4062C102.927 84.0417 102.667 83.651 102.25 83.2344V82.4531C102.25 81.6719 102.641 81.2812 103.422 81.2812H104.75V82.4531H103.812C103.552 82.4531 103.422 82.5833 103.422 82.8438C104.047 83.2604 104.359 83.7812 104.359 84.4062V89.5ZM116.078 88.2344V89.875C116.078 91.9583 115.349 93 113.891 93C112.818 93 112.023 92.6745 111.508 92.0234C110.992 91.3724 110.354 91.0469 109.594 91.0469V93H108.266V88.3125H109.594V89.875C110.505 89.875 111.245 90.2005 111.812 90.8516C112.385 91.5026 112.966 91.8281 113.555 91.8281C114.352 91.8281 114.75 91.1771 114.75 89.875V89.0938C110.427 88.1562 108.266 86.5938 108.266 84.4062C108.266 82.3229 109.568 81.2812 112.172 81.2812C114.776 81.2812 116.078 82.3229 116.078 84.4062C116.078 85.8594 115.354 86.5859 113.906 86.5859C113.578 86.5859 113.312 86.5104 113.109 86.3594V85.1875C113.479 85.2969 113.781 85.3516 114.016 85.3516C114.505 85.3516 114.75 85.0365 114.75 84.4062C114.75 83.1042 113.891 82.4531 112.172 82.4531C110.453 82.4531 109.594 83.1042 109.594 84.4062C109.594 85.9688 111.755 87.2448 116.078 88.2344ZM119.438 81.6562V80.0312C119.438 79.5625 119.229 79.3281 118.812 79.3281H118.422V78.1562H119.203C120.245 78.1562 120.766 78.6771 120.766 79.7188V93H119.438V84.3984C119.432 83.1016 118.833 82.4531 117.641 82.4531H116.078V81.2812H117.641C118.365 81.2812 118.964 81.4062 119.438 81.6562ZM126 84.4062V94.9531C126 96.2552 126.56 96.9062 127.68 96.9062C128.799 96.9062 129.359 96.2552 129.359 94.9531V93.7812H130.688V94.9531C130.688 97.0365 129.685 98.0781 127.68 98.0781C125.674 98.0781 124.672 97.0365 124.672 94.9531V84.4062C124.672 84.0417 124.411 83.651 123.891 83.2344V82.4531C123.891 81.6719 124.281 81.2812 125.062 81.2812H126.391V82.4531H125.453C125.193 82.4531 125.062 82.5833 125.062 82.8438C125.688 83.2604 126 83.7812 126 84.4062ZM130.531 90.6562V91.8281C130.641 91.8281 130.732 91.7995 130.805 91.7422C130.883 91.6797 130.922 91.513 130.922 91.2422C130.922 90.9714 130.883 90.8073 130.805 90.75C130.732 90.6875 130.641 90.6562 130.531 90.6562ZM137.172 81.2812V82.4531H129.359V81.2812H137.172ZM129.359 87.5312C129.359 84.9271 130.661 83.625 133.266 83.625C135.87 83.625 137.172 84.9271 137.172 87.5312V93H135.844V87.5312C135.844 85.7083 134.984 84.7969 133.266 84.7969C131.547 84.7969 130.688 85.7083 130.688 87.5312V89.5625C130.807 89.5104 130.945 89.4844 131.102 89.4844C131.258 89.4844 131.422 89.625 131.594 89.9062C131.771 90.1823 131.859 90.6276 131.859 91.2422C131.859 91.8568 131.745 92.3047 131.516 92.5859C131.292 92.862 130.99 93 130.609 93C130.229 93 129.927 92.8594 129.703 92.5781C129.526 92.3646 129.417 92.0495 129.375 91.6328H129.359V87.5312ZM146.938 82.4688C146.938 82.3125 146.833 82.2344 146.625 82.2344C146.417 82.2344 146.312 82.3125 146.312 82.4688C146.312 82.6094 146.417 82.75 146.625 82.8906C146.833 82.7812 146.938 82.6406 146.938 82.4688ZM140.883 86.3594C140.826 86.3594 140.779 86.3854 140.742 86.4375C140.706 86.4844 140.688 86.6536 140.688 86.9453C140.688 87.237 140.706 87.4089 140.742 87.4609C140.779 87.5078 140.826 87.5312 140.883 87.5312H141.078V86.3594H140.883ZM142.406 91.4375L144.984 89.0938L147.562 91.4375V85.9688C147.562 85.4062 147.141 84.8099 146.297 84.1797C145.87 84.5911 145.146 84.7969 144.125 84.7969C142.99 84.7969 142.198 84.6484 141.75 84.3516C141.302 84.0547 141.078 83.6432 141.078 83.1172C141.078 82.5964 141.182 82.1094 141.391 81.6562C141.599 81.1979 141.703 80.8255 141.703 80.5391C141.703 80.2526 141.365 80.1094 140.688 80.1094V78.9375C142.146 78.9375 142.875 79.4323 142.875 80.4219C142.875 80.8125 142.771 81.25 142.562 81.7344C142.354 82.2135 142.25 82.5547 142.25 82.7578C142.25 82.9661 142.38 83.1641 142.641 83.3516C142.901 83.5339 143.414 83.625 144.18 83.625C144.841 83.625 145.318 83.5391 145.609 83.3672C145.349 83.1536 145.219 82.8229 145.219 82.375C145.219 81.6458 145.688 81.2812 146.625 81.2812C147.615 81.2812 148.109 81.724 148.109 82.6094C148.109 83.0625 147.906 83.4479 147.5 83.7656C148.427 84.4375 148.891 85.1719 148.891 85.9688V93H147.328L144.984 90.6562L142.641 93H141.078V88.6875C141.016 88.6979 140.951 88.7031 140.883 88.7031C140.581 88.7031 140.341 88.5781 140.164 88.3281C139.992 88.0729 139.906 87.612 139.906 86.9453C139.906 86.2786 139.992 85.8203 140.164 85.5703C140.341 85.3151 140.672 85.1875 141.156 85.1875C141.641 85.1875 141.969 85.3151 142.141 85.5703C142.318 85.8203 142.406 86.2786 142.406 86.9453V91.4375ZM145.57 75.4219V78.9375H144.398V75.4219H145.57ZM154.32 91.8281C154.378 91.8281 154.424 91.8047 154.461 91.7578C154.497 91.7057 154.516 91.5339 154.516 91.2422C154.516 90.9505 154.497 90.7812 154.461 90.7344C154.424 90.6823 154.378 90.6562 154.32 90.6562H154.125V91.8281H154.32ZM154.125 89.5C154.188 89.4896 154.253 89.4844 154.32 89.4844C154.622 89.4844 154.859 89.612 155.031 89.8672C155.208 90.1172 155.297 90.5755 155.297 91.2422C155.297 91.9089 155.208 92.3698 155.031 92.625C154.859 92.875 154.531 93 154.047 93C153.562 93 153.232 92.875 153.055 92.625C152.883 92.3698 152.797 91.9089 152.797 91.2422V84.4062C152.693 84.0417 152.432 83.651 152.016 83.2344V82.4531C152.016 81.6719 152.406 81.2812 153.188 81.2812H154.516V82.4531H153.578C153.318 82.4531 153.188 82.5833 153.188 82.8438C153.812 83.2604 154.125 83.7812 154.125 84.4062V89.5ZM165.844 88.2344V89.875C165.844 91.9583 165.115 93 163.656 93C162.583 93 161.789 92.6745 161.273 92.0234C160.758 91.3724 160.12 91.0469 159.359 91.0469V93H158.031V88.3125H159.359V89.875C160.271 89.875 161.01 90.2005 161.578 90.8516C162.151 91.5026 162.732 91.8281 163.32 91.8281C164.117 91.8281 164.516 91.1771 164.516 89.875V89.0938C160.193 88.1562 158.031 86.5938 158.031 84.4062C158.031 82.3229 159.333 81.2812 161.938 81.2812C164.542 81.2812 165.844 82.3229 165.844 84.4062C165.844 85.8594 165.12 86.5859 163.672 86.5859C163.344 86.5859 163.078 86.5104 162.875 86.3594V85.1875C163.245 85.2969 163.547 85.3516 163.781 85.3516C164.271 85.3516 164.516 85.0365 164.516 84.4062C164.516 83.1042 163.656 82.4531 161.938 82.4531C160.219 82.4531 159.359 83.1042 159.359 84.4062C159.359 85.9688 161.521 87.2448 165.844 88.2344ZM170.922 83.4297C170.922 83.6224 170.971 83.7682 171.07 83.8672C171.169 83.9661 171.315 84.0156 171.508 84.0156C171.706 84.0156 171.852 83.9661 171.945 83.8672C172.044 83.7682 172.094 83.6224 172.094 83.4297C172.094 83.2318 172.044 83.0859 171.945 82.9922C171.852 82.8932 171.706 82.8438 171.508 82.8438C171.315 82.8438 171.169 82.8932 171.07 82.9922C170.971 83.0859 170.922 83.2318 170.922 83.4297ZM173.266 83.4297C173.266 84.0182 173.12 84.4583 172.828 84.75C172.536 85.0417 172.096 85.1875 171.508 85.1875C170.919 85.1875 170.479 85.0417 170.188 84.75C169.896 84.4583 169.75 84.0182 169.75 83.4297C169.75 82.8411 169.896 82.401 170.188 82.1094C170.479 81.8177 170.919 81.6719 171.508 81.6719C172.096 81.6719 172.536 81.8177 172.828 82.1094C173.12 82.401 173.266 82.8411 173.266 83.4297ZM170.922 90.8516C170.922 91.0443 170.971 91.1901 171.07 91.2891C171.169 91.388 171.315 91.4375 171.508 91.4375C171.706 91.4375 171.852 91.388 171.945 91.2891C172.044 91.1901 172.094 91.0443 172.094 90.8516C172.094 90.6536 172.044 90.5078 171.945 90.4141C171.852 90.3151 171.706 90.2656 171.508 90.2656C171.315 90.2656 171.169 90.3151 171.07 90.4141C170.971 90.5078 170.922 90.6536 170.922 90.8516ZM173.266 90.8516C173.266 91.4401 173.12 91.8802 172.828 92.1719C172.536 92.4635 172.096 92.6094 171.508 92.6094C170.919 92.6094 170.479 92.4635 170.188 92.1719C169.896 91.8802 169.75 91.4401 169.75 90.8516C169.75 90.263 169.896 89.8229 170.188 89.5312C170.479 89.2396 170.919 89.0938 171.508 89.0938C172.096 89.0938 172.536 89.2396 172.828 89.5312C173.12 89.8229 173.266 90.263 173.266 90.8516Z" fill="#344054"/>
<path d="M372.807 89.7575C373.533 88.7665 373.859 87.5378 373.718 86.3173C373.577 85.0968 372.981 83.9745 372.048 83.1748C371.115 82.3752 369.915 81.9572 368.687 82.0045C367.46 82.0518 366.295 82.5609 365.427 83.4299C364.558 84.299 364.05 85.4639 364.003 86.6916C363.957 87.9194 364.376 89.1193 365.176 90.0515C365.977 90.9837 367.099 91.5793 368.32 91.7192C369.541 91.859 370.769 91.5329 371.759 90.806H371.759C371.781 90.836 371.805 90.8645 371.832 90.8922L374.72 93.7797C374.86 93.9204 375.051 93.9995 375.25 93.9996C375.449 93.9997 375.64 93.9207 375.781 93.7801C375.921 93.6395 376 93.4487 376 93.2497C376.001 93.0508 375.922 92.8599 375.781 92.7192L372.893 89.8317C372.867 89.8046 372.838 89.7795 372.807 89.7567V89.7575ZM373.001 86.8745C373.001 87.4162 372.894 87.9526 372.687 88.453C372.479 88.9535 372.176 89.4082 371.792 89.7913C371.409 90.1743 370.955 90.4782 370.454 90.6855C369.954 90.8928 369.417 90.9995 368.876 90.9995C368.334 90.9995 367.798 90.8928 367.297 90.6855C366.797 90.4782 366.342 90.1743 365.959 89.7913C365.576 89.4082 365.272 88.9535 365.065 88.453C364.857 87.9526 364.751 87.4162 364.751 86.8745C364.751 85.7804 365.185 84.7312 365.959 83.9576C366.732 83.1841 367.782 82.7495 368.876 82.7495C369.97 82.7495 371.019 83.1841 371.792 83.9576C372.566 84.7312 373.001 85.7804 373.001 86.8745Z" fill="#344054"/>
<rect x="35.5" y="64.5" width="358" height="47" rx="7.5" stroke="#98A2B3"/>
<path d="M38.125 130.656V131.828C38.2344 131.828 38.3255 131.799 38.3984 131.742C38.4766 131.68 38.5156 131.513 38.5156 131.242C38.5156 130.971 38.4766 130.807 38.3984 130.75C38.3255 130.688 38.2344 130.656 38.125 130.656ZM50.2344 124.406V129.094C50.2344 131.698 49.0625 133 46.7188 133C44.1927 133 42.9297 131.698 42.9297 129.094V127.531C42.9297 125.708 42.1562 124.797 40.6094 124.797C39.0573 124.797 38.2812 125.708 38.2812 127.531V129.562C38.401 129.51 38.5391 129.484 38.6953 129.484C38.8516 129.484 39.0156 129.625 39.1875 129.906C39.3646 130.182 39.4531 130.628 39.4531 131.242C39.4531 131.857 39.3385 132.305 39.1094 132.586C38.8854 132.862 38.5833 133 38.2031 133C37.8229 133 37.5208 132.859 37.2969 132.578C37.1198 132.365 37.0104 132.049 36.9688 131.633H36.9531V127.531C36.9531 125.906 37.4271 124.789 38.375 124.18C38.1406 123.789 37.7969 123.474 37.3438 123.234V122.453C37.3438 121.672 37.7344 121.281 38.5156 121.281H42.8125V122.453H39.0625C38.8021 122.453 38.6719 122.583 38.6719 122.844C39.0781 123.062 39.3984 123.349 39.6328 123.703C39.9349 123.651 40.2604 123.625 40.6094 123.625C43.0417 123.625 44.2578 124.927 44.2578 127.531V129.094C44.2578 130.917 45.0781 131.828 46.7188 131.828C48.1771 131.828 48.9062 130.917 48.9062 129.094V124.406C48.9062 124.042 48.6458 123.651 48.125 123.234V122.453C48.125 121.672 48.5156 121.281 49.2969 121.281H50.625V122.453H49.6875C49.4271 122.453 49.2969 122.583 49.2969 122.844C49.9219 123.26 50.2344 123.781 50.2344 124.406ZM50.2344 121.281H51.7969C53.8802 121.281 54.9219 122.323 54.9219 124.406V133H53.5938V124.406C53.5938 123.104 52.9948 122.453 51.7969 122.453H50.2344V121.281ZM58.8281 131.828V130.656H58.6328C58.5755 130.656 58.5286 130.682 58.4922 130.734C58.4557 130.781 58.4375 130.951 58.4375 131.242C58.4375 131.534 58.4557 131.706 58.4922 131.758C58.5286 131.805 58.5755 131.828 58.6328 131.828H58.8281ZM60.1562 124.406V131.242C60.1562 131.909 60.0677 132.37 59.8906 132.625C59.7188 132.875 59.3906 133 58.9062 133C58.4219 133 58.0911 132.875 57.9141 132.625C57.7422 132.37 57.6562 131.909 57.6562 131.242C57.6562 130.576 57.7422 130.117 57.9141 129.867C58.0911 129.612 58.3307 129.484 58.6328 129.484C58.7005 129.484 58.7656 129.49 58.8281 129.5V124.406C58.724 124.042 58.4635 123.651 58.0469 123.234V122.453C58.0469 121.672 58.4375 121.281 59.2188 121.281H60.5469V122.453H59.6094C59.349 122.453 59.2188 122.583 59.2188 122.844C59.8438 123.26 60.1562 123.781 60.1562 124.406ZM65.3906 124.406V134.953C65.3906 136.255 65.9505 136.906 67.0703 136.906C68.1901 136.906 68.75 136.255 68.75 134.953V133.781H70.0781V134.953C70.0781 137.036 69.0755 138.078 67.0703 138.078C65.0651 138.078 64.0625 137.036 64.0625 134.953V124.406C64.0625 124.042 63.8021 123.651 63.2812 123.234V122.453C63.2812 121.672 63.6719 121.281 64.4531 121.281H65.7812V122.453H64.8438C64.5833 122.453 64.4531 122.583 64.4531 122.844C65.0781 123.26 65.3906 123.781 65.3906 124.406ZM68.75 124.406C68.75 124.042 68.6198 123.651 68.3594 123.234V122.844C68.3594 121.802 68.8802 121.281 69.9219 121.281H76.5625V122.453H70.4688C69.9479 122.453 69.6875 122.609 69.6875 122.922C69.9479 123.339 70.0781 123.833 70.0781 124.406V129.094C70.0781 130.917 70.9375 131.828 72.6562 131.828C74.375 131.828 75.2344 130.917 75.2344 129.094V124.406H76.5625V133.781H75.2344V132.32C74.599 132.773 73.7396 133 72.6562 133C70.0521 133 68.75 131.698 68.75 129.094V124.406ZM76.1719 121.281H77.7344C79.8177 121.281 80.8594 122.323 80.8594 124.406V133H79.5312V124.406C79.5312 123.104 78.9323 122.453 77.7344 122.453H76.1719V121.281ZM91.25 124.406C91.25 124.042 90.9896 123.651 90.4688 123.234V122.453C90.4688 121.672 90.8594 121.281 91.6406 121.281H92.9688V122.453H92.0312C91.7708 122.453 91.6406 122.583 91.6406 122.844C92.2656 123.26 92.5781 123.781 92.5781 124.406V129.094C92.5781 131.698 91.276 133 88.6719 133C86.0677 133 84.7656 131.698 84.7656 129.094V124.406C84.7656 124.042 84.5052 123.651 83.9844 123.234V122.453C83.9844 121.672 84.375 121.281 85.1562 121.281H86.4844V122.453H85.5469C85.2865 122.453 85.1562 122.583 85.1562 122.844C85.7812 123.26 86.0938 123.781 86.0938 124.406V129.094C86.0938 130.917 86.9531 131.828 88.6719 131.828C90.3906 131.828 91.25 130.917 91.25 129.094V124.406ZM89.2578 115.422V118.938H88.0859V115.422H89.2578ZM97.6562 130.656V131.828C97.7656 131.828 97.8568 131.799 97.9297 131.742C98.0078 131.68 98.0469 131.513 98.0469 131.242C98.0469 130.971 98.0078 130.807 97.9297 130.75C97.8568 130.688 97.7656 130.656 97.6562 130.656ZM96.4844 123.625L98.5156 121.281L100.391 122.844L102.266 121.281L104.297 123.625V133H102.969V123.938L102.188 122.961L100.391 124.25L98.5938 122.961L97.8125 123.938V129.562C97.9323 129.51 98.0703 129.484 98.2266 129.484C98.3828 129.484 98.5469 129.625 98.7188 129.906C98.8958 130.182 98.9844 130.628 98.9844 131.242C98.9844 131.857 98.8698 132.305 98.6406 132.586C98.4167 132.862 98.1146 133 97.7344 133C97.3542 133 97.0521 132.859 96.8281 132.578C96.651 132.365 96.5417 132.049 96.5 131.633H96.4844V123.625ZM99.6094 117.922H103.125C101.828 117.036 100.786 116.594 100 116.594C98.9583 116.594 98.4375 116.815 98.4375 117.258C98.4375 117.701 98.8281 117.922 99.6094 117.922ZM103.125 116.633V114.641H104.297V118.938H99.2188C97.9167 118.938 97.2656 118.417 97.2656 117.375C97.2656 116.073 98.1771 115.422 100 115.422C101.042 115.422 102.018 115.773 102.93 116.477C102.997 116.529 103.062 116.581 103.125 116.633ZM114.688 124.406C114.688 124.042 114.427 123.651 113.906 123.234V122.453C113.906 121.672 114.297 121.281 115.078 121.281H116.406V122.453H115.469C115.208 122.453 115.078 122.583 115.078 122.844C115.703 123.26 116.016 123.781 116.016 124.406V129.094C116.016 131.698 114.714 133 112.109 133C109.505 133 108.203 131.698 108.203 129.094V124.406C108.203 124.042 107.943 123.651 107.422 123.234V122.453C107.422 121.672 107.812 121.281 108.594 121.281H109.922V122.453H108.984C108.724 122.453 108.594 122.583 108.594 122.844C109.219 123.26 109.531 123.781 109.531 124.406V129.094C109.531 130.917 110.391 131.828 112.109 131.828C113.828 131.828 114.688 130.917 114.688 129.094V124.406ZM121.094 130.656V131.828C121.203 131.828 121.294 131.799 121.367 131.742C121.445 131.68 121.484 131.513 121.484 131.242C121.484 130.971 121.445 130.807 121.367 130.75C121.294 130.688 121.203 130.656 121.094 130.656ZM127.188 122.57L129.57 121.281H130.078C132.161 121.281 133.203 122.323 133.203 124.406V133H131.875V124.406C131.875 123.104 131.276 122.453 130.078 122.453H129.766L127.969 123.312L127.188 122.57ZM119.922 123.625L121.953 121.281L123.828 122.844L125.703 121.281L127.734 123.625V133H126.406V123.938L125.625 122.961L123.828 124.25L122.031 122.961L121.25 123.938V129.562C121.37 129.51 121.508 129.484 121.664 129.484C121.82 129.484 121.984 129.625 122.156 129.906C122.333 130.182 122.422 130.628 122.422 131.242C122.422 131.857 122.307 132.305 122.078 132.586C121.854 132.862 121.552 133 121.172 133C120.792 133 120.49 132.859 120.266 132.578C120.089 132.365 119.979 132.049 119.938 131.633H119.922V123.625ZM128.711 135.734C128.711 134.432 129.396 133.781 130.766 133.781C132.13 133.781 132.812 134.432 132.812 135.734V138.078H131.641V135.734C131.641 135.214 131.349 134.953 130.766 134.953C130.177 134.953 129.883 135.214 129.883 135.734V136.125C129.883 137.427 129.201 138.078 127.836 138.078C126.466 138.078 125.781 137.427 125.781 136.125V133.781H126.953V136.125C126.953 136.646 127.247 136.906 127.836 136.906C128.419 136.906 128.711 136.646 128.711 136.125V135.734ZM133.203 121.281H134.766C136.849 121.281 137.891 122.323 137.891 124.406V133H136.562V124.406C136.562 123.104 135.964 122.453 134.766 122.453H133.203V121.281Z" fill="#D7260F"/>
<rect x="35" y="64" width="16" height="48" fill="#EE7D22" fill-opacity="0.24"/>
<rect x="35" y="64" width="359" height="8" fill="#EE7D22" fill-opacity="0.24"/>
<rect x="35" y="104" width="359" height="8" fill="#EE7D22" fill-opacity="0.24"/>
<rect x="378" y="64" width="16" height="48" fill="#EE7D22" fill-opacity="0.24"/>
<path d="M35 144.5H51" stroke="#F07D03"/>
<rect x="25" y="149" width="36" height="18" rx="3" fill="#F07D03"/>
<path d="M34.7536 154.727V162H33.2159V156.187H33.1733L31.5078 157.231V155.867L33.3082 154.727H34.7536ZM39.2733 162.099C38.8992 162.097 38.5382 162.034 38.1902 161.911C37.8445 161.788 37.5344 161.588 37.2598 161.311C36.9851 161.034 36.7673 160.667 36.6064 160.21C36.4477 159.753 36.3684 159.192 36.3684 158.527C36.3708 157.916 36.4406 157.371 36.5779 156.89C36.7176 156.407 36.9165 155.997 37.1745 155.661C37.435 155.325 37.7463 155.069 38.1085 154.894C38.4707 154.717 38.8767 154.628 39.3265 154.628C39.8118 154.628 40.2404 154.723 40.612 154.912C40.9837 155.099 41.282 155.353 41.5069 155.675C41.7342 155.997 41.8715 156.358 41.9189 156.759H40.4025C40.3433 156.505 40.219 156.306 40.0297 156.162C39.8403 156.018 39.6059 155.945 39.3265 155.945C38.853 155.945 38.4932 156.151 38.247 156.563C38.0031 156.975 37.8788 157.535 37.8741 158.243H37.9238C38.0327 158.027 38.1795 157.844 38.3642 157.692C38.5512 157.539 38.7631 157.421 38.9998 157.341C39.2389 157.258 39.4911 157.217 39.7562 157.217C40.1871 157.217 40.5706 157.318 40.9068 157.522C41.243 157.723 41.5081 158 41.7022 158.353C41.8964 158.706 41.9934 159.109 41.9934 159.564C41.9934 160.056 41.8786 160.494 41.649 160.878C41.4217 161.261 41.1033 161.562 40.6937 161.78C40.2865 161.995 39.813 162.102 39.2733 162.099ZM39.2662 160.892C39.5029 160.892 39.7148 160.835 39.9018 160.722C40.0888 160.608 40.2356 160.454 40.3422 160.26C40.4487 160.066 40.502 159.848 40.502 159.607C40.502 159.365 40.4487 159.148 40.3422 158.957C40.238 158.765 40.0936 158.612 39.9089 158.499C39.7243 158.385 39.5136 158.328 39.2768 158.328C39.0993 158.328 38.9347 158.361 38.7832 158.428C38.6341 158.494 38.5027 158.586 38.389 158.705C38.2778 158.823 38.1902 158.96 38.1262 159.116C38.0623 159.27 38.0304 159.435 38.0304 159.61C38.0304 159.844 38.0836 160.059 38.1902 160.253C38.2991 160.447 38.4458 160.602 38.6305 160.718C38.8175 160.834 39.0294 160.892 39.2662 160.892ZM43.0978 164.045V156.545H44.5893V157.462H44.6568C44.7231 157.315 44.819 157.166 44.9444 157.014C45.0723 156.86 45.238 156.732 45.4416 156.631C45.6475 156.527 45.9032 156.474 46.2086 156.474C46.6064 156.474 46.9733 156.579 47.3095 156.787C47.6457 156.993 47.9144 157.304 48.1156 157.721C48.3168 158.135 48.4174 158.655 48.4174 159.28C48.4174 159.888 48.3192 160.402 48.1227 160.821C47.9286 161.238 47.6634 161.554 47.3272 161.769C46.9934 161.982 46.6194 162.089 46.2051 162.089C45.9115 162.089 45.6618 162.04 45.4558 161.943C45.2522 161.846 45.0853 161.724 44.9551 161.577C44.8249 161.428 44.7254 161.278 44.6568 161.126H44.6106V164.045H43.0978ZM44.5787 159.273C44.5787 159.597 44.6236 159.88 44.7136 160.121C44.8036 160.363 44.9338 160.551 45.1042 160.686C45.2747 160.819 45.4818 160.885 45.7257 160.885C45.9719 160.885 46.1802 160.817 46.3507 160.683C46.5211 160.545 46.6502 160.356 46.7377 160.114C46.8277 159.871 46.8727 159.59 46.8727 159.273C46.8727 158.958 46.8289 158.681 46.7413 158.442C46.6537 158.203 46.5247 158.016 46.3542 157.881C46.1838 157.746 45.9743 157.678 45.7257 157.678C45.4795 157.678 45.2711 157.743 45.1007 157.874C44.9326 158.004 44.8036 158.188 44.7136 158.428C44.6236 158.667 44.5787 158.948 44.5787 159.273ZM50.4949 156.545L51.4963 158.452L52.5225 156.545H54.0744L52.4941 159.273L54.117 162H52.5723L51.4963 160.114L50.438 162H48.8755L50.4949 159.273L48.9324 156.545H50.4949Z" fill="white"/>
<line x1="35.5" y1="148" x2="35.5" y2="141" stroke="#F07D03"/>
<line x1="50.5" y1="148" x2="50.5" y2="141" stroke="#F07D03"/>
<path d="M378 128.5H394" stroke="#F07D03"/>
<rect x="368" y="133" width="36" height="18" rx="3" fill="#F07D03"/>
<path d="M377.754 138.727V146H376.216V140.187H376.173L374.508 141.231V139.867L376.308 138.727H377.754ZM382.273 146.099C381.899 146.097 381.538 146.034 381.19 145.911C380.845 145.788 380.534 145.588 380.26 145.311C379.985 145.034 379.767 144.667 379.606 144.21C379.448 143.753 379.368 143.192 379.368 142.527C379.371 141.916 379.441 141.371 379.578 140.89C379.718 140.407 379.916 139.997 380.175 139.661C380.435 139.325 380.746 139.069 381.108 138.894C381.471 138.717 381.877 138.628 382.327 138.628C382.812 138.628 383.24 138.723 383.612 138.912C383.984 139.099 384.282 139.353 384.507 139.675C384.734 139.997 384.872 140.358 384.919 140.759H383.403C383.343 140.505 383.219 140.306 383.03 140.162C382.84 140.018 382.606 139.945 382.327 139.945C381.853 139.945 381.493 140.151 381.247 140.563C381.003 140.975 380.879 141.535 380.874 142.243H380.924C381.033 142.027 381.18 141.844 381.364 141.692C381.551 141.539 381.763 141.421 382 141.341C382.239 141.258 382.491 141.217 382.756 141.217C383.187 141.217 383.571 141.318 383.907 141.522C384.243 141.723 384.508 142 384.702 142.353C384.896 142.706 384.993 143.109 384.993 143.564C384.993 144.056 384.879 144.494 384.649 144.878C384.422 145.261 384.103 145.562 383.694 145.78C383.287 145.995 382.813 146.102 382.273 146.099ZM382.266 144.892C382.503 144.892 382.715 144.835 382.902 144.722C383.089 144.608 383.236 144.454 383.342 144.26C383.449 144.066 383.502 143.848 383.502 143.607C383.502 143.365 383.449 143.148 383.342 142.957C383.238 142.765 383.094 142.612 382.909 142.499C382.724 142.385 382.514 142.328 382.277 142.328C382.099 142.328 381.935 142.361 381.783 142.428C381.634 142.494 381.503 142.586 381.389 142.705C381.278 142.823 381.19 142.96 381.126 143.116C381.062 143.27 381.03 143.435 381.03 143.61C381.03 143.844 381.084 144.059 381.19 144.253C381.299 144.447 381.446 144.602 381.631 144.718C381.818 144.834 382.029 144.892 382.266 144.892ZM386.098 148.045V140.545H387.589V141.462H387.657C387.723 141.315 387.819 141.166 387.944 141.014C388.072 140.86 388.238 140.732 388.442 140.631C388.648 140.527 388.903 140.474 389.209 140.474C389.606 140.474 389.973 140.579 390.309 140.787C390.646 140.993 390.914 141.304 391.116 141.721C391.317 142.135 391.417 142.655 391.417 143.28C391.417 143.888 391.319 144.402 391.123 144.821C390.929 145.238 390.663 145.554 390.327 145.769C389.993 145.982 389.619 146.089 389.205 146.089C388.912 146.089 388.662 146.04 388.456 145.943C388.252 145.846 388.085 145.724 387.955 145.577C387.825 145.428 387.725 145.278 387.657 145.126H387.611V148.045H386.098ZM387.579 143.273C387.579 143.597 387.624 143.88 387.714 144.121C387.804 144.363 387.934 144.551 388.104 144.686C388.275 144.819 388.482 144.885 388.726 144.885C388.972 144.885 389.18 144.817 389.351 144.683C389.521 144.545 389.65 144.356 389.738 144.114C389.828 143.871 389.873 143.59 389.873 143.273C389.873 142.958 389.829 142.681 389.741 142.442C389.654 142.203 389.525 142.016 389.354 141.881C389.184 141.746 388.974 141.678 388.726 141.678C388.479 141.678 388.271 141.743 388.101 141.874C387.933 142.004 387.804 142.188 387.714 142.428C387.624 142.667 387.579 142.948 387.579 143.273ZM393.495 140.545L394.496 142.452L395.523 140.545H397.074L395.494 143.273L397.117 146H395.572L394.496 144.114L393.438 146H391.876L393.495 143.273L391.932 140.545H393.495Z" fill="white"/>
<line x1="378.5" y1="132" x2="378.5" y2="125" stroke="#F07D03"/>
<line x1="393.5" y1="132" x2="393.5" y2="125" stroke="#F07D03"/>
<path d="M410.5 64V72" stroke="#F07D03"/>
<rect x="415" y="60.5" width="31" height="18" rx="3" fill="#F07D03"/>
<path d="M424.303 73.5994C423.756 73.5994 423.269 73.5107 422.843 73.3331C422.419 73.1532 422.087 72.9081 421.845 72.598C421.604 72.2879 421.483 71.9363 421.483 71.5433C421.483 71.2403 421.552 70.9621 421.689 70.7088C421.829 70.4531 422.018 70.2412 422.257 70.0732C422.496 69.9027 422.764 69.7938 423.06 69.7464V69.6967C422.671 69.6186 422.357 69.4304 422.115 69.1321C421.874 68.8314 421.753 68.4822 421.753 68.0845C421.753 67.7081 421.863 67.3731 422.083 67.0795C422.303 66.7836 422.605 66.5516 422.989 66.3835C423.375 66.2131 423.812 66.1278 424.303 66.1278C424.793 66.1278 425.229 66.2131 425.613 66.3835C425.999 66.554 426.302 66.7872 426.522 67.0831C426.742 67.3767 426.853 67.7105 426.856 68.0845C426.853 68.4846 426.73 68.8338 426.487 69.1321C426.243 69.4304 425.93 69.6186 425.549 69.6967V69.7464C425.84 69.7938 426.104 69.9027 426.341 70.0732C426.58 70.2412 426.769 70.4531 426.909 70.7088C427.051 70.9621 427.123 71.2403 427.126 71.5433C427.123 71.9363 427.001 72.2879 426.76 72.598C426.518 72.9081 426.185 73.1532 425.759 73.3331C425.335 73.5107 424.849 73.5994 424.303 73.5994ZM424.303 72.4702C424.546 72.4702 424.759 72.4264 424.942 72.3388C425.124 72.2488 425.266 72.1257 425.368 71.9695C425.472 71.8108 425.524 71.6286 425.524 71.4226C425.524 71.2119 425.471 71.026 425.364 70.8651C425.258 70.7017 425.113 70.5739 424.931 70.4815C424.749 70.3868 424.539 70.3395 424.303 70.3395C424.068 70.3395 423.859 70.3868 423.674 70.4815C423.489 70.5739 423.344 70.7017 423.237 70.8651C423.133 71.026 423.081 71.2119 423.081 71.4226C423.081 71.6286 423.132 71.8108 423.234 71.9695C423.335 72.1257 423.479 72.2488 423.663 72.3388C423.848 72.4264 424.061 72.4702 424.303 72.4702ZM424.303 69.2209C424.506 69.2209 424.687 69.1795 424.846 69.0966C425.004 69.0137 425.129 68.8989 425.219 68.7521C425.309 68.6054 425.354 68.4361 425.354 68.2443C425.354 68.0549 425.309 67.8892 425.219 67.7472C425.129 67.6027 425.006 67.4903 424.849 67.4098C424.693 67.3269 424.511 67.2855 424.303 67.2855C424.097 67.2855 423.914 67.3269 423.756 67.4098C423.597 67.4903 423.473 67.6027 423.383 67.7472C423.295 67.8892 423.251 68.0549 423.251 68.2443C423.251 68.4361 423.296 68.6054 423.386 68.7521C423.476 68.8989 423.601 69.0137 423.759 69.0966C423.918 69.1795 424.099 69.2209 424.303 69.2209ZM428.215 75.5455V68.0455H429.706V68.9616H429.774C429.84 68.8149 429.936 68.6657 430.062 68.5142C430.189 68.3603 430.355 68.2325 430.559 68.1307C430.765 68.0265 431.02 67.9744 431.326 67.9744C431.724 67.9744 432.09 68.0786 432.427 68.2869C432.763 68.4929 433.032 68.8042 433.233 69.2209C433.434 69.6352 433.535 70.1548 433.535 70.7798C433.535 71.3883 433.436 71.902 433.24 72.321C433.046 72.7377 432.781 73.0537 432.444 73.2692C432.111 73.4822 431.737 73.5888 431.322 73.5888C431.029 73.5888 430.779 73.5402 430.573 73.4432C430.369 73.3461 430.202 73.2242 430.072 73.0774C429.942 72.9283 429.843 72.7779 429.774 72.6264H429.728V75.5455H428.215ZM429.696 70.7727C429.696 71.0971 429.741 71.38 429.831 71.6214C429.921 71.8629 430.051 72.0511 430.221 72.1861C430.392 72.3187 430.599 72.3849 430.843 72.3849C431.089 72.3849 431.297 72.3175 431.468 72.1825C431.638 72.0452 431.767 71.8558 431.855 71.6143C431.945 71.3705 431.99 71.09 431.99 70.7727C431.99 70.4579 431.946 70.1809 431.858 69.9418C431.771 69.7027 431.642 69.5156 431.471 69.3807C431.301 69.2457 431.091 69.1783 430.843 69.1783C430.597 69.1783 430.388 69.2434 430.218 69.3736C430.05 69.5038 429.921 69.6884 429.831 69.9276C429.741 70.1667 429.696 70.4484 429.696 70.7727ZM435.612 68.0455L436.613 69.9524L437.64 68.0455H439.192L437.611 70.7727L439.234 73.5H437.689L436.613 71.6143L435.555 73.5H433.993L435.612 70.7727L434.05 68.0455H435.612Z" fill="white"/>
<line x1="407" y1="64.5" x2="414" y2="64.5" stroke="#F07D03"/>
<line x1="407" y1="71.5" x2="414" y2="71.5" stroke="#F07D03"/>
<path d="M410.5 104V112" stroke="#F07D03"/>
<rect x="415" y="100.5" width="31" height="18" rx="3" fill="#F07D03"/>
<path d="M424.303 113.599C423.756 113.599 423.269 113.511 422.843 113.333C422.419 113.153 422.087 112.908 421.845 112.598C421.604 112.288 421.483 111.936 421.483 111.543C421.483 111.24 421.552 110.962 421.689 110.709C421.829 110.453 422.018 110.241 422.257 110.073C422.496 109.903 422.764 109.794 423.06 109.746V109.697C422.671 109.619 422.357 109.43 422.115 109.132C421.874 108.831 421.753 108.482 421.753 108.085C421.753 107.708 421.863 107.373 422.083 107.08C422.303 106.784 422.605 106.552 422.989 106.384C423.375 106.213 423.812 106.128 424.303 106.128C424.793 106.128 425.229 106.213 425.613 106.384C425.999 106.554 426.302 106.787 426.522 107.083C426.742 107.377 426.853 107.71 426.856 108.085C426.853 108.485 426.73 108.834 426.487 109.132C426.243 109.43 425.93 109.619 425.549 109.697V109.746C425.84 109.794 426.104 109.903 426.341 110.073C426.58 110.241 426.769 110.453 426.909 110.709C427.051 110.962 427.123 111.24 427.126 111.543C427.123 111.936 427.001 112.288 426.76 112.598C426.518 112.908 426.185 113.153 425.759 113.333C425.335 113.511 424.849 113.599 424.303 113.599ZM424.303 112.47C424.546 112.47 424.759 112.426 424.942 112.339C425.124 112.249 425.266 112.126 425.368 111.969C425.472 111.811 425.524 111.629 425.524 111.423C425.524 111.212 425.471 111.026 425.364 110.865C425.258 110.702 425.113 110.574 424.931 110.482C424.749 110.387 424.539 110.339 424.303 110.339C424.068 110.339 423.859 110.387 423.674 110.482C423.489 110.574 423.344 110.702 423.237 110.865C423.133 111.026 423.081 111.212 423.081 111.423C423.081 111.629 423.132 111.811 423.234 111.969C423.335 112.126 423.479 112.249 423.663 112.339C423.848 112.426 424.061 112.47 424.303 112.47ZM424.303 109.221C424.506 109.221 424.687 109.179 424.846 109.097C425.004 109.014 425.129 108.899 425.219 108.752C425.309 108.605 425.354 108.436 425.354 108.244C425.354 108.055 425.309 107.889 425.219 107.747C425.129 107.603 425.006 107.49 424.849 107.41C424.693 107.327 424.511 107.286 424.303 107.286C424.097 107.286 423.914 107.327 423.756 107.41C423.597 107.49 423.473 107.603 423.383 107.747C423.295 107.889 423.251 108.055 423.251 108.244C423.251 108.436 423.296 108.605 423.386 108.752C423.476 108.899 423.601 109.014 423.759 109.097C423.918 109.179 424.099 109.221 424.303 109.221ZM428.215 115.545V108.045H429.706V108.962H429.774C429.84 108.815 429.936 108.666 430.062 108.514C430.189 108.36 430.355 108.232 430.559 108.131C430.765 108.027 431.02 107.974 431.326 107.974C431.724 107.974 432.09 108.079 432.427 108.287C432.763 108.493 433.032 108.804 433.233 109.221C433.434 109.635 433.535 110.155 433.535 110.78C433.535 111.388 433.436 111.902 433.24 112.321C433.046 112.738 432.781 113.054 432.444 113.269C432.111 113.482 431.737 113.589 431.322 113.589C431.029 113.589 430.779 113.54 430.573 113.443C430.369 113.346 430.202 113.224 430.072 113.077C429.942 112.928 429.843 112.778 429.774 112.626H429.728V115.545H428.215ZM429.696 110.773C429.696 111.097 429.741 111.38 429.831 111.621C429.921 111.863 430.051 112.051 430.221 112.186C430.392 112.319 430.599 112.385 430.843 112.385C431.089 112.385 431.297 112.317 431.468 112.183C431.638 112.045 431.767 111.856 431.855 111.614C431.945 111.371 431.99 111.09 431.99 110.773C431.99 110.458 431.946 110.181 431.858 109.942C431.771 109.703 431.642 109.516 431.471 109.381C431.301 109.246 431.091 109.178 430.843 109.178C430.597 109.178 430.388 109.243 430.218 109.374C430.05 109.504 429.921 109.688 429.831 109.928C429.741 110.167 429.696 110.448 429.696 110.773ZM435.612 108.045L436.613 109.952L437.64 108.045H439.192L437.611 110.773L439.234 113.5H437.689L436.613 111.614L435.555 113.5H433.993L435.612 110.773L434.05 108.045H435.612Z" fill="white"/>
<line x1="407" y1="104.5" x2="414" y2="104.5" stroke="#F07D03"/>
<line x1="407" y1="111.5" x2="414" y2="111.5" stroke="#F07D03"/>
</svg>
